<?xml version="1.0" encoding="UTF-8" standalone="no"?>
<!-- Created with Inkscape (http://www.inkscape.org/) -->

<svg
   width="500mm"
   height="87.776878mm"
   viewBox="0 0 500 87.776879"
   version="1.1"
   id="svg12688"
   inkscape:version="1.1.2 (0a00cf5339, 2022-02-04)"
   sodipodi:docname="ESTG-logo.svg"
   xmlns:inkscape="http://www.inkscape.org/namespaces/inkscape"
   xmlns:sodipodi="http://sodipodi.sourceforge.net/DTD/sodipodi-0.dtd"
   xmlns="http://www.w3.org/2000/svg"
   xmlns:svg="http://www.w3.org/2000/svg">
  <sodipodi:namedview
     id="namedview12690"
     pagecolor="#505050"
     bordercolor="#ffffff"
     borderopacity="1"
     inkscape:pageshadow="0"
     inkscape:pageopacity="0"
     inkscape:pagecheckerboard="1"
     inkscape:document-units="mm"
     showgrid="false"
     inkscape:zoom="0.7500982"
     inkscape:cx="943.20984"
     inkscape:cy="152.64668"
     inkscape:window-width="1920"
     inkscape:window-height="1007"
     inkscape:window-x="1536"
     inkscape:window-y="30"
     inkscape:window-maximized="1"
     inkscape:current-layer="layer1" />
  <defs
     id="defs12685" />
  <g
     inkscape:label="Layer 1"
     inkscape:groupmode="layer"
     id="layer1"
     transform="translate(144.67891,-108.32469)">
    <g
       id="g20982"
       transform="matrix(0.97753066,0,0,0.97753066,-3.2508402,2.4339847)">
      <g
         id="text">
        <path
           d="m -143.48502,144.74165 h 9.71397 v 32.42561 h -9.71397 z"
           style="fill:#000000;fill-opacity:1;fill-rule:nonzero;stroke:none;stroke-width:1.24714"
           id="path11390" />
        <g
           id="g11392"
           transform="matrix(1.2471389,0,0,-1.2471389,-58.63355,144.7414)">
          <path
             d="m 0,0 -9.607,-26 h -8.828 l -9.607,26 h 8.621 l 5.4,-16.484 5.4,16.484 z"
             style="fill:#000000;fill-opacity:1;fill-rule:nonzero;stroke:none"
             id="path11394" />
        </g>
        <path
           d="m -57.985294,160.9542 c 0,-9.66159 7.316964,-17.12072 17.161878,-17.12072 6.281839,0 11.851561,3.30866 14.636423,8.3022 l -8.484286,4.92869 c -1.101224,-2.26979 -3.432127,-3.63166 -6.283086,-3.63166 -4.207847,0 -7.316964,3.04676 -7.316964,7.52149 0,4.47473 3.109117,7.52274 7.316964,7.52274 2.850959,0 5.24796,-1.36187 6.283086,-3.63167 l 8.484286,4.86509 c -2.784862,5.05715 -8.289733,8.36581 -14.636423,8.36581 -9.844914,0 -17.161878,-7.45914 -17.161878,-17.12197"
           style="fill:#000000;fill-opacity:1;fill-rule:nonzero;stroke:none;stroke-width:1.24714"
           id="path11406" />
        <path
           d="m -111.40312,168.47719 c -3.69527,0 -6.91164,-2.41571 -6.91164,-7.21345 0,-5.31905 3.07794,-7.83079 6.94531,-7.83079 4.2091,0 7.30075,3.04676 7.30075,7.52275 0,4.47473 -3.12533,7.52149 -7.33442,7.52149 m -0.1297,-24.64346 c -8.33962,0 -15.77506,7.86321 -15.77506,16.28139 l 0.0237,38.00407 h 9.74639 v -22.11676 c 1.24714,1.15609 3.89856,2.07274 6.05985,2.07274 9.84367,0 17.134443,-7.45789 17.134443,-17.11947 0,-9.66284 -7.345653,-17.12197 -17.189313,-17.12197"
           style="fill:#000000;fill-opacity:1;fill-rule:nonzero;stroke:none;stroke-width:1.24714"
           id="path11410" />
        <path
           d="M 7.1432978,122.91896 H 23.574353 v 4.27145 H 11.882426 v 4.42859 h 10.288896 v 4.2702 H 11.882426 v 4.58324 h 11.847819 v 4.27145 H 7.1432978 Z"
           style="fill:#000000;fill-opacity:1;fill-rule:nonzero;stroke:none;stroke-width:1.24714"
           id="path11414" />
        <path
           d="m 33.055602,145.05568 c -1.184782,0 -2.395754,-0.20204 -3.632916,-0.60736 -1.235914,-0.40532 -2.415708,-1.0451 -3.538133,-1.91685 l 2.026601,-3.11785 c 0.914153,0.66473 1.823317,1.16358 2.727493,1.49532 0.905423,0.33299 1.750983,0.49886 2.541669,0.49886 0.685926,0 1.18977,-0.11474 1.511532,-0.34296 0.323009,-0.22823 0.48389,-0.53004 0.48389,-0.90418 v -0.0624 c 0,-0.24942 -0.09354,-0.46767 -0.280606,-0.65475 -0.187071,-0.18707 -0.441487,-0.34795 -0.764496,-0.48388 -0.321762,-0.1347 -0.690915,-0.2644 -1.106212,-0.38911 -0.416545,-0.12472 -0.853043,-0.25941 -1.309496,-0.40408 -0.582414,-0.16711 -1.168569,-0.36915 -1.762208,-0.60985 -0.591143,-0.2382 -1.127413,-0.54998 -1.605067,-0.93535 -0.478902,-0.38287 -0.868009,-0.85678 -1.168569,-1.418 -0.303055,-0.56121 -0.452712,-1.24714 -0.452712,-2.05778 v -0.0624 c 0,-0.8518 0.160881,-1.60632 0.482643,-2.25982 0.323009,-0.65599 0.75826,-1.21097 1.310743,-1.66867 0.549988,-0.45645 1.194759,-0.80066 1.933065,-1.02889 0.737059,-0.22823 1.531487,-0.34296 2.38453,-0.34296 1.060068,0 2.136349,0.17085 3.227595,0.51382 1.091247,0.34421 2.092699,0.81687 3.008099,1.41924 l -1.808351,3.27374 c -0.831842,-0.47765 -1.642482,-0.85678 -2.431921,-1.13864 -0.790686,-0.2806 -1.48659,-0.42028 -2.088958,-0.42028 -0.582414,0 -1.018912,0.1085 -1.309496,0.328 -0.29183,0.21824 -0.436498,0.49261 -0.436498,0.8256 v 0.0624 c 0,0.22822 0.09353,0.43151 0.280606,0.60735 0.187071,0.17835 0.436499,0.34297 0.748283,0.49886 0.311785,0.15589 0.669714,0.30804 1.076281,0.45271 0.404073,0.14592 0.835583,0.29058 1.293283,0.4365 0.581167,0.18707 1.173558,0.41031 1.777173,0.67096 0.602368,0.25941 1.142379,0.57618 1.621281,0.95032 0.477654,0.37414 0.87175,0.83184 1.183535,1.37185 0.311784,0.54001 0.467677,1.19601 0.467677,1.96425 v 0.0624 c 0,0.93536 -0.159634,1.74101 -0.482643,2.41571 -0.321762,0.67595 -0.774473,1.23218 -1.35564,1.66867 -0.582414,0.4365 -1.263352,0.7645 -2.042814,0.9815 -0.779461,0.21825 -1.616292,0.328 -2.509243,0.328"
           style="fill:#000000;fill-opacity:1;fill-rule:nonzero;stroke:none;stroke-width:1.24714"
           id="path11418" />
        <path
           d="m 50.091021,145.11778 c -1.247139,0 -2.405731,-0.22947 -3.477023,-0.68593 -1.070045,-0.45645 -1.990434,-1.07503 -2.758672,-1.85449 -0.769484,-0.77946 -1.371852,-1.69486 -1.808351,-2.74371 -0.436499,-1.05009 -0.654748,-2.16752 -0.654748,-3.35231 v -0.0623 c 0,-1.18479 0.218249,-2.30596 0.654748,-3.36728 0.436499,-1.05882 1.038867,-1.98544 1.808351,-2.77364 0.768238,-0.79068 1.688627,-1.41425 2.758672,-1.8707 1.071292,-0.45895 2.251085,-0.68718 3.53938,-0.68718 1.578878,0 2.888374,0.24943 3.928487,0.74829 1.038867,0.49885 1.954267,1.18602 2.743706,2.05777 l -2.899598,3.11785 c -0.540011,-0.55996 -1.096235,-1.00769 -1.668672,-1.33943 -0.571189,-0.33298 -1.283306,-0.5001 -2.135102,-0.5001 -0.602368,0 -1.148614,0.11973 -1.637493,0.35793 -0.487631,0.2407 -0.914153,0.56745 -1.278317,0.98275 -0.362918,0.41529 -0.643524,0.89918 -0.840572,1.44917 -0.198295,0.55248 -0.296819,1.13989 -0.296819,1.76346 v 0.0611 c 0,0.64477 0.09852,1.24714 0.296819,1.80959 0.197048,0.56122 0.482643,1.04885 0.856785,1.46415 0.374141,0.41529 0.820617,0.74329 1.340674,0.98149 0.51881,0.2407 1.101223,0.36043 1.745994,0.36043 0.789439,0 1.480354,-0.16088 2.072745,-0.48389 0.593638,-0.32301 1.179794,-0.75452 1.762207,-1.29453 l 2.774884,2.80606 c -0.81064,0.8942 -1.736017,1.62627 -2.774884,2.19871 -1.038866,0.57119 -2.390765,0.85678 -4.053201,0.85678"
           style="fill:#000000;fill-opacity:1;fill-rule:nonzero;stroke:none;stroke-width:1.24714"
           id="path11422" />
        <path
           d="m 67.073555,141.03403 c 0.685926,0 1.29453,-0.11973 1.824564,-0.35918 0.528787,-0.2382 0.981499,-0.5662 1.35564,-0.98149 0.374142,-0.4153 0.659737,-0.89919 0.858032,-1.45043 0.197048,-0.55123 0.295572,-1.13739 0.295572,-1.76096 v -0.0623 c 0,-0.62357 -0.103513,-1.21098 -0.311785,-1.76221 -0.207025,-0.55124 -0.51008,-1.03887 -0.904176,-1.46539 -0.394096,-0.42527 -0.861773,-0.76325 -1.403031,-1.01392 -0.541258,-0.24818 -1.132402,-0.3729 -1.777173,-0.3729 -0.685926,0 -1.293283,0.11848 -1.823317,0.35793 -0.530034,0.23945 -0.982745,0.56745 -1.356887,0.98275 -0.374142,0.41529 -0.659737,0.89918 -0.856785,1.44917 -0.198295,0.55124 -0.296819,1.13864 -0.296819,1.76221 v 0.0624 c 0,0.62357 0.10476,1.21097 0.311785,1.76096 0.208272,0.55123 0.508833,1.04011 0.904176,1.46538 0.395343,0.42653 0.856784,0.7645 1.388065,1.01393 0.530034,0.24818 1.127414,0.37414 1.792139,0.37414 m -0.06236,4.08313 c -1.288294,0 -2.484301,-0.22199 -3.585524,-0.66971 -1.102471,-0.44648 -2.052791,-1.06007 -2.852207,-1.83953 -0.800663,-0.77946 -1.429221,-1.69362 -1.886921,-2.74246 -0.4577,-1.05009 -0.685926,-2.17875 -0.685926,-3.38349 v -0.0623 c 0,-1.20599 0.228226,-2.3334 0.685926,-3.38349 0.4577,-1.04885 1.091246,-1.96923 1.901887,-2.75867 0.81064,-0.79069 1.767196,-1.41426 2.868419,-1.87071 1.101224,-0.4577 2.307207,-0.68717 3.616703,-0.68717 1.288294,0 2.483054,0.22448 3.585524,0.67096 1.101224,0.44772 2.052791,1.06006 2.853454,1.83953 0.799416,0.77946 1.427974,1.69361 1.885674,2.7437 0.4577,1.05009 0.685927,2.17751 0.685927,3.38349 v 0.0624 c 0,1.20598 -0.228227,2.33339 -0.685927,3.38224 -0.4577,1.05009 -1.091246,1.97048 -1.901887,2.75992 -0.81064,0.78943 -1.767195,1.413 -2.868419,1.8707 -1.101224,0.45646 -2.307207,0.68468 -3.616703,0.68468"
           style="fill:#000000;fill-opacity:1;fill-rule:nonzero;stroke:none;stroke-width:1.24714"
           id="path11426" />
        <path
           d="m 79.157959,121.98386 h 4.739128 v 22.76028 h -4.739128 z"
           style="fill:#000000;fill-opacity:1;fill-rule:nonzero;stroke:none;stroke-width:1.24714"
           id="path11428" />
        <path
           d="m 94.05728,141.78194 c 1.122425,0 2.021612,-0.26938 2.697561,-0.80939 0.674703,-0.54126 1.012677,-1.24714 1.012677,-2.12139 v -0.84182 c -0.415297,-0.18707 -0.877986,-0.33797 -1.386818,-0.45271 -0.51008,-0.11349 -1.05508,-0.17085 -1.637494,-0.17085 -1.017665,0 -1.818328,0.19829 -2.400742,0.59239 -0.582414,0.39534 -0.87175,0.96653 -0.87175,1.71481 v 0.0624 c 0,0.64477 0.238203,1.14363 0.715858,1.49657 0.478901,0.35294 1.10247,0.53003 1.870708,0.53003 m -1.43421,3.27374 c -0.789439,0 -1.532733,-0.10975 -2.228637,-0.328 -0.697151,-0.217 -1.304507,-0.545 -1.824564,-0.9815 -0.51881,-0.43649 -0.930366,-0.97152 -1.230926,-1.60631 -0.301808,-0.63355 -0.452712,-1.36687 -0.452712,-2.19746 v -0.0624 c 0,-0.91415 0.167117,-1.70484 0.500103,-2.36956 0.331739,-0.66473 0.794428,-1.21471 1.386818,-1.65246 0.592391,-0.4365 1.298272,-0.76325 2.120137,-0.9815 0.820617,-0.21949 1.729781,-0.328 2.727492,-0.328 0.851796,0 1.595091,0.0624 2.229885,0.18832 0.633546,0.12347 1.252127,0.29059 1.854495,0.49761 v -0.28061 c 0,-0.99771 -0.301807,-1.75597 -0.904175,-2.27602 -0.602369,-0.51881 -1.496567,-0.77947 -2.681349,-0.77947 -0.914153,0 -1.719805,0.0786 -2.415708,0.23447 -0.697151,0.15589 -1.429221,0.37913 -2.198706,0.66971 l -1.183535,-3.6167 c 0.914153,-0.3941 1.870709,-0.71711 2.867173,-0.96654 0.997711,-0.24942 2.203694,-0.37414 3.616702,-0.37414 1.309496,0 2.426933,0.16088 3.35231,0.48389 0.92413,0.32176 1.688626,0.78445 2.290997,1.38682 0.62357,0.62357 1.08002,1.38682 1.37185,2.291 0.29058,0.90542 0.4365,1.91809 0.4365,3.04177 v 9.69525 h -4.583237 v -1.80835 c -0.582414,0.64353 -1.278318,1.1586 -2.088958,1.54271 -0.81064,0.38537 -1.798374,0.57743 -2.961955,0.57743"
           style="fill:#000000;fill-opacity:1;fill-rule:nonzero;stroke:none;stroke-width:1.24714"
           id="path11432" />
        <path
           d="m 123.36417,145.05568 c -1.66244,0 -3.29494,-0.28559 -4.89502,-0.85678 -1.60008,-0.57244 -3.05549,-1.45043 -4.36499,-2.63521 l 2.83849,-3.39721 c 0.99647,0.8094 2.02037,1.45417 3.06921,1.93182 1.05009,0.4789 2.19871,0.71711 3.44585,0.71711 0.99771,0 1.77218,-0.18208 2.32217,-0.54625 0.55123,-0.36292 0.8281,-0.86676 0.8281,-1.51153 v -0.0624 c 0,-0.31178 -0.0586,-0.58615 -0.17335,-0.82685 -0.11474,-0.23821 -0.33299,-0.46144 -0.656,-0.66972 -0.32301,-0.20827 -0.77198,-0.41529 -1.34441,-0.62356 -0.57369,-0.20828 -1.31823,-0.42653 -2.23612,-0.65475 -1.10372,-0.26938 -2.10393,-0.57119 -3.00062,-0.90418 -0.89669,-0.33174 -1.6562,-0.74329 -2.28102,-1.23092 -0.62606,-0.48888 -1.1112,-1.09624 -1.45416,-1.82457 -0.34421,-0.72708 -0.51632,-1.63126 -0.51632,-2.71253 v -0.0623 c 0,-0.99647 0.18583,-1.8969 0.55747,-2.69756 0.37165,-0.79942 0.89295,-1.49033 1.56392,-2.07275 0.6722,-0.58241 1.47287,-1.02889 2.40573,-1.34067 0.93036,-0.31179 1.958,-0.46768 3.08168,-0.46768 1.60008,0 3.06921,0.23945 4.41113,0.7171 1.34067,0.47891 2.5716,1.16483 3.69527,2.05903 l -2.49428,3.61546 c -0.979,-0.66473 -1.93431,-1.18977 -2.86966,-1.57514 -0.93536,-0.38287 -1.87071,-0.57618 -2.80607,-0.57618 -0.93535,0 -1.63624,0.18208 -2.10392,0.54625 -0.46768,0.36292 -0.70214,0.81563 -0.70214,1.35564 v 0.0636 c 0,0.35294 0.0674,0.65849 0.20328,0.91914 0.13594,0.25941 0.38038,0.49262 0.73457,0.7009 0.35419,0.20827 0.83932,0.40532 1.45416,0.59239 0.61484,0.18707 1.39056,0.40532 2.32841,0.65475 1.10497,0.29183 2.09021,0.61858 2.95447,0.98149 0.86427,0.36417 1.59385,0.80067 2.18873,1.3095 0.59364,0.51008 1.04136,1.10746 1.34442,1.79339 0.30056,0.68592 0.45271,1.50779 0.45271,2.46309 v 0.0624 c 0,1.08127 -0.1958,2.04281 -0.5874,2.88463 -0.3941,0.84058 -0.94035,1.5477 -1.64249,2.12014 -0.70213,0.57119 -1.54021,1.00769 -2.51298,1.3095 -0.97526,0.30056 -2.05404,0.45146 -3.23882,0.45146"
           style="fill:#000000;fill-opacity:1;fill-rule:nonzero;stroke:none;stroke-width:1.24714"
           id="path11436" />
        <path
           d="m 140.14754,145.05568 c -1.80835,0 -3.20639,-0.54999 -4.19288,-1.65246 -0.98773,-1.10122 -1.4816,-2.61899 -1.4816,-4.55206 v -10.81893 h 4.73913 v 9.29992 c 0,1.11993 0.24942,1.96549 0.74828,2.53543 0.49885,0.56994 1.20474,0.85429 2.12014,0.85429 0.91415,0 1.63749,-0.28435 2.16752,-0.85429 0.52879,-0.56994 0.79443,-1.4155 0.79443,-2.53543 v -9.29992 h 4.73913 v 16.71167 h -4.73913 v -2.38952 c -0.27063,0.35668 -0.5662,0.69715 -0.88921,1.02016 -0.32176,0.3255 -0.67969,0.61359 -1.07503,0.86551 -0.39535,0.25068 -0.83185,0.44897 -1.3095,0.59613 -0.47765,0.14592 -1.01891,0.2195 -1.62128,0.2195"
           style="fill:#000000;fill-opacity:1;fill-rule:nonzero;stroke:none;stroke-width:1.24714"
           id="path11440" />
        <path
           d="m 162.34574,141.03403 c 0.56121,0 1.08626,-0.10975 1.57514,-0.328 0.48763,-0.217 0.91914,-0.52878 1.29328,-0.93535 0.37414,-0.40532 0.67096,-0.88921 0.88921,-1.45042 0.21825,-0.55997 0.32675,-1.19476 0.32675,-1.90064 v -0.0624 c 0,-0.68593 -0.1085,-1.31573 -0.32675,-1.88692 -0.21825,-0.57119 -0.51507,-1.06007 -0.88921,-1.46414 -0.37414,-0.40657 -0.80565,-0.71836 -1.29328,-0.93536 -0.48888,-0.21949 -1.01393,-0.32799 -1.57514,-0.32799 -0.56121,0 -1.08626,0.1085 -1.57389,0.32799 -0.48888,0.217 -0.9154,0.52879 -1.27832,0.93536 -0.36416,0.40407 -0.65599,0.89295 -0.87299,1.46414 -0.21825,0.57119 -0.328,1.20099 -0.328,1.88692 v 0.0624 c 0,0.68592 0.10975,1.31448 0.328,1.88567 0.217,0.57244 0.50883,1.06007 0.87299,1.46539 0.36292,0.40657 0.78944,0.71835 1.27832,0.93535 0.48763,0.21825 1.01268,0.328 1.57389,0.328 m -8.72997,-13.00267 h 4.73913 v 2.40199 c 0.58241,-0.79069 1.2833,-1.4392 2.10517,-1.94928 0.82061,-0.50883 1.85449,-0.76449 3.10163,-0.76449 0.97651,0 1.92309,0.18831 2.83724,0.56121 0.91415,0.37414 1.72479,0.93161 2.43192,1.66867 0.70713,0.73831 1.27333,1.64248 1.69861,2.71253 0.42652,1.07129 0.63978,2.30346 0.63978,3.69527 v 0.0624 c 0,1.39305 -0.21326,2.62398 -0.63978,3.69402 -0.42528,1.07129 -0.98649,1.97547 -1.68239,2.71253 -0.69716,0.7383 -1.50281,1.29453 -2.41696,1.66742 -0.91415,0.37414 -1.87071,0.56246 -2.86842,0.56246 -1.26834,0 -2.3122,-0.25067 -3.13281,-0.74828 -0.82187,-0.49886 -1.51278,-1.08127 -2.07399,-1.74599 v 7.17104 h -4.73913 z"
           style="fill:#000000;fill-opacity:1;fill-rule:nonzero;stroke:none;stroke-width:1.24714"
           id="path11444" />
        <path
           d="m 185.11825,135.07856 c -0.14592,-1.06007 -0.52006,-1.91685 -1.12243,-2.57285 -0.60361,-0.65475 -1.40303,-0.9815 -2.40074,-0.9815 -0.99771,0 -1.80336,0.32301 -2.41695,0.96654 -0.61235,0.64477 -1.01268,1.50779 -1.19975,2.58781 z m -3.05549,10.03947 c -1.24714,0 -2.40573,-0.20703 -3.47702,-0.62357 -1.07005,-0.4153 -1.99543,-1.00769 -2.77489,-1.77717 -0.77946,-0.76824 -1.38682,-1.67865 -1.82331,-2.7275 -0.4365,-1.05009 -0.65475,-2.21866 -0.65475,-3.5082 v -0.0624 c 0,-1.18478 0.20203,-2.30596 0.60735,-3.36727 0.40532,-1.06007 0.97153,-1.98545 1.69985,-2.77488 0.72709,-0.78944 1.5951,-1.41301 2.60278,-1.87071 1.00769,-0.4577 2.12513,-0.68593 3.35231,-0.68593 1.39181,0 2.59779,0.24943 3.61671,0.74828 1.01766,0.49886 1.86447,1.16982 2.54042,2.01039 0.67595,0.84182 1.1748,1.8096 1.49781,2.90085 0.32052,1.09124 0.48264,2.22863 0.48264,3.41342 0,0.18707 -0.006,0.38536 -0.015,0.59239 -0.0112,0.20827 -0.0274,0.42652 -0.0474,0.65474 h -11.62957 c 0.22822,1.08127 0.70089,1.8969 1.41799,2.44814 0.71711,0.54999 1.60632,0.8256 2.66639,0.8256 0.78944,0 1.49656,-0.13469 2.12013,-0.40532 0.62357,-0.26938 1.2671,-0.70712 1.93307,-1.30949 l 2.71253,2.40074 c -0.79069,0.97776 -1.746,1.74101 -2.86842,2.29224 -1.12243,0.54999 -2.44315,0.82561 -3.95967,0.82561"
           style="fill:#000000;fill-opacity:1;fill-rule:nonzero;stroke:none;stroke-width:1.24714"
           id="path11448" />
        <path
           d="m 192.75024,128.03173 h 4.73913 v 3.36728 c 0.47765,-1.14238 1.1324,-2.05654 1.96424,-2.74371 0.8306,-0.68593 1.95302,-0.99771 3.36603,-0.93535 v 4.95862 h -0.24818 c -1.58013,0 -2.82228,0.47765 -3.72645,1.43421 -0.90293,0.95655 -1.35564,2.4419 -1.35564,4.45727 v 6.17334 h -4.73913 z"
           style="fill:#000000;fill-opacity:1;fill-rule:nonzero;stroke:none;stroke-width:1.24714"
           id="path11452" />
        <path
           d="m 205.12522,128.03123 h 4.73913 v 16.71166 h -4.73913 z"
           style="fill:#000000;fill-opacity:1;fill-rule:nonzero;stroke:none;stroke-width:1.24714"
           id="path11454" />
        <path
           d="m 221.95449,141.03403 c 0.68593,0 1.29328,-0.11973 1.82332,-0.35918 0.53003,-0.2382 0.98274,-0.5662 1.35688,-0.98149 0.37415,-0.4153 0.65974,-0.89919 0.85679,-1.45043 0.19829,-0.55123 0.29682,-1.13739 0.29682,-1.76096 v -0.0623 c 0,-0.62357 -0.10476,-1.21098 -0.31179,-1.76221 -0.20827,-0.55124 -0.51008,-1.03887 -0.90417,-1.46539 -0.39535,-0.42527 -0.86302,-0.76325 -1.40303,-1.01392 -0.54126,-0.24818 -1.13365,-0.3729 -1.77842,-0.3729 -0.68468,0 -1.29204,0.11848 -1.82332,0.35793 -0.52879,0.23945 -0.98275,0.56745 -1.35564,0.98275 -0.37414,0.41529 -0.65974,0.89918 -0.85803,1.44917 -0.1983,0.55124 -0.29557,1.13864 -0.29557,1.76221 v 0.0624 c 0,0.62357 0.10351,1.21097 0.31178,1.76096 0.20703,0.55123 0.50883,1.04011 0.90293,1.46538 0.39534,0.42653 0.85803,0.7645 1.38931,1.01393 0.52879,0.24818 1.12617,0.37414 1.79214,0.37414 m -0.0636,4.08313 c -1.28705,0 -2.48306,-0.22199 -3.58553,-0.66971 -1.10122,-0.44648 -2.05279,-1.06007 -2.85096,-1.83953 -0.80066,-0.77946 -1.43047,-1.69362 -1.88692,-2.74246 -0.4577,-1.05009 -0.68593,-2.17875 -0.68593,-3.38349 v -0.0623 c 0,-1.20599 0.22823,-2.3334 0.68593,-3.38349 0.45645,-1.04885 1.09125,-1.96923 1.90189,-2.75867 0.80939,-0.79069 1.76595,-1.41426 2.86842,-1.87071 1.10122,-0.4577 2.30596,-0.68717 3.6167,-0.68717 1.28829,0 2.48305,0.22448 3.58552,0.67096 1.10123,0.44772 2.05279,1.06006 2.85346,1.83953 0.79817,0.77946 1.42797,1.69361 1.88567,2.7437 0.45645,1.05009 0.68593,2.17751 0.68593,3.38349 v 0.0624 c 0,1.20598 -0.22948,2.33339 -0.68593,3.38224 -0.4577,1.05009 -1.09124,1.97048 -1.90188,2.75992 -0.81064,0.78943 -1.7672,1.413 -2.86842,1.8707 -1.10247,0.45646 -2.30721,0.68468 -3.61795,0.68468"
           style="fill:#000000;fill-opacity:1;fill-rule:nonzero;stroke:none;stroke-width:1.24714"
           id="path11458" />
        <path
           d="m 233.89847,128.03173 h 4.73913 v 3.36728 c 0.47765,-1.14238 1.1324,-2.05654 1.96424,-2.74371 0.8306,-0.68593 1.95302,-0.99771 3.36728,-0.93535 v 4.95862 h -0.24943 c -1.58013,0 -2.82228,0.47765 -3.72645,1.43421 -0.90418,0.95655 -1.35564,2.4419 -1.35564,4.45727 v 6.17334 h -4.73913 z"
           style="fill:#000000;fill-opacity:1;fill-rule:nonzero;stroke:none;stroke-width:1.24714"
           id="path11462" />
        <path
           d="m 15.966428,173.45963 c 0.561213,0 1.086258,-0.10975 1.575136,-0.328 0.487632,-0.217 0.914153,-0.52878 1.278318,-0.93535 0.362917,-0.40532 0.654748,-0.89295 0.872997,-1.46539 0.218249,-0.57119 0.32675,-1.19975 0.32675,-1.88567 v -0.0624 c 0,-0.68593 -0.108501,-1.31573 -0.32675,-1.88692 -0.218249,-0.57119 -0.51008,-1.06007 -0.872997,-1.46414 -0.364165,-0.40657 -0.790686,-0.71836 -1.278318,-0.93536 -0.488878,-0.21949 -1.013923,-0.32799 -1.575136,-0.32799 -0.561213,0 -1.086258,0.1085 -1.573889,0.32799 -0.488879,0.217 -0.920389,0.52879 -1.29453,0.93536 -0.374142,0.40407 -0.669714,0.88671 -0.887963,1.44917 -0.219497,0.56121 -0.326751,1.19601 -0.326751,1.90189 v 0.0624 c 0,0.68592 0.107254,1.31448 0.326751,1.88567 0.218249,0.57244 0.513821,1.06007 0.887963,1.46539 0.374141,0.40657 0.805651,0.71835 1.29453,0.93535 0.487631,0.21825 1.012676,0.328 1.573889,0.328 m -1.21596,4.02202 c -0.97651,0 -1.923089,-0.18832 -2.837241,-0.56246 -0.914153,-0.37289 -1.724794,-0.92912 -2.4319213,-1.66742 C 8.774178,174.51471 8.2079769,173.61053 7.7827025,172.53924 7.356181,171.4692 7.1429203,170.23827 7.1429203,168.84522 v -0.0624 c 0,-1.39181 0.2132607,-2.62398 0.6397822,-3.69527 0.4252744,-1.07005 0.9864869,-1.97422 1.6836376,-2.71253 0.6959039,-0.73706 1.5015549,-1.29453 2.4169549,-1.66867 0.912906,-0.3729 1.870709,-0.56121 2.867173,-0.56121 1.26834,0 2.312195,0.24942 3.13406,0.74953 0.820617,0.4976 1.511532,1.08002 2.072744,1.74474 v -8.22987 H 24.6964 v 22.76029 h -4.739128 v -2.40074 c -0.582413,0.79068 -1.283305,1.43919 -2.103923,1.94803 -0.821864,0.51008 -1.855743,0.76449 -3.102881,0.76449"
           style="fill:#000000;fill-opacity:1;fill-rule:nonzero;stroke:none;stroke-width:1.24714"
           id="path11466" />
        <path
           d="m 39.474498,167.50418 c -0.145915,-1.06007 -0.520057,-1.91685 -1.122425,-2.57285 -0.603615,-0.65475 -1.403031,-0.9815 -2.400742,-0.9815 -0.997712,0 -1.803363,0.32301 -2.415708,0.96654 -0.613593,0.64477 -1.013924,1.50779 -1.200995,2.58781 z m -3.05549,10.03947 c -1.247139,0 -2.405731,-0.20827 -3.475776,-0.62357 -1.071293,-0.4153 -1.995423,-1.00769 -2.774884,-1.77717 -0.779462,-0.76824 -1.388066,-1.67865 -1.824565,-2.7275 -0.436498,-1.05009 -0.654748,-2.21866 -0.654748,-3.5082 v -0.0624 c 0,-1.18478 0.203284,-2.30596 0.608604,-3.36727 0.40532,-1.06007 0.970274,-1.98545 1.698603,-2.77488 0.727082,-0.78944 1.595091,-1.41301 2.604026,-1.87071 1.007689,-0.4577 2.123878,-0.68593 3.351063,-0.68593 1.393054,0 2.59779,0.24943 3.616702,0.74828 1.018913,0.49886 1.86572,1.16982 2.540422,2.01039 0.67595,0.84182 1.174805,1.8096 1.497814,2.90085 0.321762,1.09124 0.482643,2.22863 0.482643,3.41342 0,0.18707 -0.005,0.38536 -0.01497,0.59239 -0.01122,0.20827 -0.02619,0.42652 -0.04739,0.65474 h -11.62957 c 0.228226,1.08127 0.702139,1.8969 1.419244,2.44814 0.715858,0.54999 1.605068,0.8256 2.665136,0.8256 0.789439,0 1.496566,-0.13469 2.120136,-0.40532 0.623569,-0.26938 1.267093,-0.70712 1.933065,-1.30949 l 2.712527,2.40074 c -0.789439,0.97776 -1.745994,1.74101 -2.868419,2.29224 -1.122425,0.54999 -2.443145,0.82561 -3.959666,0.82561"
           style="fill:#000000;fill-opacity:1;fill-rule:nonzero;stroke:none;stroke-width:1.24714"
           id="path11470" />
        <path
           d="m 61.922372,159.77166 h -6.641015 v -4.42734 h 18.083514 v 4.42734 h -6.641014 v 17.39759 h -4.801485 z"
           style="fill:#000000;fill-opacity:1;fill-rule:nonzero;stroke:none;stroke-width:1.24714"
           id="path11474" />
        <path
           d="m 84.192536,167.50418 c -0.145915,-1.06007 -0.520057,-1.91685 -1.122425,-2.57285 -0.602368,-0.65475 -1.403031,-0.9815 -2.400742,-0.9815 -0.997712,0 -1.803363,0.32301 -2.415708,0.96654 -0.613593,0.64477 -1.013924,1.50779 -1.200995,2.58781 z m -3.05549,10.03947 c -1.247139,0 -2.405731,-0.20827 -3.475776,-0.62357 -1.071293,-0.4153 -1.995423,-1.00769 -2.774884,-1.77717 -0.779462,-0.76824 -1.388066,-1.67865 -1.824565,-2.7275 -0.436498,-1.05009 -0.654748,-2.21866 -0.654748,-3.5082 v -0.0624 c 0,-1.18478 0.203284,-2.30596 0.608604,-3.36727 0.40532,-1.06007 0.970274,-1.98545 1.698603,-2.77488 0.727082,-0.78944 1.595091,-1.41301 2.604026,-1.87071 1.007689,-0.4577 2.123878,-0.68593 3.351063,-0.68593 1.393054,0 2.59779,0.24943 3.616702,0.74828 1.018913,0.49886 1.86572,1.16982 2.541669,2.01039 0.674703,0.84182 1.173558,1.8096 1.496567,2.90085 0.321762,1.09124 0.482643,2.22863 0.482643,3.41342 0,0.18707 -0.005,0.38536 -0.01497,0.59239 -0.01122,0.20827 -0.02619,0.42652 -0.04739,0.65474 H 77.11502 c 0.228226,1.08127 0.702139,1.8969 1.419244,2.44814 0.717105,0.54999 1.605068,0.8256 2.665136,0.8256 0.789439,0 1.496566,-0.13469 2.120136,-0.40532 0.623569,-0.26938 1.267093,-0.70712 1.933065,-1.30949 l 2.712527,2.40074 c -0.789439,0.97776 -1.745994,1.74101 -2.868419,2.29224 -1.122425,0.54999 -2.441898,0.82561 -3.959666,0.82561"
           style="fill:#000000;fill-opacity:1;fill-rule:nonzero;stroke:none;stroke-width:1.24714"
           id="path11478" />
        <path
           d="m 99.666037,177.54339 c -1.247139,0 -2.405731,-0.22947 -3.477023,-0.68593 -1.070045,-0.45645 -1.989187,-1.07503 -2.758671,-1.85449 -0.769485,-0.77946 -1.371853,-1.69486 -1.808352,-2.74371 -0.436499,-1.05009 -0.654748,-2.16752 -0.654748,-3.35231 v -0.0623 c 0,-1.18479 0.218249,-2.30596 0.654748,-3.36728 0.436499,-1.05882 1.038867,-1.98544 1.808352,-2.77364 0.769484,-0.79068 1.688626,-1.41425 2.758671,-1.8707 1.071292,-0.45895 2.251085,-0.68718 3.53938,-0.68718 1.578876,0 2.888376,0.24943 3.928486,0.74829 1.03887,0.49885 1.95427,1.18602 2.74371,2.05777 l -2.8996,3.11785 c -0.54001,-0.55996 -1.09624,-1.00769 -1.66867,-1.33943 -0.57119,-0.33298 -1.28331,-0.5001 -2.135105,-0.5001 -0.602368,0 -1.148614,0.11973 -1.637493,0.35793 -0.487631,0.2407 -0.914153,0.56745 -1.278317,0.98275 -0.362918,0.41529 -0.643524,0.89918 -0.840572,1.44917 -0.198295,0.55248 -0.296819,1.13989 -0.296819,1.76346 v 0.0611 c 0,0.64477 0.09852,1.24714 0.296819,1.80959 0.197048,0.56122 0.482643,1.04885 0.856785,1.46415 0.374141,0.41529 0.820617,0.74329 1.340674,0.98149 0.51881,0.2407 1.101223,0.36043 1.745994,0.36043 0.789444,0 1.480354,-0.16088 2.072744,-0.48389 0.59364,-0.32301 1.17979,-0.75452 1.76221,-1.29453 l 2.77488,2.80606 c -0.81064,0.8942 -1.73601,1.62627 -2.77488,2.19871 -1.03887,0.57119 -2.39077,0.85678 -4.053203,0.85678"
           style="fill:#000000;fill-opacity:1;fill-rule:nonzero;stroke:none;stroke-width:1.24714"
           id="path11482" />
        <path
           d="m 108.90384,160.45734 h 4.73913 v 2.38952 c 0.27063,-0.35544 0.5662,-0.69715 0.88796,-1.02016 0.32301,-0.32426 0.68219,-0.61235 1.07628,-0.86427 0.3941,-0.25067 0.83184,-0.44897 1.3095,-0.59613 0.4789,-0.14592 1.01766,-0.22074 1.62128,-0.22074 1.80835,0 3.20639,0.55123 4.19413,1.65245 0.98648,1.10248 1.48035,2.62024 1.48035,4.55331 V 177.169 h -4.73913 v -9.29991 c 0,-1.11869 -0.24943,-1.96425 -0.74828,-2.53419 -0.49886,-0.56994 -1.20598,-0.85429 -2.12014,-0.85429 -0.9154,0 -1.63749,0.28435 -2.16752,0.85429 -0.53004,0.56994 -0.79443,1.4155 -0.79443,2.53419 v 9.29991 h -4.73913 z"
           style="fill:#000000;fill-opacity:1;fill-rule:nonzero;stroke:none;stroke-width:1.24714"
           id="path11486" />
        <path
           d="m 136.0785,173.45963 c 0.68593,0 1.29453,-0.11973 1.82332,-0.35918 0.53003,-0.2382 0.98274,-0.5662 1.35688,-0.98149 0.37415,-0.4153 0.65974,-0.89919 0.85679,-1.45043 0.19829,-0.55123 0.29682,-1.13739 0.29682,-1.76096 v -0.0623 c 0,-0.62357 -0.10476,-1.21098 -0.31179,-1.76221 -0.20827,-0.55124 -0.51008,-1.03887 -0.90417,-1.46539 -0.39535,-0.42527 -0.86302,-0.76325 -1.40303,-1.01392 -0.54126,-0.24818 -1.13365,-0.3729 -1.77718,-0.3729 -0.68592,0 -1.29328,0.11848 -1.82456,0.35793 -0.52879,0.23945 -0.9815,0.56745 -1.35564,0.98275 -0.37414,0.41529 -0.65974,0.89918 -0.85803,1.44917 -0.19705,0.55124 -0.29557,1.13864 -0.29557,1.76221 v 0.0624 c 0,0.62357 0.10351,1.21097 0.31178,1.76096 0.20703,0.55123 0.50883,1.04011 0.90418,1.46538 0.39409,0.42653 0.85678,0.7645 1.38806,1.01393 0.52879,0.24818 1.12617,0.37414 1.79214,0.37414 m -0.0624,4.08313 c -1.28829,0 -2.4843,-0.22199 -3.58552,-0.66971 -1.10247,-0.44648 -2.05279,-1.06007 -2.85221,-1.83953 -0.80066,-0.77946 -1.43047,-1.69362 -1.88692,-2.74246 -0.4577,-1.05009 -0.68593,-2.17875 -0.68593,-3.38349 v -0.0623 c 0,-1.20599 0.22823,-2.3334 0.68593,-3.38349 0.45645,-1.04885 1.09125,-1.96923 1.90189,-2.75867 0.81064,-0.79069 1.76595,-1.41426 2.86842,-1.87071 1.10122,-0.4577 2.3072,-0.68717 3.6167,-0.68717 1.28829,0 2.4843,0.22448 3.58552,0.67096 1.10123,0.44772 2.05279,1.06006 2.85346,1.83953 0.79941,0.77946 1.42797,1.69361 1.88567,2.7437 0.4577,1.05009 0.68593,2.17751 0.68593,3.38349 v 0.0624 c 0,1.20598 -0.22823,2.33339 -0.68593,3.38224 -0.4577,1.05009 -1.09124,1.97048 -1.90188,2.75992 -0.81064,0.78943 -1.7672,1.413 -2.86842,1.8707 -1.10247,0.45646 -2.30721,0.68468 -3.61671,0.68468"
           style="fill:#000000;fill-opacity:1;fill-rule:nonzero;stroke:none;stroke-width:1.24714"
           id="path11490" />
        <path
           d="m 148.1634,154.40947 h 4.73913 v 22.76028 h -4.73913 z"
           style="fill:#000000;fill-opacity:1;fill-rule:nonzero;stroke:none;stroke-width:1.24714"
           id="path11492" />
        <path
           d="m 165.04829,173.45963 c 0.68593,0 1.29453,-0.11973 1.82332,-0.35918 0.53128,-0.2382 0.98274,-0.5662 1.35688,-0.98149 0.37415,-0.4153 0.65974,-0.89919 0.85679,-1.45043 0.19829,-0.55123 0.29682,-1.13739 0.29682,-1.76096 v -0.0623 c 0,-0.62357 -0.10351,-1.21098 -0.31179,-1.76221 -0.20827,-0.55124 -0.51008,-1.03887 -0.90417,-1.46539 -0.39535,-0.42527 -0.86302,-0.76325 -1.40303,-1.01392 -0.54126,-0.24818 -1.13365,-0.3729 -1.77718,-0.3729 -0.68592,0 -1.29328,0.11848 -1.82456,0.35793 -0.52879,0.23945 -0.9815,0.56745 -1.35564,0.98275 -0.37414,0.41529 -0.65974,0.89918 -0.85679,1.44917 -0.19829,0.55124 -0.29681,1.13864 -0.29681,1.76221 v 0.0624 c 0,0.62357 0.10476,1.21097 0.31178,1.76096 0.20827,0.55123 0.50883,1.04011 0.90418,1.46538 0.39534,0.42653 0.85803,0.7645 1.38806,1.01393 0.52879,0.24818 1.12617,0.37414 1.79214,0.37414 m -0.0624,4.08313 c -1.28829,0 -2.4843,-0.22199 -3.58552,-0.66971 -1.10247,-0.44648 -2.05279,-1.06007 -2.85221,-1.83953 -0.80066,-0.77946 -1.42922,-1.69362 -1.88692,-2.74246 -0.4577,-1.05009 -0.68593,-2.17875 -0.68593,-3.38349 v -0.0623 c 0,-1.20599 0.22823,-2.3334 0.68593,-3.38349 0.4577,-1.04885 1.09125,-1.96923 1.90189,-2.75867 0.81064,-0.79069 1.76719,-1.41426 2.86842,-1.87071 1.10122,-0.4577 2.3072,-0.68717 3.6167,-0.68717 1.28829,0 2.48305,0.22448 3.58552,0.67096 1.10123,0.44772 2.05279,1.06006 2.85346,1.83953 0.79941,0.77946 1.42797,1.69361 1.88567,2.7437 0.45645,1.05009 0.68593,2.17751 0.68593,3.38349 v 0.0624 c 0,1.20598 -0.22948,2.33339 -0.68593,3.38224 -0.4577,1.05009 -1.09124,1.97048 -1.90188,2.75992 -0.81064,0.78943 -1.7672,1.413 -2.86842,1.8707 -1.10247,0.45646 -2.30721,0.68468 -3.61671,0.68468"
           style="fill:#000000;fill-opacity:1;fill-rule:nonzero;stroke:none;stroke-width:1.24714"
           id="path11496" />
        <path
           d="m 184.93006,171.86916 c 0.58117,0 1.12243,-0.0935 1.62128,-0.28061 0.49886,-0.18707 0.93037,-0.45271 1.29328,-0.79442 0.36417,-0.34421 0.64976,-0.75452 0.85804,-1.23218 0.20702,-0.47765 0.31178,-0.99771 0.31178,-1.55892 v -0.0624 c 0,-0.56121 -0.10476,-1.08127 -0.31178,-1.55892 -0.20828,-0.47766 -0.49387,-0.88796 -0.85804,-1.23217 -0.36291,-0.34172 -0.79442,-0.60736 -1.29328,-0.79318 -0.49885,-0.18832 -1.04011,-0.28186 -1.62128,-0.28186 -0.58241,0 -1.11744,0.0935 -1.60631,0.28186 -0.48764,0.18582 -0.91416,0.45146 -1.27832,0.79318 -0.36292,0.34421 -0.64851,0.75451 -0.85679,1.23217 -0.20827,0.47765 -0.31178,0.99771 -0.31178,1.55892 v 0.0624 c 0,1.16483 0.38412,2.10018 1.1536,2.80606 0.76949,0.70713 1.73477,1.06007 2.8996,1.06007 m -0.56121,10.35125 c -1.37186,0 -2.68135,-0.1509 -3.92849,-0.45271 -1.24714,-0.30181 -2.40074,-0.73207 -3.46081,-1.29328 l 1.62128,-3.55435 c 0.873,0.4789 1.75098,0.8518 2.6352,1.12243 0.88298,0.26938 1.88568,0.40532 3.0081,0.40532 1.62128,0 2.82103,-0.38412 3.60049,-1.15361 0.77947,-0.76948 1.16982,-1.90188 1.16982,-3.39845 v -0.80939 c -0.70713,0.85179 -1.47661,1.51652 -2.30721,1.99417 -0.83184,0.4789 -1.88068,0.71711 -3.14902,0.71711 -0.97776,0 -1.91311,-0.17086 -2.80607,-0.51507 -0.89419,-0.34172 -1.68363,-0.84556 -2.36956,-1.51153 -0.68593,-0.66473 -1.23093,-1.48036 -1.63625,-2.44689 -0.40532,-0.96778 -0.6086,-2.07399 -0.6086,-3.32113 v -0.0624 c 0,-1.24714 0.20827,-2.35335 0.62357,-3.31988 0.4153,-0.96778 0.96653,-1.78216 1.65246,-2.44689 0.68593,-0.66597 1.47536,-1.17106 2.36956,-1.51278 0.8942,-0.34421 1.81833,-0.51507 2.77489,-0.51507 1.28829,0 2.34836,0.23946 3.1802,0.71711 0.8306,0.4789 1.5689,1.07004 2.21367,1.77717 v -2.18249 h 4.73913 v 12.94031 c 0,2.97069 -0.70713,5.16316 -2.12014,6.57741 -0.79068,0.78944 -1.78216,1.36188 -2.97692,1.71482 -1.196,0.35294 -2.60402,0.53003 -4.2253,0.53003"
           style="fill:#000000;fill-opacity:1;fill-rule:nonzero;stroke:none;stroke-width:1.24714"
           id="path11500" />
        <path
           d="m 197.62493,160.45684 h 4.73913 v 16.71166 h -4.73913 z"
           style="fill:#000000;fill-opacity:1;fill-rule:nonzero;stroke:none;stroke-width:1.24714"
           id="path11502" />
        <path
           d="m 212.46875,174.20754 c 1.12243,0 2.02161,-0.26938 2.69756,-0.80939 0.6747,-0.54126 1.01268,-1.24714 1.01268,-2.12139 v -0.84182 c -0.4153,-0.18707 -0.87799,-0.33797 -1.38682,-0.45271 -0.51008,-0.11349 -1.05508,-0.17085 -1.63749,-0.17085 -1.01892,0 -1.81958,0.19829 -2.40075,0.59239 -0.58241,0.39534 -0.87299,0.96653 -0.87299,1.71481 v 0.0624 c 0,0.64477 0.2382,1.14363 0.7171,1.49657 0.47766,0.35294 1.10123,0.53003 1.87071,0.53003 m -1.43421,3.27374 c -0.78944,0 -1.53273,-0.10975 -2.22988,-0.328 -0.69591,-0.217 -1.30326,-0.545 -1.82332,-0.9815 -0.51881,-0.43649 -0.93037,-0.97152 -1.23093,-1.60631 -0.3018,-0.63355 -0.45271,-1.36687 -0.45271,-2.19746 v -0.0624 c 0,-0.91415 0.16587,-1.70484 0.49886,-2.36956 0.33298,-0.66473 0.79567,-1.21471 1.38682,-1.65246 0.59363,-0.4365 1.29951,-0.76325 2.12138,-0.9815 0.82062,-0.21949 1.72978,-0.328 2.72749,-0.328 0.8518,0 1.59509,0.0624 2.22864,0.18832 0.63479,0.12347 1.25213,0.29059 1.85574,0.49761 v -0.28061 c 0,-0.99771 -0.30056,-1.75597 -0.90417,-2.27602 -0.60237,-0.51881 -1.49657,-0.77947 -2.68135,-0.77947 -0.9154,0 -1.71981,0.0786 -2.41571,0.23447 -0.69715,0.15589 -1.42922,0.37913 -2.19871,0.66971 l -1.18478,-3.6167 c 0.91415,-0.3941 1.87071,-0.71711 2.86842,-0.96654 0.99771,-0.24942 2.20369,-0.37414 3.6167,-0.37414 1.3095,0 2.42694,0.16088 3.35231,0.48389 0.92413,0.32176 1.68863,0.78445 2.291,1.38682 0.62357,0.62357 1.08002,1.38682 1.37185,2.291 0.29058,0.90542 0.4365,1.91809 0.4365,3.04177 v 9.69525 h -4.58324 v -1.80835 c -0.58116,0.64353 -1.27831,1.1586 -2.08895,1.54271 -0.81065,0.38537 -1.79838,0.57743 -2.96196,0.57743"
           style="fill:#000000;fill-opacity:1;fill-rule:nonzero;stroke:none;stroke-width:1.24714"
           id="path11506" />
        <path
           d="m 244.45712,167.50418 c -0.14592,-1.06007 -0.52006,-1.91685 -1.12243,-2.57285 -0.60361,-0.65475 -1.40303,-0.9815 -2.40074,-0.9815 -0.99771,0 -1.80336,0.32301 -2.41695,0.96654 -0.61235,0.64477 -1.01268,1.50779 -1.19975,2.58781 z m -3.05549,10.03947 c -1.24714,0 -2.40573,-0.20827 -3.47578,-0.62357 -1.07129,-0.4153 -1.99542,-1.00769 -2.77488,-1.77717 -0.77946,-0.76824 -1.38807,-1.67865 -1.82456,-2.7275 -0.4365,-1.05009 -0.65475,-2.21866 -0.65475,-3.5082 v -0.0624 c 0,-1.18478 0.20328,-2.30596 0.6086,-3.36727 0.40532,-1.06007 0.97028,-1.98545 1.6986,-2.77488 0.72709,-0.78944 1.5951,-1.41301 2.60278,-1.87071 1.00894,-0.4577 2.12513,-0.68593 3.35231,-0.68593 1.39306,0 2.59779,0.24943 3.61671,0.74828 1.01891,0.49886 1.86572,1.16982 2.54042,2.01039 0.67595,0.84182 1.1748,1.8096 1.49781,2.90085 0.32176,1.09124 0.48264,2.22863 0.48264,3.41342 0,0.18707 -0.005,0.38536 -0.015,0.59239 -0.0112,0.20827 -0.0262,0.42652 -0.0474,0.65474 h -11.62957 c 0.22822,1.08127 0.70214,1.8969 1.41799,2.44814 0.71836,0.54999 1.60632,0.8256 2.66639,0.8256 0.78944,0 1.49656,-0.13469 2.12013,-0.40532 0.62357,-0.26938 1.2671,-0.70712 1.93307,-1.30949 l 2.71253,2.40074 c -0.78944,0.97776 -1.746,1.74101 -2.86842,2.29224 -1.12243,0.54999 -2.4419,0.82561 -3.95967,0.82561"
           style="fill:#000000;fill-opacity:1;fill-rule:nonzero;stroke:none;stroke-width:1.24714"
           id="path11510" />
        <path
           d="m 272.3303,177.54339 c -1.70484,0 -3.25877,-0.28061 -4.66181,-0.84182 -1.40303,-0.56121 -2.60901,-1.34067 -3.6167,-2.33838 -1.00769,-0.99772 -1.79214,-2.1825 -2.35335,-3.5531 -0.56246,-1.3731 -0.84182,-2.86967 -0.84182,-4.49095 v -0.0624 c 0,-1.55892 0.28435,-3.01932 0.85679,-4.3812 0.57119,-1.35938 1.36686,-2.55538 2.38453,-3.58552 1.01891,-1.02889 2.22364,-1.83828 3.61795,-2.43192 1.3918,-0.59115 2.9183,-0.88796 4.58323,-0.88796 0.97651,0 1.86572,0.0673 2.66514,0.20328 0.80066,0.13469 1.54396,0.32675 2.22863,0.57618 0.68593,0.25067 1.3307,0.56246 1.93307,0.93535 0.60237,0.37414 1.18478,0.80067 1.74724,1.27832 l -3.02431,3.64913 c -0.41654,-0.35419 -0.83184,-0.66597 -1.24714,-0.93536 -0.41654,-0.27063 -0.84805,-0.5001 -1.29453,-0.68592 -0.44772,-0.18832 -0.93161,-0.33299 -1.44917,-0.43775 -0.52131,-0.10351 -1.09125,-0.15589 -1.71482,-0.15589 -0.87425,0 -1.68987,0.18333 -2.44813,0.54749 -0.75951,0.36417 -1.42424,0.85305 -1.99543,1.46789 -0.57243,0.61608 -1.01766,1.33443 -1.34067,2.15755 -0.32301,0.82186 -0.48264,1.70234 -0.48264,2.64019 v 0.0624 c 0,1.0002 0.15963,1.92184 0.48264,2.76615 0.32301,0.84182 0.77946,1.57763 1.37185,2.2012 0.59239,0.62606 1.28954,1.10995 2.08896,1.45416 0.80066,0.34421 1.68863,0.51507 2.66638,0.51507 1.78591,0 3.29245,-0.43899 4.52088,-1.31822 v -3.1403 h -4.83266 v -4.14674 h 9.47825 v 9.47951 c -1.12367,0.95531 -2.45935,1.77093 -4.00705,2.44688 -1.5477,0.67471 -3.31989,1.01268 -5.31531,1.01268"
           style="fill:#000000;fill-opacity:1;fill-rule:nonzero;stroke:none;stroke-width:1.24714"
           id="path11514" />
        <path
           d="m 296.50209,167.50418 c -0.14592,-1.06007 -0.52006,-1.91685 -1.12243,-2.57285 -0.60361,-0.65475 -1.40303,-0.9815 -2.40074,-0.9815 -0.99771,0 -1.80336,0.32301 -2.41695,0.96654 -0.61235,0.64477 -1.01268,1.50779 -1.19975,2.58781 z m -3.05549,10.03947 c -1.24714,0 -2.40573,-0.20827 -3.47702,-0.62357 -1.07005,-0.4153 -1.99418,-1.00769 -2.77364,-1.77717 -0.77946,-0.76824 -1.38807,-1.67865 -1.82456,-2.7275 -0.4365,-1.05009 -0.65475,-2.21866 -0.65475,-3.5082 v -0.0624 c 0,-1.18478 0.20328,-2.30596 0.6086,-3.36727 0.40407,-1.06007 0.97028,-1.98545 1.6986,-2.77488 0.72709,-0.78944 1.5951,-1.41301 2.60278,-1.87071 1.00894,-0.4577 2.12513,-0.68593 3.35231,-0.68593 1.39181,0 2.59779,0.24943 3.61671,0.74828 1.01766,0.49886 1.86447,1.16982 2.54042,2.01039 0.67595,0.84182 1.1748,1.8096 1.49781,2.90085 0.32052,1.09124 0.48264,2.22863 0.48264,3.41342 0,0.18707 -0.006,0.38536 -0.015,0.59239 -0.0112,0.20827 -0.0274,0.42652 -0.0474,0.65474 h -11.62957 c 0.22822,1.08127 0.70089,1.8969 1.41799,2.44814 0.71711,0.54999 1.60632,0.8256 2.66639,0.8256 0.78944,0 1.49656,-0.13469 2.12013,-0.40532 0.62357,-0.26938 1.2671,-0.70712 1.93307,-1.30949 l 2.71253,2.40074 c -0.79069,0.97776 -1.746,1.74101 -2.86842,2.29224 -1.12243,0.54999 -2.44315,0.82561 -3.95967,0.82561"
           style="fill:#000000;fill-opacity:1;fill-rule:nonzero;stroke:none;stroke-width:1.24714"
           id="path11518" />
        <path
           d="m 309.86469,177.48128 c -1.18478,0 -2.39575,-0.20204 -3.63167,-0.60736 -1.23716,-0.40532 -2.41695,-1.0451 -3.53938,-1.91685 l 2.0266,-3.11785 c 0.91415,0.66473 1.82457,1.16358 2.72874,1.49532 0.90293,0.33299 1.75098,0.49886 2.54042,0.49886 0.68593,0 1.18977,-0.11474 1.51278,-0.34296 0.32177,-0.22823 0.48265,-0.53004 0.48265,-0.90418 v -0.0624 c 0,-0.24942 -0.0935,-0.46767 -0.28061,-0.65475 -0.18707,-0.18707 -0.44273,-0.34795 -0.76325,-0.48388 -0.32301,-0.1347 -0.69216,-0.2644 -1.10746,-0.38911 -0.41654,-0.12472 -0.85304,-0.25941 -1.30949,-0.40408 -0.58242,-0.16711 -1.16857,-0.36915 -1.76221,-0.60985 -0.59239,-0.2382 -1.12742,-0.54998 -1.60507,-0.93535 -0.47765,-0.38287 -0.86801,-0.85678 -1.16982,-1.418 -0.30056,-0.56121 -0.45146,-1.24714 -0.45146,-2.05778 v -0.0624 c 0,-0.8518 0.16088,-1.60632 0.48389,-2.25982 0.32176,-0.65599 0.75826,-1.21097 1.3095,-1.66867 0.54998,-0.45645 1.19475,-0.80066 1.93181,-1.02889 0.73831,-0.22823 1.53274,-0.34296 2.38578,-0.34296 1.06007,0 2.1351,0.17085 3.22635,0.51382 1.09125,0.34421 2.09519,0.81687 3.00935,1.41924 l -1.80836,3.27374 c -0.83184,-0.47765 -1.64248,-0.85678 -2.43192,-1.13864 -0.79068,-0.2806 -1.48659,-0.42028 -2.08895,-0.42028 -0.58242,0 -1.01892,0.1085 -1.3095,0.328 -0.29058,0.21824 -0.4365,0.49261 -0.4365,0.8256 v 0.0624 c 0,0.22822 0.0935,0.43151 0.28061,0.60735 0.18707,0.17835 0.4365,0.34297 0.74828,0.49886 0.31179,0.15589 0.67096,0.30804 1.07503,0.45271 0.40657,0.14592 0.83683,0.29058 1.29453,0.4365 0.58117,0.18707 1.17356,0.41031 1.77718,0.67096 0.60237,0.25941 1.14238,0.57618 1.62128,0.95032 0.47765,0.37414 0.873,0.83184 1.18478,1.37185 0.31178,0.54001 0.46768,1.19601 0.46768,1.96425 v 0.0624 c 0,0.93536 -0.16088,1.74101 -0.48265,2.41571 -0.323,0.67595 -0.77572,1.23218 -1.35688,1.66867 -0.58242,0.4365 -1.26335,0.7645 -2.04282,0.9815 -0.77946,0.21825 -1.61504,0.328 -2.50924,0.328"
           style="fill:#000000;fill-opacity:1;fill-rule:nonzero;stroke:none;stroke-width:1.24714"
           id="path11522" />
        <path
           d="m 324.76488,177.45073 c -0.72833,0 -1.38807,-0.0786 -1.98046,-0.23446 -0.59239,-0.15589 -1.10122,-0.43027 -1.52774,-0.82686 -0.42528,-0.39409 -0.75826,-0.90791 -0.99771,-1.54271 -0.23945,-0.63479 -0.35793,-1.43919 -0.35793,-2.4157 v -7.92058 h -1.99542 v -4.0532 h 1.99542 v -4.27146 h 4.73913 v 4.27146 h 3.92848 v 4.0532 h -3.92848 v 7.16606 c 0,1.08501 0.50883,1.62751 1.52774,1.62751 0.8306,0 1.61006,-0.20827 2.33839,-0.62357 v 3.80378 c -0.49886,0.29058 -1.05009,0.52504 -1.65246,0.70089 -0.60362,0.17709 -1.29952,0.26564 -2.08896,0.26564"
           style="fill:#000000;fill-opacity:1;fill-rule:nonzero;stroke:none;stroke-width:1.24714"
           id="path11526" />
        <path
           d="m 337.73438,174.20754 c 1.12243,0 2.02161,-0.26938 2.69756,-0.80939 0.6747,-0.54126 1.01268,-1.24714 1.01268,-2.12139 v -0.84182 c -0.4153,-0.18707 -0.87799,-0.33797 -1.38807,-0.45271 -0.50883,-0.11349 -1.05383,-0.17085 -1.63624,-0.17085 -1.01892,0 -1.81833,0.19829 -2.40075,0.59239 -0.58241,0.39534 -0.87299,0.96653 -0.87299,1.71481 v 0.0624 c 0,0.64477 0.23945,1.14363 0.7171,1.49657 0.47766,0.35294 1.10123,0.53003 1.87071,0.53003 m -5.48741,-16.05691 c 0.18707,-0.64477 0.39035,-1.23093 0.6086,-1.76096 0.21825,-0.53128 0.47766,-0.98275 0.77946,-1.35689 0.30056,-0.37414 0.65475,-0.66473 1.05883,-0.873 0.40656,-0.20702 0.87923,-0.31178 1.41924,-0.31178 0.47765,0 0.94034,0.0623 1.38807,0.18707 0.44647,0.12471 0.86676,0.26439 1.2621,0.42028 0.39534,0.1559 0.75826,0.29682 1.09125,0.42154 0.33298,0.12596 0.64477,0.18707 0.93535,0.18707 0.47765,0 0.83683,-0.1297 1.07628,-0.38911 0.2382,-0.26065 0.47142,-0.63978 0.70089,-1.13864 l 2.52546,0.77946 c -0.35294,1.31075 -0.81563,2.35336 -1.38682,3.13282 -0.57244,0.77946 -1.39804,1.16981 -2.47931,1.16981 -0.47766,0 -0.94034,-0.0624 -1.38807,-0.18582 -0.44647,-0.12596 -0.86676,-0.26564 -1.2621,-0.42153 -0.39534,-0.1559 -0.7645,-0.29682 -1.10621,-0.42154 -0.34297,-0.12471 -0.64976,-0.18707 -0.92039,-0.18707 -0.47766,0 -0.83683,0.12971 -1.07504,0.39036 -0.23945,0.2594 -0.47266,0.63978 -0.70213,1.13739 z m 4.0532,19.33065 c -0.78944,0 -1.53273,-0.10975 -2.22988,-0.328 -0.69591,-0.217 -1.30326,-0.545 -1.82332,-0.9815 -0.51881,-0.43649 -0.93037,-0.97152 -1.23093,-1.60631 -0.3018,-0.63355 -0.45271,-1.36687 -0.45271,-2.19746 v -0.0624 c 0,-0.91415 0.16587,-1.70484 0.49886,-2.36956 0.33298,-0.66473 0.79567,-1.21471 1.38806,-1.65246 0.59239,-0.4365 1.29827,-0.76325 2.12014,-0.9815 0.82062,-0.21949 1.72978,-0.328 2.72749,-0.328 0.8518,0 1.59509,0.0624 2.22864,0.18832 0.63479,0.12347 1.25213,0.29059 1.85574,0.49761 v -0.28061 c 0,-0.99771 -0.30181,-1.75597 -0.90417,-2.27602 -0.60237,-0.51881 -1.49657,-0.77947 -2.68135,-0.77947 -0.9154,0 -1.71981,0.0786 -2.41571,0.23447 -0.69715,0.15589 -1.42922,0.37913 -2.19871,0.66971 l -1.18478,-3.6167 c 0.91415,-0.3941 1.87071,-0.71711 2.86842,-0.96654 0.99771,-0.24942 2.20369,-0.37414 3.6167,-0.37414 1.3095,0 2.42694,0.16088 3.35231,0.48389 0.92413,0.32176 1.68863,0.78445 2.291,1.38682 0.62357,0.62357 1.08127,1.38682 1.37185,2.291 0.29058,0.90542 0.4365,1.91809 0.4365,3.04177 v 9.69525 h -4.58324 v -1.80835 c -0.58241,0.64353 -1.27831,1.1586 -2.08895,1.54271 -0.81065,0.38537 -1.79838,0.57743 -2.96196,0.57743"
           style="fill:#000000;fill-opacity:1;fill-rule:nonzero;stroke:none;stroke-width:1.24714"
           id="path11530" />
        <path
           d="m 357.80346,173.45963 c 0.68593,0 1.29453,-0.11973 1.82456,-0.35918 0.52879,-0.2382 0.9815,-0.5662 1.35564,-0.98149 0.37415,-0.4153 0.65974,-0.89919 0.85804,-1.45043 0.19704,-0.55123 0.29557,-1.13739 0.29557,-1.76096 v -0.0623 c 0,-0.62357 -0.10476,-1.21098 -0.31179,-1.76221 -0.20827,-0.55124 -0.50883,-1.03887 -0.90417,-1.46539 -0.39535,-0.42527 -0.86302,-0.76325 -1.40303,-1.01392 -0.54002,-0.24818 -1.13241,-0.3729 -1.77718,-0.3729 -0.68592,0 -1.29328,0.11848 -1.82331,0.35793 -0.53004,0.23945 -0.98275,0.56745 -1.35689,0.98275 -0.37414,0.41529 -0.65974,0.89918 -0.85679,1.44917 -0.19829,0.55124 -0.29681,1.13864 -0.29681,1.76221 v 0.0624 c 0,0.62357 0.10351,1.21097 0.31178,1.76096 0.20703,0.55123 0.51008,1.04011 0.90418,1.46538 0.39409,0.42653 0.85678,0.7645 1.38806,1.01393 0.53004,0.24818 1.12741,0.37414 1.79214,0.37414 m -0.0624,4.08313 c -1.28829,0 -2.4843,-0.22199 -3.58552,-0.66971 -1.10122,-0.44648 -2.05279,-1.06007 -2.85221,-1.83953 -0.80066,-0.77946 -1.42922,-1.69362 -1.88692,-2.74246 -0.4577,-1.05009 -0.68593,-2.17875 -0.68593,-3.38349 v -0.0623 c 0,-1.20599 0.22823,-2.3334 0.68593,-3.38349 0.4577,-1.04885 1.09125,-1.96923 1.90313,-2.75867 0.8094,-0.79069 1.76595,-1.41426 2.86718,-1.87071 1.10122,-0.4577 2.3072,-0.68717 3.6167,-0.68717 1.28829,0 2.48305,0.22448 3.58552,0.67096 1.10248,0.44772 2.05279,1.06006 2.85346,1.83953 0.79941,0.77946 1.42797,1.69361 1.88567,2.7437 0.4577,1.05009 0.68593,2.17751 0.68593,3.38349 v 0.0624 c 0,1.20598 -0.22823,2.33339 -0.68593,3.38224 -0.4577,1.05009 -1.09124,1.97048 -1.90188,2.75992 -0.81064,0.78943 -1.7672,1.413 -2.86842,1.8707 -1.10123,0.45646 -2.30721,0.68468 -3.61671,0.68468"
           style="fill:#000000;fill-opacity:1;fill-rule:nonzero;stroke:none;stroke-width:1.24714"
           id="path11534" />
        <path
           d="m 207.49429,126.36443 c -1.47911,0 -2.71627,-1.23841 -2.71627,-2.72001 0,-1.4816 1.23716,-2.72001 2.71627,-2.72001 1.47911,0 2.71627,1.23841 2.71627,2.72001 0,1.4816 -1.23716,2.72001 -2.71627,2.72001"
           style="fill:#000000;fill-opacity:1;fill-rule:nonzero;stroke:none;stroke-width:1.24714"
           id="path11538" />
        <path
           d="m 199.99499,158.79004 c -1.48035,0 -2.71627,-1.23841 -2.71627,-2.72001 0,-1.4816 1.23716,-2.72001 2.71627,-2.72001 1.47911,0 2.71627,1.23841 2.71627,2.72001 0,1.4816 -1.23716,2.72001 -2.71627,2.72001"
           style="fill:#000000;fill-opacity:1;fill-rule:nonzero;stroke:none;stroke-width:1.24714"
           id="path11542" />
      </g>
      <g
         id="top">
        <path
           d="m -138.41328,114.17802 c -3.41217,0 -6.26563,2.85844 -6.26563,6.27436 0,3.41716 2.85346,6.2756 6.26563,6.2756 3.41092,0 6.26563,-2.85844 6.26563,-6.2756 0,-3.41592 -2.85471,-6.27436 -6.26563,-6.27436"
           style="fill:#f3ab1d;fill-opacity:1;fill-rule:nonzero;stroke:none;stroke-width:1.24714"
           id="path11850" />
        <path
           d="M -48.945653,108.32469 V 124.5375 H -63.91132 v -16.21281 h -33.67275 v 16.21281 h -14.96567 v -7.48284 h -9.97711 v 16.21281 h 5.74308 4.48471 23.444962 v -16.21281 h 14.965667 v 16.21281 h 33.67275 v -16.21281 h 16.212806 v -8.72997 z"
           style="fill:#f3ab1d;fill-opacity:1;fill-rule:nonzero;stroke:none;stroke-width:1.24714"
           id="path11854" />
      </g>
    </g>
  </g>
</svg>
