<?xml version="1.0" encoding="UTF-8" standalone="no"?>
<!-- Created with Inkscape (http://www.inkscape.org/) -->

<svg
   width="236.70119mm"
   height="8.0824919mm"
   viewBox="0 0 236.70119 8.0824921"
   version="1.1"
   id="svg1782"
   inkscape:version="1.1.2 (0a00cf5339, 2022-02-04)"
   sodipodi:docname="ipvc-divider.svg"
   xmlns:inkscape="http://www.inkscape.org/namespaces/inkscape"
   xmlns:sodipodi="http://sodipodi.sourceforge.net/DTD/sodipodi-0.dtd"
   xmlns="http://www.w3.org/2000/svg"
   xmlns:svg="http://www.w3.org/2000/svg">
  <sodipodi:namedview
     id="namedview1784"
     pagecolor="#505050"
     bordercolor="#ffffff"
     borderopacity="1"
     inkscape:pageshadow="0"
     inkscape:pageopacity="0"
     inkscape:pagecheckerboard="1"
     inkscape:document-units="mm"
     showgrid="false"
     inkscape:zoom="0.98621711"
     inkscape:cx="479.61042"
     inkscape:cy="-80.611054"
     inkscape:window-width="1920"
     inkscape:window-height="1007"
     inkscape:window-x="1536"
     inkscape:window-y="30"
     inkscape:window-maximized="1"
     inkscape:current-layer="layer1"
     showguides="false" />
  <defs
     id="defs1779">
    <marker
       id="Arrow2Sstart"
       inkscape:isstock="true"
       inkscape:stockid="Arrow2Sstart"
       orient="auto"
       refX="0"
       refY="0"
       style="overflow:visible">
      <path
         d="M 8.72,4.03 -2.21,0.02 8.72,-4 c -1.75,2.37 -1.74,5.62 0,8.03 z"
         id="Arrow2SstartPath"
         style="fill:#000000;fill-opacity:1;stroke:none"
         transform="matrix(0.3,0,0,0.3,-0.69,0)" />
    </marker>
    <marker
       id="Arrow2Send"
       inkscape:isstock="true"
       inkscape:stockid="Arrow2Send"
       orient="auto"
       refX="0"
       refY="0"
       style="overflow:visible">
      <path
         d="M 8.72,4.03 -2.21,0.02 8.72,-4 c -1.75,2.37 -1.74,5.62 0,8.03 z"
         id="Arrow2SendPath"
         style="fill:#000000;fill-opacity:1;stroke:none"
         transform="matrix(-0.3,0,0,-0.3,0.69,0)" />
    </marker>
  </defs>
  <g
     inkscape:label="Layer 1"
     inkscape:groupmode="layer"
     id="layer1"
     style="display:inline"
     transform="translate(6.0672025,8.8293872)">
    <g
       id="g1809"
       transform="translate(-15.909315,-109.16135)">
      <path
         d="m 11.614468,102.50116 c -0.9652,0 -1.7723555,0.80857 -1.7723555,1.77483 0,0.96661 0.8071555,1.77518 1.7723555,1.77518 0.964847,0 1.772356,-0.80857 1.772356,-1.77518 0,-0.96626 -0.807509,-1.77483 -1.772356,-1.77483"
         style="fill:#f2a40f;fill-opacity:1;fill-rule:nonzero;stroke:none;stroke-width:0.352778"
         id="path1276-4" />
      <a
         id="a1803">
        <path
           d="m 36.922145,100.84543 v 4.58611 h -4.233333 v -4.58611 h -9.525 v 4.58611 h -4.233333 v -2.11666 h -2.822222 v 4.58611 h 1.624541 1.268589 6.631869 v -4.58611 h 4.233334 v 4.58611 h 9.524999 v -4.58611 H 43.9777 v -2.46945 z"
           style="fill:#f2a40f;fill-opacity:1;fill-rule:nonzero;stroke:none;stroke-width:0.352778"
           id="path1280-3" />
      </a>
    </g>
    <g
       id="g2843"
       transform="matrix(0.35277777,0,0,-0.35277777,36.384633,-2.819184)">
      <path
         d="m 0,0 c -2.917,3.385 -7,5.257 -11.204,5.257 -4.203,0 -8.317,-1.869 -11.233,-5.255 -0.227,-0.263 -0.438,-0.532 -0.644,-0.808 -0.207,0.275 -0.419,0.544 -0.644,0.806 -2.917,3.385 -7.038,5.257 -11.241,5.257 -4.204,0 -8.326,-1.869 -11.242,-5.255 -0.227,-0.263 -0.441,-0.532 -0.648,-0.808 -0.207,0.275 -0.421,0.544 -0.646,0.806 -2.917,3.385 -7.039,5.257 -11.243,5.257 -4.203,0 -8.326,-1.585 -11.242,-4.971 -2.008,-2.332 -3.262,-5.029 -3.806,-8.029 h 7.168 c 1.097,4 3.63,6.292 7.593,6.292 5.16,0 8.097,-4.95 8.097,-10.582 v -1.71 h 7.589 l -0.006,2.163 c 0,5.633 3.226,10.071 8.387,10.071 5.16,0 8.386,-4.326 8.386,-9.959 l -0.013,-2.275 h 7.012 l 0.007,2.161 c 0,5.633 3.226,10.073 8.386,10.073 5.161,0 8.387,-4.326 8.387,-9.959 l -0.008,-2.275 h 6.873 v 1.71 C 4.065,-7.508 2.788,-3.238 0,0"
         style="fill:#00a885;fill-opacity:1;fill-rule:nonzero;stroke:none"
         id="path2373"
         transform="translate(86.844798,9.8242968)" />
      <path
         d="m 0,0 c -2.736,0 -5.024,2.291 -5.024,5.031 0,2.74 2.288,5.032 5.024,5.032 2.736,0 5.024,-2.292 5.024,-5.032 C 5.024,2.291 2.736,0 0,0"
         style="fill:#00a885;fill-opacity:1;fill-rule:nonzero;stroke:none"
         id="path2391" />
    </g>
    <g
       id="g3739"
       transform="matrix(0.35277777,0,0,-0.35277777,76.917995,-3.0652466)">
      <path
         d="m 0,0 c -2.914,-3.383 -6.993,-5.253 -11.194,-5.253 -4.201,0 -8.312,1.868 -11.226,5.251 -0.226,0.262 -0.436,0.531 -0.643,0.807 C -23.269,0.53 -23.481,0.262 -23.706,0 c -2.914,-3.383 -7.032,-5.253 -11.233,-5.253 -4.2,0 -8.319,1.868 -11.233,5.251 -0.225,0.262 -0.44,0.531 -0.647,0.807 -0.206,-0.275 -0.42,-0.543 -0.646,-0.805 -2.914,-3.383 -7.033,-5.253 -11.233,-5.253 -4.2,0 -8.32,1.965 -11.234,5.348 -2.007,2.33 -3.259,5.406 -3.803,8.406 h 7.163 c 1.096,-4 3.605,-6.67 7.564,-6.67 5.157,0 8.07,4.565 8.07,10.192 v 2.478 h 7.626 l -0.005,-2.647 c 0,-5.626 3.223,-10.205 8.379,-10.205 5.157,0 8.38,4.537 8.38,10.164 l -0.013,2.688 h 7.007 l 0.007,-2.645 c 0,-5.628 3.223,-10.207 8.379,-10.207 5.157,0 8.38,4.537 8.38,10.164 l -0.007,2.688 H 4.062 V 12.023 C 4.062,7.502 2.786,3.234 0,0"
         style="fill:#0055a4;fill-opacity:1;fill-rule:nonzero;stroke:none"
         id="path2989"
         transform="translate(86.8477,0.25979654)" />
      <path
         d="m 0,0 c -2.736,0 -5.024,2.292 -5.024,5.031 0,2.74 2.288,5.032 5.024,5.032 2.736,0 5.024,-2.292 5.024,-5.032 C 5.024,2.292 2.736,0 0,0"
         style="fill:#0055a4;fill-opacity:1;fill-rule:nonzero;stroke:none"
         id="path2993" />
    </g>
    <g
       id="g6548"
       transform="matrix(0.35277777,0,0,-0.35277777,131.20891,-0.7468957)">
      <path
         d="m 0,0 c -2.736,0 -5.024,2.292 -5.024,5.031 0,2.74 2.288,5.032 5.024,5.032 2.736,0 5.024,-2.292 5.024,-5.032 C 5.024,2.292 2.736,0 0,0"
         style="fill:#ee2939;fill-opacity:1;fill-rule:nonzero;stroke:none"
         id="path6006"
         transform="translate(-39.054,6.423799)" />
      <path
         d="m 0,0 -12.96,12.991 -8.089,-7.989 -4.949,4.95 13.044,12.944 L 0.005,9.906 12.996,22.903 26.003,9.902 39.011,22.911 51.968,9.877 47.002,4.942 38.995,12.996 26.004,0.004 l -13.006,13 z"
         style="fill:#ee2939;fill-opacity:1;fill-rule:nonzero;stroke:none"
         id="path6010" />
    </g>
    <g
       id="g7079"
       transform="matrix(0.35277777,0,0,-0.35277777,180.65795,-0.89329847)">
      <path
         d="m 0,0 c -2.736,0 -5.024,2.292 -5.024,5.031 0,2.74 2.288,5.032 5.024,5.032 2.736,0 5.024,-2.292 5.024,-5.032 C 5.024,2.292 2.736,0 0,0"
         style="fill:#dca7ac;fill-opacity:1;fill-rule:nonzero;stroke:none"
         id="path6733"
         transform="translate(-64.367702,5.734399)" />
      <path
         d="M 0,0 -12.315,12.305 -24.618,-0.079 -39.135,7.08 h -12.171 v 7 h 13.819 L -26.004,8.435 -12.318,22.16 1.378,8.497 13.447,14.549 26.736,10.006 24.426,3.4 13.932,6.973 Z"
         style="fill:#dca7ac;fill-opacity:1;fill-rule:nonzero;stroke:none"
         id="path6737" />
    </g>
    <g
       id="g7606"
       transform="matrix(0.35277777,0,0,-0.35277777,230.63399,-4.7819678)">
      <path
         d="m 0,0 c -2.736,0 -5.024,2.292 -5.024,5.031 0,2.74 2.288,5.032 5.024,5.032 2.736,0 5.024,-2.292 5.024,-5.032 C 5.024,2.292 2.736,0 0,0"
         style="fill:#828183;fill-opacity:1;fill-rule:nonzero;stroke:none"
         id="path7158"
         transform="translate(-91.165102,-5.013701)" />
      <path
         d="m 0,0 -2.742,-4.345 c -2.404,-3.408 -5.854,-5.362 -9.467,-5.362 -3.613,0 -7.064,1.954 -9.468,5.362 l -3.842,5.446 c -1.09,1.545 -2.421,2.396 -3.747,2.396 -1.327,0 -2.658,-0.851 -3.748,-2.397 l -4.375,-6.201 c -2.404,-3.407 -5.855,-5.361 -9.467,-5.361 -3.613,0 -7.065,1.954 -9.468,5.361 l -4.241,6.012 c -1.091,1.546 -2.422,2.398 -3.748,2.398 -1.327,0 -2.658,-0.852 -3.748,-2.398 l -4.649,-6.678 -5.72,4.036 4.649,6.677 c 2.404,3.408 5.855,5.363 9.468,5.363 3.612,0 7.063,-1.955 9.467,-5.363 l 4.242,-6.011 c 1.09,-1.545 2.421,-2.397 3.748,-2.397 1.326,0 2.657,0.852 3.747,2.397 l 4.374,6.201 c 2.405,3.407 5.855,5.361 9.469,5.361 3.612,0 7.063,-1.954 9.467,-5.361 l 3.842,-5.446 c 1.09,-1.545 2.421,-2.397 3.748,-2.397 1.326,0 2.657,0.852 3.748,2.397 l 2.741,4.345 z"
         style="fill:#828183;fill-opacity:1;fill-rule:nonzero;stroke:none"
         id="path7162" />
    </g>
  </g>
</svg>
