<?xml version="1.0" encoding="UTF-8" standalone="no"?>
<!-- Created with Inkscape (http://www.inkscape.org/) -->

<svg
   width="270.93301mm"
   height="270.93332mm"
   viewBox="0 0 270.93301 270.93332"
   version="1.1"
   id="svg5"
   inkscape:version="1.1.2 (0a00cf5339, 2022-02-04)"
   sodipodi:docname="goipvc_logo.svg"
   xmlns:inkscape="http://www.inkscape.org/namespaces/inkscape"
   xmlns:sodipodi="http://sodipodi.sourceforge.net/DTD/sodipodi-0.dtd"
   xmlns="http://www.w3.org/2000/svg"
   xmlns:svg="http://www.w3.org/2000/svg">
  <sodipodi:namedview
     id="namedview7"
     pagecolor="#505050"
     bordercolor="#ffffff"
     borderopacity="1"
     inkscape:pageshadow="0"
     inkscape:pageopacity="0"
     inkscape:pagecheckerboard="1"
     inkscape:document-units="mm"
     showgrid="false"
     inkscape:zoom="0.60342904"
     inkscape:cx="424.2421"
     inkscape:cy="412.64173"
     inkscape:window-width="1920"
     inkscape:window-height="1022"
     inkscape:window-x="1920"
     inkscape:window-y="30"
     inkscape:window-maximized="1"
     inkscape:current-layer="layer1" />
  <defs
     id="defs2">
    <clipPath
       clipPathUnits="userSpaceOnUse"
       id="clipPath313">
      <g
         id="g319"
         transform="matrix(0.91770432,0,0,0.91770432,33.478736,15.89208)">
        <path
           d="m 139.23498,180.15545 c 5.29218,5.29218 5.29218,13.88667 0,19.17885 l -81.287885,81.28788 c -5.29218,5.29219 -13.88668,5.29219 -19.17886,0 -5.292178,-5.29218 -5.292178,-13.88667 0,-19.17885 L 110.48786,189.7237 38.810575,118.00408 c -5.292181,-5.29217 -5.292181,-13.88667 0,-19.17885 5.29218,-5.292177 13.88668,-5.292177 19.17886,0 l 81.287885,81.28788 z"
           id="path315"
           style="fill:#ffffff;stroke-width:0.423374" />
        <path
           d="m 253.75195,180.15544 c 5.29218,5.29218 5.29218,13.88668 0,19.17886 l -81.28788,81.28788 c -5.29218,5.29219 -13.88668,5.29219 -19.17886,0 -5.29218,-5.29218 -5.29218,-13.88667 0,-19.17886 l 71.71962,-71.71962 -71.67728,-71.71963 c -5.29218,-5.29217 -5.29218,-13.88666 0,-19.17885 5.29218,-5.29217 13.88668,-5.29217 19.17886,0 l 81.28788,81.28789 z"
           id="path317"
           style="fill:#ffffff;stroke-width:0.423374" />
      </g>
    </clipPath>
  </defs>
  <g
     inkscape:label="Layer 1"
     inkscape:groupmode="layer"
     id="layer1"
     style="display:none"
     transform="translate(-3.3945704,-54.25705)">
    <rect
       style="fill:#000000;stroke-width:0.420065"
       id="rect53"
       width="270.93301"
       height="270.93332"
       x="3.3945704"
       y="-325.19037"
       transform="scale(1,-1)" />
  </g>
  <g
     inkscape:groupmode="layer"
     id="layer2"
     inkscape:label="Layer 2"
     style="display:inline"
     transform="translate(-3.3945704,-54.25705)" />
  <g
     inkscape:groupmode="layer"
     id="layer3"
     inkscape:label="Layer 3"
     style="display:inline"
     transform="translate(-3.3945704,-54.25705)">
    <g
       id="g2079"
       transform="matrix(0.89235119,0,0,0.89235119,4.7623324,43.216709)">
      <g
         style="display:inline;fill:#ffffff"
         id="g2045"
         transform="matrix(4.3402337,0,0,4.3402337,198.66135,112.0982)">
        <path
           d="M 5.63605,7.75735 7.05026,6.34314 12.7071,12 7.05029,17.6568 5.63608,16.2426 9.87869,12 Z"
           fill="currentColor"
           id="path2033"
           style="fill:#ffffff" />
        <path
           d="M 12.7071,6.34314 11.2929,7.75735 15.5356,12 11.2929,16.2426 12.7072,17.6568 18.364,12 Z"
           fill="currentColor"
           id="path2035"
           style="fill:#ffffff" />
      </g>
      <g
         id="g1908"
         transform="matrix(0.90288661,0,0,0.90288661,-1.7290016,-7.1181267)">
        <text
           xml:space="preserve"
           style="font-size:76.8827px;line-height:1.25;font-family:'Gotham Black';-inkscape-font-specification:'Gotham Black, ';stroke-width:0.28831"
           x="57.565075"
           y="216.63266"
           id="text5231"><tspan
             sodipodi:role="line"
             id="tspan5229"
             style="font-size:76.8827px;fill:#ffffff;stroke-width:0.28831"
             x="57.565075"
             y="216.63266">IPVC</tspan></text>
        <text
           xml:space="preserve"
           style="font-size:35.3661px;line-height:1.25;font-family:'Gotham Black';-inkscape-font-specification:'Gotham Black, ';stroke-width:0.28831"
           x="-217.99889"
           y="51.739155"
           id="text10513"
           transform="rotate(-90)"><tspan
             sodipodi:role="line"
             id="tspan10511"
             style="font-size:35.3661px;fill:#ffffff;stroke-width:0.28831"
             x="-217.99889"
             y="51.739155">GO</tspan></text>
      </g>
    </g>
  </g>
</svg>
