<?xml version="1.0" encoding="UTF-8" standalone="no"?>
<!-- Created with Inkscape (http://www.inkscape.org/) -->

<svg
   width="270.93301mm"
   height="270.93332mm"
   viewBox="0 0 270.93301 270.93332"
   version="1.1"
   id="svg5"
   inkscape:version="1.2.2 (b0a8486541, 2022-12-01)"
   sodipodi:docname="logo-square.svg"
   xmlns:inkscape="http://www.inkscape.org/namespaces/inkscape"
   xmlns:sodipodi="http://sodipodi.sourceforge.net/DTD/sodipodi-0.dtd"
   xmlns="http://www.w3.org/2000/svg"
   xmlns:svg="http://www.w3.org/2000/svg">
  <sodipodi:namedview
     id="namedview7"
     pagecolor="#505050"
     bordercolor="#ffffff"
     borderopacity="1"
     inkscape:pageshadow="0"
     inkscape:pageopacity="0"
     inkscape:pagecheckerboard="1"
     inkscape:document-units="mm"
     showgrid="false"
     inkscape:zoom="0.60342904"
     inkscape:cx="424.24209"
     inkscape:cy="412.64173"
     inkscape:window-width="1920"
     inkscape:window-height="1012"
     inkscape:window-x="0"
     inkscape:window-y="36"
     inkscape:window-maximized="1"
     inkscape:current-layer="g1908"
     inkscape:showpageshadow="2"
     inkscape:deskcolor="#505050" />
  <defs
     id="defs2">
    <clipPath
       clipPathUnits="userSpaceOnUse"
       id="clipPath313">
      <g
         id="g319"
         transform="matrix(0.91770432,0,0,0.91770432,33.478736,15.89208)">
        <path
           d="m 139.23498,180.15545 c 5.29218,5.29218 5.29218,13.88667 0,19.17885 l -81.287885,81.28788 c -5.29218,5.29219 -13.88668,5.29219 -19.17886,0 -5.292178,-5.29218 -5.292178,-13.88667 0,-19.17885 L 110.48786,189.7237 38.810575,118.00408 c -5.292181,-5.29217 -5.292181,-13.88667 0,-19.17885 5.29218,-5.292177 13.88668,-5.292177 19.17886,0 l 81.287885,81.28788 z"
           id="path315"
           style="fill:#ffffff;stroke-width:0.423374" />
        <path
           d="m 253.75195,180.15544 c 5.29218,5.29218 5.29218,13.88668 0,19.17886 l -81.28788,81.28788 c -5.29218,5.29219 -13.88668,5.29219 -19.17886,0 -5.29218,-5.29218 -5.29218,-13.88667 0,-19.17886 l 71.71962,-71.71962 -71.67728,-71.71963 c -5.29218,-5.29217 -5.29218,-13.88666 0,-19.17885 5.29218,-5.29217 13.88668,-5.29217 19.17886,0 l 81.28788,81.28789 z"
           id="path317"
           style="fill:#ffffff;stroke-width:0.423374" />
      </g>
    </clipPath>
  </defs>
  <g
     inkscape:label="Layer 1"
     inkscape:groupmode="layer"
     id="layer1"
     style="display:none"
     transform="translate(-3.3945704,-54.25705)">
    <rect
       style="fill:#000000;stroke-width:0.420065"
       id="rect53"
       width="270.93301"
       height="270.93332"
       x="3.3945704"
       y="-325.19037"
       transform="scale(1,-1)" />
  </g>
  <g
     inkscape:groupmode="layer"
     id="layer2"
     inkscape:label="Layer 2"
     style="display:inline"
     transform="translate(-3.3945704,-54.25705)" />
  <g
     inkscape:groupmode="layer"
     id="layer3"
     inkscape:label="Layer 3"
     style="display:inline"
     transform="translate(-3.3945704,-54.25705)">
    <g
       id="g2079"
       transform="matrix(0.89235119,0,0,0.89235119,4.7623324,43.216709)">
      <g
         style="display:inline;fill:#ffffff"
         id="g2045"
         transform="matrix(4.3402337,0,0,4.3402337,198.66135,112.0982)">
        <path
           d="M 5.63605,7.75735 7.05026,6.34314 12.7071,12 7.05029,17.6568 5.63608,16.2426 9.87869,12 Z"
           fill="currentColor"
           id="path2033"
           style="fill:#ffffff" />
        <path
           d="M 12.7071,6.34314 11.2929,7.75735 15.5356,12 11.2929,16.2426 12.7072,17.6568 18.364,12 Z"
           fill="currentColor"
           id="path2035"
           style="fill:#ffffff" />
      </g>
      <g
         id="g1908"
         transform="matrix(0.90288661,0,0,0.90288661,-1.7290016,-7.1181267)">
        <g
           aria-label="IPVC"
           id="text5231"
           style="font-size:76.8827px;line-height:1.25;font-family:'Gotham Black';-inkscape-font-specification:'Gotham Black, ';stroke-width:0.28831">
          <path
             d="M 62.716216,216.63266 H 77.631459 V 162.81477 H 62.716216 Z"
             style="fill:#ffffff"
             id="path282" />
          <path
             d="m 87.47242,216.63266 h 14.91524 v -15.37654 h 7.45762 c 13.30071,0 23.06481,-6.68879 23.06481,-19.45132 v -0.15377 c 0,-11.91682 -8.76462,-18.83626 -22.29598,-18.83626 H 87.47242 Z m 14.91524,-27.06271 v -14.2233 h 7.07321 c 5.30491,0 8.61086,2.38336 8.61086,6.99633 v 0.15376 c 0,4.30543 -3.30595,7.07321 -8.53398,7.07321 z"
             style="fill:#ffffff"
             id="path284" />
          <path
             d="m 155.97491,217.01707 h 13.83889 l 21.83468,-54.2023 h -16.29913 l -12.30123,34.05904 -12.22435,-34.05904 h -16.60666 z"
             style="fill:#ffffff"
             id="path286" />
          <path
             d="m 219.40315,217.70902 c 11.83993,0 18.60561,-5.15114 23.75675,-12.14747 l -11.22487,-7.9958 c -3.30596,3.92102 -6.53503,6.53503 -12.14747,6.53503 -7.53451,0 -12.83941,-6.30438 -12.83941,-14.37706 v -0.15377 c 0,-7.84204 5.3049,-14.30018 12.83941,-14.30018 5.22802,0 8.68774,2.53713 11.76305,6.30438 l 11.22488,-8.68775 c -4.68985,-6.53502 -11.91682,-11.14799 -22.83417,-11.14799 -16.29913,0 -28.29283,12.30124 -28.29283,27.98531 v 0.15376 c 0,16.06848 12.37812,27.83154 27.75466,27.83154 z"
             style="fill:#ffffff"
             id="path288" />
        </g>
        <g
           aria-label="GO"
           transform="rotate(-90)"
           id="text10513"
           style="font-size:35.3661px;line-height:1.25;font-family:'Gotham Black';-inkscape-font-specification:'Gotham Black, ';stroke-width:0.28831">
          <path
             d="m -203.18049,52.23428 c 4.56223,0 8.09884,-1.62684 10.75129,-3.854905 V 37.27442 h -11.35251 v 5.021986 h 4.84515 v 3.006119 c -0.99025,0.671955 -2.26343,1.025616 -3.961,1.025616 -3.92564,0 -6.71956,-2.864654 -6.71956,-6.896389 v -0.07073 c 0,-3.784173 2.79392,-6.754925 6.33053,-6.754925 2.51099,0 4.1732,0.81342 5.97687,2.334162 l 4.03174,-4.880522 c -2.65246,-2.26343 -5.65858,-3.571976 -10.04397,-3.571976 -7.63908,0 -13.29766,5.658576 -13.29766,12.873261 v 0.07073 c 0,7.532979 5.69394,12.802528 13.43912,12.802528 z"
             style="fill:#ffffff"
             id="path291" />
          <path
             d="m -176.12546,52.23428 c 7.63908,0 13.36839,-5.764674 13.36839,-12.87326 v -0.07073 c 0,-7.073221 -5.65858,-12.802529 -13.29765,-12.802529 -7.63908,0 -13.36839,5.764675 -13.36839,12.873261 v 0.07073 c 0,7.07322 5.65858,12.802528 13.29765,12.802528 z m 0.0707,-6.189067 c -3.78418,0 -6.3659,-3.147583 -6.3659,-6.684193 v -0.07073 c 0,-3.571977 2.51099,-6.613461 6.29516,-6.613461 3.78418,0 6.33054,3.07685 6.33054,6.684193 v 0.07073 c 0,3.571976 -2.511,6.613461 -6.2598,6.613461 z"
             style="fill:#ffffff"
             id="path293" />
        </g>
      </g>
    </g>
  </g>
</svg>
