<svg width="500mm" height="436.37" viewBox="0 0 500 115.456" xmlns="http://www.w3.org/2000/svg"><path d="M147.317 8.43C142.639 3.002 136.092 0 129.35 0c-6.74 0-13.336 2.997-18.012 8.427-.364.421-.703.853-1.033 1.295a25.66 25.66 0 00-1.033-1.292C104.595 3.002 97.986 0 91.247 0 84.505 0 77.896 2.997 73.22 8.427c-.364.421-.708.853-1.04 1.295a25.724 25.724 0 00-1.035-1.292C66.467 3.002 59.857 0 53.115 0c-6.739 0-13.35 2.542-18.026 7.971-3.22 3.74-5.231 8.065-6.103 12.875H40.48c1.759-6.414 5.82-10.09 12.176-10.09 8.274 0 12.984 7.938 12.984 16.97v2.742h12.169l-.01-3.469c0-9.033 5.173-16.15 13.45-16.15 8.274 0 13.447 6.938 13.447 15.97l-.021 3.649h11.244l.011-3.466c0-9.033 5.173-16.152 13.448-16.152 8.276 0 13.449 6.937 13.449 15.97l-.013 3.648h11.021v-2.743c0-7.256-2.048-14.103-6.518-19.295" fill="#00a885"/><path d="M1.812 47.386h12.49v41.692H1.812zM110.913 47.387L95.508 89.079H81.35L65.946 47.387H79.77l8.66 26.431 8.66-26.431zM111.746 68.233c0-12.425 9.41-22.015 22.068-22.015 8.076 0 15.239 4.254 18.818 10.676l-10.907 6.336c-1.416-2.919-4.415-4.67-8.08-4.67-5.41 0-9.407 3.918-9.407 9.673 0 5.753 3.998 9.672 9.408 9.672 3.664 0 6.746-1.752 8.079-4.67l10.907 6.256c-3.58 6.503-10.659 10.755-18.818 10.755-12.658 0-22.068-9.589-22.068-22.013M43.062 77.906c-4.751 0-8.887-3.106-8.887-9.277 0-6.837 3.958-10.069 8.929-10.069 5.413 0 9.388 3.918 9.388 9.673 0 5.754-4.018 9.673-9.43 9.673m-.167-31.688c-10.723 0-20.283 9.83-20.283 20.654l.03 48.584h12.53V87.582c1.604 1.486 5.015 2.663 7.792 2.663C55.623 90.245 65 80.657 65 68.233c0-12.424-9.445-22.015-22.104-22.015"/><path d="M8.056 24.184C3.67 24.184 0 20.51 0 16.116s3.669-8.069 8.056-8.069c4.388 0 8.057 3.675 8.057 8.07 0 4.393-3.67 8.067-8.057 8.067" fill="#00a885"/><path d="M195.49 19.326h21.127v5.492h-15.034v5.693h13.23v5.492h-13.23v5.893h15.234v5.492H195.49zM228.807 47.79c-1.523 0-3.08-.26-4.67-.782-1.59-.521-3.107-1.342-4.55-2.464l2.606-4.01c1.175.855 2.344 1.497 3.508 1.925 1.163.426 2.25.64 3.267.64.882 0 1.53-.146 1.943-.44.415-.295.622-.683.622-1.164v-.08c0-.32-.12-.601-.36-.842-.241-.239-.568-.446-.984-.62a14.128 14.128 0 00-1.422-.5c-.534-.163-1.095-.336-1.684-.522a22.722 22.722 0 01-2.264-.782 8.052 8.052 0 01-2.065-1.203 5.842 5.842 0 01-1.503-1.823c-.388-.724-.582-1.604-.582-2.648v-.08c0-1.095.207-2.064.622-2.906a6.454 6.454 0 011.682-2.145 7.174 7.174 0 012.488-1.322c.947-.295 1.97-.442 3.066-.442 1.363 0 2.746.22 4.15.66 1.403.443 2.69 1.05 3.867 1.825l-2.325 4.21a19.275 19.275 0 00-3.127-1.464c-1.015-.361-1.911-.54-2.686-.54-.749 0-1.31.139-1.683.421-.376.28-.562.635-.562 1.062v.081c0 .294.12.554.361.781.24.228.561.44.962.64.401.2.861.396 1.384.584.52.186 1.075.373 1.663.56.749.242 1.51.527 2.285.862.775.334 1.469.741 2.085 1.222a6.061 6.061 0 011.523 1.766c.401.694.601 1.536.601 2.524v.081c0 1.203-.206 2.237-.622 3.106a5.702 5.702 0 01-1.743 2.144c-.749.563-1.623.983-2.625 1.264-1.002.28-2.08.42-3.228.42M250.712 47.87c-1.603 0-3.095-.295-4.47-.883-1.376-.587-2.56-1.382-3.548-2.385a10.941 10.941 0 01-2.325-3.527 11.11 11.11 0 01-.842-4.31v-.081c0-1.523.28-2.965.842-4.33a11.113 11.113 0 012.325-3.566c.988-1.015 2.172-1.817 3.547-2.405 1.376-.59 2.893-.884 4.551-.884 2.03 0 3.714.32 5.051.962a11.38 11.38 0 013.528 2.646l-3.728 4.01c-.696-.72-1.411-1.297-2.146-1.723-.734-.428-1.65-.643-2.745-.643-.776 0-1.477.154-2.105.46-.629.31-1.176.73-1.644 1.264a5.777 5.777 0 00-1.082 1.865 6.681 6.681 0 00-.38 2.265v.079c0 .829.126 1.604.38 2.327a5.501 5.501 0 001.103 1.882 5.202 5.202 0 001.724 1.264c.667.308 1.416.462 2.245.462 1.015 0 1.903-.207 2.665-.622.763-.414 1.517-.969 2.266-1.663l3.568 3.608a13.732 13.732 0 01-3.568 2.827c-1.338.734-3.074 1.101-5.212 1.101M272.548 42.618c.882 0 1.664-.154 2.346-.46a5.172 5.172 0 001.743-1.264 5.58 5.58 0 001.103-1.863c.254-.709.38-1.464.38-2.266v-.08c0-.802-.133-1.557-.4-2.264a5.71 5.71 0 00-2.967-3.188 5.364 5.364 0 00-2.285-.481c-.882 0-1.663.152-2.345.46a5.2 5.2 0 00-1.744 1.264 5.556 5.556 0 00-1.102 1.865 6.627 6.627 0 00-.382 2.264v.08c0 .802.135 1.557.401 2.266a5.726 5.726 0 002.948 3.186c.681.32 1.45.481 2.304.481m-.08 5.252c-1.657 0-3.194-.287-4.61-.863-1.418-.574-2.64-1.361-3.668-2.363a11.024 11.024 0 01-2.426-3.528c-.588-1.35-.882-2.802-.882-4.35v-.08c0-1.55.294-3 .882-4.35a11.086 11.086 0 012.446-3.548c1.042-1.015 2.272-1.817 3.688-2.406 1.416-.588 2.966-.883 4.65-.883 1.656 0 3.193.288 4.61.862 1.416.576 2.64 1.365 3.67 2.367a11.02 11.02 0 012.424 3.527c.588 1.35.882 2.8.882 4.35v.08c0 1.55-.294 3-.882 4.35a11.096 11.096 0 01-2.446 3.548c-1.042 1.015-2.272 1.816-3.688 2.405-1.416.588-2.966.882-4.65.882M288.085 18.123h6.094v29.265h-6.094zM307.244 43.58c1.443 0 2.599-.347 3.468-1.04.868-.697 1.304-1.604 1.304-2.729v-1.08a9.282 9.282 0 00-1.785-.582 9.574 9.574 0 00-2.105-.22c-1.31 0-2.338.253-3.087.76-.748.51-1.123 1.244-1.123 2.205v.08c0 .83.308 1.47.922 1.924.614.456 1.416.682 2.406.682m-1.845 4.21c-1.015 0-1.97-.14-2.865-.421a6.683 6.683 0 01-2.344-1.264 6.007 6.007 0 01-1.585-2.063c-.388-.817-.582-1.758-.582-2.827v-.079c0-1.177.215-2.192.642-3.048a5.875 5.875 0 011.784-2.125c.762-.561 1.67-.981 2.726-1.262 1.056-.28 2.224-.422 3.507-.422 1.096 0 2.051.08 2.866.242.816.159 1.61.374 2.386.64v-.36c0-1.282-.386-2.258-1.163-2.927-.774-.669-1.924-1.002-3.447-1.002-1.177 0-2.212.1-3.106.301-.897.2-1.838.486-2.826.863l-1.525-4.652a24.073 24.073 0 013.688-1.243c1.283-.32 2.834-.48 4.65-.48 1.684 0 3.121.206 4.311.621 1.188.414 2.171 1.009 2.946 1.783.802.802 1.39 1.784 1.765 2.946.372 1.164.56 2.466.56 3.911v12.466h-5.893v-2.323a8.485 8.485 0 01-2.686 1.983c-1.042.494-2.312.741-3.809.741M344.927 47.79c-2.137 0-4.237-.368-6.294-1.103-2.059-.736-3.929-1.864-5.612-3.388l3.648-4.368c1.283 1.04 2.6 1.871 3.948 2.484 1.35.616 2.827.924 4.43.924 1.283 0 2.279-.235 2.986-.703.709-.468 1.063-1.116 1.063-1.945v-.08c0-.4-.073-.754-.221-1.062-.147-.306-.43-.594-.843-.862-.416-.266-.993-.534-1.73-.802-.737-.266-1.694-.547-2.874-.84a35.195 35.195 0 01-3.858-1.165c-1.153-.426-2.132-.955-2.935-1.582a6.397 6.397 0 01-1.868-2.346c-.443-.935-.664-2.1-.664-3.488v-.08c0-1.283.237-2.44.717-3.469a7.907 7.907 0 012.01-2.665c.863-.749 1.895-1.323 3.092-1.724 1.198-.4 2.52-.6 3.963-.6 2.057 0 3.948.305 5.673.921a16.511 16.511 0 014.75 2.646l-3.207 4.65c-1.257-.854-2.486-1.53-3.688-2.025-1.203-.492-2.406-.74-3.608-.74-1.203 0-2.106.233-2.707.702-.602.466-.901 1.048-.901 1.744v.079c0 .455.086.848.261 1.183.173.335.49.635.944.901.456.267 1.08.522 1.87.762s1.788.521 2.994.842c1.42.375 2.686.795 3.799 1.262 1.111.468 2.05 1.031 2.813 1.685a6.387 6.387 0 011.728 2.306c.388.882.584 1.937.584 3.166v.08c0 1.39-.254 2.626-.757 3.709a7.623 7.623 0 01-2.11 2.726c-.905.736-1.982 1.296-3.233 1.684-1.252.386-2.64.58-4.163.58M366.507 47.79c-2.325 0-4.123-.708-5.393-2.124-1.268-1.418-1.903-3.37-1.903-5.855v-13.91h6.093v11.957c0 1.44.321 2.527.962 3.26.642.733 1.55 1.099 2.726 1.099s2.104-.366 2.787-1.099c.68-.733 1.022-1.82 1.022-3.26V25.901h6.093v21.487h-6.093v-3.07c-.348.456-.728.894-1.143 1.311a7.907 7.907 0 01-1.383 1.111 6.884 6.884 0 01-1.683.767c-.615.187-1.31.282-2.085.282M395.049 42.618c.722 0 1.397-.14 2.025-.421a5.013 5.013 0 001.663-1.203 5.828 5.828 0 001.144-1.863c.28-.722.42-1.537.42-2.446v-.08c0-.882-.14-1.69-.42-2.426a5.783 5.783 0 00-1.144-1.883 5.013 5.013 0 00-1.663-1.202 4.886 4.886 0 00-2.025-.422c-.722 0-1.397.14-2.024.422a4.784 4.784 0 00-1.643 1.202 5.939 5.939 0 00-1.123 1.883c-.28.736-.422 1.544-.422 2.426v.08c0 .882.142 1.69.422 2.425a5.93 5.93 0 001.123 1.884 4.784 4.784 0 001.643 1.203c.627.28 1.302.421 2.024.421M383.824 25.9h6.094v3.088a9.684 9.684 0 012.706-2.506c1.056-.655 2.387-.983 3.99-.983 1.256 0 2.471.242 3.647.723a9.012 9.012 0 013.127 2.144c.909.95 1.637 2.113 2.184 3.488.548 1.377.822 2.961.822 4.75v.081c0 1.791-.274 3.374-.822 4.751-.547 1.376-1.269 2.539-2.164 3.487a8.828 8.828 0 01-3.107 2.145 9.644 9.644 0 01-3.687.722c-1.632 0-2.974-.321-4.03-.962-1.056-.642-1.945-1.39-2.666-2.245v9.22h-6.094zM424.33 34.96c-.188-1.362-.67-2.464-1.444-3.307-.774-.842-1.804-1.262-3.086-1.262-1.283 0-2.32.413-3.108 1.244-.787.827-1.302 1.937-1.543 3.326zm-3.93 12.91c-1.603 0-3.092-.267-4.468-.8a10.349 10.349 0 01-3.568-2.288 10.569 10.569 0 01-2.346-3.507c-.561-1.348-.842-2.852-.842-4.51v-.08c0-1.524.26-2.965.783-4.33.52-1.363 1.247-2.553 2.184-3.568a10.317 10.317 0 013.346-2.405c1.297-.589 2.733-.882 4.31-.882 1.792 0 3.34.32 4.65.962 1.311.641 2.4 1.504 3.269 2.585a10.812 10.812 0 011.924 3.73 15.443 15.443 0 01.602 5.152c-.015.268-.034.547-.061.84h-14.954c.294 1.39.903 2.44 1.825 3.148.922.707 2.064 1.061 3.427 1.061 1.015 0 1.924-.171 2.726-.52.802-.347 1.63-.908 2.486-1.684l3.487 3.088a10.824 10.824 0 01-3.688 2.946c-1.443.707-3.14 1.063-5.091 1.063M434.144 25.9h6.093v4.331c.614-1.47 1.456-2.646 2.526-3.53 1.068-.881 2.51-1.282 4.33-1.202v6.376h-.321c-2.032 0-3.63.614-4.79 1.844-1.164 1.23-1.745 3.14-1.745 5.733v7.936h-6.093zM450.055 25.9h6.094v21.488h-6.094zM471.694 42.618c.882 0 1.664-.154 2.346-.46a5.172 5.172 0 001.743-1.264 5.55 5.55 0 001.102-1.863 6.643 6.643 0 00.381-2.266v-.08c0-.802-.133-1.557-.4-2.264a5.71 5.71 0 00-2.967-3.188 5.364 5.364 0 00-2.285-.481c-.882 0-1.663.152-2.346.46a5.21 5.21 0 00-1.743 1.264 5.556 5.556 0 00-1.102 1.865 6.627 6.627 0 00-.382 2.264v.08c0 .802.135 1.557.401 2.266a5.726 5.726 0 002.948 3.186c.68.32 1.45.481 2.304.481m-.08 5.252c-1.657 0-3.195-.287-4.61-.863-1.418-.574-2.64-1.361-3.668-2.363a11.024 11.024 0 01-2.426-3.528c-.588-1.35-.882-2.802-.882-4.35v-.08c0-1.55.294-3 .882-4.35a11.086 11.086 0 012.445-3.548 11.598 11.598 0 013.689-2.406c1.416-.588 2.966-.883 4.65-.883 1.656 0 3.194.288 4.61.862 1.416.576 2.64 1.365 3.67 2.367a11.02 11.02 0 012.424 3.527c.588 1.35.882 2.8.882 4.35v.08c0 1.55-.294 3-.882 4.35a11.096 11.096 0 01-2.446 3.548c-1.042 1.015-2.272 1.816-3.688 2.405-1.416.588-2.967.882-4.65.882M487.051 25.9h6.094v4.331c.616-1.47 1.456-2.646 2.525-3.53 1.07-.881 2.512-1.282 4.33-1.202v6.376h-.32c-2.032 0-3.628.614-4.79 1.844-1.163 1.23-1.745 3.14-1.745 5.733v7.936h-6.094zM213.209 77.336l-3.729-9.102-3.728 9.102zm-6.495-16.519h5.693l12.027 28.265h-6.455l-2.565-6.294h-11.867l-2.565 6.294h-6.294zM236.712 82.265c.75 0 1.443-.118 2.085-.36a4.932 4.932 0 001.664-1.02 4.79 4.79 0 001.102-1.586c.266-.613.4-1.281.4-2.005v-.078c0-.723-.134-1.39-.4-2.005a4.767 4.767 0 00-1.102-1.584 4.886 4.886 0 00-1.664-1.021 5.853 5.853 0 00-2.085-.363c-.749 0-1.437.12-2.064.363a4.926 4.926 0 00-1.645 1.021 4.767 4.767 0 00-1.101 1.584 4.956 4.956 0 00-.401 2.005v.078c0 1.498.495 2.7 1.483 3.608.99.91 2.23 1.363 3.728 1.363m-.721 13.312c-1.764 0-3.448-.194-5.052-.582a18.965 18.965 0 01-4.45-1.665l2.085-4.569a18.085 18.085 0 003.389 1.444c1.135.346 2.424.52 3.867.52 2.085 0 3.63-.495 4.631-1.482 1.003-.99 1.503-2.446 1.503-4.37V83.83c-.91 1.095-1.897 1.95-2.967 2.565-1.07.614-2.418.92-4.049.92a9.954 9.954 0 01-3.608-.66 8.898 8.898 0 01-3.046-1.945c-.882-.855-1.583-1.903-2.104-3.146-.521-1.243-.783-2.667-.783-4.27v-.08c0-1.603.268-3.027.802-4.27.534-1.242 1.243-2.29 2.125-3.146a8.906 8.906 0 013.046-1.945 9.876 9.876 0 013.568-.66c1.658 0 3.02.306 4.09.922a11.738 11.738 0 012.846 2.285v-2.806h6.093V84.23c0 3.822-.909 6.64-2.726 8.46-1.016 1.014-2.291 1.749-3.828 2.204-1.537.454-3.348.682-5.432.682M252.928 67.594h6.093v4.33c.615-1.47 1.456-2.646 2.526-3.528 1.068-.882 2.511-1.283 4.33-1.203v6.374h-.321c-2.032 0-3.629.614-4.79 1.844-1.163 1.23-1.745 3.14-1.745 5.733v7.938h-6.093zM279.307 58.132l5.251 2.285-5.131 4.811h-4.65zm-2.967 27.142c1.443 0 2.6-.348 3.467-1.044.87-.693 1.304-1.603 1.304-2.726v-1.082a9.51 9.51 0 00-3.889-.802c-1.31 0-2.34.257-3.087.763-.749.507-1.122 1.241-1.122 2.205v.079c0 .829.308 1.472.922 1.926.614.453 1.416.681 2.405.681m-1.844 4.21a9.537 9.537 0 01-2.867-.422 6.734 6.734 0 01-2.345-1.262 6.04 6.04 0 01-1.582-2.066c-.388-.814-.582-1.757-.582-2.827v-.08c0-1.175.213-2.19.641-3.045a5.851 5.851 0 011.785-2.126c.761-.562 1.67-.982 2.724-1.262 1.057-.281 2.226-.422 3.509-.422 1.095 0 2.05.08 2.865.24.817.16 1.61.376 2.386.642v-.361c0-1.283-.388-2.258-1.162-2.926-.776-.668-1.924-1.003-3.448-1.003-1.177 0-2.213.101-3.106.302-.896.2-1.84.487-2.827.863l-1.523-4.652a24.015 24.015 0 013.688-1.243c1.283-.32 2.832-.481 4.65-.481 1.684 0 3.12.208 4.309.622 1.19.414 2.171 1.009 2.947 1.783.802.802 1.39 1.783 1.764 2.947.374 1.163.561 2.465.561 3.908v12.47h-5.893v-2.326a8.478 8.478 0 01-2.686 1.984c-1.042.494-2.312.742-3.808.742M291.666 67.594h6.094v4.33c.614-1.47 1.456-2.646 2.525-3.528 1.068-.882 2.511-1.283 4.33-1.203v6.374h-.321c-2.032 0-3.629.614-4.791 1.844-1.163 1.23-1.743 3.14-1.743 5.733v7.938h-6.094zM307.576 67.594h6.094v21.488h-6.094zM326.663 85.274c1.443 0 2.6-.348 3.467-1.043.87-.694 1.304-1.603 1.304-2.727v-1.081a9.357 9.357 0 00-1.785-.582 9.657 9.657 0 00-2.104-.22c-1.31 0-2.34.255-3.087.762-.749.508-1.122 1.243-1.122 2.205v.078c0 .83.306 1.472.922 1.926.614.454 1.416.682 2.405.682m-1.844 4.209a9.537 9.537 0 01-2.867-.422 6.694 6.694 0 01-2.345-1.262 6.048 6.048 0 01-1.584-2.065c-.386-.815-.58-1.758-.58-2.827v-.079c0-1.177.213-2.192.641-3.047a5.86 5.86 0 011.783-2.126c.762-.561 1.671-.981 2.726-1.262 1.057-.28 2.226-.422 3.509-.422 1.095 0 2.05.08 2.865.243.815.158 1.61.373 2.386.64v-.361c0-1.282-.388-2.258-1.162-2.927-.776-.667-1.924-1.002-3.448-1.002-1.177 0-2.213.1-3.107.301-.895.2-1.838.488-2.826.863l-1.523-4.652a24.015 24.015 0 013.688-1.243c1.283-.319 2.832-.48 4.65-.48 1.684 0 3.12.208 4.309.621 1.19.416 2.171 1.01 2.947 1.784.802.801 1.389 1.784 1.764 2.947.374 1.163.561 2.465.561 3.91v12.467h-5.893v-2.325a8.478 8.478 0 01-2.686 1.983c-1.042.496-2.312.743-3.808.743M453.101 23.758c-1.902 0-3.492-1.594-3.492-3.5 0-1.903 1.59-3.497 3.492-3.497s3.493 1.594 3.493 3.498c0 1.905-1.591 3.499-3.493 3.499M310.623 65.49c-1.902 0-3.493-1.593-3.493-3.498 0-1.905 1.591-3.497 3.493-3.497 1.903 0 3.494 1.592 3.494 3.497 0 1.905-1.59 3.497-3.494 3.497"/></svg>