<?xml version="1.0" encoding="UTF-8" standalone="no"?>
<!-- Created with Inkscape (http://www.inkscape.org/) -->

<svg
   width="500mm"
   height="115.45617mm"
   viewBox="0 0 500 115.45617"
   version="1.1"
   id="svg13992"
   inkscape:version="1.1.2 (0a00cf5339, 2022-02-04)"
   sodipodi:docname="ESA-logo.svg"
   xmlns:inkscape="http://www.inkscape.org/namespaces/inkscape"
   xmlns:sodipodi="http://sodipodi.sourceforge.net/DTD/sodipodi-0.dtd"
   xmlns="http://www.w3.org/2000/svg"
   xmlns:svg="http://www.w3.org/2000/svg">
  <sodipodi:namedview
     id="namedview13994"
     pagecolor="#505050"
     bordercolor="#ffffff"
     borderopacity="1"
     inkscape:pageshadow="0"
     inkscape:pageopacity="0"
     inkscape:pagecheckerboard="1"
     inkscape:document-units="mm"
     showgrid="false"
     inkscape:zoom="0.7500982"
     inkscape:cx="1059.1946"
     inkscape:cy="417.94528"
     inkscape:window-width="1920"
     inkscape:window-height="1007"
     inkscape:window-x="1536"
     inkscape:window-y="30"
     inkscape:window-maximized="1"
     inkscape:current-layer="layer1" />
  <defs
     id="defs13989" />
  <g
     inkscape:label="Layer 1"
     inkscape:groupmode="layer"
     id="layer1"
     transform="translate(175.36412,-37.92744)">
    <g
       id="g13909"
       transform="matrix(1.6035535,0,0,-1.6035535,135.25879,103.41672)">
      <path
         d="m 0,0 c -2.917,3.385 -7,5.257 -11.204,5.257 -4.203,0 -8.317,-1.869 -11.233,-5.255 -0.227,-0.263 -0.438,-0.532 -0.644,-0.808 -0.207,0.275 -0.419,0.544 -0.644,0.806 -2.917,3.385 -7.038,5.257 -11.241,5.257 -4.204,0 -8.326,-1.869 -11.242,-5.255 -0.227,-0.263 -0.441,-0.532 -0.648,-0.808 -0.207,0.275 -0.421,0.544 -0.646,0.806 -2.917,3.385 -7.039,5.257 -11.243,5.257 -4.203,0 -8.326,-1.585 -11.242,-4.971 -2.008,-2.332 -3.262,-5.029 -3.806,-8.029 h 7.168 c 1.097,4 3.63,6.292 7.593,6.292 5.16,0 8.097,-4.95 8.097,-10.582 v -1.71 h 7.589 l -0.006,2.163 c 0,5.633 3.226,10.071 8.387,10.071 5.16,0 8.386,-4.326 8.386,-9.959 l -0.013,-2.275 h 7.012 l 0.007,2.161 c 0,5.633 3.226,10.073 8.386,10.073 5.161,0 8.387,-4.326 8.387,-9.959 l -0.008,-2.275 h 6.873 v 1.71 C 4.065,-7.508 2.788,-3.238 0,0"
         style="fill:#00a885;fill-opacity:1;fill-rule:nonzero;stroke:none"
         id="path13370"
         transform="translate(-101.8403,35.583097)" />
      <path
         d="m 210.196,446.725 h 7.789 v -26 h -7.789 z"
         style="fill:#000000;fill-opacity:1;fill-rule:nonzero;stroke:none"
         id="path13372"
         transform="translate(-402.7749,-435.4355)" />
      <path
         d="m 0,0 -9.607,-26 h -8.829 l -9.606,26 h 8.62 l 5.401,-16.483 5.4,16.483 z"
         style="fill:#000000;fill-opacity:1;fill-rule:nonzero;stroke:none"
         id="path13376"
         transform="translate(-124.542,11.289104)" />
      <path
         d="m 0,0 c 0,7.748 5.868,13.729 13.762,13.729 5.036,0 9.503,-2.653 11.735,-6.658 L 18.695,3.12 C 17.812,4.94 15.942,6.032 13.657,6.032 10.283,6.032 7.79,3.589 7.79,0 c 0,-3.588 2.493,-6.032 5.867,-6.032 2.285,0 4.207,1.093 5.038,2.912 l 6.802,-3.901 C 23.265,-11.076 18.85,-13.728 13.762,-13.728 5.868,-13.728 0,-7.748 0,0"
         style="fill:#000000;fill-opacity:1;fill-rule:nonzero;stroke:none"
         id="path13380"
         transform="translate(-124.0225,-1.7109017)" />
      <path
         d="m 0,0 c -2.963,0 -5.542,1.937 -5.542,5.785 0,4.264 2.468,6.279 5.568,6.279 3.376,0 5.855,-2.443 5.855,-6.032 C 5.881,2.444 3.375,0 0,0 m -0.104,19.761 c -6.687,0 -12.649,-6.13 -12.649,-12.88 l 0.019,-30.298 h 7.814 v 17.383 c 1,-0.927 3.127,-1.661 4.859,-1.661 7.894,0 13.741,5.979 13.741,13.727 0,7.748 -5.89,13.729 -13.784,13.729"
         style="fill:#000000;fill-opacity:1;fill-rule:nonzero;stroke:none"
         id="path13384"
         transform="translate(-166.855,-7.7430993)" />
      <path
         d="m 0,0 c -2.736,0 -5.024,2.291 -5.024,5.031 0,2.74 2.288,5.032 5.024,5.032 2.736,0 5.024,-2.292 5.024,-5.032 C 5.024,2.291 2.736,0 0,0"
         style="fill:#00a885;fill-opacity:1;fill-rule:nonzero;stroke:none"
         id="path13388"
         transform="translate(-188.6851,25.758802)" />
      <path
         d="M 0,0 H 13.175 V -3.425 H 3.8 v -3.55 h 8.25 V -10.4 H 3.8 v -3.675 h 9.5 V -17.5 H 0 Z"
         style="fill:#000000;fill-opacity:1;fill-rule:nonzero;stroke:none"
         id="path13392"
         transform="translate(-71.798797,28.788097)" />
      <path
         d="M 0,0 C -0.95,0 -1.921,0.162 -2.913,0.487 -3.904,0.812 -4.85,1.324 -5.75,2.024 l 1.625,2.5 c 0.733,-0.533 1.462,-0.933 2.188,-1.2 0.725,-0.266 1.403,-0.399 2.037,-0.399 0.55,0 0.954,0.091 1.212,0.274 C 1.571,3.383 1.7,3.625 1.7,3.925 v 0.05 C 1.7,4.175 1.625,4.35 1.475,4.5 1.325,4.649 1.121,4.778 0.862,4.887 0.604,4.995 0.308,5.1 -0.025,5.199 -0.358,5.3 -0.708,5.408 -1.075,5.524 -1.542,5.658 -2.013,5.82 -2.487,6.012 -2.962,6.203 -3.392,6.453 -3.775,6.762 -4.159,7.07 -4.471,7.449 -4.712,7.899 -4.954,8.35 -5.075,8.899 -5.075,9.55 V 9.6 c 0,0.683 0.129,1.287 0.388,1.812 0.258,0.526 0.608,0.971 1.049,1.338 0.442,0.366 0.959,0.641 1.551,0.824 0.591,0.184 1.229,0.276 1.912,0.276 0.85,0 1.713,-0.137 2.588,-0.412 C 3.288,13.162 4.091,12.783 4.825,12.3 L 3.375,9.675 c -0.667,0.384 -1.317,0.687 -1.95,0.913 -0.633,0.225 -1.192,0.337 -1.675,0.337 -0.467,0 -0.817,-0.087 -1.05,-0.263 C -1.534,10.487 -1.65,10.266 -1.65,10 V 9.949 c 0,-0.183 0.075,-0.345 0.225,-0.487 0.15,-0.142 0.35,-0.274 0.6,-0.399 C -0.575,8.938 -0.288,8.816 0.038,8.699 0.362,8.583 0.708,8.466 1.075,8.35 1.542,8.199 2.017,8.021 2.5,7.812 2.983,7.604 3.416,7.35 3.8,7.05 4.183,6.75 4.5,6.383 4.75,5.949 5,5.516 5.125,4.991 5.125,4.375 V 4.324 C 5.125,3.574 4.996,2.929 4.737,2.387 4.479,1.846 4.116,1.399 3.65,1.05 3.183,0.699 2.638,0.437 2.013,0.262 1.388,0.087 0.716,0 0,0"
         style="fill:#000000;fill-opacity:1;fill-rule:nonzero;stroke:none"
         id="path13396"
         transform="translate(-51.021501,11.038101)" />
      <path
         d="M 0,0 C -1,0 -1.93,0.184 -2.788,0.551 -3.646,0.917 -4.384,1.413 -5,2.038 -5.617,2.663 -6.1,3.396 -6.45,4.238 -6.8,5.079 -6.975,5.976 -6.975,6.926 v 0.05 c 0,0.95 0.175,1.849 0.525,2.7 0.35,0.849 0.833,1.592 1.45,2.224 0.616,0.633 1.354,1.133 2.212,1.5 0.858,0.368 1.804,0.551 2.838,0.551 1.266,0 2.316,-0.2 3.15,-0.6 0.833,-0.4 1.566,-0.951 2.2,-1.65 L 3.075,9.2 c -0.434,0.45 -0.88,0.809 -1.338,1.075 -0.458,0.267 -1.029,0.401 -1.712,0.401 -0.484,0 -0.921,-0.096 -1.313,-0.287 C -1.68,10.196 -2.021,9.934 -2.313,9.601 -2.604,9.267 -2.83,8.879 -2.988,8.438 -3.146,7.996 -3.225,7.525 -3.225,7.025 V 6.976 c 0,-0.517 0.079,-1 0.237,-1.451 C -2.83,5.075 -2.6,4.684 -2.3,4.351 -2,4.017 -1.642,3.754 -1.225,3.563 c 0.416,-0.192 0.883,-0.288 1.4,-0.288 0.633,0 1.187,0.129 1.662,0.388 C 2.313,3.921 2.783,4.267 3.25,4.7 L 5.475,2.45 C 4.825,1.733 4.083,1.146 3.25,0.687 2.416,0.229 1.333,0 0,0"
         style="fill:#000000;fill-opacity:1;fill-rule:nonzero;stroke:none"
         id="path13400"
         transform="translate(-37.361301,10.987401)" />
      <path
         d="M 0,0 C 0.55,0 1.038,0.096 1.463,0.287 1.888,0.479 2.25,0.741 2.55,1.075 2.85,1.408 3.079,1.796 3.238,2.237 3.396,2.679 3.475,3.15 3.475,3.65 V 3.7 c 0,0.5 -0.083,0.971 -0.25,1.412 C 3.059,5.554 2.816,5.945 2.5,6.287 2.184,6.629 1.809,6.9 1.375,7.1 0.941,7.301 0.467,7.4 -0.05,7.4 -0.6,7.4 -1.087,7.305 -1.512,7.113 -1.937,6.921 -2.3,6.658 -2.6,6.325 -2.9,5.991 -3.129,5.604 -3.287,5.162 -3.446,4.721 -3.525,4.25 -3.525,3.75 V 3.7 c 0,-0.5 0.084,-0.971 0.25,-1.413 C -3.108,1.846 -2.867,1.454 -2.55,1.112 -2.233,0.771 -1.862,0.5 -1.437,0.3 -1.012,0.1 -0.533,0 0,0 m -0.05,-3.275 c -1.033,0 -1.992,0.179 -2.875,0.538 -0.884,0.358 -1.646,0.849 -2.287,1.474 -0.642,0.625 -1.146,1.359 -1.513,2.2 -0.367,0.842 -0.55,1.747 -0.55,2.713 V 3.7 c 0,0.966 0.183,1.87 0.55,2.712 0.367,0.842 0.875,1.58 1.525,2.213 0.65,0.633 1.417,1.133 2.3,1.5 0.883,0.367 1.85,0.551 2.9,0.551 1.033,0 1.991,-0.18 2.875,-0.538 C 3.758,9.779 4.521,9.287 5.163,8.662 5.804,8.037 6.308,7.305 6.675,6.463 7.042,5.621 7.225,4.717 7.225,3.75 V 3.7 C 7.225,2.733 7.042,1.829 6.675,0.987 6.308,0.146 5.8,-0.592 5.15,-1.225 4.5,-1.858 3.733,-2.358 2.85,-2.725 1.967,-3.092 1,-3.275 -0.05,-3.275"
         style="fill:#000000;fill-opacity:1;fill-rule:nonzero;stroke:none"
         id="path13404"
         transform="translate(-23.744098,14.262704)" />
      <path
         d="m 388.72,464.974 h 3.8 v -18.25 h -3.8 z"
         style="fill:#000000;fill-opacity:1;fill-rule:nonzero;stroke:none"
         id="path13406"
         transform="translate(-402.7749,-435.4355)" />
      <path
         d="m 0,0 c 0.9,0 1.621,0.216 2.163,0.649 0.541,0.434 0.813,1 0.813,1.701 V 3.024 C 2.642,3.175 2.271,3.295 1.863,3.387 1.454,3.479 1.017,3.524 0.55,3.524 c -0.817,0 -1.458,-0.158 -1.925,-0.474 -0.466,-0.318 -0.7,-0.776 -0.7,-1.375 v -0.05 c 0,-0.518 0.192,-0.917 0.575,-1.2 C -1.117,0.141 -0.617,0 0,0 m -1.15,-2.625 c -0.633,0 -1.229,0.087 -1.787,0.262 -0.559,0.175 -1.046,0.437 -1.462,0.788 -0.417,0.349 -0.747,0.778 -0.988,1.287 -0.242,0.509 -0.363,1.096 -0.363,1.763 v 0.049 c 0,0.734 0.134,1.367 0.4,1.901 0.267,0.533 0.638,0.974 1.113,1.325 0.475,0.35 1.041,0.612 1.7,0.787 C -1.879,5.712 -1.15,5.8 -0.35,5.8 0.333,5.8 0.929,5.75 1.437,5.649 1.946,5.55 2.441,5.416 2.925,5.25 V 5.475 C 2.925,6.274 2.684,6.883 2.2,7.3 1.717,7.717 1,7.925 0.05,7.925 -0.684,7.925 -1.329,7.862 -1.887,7.737 -2.446,7.612 -3.033,7.434 -3.649,7.199 L -4.6,10.1 c 0.734,0.316 1.5,0.575 2.3,0.775 0.8,0.2 1.767,0.3 2.9,0.3 1.05,0 1.946,-0.129 2.688,-0.388 C 4.029,10.529 4.642,10.158 5.125,9.675 5.625,9.175 5.992,8.563 6.226,7.838 6.458,7.112 6.575,6.3 6.575,5.399 V -2.375 H 2.9 v 1.449 C 2.434,-1.442 1.875,-1.854 1.225,-2.163 0.575,-2.471 -0.217,-2.625 -1.15,-2.625"
         style="fill:#000000;fill-opacity:1;fill-rule:nonzero;stroke:none"
         id="path13410"
         transform="translate(-2.1074,13.663101)" />
      <path
         d="m 0,0 c -1.333,0 -2.642,0.229 -3.925,0.687 -1.284,0.459 -2.45,1.163 -3.5,2.113 l 2.275,2.724 c 0.8,-0.649 1.621,-1.167 2.462,-1.549 0.842,-0.384 1.763,-0.576 2.763,-0.576 0.8,0 1.421,0.146 1.862,0.438 C 2.379,4.129 2.6,4.533 2.6,5.05 V 5.1 C 2.6,5.35 2.554,5.57 2.462,5.762 2.37,5.953 2.194,6.133 1.936,6.3 1.677,6.466 1.317,6.633 0.858,6.8 0.398,6.966 -0.199,7.141 -0.935,7.324 -1.82,7.541 -2.622,7.783 -3.341,8.05 -4.06,8.316 -4.67,8.646 -5.171,9.037 -5.672,9.429 -6.061,9.916 -6.336,10.5 -6.612,11.083 -6.75,11.809 -6.75,12.675 v 0.05 c 0,0.8 0.148,1.521 0.447,2.163 0.298,0.641 0.716,1.195 1.254,1.662 0.538,0.467 1.181,0.825 1.928,1.075 C -2.374,17.875 -1.55,18 -0.65,18 0.633,18 1.812,17.809 2.888,17.425 3.962,17.041 4.95,16.491 5.85,15.775 l -2,-2.9 C 3.066,13.408 2.3,13.829 1.55,14.138 0.8,14.445 0.05,14.6 -0.7,14.6 -1.45,14.6 -2.013,14.454 -2.388,14.162 -2.763,13.871 -2.95,13.508 -2.95,13.074 v -0.049 c 0,-0.284 0.054,-0.529 0.163,-0.738 0.108,-0.209 0.305,-0.396 0.589,-0.562 C -1.914,11.559 -1.525,11.4 -1.032,11.25 -0.54,11.1 0.083,10.925 0.835,10.725 1.721,10.491 2.51,10.229 3.204,9.938 3.897,9.646 4.482,9.295 4.958,8.887 5.435,8.479 5.794,8 6.036,7.449 6.278,6.899 6.4,6.241 6.4,5.475 V 5.425 C 6.4,4.558 6.242,3.787 5.928,3.112 5.613,2.438 5.175,1.87 4.612,1.412 4.048,0.953 3.376,0.604 2.596,0.362 1.815,0.121 0.95,0 0,0"
         style="fill:#000000;fill-opacity:1;fill-rule:nonzero;stroke:none"
         id="path13414"
         transform="translate(21.392598,11.038101)" />
      <path
         d="M 0,0 C -1.45,0 -2.571,0.441 -3.363,1.324 -4.154,2.208 -4.55,3.425 -4.55,4.975 v 8.675 h 3.8 V 6.193 c 0,-0.898 0.2,-1.576 0.6,-2.033 0.4,-0.457 0.966,-0.685 1.7,-0.685 0.733,0 1.312,0.228 1.738,0.685 0.424,0.457 0.637,1.135 0.637,2.033 v 7.457 h 3.8 V 0.25 h -3.8 V 2.165 C 3.708,1.88 3.471,1.607 3.212,1.347 2.954,1.087 2.667,0.855 2.35,0.654 2.033,0.453 1.683,0.293 1.3,0.176 0.917,0.059 0.483,0 0,0"
         style="fill:#000000;fill-opacity:1;fill-rule:nonzero;stroke:none"
         id="path13418"
         transform="translate(34.850103,11.038101)" />
      <path
         d="M 0,0 C 0.45,0 0.871,0.088 1.263,0.263 1.654,0.437 2,0.687 2.3,1.013 2.6,1.338 2.838,1.725 3.013,2.175 3.188,2.625 3.275,3.133 3.275,3.7 V 3.75 C 3.275,4.3 3.188,4.804 3.013,5.263 2.838,5.721 2.6,6.112 2.3,6.437 2,6.763 1.654,7.013 1.263,7.187 0.871,7.363 0.45,7.45 0,7.45 -0.45,7.45 -0.871,7.363 -1.262,7.187 -1.654,7.013 -1.996,6.763 -2.287,6.437 -2.579,6.112 -2.813,5.721 -2.987,5.263 -3.162,4.804 -3.25,4.3 -3.25,3.75 V 3.7 c 0,-0.55 0.088,-1.054 0.263,-1.512 0.174,-0.459 0.408,-0.85 0.7,-1.175 0.291,-0.326 0.633,-0.576 1.025,-0.75 C -0.871,0.088 -0.45,0 0,0 m -7,10.426 h 3.8 V 8.5 c 0.467,0.633 1.029,1.154 1.688,1.563 0.658,0.408 1.488,0.613 2.488,0.613 0.783,0 1.541,-0.151 2.274,-0.451 C 3.983,9.926 4.634,9.479 5.2,8.888 5.767,8.296 6.221,7.57 6.562,6.713 6.904,5.854 7.075,4.866 7.075,3.75 V 3.7 C 7.075,2.583 6.904,1.596 6.562,0.737 6.221,-0.121 5.771,-0.846 5.213,-1.437 4.654,-2.029 4.009,-2.475 3.275,-2.775 c -0.733,-0.3 -1.5,-0.45 -2.299,-0.45 -1.018,0 -1.855,0.2 -2.513,0.6 -0.659,0.4 -1.213,0.866 -1.663,1.4 v -5.75 H -7 Z"
         style="fill:#000000;fill-opacity:1;fill-rule:nonzero;stroke:none"
         id="path13422"
         transform="translate(52.649396,14.262704)" />
      <path
         d="M 0,0 C -0.117,0.85 -0.417,1.537 -0.9,2.063 -1.383,2.588 -2.025,2.85 -2.825,2.85 -3.625,2.85 -4.271,2.592 -4.763,2.074 -5.254,1.558 -5.575,0.866 -5.725,0 Z m -2.45,-8.051 c -1,0 -1.929,0.167 -2.787,0.5 -0.859,0.334 -1.6,0.809 -2.225,1.426 -0.625,0.616 -1.113,1.346 -1.463,2.187 -0.35,0.841 -0.525,1.779 -0.525,2.813 v 0.05 c 0,0.95 0.162,1.849 0.488,2.7 0.324,0.85 0.778,1.592 1.362,2.225 0.583,0.632 1.279,1.132 2.087,1.5 0.809,0.367 1.704,0.55 2.688,0.55 1.117,0 2.083,-0.2 2.9,-0.6 C 0.892,4.9 1.571,4.362 2.113,3.688 2.654,3.012 3.054,2.237 3.313,1.362 3.571,0.487 3.7,-0.426 3.7,-1.375 3.7,-1.525 3.696,-1.684 3.688,-1.851 3.679,-2.018 3.667,-2.192 3.65,-2.375 h -9.325 c 0.183,-0.867 0.563,-1.521 1.138,-1.963 C -3.962,-4.779 -3.25,-5 -2.4,-5 c 0.633,0 1.2,0.107 1.7,0.324 0.5,0.217 1.016,0.567 1.55,1.051 l 2.175,-1.926 c -0.633,-0.783 -1.4,-1.395 -2.3,-1.837 -0.9,-0.441 -1.958,-0.663 -3.175,-0.663"
         style="fill:#000000;fill-opacity:1;fill-rule:nonzero;stroke:none"
         id="path13426"
         transform="translate(70.909197,19.038096)" />
      <path
         d="m 0,0 h 3.8 v -2.701 c 0.383,0.917 0.908,1.65 1.575,2.201 0.666,0.55 1.566,0.8 2.7,0.75 v -3.976 h -0.2 c -1.267,0 -2.263,-0.383 -2.987,-1.15 C 4.162,-5.643 3.8,-6.834 3.8,-8.451 V -13.4 H 0 Z"
         style="fill:#000000;fill-opacity:1;fill-rule:nonzero;stroke:none"
         id="path13430"
         transform="translate(77.029302,24.688499)" />
      <path
         d="m 489.727,460.124 h 3.8 v -13.4 h -3.8 z"
         style="fill:#000000;fill-opacity:1;fill-rule:nonzero;stroke:none"
         id="path13432"
         transform="translate(-402.7749,-435.4355)" />
      <path
         d="M 0,0 C 0.55,0 1.038,0.096 1.463,0.287 1.888,0.479 2.25,0.741 2.55,1.075 2.85,1.408 3.079,1.796 3.237,2.237 3.396,2.679 3.475,3.15 3.475,3.65 V 3.7 c 0,0.5 -0.083,0.971 -0.25,1.412 C 3.059,5.554 2.816,5.945 2.5,6.287 2.184,6.629 1.809,6.9 1.375,7.1 0.941,7.301 0.467,7.4 -0.05,7.4 -0.6,7.4 -1.087,7.305 -1.513,7.113 -1.937,6.921 -2.3,6.658 -2.6,6.325 -2.9,5.991 -3.129,5.604 -3.287,5.162 -3.446,4.721 -3.525,4.25 -3.525,3.75 V 3.7 c 0,-0.5 0.084,-0.971 0.25,-1.413 C -3.108,1.846 -2.867,1.454 -2.55,1.112 -2.233,0.771 -1.862,0.5 -1.437,0.3 -1.013,0.1 -0.533,0 0,0 m -0.05,-3.275 c -1.033,0 -1.992,0.179 -2.875,0.538 -0.884,0.358 -1.646,0.849 -2.287,1.474 -0.642,0.625 -1.146,1.359 -1.513,2.2 -0.367,0.842 -0.55,1.747 -0.55,2.713 V 3.7 c 0,0.966 0.183,1.87 0.55,2.712 0.367,0.842 0.875,1.58 1.525,2.213 0.65,0.633 1.416,1.133 2.3,1.5 0.883,0.367 1.85,0.551 2.9,0.551 1.033,0 1.992,-0.18 2.875,-0.538 C 3.758,9.779 4.521,9.287 5.163,8.662 5.804,8.037 6.308,7.305 6.675,6.463 7.042,5.621 7.225,4.717 7.225,3.75 V 3.7 C 7.225,2.733 7.042,1.829 6.675,0.987 6.308,0.146 5.8,-0.592 5.15,-1.225 4.5,-1.858 3.733,-2.358 2.85,-2.725 1.967,-3.092 1,-3.275 -0.05,-3.275"
         style="fill:#000000;fill-opacity:1;fill-rule:nonzero;stroke:none"
         id="path13436"
         transform="translate(100.4463,14.262704)" />
      <path
         d="m 0,0 h 3.8 v -2.701 c 0.384,0.917 0.908,1.65 1.575,2.201 0.667,0.55 1.566,0.8 2.7,0.75 v -3.976 h -0.2 c -1.267,0 -2.262,-0.383 -2.987,-1.15 C 4.163,-5.643 3.8,-6.834 3.8,-8.451 V -13.4 H 0 Z"
         style="fill:#000000;fill-opacity:1;fill-rule:nonzero;stroke:none"
         id="path13440"
         transform="translate(110.0234,24.688499)" />
      <path
         d="M 0,0 -2.325,5.676 -4.65,0 Z M -4.05,10.301 H -0.5 L 7,-7.325 H 2.975 l -1.6,3.925 h -7.4 l -1.6,-3.925 h -3.925 z"
         style="fill:#000000;fill-opacity:1;fill-rule:nonzero;stroke:none"
         id="path13444"
         transform="translate(-60.749001,-7.3875993)" />
      <path
         d="m 0,0 c 0.467,0 0.9,0.074 1.3,0.225 0.4,0.15 0.746,0.362 1.038,0.636 0.291,0.276 0.52,0.605 0.687,0.989 0.166,0.382 0.25,0.799 0.25,1.25 V 3.149 C 3.275,3.6 3.191,4.016 3.025,4.399 2.858,4.783 2.629,5.112 2.338,5.387 2.046,5.662 1.7,5.875 1.3,6.024 0.9,6.175 0.467,6.25 0,6.25 -0.467,6.25 -0.896,6.175 -1.287,6.024 -1.679,5.875 -2.021,5.662 -2.313,5.387 -2.604,5.112 -2.833,4.783 -3,4.399 -3.167,4.016 -3.25,3.6 -3.25,3.149 V 3.1 c 0,-0.934 0.309,-1.684 0.925,-2.25 C -1.708,0.283 -0.934,0 0,0 m -0.45,-8.301 c -1.1,0 -2.15,0.121 -3.15,0.363 -1,0.242 -1.925,0.587 -2.775,1.038 l 1.3,2.849 c 0.7,-0.383 1.404,-0.683 2.113,-0.9 0.708,-0.216 1.512,-0.324 2.412,-0.324 1.3,0 2.263,0.308 2.888,0.924 0.625,0.617 0.937,1.525 0.937,2.725 v 0.65 C 2.708,-1.659 2.092,-2.192 1.425,-2.576 0.758,-2.959 -0.083,-3.15 -1.1,-3.15 c -0.783,0 -1.533,0.136 -2.25,0.412 -0.716,0.275 -1.35,0.678 -1.9,1.213 -0.55,0.533 -0.987,1.187 -1.312,1.962 C -6.887,1.212 -7.05,2.1 -7.05,3.1 v 0.049 c 0,1 0.167,1.888 0.5,2.663 0.333,0.775 0.775,1.429 1.325,1.962 0.55,0.534 1.183,0.938 1.9,1.213 0.717,0.275 1.458,0.412 2.225,0.412 1.034,0 1.883,-0.191 2.55,-0.575 C 2.117,8.441 2.708,7.966 3.225,7.399 v 1.75 h 3.8 V -1.226 c 0,-2.383 -0.567,-4.141 -1.7,-5.275 C 4.691,-7.134 3.896,-7.592 2.938,-7.876 1.979,-8.159 0.85,-8.301 -0.45,-8.301"
         style="fill:#000000;fill-opacity:1;fill-rule:nonzero;stroke:none"
         id="path13448"
         transform="translate(-46.091804,-10.461902)" />
      <path
         d="m 0,0 h 3.8 v -2.7 c 0.383,0.917 0.908,1.65 1.575,2.2 0.666,0.55 1.566,0.8 2.7,0.75 v -3.975 h -0.2 c -1.267,0 -2.263,-0.383 -2.987,-1.15 C 4.163,-5.642 3.8,-6.833 3.8,-8.45 V -13.4 H 0 Z"
         style="fill:#000000;fill-opacity:1;fill-rule:nonzero;stroke:none"
         id="path13452"
         transform="translate(-35.979501,-1.3125016)" />
      <path
         d="m 0,0 3.275,-1.425 -3.2,-3 h -2.9 z m -1.85,-16.926 c 0.9,0 1.621,0.217 2.162,0.651 0.542,0.432 0.813,1 0.813,1.7 v 0.675 c -0.334,0.149 -0.705,0.27 -1.113,0.362 -0.408,0.092 -0.846,0.138 -1.312,0.138 -0.817,0 -1.459,-0.16 -1.925,-0.476 -0.467,-0.316 -0.7,-0.774 -0.7,-1.375 V -15.3 c 0,-0.517 0.192,-0.918 0.575,-1.201 0.383,-0.283 0.883,-0.425 1.5,-0.425 M -3,-19.551 c -0.634,0 -1.229,0.088 -1.788,0.263 -0.558,0.175 -1.045,0.437 -1.462,0.787 -0.417,0.351 -0.746,0.779 -0.987,1.288 -0.242,0.508 -0.363,1.096 -0.363,1.763 v 0.05 c 0,0.733 0.133,1.366 0.4,1.899 0.266,0.533 0.638,0.976 1.113,1.326 0.475,0.35 1.041,0.612 1.699,0.787 0.659,0.175 1.388,0.263 2.188,0.263 0.683,0 1.279,-0.05 1.787,-0.15 0.509,-0.1 1.004,-0.234 1.488,-0.4 v 0.225 c 0,0.8 -0.242,1.408 -0.725,1.825 C -0.134,-9.209 -0.85,-9 -1.8,-9 -2.534,-9 -3.18,-9.063 -3.737,-9.188 -4.296,-9.313 -4.884,-9.492 -5.5,-9.726 l -0.95,2.901 c 0.733,0.316 1.5,0.575 2.3,0.775 0.8,0.199 1.766,0.3 2.9,0.3 1.05,0 1.945,-0.13 2.687,-0.388 0.742,-0.258 1.354,-0.629 1.838,-1.112 0.5,-0.5 0.867,-1.112 1.1,-1.838 0.233,-0.725 0.35,-1.537 0.35,-2.437 v -7.776 H 1.05 v 1.45 c -0.467,-0.516 -1.025,-0.929 -1.675,-1.237 -0.65,-0.308 -1.442,-0.463 -2.375,-0.463"
         style="fill:#000000;fill-opacity:1;fill-rule:nonzero;stroke:none"
         id="path13456"
         transform="translate(-19.5293,4.5878985)" />
      <path
         d="m 0,0 h 3.8 v -2.7 c 0.383,0.917 0.908,1.65 1.575,2.2 0.666,0.55 1.566,0.8 2.7,0.75 v -3.975 h -0.2 c -1.267,0 -2.263,-0.383 -2.988,-1.15 C 4.162,-5.642 3.8,-6.833 3.8,-8.45 V -13.4 H 0 Z"
         style="fill:#000000;fill-opacity:1;fill-rule:nonzero;stroke:none"
         id="path13460"
         transform="translate(-11.821798,-1.3125016)" />
      <path
         d="m 400.875,434.123 h 3.8 v -13.4 h -3.8 z"
         style="fill:#000000;fill-opacity:1;fill-rule:nonzero;stroke:none"
         id="path13462"
         transform="translate(-402.7749,-435.4355)" />
      <path
         d="m 0,0 c 0.9,0 1.621,0.217 2.162,0.65 0.542,0.433 0.813,1 0.813,1.701 V 3.025 C 2.641,3.175 2.271,3.296 1.862,3.388 1.454,3.479 1.016,3.525 0.55,3.525 -0.267,3.525 -0.909,3.366 -1.375,3.05 -1.842,2.733 -2.075,2.275 -2.075,1.675 V 1.626 C -2.075,1.108 -1.884,0.708 -1.5,0.425 -1.117,0.142 -0.617,0 0,0 m -1.15,-2.625 c -0.634,0 -1.229,0.088 -1.788,0.263 -0.558,0.174 -1.046,0.437 -1.462,0.787 -0.417,0.35 -0.746,0.779 -0.988,1.288 -0.241,0.508 -0.362,1.096 -0.362,1.763 v 0.049 c 0,0.734 0.133,1.367 0.4,1.9 0.266,0.533 0.637,0.975 1.112,1.326 0.475,0.35 1.042,0.612 1.7,0.787 0.659,0.175 1.388,0.263 2.188,0.263 0.683,0 1.279,-0.05 1.787,-0.151 C 1.945,5.551 2.441,5.417 2.925,5.251 V 5.476 C 2.925,6.275 2.683,6.884 2.2,7.301 1.716,7.717 1,7.926 0.05,7.926 -0.684,7.926 -1.33,7.863 -1.888,7.738 -2.446,7.613 -3.034,7.434 -3.65,7.2 l -0.95,2.901 c 0.733,0.316 1.5,0.575 2.3,0.775 0.8,0.199 1.766,0.3 2.9,0.3 1.05,0 1.945,-0.13 2.687,-0.388 0.742,-0.259 1.354,-0.629 1.838,-1.112 0.5,-0.5 0.866,-1.113 1.1,-1.838 C 6.458,7.113 6.575,6.301 6.575,5.4 V -2.375 H 2.9 v 1.45 C 2.433,-1.441 1.875,-1.854 1.225,-2.162 0.575,-2.471 -0.217,-2.625 -1.15,-2.625"
         style="fill:#000000;fill-opacity:1;fill-rule:nonzero;stroke:none"
         id="path13466"
         transform="translate(10.002903,-12.337802)" />
      <path
         d="m 0,0 c -1.186,0 -2.178,0.994 -2.178,2.182 0,1.187 0.992,2.181 2.178,2.181 1.186,0 2.178,-0.994 2.178,-2.181 C 2.178,0.994 1.186,0 0,0"
         style="fill:#000000;fill-opacity:1;fill-rule:nonzero;stroke:none"
         id="path13470"
         transform="translate(88.851597,26.024497)" />
      <path
         d="m 0,0 c -1.186,0 -2.178,0.993 -2.178,2.181 0,1.188 0.992,2.181 2.178,2.181 1.187,0 2.179,-0.993 2.179,-2.181 C 2.179,0.993 1.187,0 0,0"
         style="fill:#000000;fill-opacity:1;fill-rule:nonzero;stroke:none"
         id="path13474" />
    </g>
  </g>
</svg>
