<svg width="500" height="86.488" xmlns="http://www.w3.org/2000/svg"><defs><clipPath clipPathUnits="userSpaceOnUse" id="prefix__a"><path d="M0 595.275h841.89V0H0z"/></clipPath></defs><path d="M-.213 369.275h10.385v34.667H-.213zM90.503 369.275L77.694 403.94H65.922l-12.81-34.666h11.495l7.202 21.978 7.2-21.978z"/><g clip-path="url(#prefix__a)" transform="matrix(1.33333 0 0 -1.33333 -278.754 637.7)"><path d="M277.463 188.32c0 7.746 5.868 13.727 13.76 13.727 5.038 0 9.505-2.653 11.737-6.657l-6.803-3.95c-.882 1.82-2.753 2.91-5.037 2.91-3.375 0-5.867-2.443-5.867-6.03 0-3.59 2.492-6.033 5.867-6.033 2.284 0 4.206 1.092 5.037 2.912l6.803-3.9c-2.232-4.056-6.647-6.709-11.736-6.709-7.893 0-13.761 5.981-13.761 13.73M234.63 182.287c-2.963 0-5.541 1.936-5.541 5.784 0 4.265 2.467 6.28 5.567 6.28 3.376 0 5.856-2.444 5.856-6.033 0-3.588-2.507-6.03-5.882-6.03m-.104 19.76c-6.687 0-12.648-5.927-12.648-12.677l.019-30.096H230v16.978c1-.927 2.983-1.662 4.714-1.662 7.894 0 13.668 5.98 13.668 13.727 0 7.748-5.962 13.73-13.856 13.73"/><path d="M212.8 215.788c-2.735 0-5.023 2.292-5.023 5.031 0 2.74 2.288 5.032 5.023 5.032 2.736 0 5.024-2.292 5.024-5.032 0-2.739-2.288-5.03-5.024-5.03M251.855 209.364l-12.96 12.991-8.09-7.989-4.95 4.95 13.046 12.944 12.958-12.989 12.991 12.996 13.006-13 13.01 13.008 12.956-13.034-4.965-4.935-8.007 8.054-12.992-12.992-13.005 13z" fill="#ee2939"/><path d="M208.88 141.416h11.412v-2.966h-8.12v-3.075h7.145v-2.966h-7.145v-3.182h8.228v-2.967h-11.52zM226.875 126.043c-.823 0-1.664.141-2.523.423a8.105 8.105 0 00-2.457 1.331l1.407 2.166a7.773 7.773 0 011.896-1.039c.628-.232 1.216-.347 1.764-.347.477 0 .827.079 1.05.238a.738.738 0 01.336.628v.043a.624.624 0 01-.195.455c-.13.129-.306.242-.53.335-.224.094-.48.185-.77.271a72.66 72.66 0 00-.908.281 12.42 12.42 0 00-1.223.423 4.38 4.38 0 00-1.116.649 3.173 3.173 0 00-.812.986c-.21.389-.315.866-.315 1.428v.043c0 .592.112 1.116.336 1.571.225.455.528.841.91 1.158.383.317.83.556 1.343.715a5.589 5.589 0 001.656.238c.736 0 1.484-.119 2.24-.357a8.302 8.302 0 002.09-.986l-1.255-2.273c-.578.332-1.14.596-1.69.79-.548.195-1.031.293-1.45.293-.404 0-.707-.076-.91-.228a.689.689 0 01-.302-.574v-.043c0-.159.065-.3.195-.423a2.15 2.15 0 01.52-.345c.216-.109.465-.213.746-.315.282-.1.58-.202.899-.303.404-.129.815-.285 1.234-.465a5.095 5.095 0 001.126-.662c.332-.258.606-.576.823-.951.216-.376.324-.831.324-1.364v-.044c0-.649-.112-1.209-.336-1.678a3.08 3.08 0 00-.941-1.158 4.235 4.235 0 00-1.418-.681 6.38 6.38 0 00-1.743-.229M238.706 126a6.08 6.08 0 00-2.415.477 5.929 5.929 0 00-1.916 1.288 5.92 5.92 0 00-1.255 1.905 5.983 5.983 0 00-.455 2.328v.043c0 .823.151 1.603.455 2.339a6.029 6.029 0 001.255 1.927 5.86 5.86 0 001.916 1.298c.744.318 1.562.477 2.458.477 1.097 0 2.006-.174 2.728-.519a6.128 6.128 0 001.905-1.43l-2.013-2.165c-.376.389-.762.7-1.159.93-.397.232-.89.348-1.483.348a2.55 2.55 0 01-1.136-.25 2.79 2.79 0 01-.888-.682 3.108 3.108 0 01-.585-1.006 3.603 3.603 0 01-.205-1.224v-.043c0-.447.068-.866.205-1.256.137-.389.336-.728.596-1.017.26-.289.57-.516.93-.682a2.872 2.872 0 011.213-.249c.55 0 1.03.111 1.44.335a6.11 6.11 0 011.223.898l1.927-1.948a7.377 7.377 0 00-1.927-1.526c-.722-.397-1.66-.596-2.814-.596M250.499 128.837c.477 0 .899.083 1.267.249.368.166.682.393.942.682a3 3 0 01.595 1.006c.137.382.206.79.206 1.224v.043c0 .434-.072.84-.217 1.224a3.057 3.057 0 01-1.602 1.72 2.901 2.901 0 01-1.234.26c-.477 0-.898-.083-1.267-.25a2.78 2.78 0 01-.941-.68 3.017 3.017 0 01-.596-1.007 3.603 3.603 0 01-.206-1.224v-.043c0-.433.073-.841.217-1.223.144-.382.354-.722.628-1.017.274-.297.595-.531.963-.704.368-.173.783-.26 1.245-.26m-.043-2.837c-.895 0-1.725.155-2.49.466a6.08 6.08 0 00-1.981 1.277 5.943 5.943 0 00-1.31 1.906 5.803 5.803 0 00-.476 2.349v.043c0 .837.158 1.62.476 2.35a5.993 5.993 0 001.321 1.916 6.277 6.277 0 001.992 1.299c.764.317 1.602.476 2.511.476.895 0 1.725-.155 2.49-.466a6.084 6.084 0 001.982-1.277 5.968 5.968 0 001.309-1.905 5.81 5.81 0 00.476-2.35v-.043c0-.837-.158-1.62-.476-2.35a6.009 6.009 0 00-1.321-1.916 6.264 6.264 0 00-1.991-1.298 6.487 6.487 0 00-2.512-.477M258.891 142.065h3.291v-15.806h-3.291zM269.238 128.317c.78 0 1.403.187 1.873.562.47.375.703.867.703 1.473v.585a5.13 5.13 0 01-2.1.433c-.707 0-1.263-.138-1.667-.41-.404-.276-.606-.673-.606-1.193v-.043c0-.447.166-.794.498-1.039.332-.246.765-.368 1.3-.368m-.997-2.274c-.549 0-1.065.076-1.548.228a3.627 3.627 0 00-1.267.682 3.255 3.255 0 00-.855 1.115c-.209.44-.314.95-.314 1.526v.043c0 .635.115 1.184.346 1.646.231.462.553.845.964 1.147.411.304.902.531 1.472.683a7.404 7.404 0 001.895.226c.592 0 1.107-.043 1.548-.129.44-.086.87-.203 1.288-.346v.194c0 .694-.21 1.22-.628 1.581-.419.361-1.04.541-1.862.541a7.695 7.695 0 01-1.678-.162 11.27 11.27 0 01-1.526-.466l-.823 2.512c.635.274 1.3.498 1.992.671.693.173 1.53.26 2.512.26.91 0 1.685-.113 2.327-.335.642-.225 1.173-.545 1.591-.964a3.9 3.9 0 00.953-1.592c.202-.628.303-1.33.303-2.11v-6.735h-3.183v1.256a4.572 4.572 0 00-1.45-1.07c-.563-.268-1.249-.402-2.057-.402M289.59 126.043c-1.155 0-2.288.199-3.399.596a9 9 0 00-3.032 1.83l1.971 2.359a9.902 9.902 0 012.132-1.342 5.706 5.706 0 012.393-.498c.693 0 1.23.126 1.613.379.382.252.573.603.573 1.05v.044c0 .216-.04.407-.119.573-.08.166-.232.321-.456.466-.224.145-.535.288-.933.433-.398.144-.916.296-1.553.455a18.64 18.64 0 00-2.084.628c-.622.23-1.15.515-1.584.855a3.453 3.453 0 00-1.01 1.266c-.239.506-.358 1.134-.358 1.885v.042c0 .693.13 1.317.387 1.874.258.554.62 1.035 1.086 1.439a4.892 4.892 0 001.67.932 6.785 6.785 0 002.14.324c1.111 0 2.133-.166 3.063-.498a8.88 8.88 0 002.566-1.429l-1.732-2.512a10.88 10.88 0 01-1.992 1.093 5.072 5.072 0 01-1.948.402c-.65 0-1.137-.127-1.462-.379-.325-.253-.487-.568-.487-.943v-.043c0-.246.047-.459.141-.638.094-.181.264-.344.51-.488.246-.144.582-.281 1.01-.411.427-.13.966-.281 1.617-.455.767-.202 1.451-.43 2.051-.682a5.732 5.732 0 001.52-.91 3.45 3.45 0 00.934-1.244c.21-.476.314-1.047.314-1.711v-.043c0-.751-.136-1.418-.408-2.003a4.117 4.117 0 00-1.14-1.472 5.138 5.138 0 00-1.746-.91c-.676-.209-1.425-.314-2.248-.314M301.245 126.043c-1.256 0-2.227.383-2.912 1.148-.686.765-1.028 1.819-1.028 3.162v7.512h3.291v-6.458c0-.777.172-1.364.52-1.76.346-.396.836-.594 1.471-.594.636 0 1.137.198 1.505.594.368.396.552.983.552 1.76v6.458h3.291V126.26h-3.29v1.659a7.076 7.076 0 00-.618-.708 4.324 4.324 0 00-.747-.601 3.729 3.729 0 00-.909-.414 3.867 3.867 0 00-1.126-.153M316.66 128.837c.39 0 .755.075 1.095.228.339.15.638.367.898.649.26.28.466.617.617 1.007.152.389.227.83.227 1.32v.043c0 .477-.075.913-.227 1.31a3.113 3.113 0 01-.617 1.018c-.26.28-.56.498-.898.65-.34.15-.704.227-1.094.227a2.616 2.616 0 01-1.981-.877 3.214 3.214 0 01-.606-1.017 3.642 3.642 0 01-.228-1.311v-.043c0-.476.076-.913.228-1.31.15-.397.353-.736.606-1.017a2.624 2.624 0 011.981-.877m-6.062 9.028h3.29v-1.667c.404.548.892.999 1.462 1.354.57.353 1.289.53 2.155.53.678 0 1.335-.13 1.97-.39a4.86 4.86 0 001.688-1.158c.49-.512.885-1.14 1.18-1.884.296-.744.444-1.6.444-2.566v-.043c0-.967-.148-1.822-.443-2.565-.296-.743-.686-1.372-1.17-1.884a4.75 4.75 0 00-1.678-1.158 5.203 5.203 0 00-1.991-.391c-.881 0-1.606.174-2.177.52a5.8 5.8 0 00-1.44 1.212v-4.98h-3.29zM332.475 132.973c-.101.735-.361 1.33-.78 1.786-.418.454-.974.68-1.666.68-.694 0-1.253-.222-1.68-.67-.425-.447-.702-1.046-.832-1.796zM330.353 126c-.866 0-1.671.145-2.414.434a5.566 5.566 0 00-3.193 3.129c-.304.728-.455 1.54-.455 2.435v.043c0 .824.14 1.603.422 2.339a5.966 5.966 0 001.18 1.927 5.542 5.542 0 001.808 1.299c.7.317 1.475.476 2.328.476.967 0 1.803-.173 2.51-.52a5.135 5.135 0 001.766-1.396 5.822 5.822 0 001.039-2.013 8.326 8.326 0 00.325-2.783 11.903 11.903 0 00-.033-.455h-8.076c.159-.751.487-1.317.985-1.7.498-.382 1.116-.573 1.85-.573.55 0 1.04.094 1.474.282.433.188.88.49 1.342.909l1.884-1.667a5.827 5.827 0 00-1.992-1.591c-.78-.383-1.696-.575-2.75-.575M337.775 137.865h3.29v-2.338c.333.793.788 1.43 1.365 1.905.577.476 1.356.693 2.338.65v-3.443h-.173c-1.097 0-1.96-.333-2.587-.996-.628-.664-.942-1.696-.942-3.096v-4.287h-3.291zM346.368 137.865h3.291V126.26h-3.291zM358.056 128.837c.476 0 .898.083 1.267.249.367.166.68.393.94.682.26.289.459.624.597 1.006.136.382.205.79.205 1.224v.043c0 .434-.072.84-.216 1.224a3.103 3.103 0 01-.628 1.017 3.036 3.036 0 01-.975.703 2.893 2.893 0 01-1.233.26c-.477 0-.9-.083-1.268-.25a2.8 2.8 0 01-.941-.68 3.034 3.034 0 01-.596-1.007 3.603 3.603 0 01-.205-1.224v-.043c0-.433.072-.841.217-1.223a3.06 3.06 0 01.628-1.017c.273-.297.595-.531.963-.704.368-.173.783-.26 1.245-.26m-.043-2.837c-.895 0-1.726.155-2.49.466a6.074 6.074 0 00-1.982 1.277 5.956 5.956 0 00-1.31 1.906 5.803 5.803 0 00-.476 2.349v.043c0 .837.159 1.62.477 2.35a6.006 6.006 0 001.32 1.916 6.277 6.277 0 001.992 1.299c.765.317 1.602.476 2.512.476.895 0 1.725-.155 2.49-.466a6.08 6.08 0 001.98-1.277 5.97 5.97 0 001.31-1.905 5.828 5.828 0 00.477-2.35v-.043c0-.837-.16-1.62-.476-2.35a6.009 6.009 0 00-1.321-1.916 6.258 6.258 0 00-1.992-1.298c-.765-.318-1.602-.477-2.511-.477M366.35 137.865h3.291v-2.338c.332.793.786 1.43 1.364 1.905.577.476 1.356.693 2.338.65v-3.443h-.173c-1.097 0-1.96-.333-2.587-.996-.628-.664-.942-1.696-.942-3.096v-4.287h-3.29zM215.008 106.318a2.619 2.619 0 011.981.877c.252.282.455.621.606 1.018.152.397.228.834.228 1.31v.043c0 .477-.076.913-.228 1.311a3.244 3.244 0 01-.606 1.017 2.635 2.635 0 01-.888.65 2.655 2.655 0 01-1.093.227 2.655 2.655 0 01-1.992-.877 3.14 3.14 0 01-.617-1.007 3.613 3.613 0 01-.227-1.32v-.044c0-.476.075-.913.227-1.31.151-.397.357-.736.617-1.018a2.72 2.72 0 01.9-.649 2.64 2.64 0 011.092-.228m-.844-2.793c-.679 0-1.336.131-1.97.391a4.846 4.846 0 00-1.689 1.158c-.492.512-.885 1.14-1.18 1.883-.296.744-.444 1.6-.444 2.566v.043c0 .967.148 1.822.443 2.566.296.743.686 1.372 1.17 1.883a4.737 4.737 0 001.678 1.158 5.2 5.2 0 001.992.391c.88 0 1.605-.174 2.176-.519a5.824 5.824 0 001.44-1.213v5.715h3.29v-15.805h-3.29v1.667a5.214 5.214 0 00-1.462-1.353c-.57-.353-1.289-.53-2.154-.53M231.333 110.454c-.101.735-.361 1.332-.779 1.786-.419.455-.974.683-1.667.683-.693 0-1.253-.225-1.679-.672-.425-.447-.703-1.046-.833-1.797zm-2.122-6.972c-.866 0-1.67.145-2.414.434a5.6 5.6 0 00-1.927 1.232 5.725 5.725 0 00-1.266 1.896c-.303.73-.455 1.541-.455 2.436v.043c0 .823.141 1.602.422 2.338a5.96 5.96 0 001.18 1.928c.505.548 1.108.98 1.808 1.3.7.316 1.476.475 2.328.475.967 0 1.803-.173 2.511-.519a5.135 5.135 0 001.765-1.397 5.822 5.822 0 001.039-2.013 8.326 8.326 0 00.325-2.784 10.123 10.123 0 00-.033-.454h-8.076c.159-.75.487-1.317.985-1.7.498-.382 1.116-.573 1.852-.573a3.68 3.68 0 011.472.281c.433.188.88.491 1.342.91l1.884-1.668a5.835 5.835 0 00-1.992-1.59c-.779-.383-1.696-.575-2.75-.575M250.494 103.482c-1.11 0-2.144.202-3.096.606a7.585 7.585 0 00-2.468 1.657 7.54 7.54 0 00-1.624 2.48 7.975 7.975 0 00-.584 3.052v.043c0 1.082.194 2.097.584 3.042.39.945.931 1.775 1.624 2.49a7.528 7.528 0 002.49 1.69c.967.41 2.035.616 3.204.616.707 0 1.353-.058 1.938-.173a8.033 8.033 0 001.591-.477 6.908 6.908 0 001.321-.736c.404-.289.78-.606 1.126-.952l-2.123-2.447a7.948 7.948 0 01-1.807 1.255c-.614.303-1.302.456-2.068.456a4.21 4.21 0 01-3.16-1.386 4.758 4.758 0 01-.91-1.505 5.1 5.1 0 01-.325-1.83v-.043c0-.65.108-1.264.325-1.84a4.798 4.798 0 01.9-1.516 4.191 4.191 0 011.384-1.029 4.18 4.18 0 011.786-.379c.867 0 1.6.16 2.198.477.6.317 1.194.75 1.786 1.3l2.122-2.144c-.39-.42-.794-.795-1.212-1.127a7.103 7.103 0 00-3.01-1.396 9.902 9.902 0 00-1.992-.184M258.531 115.348h3.291v-11.605h-3.291zM272.147 110.454c-.1.735-.36 1.332-.779 1.786-.419.455-.975.683-1.667.683-.694 0-1.253-.225-1.679-.672-.424-.447-.702-1.046-.832-1.797zm-4.027 9.57h3.118l2.663-3.399h-2.533l-1.71 1.43-1.71-1.43h-2.49zm1.905-16.542c-.866 0-1.67.145-2.414.434a5.59 5.59 0 00-1.927 1.232 5.725 5.725 0 00-1.266 1.896c-.304.73-.455 1.541-.455 2.436v.043c0 .823.14 1.602.422 2.338a5.96 5.96 0 001.18 1.928c.505.548 1.107.98 1.808 1.3.7.316 1.476.475 2.328.475.967 0 1.803-.173 2.511-.519a5.135 5.135 0 001.765-1.397 5.839 5.839 0 001.04-2.013 8.326 8.326 0 00.324-2.784 14.307 14.307 0 00-.033-.454h-8.076c.16-.75.487-1.317.985-1.7.498-.382 1.116-.573 1.851-.573.55 0 1.04.094 1.473.281.433.188.88.491 1.342.91l1.884-1.668a5.835 5.835 0 00-1.992-1.59c-.779-.383-1.696-.575-2.75-.575M277.448 115.348h3.29v-1.66c.188.248.394.484.618.71.223.225.472.425.747.599.274.174.577.313.909.414.332.102.707.154 1.126.154 1.256 0 2.227-.383 2.913-1.15.685-.763 1.028-1.817 1.028-3.16v-7.512h-3.291v6.458c0 .777-.173 1.364-.52 1.76-.346.396-.837.594-1.472.594-.636 0-1.137-.198-1.505-.594-.368-.396-.552-.983-.552-1.76v-6.458h-3.291zM296.104 103.482a6.071 6.071 0 00-4.33 1.765 5.909 5.909 0 00-1.255 1.905 6.001 6.001 0 00-.455 2.328v.043c0 .822.152 1.602.455 2.338a6.022 6.022 0 001.255 1.928 5.88 5.88 0 001.917 1.298c.743.318 1.562.477 2.457.477 1.096 0 2.006-.174 2.727-.519a6.144 6.144 0 001.906-1.43l-2.014-2.165c-.375.39-.762.7-1.158.93-.398.232-.892.347-1.484.347a2.55 2.55 0 01-1.136-.249 2.793 2.793 0 01-.888-.682 3.123 3.123 0 01-.584-1.006 3.579 3.579 0 01-.206-1.224v-.043c0-.447.068-.866.206-1.256.137-.389.335-.729.595-1.017a2.81 2.81 0 012.143-.932c.55 0 1.03.112 1.44.336.412.224.82.523 1.223.898l1.928-1.948a7.377 7.377 0 00-1.928-1.526c-.72-.398-1.66-.596-2.814-.596M302.578 115.348h3.291v-11.605h-3.291zM312.886 105.799c.78 0 1.404.187 1.873.563a1.8 1.8 0 01.704 1.472v.585a5.093 5.093 0 01-2.1.433c-.708 0-1.264-.137-1.668-.412-.404-.274-.606-.67-.606-1.19v-.043c0-.448.166-.795.498-1.04.332-.245.765-.368 1.3-.368m-.997-2.273a5.16 5.16 0 00-1.548.227 3.604 3.604 0 00-1.267.683 3.25 3.25 0 00-.855 1.114c-.209.44-.314.949-.314 1.526v.044c0 .635.115 1.183.347 1.646.23.462.551.844.963 1.147.411.303.902.53 1.472.682a7.403 7.403 0 001.895.227c.592 0 1.107-.043 1.548-.13.44-.086.87-.202 1.288-.346v.195c0 .693-.209 1.22-.627 1.58-.419.362-1.04.542-1.863.542a7.69 7.69 0 01-1.678-.163 11.26 11.26 0 01-1.526-.465l-.823 2.512c.635.273 1.3.498 1.992.67.693.174 1.53.26 2.512.26.91 0 1.685-.112 2.327-.335.642-.224 1.173-.545 1.591-.963.434-.434.751-.964.953-1.592.202-.628.303-1.331.303-2.111v-6.734h-3.182v1.256a4.605 4.605 0 00-1.45-1.072c-.564-.267-1.25-.4-2.058-.4M325.202 103.525c-.823 0-1.664.141-2.522.423a8.098 8.098 0 00-2.458 1.331l1.407 2.166a7.812 7.812 0 011.895-1.04c.628-.232 1.216-.347 1.764-.347.477 0 .827.08 1.05.238a.74.74 0 01.336.628v.044a.62.62 0 01-.195.454c-.13.13-.307.242-.53.336-.224.094-.48.184-.77.271a72.66 72.66 0 00-.908.281c-.404.115-.812.256-1.223.422a4.383 4.383 0 00-1.116.65 3.17 3.17 0 00-.812.985c-.21.39-.314.866-.314 1.43v.042c0 .592.112 1.116.336 1.571.224.454.527.84.91 1.158.382.317.829.555 1.342.714a5.557 5.557 0 001.656.238c.736 0 1.484-.119 2.24-.357a8.322 8.322 0 002.09-.985l-1.255-2.273c-.578.331-1.141.595-1.69.79-.548.195-1.031.292-1.45.292-.404 0-.707-.075-.91-.228a.686.686 0 01-.302-.573v-.044c0-.158.065-.299.195-.422s.303-.238.519-.345c.217-.109.466-.214.747-.315.282-.1.58-.202.899-.303.404-.13.815-.285 1.234-.465a5.131 5.131 0 001.126-.66c.332-.26.606-.579.823-.954.217-.376.324-.83.324-1.364v-.043c0-.649-.111-1.209-.335-1.678a3.095 3.095 0 00-.942-1.158 4.218 4.218 0 00-1.418-.682 6.425 6.425 0 00-1.743-.228M338.842 118.898h11.41v-2.966h-8.12v-3.075h7.146v-2.965h-7.145v-3.182h8.228v-2.967h-11.52zM352.79 115.348h3.29v-1.66c.188.248.394.484.618.71.223.225.472.425.747.599.274.174.58.313.92.414.339.102.718.154 1.137.154.765 0 1.425-.16 1.98-.481a3.228 3.228 0 001.289-1.373c.505.61 1.068 1.072 1.689 1.385.62.313 1.328.469 2.122.469 1.227 0 2.187-.362 2.88-1.083.693-.722 1.039-1.783 1.039-3.183v-7.556h-3.291v6.458c0 .777-.167 1.364-.498 1.76-.333.396-.81.594-1.43.594-.62 0-1.107-.198-1.46-.594-.354-.396-.531-.983-.531-1.76v-6.458H360v6.458c0 .777-.167 1.364-.498 1.76-.333.396-.81.594-1.43.594-.62 0-1.107-.198-1.461-.594-.354-.396-.53-.983-.53-1.76v-6.458h-3.291zM379.18 106.318c.39 0 .755.076 1.094.228.339.151.639.368.899.65.26.281.465.616.617 1.006.15.39.227.83.227 1.321v.043c0 .477-.076.913-.227 1.311a3.14 3.14 0 01-.617 1.017 2.655 2.655 0 01-1.992.877 2.66 2.66 0 01-1.094-.227 2.622 2.622 0 01-.887-.65 3.227 3.227 0 01-.607-1.017 3.664 3.664 0 01-.227-1.31v-.044c0-.476.076-.913.227-1.31.15-.397.354-.736.607-1.018.252-.28.548-.498.887-.649a2.644 2.644 0 011.094-.228m-6.062 9.03h3.29v-1.668c.404.548.89 1 1.46 1.353.572.353 1.29.531 2.156.531.678 0 1.335-.13 1.97-.39a4.84 4.84 0 001.689-1.159c.49-.51.884-1.14 1.18-1.883.296-.744.444-1.599.444-2.566v-.043c0-.967-.148-1.822-.444-2.566-.296-.743-.685-1.37-1.17-1.883a4.755 4.755 0 00-1.677-1.158 5.208 5.208 0 00-1.992-.39c-.88 0-1.606.173-2.176.52-.57.345-1.05.75-1.44 1.211v-4.979h-3.29zM387.444 115.348h3.291v-2.34c.332.795.787 1.43 1.364 1.906.577.477 1.357.694 2.34.65v-3.443h-.175c-1.097 0-1.959-.332-2.587-.996-.628-.664-.942-1.695-.942-3.095v-4.287h-3.29zM403.698 110.454c-.1.735-.36 1.332-.779 1.786-.419.455-.975.683-1.667.683-.693 0-1.253-.225-1.679-.672-.425-.447-.703-1.046-.833-1.797zm-2.122-6.972c-.866 0-1.67.145-2.414.434a5.6 5.6 0 00-1.927 1.232 5.725 5.725 0 00-1.266 1.896c-.303.73-.455 1.541-.455 2.436v.043c0 .823.141 1.602.422 2.338a5.96 5.96 0 001.18 1.928c.505.548 1.108.98 1.808 1.3.7.316 1.476.475 2.328.475.967 0 1.803-.173 2.511-.519a5.135 5.135 0 001.765-1.397 5.822 5.822 0 001.04-2.013 8.326 8.326 0 00.324-2.784 11.856 11.856 0 00-.033-.454h-8.076c.16-.75.487-1.317.985-1.7.498-.382 1.116-.573 1.851-.573.55 0 1.04.094 1.473.281.433.188.88.491 1.342.91l1.884-1.668a5.835 5.835 0 00-1.992-1.59c-.779-.383-1.696-.575-2.75-.575M412.978 103.525a8.05 8.05 0 00-2.521.423 8.086 8.086 0 00-2.458 1.331l1.406 2.166a7.806 7.806 0 011.894-1.04c.628-.232 1.217-.347 1.765-.347.476 0 .826.08 1.05.238.224.16.336.37.336.628v.044a.62.62 0 01-.195.454c-.13.13-.307.242-.53.336-.225.094-.48.184-.769.271-.289.087-.592.181-.91.281a12.33 12.33 0 00-1.223.422 4.394 4.394 0 00-1.115.65 3.17 3.17 0 00-.812.985c-.209.39-.314.866-.314 1.43v.042c0 .592.112 1.116.336 1.571.224.454.527.84.91 1.158.381.317.83.555 1.341.714a5.568 5.568 0 001.657.238c.736 0 1.483-.119 2.241-.357a8.3 8.3 0 002.09-.985l-1.257-2.273a10.42 10.42 0 01-1.689.79c-.548.195-1.03.292-1.45.292-.404 0-.707-.075-.909-.228-.203-.15-.304-.342-.304-.573v-.044c0-.158.066-.299.196-.422s.302-.238.52-.345c.216-.109.465-.214.747-.315.28-.1.58-.202.899-.303.403-.13.815-.285 1.234-.465a5.1 5.1 0 001.125-.66c.333-.26.607-.579.823-.954.217-.376.325-.83.325-1.364v-.043c0-.649-.112-1.209-.335-1.678a3.104 3.104 0 00-.942-1.158 4.227 4.227 0 00-1.418-.682 6.433 6.433 0 00-1.744-.228M423.752 105.799c.779 0 1.403.187 1.873.563.469.375.703.867.703 1.472v.585a5.151 5.151 0 01-2.1.433c-.707 0-1.263-.137-1.667-.412-.404-.274-.606-.67-.606-1.19v-.043c0-.448.166-.795.498-1.04.332-.245.765-.368 1.299-.368m-.996-2.273a5.16 5.16 0 00-1.548.227 3.612 3.612 0 00-1.267.683 3.25 3.25 0 00-.855 1.114c-.209.44-.314.949-.314 1.526v.044c0 .635.115 1.183.346 1.646.231.462.552.844.964 1.147.411.303.902.53 1.472.682.57.15 1.202.227 1.895.227.591 0 1.107-.043 1.548-.13.44-.086.869-.202 1.288-.346v.195c0 .693-.209 1.22-.628 1.58-.419.362-1.039.542-1.862.542a7.69 7.69 0 01-1.678-.163 11.26 11.26 0 01-1.526-.465l-.823 2.512c.635.273 1.299.498 1.992.67.693.174 1.53.26 2.512.26.909 0 1.685-.112 2.327-.335.642-.224 1.173-.545 1.591-.963.434-.434.751-.964.953-1.592.202-.628.303-1.331.303-2.111v-6.734h-3.182v1.256a4.605 4.605 0 00-1.451-1.072c-.563-.267-1.249-.4-2.057-.4M432.03 115.348h3.29v-2.34c.332.795.786 1.43 1.364 1.906.577.477 1.356.694 2.338.65v-3.443h-.173c-1.097 0-1.96-.332-2.588-.996-.628-.664-.94-1.695-.94-3.095v-4.287h-3.292zM440.623 115.348h3.291v-11.605h-3.291zM450.93 105.799c.78 0 1.404.187 1.874.563.469.375.704.867.704 1.472v.585a5.151 5.151 0 01-2.101.433c-.707 0-1.263-.137-1.667-.412-.404-.274-.606-.67-.606-1.19v-.043c0-.448.166-.795.498-1.04.332-.245.765-.368 1.299-.368m-.996-2.273a5.16 5.16 0 00-1.548.227 3.612 3.612 0 00-1.267.683 3.25 3.25 0 00-.855 1.114c-.21.44-.314.949-.314 1.526v.044c0 .635.116 1.183.347 1.646.23.462.55.844.963 1.147.41.303.902.53 1.472.682.57.15 1.202.227 1.895.227.59 0 1.108-.043 1.548-.13.44-.086.869-.202 1.288-.346v.195c0 .693-.21 1.22-.628 1.58-.42.362-1.04.542-1.862.542a7.69 7.69 0 01-1.678-.163 11.26 11.26 0 01-1.526-.465l-.823 2.512c.635.273 1.299.498 1.992.67.693.174 1.53.26 2.512.26.909 0 1.685-.112 2.327-.335.642-.224 1.173-.545 1.59-.963.435-.434.752-.964.954-1.592.202-.628.303-1.331.303-2.111v-6.734h-3.183v1.256a4.59 4.59 0 00-1.45-1.072c-.563-.267-1.25-.4-2.057-.4M459.249 115.348h3.291v-11.605h-3.291zM469.364 103.525c-.823 0-1.664.141-2.522.423a8.093 8.093 0 00-2.457 1.331l1.407 2.166a7.801 7.801 0 011.893-1.04c.63-.232 1.217-.347 1.765-.347.477 0 .827.08 1.051.238a.74.74 0 01.335.628v.044a.62.62 0 01-.195.454c-.13.13-.306.242-.53.336-.224.094-.48.184-.768.271-.29.087-.593.181-.91.281-.404.115-.812.256-1.223.422a4.4 4.4 0 00-1.116.65 3.183 3.183 0 00-.812.985c-.209.39-.313.866-.313 1.43v.042c0 .592.111 1.116.335 1.571.224.454.527.84.91 1.158.382.317.83.555 1.342.714a5.557 5.557 0 001.656.238c.736 0 1.484-.119 2.241-.357a8.322 8.322 0 002.09-.985l-1.256-2.273c-.578.331-1.14.595-1.689.79-.548.195-1.032.292-1.45.292-.405 0-.708-.075-.91-.228a.689.689 0 01-.303-.573v-.044c0-.158.065-.299.195-.422s.303-.238.52-.345c.216-.109.465-.214.746-.315.282-.1.581-.202.9-.303.403-.13.814-.285 1.233-.465a5.108 5.108 0 001.126-.66 3.27 3.27 0 00.822-.954c.217-.376.325-.83.325-1.364v-.043c0-.649-.11-1.209-.335-1.678a3.085 3.085 0 00-.942-1.158 4.218 4.218 0 00-1.418-.682 6.425 6.425 0 00-1.743-.228M348.014 139.024c-1.027 0-1.887.86-1.887 1.889s.86 1.889 1.887 1.889c1.027 0 1.887-.86 1.887-1.89 0-1.028-.86-1.888-1.887-1.888M260.177 116.506c-1.027 0-1.887.86-1.887 1.889 0 1.028.86 1.889 1.887 1.889a1.907 1.907 0 001.886-1.89 1.906 1.906 0 00-1.886-1.888M304.224 116.506c-1.027 0-1.886.86-1.886 1.889 0 1.028.859 1.889 1.886 1.889a1.908 1.908 0 001.887-1.89c0-1.028-.86-1.888-1.887-1.888M442.268 116.506c-1.027 0-1.886.86-1.886 1.889 0 1.028.859 1.889 1.886 1.889a1.908 1.908 0 001.887-1.89c0-1.028-.86-1.888-1.887-1.888M460.894 116.506c-1.027 0-1.887.86-1.887 1.889 0 1.028.86 1.889 1.887 1.889a1.907 1.907 0 001.886-1.89 1.906 1.906 0 00-1.885-1.888M210.056 451.14h6.828v-22.79h-6.828zM269.696 451.14l-8.422-22.79h-7.739l-8.42 22.79h7.556l4.734-14.45 4.734 14.45zM270.151 439.745c0 6.791 5.144 12.033 12.063 12.033 4.415 0 8.33-2.324 10.287-5.835l-5.963-3.464c-.774 1.595-2.413 2.552-4.416 2.552-2.957 0-5.143-2.141-5.143-5.286 0-3.145 2.186-5.288 5.143-5.288 2.003 0 3.688.958 4.416 2.553l5.963-3.42c-1.957-3.554-5.827-5.88-10.287-5.88-6.92 0-12.063 5.243-12.063 12.035M232.605 434.457c-2.597 0-4.858 1.698-4.858 5.07 0 3.739 2.164 5.504 4.881 5.504 2.96 0 5.132-2.141 5.132-5.286 0-3.146-2.196-5.288-5.155-5.288m-.09 17.321c-5.862 0-11.089-5.634-11.089-11.55l.017-26.82h6.85v15.76c.876-.813 2.74-1.457 4.259-1.457 6.92 0 12.045 5.242 12.045 12.034 0 6.791-5.163 12.033-12.083 12.033"/><path d="M213.47 463.823c-2.399 0-4.404 2.01-4.404 4.41 0 2.402 2.005 4.411 4.404 4.411 2.398 0 4.404-2.01 4.404-4.41 0-2.402-2.006-4.41-4.404-4.41M247.703 458.192l-11.36 11.388-7.09-7.003-4.339 4.339 11.434 11.346 11.36-11.386 11.387 11.392 11.402-11.396 11.402 11.403 11.358-11.425-4.353-4.326-7.018 7.06-11.389-11.388-11.4 11.395z" fill="#ee2939"/><path d="M315.929 466.479h11.549v-3.003h-8.218v-3.112h7.231v-3h-7.231v-3.222h8.327v-3.003H315.93zM334.141 450.92a8.15 8.15 0 00-2.553.427 8.192 8.192 0 00-2.487 1.347l1.425 2.192a7.941 7.941 0 011.918-1.052c.635-.233 1.23-.35 1.785-.35.482 0 .836.08 1.063.24.227.162.34.373.34.637v.044a.627.627 0 01-.198.459c-.131.131-.31.245-.537.34a7.723 7.723 0 01-.777.274 63.83 63.83 0 00-.92.284c-.41.117-.823.26-1.239.428a4.402 4.402 0 00-1.129.658c-.336.27-.61.602-.82.996-.213.396-.32.877-.32 1.448v.043c0 .598.114 1.128.341 1.589.226.46.533.85.92 1.172.387.321.84.562 1.36.723a5.609 5.609 0 001.675.242 7.54 7.54 0 002.269-.362 8.439 8.439 0 002.114-.997l-1.271-2.3c-.585.335-1.155.601-1.71.799-.554.197-1.044.296-1.468.296-.409 0-.716-.077-.92-.23a.698.698 0 01-.307-.582v-.044c0-.16.066-.303.197-.427.132-.124.307-.24.526-.35.22-.11.471-.217.757-.318.284-.102.587-.205.909-.306.41-.133.826-.29 1.249-.473a5.143 5.143 0 001.14-.667c.335-.264.613-.585.832-.965.22-.38.329-.84.329-1.38v-.044c0-.658-.113-1.223-.34-1.698a3.11 3.11 0 00-.953-1.172 4.264 4.264 0 00-1.435-.691 6.525 6.525 0 00-1.765-.23M346.116 450.876c-.877 0-1.692.161-2.444.482a6.004 6.004 0 00-1.94 1.304 6.08 6.08 0 00-1.731 4.284v.045c0 .832.154 1.62.46 2.366.308.745.73 1.395 1.272 1.95a5.92 5.92 0 001.939 1.315c.752.321 1.581.482 2.487.482 1.11 0 2.03-.175 2.762-.525a6.224 6.224 0 001.928-1.447l-2.038-2.192c-.38.395-.771.71-1.173.942-.401.235-.902.351-1.5.351-.425 0-.808-.084-1.151-.251a2.853 2.853 0 01-.899-.69 3.158 3.158 0 01-.592-1.02 3.652 3.652 0 01-.207-1.238v-.043c0-.454.069-.877.207-1.272.139-.395.34-.737.603-1.03.263-.292.577-.523.943-.69a2.896 2.896 0 011.227-.252c.555 0 1.04.113 1.457.34.417.226.83.53 1.238.909l1.95-1.973a7.507 7.507 0 00-1.95-1.545c-.73-.402-1.68-.602-2.848-.602M358.052 453.747a3.1 3.1 0 011.282.251c.373.169.69.398.953.691.263.292.464.632.603 1.019.139.387.208.8.208 1.237v.045c0 .438-.073.851-.219 1.238a3.121 3.121 0 01-1.622 1.742c-.38.176-.796.263-1.249.263-.482 0-.909-.084-1.281-.252a2.828 2.828 0 01-.954-.69 3.037 3.037 0 01-.602-1.02c-.14-.386-.209-.799-.209-1.237v-.044c0-.438.074-.851.22-1.238a3.13 3.13 0 011.61-1.742 2.923 2.923 0 011.26-.263m-.044-2.87c-.905 0-1.746.155-2.52.47a6.118 6.118 0 00-2.005 1.293 6.026 6.026 0 00-1.326 1.928 5.88 5.88 0 00-.482 2.377v.045c0 .847.16 1.64.482 2.377a6.07 6.07 0 001.337 1.94 6.35 6.35 0 002.016 1.315c.774.32 1.622.482 2.542.482.906 0 1.745-.158 2.52-.47a6.187 6.187 0 002.006-1.294 6.028 6.028 0 001.325-1.929c.322-.738.482-1.53.482-2.377v-.044c0-.847-.16-1.64-.482-2.378a6.08 6.08 0 00-1.337-1.94 6.38 6.38 0 00-2.016-1.315c-.774-.32-1.621-.48-2.542-.48M366.545 467.136h3.331v-15.998h-3.33zM377.018 453.22c.789 0 1.421.19 1.896.57.474.38.713.877.713 1.491v.591a5.074 5.074 0 01-.976.318c-.358.08-.741.12-1.15.12-.717 0-1.279-.138-1.688-.415-.409-.279-.614-.68-.614-1.205v-.045c0-.453.169-.803.504-1.051.336-.25.774-.374 1.315-.374m-1.008-2.3c-.555 0-1.077.077-1.566.23a3.64 3.64 0 00-1.282.69 3.284 3.284 0 00-.866 1.129c-.212.445-.318.96-.318 1.545v.043c0 .644.117 1.198.35 1.667.235.467.56.853.976 1.16a4.36 4.36 0 001.49.69c.577.154 1.216.231 1.917.231.599 0 1.121-.044 1.567-.132.446-.087.88-.204 1.304-.35v.197c0 .7-.211 1.235-.635 1.6-.424.365-1.052.548-1.885.548a7.818 7.818 0 01-1.698-.165c-.49-.11-1.005-.266-1.544-.471l-.834 2.543c.643.277 1.315.504 2.016.678.701.175 1.549.264 2.542.264.92 0 1.706-.114 2.356-.34.65-.227 1.187-.552 1.61-.975.439-.438.76-.976.966-1.611.203-.636.306-1.347.306-2.137v-6.815h-3.222v1.27a4.625 4.625 0 00-1.468-1.084c-.57-.27-1.264-.406-2.082-.406M397.618 450.92c-1.169 0-2.316.2-3.441.602a9.113 9.113 0 00-3.068 1.853l1.994 2.387a9.975 9.975 0 012.158-1.357 5.767 5.767 0 012.422-.505c.702 0 1.246.128 1.632.384.388.255.582.609.582 1.063v.044c0 .219-.04.412-.121.58-.081.167-.235.325-.462.472-.226.145-.542.292-.944.438a16.5 16.5 0 01-1.572.46 19.05 19.05 0 00-2.11.636c-.63.232-1.164.521-1.603.865a3.5 3.5 0 00-1.021 1.281c-.242.512-.363 1.148-.363 1.908v.044c0 .7.13 1.332.391 1.895a4.325 4.325 0 001.1 1.457 4.945 4.945 0 001.69.942c.655.22 1.377.329 2.166.329 1.124 0 2.158-.168 3.101-.504a9.008 9.008 0 002.596-1.447l-1.753-2.542a11.19 11.19 0 01-2.016 1.107 5.158 5.158 0 01-1.972.406c-.658 0-1.151-.129-1.48-.384-.328-.256-.492-.573-.492-.953v-.044c0-.248.047-.464.143-.646.094-.184.267-.347.516-.493.249-.146.59-.286 1.022-.417.431-.13.977-.284 1.636-.46a15.86 15.86 0 002.077-.69c.608-.256 1.12-.563 1.538-.92.418-.36.732-.78.944-1.261.213-.482.32-1.06.32-1.73v-.044c0-.76-.139-1.436-.414-2.028a4.16 4.16 0 00-1.154-1.49 5.194 5.194 0 00-1.767-.92c-.685-.213-1.443-.319-2.275-.319M409.414 450.92c-1.271 0-2.254.386-2.948 1.16-.693.776-1.04 1.843-1.04 3.201v7.604h3.33v-6.537c0-.786.176-1.38.526-1.781.351-.4.847-.6 1.49-.6s1.15.2 1.524.6c.372.4.558.995.558 1.781v6.537h3.331v-11.746h-3.33v1.679c-.19-.25-.398-.49-.626-.717a4.322 4.322 0 00-.755-.607 3.765 3.765 0 00-.92-.42 3.9 3.9 0 00-1.14-.155M425.016 453.747c.395 0 .764.076 1.107.23.343.153.646.372.91.658.262.284.471.624.624 1.018.154.395.23.84.23 1.337v.044c0 .482-.076.924-.23 1.326a3.144 3.144 0 01-.625 1.03 2.735 2.735 0 01-.91.657c-.342.153-.711.23-1.106.23-.394 0-.763-.077-1.106-.23a2.615 2.615 0 01-.898-.658 3.264 3.264 0 01-.615-1.029 3.712 3.712 0 01-.23-1.326v-.044a3.7 3.7 0 01.23-1.325 3.25 3.25 0 01.615-1.03c.255-.286.554-.505.898-.658.343-.154.712-.23 1.106-.23m-6.136 9.138h3.331v-1.687c.41.555.902 1.01 1.48 1.37.577.357 1.304.536 2.18.536.687 0 1.352-.132 1.994-.394a4.938 4.938 0 001.71-1.172c.496-.52.894-1.156 1.193-1.908.3-.752.45-1.618.45-2.596v-.044c0-.979-.15-1.844-.45-2.597-.3-.752-.693-1.389-1.182-1.906a4.814 4.814 0 00-1.699-1.173 5.273 5.273 0 00-2.015-.395c-.893 0-1.626.176-2.203.527-.578.35-1.063.759-1.458 1.226v-5.04h-3.33zM441.022 457.932c-.102.746-.365 1.348-.789 1.808-.423.46-.986.691-1.687.691-.701 0-1.268-.227-1.699-.68-.43-.452-.712-1.06-.843-1.82zm-2.147-7.056c-.877 0-1.691.146-2.443.438a5.655 5.655 0 00-1.95 1.249 5.786 5.786 0 00-1.283 1.917c-.307.738-.46 1.56-.46 2.466v.045c0 .831.142 1.62.427 2.365a5.993 5.993 0 001.194 1.952 5.64 5.64 0 001.83 1.314c.709.321 1.493.482 2.356.482.98 0 1.826-.176 2.542-.525a5.182 5.182 0 001.786-1.414 5.898 5.898 0 001.052-2.038 8.443 8.443 0 00.33-2.817 11.984 11.984 0 00-.034-.46h-8.174c.16-.759.493-1.333.997-1.72s1.128-.58 1.874-.58a3.71 3.71 0 011.49.284c.438.19.89.497 1.358.92l1.907-1.687a5.917 5.917 0 00-2.016-1.61c-.79-.387-1.717-.581-2.783-.581M446.387 462.885h3.33v-2.367c.337.804.797 1.447 1.382 1.929.583.482 1.372.7 2.366.657v-3.484h-.175c-1.11 0-1.984-.336-2.618-1.008-.637-.673-.954-1.718-.954-3.134v-4.34h-3.331zM455.085 462.885h3.331V451.14h-3.331zM466.914 453.747a3.1 3.1 0 011.282.251c.373.169.69.398.953.691.263.292.464.632.602 1.019.14.387.209.8.209 1.237v.045c0 .438-.073.851-.22 1.238a3.121 3.121 0 01-1.621 1.742c-.38.176-.796.263-1.25.263-.481 0-.908-.084-1.282-.252a2.834 2.834 0 01-.952-.69 3.037 3.037 0 01-.603-1.02c-.139-.386-.208-.799-.208-1.237v-.044c0-.438.073-.851.219-1.238a3.13 3.13 0 011.611-1.742 2.92 2.92 0 011.26-.263m-.044-2.87c-.906 0-1.746.155-2.52.47a6.118 6.118 0 00-2.005 1.293 6.026 6.026 0 00-1.326 1.928 5.88 5.88 0 00-.482 2.377v.045c0 .847.16 1.64.482 2.377a6.07 6.07 0 001.336 1.94 6.34 6.34 0 002.017 1.315c.774.32 1.621.482 2.542.482.905 0 1.746-.158 2.52-.47a6.187 6.187 0 002.005-1.294 6.028 6.028 0 001.326-1.929c.321-.738.482-1.53.482-2.377v-.044c0-.847-.16-1.64-.482-2.378a6.08 6.08 0 00-1.337-1.94 6.38 6.38 0 00-2.016-1.315c-.774-.32-1.622-.48-2.542-.48M475.309 462.885h3.33v-2.367c.337.804.797 1.447 1.381 1.929.585.482 1.373.7 2.367.657v-3.484h-.175c-1.111 0-1.983-.336-2.62-1.008-.634-.673-.952-1.718-.952-3.134v-4.34h-3.331zM322.13 430.955c.395 0 .764.077 1.107.23.343.153.643.372.899.658.255.285.46.628.613 1.03.154.402.23.843.23 1.325v.044c0 .483-.076.925-.23 1.327a3.269 3.269 0 01-.613 1.029 2.632 2.632 0 01-.899.657c-.343.154-.712.23-1.107.23-.394 0-.763-.076-1.106-.23a2.735 2.735 0 01-.91-.657 3.165 3.165 0 01-.624-1.019 3.648 3.648 0 01-.23-1.337v-.044c0-.482.076-.923.23-1.325.153-.402.361-.745.624-1.03.263-.286.566-.505.91-.657.343-.154.712-.23 1.106-.23m-.854-2.828a5.22 5.22 0 00-1.995.396 4.923 4.923 0 00-1.709 1.172c-.497.518-.895 1.153-1.194 1.906-.3.752-.45 1.618-.45 2.596v.044c0 .98.15 1.845.45 2.598.299.752.694 1.387 1.184 1.906.489.518 1.055.91 1.697 1.173a5.29 5.29 0 002.017.394c.891 0 1.625-.175 2.202-.526a5.867 5.867 0 001.457-1.227v5.785h3.331v-15.998h-3.33v1.688a5.273 5.273 0 00-1.48-1.37c-.577-.358-1.304-.537-2.18-.537M338.654 435.141c-.103.745-.366 1.347-.79 1.808-.424.46-.985.69-1.687.69-.7 0-1.267-.226-1.698-.679-.43-.452-.712-1.06-.844-1.819zm-2.148-7.056c-.877 0-1.69.146-2.444.438a5.65 5.65 0 00-1.95 1.25 5.775 5.775 0 00-1.282 1.916c-.307.738-.46 1.56-.46 2.466v.044c0 .833.142 1.621.427 2.367a6.006 6.006 0 001.195 1.95 5.614 5.614 0 001.83 1.315c.707.321 1.493.482 2.355.482.979 0 1.826-.175 2.542-.526a5.185 5.185 0 001.786-1.413 5.89 5.89 0 001.053-2.039 8.469 8.469 0 00.328-2.816 14.06 14.06 0 00-.033-.46h-8.174c.16-.76.493-1.333.997-1.72s1.129-.58 1.874-.58a3.71 3.71 0 011.49.284c.438.19.89.497 1.359.92l1.906-1.687a5.917 5.917 0 00-2.016-1.611c-.789-.387-1.717-.58-2.783-.58M358.047 428.085c-1.125 0-2.17.204-3.133.614a7.701 7.701 0 00-2.499 1.676 7.64 7.64 0 00-1.643 2.51 8.08 8.08 0 00-.592 3.089v.044c0 1.096.197 2.122.592 3.08a7.942 7.942 0 001.643 2.52 7.63 7.63 0 002.52 1.709c.979.415 2.06.624 3.244.624.715 0 1.369-.059 1.96-.176a8.105 8.105 0 001.612-.482 7.04 7.04 0 001.337-.745 9.057 9.057 0 001.14-.965l-2.148-2.475a8.086 8.086 0 01-1.83 1.27c-.621.308-1.32.461-2.093.461a4.233 4.233 0 01-3.2-1.403 4.805 4.805 0 01-.92-1.523 5.169 5.169 0 01-.329-1.851v-.044c0-.658.11-1.279.329-1.863.22-.585.522-1.096.909-1.534a4.216 4.216 0 013.21-1.424c.877 0 1.619.16 2.226.482a8.6 8.6 0 011.807 1.315l2.148-2.17a11.153 11.153 0 00-1.228-1.14 7.29 7.29 0 00-1.392-.865 7.229 7.229 0 00-1.654-.548c-.6-.124-1.27-.186-2.016-.186M366.182 440.094h3.33v-11.746h-3.33zM379.963 435.141c-.102.745-.366 1.347-.789 1.808-.423.46-.986.69-1.687.69-.702 0-1.268-.226-1.698-.679-.432-.452-.713-1.06-.844-1.819zm-4.076 9.686h3.155l2.696-3.44h-2.564l-1.731 1.446-1.731-1.446h-2.52zm1.928-16.742c-.876 0-1.69.146-2.443.438a5.642 5.642 0 00-3.233 3.166c-.305.738-.46 1.56-.46 2.466v.044c0 .833.143 1.621.428 2.367a6.02 6.02 0 001.194 1.95 5.608 5.608 0 001.83 1.315c.708.321 1.493.482 2.356.482.979 0 1.826-.175 2.542-.526a5.18 5.18 0 001.786-1.413 5.902 5.902 0 001.052-2.039 8.437 8.437 0 00.329-2.816 11.984 11.984 0 00-.034-.46h-8.174c.16-.76.494-1.333.998-1.72s1.128-.58 1.873-.58a3.71 3.71 0 011.49.284c.439.19.89.497 1.36.92l1.905-1.687a5.914 5.914 0 00-2.015-1.611c-.79-.387-1.717-.58-2.784-.58M385.328 440.094h3.33v-1.68c.19.25.398.49.625.718.227.228.478.43.756.607.277.176.585.316.92.42.336.102.716.154 1.14.154 1.271 0 2.254-.387 2.948-1.161.693-.775 1.04-1.842 1.04-3.2v-7.604h-3.33v6.537c0 .786-.176 1.38-.526 1.78-.351.401-.848.601-1.49.601-.644 0-1.152-.2-1.524-.6-.373-.4-.558-.995-.558-1.781v-6.537h-3.331zM404.21 428.085c-.876 0-1.69.161-2.442.482a5.991 5.991 0 00-1.94 1.303 6.077 6.077 0 00-1.731 4.285v.044c0 .833.153 1.622.46 2.367.307.744.73 1.395 1.27 1.95.542.555 1.188.993 1.94 1.314.753.323 1.582.483 2.487.483 1.11 0 2.031-.175 2.762-.526a6.21 6.21 0 001.928-1.446l-2.038-2.192c-.38.394-.77.709-1.172.942-.402.234-.903.351-1.501.351-.424 0-.808-.084-1.15-.251a2.872 2.872 0 01-.9-.691 3.143 3.143 0 01-.59-1.019 3.64 3.64 0 01-.21-1.24v-.042c0-.453.07-.877.21-1.272.138-.393.339-.737.602-1.029.262-.292.576-.522.942-.69.364-.169.774-.253 1.227-.253.556 0 1.041.113 1.458.34.416.227.828.53 1.237.91l1.952-1.972a7.525 7.525 0 00-1.952-1.546c-.73-.401-1.68-.602-2.848-.602M410.763 440.094h3.331v-11.746h-3.331zM421.196 430.43c.79 0 1.42.19 1.896.57.475.379.712.876.712 1.49v.591a5.106 5.106 0 01-.975.318c-.358.08-.742.12-1.15.12-.717 0-1.28-.139-1.688-.416-.41-.278-.614-.68-.614-1.205v-.044c0-.453.168-.804.504-1.052.336-.248.774-.372 1.315-.372m-1.008-2.301a5.21 5.21 0 00-1.567.23 3.66 3.66 0 00-1.282.69 3.306 3.306 0 00-.866 1.129c-.212.445-.317.96-.317 1.545v.043c0 .643.117 1.199.35 1.666.235.467.56.854.975 1.161.417.307.914.537 1.49.69.577.154 1.217.23 1.918.23.6 0 1.122-.043 1.567-.13a9.89 9.89 0 001.304-.351v.197c0 .701-.212 1.234-.635 1.6-.425.365-1.052.547-1.885.547-.643 0-1.21-.055-1.699-.164-.489-.11-1.004-.266-1.544-.471l-.833 2.542c.643.277 1.315.504 2.016.68.701.175 1.548.262 2.542.262.92 0 1.706-.113 2.356-.34.65-.226 1.187-.551 1.61-.975.439-.438.76-.974.965-1.61.204-.636.307-1.348.307-2.137v-6.815h-3.222v1.27a4.635 4.635 0 00-1.468-1.084c-.57-.27-1.264-.405-2.082-.405M433.66 428.129a8.204 8.204 0 00-5.04 1.775l1.425 2.191a7.911 7.911 0 011.918-1.052c.635-.233 1.23-.35 1.786-.35.48 0 .836.08 1.062.24.227.161.34.373.34.636v.044a.63.63 0 01-.197.46c-.132.132-.31.245-.537.34a8.052 8.052 0 01-.778.274c-.292.087-.599.182-.92.285-.41.116-.822.258-1.238.427a4.402 4.402 0 00-1.13.658c-.336.269-.61.602-.82.996-.213.395-.319.877-.319 1.447v.044c0 .598.113 1.129.34 1.588.227.461.533.851.92 1.173.387.32.84.563 1.36.723.517.16 1.077.241 1.675.241.746 0 1.502-.12 2.269-.361a8.441 8.441 0 002.114-.998l-1.27-2.3c-.585.336-1.155.602-1.71.8-.555.197-1.045.295-1.468.295-.41 0-.716-.076-.92-.23-.206-.154-.307-.347-.307-.58v-.045c0-.16.065-.303.197-.426.131-.126.307-.242.526-.351.219-.11.47-.217.756-.318.285-.103.587-.205.91-.307.409-.132.825-.288 1.248-.472a5.125 5.125 0 001.14-.668c.336-.263.613-.584.833-.964.219-.38.328-.84.328-1.38v-.044c0-.658-.113-1.224-.339-1.698a3.116 3.116 0 00-.955-1.173 4.267 4.267 0 00-1.434-.69 6.525 6.525 0 00-1.764-.23M447.466 443.688h11.55v-3.003h-8.219v-3.111h7.232v-3.003h-7.232v-3.221h8.328v-3.002h-11.659zM461.584 440.094h3.331v-1.68c.19.25.397.49.624.718.227.228.479.43.757.607.277.176.587.316.93.42.344.102.727.154 1.151.154.774 0 1.443-.163 2.005-.486a3.27 3.27 0 001.304-1.39c.511.617 1.081 1.086 1.71 1.401.627.317 1.344.475 2.147.475 1.242 0 2.214-.365 2.915-1.095.701-.732 1.052-1.805 1.052-3.223v-7.647h-3.331v6.537c0 .786-.168 1.38-.504 1.78-.337.401-.819.601-1.446.601-.629 0-1.122-.2-1.48-.6-.358-.4-.537-.995-.537-1.781v-6.537h-3.33v6.537c0 .786-.169 1.38-.505 1.78-.336.401-.818.601-1.446.601s-1.122-.2-1.48-.6c-.358-.4-.536-.995-.536-1.781v-6.537h-3.331zM488.295 430.955c.394 0 .763.077 1.106.23.344.153.647.372.91.658.263.285.47.625.624 1.02.155.393.23.84.23 1.335v.044c0 .483-.075.925-.23 1.327a3.15 3.15 0 01-.624 1.029 2.735 2.735 0 01-.91.657c-.343.154-.712.23-1.106.23-.394 0-.763-.076-1.107-.23a2.632 2.632 0 01-.899-.657 3.269 3.269 0 01-.613-1.03 3.686 3.686 0 01-.23-1.326v-.044c0-.482.076-.923.23-1.325.153-.402.358-.745.613-1.03.256-.286.556-.505.899-.657.344-.154.713-.23 1.107-.23m-6.136 9.138h3.331v-1.688a5.29 5.29 0 001.479 1.37c.577.358 1.304.537 2.18.537.687 0 1.352-.132 1.995-.394a4.95 4.95 0 001.71-1.173c.496-.519.894-1.154 1.193-1.906.3-.753.45-1.619.45-2.598v-.044c0-.978-.15-1.844-.45-2.596-.299-.753-.693-1.388-1.183-1.906a4.809 4.809 0 00-1.698-1.172 5.274 5.274 0 00-2.016-.396c-.892 0-1.625.176-2.203.526-.577.35-1.063.76-1.457 1.227v-5.04h-3.331zM496.66 440.094h3.33v-2.367c.336.803.797 1.446 1.381 1.929.584.482 1.373.701 2.367.657v-3.485h-.175c-1.11 0-1.984-.336-2.62-1.007-.635-.673-.952-1.717-.952-3.134v-4.339h-3.331zM513.11 435.141c-.102.745-.365 1.347-.788 1.808-.424.46-.986.69-1.688.69-.7 0-1.267-.226-1.698-.679-.43-.452-.712-1.06-.844-1.819zm-2.147-7.056c-.876 0-1.69.146-2.444.438a5.65 5.65 0 00-1.95 1.25 5.775 5.775 0 00-1.282 1.916c-.306.738-.46 1.56-.46 2.466v.044c0 .833.142 1.621.427 2.367a6.006 6.006 0 001.195 1.95 5.614 5.614 0 001.83 1.315c.707.321 1.493.482 2.355.482.979 0 1.826-.175 2.542-.526a5.185 5.185 0 001.786-1.413 5.89 5.89 0 001.053-2.039 8.469 8.469 0 00.328-2.816 14.06 14.06 0 00-.033-.46h-8.174c.16-.76.493-1.333.997-1.72s1.129-.58 1.874-.58a3.71 3.71 0 011.49.284c.438.19.89.497 1.359.92l1.906-1.687a5.917 5.917 0 00-2.016-1.611c-.789-.387-1.717-.58-2.783-.58M522.503 428.129a8.204 8.204 0 00-5.04 1.775l1.424 2.191a7.911 7.911 0 011.918-1.052c.635-.233 1.23-.35 1.786-.35.482 0 .836.08 1.062.24.226.161.34.373.34.636v.044a.63.63 0 01-.197.46c-.131.132-.31.245-.537.34a7.947 7.947 0 01-.778.274c-.293.087-.6.182-.92.285-.41.116-.822.258-1.238.427a4.387 4.387 0 00-1.129.658c-.337.269-.61.602-.822.996-.212.395-.318.877-.318 1.447v.044c0 .598.114 1.129.34 1.588.226.461.533.851.92 1.173.388.32.84.563 1.359.723.519.16 1.077.241 1.677.241.745 0 1.5-.12 2.267-.361a8.447 8.447 0 002.116-.998l-1.272-2.3c-.584.336-1.154.602-1.709.8-.556.197-1.045.295-1.468.295-.41 0-.716-.076-.92-.23-.206-.154-.307-.347-.307-.58v-.045c0-.16.065-.303.197-.426.131-.126.307-.242.526-.351.219-.11.47-.217.755-.318.285-.103.589-.205.91-.307.409-.132.825-.288 1.25-.472a5.145 5.145 0 001.139-.668c.336-.263.614-.584.833-.964.219-.38.328-.84.328-1.38v-.044c0-.658-.113-1.224-.34-1.698a3.12 3.12 0 00-.952-1.173 4.284 4.284 0 00-1.436-.69 6.518 6.518 0 00-1.764-.23M533.407 430.43c.789 0 1.421.19 1.896.57.474.379.713.876.713 1.49v.591a5.135 5.135 0 01-2.127.438c-.716 0-1.278-.139-1.687-.416-.41-.278-.614-.68-.614-1.205v-.044c0-.453.168-.804.504-1.052.336-.248.774-.372 1.315-.372m-1.008-2.301c-.555 0-1.077.077-1.566.23-.49.153-.917.383-1.282.69a3.295 3.295 0 00-.866 1.129c-.212.445-.318.96-.318 1.545v.043c0 .643.117 1.199.35 1.666.234.467.56.854.976 1.161.416.307.913.537 1.49.69.577.154 1.216.23 1.917.23.599 0 1.121-.043 1.567-.13a9.89 9.89 0 001.304-.351v.197c0 .701-.211 1.234-.635 1.6-.424.365-1.052.547-1.885.547a7.818 7.818 0 01-1.698-.164c-.49-.11-1.005-.266-1.545-.471l-.833 2.542a13.16 13.16 0 002.016.68c.701.175 1.549.262 2.542.262.92 0 1.706-.113 2.356-.34.65-.226 1.187-.551 1.61-.975.439-.438.76-.974.966-1.61.203-.636.306-1.348.306-2.137v-6.815h-3.222v1.27a4.631 4.631 0 00-1.467-1.084c-.57-.27-1.265-.405-2.083-.405M541.785 440.094h3.331v-2.367c.336.803.796 1.446 1.38 1.929.585.482 1.373.701 2.367.657v-3.485h-.175c-1.11 0-1.984-.336-2.618-1.007-.636-.673-.954-1.717-.954-3.134v-4.339h-3.33zM550.483 440.094h3.331v-11.746h-3.331zM560.916 430.43c.789 0 1.42.19 1.896.57.474.379.712.876.712 1.49v.591a5.106 5.106 0 01-.975.318c-.359.08-.742.12-1.15.12-.717 0-1.28-.139-1.688-.416-.41-.278-.614-.68-.614-1.205v-.044c0-.453.168-.804.504-1.052.336-.248.774-.372 1.315-.372m-1.008-2.301c-.556 0-1.077.077-1.567.23-.49.153-.916.383-1.282.69a3.293 3.293 0 00-.865 1.129c-.212.445-.318.96-.318 1.545v.043c0 .643.116 1.199.35 1.666.234.467.56.854.976 1.161.416.307.912.537 1.49.69.577.154 1.216.23 1.917.23.599 0 1.121-.043 1.567-.13a9.853 9.853 0 001.304-.351v.197c0 .701-.212 1.234-.636 1.6-.424.365-1.051.547-1.884.547a7.818 7.818 0 01-1.698-.164c-.49-.11-1.006-.266-1.546-.471l-.832 2.542c.642.277 1.315.504 2.016.68.701.175 1.548.262 2.542.262.92 0 1.706-.113 2.356-.34.65-.226 1.187-.551 1.61-.975.439-.438.76-.974.965-1.61.204-.636.306-1.348.306-2.137v-6.815h-3.221v1.27a4.635 4.635 0 00-1.468-1.084c-.57-.27-1.264-.405-2.082-.405M569.335 440.094h3.331v-11.746h-3.33zM579.573 428.129a8.208 8.208 0 00-5.04 1.775l1.425 2.191a7.927 7.927 0 011.917-1.052c.636-.233 1.23-.35 1.786-.35.482 0 .836.08 1.062.24.227.161.34.373.34.636v.044a.63.63 0 01-.197.46c-.131.132-.31.245-.537.34a7.947 7.947 0 01-.778.274c-.291.087-.598.182-.92.285-.41.116-.822.258-1.238.427a4.402 4.402 0 00-1.129.658c-.336.269-.61.602-.822.996-.212.395-.317.877-.317 1.447v.044c0 .598.113 1.129.34 1.588.226.461.533.851.92 1.173.387.32.84.563 1.358.723.519.16 1.078.241 1.677.241.745 0 1.502-.12 2.269-.361a8.441 8.441 0 002.114-.998l-1.271-2.3c-.585.336-1.155.602-1.71.8-.554.197-1.044.295-1.468.295-.41 0-.716-.076-.92-.23-.204-.154-.307-.347-.307-.58v-.045c0-.16.066-.303.197-.426.132-.126.307-.242.526-.351.22-.11.47-.217.757-.318.284-.103.587-.205.909-.307.41-.132.825-.288 1.249-.472a5.125 5.125 0 001.14-.668c.335-.263.613-.584.832-.964.22-.38.329-.84.329-1.38v-.044c0-.658-.113-1.224-.34-1.698a3.12 3.12 0 00-.953-1.173 4.28 4.28 0 00-1.435-.69 6.525 6.525 0 00-1.765-.23M456.75 464.057c-1.04 0-1.91.87-1.91 1.912 0 1.041.87 1.912 1.91 1.912a1.93 1.93 0 001.91-1.912 1.93 1.93 0 00-1.91-1.912M367.847 441.266c-1.04 0-1.91.87-1.91 1.912 0 1.041.87 1.912 1.91 1.912s1.91-.87 1.91-1.912a1.93 1.93 0 00-1.91-1.912M412.428 441.266c-1.04 0-1.909.87-1.909 1.912a1.93 1.93 0 001.91 1.912c1.04 0 1.909-.87 1.909-1.912a1.93 1.93 0 00-1.91-1.912M552.148 441.266c-1.04 0-1.91.87-1.91 1.912a1.93 1.93 0 001.91 1.912c1.04 0 1.91-.87 1.91-1.912a1.93 1.93 0 00-1.91-1.912M571 441.266c-1.039 0-1.908.87-1.908 1.912A1.93 1.93 0 00571 445.09c1.04 0 1.909-.87 1.909-1.912a1.93 1.93 0 00-1.91-1.912"/><g><path d="M85.04 524.669h671.81" fill="#fff" stroke="#000" stroke-miterlimit="10"/></g><g><path d="M85.04 280.648h671.81" fill="#fff" stroke="#000" stroke-miterlimit="10"/></g><g><path d="M85.43 519.998h.88l2.49-6.03 2.5 6.03h.85l-3.01-7.05h-.7z" fill="#231f20"/></g><g><path d="M97.19 515.898c-.02.231-.07.452-.15.661-.08.208-.19.393-.326.552a1.5 1.5 0 01-.5.378 1.563 1.563 0 01-.675.138c-.22 0-.427-.042-.62-.128a1.558 1.558 0 01-.51-.364 1.995 1.995 0 01-.365-.55 2.195 2.195 0 01-.185-.687zm-3.33-.63c.025-.274.092-.517.2-.73a1.74 1.74 0 01.97-.875 1.82 1.82 0 01.65-.116c.36 0 .667.067.924.201.257.132.492.31.706.53l.48-.43a3.179 3.179 0 00-.89-.706c-.335-.176-.748-.265-1.24-.265a2.58 2.58 0 00-1 .196 2.45 2.45 0 00-.82.55 2.595 2.595 0 00-.555.855 2.862 2.862 0 00-.205 1.1c0 .373.06.724.185 1.054.123.33.295.618.515.861.22.243.48.434.785.575.303.14.635.21.995.21.38 0 .72-.072 1.02-.215.3-.144.553-.339.76-.585a2.57 2.57 0 00.47-.87c.107-.334.16-.69.16-1.07v-.116c0-.043-.004-.094-.01-.155z" fill="#231f20"/></g><g><path d="M99.32 518.168h.77v-1.35c.092.213.21.411.35.59.14.18.3.335.48.465a2.028 2.028 0 001.28.385v-.83h-.06c-.28 0-.546-.05-.796-.15-.25-.1-.469-.25-.655-.45a2.13 2.13 0 01-.44-.745 3.018 3.018 0 01-.16-1.025v-2.06h-.77z" fill="#231f20"/></g><g><path d="M105.08 512.898c-.374 0-.75.068-1.13.205-.38.136-.718.321-1.01.555l.39.55c.28-.214.571-.377.874-.49.303-.114.608-.17.915-.17.314 0 .57.073.77.22.2.147.3.346.3.6v.02a.531.531 0 01-.105.33.935.935 0 01-.285.244c-.12.071-.258.132-.415.186a8.913 8.913 0 01-.485.15c-.2.06-.402.124-.605.195-.203.07-.386.158-.55.264a1.353 1.353 0 00-.4.401c-.103.16-.155.36-.155.6v.02a1.365 1.365 0 00.495 1.075c.157.13.343.23.56.3.217.07.452.104.705.104.32 0 .643-.05.97-.154.327-.103.623-.242.89-.415l-.35-.58c-.24.153-.492.274-.755.364a2.358 2.358 0 01-.775.136c-.307 0-.55-.072-.73-.216a.655.655 0 01-.27-.534v-.02c0-.12.037-.225.11-.315a.943.943 0 01.295-.235c.123-.067.265-.127.425-.18.16-.054.327-.107.5-.16.2-.06.4-.127.595-.2.197-.074.375-.167.535-.28.16-.114.29-.25.385-.41.097-.16.145-.357.145-.59v-.02a1.42 1.42 0 00-.535-1.14 1.743 1.743 0 00-.58-.306 2.411 2.411 0 00-.725-.104" fill="#231f20"/></g><g><path d="M108.78 518.988c.1.38.222.65.37.81.145.16.34.24.58.24.112 0 .23-.022.35-.066.12-.043.24-.089.36-.139.12-.05.232-.095.34-.135a.834.834 0 01.29-.06c.132 0 .234.037.304.11.07.073.141.2.215.38l.47-.13c-.1-.38-.224-.65-.37-.81a.75.75 0 00-.58-.24c-.114 0-.23.02-.35.06-.12.04-.24.084-.36.134-.12.051-.234.097-.34.141a.787.787 0 01-.29.064c-.134 0-.235-.036-.305-.109-.07-.073-.142-.2-.215-.38zm1.265-5.47c.24 0 .461.033.667.1.206.065.387.16.544.283.156.123.28.27.368.438.09.17.135.356.135.562v.478a9.124 9.124 0 01-.658.15 4.555 4.555 0 01-.847.068c-.478 0-.849-.094-1.112-.283a.882.882 0 01-.393-.75v-.02c0-.16.035-.305.105-.434a.928.928 0 01.284-.323c.12-.087.257-.153.413-.199.156-.047.321-.07.494-.07m-.156-.63c-.24 0-.477.034-.71.1-.233.066-.44.168-.62.305a1.57 1.57 0 00-.435.505c-.11.2-.165.433-.165.7v.02c0 .28.053.525.16.735.106.21.258.384.455.525.196.14.43.246.7.32.27.073.568.11.895.11.333 0 .621-.02.865-.06a6.55 6.55 0 00.715-.16v.158c0 .457-.134.804-.4 1.04-.267.234-.644.352-1.13.352-.307 0-.585-.033-.835-.1a4.392 4.392 0 01-.735-.27l-.23.633c.286.135.576.244.87.325.293.081.63.122 1.01.122.733 0 1.29-.19 1.67-.57.36-.36.54-.867.54-1.52v-3.16h-.76v.77a2.48 2.48 0 00-.725-.615c-.304-.177-.682-.266-1.135-.266" fill="#231f20"/></g><g><path d="M116.519 513.568c.28 0 .537.053.77.16a1.876 1.876 0 01.99 1.06c.093.24.14.496.14.77v.02c0 .28-.048.541-.145.785a1.953 1.953 0 01-1.015 1.075 1.8 1.8 0 01-.76.16 1.823 1.823 0 01-1.365-.59 1.988 1.988 0 01-.385-.635 2.154 2.154 0 01-.14-.776v-.019c0-.28.048-.542.145-.785a1.93 1.93 0 011.005-1.065 1.8 1.8 0 01.76-.16m-.02-.69a2.655 2.655 0 00-2.68 2.68v.02c0 .366.067.713.2 1.04.133.326.32.613.56.86a2.659 2.659 0 001.94.8 2.673 2.673 0 002.49-1.646c.133-.323.2-.668.2-1.035v-.019c0-.367-.068-.714-.205-1.04a2.743 2.743 0 00-.565-.86 2.664 2.664 0 00-.86-.586 2.725 2.725 0 00-1.08-.214" fill="#231f20"/></g><g><path d="M123.599 520.298h.77v-3.03c.173.28.4.518.68.716.28.196.643.294 1.09.294.313 0 .592-.05.835-.15.243-.1.45-.241.62-.425.17-.183.3-.401.39-.655.09-.253.135-.533.135-.84v-3.21h-.77v3.014c0 .478-.123.857-.37 1.138-.247.279-.6.419-1.06.419-.22 0-.425-.04-.615-.116a1.426 1.426 0 01-.495-.33 1.488 1.488 0 01-.325-.513 1.813 1.813 0 01-.115-.66v-2.952h-.77z" fill="#231f20"/></g><g><path d="M132.139 513.568c.28 0 .537.053.77.16a1.876 1.876 0 01.99 1.06c.093.24.14.496.14.77v.02c0 .28-.048.541-.145.785a1.953 1.953 0 01-1.015 1.075 1.8 1.8 0 01-.76.16 1.823 1.823 0 01-1.365-.59 1.97 1.97 0 01-.385-.635 2.133 2.133 0 01-.14-.776v-.019c0-.28.048-.542.145-.785a1.93 1.93 0 011.005-1.065 1.8 1.8 0 01.76-.16m-.02-.69a2.655 2.655 0 00-2.68 2.68v.02a2.716 2.716 0 00.76 1.9 2.659 2.659 0 001.94.8 2.677 2.677 0 001.93-.795c.24-.244.427-.527.56-.85.133-.324.2-.669.2-1.036v-.019c0-.367-.068-.714-.205-1.04a2.743 2.743 0 00-.565-.86 2.664 2.664 0 00-.86-.586 2.728 2.728 0 00-1.08-.214" fill="#231f20"/></g><g><path d="M136.219 518.168h.77v-1.35c.093.213.21.411.35.59.14.18.3.335.48.465a2.028 2.028 0 001.28.385v-.83h-.06c-.28 0-.545-.05-.795-.15-.25-.1-.468-.25-.655-.45a2.146 2.146 0 01-.44-.745 3.018 3.018 0 01-.16-1.025v-2.06h-.77z" fill="#231f20"/></g><path d="M140.339 518.168h.77v-5.17h-.77zm-.05 1.98h.88v-.851h-.88z" fill="#231f20"/><g><path d="M142.599 513.488l3.43 4.03h-3.31v.65h4.36v-.49l-3.44-4.03h3.44v-.65h-4.48z" fill="#231f20"/></g><g><path d="M150.839 513.568c.28 0 .537.053.77.16a1.876 1.876 0 01.99 1.06c.093.24.14.496.14.77v.02c0 .28-.048.541-.145.785a1.953 1.953 0 01-1.015 1.075 1.8 1.8 0 01-.76.16 1.823 1.823 0 01-1.365-.59 1.988 1.988 0 01-.385-.635 2.154 2.154 0 01-.14-.776v-.019c0-.28.048-.542.145-.785a1.93 1.93 0 011.005-1.065 1.8 1.8 0 01.76-.16m-.02-.69a2.655 2.655 0 00-2.68 2.68v.02c0 .366.067.713.2 1.04.133.326.32.613.56.86a2.659 2.659 0 001.94.8 2.673 2.673 0 002.49-1.646c.133-.323.2-.668.2-1.035v-.019c0-.367-.068-.714-.205-1.04a2.743 2.743 0 00-.565-.86 2.664 2.664 0 00-.86-.586 2.725 2.725 0 00-1.08-.214" fill="#231f20"/></g><g><path d="M154.919 518.168h.77v-.9c.173.28.4.518.68.715.28.197.643.295 1.09.295.313 0 .59-.049.835-.15.243-.1.45-.241.62-.425.17-.183.3-.401.39-.655.09-.253.135-.533.135-.84v-3.21h-.77v3.014c0 .478-.124.857-.37 1.137-.247.28-.6.419-1.06.419-.22 0-.425-.039-.615-.115a1.426 1.426 0 01-.495-.329 1.473 1.473 0 01-.325-.514 1.817 1.817 0 01-.115-.659v-2.953h-.77z" fill="#231f20"/></g><g><path d="M162.809 512.908c-.207 0-.4.026-.58.08-.18.053-.335.138-.465.255-.13.116-.232.27-.305.455a1.84 1.84 0 00-.11.67v3.12h-.72v.68h.72v1.56h.77v-1.56h1.64v-.68h-1.64v-3.013c0-.319.08-.542.24-.668.16-.126.37-.189.63-.189a1.627 1.627 0 01.75.17v-.66a1.712 1.712 0 00-.425-.165 2.164 2.164 0 00-.505-.055" fill="#231f20"/></g><g><path d="M166.815 513.518c.239 0 .462.033.667.1.207.066.388.16.544.284.156.123.279.268.369.437.089.169.134.357.134.563v.477a8.588 8.588 0 01-.658.15 4.547 4.547 0 01-.847.069c-.478 0-.85-.095-1.111-.283a.883.883 0 01-.394-.751v-.021a.92.92 0 01.389-.755c.119-.087.257-.154.414-.2.155-.047.32-.07.492-.07m-.156-.63c-.24 0-.476.034-.71.1a1.86 1.86 0 00-.62.305 1.59 1.59 0 00-.435.505c-.11.2-.165.434-.165.7v.02c0 .28.054.525.16.735.107.21.26.385.455.526.197.139.43.246.7.319.27.073.568.11.895.11.334 0 .622-.02.865-.06.243-.04.482-.093.715-.16v.159c0 .457-.133.804-.4 1.039-.266.234-.643.353-1.13.353-.306 0-.585-.034-.835-.1a4.31 4.31 0 01-.735-.271l-.23.634c.287.135.577.243.87.324.294.08.63.122 1.01.122.734 0 1.29-.19 1.67-.57.36-.36.54-.866.54-1.52v-3.16h-.76v.77a2.48 2.48 0 00-.725-.614c-.303-.177-.682-.266-1.135-.266" fill="#231f20"/></g><path d="M170.979 520.298h.77v-7.3h-.77z" fill="#231f20"/><g><path d="M88.5 499.588c-.894.5-1.58 1.106-2.06 1.82-.48.713-.72 1.534-.72 2.46 0 .927.24 1.746.72 2.46.48.713 1.166 1.32 2.06 1.82l.33-.51c-.768-.487-1.346-1.034-1.736-1.645-.39-.61-.585-1.318-.585-2.125 0-.806.195-1.514.585-2.125.39-.61.968-1.158 1.735-1.645z" fill="#231f20"/></g><g><path d="M92.894 504.178c.288 0 .55.037.787.11.237.075.44.179.612.317.17.136.3.299.39.486.09.188.136.399.136.632v.02c0 .5-.172.88-.516 1.139-.344.258-.801.386-1.37.386H91.16v-3.09zm-2.525 3.82h2.62c.394 0 .752-.051 1.075-.155.324-.103.6-.25.83-.44.23-.19.407-.421.53-.695a2.24 2.24 0 00.185-.93v-.02c0-.38-.073-.712-.22-.995a2.123 2.123 0 00-.595-.715 2.582 2.582 0 00-.875-.434 3.77 3.77 0 00-1.06-.146h-1.7v-2.47h-.79z" fill="#231f20"/></g><g><path d="M96.919 506.168h.77v-1.35c.093.213.21.411.35.59.14.18.3.335.48.465a2.028 2.028 0 001.28.385v-.83h-.06c-.28 0-.545-.05-.795-.15-.25-.1-.468-.25-.655-.45a2.146 2.146 0 01-.44-.745 3.018 3.018 0 01-.16-1.025v-2.06h-.77z" fill="#231f20"/></g><path d="M101.039 506.168h.77v-5.17h-.77zm-.05 1.98h.88v-.851h-.88z" fill="#231f20"/><g><path d="M103.6 506.168h.77v-.9c.172.28.4.518.68.715.28.197.642.295 1.09.295.312 0 .59-.049.834-.15.243-.1.45-.241.62-.425.17-.183.3-.401.39-.655.09-.253.135-.533.135-.84v-3.21h-.77v3.014c0 .478-.124.857-.37 1.137-.247.28-.6.419-1.06.419-.22 0-.425-.039-.615-.115a1.426 1.426 0 01-.495-.329 1.473 1.473 0 01-.325-.514 1.817 1.817 0 01-.115-.659v-2.953h-.77z" fill="#231f20"/></g><g><path d="M112.089 500.878c-.38 0-.732.072-1.055.215a2.63 2.63 0 00-1.395 1.435c-.133.327-.2.67-.2 1.03v.02a2.735 2.735 0 00.755 1.9 2.594 2.594 0 001.895.799c.247 0 .47-.022.67-.07a2.48 2.48 0 001.01-.49c.14-.112.27-.233.39-.36l-.51-.54a3.629 3.629 0 01-.675.55c-.243.155-.542.23-.895.23-.26 0-.503-.051-.73-.154a1.825 1.825 0 01-.59-.425 1.945 1.945 0 01-.39-.635 2.18 2.18 0 01-.14-.785v-.02c0-.28.048-.542.145-.785.097-.243.23-.457.4-.64s.37-.327.6-.43c.23-.104.482-.155.755-.155.333 0 .628.074.885.22.257.147.488.33.695.55l.49-.46a3.456 3.456 0 00-.885-.72c-.33-.186-.738-.28-1.225-.28" fill="#231f20"/></g><path d="M115.539 506.168h.77v-5.17h-.77zm-.05 1.98h.88v-.851h-.88z" fill="#231f20"/><g><path d="M120.709 501.578c.247 0 .482.045.705.135.223.09.417.22.58.39.163.17.293.378.39.625.097.246.145.527.145.84v.02c0 .306-.048.583-.145.83a1.886 1.886 0 01-.395.63 1.743 1.743 0 01-1.28.54c-.24 0-.472-.048-.695-.145a1.964 1.964 0 01-1.02-1.04 2.048 2.048 0 01-.155-.805v-.02c0-.3.052-.573.155-.82a1.901 1.901 0 011.02-1.035c.223-.097.455-.145.695-.145m-2.61 4.59h.77v-1.04c.107.153.225.3.355.44a2.225 2.225 0 00.97.614c.197.064.415.096.655.096.307 0 .608-.06.905-.18.297-.12.562-.295.795-.525.233-.23.42-.51.56-.84.14-.33.21-.709.21-1.135v-.02c0-.42-.07-.797-.21-1.13a2.598 2.598 0 00-.555-.845 2.414 2.414 0 00-2.365-.625 2.213 2.213 0 00-.975.59c-.13.133-.245.274-.345.42v-2.59h-.77z" fill="#231f20"/></g><g><path d="M126.434 501.518c.24 0 .462.033.668.1.206.066.387.16.543.284.156.123.28.268.37.437.088.169.133.357.133.563v.477a8.588 8.588 0 01-.658.15 4.547 4.547 0 01-.847.069c-.478 0-.848-.095-1.11-.283a.883.883 0 01-.395-.751v-.021a.89.89 0 01.105-.432.93.93 0 01.284-.323c.12-.087.257-.154.414-.2.156-.047.32-.07.493-.07m-.156-.63c-.24 0-.476.034-.71.1a1.86 1.86 0 00-.62.305 1.59 1.59 0 00-.435.505c-.11.2-.165.434-.165.7v.02c0 .28.054.525.16.735.107.21.26.385.455.526.197.139.43.246.7.319.27.073.57.11.895.11.334 0 .622-.02.866-.06.243-.04.481-.093.714-.16v.159c0 .457-.133.804-.4 1.039-.266.234-.643.353-1.13.353-.306 0-.585-.034-.835-.1a4.31 4.31 0 01-.735-.271l-.23.634c.287.135.577.243.87.324.294.08.63.122 1.01.122.734 0 1.29-.19 1.67-.57.36-.36.54-.866.54-1.52v-3.16h-.76v.77a2.48 2.48 0 00-.725-.614c-.303-.177-.68-.266-1.135-.266" fill="#231f20"/></g><path d="M130.599 508.298h.77v-7.3h-.77z" fill="#231f20"/><g><path d="M132.858 500.098c.767.487 1.345 1.035 1.735 1.646.39.61.585 1.318.585 2.125 0 .806-.195 1.514-.585 2.125-.39.61-.968 1.158-1.735 1.644l.33.51c.893-.5 1.58-1.107 2.06-1.82.48-.713.72-1.533.72-2.46 0-.926-.24-1.747-.72-2.46-.48-.713-1.167-1.32-2.06-1.82z" fill="#231f20"/></g><g><path d="M85.43 276.2h.88l2.49-6.03 2.5 6.03h.85l-3.01-7.05h-.7z" fill="#231f20"/></g><g><path d="M97.19 272.1c-.02.23-.07.452-.15.66-.08.209-.19.394-.326.553a1.5 1.5 0 01-.5.378 1.563 1.563 0 01-.675.138c-.22 0-.427-.042-.62-.128a1.558 1.558 0 01-.51-.364 1.995 1.995 0 01-.365-.551 2.195 2.195 0 01-.185-.686zm-3.33-.631c.025-.273.092-.516.2-.73a1.74 1.74 0 01.97-.874 1.82 1.82 0 01.65-.116c.36 0 .667.067.924.2s.492.31.706.53l.48-.43a3.179 3.179 0 00-.89-.705c-.335-.176-.748-.265-1.24-.265a2.58 2.58 0 00-1 .196 2.45 2.45 0 00-.82.55 2.595 2.595 0 00-.555.855 2.862 2.862 0 00-.205 1.1c0 .373.06.724.185 1.054.123.33.295.618.515.86.22.244.48.435.785.576.303.14.635.21.995.21.38 0 .72-.072 1.02-.215.3-.144.553-.34.76-.585a2.57 2.57 0 00.47-.87c.107-.334.16-.69.16-1.07v-.116c0-.043-.004-.094-.01-.155z" fill="#231f20"/></g><g><path d="M99.32 274.37h.77v-1.35c.092.212.21.41.35.59.14.18.3.334.48.464a2.028 2.028 0 001.28.385v-.83h-.06c-.28 0-.546-.05-.796-.15-.25-.1-.469-.25-.655-.45a2.13 2.13 0 01-.44-.745 3.018 3.018 0 01-.16-1.025v-2.06h-.77z" fill="#231f20"/></g><g><path d="M105.08 269.1c-.374 0-.75.068-1.13.205-.38.136-.718.32-1.01.555l.39.55c.28-.214.571-.377.874-.491.303-.113.608-.17.915-.17.314 0 .57.074.77.22.2.148.3.347.3.6v.02a.531.531 0 01-.105.33.935.935 0 01-.285.245c-.12.07-.258.132-.415.186a8.913 8.913 0 01-.485.149c-.2.06-.402.125-.605.196-.203.07-.386.158-.55.264a1.353 1.353 0 00-.4.4c-.103.16-.155.36-.155.6v.02a1.365 1.365 0 00.495 1.075c.157.13.343.23.56.3.217.07.452.105.705.105.32 0 .643-.051.97-.154.327-.103.623-.242.89-.415l-.35-.58c-.24.153-.492.274-.755.364a2.358 2.358 0 01-.775.136c-.307 0-.55-.072-.73-.216a.655.655 0 01-.27-.534v-.021c0-.12.037-.224.11-.314a.943.943 0 01.295-.235c.123-.067.265-.127.425-.18.16-.054.327-.107.5-.16.2-.061.4-.127.595-.2.197-.074.375-.167.535-.281.16-.113.29-.25.385-.41.097-.16.145-.356.145-.59v-.02a1.42 1.42 0 00-.535-1.14 1.743 1.743 0 00-.58-.305 2.411 2.411 0 00-.725-.104" fill="#231f20"/></g><g><path d="M108.78 275.19c.1.38.222.649.37.81.145.16.34.24.58.24.112 0 .23-.022.35-.066.12-.043.24-.09.36-.14.12-.05.232-.094.34-.134a.834.834 0 01.29-.061c.132 0 .234.038.304.11.07.074.141.2.215.38l.47-.13c-.1-.38-.224-.65-.37-.81a.75.75 0 00-.58-.24c-.114 0-.23.02-.35.06-.12.04-.24.085-.36.135l-.34.14a.787.787 0 01-.29.065c-.134 0-.235-.036-.305-.11-.07-.072-.142-.2-.215-.38zm1.265-5.471c.24 0 .461.034.667.1.206.066.387.16.544.284.156.123.28.269.368.438.09.169.135.356.135.562v.478a9.124 9.124 0 01-.658.149 4.555 4.555 0 01-.847.069c-.478 0-.849-.094-1.112-.283a.882.882 0 01-.393-.751v-.02c0-.16.035-.304.105-.433a.928.928 0 01.284-.323c.12-.087.257-.153.413-.2.156-.046.321-.07.494-.07m-.156-.63c-.24 0-.477.035-.71.1-.233.067-.44.169-.62.306a1.57 1.57 0 00-.435.505c-.11.2-.165.433-.165.7v.019c0 .28.053.526.16.736.106.21.258.384.455.525.196.14.43.246.7.319.27.074.568.11.895.11.333 0 .621-.02.865-.06a6.55 6.55 0 00.715-.16v.158c0 .458-.134.805-.4 1.04-.267.235-.644.353-1.13.353-.307 0-.585-.033-.835-.1a4.392 4.392 0 01-.735-.27l-.23.633c.286.135.576.244.87.325.293.08.63.122 1.01.122.733 0 1.29-.191 1.67-.571.36-.36.54-.867.54-1.52v-3.16h-.76v.77a2.48 2.48 0 00-.725-.615c-.304-.177-.682-.266-1.135-.266" fill="#231f20"/></g><g><path d="M116.519 269.77c.28 0 .537.053.77.16a1.876 1.876 0 01.99 1.06c.093.24.14.496.14.769v.02c0 .28-.048.542-.145.786a1.953 1.953 0 01-1.015 1.075 1.8 1.8 0 01-.76.159 1.823 1.823 0 01-1.365-.59 1.988 1.988 0 01-.385-.634 2.154 2.154 0 01-.14-.776v-.02c0-.28.048-.541.145-.784a1.93 1.93 0 011.005-1.065 1.8 1.8 0 01.76-.16m-.02-.69a2.655 2.655 0 00-2.68 2.678v.021c0 .366.067.713.2 1.04.133.326.32.613.56.86a2.659 2.659 0 001.94.8 2.673 2.673 0 002.49-1.645c.133-.323.2-.668.2-1.035v-.02c0-.367-.068-.714-.205-1.04a2.743 2.743 0 00-.565-.86 2.664 2.664 0 00-.86-.586 2.725 2.725 0 00-1.08-.214" fill="#231f20"/></g><g><path d="M123.089 274.37h.85l1.74-4.29 1.75 4.29h.83l-2.25-5.21h-.68z" fill="#231f20"/></g><g><path d="M133.259 272.1c-.02.23-.07.452-.15.66-.08.209-.188.394-.325.553a1.49 1.49 0 01-.5.378 1.563 1.563 0 01-.675.138c-.22 0-.427-.042-.62-.128a1.58 1.58 0 01-.51-.364 2.018 2.018 0 01-.365-.551 2.223 2.223 0 01-.185-.686zm-3.33-.631c.027-.273.093-.516.2-.73a1.74 1.74 0 01.97-.874 1.82 1.82 0 01.65-.116c.36 0 .668.067.925.2.256.133.49.31.705.53l.48-.43a3.179 3.179 0 00-.89-.705c-.334-.176-.747-.265-1.24-.265-.353 0-.687.066-1 .196a2.45 2.45 0 00-.82.55 2.595 2.595 0 00-.555.855 2.862 2.862 0 00-.205 1.1c0 .373.062.724.185 1.054.123.33.295.618.515.86.22.244.482.435.785.576.303.14.635.21.995.21.38 0 .72-.072 1.02-.215.3-.144.553-.34.76-.585a2.57 2.57 0 00.47-.87c.107-.334.16-.69.16-1.07v-.116c0-.043-.004-.094-.01-.155z" fill="#231f20"/></g><g><path d="M135.389 274.37h.77v-1.35c.093.212.21.41.35.59.14.18.3.334.48.464a2.028 2.028 0 001.28.385v-.83h-.06c-.28 0-.545-.05-.795-.15-.25-.1-.468-.25-.655-.45a2.13 2.13 0 01-.44-.745 3.018 3.018 0 01-.16-1.025v-2.06h-.77z" fill="#231f20"/></g><g><path d="M141.168 269.11c-.207 0-.4.025-.58.08-.18.052-.335.137-.465.254-.13.116-.232.27-.305.455a1.84 1.84 0 00-.11.67v3.12h-.72v.68h.72v1.56h.77v-1.56h1.64v-.68h-1.64v-3.013c0-.319.08-.542.24-.668.16-.126.37-.189.63-.189a1.627 1.627 0 01.75.17v-.66a1.712 1.712 0 00-.425-.165 2.164 2.164 0 00-.505-.055" fill="#231f20"/></g><path d="M143.549 274.369h.77v-5.17h-.77zm-.05 1.981h.88v-.851h-.88z" fill="#231f20"/><g><path d="M148.439 269.08c-.38 0-.732.071-1.055.214a2.63 2.63 0 00-1.395 1.435c-.134.327-.2.67-.2 1.03v.02a2.735 2.735 0 00.755 1.901 2.594 2.594 0 001.895.799c.247 0 .47-.023.67-.07a2.48 2.48 0 001.01-.49c.14-.113.27-.234.39-.36l-.51-.54a3.662 3.662 0 01-.675.55c-.244.154-.543.23-.896.23-.26 0-.504-.052-.73-.155a1.814 1.814 0 01-.59-.425 1.945 1.945 0 01-.39-.635 2.18 2.18 0 01-.14-.785v-.02c0-.28.049-.542.146-.785.096-.243.23-.457.4-.64s.37-.327.6-.43c.23-.104.482-.155.755-.155.333 0 .628.074.885.22.257.147.488.33.695.55l.49-.46a3.456 3.456 0 00-.885-.72c-.33-.186-.74-.28-1.225-.28" fill="#231f20"/></g><g><path d="M153.514 269.719c.24 0 .462.033.667.1.207.066.388.16.544.284.156.123.28.268.37.437.088.169.133.357.133.563v.477a8.588 8.588 0 01-.658.15 4.547 4.547 0 01-.847.069c-.478 0-.849-.095-1.11-.283a.883.883 0 01-.395-.751v-.021a.92.92 0 01.389-.755c.12-.087.257-.154.414-.2.156-.047.32-.07.493-.07m-.156-.63c-.24 0-.476.034-.71.1a1.86 1.86 0 00-.62.305 1.59 1.59 0 00-.435.505c-.11.2-.165.434-.165.7v.02c0 .28.054.525.16.735.107.21.26.385.455.526.197.139.43.246.7.319.27.073.568.11.895.11.334 0 .622-.02.865-.06.243-.04.482-.093.715-.16v.159c0 .457-.133.804-.4 1.039-.266.234-.643.353-1.13.353-.306 0-.585-.034-.835-.1a4.31 4.31 0 01-.735-.271l-.23.634c.287.135.577.243.87.324.294.08.63.122 1.01.122.734 0 1.29-.19 1.67-.57.36-.36.54-.866.54-1.52v-3.16h-.76v.77a2.48 2.48 0 00-.725-.614c-.303-.177-.682-.266-1.135-.266" fill="#231f20"/></g><path d="M157.678 276.499h.77v-7.3h-.77z" fill="#231f20"/></g></svg>