<svg width="500" height="96.906" xmlns="http://www.w3.org/2000/svg"><defs><clipPath clipPathUnits="userSpaceOnUse" id="prefix__a"><path d="M0 595.275h841.89V0H0z"/></clipPath></defs><g clip-path="url(#prefix__a)" transform="matrix(1.33333 0 0 -1.33333 -278.591 636.613)"><path d="M210.08 447.299h7.836v-26.157h-7.836zM278.527 447.3l-9.666-26.157h-8.881l-9.664 26.156h8.672l5.433-16.582 5.433 16.582zM279.05 434.221c0 7.795 5.902 13.812 13.844 13.812 5.066 0 9.56-2.67 11.805-6.697l-6.842-3.976c-.889 1.83-2.77 2.93-5.069 2.93-3.394 0-5.902-2.458-5.902-6.069 0-3.61 2.508-6.067 5.902-6.067 2.299 0 4.233 1.098 5.069 2.93l6.842-3.925c-2.245-4.08-6.687-6.749-11.805-6.749-7.942 0-13.845 6.016-13.845 13.811M235.96 428.153c-2.982 0-5.576 1.948-5.576 5.82 0 4.289 2.483 6.316 5.601 6.316 3.397 0 5.89-2.458 5.89-6.068 0-3.61-2.52-6.068-5.916-6.068m-.105 19.88c-6.727 0-12.725-6.075-12.725-12.865l.02-30.387h7.84v17.301c1.005-.931 3.156-1.67 4.899-1.67 7.941 0 13.827 6.014 13.827 13.809 0 7.794-5.92 13.811-13.86 13.811"/><path d="M213.998 461.856c-2.753 0-5.054 2.306-5.054 5.061 0 2.757 2.301 5.062 5.054 5.062 2.752 0 5.054-2.305 5.054-5.062 0-2.755-2.302-5.061-5.054-5.061M305.711 466.9l-2.758-4.371c-2.419-3.429-5.89-5.395-9.524-5.395-3.635 0-7.107 1.966-9.525 5.395l-3.865 5.478c-1.097 1.555-2.436 2.41-3.77 2.41-1.335 0-2.674-.855-3.77-2.41l-4.402-6.239c-2.418-3.427-5.89-5.393-9.524-5.393-3.634 0-7.107 1.966-9.525 5.393l-4.266 6.048c-1.098 1.556-2.437 2.413-3.77 2.413-1.336 0-2.675-.857-3.771-2.413l-4.677-6.718-5.755 4.06 4.677 6.718c2.419 3.428 5.89 5.395 9.525 5.395 3.634 0 7.106-1.967 9.524-5.395l4.268-6.048c1.096-1.554 2.435-2.411 3.77-2.411 1.334 0 2.673.857 3.77 2.411l4.4 6.239c2.42 3.427 5.89 5.393 9.526 5.393 3.634 0 7.106-1.966 9.524-5.393l3.865-5.48c1.097-1.553 2.436-2.41 3.77-2.41 1.335 0 2.674.857 3.771 2.41l2.758 4.372z" fill="#828183"/><path d="M331.587 464.903h13.254v-3.445h-9.431v-3.573h8.3v-3.444h-8.3v-3.697h9.557v-3.446h-13.38zM352.49 447.047a9.38 9.38 0 00-2.931.49c-.997.327-1.949.843-2.854 1.546l1.634 2.515c.738-.536 1.471-.939 2.201-1.206.73-.269 1.412-.403 2.05-.403.553 0 .96.093 1.219.277.26.184.39.428.39.73v.05a.724.724 0 01-.226.528c-.15.15-.356.28-.617.39-.26.108-.557.213-.892.314-.335.1-.687.21-1.056.326-.47.135-.944.298-1.42.492-.479.192-.911.444-1.297.754-.386.31-.7.692-.942 1.143-.244.454-.365 1.006-.365 1.661v.05c0 .688.13 1.296.39 1.823.26.53.612.977 1.055 1.346.445.369.965.646 1.56.83a6.475 6.475 0 001.924.277c.855 0 1.723-.139 2.604-.414a9.688 9.688 0 002.426-1.145l-1.459-2.641c-.67.385-1.325.691-1.961.917-.637.228-1.2.34-1.685.34-.47 0-.822-.088-1.057-.264-.235-.176-.352-.398-.352-.666v-.05a.66.66 0 01.227-.491c.15-.143.352-.276.603-.402.252-.126.54-.248.868-.365a27.31 27.31 0 011.044-.352c.47-.151.947-.331 1.433-.541.486-.21.922-.465 1.308-.767.385-.302.704-.67.956-1.107.251-.435.377-.964.377-1.584v-.05c0-.755-.13-1.405-.39-1.949a3.573 3.573 0 00-1.094-1.346 4.911 4.911 0 00-1.647-.792 7.449 7.449 0 00-2.025-.264M366.231 446.997a7.076 7.076 0 00-2.804.553 6.872 6.872 0 00-2.226 1.496 6.875 6.875 0 00-1.458 2.213 6.97 6.97 0 00-.528 2.704v.05c0 .956.176 1.86.528 2.717.352.854.838 1.6 1.458 2.237a6.764 6.764 0 002.226 1.51c.863.368 1.815.552 2.855.552 1.273 0 2.33-.2 3.169-.602a7.143 7.143 0 002.213-1.661l-2.339-2.515a6.253 6.253 0 01-1.346 1.081c-.46.269-1.035.404-1.722.404-.487 0-.927-.098-1.321-.29a3.275 3.275 0 01-1.031-.792 3.62 3.62 0 01-.68-1.169 4.201 4.201 0 01-.238-1.422v-.05c0-.52.08-1.005.238-1.46.16-.452.39-.845.693-1.18a3.26 3.26 0 012.49-1.083c.636 0 1.194.13 1.672.39s.951.608 1.421 1.044l2.238-2.264a8.611 8.611 0 00-2.238-1.772c-.839-.461-1.929-.691-3.27-.691M379.93 450.29c.554 0 1.045.097 1.472.29.428.193.792.456 1.094.792a3.5 3.5 0 01.692 1.17c.159.444.238.918.238 1.42v.051c0 .503-.083.977-.251 1.42a3.586 3.586 0 01-1.861 2.001c-.437.2-.914.301-1.434.301-.553 0-1.043-.096-1.47-.29a3.246 3.246 0 01-1.095-.791 3.491 3.491 0 01-.691-1.17 4.167 4.167 0 01-.24-1.42v-.051a4 4 0 01.252-1.42 3.586 3.586 0 011.849-2c.427-.2.91-.302 1.445-.302m-.05-3.294c-1.04 0-2.004.18-2.892.54-.89.36-1.656.854-2.3 1.483a6.916 6.916 0 00-1.523 2.213 6.758 6.758 0 00-.553 2.73v.05c0 .973.184 1.882.553 2.73.37.845.88 1.587 1.534 2.225a7.253 7.253 0 002.314 1.509c.888.368 1.861.553 2.917.553 1.04 0 2.003-.18 2.893-.54a7.082 7.082 0 002.301-1.484 6.93 6.93 0 001.522-2.213c.369-.847.553-1.757.553-2.73v-.05c0-.973-.184-1.882-.553-2.73a6.962 6.962 0 00-1.535-2.225 7.287 7.287 0 00-2.313-1.509c-.889-.368-1.862-.552-2.918-.552M389.678 465.657h3.823v-18.36h-3.823zM401.697 449.687c.906 0 1.63.218 2.176.653.544.437.818 1.006.818 1.712v.678c-.336.152-.71.273-1.12.366a6.067 6.067 0 01-1.32.137c-.822 0-1.467-.16-1.937-.477-.469-.32-.703-.78-.703-1.383v-.05c0-.52.192-.923.577-1.208.386-.285.89-.428 1.51-.428m-1.158-2.64c-.637 0-1.236.087-1.798.264a4.2 4.2 0 00-1.47.792 3.79 3.79 0 00-.994 1.295c-.244.512-.365 1.102-.365 1.773v.05c0 .738.134 1.376.403 1.912.267.536.64.98 1.119 1.333.477.352 1.047.616 1.71.792a8.556 8.556 0 002.201.264c.687 0 1.286-.05 1.798-.152.51-.1 1.01-.234 1.497-.4v.225c0 .804-.244 1.417-.73 1.836-.487.419-1.208.63-2.163.63-.738 0-1.388-.064-1.95-.19a13.125 13.125 0 01-1.772-.54l-.956 2.917a15.09 15.09 0 002.313.78c.805.201 1.778.302 2.918.302 1.057 0 1.957-.13 2.704-.39.746-.261 1.362-.633 1.849-1.12a4.532 4.532 0 001.106-1.848c.235-.73.352-1.547.352-2.453v-7.82h-3.696v1.458a5.326 5.326 0 00-1.687-1.246c-.653-.31-1.45-.464-2.389-.464M425.338 447.047c-1.34 0-2.657.23-3.948.69a10.456 10.456 0 00-3.521 2.127l2.288 2.74a11.507 11.507 0 012.478-1.558c.846-.387 1.773-.58 2.779-.58.805 0 1.43.148 1.874.44.444.295.666.701.666 1.221v.05c0 .252-.046.473-.139.667-.092.193-.268.373-.529.54-.26.168-.622.336-1.084.504-.463.167-1.064.344-1.803.528-.892.217-1.698.46-2.422.73-.722.267-1.337.599-1.84.992a4.023 4.023 0 00-1.173 1.472c-.277.586-.416 1.316-.416 2.188v.05c0 .804.15 1.53.45 2.176.3.644.72 1.202 1.261 1.672a5.67 5.67 0 001.94 1.082c.751.251 1.58.377 2.485.377 1.292 0 2.478-.193 3.56-.579a10.325 10.325 0 002.98-1.66l-2.012-2.917c-.788.536-1.56.96-2.314 1.27a5.938 5.938 0 01-2.264.466c-.754 0-1.32-.147-1.697-.441-.377-.294-.566-.658-.566-1.094v-.051c0-.285.055-.532.164-.741.11-.21.306-.398.592-.566.286-.168.677-.328 1.173-.478a56.8 56.8 0 011.878-.528 18.208 18.208 0 002.384-.792c.697-.293 1.285-.645 1.765-1.056.48-.411.84-.893 1.084-1.446.244-.555.366-1.217.366-1.987v-.05c0-.873-.16-1.649-.475-2.328a4.771 4.771 0 00-1.324-1.71c-.566-.46-1.242-.813-2.028-1.056-.786-.243-1.656-.364-2.612-.364M438.877 447.047c-1.459 0-2.586.443-3.383 1.333-.796.888-1.194 2.112-1.194 3.672v8.726h3.822v-7.501c0-.903.202-1.586.604-2.045.403-.46.972-.69 1.71-.69s1.32.23 1.749.69c.426.46.64 1.142.64 2.045v7.5h3.824v-13.479h-3.823v1.927a8.22 8.22 0 00-.718-.823 5.046 5.046 0 00-.867-.697 4.356 4.356 0 00-1.056-.481 4.48 4.48 0 00-1.308-.177M456.783 450.29a3.081 3.081 0 012.314 1.02c.302.327.541.717.718 1.169.176.452.263.965.263 1.534v.05c0 .554-.087 1.06-.263 1.522-.177.461-.416.854-.718 1.181a3.081 3.081 0 01-2.314 1.02c-.452 0-.876-.089-1.27-.265a3.001 3.001 0 01-1.03-.755 3.726 3.726 0 01-.705-1.18 4.239 4.239 0 01-.264-1.523v-.05c0-.553.088-1.06.264-1.521a3.72 3.72 0 01.705-1.182c.292-.328.636-.58 1.03-.755a3.073 3.073 0 011.27-.264m-7.042 10.487h3.823v-1.936a6.06 6.06 0 001.698 1.572c.662.41 1.497.616 2.503.616.788 0 1.55-.151 2.288-.452a5.684 5.684 0 001.962-1.346c.57-.595 1.027-1.325 1.37-2.188.344-.864.516-1.858.516-2.98v-.051c0-1.124-.172-2.117-.516-2.98-.343-.864-.796-1.593-1.357-2.188a5.523 5.523 0 00-1.95-1.345 6.033 6.033 0 00-2.313-.454c-1.024 0-1.866.203-2.528.604a6.724 6.724 0 00-1.673 1.408v-5.785h-3.823zM475.153 455.095c-.118.855-.42 1.546-.905 2.075-.486.527-1.132.792-1.937.792-.805 0-1.455-.26-1.95-.78-.494-.52-.816-1.216-.967-2.087zm-2.465-8.099c-1.006 0-1.94.167-2.803.503a6.476 6.476 0 00-2.239 1.434 6.63 6.63 0 00-1.472 2.2c-.352.846-.528 1.79-.528 2.83v.05c0 .956.163 1.86.491 2.717.326.855.783 1.6 1.37 2.238a6.443 6.443 0 002.1 1.509c.814.368 1.714.552 2.704.552 1.124 0 2.096-.2 2.917-.602a5.957 5.957 0 002.05-1.622c.545-.68.947-1.46 1.208-2.34a9.683 9.683 0 00.377-3.232c-.009-.167-.02-.343-.038-.527h-9.381c.184-.873.566-1.53 1.145-1.975.578-.444 1.294-.666 2.15-.666.636 0 1.207.108 1.71.327.503.217 1.022.57 1.56 1.056l2.187-1.937a6.782 6.782 0 00-2.314-1.849c-.905-.443-1.97-.666-3.194-.666M481.31 460.778h3.823v-2.715c.385.921.913 1.659 1.584 2.212.67.554 1.576.806 2.716.755v-4h-.2c-1.275 0-2.277-.385-3.006-1.156-.73-.772-1.094-1.97-1.094-3.596v-4.98h-3.823zM491.292 460.778h3.824v-13.48h-3.824zM504.868 450.29c.553 0 1.044.097 1.472.29.427.193.791.456 1.093.792.302.335.532.726.691 1.17.16.444.24.918.24 1.42v.051c0 .503-.084.977-.252 1.42a3.586 3.586 0 01-1.861 2.001c-.437.2-.913.301-1.434.301-.553 0-1.043-.096-1.471-.29a3.252 3.252 0 01-1.094-.791 3.491 3.491 0 01-.691-1.17 4.167 4.167 0 01-.24-1.42v-.051a4 4 0 01.252-1.42 3.586 3.586 0 011.85-2c.426-.2.909-.302 1.445-.302m-.05-3.294c-1.04 0-2.005.18-2.893.54-.89.36-1.656.854-2.3 1.483a6.916 6.916 0 00-1.523 2.213 6.758 6.758 0 00-.553 2.73v.05c0 .973.184 1.882.553 2.73.37.845.88 1.587 1.534 2.225a7.242 7.242 0 002.314 1.509c.889.368 1.861.553 2.918.553 1.039 0 2.004-.18 2.892-.54a7.082 7.082 0 002.302-1.484 6.93 6.93 0 001.52-2.213c.37-.847.554-1.757.554-2.73v-.05c0-.973-.184-1.882-.553-2.73a6.962 6.962 0 00-1.534-2.225 7.287 7.287 0 00-2.314-1.509c-.888-.368-1.861-.552-2.918-.552M514.502 460.778h3.823v-2.715c.387.921.914 1.659 1.585 2.212.67.554 1.575.806 2.716.755v-4h-.201c-1.275 0-2.276-.385-3.005-1.156-.73-.772-1.095-1.97-1.095-3.596v-4.98h-3.823zM338.704 424.134a3.057 3.057 0 012.302 1.02c.293.325.528.72.704 1.182.176.46.264.966.264 1.52v.05c0 .554-.088 1.061-.264 1.523-.176.46-.411.854-.704 1.181-.294.328-.638.58-1.032.755a3.073 3.073 0 01-1.27.264c-.453 0-.876-.088-1.27-.264a3.129 3.129 0 01-1.044-.755 3.648 3.648 0 01-.716-1.17 4.178 4.178 0 01-.265-1.533v-.05c0-.555.088-1.06.265-1.521a3.61 3.61 0 01.716-1.183c.302-.328.65-.579 1.045-.754a3.057 3.057 0 011.27-.265m-.982-3.245c-.788 0-1.551.152-2.288.454-.738.3-1.393.75-1.962 1.346-.57.593-1.027 1.324-1.37 2.187-.344.864-.516 1.857-.516 2.98v.05c0 1.124.172 2.118.516 2.98.343.864.795 1.594 1.358 2.19a5.536 5.536 0 001.948 1.345 6.07 6.07 0 002.314.453c1.023 0 1.865-.202 2.528-.604a6.758 6.758 0 001.672-1.408v6.638h3.823v-18.36h-3.823v1.938a6.042 6.042 0 00-1.698-1.571c-.662-.412-1.496-.618-2.502-.618M357.668 428.937c-.118.857-.42 1.548-.907 2.076-.486.528-1.132.793-1.935.793-.805 0-1.455-.26-1.95-.781-.495-.52-.817-1.215-.968-2.088zm-2.465-8.098a7.688 7.688 0 00-2.805.503 6.5 6.5 0 00-2.238 1.434 6.638 6.638 0 00-1.471 2.2c-.353.847-.528 1.79-.528 2.83v.051c0 .955.163 1.86.49 2.715a6.898 6.898 0 001.37 2.24 6.473 6.473 0 002.1 1.509c.813.368 1.715.552 2.705.552 1.122 0 2.095-.201 2.917-.603a5.953 5.953 0 002.05-1.622 6.754 6.754 0 001.208-2.34 9.726 9.726 0 00.377-3.232c-.01-.168-.022-.343-.038-.528h-9.382c.185-.871.566-1.53 1.144-1.974.579-.444 1.296-.667 2.15-.667.638 0 1.208.109 1.711.327.503.219 1.022.57 1.559 1.057l2.189-1.937a6.794 6.794 0 00-2.315-1.848c-.904-.444-1.97-.667-3.193-.667M378.542 424.637a5.98 5.98 0 012.163.378 4.652 4.652 0 011.673 1.081c.46.469.82 1.022 1.08 1.66.26.637.39 1.35.39 2.138v.05c0 .77-.13 1.484-.39 2.137a5.013 5.013 0 01-1.08 1.686 4.816 4.816 0 01-1.673 1.093c-.654.261-1.375.39-2.163.39h-2.993v-10.613zm-6.866 14.109h6.866c1.374 0 2.637-.222 3.784-.666 1.15-.444 2.138-1.06 2.968-1.85a8.237 8.237 0 001.925-2.777c.452-1.065.679-2.218.679-3.459v-.05c0-1.241-.227-2.397-.68-3.47a8.195 8.195 0 00-1.924-2.792c-.83-.788-1.819-1.41-2.968-1.861-1.147-.453-2.41-.68-3.784-.68h-6.866zM399.384 428.937c-.118.857-.42 1.548-.906 2.076-.487.528-1.131.793-1.936.793-.805 0-1.455-.26-1.95-.781-.494-.52-.817-1.215-.968-2.088zm-2.465-8.098c-1.006 0-1.94.168-2.804.503a6.49 6.49 0 00-2.238 1.434 6.64 6.64 0 00-1.472 2.2c-.352.847-.528 1.79-.528 2.83v.051c0 .955.163 1.86.49 2.715a6.878 6.878 0 001.371 2.24 6.473 6.473 0 002.1 1.509c.813.368 1.714.552 2.704.552 1.123 0 2.095-.201 2.917-.603a5.935 5.935 0 002.05-1.622 6.754 6.754 0 001.208-2.34 9.69 9.69 0 00.377-3.232c-.01-.168-.022-.343-.038-.528h-9.381c.184-.871.566-1.53 1.143-1.974.58-.444 1.296-.667 2.151-.667.637 0 1.208.109 1.71.327.504.219 1.023.57 1.56 1.057l2.188-1.937a6.79 6.79 0 00-2.314-1.848c-.905-.444-1.97-.667-3.194-.667M410.163 420.89c-.956 0-1.933.163-2.93.49-.998.326-1.95.842-2.855 1.547l1.635 2.515c.738-.537 1.472-.939 2.201-1.208.73-.267 1.413-.401 2.05-.401.553 0 .96.091 1.22.276.26.185.389.427.389.73v.05a.72.72 0 01-.226.527c-.151.151-.356.281-.616.39-.26.11-.558.215-.893.315-.335.101-.687.209-1.057.327-.47.133-.942.297-1.42.49s-.91.444-1.296.755c-.385.31-.7.691-.944 1.144-.242.454-.364 1.006-.364 1.66v.051c0 .686.13 1.295.39 1.823s.612.977 1.057 1.345c.444.37.964.646 1.56.83a6.442 6.442 0 001.923.278c.855 0 1.723-.14 2.603-.416a9.668 9.668 0 002.427-1.144l-1.459-2.64c-.671.385-1.325.69-1.962.917-.636.226-1.198.34-1.685.34-.47 0-.822-.088-1.056-.265-.234-.176-.352-.398-.352-.667v-.05c0-.184.075-.348.226-.49.151-.143.352-.276.604-.402a7.85 7.85 0 01.868-.365c.327-.117.674-.235 1.043-.351.47-.152.948-.332 1.434-.543.487-.209.922-.463 1.308-.765.385-.303.704-.671.955-1.108.252-.435.378-.964.378-1.584v-.05c0-.755-.13-1.404-.39-1.95a3.582 3.582 0 00-1.094-1.344 4.894 4.894 0 00-1.647-.793 7.483 7.483 0 00-2.025-.265M424.763 424.134c.453 0 .876.088 1.27.265.394.175.742.426 1.044.754.302.326.54.717.716 1.17.177.452.265.963.265 1.534v.05c0 .553-.088 1.06-.265 1.522-.176.46-.414.854-.716 1.181-.302.328-.65.58-1.044.755a3.073 3.073 0 01-1.27.264c-.453 0-.876-.088-1.27-.264a3.02 3.02 0 01-1.032-.755 3.744 3.744 0 01-.704-1.181 4.238 4.238 0 01-.264-1.522v-.05c0-.555.088-1.06.264-1.521.176-.462.41-.857.704-1.183a3.02 3.02 0 011.031-.754 3.065 3.065 0 011.27-.265m-7.041 10.488h3.823v-1.937a6.087 6.087 0 001.697 1.573c.663.41 1.497.616 2.503.616.788 0 1.55-.152 2.288-.453a5.677 5.677 0 001.962-1.345c.57-.596 1.026-1.326 1.37-2.19.343-.862.516-1.856.516-2.98v-.05c0-1.123-.173-2.116-.516-2.98-.344-.863-.795-1.594-1.358-2.187a5.522 5.522 0 00-1.948-1.346 6.057 6.057 0 00-2.314-.454c-1.023 0-1.865.202-2.528.605a6.733 6.733 0 00-1.672 1.407v-5.785h-3.823zM440.944 424.134c.553 0 1.044.097 1.47.29.43.192.794.456 1.095.792a3.5 3.5 0 01.693 1.169c.159.444.238.917.238 1.42v.052c0 .503-.083.976-.251 1.42a3.58 3.58 0 01-1.861 2c-.437.201-.915.3-1.434.3-.553 0-1.043-.095-1.47-.288a3.246 3.246 0 01-1.095-.792 3.505 3.505 0 01-.693-1.17 4.181 4.181 0 01-.238-1.42v-.05c0-.503.083-.977.251-1.422a3.606 3.606 0 011.85-1.999 3.352 3.352 0 011.445-.302m-.05-3.294c-1.04 0-2.004.18-2.892.54-.89.36-1.656.855-2.301 1.484a6.9 6.9 0 00-1.522 2.213 6.75 6.75 0 00-.554 2.728v.052c0 .971.185 1.88.554 2.728a6.95 6.95 0 001.534 2.226 7.276 7.276 0 002.314 1.51c.888.367 1.86.553 2.917.553 1.04 0 2.004-.182 2.892-.54a7.1 7.1 0 002.302-1.486 6.918 6.918 0 001.521-2.213c.37-.847.554-1.756.554-2.728v-.05c0-.973-.185-1.883-.554-2.73a6.977 6.977 0 00-1.534-2.226 7.321 7.321 0 00-2.314-1.509c-.889-.368-1.86-.552-2.917-.552M450.579 434.622h3.823v-2.716c.385.922.913 1.66 1.584 2.213.671.553 1.576.805 2.716.754v-3.999h-.2c-1.275 0-2.276-.385-3.007-1.156-.728-.772-1.093-1.971-1.093-3.597v-4.98h-3.823zM465.573 420.915c-.586 0-1.118.062-1.596.188-.48.126-.89.348-1.234.667-.343.318-.611.733-.803 1.245-.194.512-.29 1.16-.29 1.95v6.387h-1.61v3.27h1.61v3.445h3.823v-3.445h3.169v-3.27h-3.17v-5.78c0-.874.412-1.312 1.233-1.312.671 0 1.3.167 1.886.503v-3.068a5.905 5.905 0 00-1.333-.566c-.487-.143-1.048-.214-1.685-.214M477.565 424.134c.554 0 1.044.097 1.471.29.428.192.792.456 1.095.792.3.335.531.725.691 1.169.16.444.239.917.239 1.42v.052c0 .503-.084.976-.252 1.42a3.582 3.582 0 01-1.861 2c-.436.201-.914.3-1.434.3-.552 0-1.043-.095-1.47-.288a3.232 3.232 0 01-1.094-.792 3.472 3.472 0 01-.692-1.17 4.158 4.158 0 01-.24-1.42v-.05c0-.503.085-.977.252-1.422a3.609 3.609 0 011.849-1.999c.428-.201.91-.302 1.446-.302m-.05-3.294c-1.04 0-2.005.18-2.893.54a7.032 7.032 0 00-2.3 1.484 6.897 6.897 0 00-1.522 2.213 6.733 6.733 0 00-.554 2.728v.052c0 .971.184 1.88.554 2.728a6.95 6.95 0 001.534 2.226 7.271 7.271 0 002.313 1.51c.89.367 1.861.553 2.918.553 1.039 0 2.004-.182 2.892-.54a7.09 7.09 0 002.302-1.486 6.918 6.918 0 001.52-2.213c.37-.847.554-1.756.554-2.728v-.05c0-.973-.184-1.883-.553-2.73a6.974 6.974 0 00-1.533-2.226 7.326 7.326 0 00-2.315-1.509c-.889-.368-1.861-.552-2.918-.552M503.495 428.937c-.118.857-.42 1.548-.906 2.076-.487.528-1.131.793-1.936.793-.805 0-1.455-.26-1.95-.781-.494-.52-.817-1.215-.968-2.088zm-2.465-8.098a7.688 7.688 0 00-2.805.503 6.5 6.5 0 00-2.238 1.434 6.638 6.638 0 00-1.47 2.2c-.353.847-.53 1.79-.53 2.83v.051c0 .955.164 1.86.49 2.715a6.898 6.898 0 001.372 2.24 6.473 6.473 0 002.1 1.509c.812.368 1.714.552 2.704.552 1.123 0 2.095-.201 2.917-.603a5.953 5.953 0 002.05-1.622 6.754 6.754 0 001.208-2.34 9.726 9.726 0 00.376-3.232 11.93 11.93 0 00-.037-.528h-9.381c.184-.871.565-1.53 1.143-1.974.579-.444 1.296-.667 2.151-.667.637 0 1.208.109 1.71.327.504.219 1.023.57 1.56 1.057l2.188-1.937a6.8 6.8 0 00-2.314-1.848c-.905-.444-1.97-.667-3.194-.667M518.006 438.746h3.873v-14.108h8.777v-3.497h-12.65zM538.023 423.53c.905 0 1.63.218 2.175.654.545.437.818 1.006.818 1.711v.678a5.8 5.8 0 01-1.12.366c-.41.091-.851.137-1.32.137-.822 0-1.468-.159-1.936-.477-.47-.32-.705-.78-.705-1.383v-.051c0-.52.193-.922.579-1.206.385-.286.888-.429 1.509-.429m-1.157-2.64c-.638 0-1.236.088-1.799.264a4.185 4.185 0 00-1.47.793c-.42.35-.751.782-.994 1.294-.244.511-.365 1.103-.365 1.774v.05c0 .738.134 1.375.402 1.912.268.536.642.98 1.12 1.332.477.353 1.048.616 1.71.792a8.568 8.568 0 002.2.265c.688 0 1.288-.051 1.799-.152.51-.1 1.01-.234 1.497-.402v.227c0 .804-.244 1.417-.73 1.836-.487.419-1.207.629-2.163.629-.738 0-1.388-.064-1.95-.19a13.036 13.036 0 01-1.772-.54l-.957 2.918c.739.318 1.51.578 2.315.779.805.2 1.777.302 2.918.302 1.056 0 1.956-.13 2.703-.39.746-.26 1.362-.634 1.849-1.119a4.539 4.539 0 001.106-1.849c.235-.73.352-1.546.352-2.452v-7.822h-3.697v1.459a5.319 5.319 0 00-1.685-1.245c-.654-.31-1.45-.466-2.389-.466M546.873 423.833l6.966 7.695h-6.74v3.094h11.494v-2.69l-6.992-7.698h6.992v-3.093h-11.72zM569.664 428.937c-.118.857-.42 1.548-.906 2.076-.486.528-1.131.793-1.936.793-.805 0-1.455-.26-1.95-.781-.495-.52-.817-1.215-.968-2.088zm-2.465-8.098a7.688 7.688 0 00-2.805.503 6.495 6.495 0 00-2.237 1.434 6.64 6.64 0 00-1.472 2.2c-.352.847-.528 1.79-.528 2.83v.051c0 .955.163 1.86.49 2.715a6.895 6.895 0 001.371 2.24 6.473 6.473 0 002.1 1.509c.812.368 1.714.552 2.704.552 1.123 0 2.095-.201 2.917-.603a5.948 5.948 0 002.05-1.622 6.77 6.77 0 001.208-2.34 9.69 9.69 0 00.377-3.232c-.01-.168-.021-.343-.038-.528h-9.381c.184-.871.565-1.53 1.143-1.974.58-.444 1.296-.667 2.151-.667.637 0 1.208.109 1.71.327.504.219 1.023.57 1.56 1.057l2.188-1.937a6.79 6.79 0 00-2.314-1.848c-.905-.444-1.97-.667-3.194-.667M575.82 434.622h3.824v-2.716c.385.922.913 1.66 1.583 2.213.671.553 1.577.805 2.717.754v-3.999h-.202c-1.273 0-2.275-.385-3.005-1.156-.729-.772-1.093-1.971-1.093-3.597v-4.98h-3.824zM493.203 462.124c-1.193 0-2.19 1-2.19 2.194 0 1.195.997 2.194 2.19 2.194s2.191-.999 2.191-2.194c0-1.195-.998-2.194-2.19-2.194M208.897 201.42h7.789v-26.001h-7.789zM276.935 201.42l-9.607-26.001h-8.83l-9.606 26h8.62l5.402-16.483 5.4 16.484zM277.454 188.419c0 7.748 5.868 13.729 13.761 13.729 5.037 0 9.504-2.653 11.736-6.657l-6.803-3.951c-.882 1.819-2.753 2.91-5.037 2.91-3.375 0-5.867-2.442-5.867-6.031 0-3.588 2.492-6.031 5.867-6.031 2.284 0 4.206 1.092 5.037 2.912l6.803-3.901c-2.232-4.056-6.647-6.708-11.736-6.708-7.893 0-13.76 5.98-13.76 13.728M234.621 182.388c-2.963 0-5.54 1.936-5.54 5.784 0 4.265 2.466 6.279 5.566 6.279 3.376 0 5.856-2.443 5.856-6.032 0-3.588-2.507-6.031-5.882-6.031m-.104 19.76c-6.687 0-12.648-6.008-12.648-12.757l.02-30.176h7.967v17.138c1-.926 3.05-1.661 4.782-1.661 7.893 0 13.701 5.979 13.701 13.727s-5.928 13.729-13.822 13.729"/><path d="M212.791 215.889c-2.735 0-5.023 2.292-5.023 5.03 0 2.74 2.288 5.033 5.023 5.033 2.736 0 5.024-2.292 5.024-5.032s-2.288-5.031-5.024-5.031M303.956 220.902l-2.74-4.345c-2.406-3.407-5.856-5.36-9.469-5.36-3.613 0-7.063 1.953-9.468 5.36l-3.84 5.446c-1.092 1.545-2.423 2.396-3.749 2.396s-2.657-.852-3.748-2.396l-4.375-6.202c-2.403-3.407-5.854-5.36-9.467-5.36-3.613 0-7.064 1.953-9.468 5.36l-4.24 6.012c-1.092 1.546-2.423 2.398-3.749 2.398-1.327 0-2.658-.852-3.748-2.398l-4.649-6.678-5.72 4.036 4.65 6.677c2.403 3.408 5.854 5.363 9.467 5.363 3.612 0 7.063-1.955 9.467-5.363l4.242-6.01c1.09-1.546 2.421-2.398 3.748-2.398 1.326 0 2.657.852 3.748 2.397l4.374 6.201c2.404 3.407 5.855 5.361 9.468 5.361 3.613.001 7.064-1.954 9.468-5.36l3.841-5.447c1.091-1.545 2.422-2.396 3.748-2.396s2.657.851 3.748 2.396l2.741 4.346z" fill="#828183"/><path d="M208.872 141.078h11.411v-2.966h-8.12v-3.074h7.145v-2.967h-7.145v-3.182h8.228v-2.967h-11.519zM226.867 125.706c-.823 0-1.664.141-2.522.422a8.08 8.08 0 00-2.458 1.332l1.407 2.165a7.846 7.846 0 011.895-1.04c.628-.231 1.216-.346 1.764-.346.477 0 .827.079 1.05.238a.736.736 0 01.336.627v.044a.619.619 0 01-.195.454 1.6 1.6 0 01-.53.336c-.224.094-.48.185-.77.272-.288.086-.591.18-.908.281-.404.115-.812.256-1.223.422a4.41 4.41 0 00-1.116.649 3.18 3.18 0 00-.812.985c-.21.39-.314.867-.314 1.43v.043c0 .592.112 1.115.336 1.57.224.454.527.841.91 1.158.382.317.83.556 1.342.715a5.589 5.589 0 001.656.238c.736 0 1.484-.119 2.24-.357a8.336 8.336 0 002.09-.986l-1.255-2.273c-.578.332-1.14.596-1.69.79-.548.195-1.031.293-1.45.293-.404 0-.707-.076-.91-.228a.69.69 0 01-.302-.574v-.043c0-.159.065-.3.195-.422.13-.123.303-.238.52-.346.216-.109.465-.213.746-.315.282-.1.58-.202.899-.303.404-.129.815-.285 1.234-.465a5.131 5.131 0 001.126-.661c.332-.259.606-.577.823-.953.216-.375.324-.83.324-1.363v-.043c0-.65-.112-1.21-.335-1.679a3.093 3.093 0 00-.942-1.158 4.237 4.237 0 00-1.418-.682 6.42 6.42 0 00-1.743-.227M238.697 125.662a6.08 6.08 0 00-2.415.477 5.929 5.929 0 00-1.916 1.288 5.913 5.913 0 00-1.255 1.906 5.978 5.978 0 00-.454 2.327v.043c0 .823.15 1.603.454 2.34a6.018 6.018 0 001.256 1.926 5.86 5.86 0 001.916 1.298c.744.318 1.563.477 2.458.477 1.095 0 2.005-.173 2.727-.519a6.152 6.152 0 001.906-1.429l-2.013-2.167a5.365 5.365 0 01-1.16.932c-.396.231-.89.346-1.482.346-.418 0-.797-.083-1.136-.248a2.793 2.793 0 01-.888-.683 3.097 3.097 0 01-.585-1.006 3.601 3.601 0 01-.206-1.223v-.044c0-.447.068-.866.205-1.256.137-.389.336-.728.596-1.017.26-.289.57-.517.931-.682.36-.166.766-.249 1.213-.249.548 0 1.028.111 1.44.336.41.223.819.522 1.223.898l1.927-1.949a7.377 7.377 0 00-1.927-1.526c-.722-.397-1.66-.596-2.814-.596M250.49 128.499c.477 0 .9.083 1.267.249.368.165.682.394.942.682a3 3 0 01.595 1.006c.137.383.206.792.206 1.224v.043c0 .434-.072.841-.217 1.224a3.057 3.057 0 01-1.602 1.72 2.9 2.9 0 01-1.234.26 3.07 3.07 0 01-1.267-.248 2.783 2.783 0 01-.94-.682 3.007 3.007 0 01-.597-1.007 3.601 3.601 0 01-.206-1.223v-.044c0-.433.073-.841.217-1.224a3.096 3.096 0 011.591-1.72c.368-.174.783-.26 1.245-.26m-.043-2.837c-.895 0-1.725.155-2.49.466a6.08 6.08 0 00-1.98 1.277 5.932 5.932 0 00-1.31 1.906 5.81 5.81 0 00-.478 2.349v.043c0 .837.16 1.62.477 2.35a5.993 5.993 0 001.321 1.916 6.277 6.277 0 001.992 1.299c.764.317 1.602.476 2.511.476.895 0 1.725-.156 2.49-.466a6.07 6.07 0 001.981-1.277 5.955 5.955 0 001.31-1.905c.318-.73.476-1.512.476-2.349v-.044a5.81 5.81 0 00-.476-2.349 5.987 5.987 0 00-1.32-1.916 6.267 6.267 0 00-1.992-1.299 6.487 6.487 0 00-2.512-.477M258.883 141.727h3.291v-15.806h-3.291zM269.23 127.98c.779 0 1.403.186 1.873.561.469.375.703.867.703 1.473v.584a4.99 4.99 0 01-.963.315 5.212 5.212 0 01-1.137.12c-.707 0-1.263-.139-1.667-.412-.404-.275-.606-.672-.606-1.192v-.043c0-.448.166-.794.498-1.039.332-.246.765-.368 1.299-.368m-.996-2.273a5.16 5.16 0 00-1.548.226 3.629 3.629 0 00-1.267.683 3.264 3.264 0 00-.855 1.115c-.21.44-.314.948-.314 1.525v.044c0 .635.115 1.184.346 1.646.23.462.553.845.964 1.147a4.3 4.3 0 001.472.683 7.403 7.403 0 001.895.227 8.16 8.16 0 001.548-.13c.44-.086.869-.203 1.288-.346v.194c0 .694-.21 1.22-.628 1.581-.42.361-1.04.541-1.862.541a7.695 7.695 0 01-1.678-.162 11.27 11.27 0 01-1.526-.466l-.823 2.512c.635.274 1.299.498 1.992.671.693.174 1.53.26 2.512.26.909 0 1.685-.112 2.327-.335.642-.225 1.173-.546 1.59-.964a3.9 3.9 0 00.954-1.592c.202-.627.303-1.33.303-2.11v-6.735h-3.183v1.257a4.56 4.56 0 00-1.45-1.072c-.563-.269-1.25-.4-2.057-.4M289.582 125.706c-1.155 0-2.288.198-3.4.596a8.98 8.98 0 00-3.031 1.829l1.97 2.36a9.869 9.869 0 012.133-1.343 5.706 5.706 0 012.393-.498c.693 0 1.23.126 1.613.379.382.253.573.602.573 1.05v.044c0 .215-.04.407-.12.573-.08.166-.231.322-.455.466a4.824 4.824 0 01-.933.433c-.398.144-.916.296-1.553.455a18.64 18.64 0 00-2.084.628c-.622.23-1.15.515-1.584.855a3.449 3.449 0 00-1.01 1.267c-.24.505-.358 1.133-.358 1.883v.044c0 .692.129 1.317.387 1.873.258.555.62 1.035 1.086 1.439a4.873 4.873 0 001.67.931 6.728 6.728 0 002.14.325c1.11 0 2.133-.166 3.063-.498a8.88 8.88 0 002.566-1.429l-1.732-2.512c-.678.462-1.342.827-1.992 1.094a5.089 5.089 0 01-1.948.401c-.65 0-1.137-.127-1.462-.379-.325-.253-.487-.567-.487-.943v-.043c0-.245.047-.458.14-.638.095-.181.265-.343.51-.488.247-.144.584-.281 1.01-.411.428-.13.967-.281 1.618-.455.767-.202 1.45-.43 2.05-.682a5.73 5.73 0 001.52-.909c.414-.354.725-.769.935-1.245.209-.476.314-1.047.314-1.711v-.043c0-.751-.136-1.418-.408-2.003a4.126 4.126 0 00-1.14-1.472 5.138 5.138 0 00-1.746-.91c-.676-.209-1.425-.313-2.248-.313M301.237 125.706c-1.256 0-2.227.382-2.912 1.147-.686.765-1.028 1.819-1.028 3.162v7.512h3.29v-6.458c0-.777.173-1.364.52-1.759.347-.397.837-.594 1.472-.594.636 0 1.137.197 1.505.594.368.395.552.982.552 1.759v6.458h3.29v-11.605h-3.29v1.659a7.2 7.2 0 00-.617-.709 4.366 4.366 0 00-.747-.6 3.767 3.767 0 00-.91-.414 3.835 3.835 0 00-1.125-.152M316.652 128.499c.39 0 .754.076 1.094.228.34.151.638.368.898.649s.466.617.617 1.007c.152.389.227.829.227 1.32v.044c0 .476-.075.912-.227 1.31a3.113 3.113 0 01-.617 1.017c-.26.281-.559.498-.898.65-.34.151-.704.227-1.094.227a2.616 2.616 0 01-1.981-.877 3.214 3.214 0 01-.606-1.017 3.64 3.64 0 01-.228-1.31v-.044c0-.475.076-.913.228-1.309.151-.398.353-.737.606-1.018a2.6 2.6 0 01.888-.649 2.64 2.64 0 011.093-.228m-6.062 9.028h3.291v-1.667c.403.549.891 1 1.461 1.353.57.354 1.29.531 2.155.531.678 0 1.335-.13 1.97-.39a4.86 4.86 0 001.688-1.158c.491-.512.885-1.14 1.181-1.884.295-.743.443-1.599.443-2.565v-.044c0-.967-.148-1.822-.443-2.565-.296-.744-.686-1.371-1.169-1.884a4.75 4.75 0 00-1.679-1.158 5.202 5.202 0 00-1.99-.39c-.882 0-1.607.173-2.178.52a5.76 5.76 0 00-1.439 1.212v-4.98h-3.29zM332.466 132.634c-.1.736-.36 1.332-.779 1.787-.419.454-.975.682-1.667.682-.694 0-1.253-.224-1.679-.671-.426-.448-.703-1.047-.833-1.798zm-2.122-6.972c-.866 0-1.67.145-2.414.434-.743.288-1.386.7-1.927 1.233a5.71 5.71 0 00-1.266 1.895c-.304.729-.455 1.54-.455 2.436v.043c0 .824.141 1.603.422 2.339a5.955 5.955 0 001.18 1.927 5.542 5.542 0 001.808 1.299c.7.317 1.475.476 2.328.476.967 0 1.803-.173 2.511-.52a5.123 5.123 0 001.765-1.396 5.822 5.822 0 001.04-2.013 8.32 8.32 0 00.324-2.783 11.903 11.903 0 00-.033-.455h-8.076c.16-.75.487-1.317.985-1.7.498-.382 1.116-.573 1.851-.573.55 0 1.04.094 1.473.28.433.189.88.492 1.342.91l1.884-1.667a5.847 5.847 0 00-1.992-1.59c-.779-.382-1.696-.575-2.75-.575M337.766 137.527h3.291v-2.338c.332.794.787 1.43 1.364 1.905.577.477 1.356.693 2.338.65v-3.443h-.173c-1.097 0-1.959-.332-2.587-.996-.628-.664-.942-1.696-.942-3.095v-4.288h-3.29zM346.36 137.527h3.291v-11.605h-3.291zM358.047 128.499c.476 0 .898.083 1.267.249.367.165.681.394.941.682.26.289.458.624.596 1.006.136.383.205.792.205 1.224v.043c0 .434-.072.841-.216 1.224a3.103 3.103 0 01-.628 1.017 3.036 3.036 0 01-.975.703c-.375.174-.786.26-1.233.26-.477 0-.899-.083-1.268-.248a2.803 2.803 0 01-.94-.682 3.024 3.024 0 01-.597-1.007 3.601 3.601 0 01-.205-1.223v-.044c0-.433.072-.841.217-1.224a3.08 3.08 0 01.628-1.017 3.08 3.08 0 01.963-.703c.368-.174.783-.26 1.245-.26m-.043-2.837c-.895 0-1.726.155-2.49.466a6.074 6.074 0 00-1.982 1.277 5.945 5.945 0 00-1.309 1.906 5.81 5.81 0 00-.477 2.349v.043c0 .837.16 1.62.477 2.35a6.006 6.006 0 001.32 1.916 6.277 6.277 0 001.992 1.299c.765.317 1.602.476 2.512.476.895 0 1.725-.156 2.49-.466a6.08 6.08 0 001.981-1.277 5.97 5.97 0 001.31-1.905 5.83 5.83 0 00.476-2.349v-.044c0-.837-.159-1.62-.476-2.349a5.987 5.987 0 00-1.32-1.916 6.26 6.26 0 00-1.993-1.299c-.765-.318-1.602-.477-2.51-.477M366.342 137.527h3.29v-2.338c.333.794.787 1.43 1.365 1.905.577.477 1.356.693 2.338.65v-3.443h-.173c-1.098 0-1.96-.332-2.587-.996-.628-.664-.942-1.696-.942-3.095v-4.288h-3.291zM215 105.981a2.622 2.622 0 011.981.877c.252.281.455.62.606 1.018.152.396.228.833.228 1.31v.042c0 .477-.076.913-.228 1.31a3.238 3.238 0 01-.606 1.018 2.649 2.649 0 01-.888.65 2.654 2.654 0 01-1.093.226 2.654 2.654 0 01-1.992-.876 3.14 3.14 0 01-.617-1.007 3.613 3.613 0 01-.227-1.32v-.044c0-.476.075-.913.227-1.309.15-.398.357-.737.617-1.018.26-.282.559-.498.899-.65a2.639 2.639 0 011.093-.227m-.844-2.793c-.68 0-1.336.13-1.971.39a4.863 4.863 0 00-1.688 1.158c-.492.512-.885 1.14-1.181 1.884-.295.743-.443 1.597-.443 2.565v.043c0 .967.148 1.822.443 2.565.296.745.686 1.372 1.17 1.885a4.75 4.75 0 001.678 1.158 5.2 5.2 0 001.992.39c.88 0 1.605-.173 2.176-.519a5.824 5.824 0 001.439-1.213v5.716h3.29v-15.806h-3.29v1.667a5.214 5.214 0 00-1.461-1.353c-.571-.353-1.29-.53-2.154-.53M231.325 110.116c-.101.736-.361 1.332-.78 1.787-.418.454-.973.682-1.667.682-.692 0-1.252-.225-1.678-.672-.426-.447-.703-1.046-.833-1.797zm-2.122-6.972c-.867 0-1.67.145-2.415.433-.744.29-1.385.7-1.927 1.234a5.695 5.695 0 00-1.265 1.895c-.303.728-.455 1.541-.455 2.435v.044c0 .823.14 1.603.422 2.34a5.94 5.94 0 001.18 1.925 5.54 5.54 0 001.808 1.3c.7.317 1.476.476 2.327.476.968 0 1.804-.173 2.512-.519a5.126 5.126 0 001.765-1.398 5.813 5.813 0 001.038-2.013 8.319 8.319 0 00.325-2.782 10.057 10.057 0 00-.033-.455h-8.076c.16-.75.488-1.317.986-1.699.498-.383 1.116-.574 1.852-.574.548 0 1.039.093 1.472.281.433.188.88.49 1.342.91l1.884-1.668a5.835 5.835 0 00-1.992-1.59c-.78-.383-1.696-.575-2.75-.575M249.295 106.414c.678 0 1.299.108 1.862.325a3.997 3.997 0 011.44.931c.397.403.707.88.93 1.429.225.548.337 1.162.337 1.84v.043c0 .664-.112 1.279-.336 1.841a4.308 4.308 0 01-.931 1.45 4.133 4.133 0 01-1.44.943 5.015 5.015 0 01-1.862.336h-2.576v-9.138zm-5.911 12.146h5.91c1.185 0 2.27-.191 3.26-.573a7.708 7.708 0 002.555-1.592 7.086 7.086 0 001.656-2.392c.39-.916.584-1.909.584-2.977v-.044a7.595 7.595 0 00-.584-2.987 7.056 7.056 0 00-1.656-2.404 7.863 7.863 0 00-2.555-1.602c-.99-.389-2.075-.585-3.26-.585h-5.91zM267.238 110.116c-.101.736-.361 1.332-.78 1.787-.419.454-.975.682-1.668.682s-1.252-.225-1.678-.672c-.426-.447-.704-1.046-.833-1.797zm-2.122-6.972c-.866 0-1.671.145-2.414.433-.744.29-1.386.7-1.927 1.234a5.695 5.695 0 00-1.266 1.895c-.305.728-.457 1.541-.457 2.435v.044c0 .823.142 1.603.423 2.34a5.94 5.94 0 001.18 1.925 5.53 5.53 0 001.808 1.3c.7.317 1.475.476 2.327.476.968 0 1.804-.173 2.512-.519a5.126 5.126 0 001.765-1.398 5.83 5.83 0 001.04-2.013 8.318 8.318 0 00.324-2.782 11.758 11.758 0 00-.033-.455h-8.076c.158-.75.487-1.317.985-1.699.498-.383 1.115-.574 1.851-.574.55 0 1.04.093 1.473.281.432.188.88.49 1.342.91l1.883-1.668a5.823 5.823 0 00-1.99-1.59c-.78-.383-1.698-.575-2.75-.575M276.517 103.188c-.823 0-1.664.141-2.522.422a8.072 8.072 0 00-2.457 1.331l1.407 2.165c.635-.462 1.266-.81 1.894-1.039.628-.23 1.216-.346 1.765-.346.476 0 .826.078 1.05.238a.737.737 0 01.336.627v.044a.62.62 0 01-.195.454c-.13.13-.307.243-.531.336-.224.094-.48.184-.768.271-.29.087-.592.181-.91.281-.404.115-.812.257-1.223.423a4.362 4.362 0 00-1.115.65 3.148 3.148 0 00-.812.985c-.21.39-.314.865-.314 1.43v.042c0 .591.112 1.115.335 1.57.224.454.527.841.91 1.158.382.316.83.556 1.342.715a5.6 5.6 0 001.657.237c.736 0 1.483-.118 2.24-.356a8.336 8.336 0 002.09-.986l-1.256-2.273c-.577.332-1.14.596-1.69.79-.547.194-1.031.292-1.45.292-.404 0-.707-.075-.91-.228a.689.689 0 01-.302-.573v-.043c0-.159.065-.3.195-.422.13-.123.303-.238.52-.347a6.82 6.82 0 01.747-.314c.28-.1.58-.202.898-.303.404-.129.816-.286 1.234-.465a5.085 5.085 0 001.126-.66c.332-.26.606-.579.823-.954.217-.375.325-.83.325-1.363v-.044c0-.649-.112-1.209-.335-1.678a3.097 3.097 0 00-.943-1.158 4.227 4.227 0 00-1.418-.682 6.42 6.42 0 00-1.743-.227M289.086 105.981a2.647 2.647 0 011.992.877c.26.281.465.616.617 1.006.152.39.227.83.227 1.321v.043c0 .477-.075.913-.227 1.31a3.134 3.134 0 01-.617 1.018c-.26.281-.56.497-.898.65-.34.151-.704.226-1.094.226-.39 0-.754-.075-1.093-.226a2.63 2.63 0 01-.888-.65 3.219 3.219 0 01-.606-1.018 3.633 3.633 0 01-.228-1.31v-.043c0-.476.076-.913.228-1.309.15-.398.353-.737.606-1.018a2.603 2.603 0 011.98-.877m-6.061 9.028h3.29v-1.667c.404.55.892 1 1.462 1.354.57.353 1.288.53 2.155.53.678 0 1.334-.13 1.97-.39a4.86 4.86 0 001.688-1.158c.49-.513.884-1.14 1.18-1.885.296-.743.444-1.598.444-2.565v-.043c0-.968-.148-1.822-.443-2.565-.297-.744-.686-1.372-1.17-1.884a4.765 4.765 0 00-1.678-1.159 5.201 5.201 0 00-1.991-.389c-.881 0-1.606.173-2.177.52-.57.345-1.05.75-1.44 1.211V99.94h-3.29zM303.016 105.981c.477 0 .899.082 1.267.248.368.166.682.394.94.683.262.288.46.624.597 1.006.137.382.206.791.206 1.223v.044c0 .433-.072.841-.217 1.224a3.055 3.055 0 01-1.602 1.719 2.886 2.886 0 01-1.234.261 3.07 3.07 0 01-1.267-.248 2.796 2.796 0 01-.941-.682 3.007 3.007 0 01-.596-1.007 3.603 3.603 0 01-.206-1.224v-.043c0-.433.073-.84.217-1.224a3.09 3.09 0 011.591-1.72 2.88 2.88 0 011.245-.26m-.043-2.837c-.895 0-1.725.155-2.49.466a5.921 5.921 0 00-3.291 3.183 5.801 5.801 0 00-.476 2.348v.044c0 .837.158 1.62.476 2.35a5.971 5.971 0 001.32 1.915 6.263 6.263 0 001.993 1.3c.764.317 1.602.476 2.51.476.896 0 1.726-.155 2.49-.466a6.084 6.084 0 001.983-1.277 5.968 5.968 0 001.309-1.905c.318-.73.476-1.513.476-2.35v-.043c0-.837-.158-1.62-.476-2.35a6.009 6.009 0 00-1.321-1.916 6.264 6.264 0 00-1.991-1.298 6.487 6.487 0 00-2.512-.477M311.31 115.01h3.292v-2.34c.331.796.786 1.43 1.363 1.907.577.477 1.357.693 2.34.65v-3.443h-.174c-1.098 0-1.96-.332-2.588-.996-.628-.664-.94-1.697-.94-3.096v-4.287h-3.293zM324.219 103.21a5.42 5.42 0 00-1.375.162 2.454 2.454 0 00-1.061.574 2.75 2.75 0 00-.692 1.072c-.166.44-.249.999-.249 1.677v5.5h-1.386v2.815h1.386v2.967h3.29v-2.967h2.729v-2.815h-2.729v-4.975c0-.754.354-1.132 1.061-1.132.578 0 1.119.145 1.624.435v-2.642a5.149 5.149 0 00-1.147-.487 5.199 5.199 0 00-1.451-.184M334.542 105.981c.477 0 .899.082 1.267.248a2.8 2.8 0 01.942.683c.26.288.458.624.595 1.006.138.382.206.791.206 1.223v.044c0 .433-.072.841-.217 1.224a3.044 3.044 0 01-1.602 1.719 2.88 2.88 0 01-1.234.261c-.476 0-.898-.083-1.266-.248a2.81 2.81 0 01-.942-.682 2.988 2.988 0 01-.595-1.007 3.579 3.579 0 01-.206-1.224v-.043c0-.433.072-.84.216-1.224a3.086 3.086 0 011.592-1.72c.368-.174.782-.26 1.244-.26m-.043-2.837c-.895 0-1.725.155-2.49.466a5.921 5.921 0 00-3.291 3.183 5.819 5.819 0 00-.477 2.348v.044c0 .837.16 1.62.477 2.35a5.971 5.971 0 001.321 1.915 6.263 6.263 0 001.992 1.3 6.496 6.496 0 002.511.476c.895 0 1.725-.155 2.49-.466a6.07 6.07 0 001.981-1.277 5.939 5.939 0 001.31-1.905c.318-.73.477-1.513.477-2.35v-.043c0-.837-.159-1.62-.477-2.35a5.99 5.99 0 00-1.32-1.916 6.258 6.258 0 00-1.992-1.298 6.487 6.487 0 00-2.512-.477M356.865 110.116c-.101.736-.361 1.332-.78 1.787-.418.454-.973.682-1.667.682-.692 0-1.252-.225-1.678-.672-.426-.447-.703-1.046-.833-1.797zm-2.122-6.972c-.866 0-1.671.145-2.414.433-.744.29-1.385.7-1.927 1.234a5.695 5.695 0 00-1.266 1.895c-.304.728-.456 1.541-.456 2.435v.044c0 .823.141 1.603.422 2.34a5.94 5.94 0 001.18 1.925 5.54 5.54 0 001.809 1.3c.7.317 1.476.476 2.327.476.968 0 1.805-.173 2.512-.519a5.126 5.126 0 001.765-1.398 5.83 5.83 0 001.039-2.013 8.354 8.354 0 00.324-2.782 8.746 8.746 0 00-.032-.455h-8.076c.159-.75.487-1.317.985-1.699.498-.383 1.116-.574 1.852-.574.548 0 1.039.093 1.472.281.432.188.88.49 1.341.91l1.884-1.668a5.835 5.835 0 00-1.992-1.59c-.779-.383-1.696-.575-2.75-.575M369.357 118.56h3.334v-12.145h7.557v-3.01h-10.891zM386.59 105.462c.78 0 1.403.187 1.872.562.47.375.704.867.704 1.473v.584a5.07 5.07 0 01-2.1.434c-.708 0-1.264-.138-1.667-.412-.405-.275-.607-.671-.607-1.191v-.044c0-.447.166-.793.498-1.04.332-.244.765-.366 1.3-.366m-.997-2.273c-.548 0-1.065.075-1.548.226a3.637 3.637 0 00-1.267.683c-.36.302-.646.675-.855 1.114-.209.44-.313.949-.313 1.527v.043c0 .635.115 1.184.346 1.646.231.462.552.845.963 1.147.412.303.902.53 1.473.68.57.154 1.201.23 1.894.23.592 0 1.108-.044 1.548-.13a9.62 9.62 0 001.288-.347v.195c0 .693-.209 1.219-.627 1.58-.42.362-1.04.542-1.863.542a7.741 7.741 0 01-1.677-.162 11.426 11.426 0 01-1.527-.466l-.822 2.51c.634.276 1.298.5 1.991.672.693.175 1.53.26 2.512.26.91 0 1.685-.111 2.328-.335.641-.224 1.172-.545 1.591-.963.433-.434.75-.964.953-1.592.201-.627.302-1.332.302-2.111v-6.734h-3.182v1.256a4.605 4.605 0 00-1.45-1.072c-.564-.267-1.249-.4-2.058-.4M394.208 105.722l5.998 6.625h-5.803v2.663h9.895v-2.317l-6.02-6.625h6.02v-2.663h-10.09zM413.828 110.116c-.1.736-.36 1.332-.779 1.787-.419.454-.974.682-1.667.682-.694 0-1.253-.225-1.679-.672-.425-.447-.703-1.046-.833-1.797zm-2.122-6.972c-.866 0-1.67.145-2.414.433-.743.29-1.385.7-1.927 1.234a5.71 5.71 0 00-1.266 1.895c-.303.728-.455 1.541-.455 2.435v.044c0 .823.141 1.603.422 2.34a5.94 5.94 0 001.18 1.925 5.54 5.54 0 001.808 1.3c.7.317 1.476.476 2.328.476.967 0 1.804-.173 2.511-.519a5.126 5.126 0 001.765-1.398 5.813 5.813 0 001.04-2.013 8.319 8.319 0 00.324-2.782 10.057 10.057 0 00-.033-.455h-8.076c.16-.75.487-1.317.985-1.699.498-.383 1.116-.574 1.852-.574.548 0 1.04.093 1.472.281.433.188.88.49 1.342.91l1.884-1.668a5.826 5.826 0 00-1.992-1.59c-.779-.383-1.696-.575-2.75-.575M419.129 115.01h3.29v-2.34c.333.796.788 1.43 1.365 1.907.577.477 1.357.693 2.339.65v-3.443h-.174c-1.097 0-1.96-.332-2.587-.996-.628-.664-.942-1.697-.942-3.096v-4.287h-3.291zM348.005 138.685c-1.027 0-1.887.86-1.887 1.89 0 1.028.86 1.887 1.887 1.887a1.906 1.906 0 001.887-1.887c0-1.03-.86-1.89-1.887-1.89"/><path d="M85.04 524.669h671.81M85.04 280.65h671.81" fill="#fff" stroke="#000" stroke-miterlimit="10"/><path d="M85.43 519.998h.88l2.49-6.03 2.5 6.03h.85l-3.01-7.05h-.7zM97.19 515.898c-.02.231-.07.452-.15.661-.08.208-.188.393-.325.552a1.49 1.49 0 01-.5.378 1.56 1.56 0 01-.675.138c-.22 0-.427-.042-.62-.128a1.58 1.58 0 01-.51-.364 2.018 2.018 0 01-.365-.55 2.223 2.223 0 01-.185-.687zm-3.33-.63c.027-.274.093-.517.2-.73a1.74 1.74 0 01.97-.875c.207-.078.423-.116.65-.116.36 0 .668.067.925.201.257.132.492.31.705.53l.48-.43a3.179 3.179 0 00-.89-.706c-.333-.176-.747-.265-1.24-.265-.353 0-.687.066-1 .196a2.46 2.46 0 00-.82.55 2.61 2.61 0 00-.555.855 2.862 2.862 0 00-.205 1.1c0 .373.062.724.185 1.054.123.33.295.618.515.861.22.243.482.434.785.575.303.14.635.21.995.21.38 0 .72-.072 1.02-.215.3-.144.553-.339.76-.585.207-.247.363-.537.47-.87.107-.334.16-.69.16-1.07v-.116a1.37 1.37 0 00-.01-.155zM99.32 518.168h.77v-1.35c.093.213.21.41.35.59.14.18.3.335.48.465a2.028 2.028 0 001.28.385v-.83h-.06c-.28 0-.545-.05-.795-.15-.25-.1-.468-.25-.655-.45a2.146 2.146 0 01-.44-.745 3.018 3.018 0 01-.16-1.025v-2.06h-.77zM105.08 512.898c-.374 0-.75.068-1.13.205-.38.136-.717.321-1.01.555l.39.55c.28-.214.572-.377.875-.49.303-.114.608-.17.915-.17.313 0 .57.073.77.22.2.147.3.346.3.6v.02a.531.531 0 01-.105.33.935.935 0 01-.285.244c-.12.071-.26.132-.415.186a9.194 9.194 0 01-.485.15c-.2.06-.402.124-.605.195a2.48 2.48 0 00-.55.264 1.341 1.341 0 00-.4.401c-.103.16-.155.36-.155.6v.02a1.365 1.365 0 00.495 1.075c.156.13.343.23.56.3.216.07.45.104.705.104.32 0 .643-.05.97-.154.327-.103.623-.242.89-.415l-.35-.58c-.24.153-.492.274-.755.364a2.367 2.367 0 01-.775.136c-.307 0-.55-.072-.73-.216a.655.655 0 01-.27-.534v-.02c0-.12.036-.225.11-.315a.931.931 0 01.295-.235c.123-.067.265-.127.425-.18.16-.054.326-.107.5-.16.2-.06.398-.127.595-.2.196-.074.375-.167.535-.28.16-.114.288-.25.385-.41.097-.16.145-.357.145-.59v-.02a1.42 1.42 0 00-.535-1.14 1.743 1.743 0 00-.58-.306 2.416 2.416 0 00-.725-.104M108.78 518.988c.1.38.222.65.37.81.146.16.34.24.58.24.112 0 .23-.022.35-.066.12-.043.24-.089.36-.139.12-.05.232-.095.34-.135a.838.838 0 01.29-.06c.133 0 .235.037.305.11.07.073.142.2.215.38l.47-.13c-.1-.38-.223-.65-.37-.81a.75.75 0 00-.58-.24c-.113 0-.23.02-.35.06-.12.04-.24.084-.36.134-.12.051-.233.097-.34.141a.783.783 0 01-.29.064c-.133 0-.235-.036-.305-.109-.07-.073-.143-.2-.216-.38zm1.265-5.47c.24 0 .463.033.669.1.205.065.387.16.543.283.156.123.279.27.369.438.089.17.134.356.134.562v.478a9.124 9.124 0 01-.658.15 4.555 4.555 0 01-.847.068c-.478 0-.85-.094-1.111-.283a.88.88 0 01-.394-.75v-.02c0-.16.035-.305.105-.434a.938.938 0 01.284-.323c.12-.087.257-.153.413-.199.156-.047.32-.07.494-.07m-.156-.63c-.24 0-.477.034-.71.1-.233.066-.44.168-.62.305a1.57 1.57 0 00-.435.505c-.11.2-.165.433-.165.7v.02c0 .28.053.525.16.735.106.21.257.384.454.525.198.14.43.246.7.32.27.073.569.11.896.11.332 0 .621-.02.864-.06.244-.04.482-.094.715-.16v.158c0 .457-.132.804-.4 1.04-.267.234-.643.352-1.13.352-.306 0-.584-.033-.834-.1a4.392 4.392 0 01-.736-.27l-.23.633c.288.135.578.244.87.325.294.081.63.122 1.01.122.734 0 1.29-.19 1.67-.57.36-.36.54-.867.54-1.52v-3.16h-.76v.77a2.48 2.48 0 00-.724-.615c-.303-.177-.682-.266-1.135-.266" fill="#231f20"/><g><path d="M116.52 513.568c.28 0 .536.053.77.16a1.876 1.876 0 01.99 1.06c.092.24.14.496.14.77v.02c0 .28-.049.541-.146.785a1.953 1.953 0 01-1.015 1.075 1.8 1.8 0 01-.76.16 1.823 1.823 0 01-1.365-.59 1.97 1.97 0 01-.385-.635 2.133 2.133 0 01-.14-.776v-.019c0-.28.048-.542.145-.785a1.93 1.93 0 011.005-1.065 1.8 1.8 0 01.76-.16m-.02-.69a2.655 2.655 0 00-2.68 2.68v.02a2.716 2.716 0 00.76 1.9 2.659 2.659 0 001.94.8 2.677 2.677 0 001.93-.795c.24-.244.428-.527.56-.85.134-.324.2-.669.2-1.036v-.019c0-.367-.067-.714-.204-1.04a2.743 2.743 0 00-.565-.86 2.664 2.664 0 00-.86-.586 2.728 2.728 0 00-1.08-.214" fill="#231f20"/></g><g><path d="M123.6 520.298h.77v-3.03c.172.28.4.518.68.716.28.196.642.294 1.09.294.312 0 .591-.05.834-.15.243-.1.45-.241.62-.425.17-.183.3-.401.39-.655.09-.253.135-.533.135-.84v-3.21h-.77v3.014c0 .478-.124.857-.37 1.138-.247.279-.6.419-1.06.419-.22 0-.425-.04-.615-.116a1.426 1.426 0 01-.495-.33 1.473 1.473 0 01-.325-.513 1.813 1.813 0 01-.115-.66v-2.952h-.77z" fill="#231f20"/></g><g><path d="M132.14 513.568c.28 0 .536.053.77.16a1.876 1.876 0 01.99 1.06c.092.24.14.496.14.77v.02c0 .28-.049.541-.146.785a1.953 1.953 0 01-1.015 1.075 1.8 1.8 0 01-.76.16 1.823 1.823 0 01-1.365-.59 1.988 1.988 0 01-.385-.635 2.154 2.154 0 01-.14-.776v-.019c0-.28.048-.542.145-.785a1.93 1.93 0 011.005-1.065 1.8 1.8 0 01.76-.16m-.02-.69a2.655 2.655 0 00-2.68 2.68v.02c0 .366.067.713.2 1.04.133.326.32.613.56.86a2.659 2.659 0 001.94.8 2.673 2.673 0 002.49-1.646c.133-.323.2-.668.2-1.035v-.019c0-.367-.068-.714-.205-1.04a2.743 2.743 0 00-.565-.86 2.664 2.664 0 00-.86-.586 2.725 2.725 0 00-1.08-.214" fill="#231f20"/></g><g><path d="M136.22 518.168h.77v-1.35c.093.213.21.41.35.59.14.18.3.335.48.465a2.028 2.028 0 001.28.385v-.83h-.06c-.28 0-.545-.05-.795-.15-.25-.1-.47-.25-.655-.45a2.13 2.13 0 01-.44-.745 3.018 3.018 0 01-.16-1.025v-2.06h-.77z" fill="#231f20"/></g><path d="M140.34 518.168h.77v-5.17h-.77zm-.051 1.98h.88v-.851h-.88z" fill="#231f20"/><g><path d="M142.6 513.488l3.43 4.03h-3.31v.65h4.36v-.49l-3.44-4.03h3.44v-.65h-4.48z" fill="#231f20"/></g><g><path d="M150.84 513.568c.28 0 .536.053.77.16a1.876 1.876 0 01.99 1.06c.092.24.14.496.14.77v.02c0 .28-.049.541-.146.785a1.953 1.953 0 01-1.015 1.075 1.8 1.8 0 01-.76.16 1.823 1.823 0 01-1.365-.59 1.97 1.97 0 01-.385-.635 2.133 2.133 0 01-.14-.776v-.019c0-.28.048-.542.145-.785a1.93 1.93 0 011.005-1.065 1.8 1.8 0 01.76-.16m-.02-.69a2.655 2.655 0 00-2.68 2.68v.02a2.716 2.716 0 00.76 1.9 2.659 2.659 0 001.94.8 2.677 2.677 0 001.93-.795c.24-.244.427-.527.56-.85.133-.324.2-.669.2-1.036v-.019c0-.367-.068-.714-.205-1.04a2.743 2.743 0 00-.565-.86 2.664 2.664 0 00-.86-.586 2.728 2.728 0 00-1.08-.214" fill="#231f20"/></g><g><path d="M154.92 518.168h.77v-.9c.172.28.4.518.68.715.28.197.642.295 1.09.295.313 0 .591-.05.834-.15.243-.1.45-.241.62-.425.17-.183.3-.401.39-.655.09-.253.135-.533.135-.84v-3.21h-.77v3.014c0 .478-.123.857-.37 1.137s-.6.419-1.06.419c-.22 0-.425-.04-.615-.115a1.426 1.426 0 01-.495-.33 1.488 1.488 0 01-.325-.513 1.839 1.839 0 01-.115-.66v-2.952h-.77z" fill="#231f20"/></g><g><path d="M162.81 512.908c-.208 0-.4.026-.58.08-.18.053-.336.138-.466.255-.13.116-.232.27-.305.455a1.82 1.82 0 00-.11.67v3.12h-.72v.68h.72v1.56h.77v-1.56h1.64v-.68h-1.64v-3.013c0-.319.08-.542.24-.668.16-.126.37-.189.63-.189a1.66 1.66 0 01.75.17v-.66a1.727 1.727 0 00-.425-.165 2.164 2.164 0 00-.505-.055" fill="#231f20"/></g><g><path d="M166.815 513.518c.239 0 .462.033.668.1.206.066.387.16.543.284.156.123.279.268.369.437.089.169.134.357.134.563v.477a8.665 8.665 0 01-.657.15 4.566 4.566 0 01-.848.069c-.478 0-.848-.095-1.111-.283a.882.882 0 01-.393-.752v-.02a.89.89 0 01.104-.432.94.94 0 01.284-.323 1.35 1.35 0 01.414-.2c.156-.047.32-.07.493-.07m-.156-.63c-.24 0-.476.033-.71.1a1.86 1.86 0 00-.62.304c-.18.137-.325.305-.434.505a1.42 1.42 0 00-.165.7v.02c0 .28.053.525.159.735.107.21.259.385.455.526.197.14.43.246.7.32.27.072.569.11.896.11.333 0 .62-.02.865-.06a6.55 6.55 0 00.715-.16v.158c0 .457-.134.804-.401 1.04-.266.233-.643.352-1.13.352-.306 0-.585-.034-.835-.1a4.31 4.31 0 01-.735-.27l-.23.633c.287.135.577.243.87.324a3.8 3.8 0 001.01.122c.734 0 1.29-.19 1.67-.57.36-.359.54-.866.54-1.519v-3.16h-.76v.77a2.484 2.484 0 00-.725-.615c-.303-.177-.681-.266-1.135-.266" fill="#231f20"/></g><path d="M170.979 520.298h.77v-7.3h-.77z" fill="#231f20"/><g><path d="M88.5 499.588c-.894.5-1.58 1.106-2.06 1.82-.48.713-.72 1.534-.72 2.46 0 .927.24 1.746.72 2.46.48.713 1.166 1.32 2.06 1.82l.33-.51c-.767-.487-1.345-1.034-1.735-1.645-.39-.61-.585-1.318-.585-2.125 0-.806.195-1.514.585-2.125.39-.61.968-1.158 1.735-1.645z" fill="#231f20"/></g><g><path d="M92.894 504.178c.288 0 .55.037.787.11.237.075.441.179.612.317.17.136.301.299.391.486.09.188.135.399.135.632v.02c0 .5-.172.88-.516 1.139-.345.258-.8.386-1.369.386H91.16v-3.09zm-2.525 3.82h2.62c.394 0 .752-.051 1.075-.155a2.46 2.46 0 00.83-.44 1.91 1.91 0 00.53-.695c.124-.273.185-.583.185-.93v-.02c0-.38-.073-.712-.22-.995a2.123 2.123 0 00-.595-.715 2.582 2.582 0 00-.875-.434 3.77 3.77 0 00-1.06-.146h-1.7v-2.47h-.79z" fill="#231f20"/></g><g><path d="M96.92 506.168h.77v-1.35c.093.213.21.41.35.59.14.18.3.335.48.465a2.028 2.028 0 001.28.385v-.83h-.06c-.28 0-.545-.05-.795-.15-.25-.1-.47-.25-.655-.45a2.13 2.13 0 01-.44-.745 3.018 3.018 0 01-.16-1.025v-2.06h-.77z" fill="#231f20"/></g><path d="M101.04 506.168h.77v-5.17h-.77zm-.05 1.98h.88v-.851h-.88z" fill="#231f20"/><g><path d="M103.6 506.168h.77v-.9c.172.28.4.518.68.715.28.197.642.295 1.09.295.313 0 .591-.05.834-.15.243-.1.45-.241.62-.425.17-.183.3-.401.39-.655.09-.253.135-.533.135-.84v-3.21h-.77v3.014c0 .478-.123.857-.37 1.137s-.6.419-1.06.419c-.22 0-.425-.04-.615-.115a1.426 1.426 0 01-.495-.33 1.488 1.488 0 01-.325-.513 1.839 1.839 0 01-.115-.66v-2.952h-.77z" fill="#231f20"/></g><g><path d="M112.09 500.878c-.38 0-.733.072-1.056.215a2.63 2.63 0 00-1.395 1.435c-.133.327-.2.67-.2 1.03v.02a2.735 2.735 0 00.755 1.9 2.594 2.594 0 001.895.799c.247 0 .47-.022.67-.07a2.48 2.48 0 001.01-.49c.14-.112.27-.233.39-.36l-.51-.54a3.662 3.662 0 01-.675.55c-.243.155-.54.23-.895.23-.26 0-.503-.051-.73-.154a1.825 1.825 0 01-.59-.425 1.945 1.945 0 01-.39-.635 2.18 2.18 0 01-.14-.785v-.02c0-.28.048-.542.145-.785.097-.243.23-.457.4-.64s.37-.327.6-.43c.23-.104.482-.155.755-.155.333 0 .628.074.885.22.257.147.488.33.695.55l.49-.46a3.456 3.456 0 00-.885-.72c-.33-.186-.738-.28-1.225-.28" fill="#231f20"/></g><path d="M115.539 506.168h.77v-5.17h-.77zm-.049 1.98h.88v-.851h-.88z" fill="#231f20"/><g><path d="M120.71 501.578c.246 0 .48.045.704.135.223.09.417.22.58.39.163.17.293.378.39.625a2.3 2.3 0 01.145.84v.02c0 .306-.049.583-.145.83a1.886 1.886 0 01-.395.63 1.743 1.743 0 01-1.28.54c-.24 0-.472-.048-.695-.145a1.964 1.964 0 01-1.02-1.04 2.048 2.048 0 01-.155-.805v-.02c0-.3.052-.573.155-.82a1.901 1.901 0 011.02-1.035c.223-.097.455-.145.695-.145m-2.61 4.59h.77v-1.04c.107.153.225.3.355.44a2.225 2.225 0 00.97.614c.197.064.415.096.655.096.307 0 .608-.06.905-.18.297-.12.561-.295.795-.525.233-.23.42-.51.56-.84.14-.33.21-.709.21-1.135v-.02c0-.42-.07-.797-.21-1.13a2.598 2.598 0 00-.555-.845 2.414 2.414 0 00-2.365-.625 2.213 2.213 0 00-.975.59c-.13.133-.245.274-.345.42v-2.59h-.77z" fill="#231f20"/></g><g><path d="M126.435 501.517c.239 0 .462.033.668.1.206.066.387.161.543.284.156.123.279.268.369.437.089.17.134.357.134.563v.477a8.665 8.665 0 01-.657.15 4.566 4.566 0 01-.848.07c-.478 0-.85-.096-1.111-.284a.883.883 0 01-.394-.75v-.022a.89.89 0 01.105-.432.93.93 0 01.284-.323 1.35 1.35 0 01.414-.2c.156-.047.32-.07.493-.07m-.156-.63c-.24 0-.476.034-.71.101a1.86 1.86 0 00-.62.304 1.59 1.59 0 00-.435.505c-.11.2-.165.434-.165.7v.02c0 .28.054.525.16.735.107.21.259.385.455.526.197.14.43.246.7.32.27.072.569.11.896.11.333 0 .62-.02.864-.06.244-.04.482-.094.715-.16v.158c0 .457-.133.804-.4 1.04-.266.233-.643.352-1.13.352-.306 0-.585-.034-.835-.1a4.31 4.31 0 01-.735-.27l-.23.633c.287.135.577.243.87.324.294.081.63.122 1.01.122.734 0 1.29-.19 1.67-.57.36-.359.54-.866.54-1.519v-3.16h-.76v.77a2.467 2.467 0 00-.725-.615c-.303-.177-.681-.266-1.135-.266" fill="#231f20"/></g><path d="M130.599 508.298h.77v-7.3h-.77z" fill="#231f20"/><g><path d="M132.86 500.098c.765.487 1.344 1.035 1.734 1.646.39.61.585 1.318.585 2.125 0 .806-.195 1.514-.585 2.125-.39.61-.969 1.158-1.735 1.644l.33.51c.893-.5 1.58-1.107 2.06-1.82.48-.713.72-1.533.72-2.46 0-.926-.24-1.747-.72-2.46-.48-.713-1.167-1.32-2.06-1.82z" fill="#231f20"/></g><g><path d="M85.43 276.2h.88l2.49-6.03 2.5 6.03h.85l-3.01-7.05h-.7z" fill="#231f20"/></g><g><path d="M97.19 272.1c-.02.23-.07.452-.15.66-.08.209-.188.394-.325.553a1.49 1.49 0 01-.5.378 1.56 1.56 0 01-.675.138c-.22 0-.427-.042-.62-.128a1.58 1.58 0 01-.51-.364 2.018 2.018 0 01-.365-.551 2.223 2.223 0 01-.185-.686zm-3.33-.631c.027-.273.093-.516.2-.73a1.74 1.74 0 01.97-.874c.207-.078.423-.116.65-.116.36 0 .668.067.925.2s.492.31.705.53l.48-.43a3.179 3.179 0 00-.89-.705c-.333-.176-.747-.265-1.24-.265-.353 0-.687.066-1 .196a2.46 2.46 0 00-.82.55 2.61 2.61 0 00-.555.855 2.862 2.862 0 00-.205 1.1c0 .373.062.724.185 1.054.123.33.295.618.515.86.22.244.482.435.785.576.303.14.635.21.995.21.38 0 .72-.072 1.02-.215.3-.144.553-.34.76-.585.207-.247.363-.537.47-.87.107-.334.16-.69.16-1.07v-.116a1.37 1.37 0 00-.01-.155z" fill="#231f20"/></g><g><path d="M99.32 274.37h.77v-1.35c.093.212.21.41.35.59.14.18.3.334.48.464a2.028 2.028 0 001.28.385v-.83h-.06c-.28 0-.545-.05-.795-.15-.25-.1-.468-.25-.655-.45a2.146 2.146 0 01-.44-.745 3.018 3.018 0 01-.16-1.025v-2.06h-.77z" fill="#231f20"/></g><g><path d="M105.08 269.1c-.374 0-.75.068-1.13.205-.38.136-.717.32-1.01.555l.39.55c.28-.214.572-.377.875-.491.303-.113.608-.17.915-.17.313 0 .57.074.77.22.2.148.3.347.3.6v.02a.531.531 0 01-.105.33.935.935 0 01-.285.245c-.12.07-.26.132-.415.186a9.194 9.194 0 01-.485.149c-.2.06-.402.125-.605.196a2.48 2.48 0 00-.55.264 1.341 1.341 0 00-.4.4c-.103.16-.155.36-.155.6v.02a1.365 1.365 0 00.495 1.075c.156.13.343.23.56.3.216.07.45.105.705.105.32 0 .643-.051.97-.154.327-.103.623-.242.89-.415l-.35-.58c-.24.153-.492.274-.755.364a2.367 2.367 0 01-.775.136c-.307 0-.55-.072-.73-.216a.655.655 0 01-.27-.534v-.021c0-.12.036-.224.11-.314a.931.931 0 01.295-.235c.123-.067.265-.127.425-.18.16-.054.326-.107.5-.16.2-.061.398-.127.595-.2.196-.074.375-.167.535-.281.16-.113.288-.25.385-.41.097-.16.145-.356.145-.59v-.02a1.42 1.42 0 00-.535-1.14 1.743 1.743 0 00-.58-.305 2.416 2.416 0 00-.725-.104" fill="#231f20"/></g><g><path d="M108.78 275.19c.1.38.222.648.37.81.146.16.34.24.58.24.112 0 .23-.023.35-.067.12-.043.24-.089.36-.139.12-.05.232-.095.34-.135a.838.838 0 01.29-.06c.133 0 .235.037.305.11.07.073.142.2.215.38l.47-.13c-.1-.38-.223-.65-.37-.81a.75.75 0 00-.58-.24c-.113 0-.23.02-.35.06-.12.04-.24.084-.36.134-.12.051-.233.097-.34.141a.783.783 0 01-.29.064c-.133 0-.235-.036-.305-.109-.07-.073-.143-.2-.216-.38zm1.265-5.472c.24 0 .463.034.669.1.205.066.387.161.543.284.156.123.279.27.369.438.089.17.134.356.134.562v.478a9.124 9.124 0 01-.658.15 4.555 4.555 0 01-.847.068c-.478 0-.85-.094-1.111-.283a.88.88 0 01-.394-.75v-.02c0-.16.035-.305.105-.434a.938.938 0 01.284-.323c.12-.087.257-.153.413-.199.156-.047.32-.07.494-.07m-.156-.63c-.24 0-.477.034-.71.1-.233.066-.44.168-.62.305a1.57 1.57 0 00-.435.505c-.11.2-.165.433-.165.7v.02c0 .28.053.525.16.735.106.21.257.384.454.525.198.14.43.246.7.32.27.073.569.11.896.11.332 0 .621-.02.864-.06.244-.04.482-.094.715-.16v.158c0 .457-.132.804-.4 1.04-.267.234-.643.352-1.13.352-.306 0-.584-.033-.834-.1a4.392 4.392 0 01-.736-.27l-.23.633c.288.135.578.244.87.325.294.081.63.122 1.01.122.734 0 1.29-.19 1.67-.57.36-.36.54-.867.54-1.52v-3.16h-.76v.77a2.48 2.48 0 00-.724-.615c-.303-.177-.682-.266-1.135-.266" fill="#231f20"/></g><g><path d="M116.52 269.77c.28 0 .536.053.77.16a1.876 1.876 0 01.99 1.06c.092.24.14.496.14.769v.02c0 .28-.049.542-.146.786a1.953 1.953 0 01-1.015 1.075 1.8 1.8 0 01-.76.159 1.823 1.823 0 01-1.365-.59 1.97 1.97 0 01-.385-.634 2.133 2.133 0 01-.14-.776v-.02c0-.28.048-.541.145-.784a1.93 1.93 0 011.005-1.065 1.8 1.8 0 01.76-.16m-.02-.69a2.655 2.655 0 00-2.68 2.678v.021a2.716 2.716 0 00.76 1.9 2.659 2.659 0 001.94.8 2.677 2.677 0 001.93-.794c.24-.244.428-.527.56-.851.134-.323.2-.668.2-1.035v-.02c0-.367-.067-.714-.204-1.04a2.743 2.743 0 00-.565-.86 2.664 2.664 0 00-.86-.586 2.728 2.728 0 00-1.08-.214" fill="#231f20"/></g><g><path d="M123.09 274.37h.85l1.74-4.29 1.75 4.29h.83l-2.25-5.21h-.68z" fill="#231f20"/></g><g><path d="M133.26 272.1c-.02.23-.07.452-.15.66-.08.209-.19.394-.326.553a1.5 1.5 0 01-.5.378 1.563 1.563 0 01-.675.138c-.22 0-.427-.042-.62-.128a1.558 1.558 0 01-.51-.364 1.995 1.995 0 01-.365-.551 2.223 2.223 0 01-.185-.686zm-3.33-.631c.026-.273.092-.516.2-.73a1.74 1.74 0 01.97-.874c.206-.078.422-.116.65-.116.36 0 .667.067.924.2s.491.31.705.53l.48-.43a3.179 3.179 0 00-.89-.705c-.333-.176-.747-.265-1.24-.265a2.58 2.58 0 00-1 .196 2.45 2.45 0 00-.82.55 2.61 2.61 0 00-.555.855 2.862 2.862 0 00-.205 1.1c0 .373.061.724.185 1.054.123.33.295.618.515.86.22.244.482.435.785.576.303.14.635.21.995.21.38 0 .72-.072 1.02-.215.3-.144.553-.34.76-.585.207-.247.363-.537.47-.87.107-.334.16-.69.16-1.07v-.116a1.37 1.37 0 00-.01-.155z" fill="#231f20"/></g><g><path d="M135.39 274.37h.77v-1.35c.092.212.21.41.35.59.14.18.3.334.48.464a2.028 2.028 0 001.28.385v-.83h-.06c-.28 0-.546-.05-.796-.15-.25-.1-.469-.25-.655-.45a2.13 2.13 0 01-.44-.745 3.018 3.018 0 01-.16-1.025v-2.06h-.77z" fill="#231f20"/></g><g><path d="M141.17 269.11c-.208 0-.4.025-.58.08-.18.052-.336.137-.466.254-.13.116-.232.27-.305.455a1.82 1.82 0 00-.11.67v3.12h-.72v.68h.72v1.56h.77v-1.56h1.64v-.68h-1.64v-3.013c0-.319.08-.542.24-.668.16-.126.37-.189.63-.189a1.66 1.66 0 01.75.17v-.66a1.727 1.727 0 00-.425-.165 2.164 2.164 0 00-.505-.055" fill="#231f20"/></g><path d="M143.549 274.369h.77v-5.17h-.77zm-.05 1.981h.88v-.851h-.88z" fill="#231f20"/><g><path d="M148.439 269.08c-.38 0-.731.071-1.055.214a2.673 2.673 0 00-.84.58 2.707 2.707 0 00-.755 1.885v.02a2.735 2.735 0 00.755 1.901 2.597 2.597 0 001.895.799c.247 0 .47-.023.67-.07a2.48 2.48 0 001.01-.49c.14-.113.27-.234.39-.36l-.51-.54a3.629 3.629 0 01-.675.55c-.243.154-.541.23-.895.23-.26 0-.503-.052-.73-.155a1.825 1.825 0 01-.59-.425 1.962 1.962 0 01-.39-.635 2.18 2.18 0 01-.14-.785v-.02c0-.28.048-.542.145-.785.097-.243.23-.457.4-.64s.37-.327.6-.43c.23-.104.482-.155.755-.155.334 0 .628.074.885.22.257.147.489.33.695.55l.49-.46a3.456 3.456 0 00-.885-.72c-.33-.186-.738-.28-1.225-.28" fill="#231f20"/></g><g><path d="M153.514 269.719c.24 0 .462.033.668.1.206.066.387.16.543.284.156.123.28.268.37.437.088.169.133.357.133.563v.477a8.665 8.665 0 01-.657.15 4.566 4.566 0 01-.848.069c-.478 0-.848-.095-1.11-.283a.882.882 0 01-.394-.751v-.021a.89.89 0 01.104-.432.94.94 0 01.284-.323 1.35 1.35 0 01.414-.2c.156-.047.32-.07.493-.07m-.156-.63c-.24 0-.476.034-.71.1a1.86 1.86 0 00-.62.305c-.18.137-.325.305-.434.505a1.42 1.42 0 00-.165.7v.02c0 .28.053.525.16.735.106.21.258.385.454.526.197.139.43.246.7.319.271.073.57.11.896.11.333 0 .621-.02.865-.06a6.55 6.55 0 00.715-.16v.159c0 .457-.134.804-.4 1.039-.267.234-.644.353-1.13.353-.307 0-.586-.034-.836-.1a4.31 4.31 0 01-.735-.271l-.229.634c.286.135.576.243.87.324a3.8 3.8 0 001.01.122c.733 0 1.29-.19 1.67-.57.36-.36.54-.866.54-1.52v-3.16h-.76v.77a2.484 2.484 0 00-.726-.614c-.303-.177-.68-.266-1.135-.266" fill="#231f20"/></g><path d="M157.679 276.499h.77v-7.3h-.77z" fill="#231f20"/></g></svg>