<svg width="500" height="115.455" xmlns="http://www.w3.org/2000/svg"><defs><clipPath clipPathUnits="userSpaceOnUse" id="prefix__a"><path d="M0 595.275h841.89V0H0z"/></clipPath></defs><g clip-path="url(#prefix__a)" transform="matrix(1.33333 0 0 -1.33333 -278.754 635.034)"><path d="M210.425 441.122h9.368v-31.27h-9.368zM292.25 441.122l-11.553-31.27h-10.619l-11.552 31.27h10.367l6.495-19.825 6.494 19.825zM292.875 425.487c0 9.317 7.058 16.51 16.552 16.51 6.056 0 11.428-3.19 14.113-8.006l-8.18-4.752c-1.063 2.188-3.312 3.502-6.06 3.502-4.058 0-7.056-2.938-7.056-7.254 0-4.316 2.998-7.255 7.056-7.255 2.748 0 5.06 1.314 6.06 3.503l8.18-4.691c-2.685-4.877-7.994-8.068-14.113-8.068-9.494 0-16.552 7.192-16.552 16.511M241.362 418.232c-3.563 0-6.665 2.33-6.665 6.957 0 5.13 2.968 7.551 6.697 7.551 4.06 0 7.041-2.938 7.041-7.254 0-4.315-3.014-7.254-7.073-7.254m-.125 23.765c-8.042 0-15.212-7.566-15.212-15.681l.023-36.632h9.397v21.292c1.203-1.115 3.76-1.999 5.844-1.999 9.494 0 16.526 7.19 16.526 16.509 0 9.318-7.084 16.511-16.578 16.511"/><path d="M319.557 458.836c-3.505-4.07-8.41-6.318-13.463-6.318-5.052 0-9.996 2.247-13.501 6.315a17.5 17.5 0 00-.772.97c-.25-.33-.504-.652-.775-.967-3.504-4.07-8.457-6.318-13.51-6.318-5.05 0-10.004 2.247-13.509 6.315-.27.315-.529.639-.778.97a18 18 0 00-.777-.967c-3.504-4.07-8.458-6.318-13.51-6.318-5.05 0-10.006 2.363-13.51 6.432-2.413 2.802-3.92 6.501-4.574 10.11h8.615c1.318-4.811 4.335-8.022 9.097-8.022 6.202 0 9.705 5.49 9.705 12.257v2.98h9.172l-.006-3.183c0-6.766 3.876-12.273 10.077-12.273 6.202 0 10.078 5.456 10.078 12.224l-.015 3.232h8.427l.008-3.18c0-6.77 3.876-12.276 10.077-12.276 6.202 0 10.079 5.456 10.079 12.224l-.009 3.232h8.259v-2.98c0-5.437-1.535-10.57-4.885-14.46M215.108 458.523c-3.29 0-6.042 2.757-6.042 6.05 0 3.296 2.752 6.053 6.042 6.053s6.042-2.757 6.042-6.052c0-3.294-2.752-6.05-6.042-6.05" fill="#0055a4"/><path d="M355.683 462.166h15.845v-4.119h-11.275v-4.27h9.922v-4.118h-9.922v-4.42h11.426v-4.12h-15.996zM380.671 440.819c-1.142 0-2.31.195-3.503.586-1.192.39-2.33 1.008-3.412 1.85l1.954 3.006c.882-.642 1.759-1.122 2.632-1.443.872-.32 1.687-.481 2.45-.481.66 0 1.147.11 1.457.33.312.22.467.512.467.872v.06c0 .241-.09.452-.27.632a2.28 2.28 0 01-.738.467c-.31.13-.666.255-1.067.375-.4.12-.821.25-1.263.39a16.45 16.45 0 00-1.698.588 6.04 6.04 0 00-1.549.902c-.462.369-.837.826-1.127 1.367-.29.541-.436 1.203-.436 1.984v.06c0 .822.155 1.55.466 2.18a4.84 4.84 0 001.262 1.609c.531.44 1.153.772 1.865.992.711.22 1.478.33 2.3.33 1.022 0 2.06-.164 3.112-.495a11.581 11.581 0 002.901-1.368l-1.744-3.157c-.802.462-1.584.826-2.345 1.098-.761.27-1.434.405-2.014.405-.562 0-.983-.104-1.263-.316-.282-.21-.421-.475-.421-.796v-.06c0-.22.09-.417.27-.586.18-.172.421-.33.722-.481.3-.15.646-.297 1.038-.437.39-.14.806-.28 1.247-.42.562-.181 1.133-.396 1.714-.648a7.06 7.06 0 001.563-.916c.461-.361.842-.802 1.143-1.323.3-.52.45-1.153.45-1.894v-.06c0-.902-.154-1.68-.466-2.33a4.28 4.28 0 00-1.307-1.61 5.871 5.871 0 00-1.969-.946 8.952 8.952 0 00-2.42-.316M397.1 440.76c-1.203 0-2.321.22-3.353.66a8.215 8.215 0 00-2.66 1.789 8.219 8.219 0 00-1.744 2.646 8.338 8.338 0 00-.632 3.233v.06c0 1.142.21 2.225.632 3.247a8.334 8.334 0 001.744 2.675 8.086 8.086 0 002.66 1.804c1.032.442 2.17.662 3.413.662 1.523 0 2.785-.24 3.788-.721a8.535 8.535 0 002.646-1.985l-2.796-3.006a7.504 7.504 0 01-1.61 1.291c-.55.321-1.237.483-2.058.483a3.555 3.555 0 01-1.58-.346 3.936 3.936 0 01-1.232-.947c-.35-.4-.622-.867-.812-1.398a5.023 5.023 0 01-.285-1.7v-.06c0-.621.095-1.202.285-1.744.19-.54.467-1.012.828-1.412.36-.4.791-.717 1.293-.947a3.955 3.955 0 011.683-.347c.762 0 1.428.155 2 .466a8.485 8.485 0 011.699 1.249l2.675-2.706a10.299 10.299 0 00-2.675-2.12c-1.004-.551-2.306-.827-3.91-.827M413.477 444.697c.661 0 1.248.116 1.76.347.51.23.946.546 1.307.946.36.4.636.867.827 1.399.19.531.285 1.097.285 1.698v.06c0 .601-.1 1.168-.3 1.7a4.282 4.282 0 01-2.226 2.39 4.04 4.04 0 01-1.713.36c-.662 0-1.248-.114-1.759-.345a3.9 3.9 0 01-1.308-.948c-.36-.4-.636-.867-.826-1.397a4.982 4.982 0 01-.287-1.7v-.06c0-.601.101-1.168.301-1.698.2-.532.49-1.003.872-1.413a4.287 4.287 0 011.339-.977c.51-.24 1.087-.362 1.728-.362m-.06-3.937c-1.243 0-2.396.214-3.458.646a8.416 8.416 0 00-2.75 1.773 8.263 8.263 0 00-1.82 2.645 8.079 8.079 0 00-.662 3.263v.06c0 1.163.22 2.25.662 3.263a8.322 8.322 0 001.834 2.66 8.67 8.67 0 002.766 1.804c1.062.442 2.225.663 3.488.663 1.242 0 2.394-.217 3.457-.647a8.466 8.466 0 002.752-1.774 8.27 8.27 0 001.819-2.646c.441-1.013.661-2.1.661-3.263v-.06c0-1.163-.22-2.25-.661-3.262a8.314 8.314 0 00-1.834-2.661 8.712 8.712 0 00-2.767-1.804c-1.062-.44-2.225-.66-3.487-.66M425.13 463.068h4.57V441.12h-4.57zM439.498 443.976c1.083 0 1.95.261 2.602.782.65.52.978 1.202.978 2.044v.812c-.402.18-.848.326-1.339.437a7.254 7.254 0 01-1.579.164c-.983 0-1.754-.19-2.315-.57-.56-.382-.842-.933-.842-1.655v-.06c0-.621.23-1.102.691-1.443.461-.34 1.062-.511 1.804-.511m-1.383-3.157c-.76 0-1.478.106-2.149.316a5.01 5.01 0 00-1.758.947c-.502.42-.898.937-1.188 1.549-.291.61-.437 1.318-.437 2.119v.06c0 .882.161 1.644.481 2.285a4.397 4.397 0 001.339 1.594c.571.42 1.252.736 2.044.946.792.212 1.668.316 2.63.316.822 0 1.539-.06 2.15-.18.612-.12 1.207-.281 1.79-.481v.27c0 .963-.29 1.694-.873 2.195-.58.502-1.443.752-2.585.752-.883 0-1.659-.076-2.33-.226a15.52 15.52 0 01-2.119-.646l-1.144 3.488c.883.38 1.804.691 2.766.932.962.24 2.125.36 3.488.36 1.263 0 2.34-.154 3.233-.466.891-.31 1.628-.756 2.21-1.337.6-.602 1.042-1.338 1.323-2.21.28-.873.42-1.85.42-2.932v-9.35h-4.42v1.744a6.345 6.345 0 00-2.014-1.488c-.782-.372-1.734-.557-2.857-.557M467.761 440.819c-1.603 0-3.177.275-4.72.826a12.5 12.5 0 00-4.21 2.541l2.736 3.278a13.739 13.739 0 012.961-1.864c1.013-.461 2.12-.692 3.323-.692.962 0 1.71.176 2.24.527.531.35.797.836.797 1.457v.06c0 .301-.055.566-.166.798-.11.23-.322.445-.633.646-.311.2-.744.4-1.296.601-.553.201-1.271.411-2.156.632-1.065.26-2.03.55-2.894.871-.865.32-1.598.717-2.2 1.188a4.797 4.797 0 00-1.402 1.759c-.332.701-.498 1.574-.498 2.616v.06c0 .962.178 1.83.538 2.601.358.771.86 1.439 1.508 2 .647.56 1.42.991 2.319 1.292.898.3 1.889.451 2.971.451 1.543 0 2.961-.23 4.255-.69a12.387 12.387 0 003.563-1.986l-2.406-3.488c-.943.641-1.864 1.148-2.766 1.52a7.098 7.098 0 01-2.706.555c-.902 0-1.579-.176-2.03-.527-.45-.35-.676-.786-.676-1.307v-.06c0-.342.065-.636.196-.888.13-.25.367-.475.709-.676.341-.2.81-.39 1.402-.571.592-.18 1.34-.39 2.245-.631a21.767 21.767 0 002.85-.947c.833-.351 1.536-.772 2.109-1.263a4.81 4.81 0 001.296-1.73c.291-.66.438-1.453.438-2.374v-.06c0-1.042-.19-1.97-.567-2.782a5.728 5.728 0 00-1.583-2.045c-.678-.55-1.487-.972-2.425-1.263-.939-.29-1.98-.435-3.122-.435M483.946 440.819c-1.744 0-3.092.53-4.045 1.594-.95 1.062-1.427 2.525-1.427 4.39v10.432h4.57v-8.968c0-1.08.24-1.895.722-2.445.48-.55 1.161-.824 2.044-.824.882 0 1.578.275 2.09.824.51.55.766 1.365.766 2.445v8.968h4.57V441.12h-4.57v2.304a9.566 9.566 0 00-.857-.984 5.937 5.937 0 00-1.037-.834 5.208 5.208 0 00-1.263-.575 5.35 5.35 0 00-1.563-.212M505.353 444.697c.54 0 1.047.106 1.519.317.47.209.886.51 1.247.902.36.39.647.857.857 1.398.21.54.315 1.152.315 1.833v.06c0 .663-.104 1.27-.315 1.82a4.324 4.324 0 01-.857 1.412 3.76 3.76 0 01-1.247.902 3.665 3.665 0 01-1.52.316 3.655 3.655 0 01-1.517-.316 3.588 3.588 0 01-1.233-.902 4.44 4.44 0 01-.842-1.412 5.058 5.058 0 01-.316-1.82v-.06c0-.661.106-1.267.316-1.818.21-.552.49-1.023.842-1.413.35-.393.761-.693 1.233-.902.47-.21.976-.317 1.518-.317m-8.42 12.54h4.571v-2.317a7.245 7.245 0 002.03 1.88c.791.49 1.79.737 2.992.737.942 0 1.854-.182 2.735-.541a6.78 6.78 0 002.345-1.61c.682-.711 1.228-1.583 1.638-2.615.412-1.033.617-2.22.617-3.564v-.06c0-1.342-.205-2.53-.617-3.562-.41-1.033-.95-1.905-1.622-2.616a6.602 6.602 0 00-2.33-1.608 7.234 7.234 0 00-2.766-.542c-1.224 0-2.23.241-3.022.721a8.064 8.064 0 00-2 1.684v-6.915h-4.57zM527.313 450.44c-.14 1.023-.502 1.849-1.082 2.481-.581.632-1.353.947-2.316.947-.962 0-1.739-.31-2.33-.932-.59-.62-.977-1.454-1.157-2.496zm-2.947-9.681c-1.202 0-2.32.2-3.351.601a7.741 7.741 0 00-2.676 1.714 7.927 7.927 0 00-1.76 2.63c-.42 1.013-.631 2.141-.631 3.383v.06c0 1.143.195 2.225.587 3.248a8.217 8.217 0 001.638 2.676 7.702 7.702 0 002.51 1.804c.973.441 2.049.661 3.232.661 1.344 0 2.506-.24 3.488-.722a7.107 7.107 0 002.451-1.938 8.098 8.098 0 001.443-2.798 11.576 11.576 0 00.451-3.863c-.01-.2-.025-.41-.045-.631h-11.215c.22-1.043.677-1.83 1.369-2.36.691-.531 1.547-.797 2.57-.797.76 0 1.443.13 2.044.39s1.222.683 1.864 1.264l2.616-2.315a8.107 8.107 0 00-2.766-2.21c-1.082-.531-2.355-.797-3.819-.797M534.673 457.236h4.57v-3.247c.461 1.101 1.093 1.983 1.895 2.646.8.661 1.883.962 3.247.902v-4.782h-.24c-1.524 0-2.722-.46-3.593-1.382-.873-.924-1.308-2.356-1.308-4.3v-5.953h-4.57zM546.607 457.236h4.57V441.12h-4.57zM562.836 444.697c.662 0 1.249.116 1.76.347.51.23.946.546 1.307.946.36.4.636.867.826 1.399.191.531.287 1.097.287 1.698v.06c0 .601-.1 1.168-.301 1.7a4.282 4.282 0 01-2.225 2.39 4.04 4.04 0 01-1.714.36c-.661 0-1.247-.114-1.76-.345a3.907 3.907 0 01-1.307-.948c-.36-.4-.636-.867-.826-1.397a4.982 4.982 0 01-.286-1.7v-.06c0-.601.1-1.168.3-1.698.201-.532.491-1.003.872-1.413a4.287 4.287 0 011.339-.977c.51-.24 1.087-.362 1.728-.362m-.06-3.937c-1.242 0-2.396.214-3.458.646a8.416 8.416 0 00-2.75 1.773 8.263 8.263 0 00-1.82 2.645 8.079 8.079 0 00-.661 3.263v.06c0 1.163.22 2.25.661 3.263a8.322 8.322 0 001.834 2.66 8.658 8.658 0 002.767 1.804c1.061.442 2.224.663 3.487.663 1.243 0 2.396-.217 3.458-.647a8.466 8.466 0 002.752-1.774 8.27 8.27 0 001.818-2.646c.441-1.013.661-2.1.661-3.263v-.06c0-1.163-.22-2.25-.661-3.262a8.314 8.314 0 00-1.834-2.661 8.712 8.712 0 00-2.766-1.804c-1.062-.44-2.225-.66-3.488-.66M574.354 457.236h4.57v-3.247c.462 1.101 1.092 1.983 1.895 2.646.802.661 1.883.962 3.247.902v-4.782h-.24c-1.525 0-2.721-.46-3.593-1.382-.872-.924-1.309-2.356-1.309-4.3v-5.953h-4.57zM364.192 413.428c.54 0 1.047.106 1.519.316.47.21.881.51 1.232.902.35.391.632.861.842 1.413.21.551.315 1.157.315 1.819v.06c0 .661-.104 1.268-.315 1.82a4.499 4.499 0 01-.842 1.412 3.611 3.611 0 01-1.232.902 3.665 3.665 0 01-1.52.316 3.655 3.655 0 01-1.517-.316 3.752 3.752 0 01-1.249-.902 4.368 4.368 0 01-.856-1.398c-.212-.541-.316-1.153-.316-1.834v-.06c0-.662.104-1.268.316-1.819.21-.552.496-1.022.856-1.413.361-.392.777-.692 1.249-.902.47-.21.976-.316 1.518-.316m-1.173-3.879a7.16 7.16 0 00-2.736.542 6.774 6.774 0 00-2.345 1.609c-.682.71-1.228 1.582-1.638 2.614-.412 1.033-.617 2.22-.617 3.564v.06c0 1.342.205 2.53.617 3.563.41 1.031.951 1.904 1.623 2.616a6.613 6.613 0 002.33 1.608c.881.361 1.804.543 2.766.543 1.223 0 2.23-.242 3.022-.723a8.05 8.05 0 002-1.683v7.937h4.57V409.85h-4.57v2.315a7.235 7.235 0 00-2.03-1.878c-.792-.492-1.79-.738-2.992-.738M386.862 419.171c-.14 1.022-.502 1.849-1.082 2.481-.583.632-1.353.947-2.316.947-.962 0-1.739-.31-2.33-.934-.59-.62-.977-1.452-1.157-2.494zm-2.947-9.683c-1.202 0-2.32.201-3.353.602a7.773 7.773 0 00-2.676 1.715 7.923 7.923 0 00-1.758 2.63c-.42 1.011-.631 2.14-.631 3.383v.06c0 1.143.195 2.224.585 3.247a8.24 8.24 0 001.64 2.676 7.738 7.738 0 002.51 1.804c.971.442 2.049.662 3.232.662 1.343 0 2.506-.242 3.488-.722a7.114 7.114 0 002.45-1.939 8.09 8.09 0 001.444-2.797 11.625 11.625 0 00.451-3.864c-.01-.2-.026-.41-.045-.63h-11.215c.22-1.043.676-1.83 1.367-2.361.692-.53 1.55-.796 2.572-.796.76 0 1.443.128 2.044.39.601.26 1.222.681 1.864 1.263l2.616-2.316a8.13 8.13 0 00-2.766-2.21c-1.083-.53-2.356-.797-3.819-.797M403.608 430.897h15.845v-4.12h-11.275v-4.269h9.922v-4.119h-9.922v-4.42h11.426v-4.119h-15.996zM430.434 413.428c.541 0 1.047.106 1.518.316.471.21.882.51 1.232.902.352.391.633.861.842 1.413.21.551.317 1.157.317 1.819v.06c0 .661-.106 1.268-.317 1.82-.209.55-.49 1.02-.842 1.412-.35.392-.76.692-1.232.902-.47.211-.977.316-1.518.316a3.665 3.665 0 01-1.52-.316 3.76 3.76 0 01-1.246-.902 4.37 4.37 0 01-.858-1.398c-.21-.541-.315-1.153-.315-1.834v-.06c0-.662.105-1.268.315-1.819a4.33 4.33 0 01.858-1.413 3.76 3.76 0 011.247-.902c.471-.21.978-.316 1.519-.316m-1.173-3.879c-.943 0-1.854.18-2.736.542a6.763 6.763 0 00-2.345 1.609c-.682.71-1.23 1.582-1.638 2.614-.411 1.033-.617 2.22-.617 3.564v.06c0 1.342.206 2.53.617 3.563.409 1.031.951 1.904 1.622 2.616a6.618 6.618 0 002.331 1.608c.882.361 1.804.543 2.766.543 1.222 0 2.23-.242 3.021-.723a8.056 8.056 0 002-1.683v7.937h4.57V409.85h-4.57v2.315a7.24 7.24 0 00-2.03-1.878c-.791-.492-1.788-.738-2.99-.738M447.96 409.55c-1.745 0-3.093.53-4.045 1.592-.952 1.063-1.428 2.527-1.428 4.391v10.433h4.57v-8.968c0-1.08.24-1.896.722-2.445.481-.55 1.162-.824 2.044-.824.882 0 1.578.274 2.09.824.51.55.767 1.365.767 2.445v8.968h4.57V409.85h-4.57v2.304a9.827 9.827 0 00-.858-.984 5.975 5.975 0 00-1.036-.834 5.163 5.163 0 00-1.263-.575 5.356 5.356 0 00-1.564-.211M468.506 409.489c-1.202 0-2.32.221-3.353.662a8.228 8.228 0 00-2.66 1.789 8.206 8.206 0 00-1.744 2.646 8.333 8.333 0 00-.631 3.232v.06c0 1.143.21 2.224.631 3.248a8.334 8.334 0 001.744 2.674 8.135 8.135 0 002.66 1.804c1.033.443 2.17.663 3.413.663 1.523 0 2.786-.242 3.789-.721A8.535 8.535 0 00475 423.56l-2.797-3.008c-.521.541-1.057.973-1.609 1.293-.55.321-1.237.482-2.059.482-.58 0-1.107-.115-1.579-.345a3.95 3.95 0 01-1.232-.947 4.333 4.333 0 01-.812-1.4 5.01 5.01 0 01-.285-1.699v-.058c0-.622.095-1.203.285-1.746.19-.54.466-1.011.827-1.411.361-.402.792-.718 1.293-.948.5-.231 1.062-.347 1.684-.347.761 0 1.427.156 1.999.467a8.43 8.43 0 011.699 1.247l2.676-2.706a10.299 10.299 0 00-2.676-2.12c-1.002-.55-2.306-.826-3.909-.826M483.624 412.707c1.082 0 1.95.26 2.6.78.652.522.977 1.203.977 2.046v.81c-.4.182-.846.327-1.337.437a7.18 7.18 0 01-1.579.165c-.983 0-1.753-.19-2.315-.57-.562-.383-.842-.933-.842-1.654v-.06c0-.623.23-1.103.692-1.443.46-.342 1.062-.511 1.804-.511m-1.384-3.157c-.76 0-1.478.104-2.15.315a5.033 5.033 0 00-1.758.948 4.52 4.52 0 00-1.188 1.547c-.29.613-.436 1.318-.436 2.12v.06c0 .882.16 1.644.481 2.286a4.406 4.406 0 001.339 1.593c.57.421 1.252.736 2.043.947.793.21 1.67.316 2.632.316.821 0 1.538-.06 2.149-.181.612-.12 1.207-.28 1.79-.48v.27c0 .961-.29 1.694-.873 2.195-.58.502-1.443.752-2.585.752-.883 0-1.659-.076-2.331-.226a15.415 15.415 0 01-2.12-.647l-1.142 3.489c.882.38 1.804.691 2.766.932.963.239 2.126.36 3.488.36 1.263 0 2.34-.156 3.233-.466.891-.31 1.628-.757 2.21-1.337.6-.602 1.042-1.338 1.322-2.21.28-.873.421-1.85.421-2.933v-9.35h-4.42v1.743a6.363 6.363 0 00-2.014-1.488c-.782-.37-1.734-.555-2.857-.555M497.595 406.242l2.466 3.608a7.857 7.857 0 00-2.39 1.157 8.238 8.238 0 00-1.834 1.804 8.188 8.188 0 00-1.188 2.315 8.56 8.56 0 00-.421 2.692v.06c0 1.143.21 2.224.632 3.247a8.337 8.337 0 001.743 2.676 8.165 8.165 0 002.661 1.804c1.032.442 2.169.662 3.414.662 1.522 0 2.785-.242 3.787-.722a8.502 8.502 0 002.646-1.984l-2.797-3.008a7.448 7.448 0 01-1.607 1.294c-.553.32-1.238.481-2.06.481a3.55 3.55 0 01-1.579-.345 3.905 3.905 0 01-1.232-.948 4.336 4.336 0 01-.813-1.399 5.004 5.004 0 01-.285-1.698v-.06c0-.622.095-1.202.285-1.744a4.14 4.14 0 01.827-1.413c.36-.401.792-.718 1.293-.948.502-.23 1.062-.345 1.685-.345.76 0 1.428.155 1.999.466.571.31 1.136.726 1.698 1.247l2.676-2.706a10.83 10.83 0 00-2.42-1.969c-.892-.531-2.03-.845-3.413-.946l-1.954-4.871zM517.734 412.707c1.082 0 1.95.26 2.601.78.65.522.978 1.203.978 2.046v.81a6.962 6.962 0 01-1.339.437 7.18 7.18 0 01-1.579.165c-.982 0-1.753-.19-2.315-.57-.561-.383-.842-.933-.842-1.654v-.06c0-.623.231-1.103.692-1.443.46-.342 1.062-.511 1.804-.511m-5.292 15.484c.18.622.377 1.187.587 1.698.21.513.46.948.752 1.309.29.36.631.64 1.02.842.393.2.849.3 1.37.3.46 0 .906-.06 1.338-.18.43-.12.836-.255 1.217-.405.381-.15.733-.287 1.052-.407.322-.12.622-.18.902-.18.461 0 .807.125 1.038.375.23.251.455.617.676 1.098l2.436-.752c-.34-1.263-.787-2.27-1.338-3.02-.552-.753-1.348-1.129-2.39-1.129-.461 0-.907.06-1.34.18-.43.12-.835.255-1.216.406-.382.15-.738.286-1.067.406-.33.12-.627.18-.888.18-.46 0-.807-.124-1.036-.376-.231-.25-.456-.616-.677-1.097zm3.909-18.641c-.761 0-1.478.104-2.15.315a5.033 5.033 0 00-1.759.948c-.5.42-.897.935-1.187 1.547-.29.613-.436 1.318-.436 2.12v.06c0 .882.16 1.644.48 2.286a4.406 4.406 0 001.34 1.593c.57.421 1.251.736 2.044.947.791.21 1.668.316 2.63.316.821 0 1.538-.06 2.15-.181.611-.12 1.207-.28 1.789-.48v.27c0 .961-.29 1.694-.872 2.195-.581.502-1.443.752-2.586.752-.883 0-1.658-.076-2.33-.226a15.429 15.429 0 01-2.12-.647l-1.142 3.489c.881.38 1.804.691 2.766.932.962.239 2.125.36 3.487.36 1.263 0 2.34-.156 3.233-.466.891-.31 1.629-.757 2.21-1.337.6-.602 1.042-1.338 1.324-2.21.279-.873.42-1.85.42-2.933v-9.35h-4.42v1.743a6.363 6.363 0 00-2.015-1.488c-.782-.37-1.734-.555-2.856-.555M537.088 413.428c.662 0 1.247.115 1.758.345.513.231.948.546 1.309.948.36.4.636.867.826 1.397.191.532.286 1.098.286 1.7v.06c0 .601-.1 1.168-.3 1.698a4.26 4.26 0 01-2.225 2.39 4.027 4.027 0 01-1.714.362c-.661 0-1.248-.115-1.76-.345a3.907 3.907 0 01-1.307-.948 4.19 4.19 0 01-.827-1.399 4.999 4.999 0 01-.285-1.698v-.06c0-.601.1-1.168.3-1.7a4.297 4.297 0 012.21-2.39c.51-.24 1.087-.36 1.73-.36m-.061-3.939c-1.244 0-2.396.216-3.458.647a8.413 8.413 0 00-2.75 1.773 8.268 8.268 0 00-1.82 2.646 8.079 8.079 0 00-.661 3.263v.06c0 1.162.22 2.249.661 3.261a8.314 8.314 0 001.834 2.662 8.698 8.698 0 002.766 1.804c1.062.441 2.225.663 3.488.663 1.242 0 2.395-.217 3.458-.647a8.47 8.47 0 002.752-1.776 8.265 8.265 0 001.818-2.644c.441-1.013.661-2.1.661-3.263v-.06c0-1.163-.22-2.25-.661-3.263a8.322 8.322 0 00-1.834-2.66 8.712 8.712 0 00-2.766-1.804c-1.063-.442-2.225-.662-3.488-.662M548.892 458.844c-1.427 0-2.62 1.194-2.62 2.623 0 1.429 1.193 2.623 2.62 2.623 1.426 0 2.62-1.194 2.62-2.623 0-1.429-1.194-2.623-2.62-2.623M208.906 201.048h7.789v-26h-7.789zM276.943 201.048l-9.607-26h-8.828l-9.607 26h8.62l5.401-16.484 5.4 16.484zM277.463 188.048c0 7.748 5.868 13.728 13.76 13.728 5.038 0 9.505-2.652 11.737-6.657l-6.802-3.951c-.883 1.82-2.753 2.91-5.038 2.91-3.374 0-5.867-2.442-5.867-6.03s2.493-6.032 5.867-6.032c2.285 0 4.207 1.092 5.038 2.912l6.802-3.901c-2.232-4.055-6.647-6.708-11.736-6.708-7.893 0-13.761 5.98-13.761 13.729M234.63 182.016c-2.963 0-5.542 1.937-5.542 5.784 0 4.265 2.468 6.279 5.568 6.279 3.376 0 5.855-2.443 5.855-6.031 0-3.588-2.506-6.032-5.88-6.032m-.105 19.76c-6.687 0-12.649-6.291-12.649-13.041l.02-30.46H230v17.707c1-.927 2.982-1.662 4.713-1.662 7.894 0 13.668 5.98 13.668 13.728 0 7.748-5.96 13.728-13.855 13.728"/><path d="M299.793 215.776c-2.914-3.383-7.066-5.253-11.267-5.253-4.2 0-8.347 1.868-11.261 5.25-.226.263-.454.532-.661.808a16.16 16.16 0 00-.653-.805c-2.914-3.383-7.036-5.253-11.237-5.253-4.201 0-8.321 1.868-11.235 5.25a15.09 15.09 0 00-.649.808 15.474 15.474 0 00-.646-.805c-2.914-3.383-7.033-5.253-11.234-5.253-4.2 0-8.319 1.965-11.233 5.348-2.007 2.33-3.26 5.404-3.804 8.404h7.163c1.096-4 4.25-6.668 8.209-6.668 5.156 0 8.715 4.565 8.715 10.193v2.475h6.336l-.005-2.645c0-5.628 3.222-10.205 8.379-10.205s8.38 4.536 8.38 10.164l-.013 2.686h7.007l.006-2.645c0-5.626 3.224-10.205 8.38-10.205 5.157 0 8.38 4.536 8.38 10.164l-.008 2.686H304V227.8c0-4.522-1.422-8.789-4.207-12.024M212.8 215.517c-2.736 0-5.024 2.292-5.024 5.03 0 2.74 2.288 5.033 5.024 5.033 2.735 0 5.024-2.292 5.024-5.032s-2.289-5.031-5.024-5.031" fill="#0055a4"/><path d="M208.947 140.89h11.41v-2.965h-8.119v-3.075h7.145v-2.966h-7.145v-3.182h8.228v-2.967h-11.519zM226.942 125.519a8.105 8.105 0 00-4.98 1.754l1.408 2.165a7.788 7.788 0 011.894-1.04c.628-.231 1.216-.346 1.764-.346.477 0 .827.079 1.05.238a.737.737 0 01.337.627v.044a.62.62 0 01-.196.454 1.6 1.6 0 01-.53.336c-.224.094-.48.184-.768.27-.29.088-.592.182-.91.283-.404.115-.812.256-1.223.422a4.397 4.397 0 00-1.116.649 3.17 3.17 0 00-.811.986c-.21.389-.315.865-.315 1.429v.042c0 .592.112 1.116.336 1.57.224.455.527.842.91 1.159.382.317.83.556 1.342.713.512.16 1.064.239 1.657.239.735 0 1.483-.12 2.24-.356a8.36 8.36 0 002.09-.986l-1.256-2.273c-.577.332-1.141.596-1.69.79-.547.195-1.031.292-1.45.292-.404 0-.707-.075-.91-.227-.201-.152-.302-.343-.302-.574v-.043c0-.16.065-.3.195-.422.13-.123.303-.238.52-.346.216-.11.465-.214.746-.315.28-.1.58-.202.899-.303.404-.13.815-.285 1.234-.465a5.085 5.085 0 001.126-.661c.332-.26.606-.578.823-.953.216-.375.324-.83.324-1.363v-.044c0-.65-.112-1.21-.335-1.678a3.085 3.085 0 00-.942-1.158 4.237 4.237 0 00-1.418-.682 6.426 6.426 0 00-1.743-.227M238.772 125.475c-.866 0-1.671.159-2.414.477a5.918 5.918 0 00-1.916 1.288 6.001 6.001 0 00-1.711 4.233v.043c0 .823.152 1.603.455 2.339a6.031 6.031 0 001.256 1.927 5.85 5.85 0 001.916 1.298c.743.318 1.562.477 2.457.477 1.098 0 2.007-.173 2.728-.52a6.16 6.16 0 001.906-1.43l-2.013-2.164a5.42 5.42 0 01-1.159.93c-.398.232-.892.347-1.484.347a2.55 2.55 0 01-1.136-.25 2.8 2.8 0 01-.887-.681 3.097 3.097 0 01-.585-1.006 3.583 3.583 0 01-.206-1.224v-.043c0-.447.068-.867.206-1.256.137-.39.335-.73.595-1.017.26-.29.57-.517.931-.682a2.854 2.854 0 011.213-.25c.548 0 1.029.112 1.44.336.411.224.819.523 1.223.899l1.927-1.95a7.372 7.372 0 00-1.927-1.525c-.722-.398-1.66-.596-2.815-.596M250.566 128.311c.477 0 .898.082 1.267.25.368.164.682.392.94.681.26.288.459.624.597 1.006.137.383.206.791.206 1.224v.043c0 .433-.073.841-.217 1.224a3.058 3.058 0 01-1.602 1.72c-.376.174-.788.26-1.235.26a3.05 3.05 0 01-1.266-.249 2.808 2.808 0 01-.942-.68 3.024 3.024 0 01-.596-1.008 3.631 3.631 0 01-.205-1.224v-.043c0-.433.072-.84.216-1.224a3.103 3.103 0 011.592-1.72c.368-.174.783-.26 1.245-.26m-.044-2.837c-.894 0-1.725.155-2.49.465a6.093 6.093 0 00-1.981 1.278 5.935 5.935 0 00-1.31 1.906 5.803 5.803 0 00-.476 2.35v.042c0 .837.159 1.62.477 2.35a6.006 6.006 0 001.32 1.916 6.277 6.277 0 001.992 1.3c.765.316 1.602.475 2.512.475.895 0 1.725-.155 2.49-.466a6.08 6.08 0 001.98-1.277 5.97 5.97 0 001.31-1.905c.318-.73.477-1.513.477-2.35v-.043c0-.837-.16-1.62-.476-2.349a6.002 6.002 0 00-1.321-1.917 6.275 6.275 0 00-1.992-1.298c-.765-.318-1.602-.477-2.512-.477M258.958 141.54h3.291v-15.806h-3.291zM269.305 127.792c.779 0 1.403.187 1.873.562.469.375.704.867.704 1.473v.584a5.093 5.093 0 01-2.101.434c-.707 0-1.263-.138-1.667-.412-.404-.274-.606-.671-.606-1.191v-.043c0-.448.166-.794.498-1.04.332-.245.764-.367 1.299-.367m-.996-2.273c-.548 0-1.065.075-1.548.226a3.629 3.629 0 00-1.267.683c-.36.302-.646.675-.856 1.115-.208.439-.313.948-.313 1.526v.043c0 .635.115 1.184.347 1.646.23.462.55.845.963 1.147.41.303.902.531 1.472.682a7.359 7.359 0 001.895.227c.59 0 1.107-.043 1.548-.129a9.77 9.77 0 001.288-.346v.194c0 .693-.21 1.22-.628 1.581-.42.361-1.04.541-1.862.541a7.757 7.757 0 01-1.678-.162 11.27 11.27 0 01-1.526-.466l-.823 2.512c.635.274 1.299.498 1.992.671.693.174 1.53.26 2.512.26.909 0 1.685-.112 2.327-.336.642-.224 1.173-.545 1.59-.963.435-.434.752-.964.954-1.592.202-.628.303-1.331.303-2.111v-6.734h-3.183v1.256a4.572 4.572 0 00-1.45-1.071c-.563-.268-1.25-.4-2.057-.4M289.657 125.519c-1.155 0-2.288.198-3.4.595a9 9 0 00-3.031 1.83l1.97 2.36a9.869 9.869 0 012.133-1.343 5.706 5.706 0 012.393-.498c.693 0 1.23.126 1.613.379.382.252.574.603.574 1.05v.043c0 .217-.041.408-.12.574-.08.166-.232.322-.456.466a4.824 4.824 0 01-.933.433c-.398.144-.916.296-1.553.455-.766.187-1.461.396-2.084.628-.622.23-1.15.515-1.584.854a3.46 3.46 0 00-1.01 1.268c-.24.505-.358 1.133-.358 1.883v.044c0 .692.129 1.316.387 1.872s.62 1.036 1.086 1.44a4.906 4.906 0 001.67.93c.647.217 1.36.326 2.14.326 1.11 0 2.132-.166 3.063-.498a8.88 8.88 0 002.566-1.43l-1.732-2.511c-.68.462-1.342.827-1.992 1.093a5.075 5.075 0 01-1.948.402c-.65 0-1.137-.127-1.462-.38-.325-.252-.487-.567-.487-.942v-.043c0-.246.047-.46.14-.638.095-.181.265-.343.51-.488.247-.144.584-.281 1.01-.411.427-.13.966-.282 1.618-.455.767-.202 1.45-.43 2.05-.682a5.704 5.704 0 001.52-.91c.414-.353.725-.768.935-1.244.209-.476.315-1.047.315-1.711v-.043c0-.751-.137-1.42-.41-2.003a4.117 4.117 0 00-1.14-1.472 5.138 5.138 0 00-1.745-.91c-.676-.21-1.425-.313-2.248-.313M301.312 125.519c-1.256 0-2.227.382-2.912 1.147-.686.765-1.03 1.819-1.03 3.162v7.512h3.293v-6.458c0-.777.172-1.364.519-1.76.346-.396.837-.593 1.472-.593.636 0 1.137.197 1.505.593.368.396.552.983.552 1.76v6.458H308v-11.605h-3.29v1.659a7.2 7.2 0 00-.617-.71 4.398 4.398 0 00-.746-.6 3.792 3.792 0 00-.91-.413 3.873 3.873 0 00-1.126-.152M316.727 128.311c.39 0 .754.075 1.093.227.34.151.64.37.9.65.258.282.465.618.616 1.007.152.39.227.829.227 1.32v.044c0 .477-.075.913-.227 1.31a3.14 3.14 0 01-.617 1.018 2.655 2.655 0 01-1.992.877 2.616 2.616 0 01-1.981-.877 3.244 3.244 0 01-.606-1.017 3.642 3.642 0 01-.228-1.311v-.043c0-.476.076-.913.228-1.31.151-.397.354-.736.606-1.017a2.603 2.603 0 011.981-.877m-6.062 9.027h3.291v-1.667c.404.55.891 1 1.461 1.354.57.353 1.29.53 2.155.53.678 0 1.335-.13 1.97-.39a4.873 4.873 0 001.69-1.157c.49-.512.883-1.14 1.18-1.884.294-.744.442-1.598.442-2.566v-.043c0-.967-.148-1.822-.443-2.565-.296-.744-.686-1.372-1.169-1.884a4.752 4.752 0 00-1.679-1.16 5.201 5.201 0 00-1.99-.388c-.882 0-1.607.172-2.177.52a5.765 5.765 0 00-1.44 1.21v-4.978h-3.29zM332.541 132.446c-.101.736-.361 1.332-.779 1.787-.419.454-.974.682-1.668.682-.693 0-1.252-.226-1.678-.672-.425-.447-.704-1.046-.833-1.797zm-2.122-6.972c-.866 0-1.67.145-2.414.433a5.61 5.61 0 00-1.927 1.234 5.71 5.71 0 00-1.266 1.895c-.304.73-.455 1.541-.455 2.436v.043c0 .824.141 1.603.422 2.34a5.948 5.948 0 001.18 1.926 5.553 5.553 0 001.808 1.3c.7.316 1.476.475 2.327.475.967 0 1.805-.173 2.512-.519a5.147 5.147 0 001.765-1.397 5.839 5.839 0 001.039-2.013 8.356 8.356 0 00.325-2.783 17.93 17.93 0 00-.032-.455h-8.077c.159-.75.487-1.317.985-1.7.498-.382 1.115-.573 1.851-.573.549 0 1.04.094 1.473.281.433.188.88.491 1.342.91l1.884-1.668a5.862 5.862 0 00-1.992-1.59c-.78-.383-1.696-.575-2.75-.575M337.841 137.34h3.291V135c.332.795.786 1.43 1.364 1.907.577.477 1.357.693 2.338.65v-3.443h-.173c-1.097 0-1.96-.333-2.587-.996-.629-.664-.942-1.696-.942-3.096v-4.287h-3.29zM346.435 137.34h3.291v-11.605h-3.291zM358.122 128.311c.476 0 .898.082 1.266.25.368.164.683.392.942.681.26.288.46.624.595 1.006.138.383.206.791.206 1.224v.043c0 .433-.072.841-.217 1.224a3.083 3.083 0 01-1.6 1.72 2.9 2.9 0 01-1.235.26 3.05 3.05 0 01-1.267-.249 2.808 2.808 0 01-.942-.68 3.005 3.005 0 01-.595-1.008 3.583 3.583 0 01-.206-1.224v-.043c0-.433.072-.84.217-1.224a3.084 3.084 0 011.591-1.72c.368-.174.783-.26 1.245-.26m-.043-2.837c-.896 0-1.725.155-2.49.465a6.088 6.088 0 00-1.98 1.278 5.921 5.921 0 00-1.31 1.906 5.803 5.803 0 00-.478 2.35v.042c0 .837.16 1.62.477 2.35a5.993 5.993 0 001.321 1.916 6.262 6.262 0 001.991 1.3c.765.316 1.602.475 2.512.475.895 0 1.725-.155 2.49-.466a6.09 6.09 0 001.981-1.277 5.97 5.97 0 001.31-1.905c.317-.73.476-1.513.476-2.35v-.043c0-.837-.159-1.62-.476-2.349a6.002 6.002 0 00-1.32-1.917 6.286 6.286 0 00-1.993-1.298c-.765-.318-1.602-.477-2.51-.477M366.416 137.34h3.291V135c.332.795.786 1.43 1.364 1.907.577.477 1.357.693 2.338.65v-3.443h-.173c-1.097 0-1.96-.333-2.588-.996-.627-.664-.94-1.696-.94-3.096v-4.287h-3.292zM215.075 105.793c.39 0 .754.076 1.093.228.34.151.636.368.888.65.252.281.455.62.606 1.018.152.396.227.833.227 1.309v.043c0 .477-.075.913-.227 1.31a3.221 3.221 0 01-.606 1.017 2.619 2.619 0 01-.888.651 2.654 2.654 0 01-1.093.226c-.39 0-.754-.075-1.094-.226a2.747 2.747 0 01-.898-.651 3.123 3.123 0 01-.617-1.006 3.613 3.613 0 01-.227-1.321v-.043c0-.476.075-.913.227-1.309.15-.398.357-.737.617-1.018.26-.282.559-.499.898-.65.34-.152.704-.228 1.094-.228M214.23 103c-.678 0-1.335.13-1.97.39a4.86 4.86 0 00-1.69 1.158c-.49.513-.883 1.141-1.18 1.885-.294.742-.442 1.597-.442 2.565v.043c0 .967.148 1.822.443 2.565.296.745.686 1.372 1.169 1.884.484.513 1.043.9 1.679 1.158.635.261 1.299.39 1.99.39.882 0 1.607-.173 2.178-.519a5.8 5.8 0 001.439-1.212v5.715h3.29v-15.805h-3.29v1.667c-.404-.549-.891-1-1.461-1.354-.571-.353-1.29-.53-2.155-.53M231.4 109.929c-.102.736-.362 1.332-.78 1.786-.419.455-.974.683-1.668.683-.692 0-1.252-.225-1.678-.672-.425-.447-.703-1.047-.833-1.797zm-2.123-6.972c-.866 0-1.67.145-2.414.433a5.59 5.59 0 00-1.926 1.234 5.698 5.698 0 00-1.267 1.895c-.304.728-.455 1.54-.455 2.435v.044c0 .823.141 1.603.422 2.338a5.944 5.944 0 001.18 1.927 5.54 5.54 0 001.808 1.3c.7.317 1.476.475 2.327.475.967 0 1.805-.172 2.512-.52a5.102 5.102 0 001.765-1.396 5.83 5.83 0 001.04-2.013 8.354 8.354 0 00.324-2.782 14.152 14.152 0 00-.033-.455h-8.076c.16-.751.488-1.317.986-1.7.497-.382 1.115-.573 1.851-.573a3.68 3.68 0 011.472.28c.433.189.88.49 1.342.91l1.883-1.667a5.828 5.828 0 00-1.99-1.591c-.78-.382-1.697-.574-2.75-.574M243.459 118.373h11.41v-2.966h-8.119v-3.075h7.145v-2.966h-7.145v-3.183h8.228v-2.966h-11.519zM262.776 105.793c.39 0 .754.076 1.093.228a2.6 2.6 0 01.888.65c.253.281.455.62.606 1.018.152.396.228.833.228 1.309v.043c0 .477-.076.913-.228 1.31a3.203 3.203 0 01-.606 1.017 2.628 2.628 0 01-.888.651 2.654 2.654 0 01-1.093.226c-.389 0-.754-.075-1.093-.226a2.751 2.751 0 01-.899-.651 3.14 3.14 0 01-.617-1.006 3.634 3.634 0 01-.227-1.321v-.043c0-.476.076-.913.227-1.309.151-.398.358-.737.617-1.018.26-.282.56-.499.9-.65a2.643 2.643 0 011.092-.228m-.844-2.793c-.679 0-1.336.13-1.97.39a4.85 4.85 0 00-1.689 1.158c-.49.513-.885 1.141-1.18 1.885-.296.742-.444 1.597-.444 2.565v.043c0 .967.148 1.822.444 2.565.295.745.685 1.372 1.17 1.884.482.513 1.042.9 1.677 1.158.635.261 1.3.39 1.992.39.88 0 1.605-.173 2.176-.519a5.8 5.8 0 001.44-1.212v5.715h3.29v-15.805h-3.29v1.667c-.405-.549-.892-1-1.462-1.354-.57-.353-1.288-.53-2.154-.53M275.397 103c-1.256 0-2.227.383-2.912 1.147-.686.766-1.028 1.82-1.028 3.163v7.512h3.291v-6.458c0-.777.172-1.365.519-1.76.346-.396.837-.594 1.473-.594.635 0 1.136.198 1.504.594.368.395.552.983.552 1.76v6.458h3.291v-11.605h-3.291v1.659a7.07 7.07 0 00-.617-.709 4.281 4.281 0 00-.747-.6 3.729 3.729 0 00-.909-.414 3.867 3.867 0 00-1.126-.153M290.193 102.957c-.866 0-1.67.159-2.414.477a5.918 5.918 0 00-1.916 1.288 5.9 5.9 0 00-1.256 1.905 6 6 0 00-.455 2.327v.044c0 .822.152 1.603.455 2.338a6.01 6.01 0 001.256 1.927 5.836 5.836 0 001.916 1.299c.744.318 1.562.476 2.458.476 1.097 0 2.006-.173 2.727-.519a6.125 6.125 0 001.906-1.429l-2.013-2.165a5.42 5.42 0 01-1.16.931c-.396.231-.891.346-1.482.346-.42 0-.798-.083-1.136-.249a2.793 2.793 0 01-.888-.682 3.108 3.108 0 01-.585-1.006 3.583 3.583 0 01-.206-1.224v-.043c0-.448.068-.866.206-1.256.137-.389.336-.729.596-1.017.26-.289.569-.517.93-.683a2.869 2.869 0 011.213-.249c.548 0 1.029.112 1.44.336.41.224.819.522 1.223.898l1.927-1.948a7.372 7.372 0 00-1.927-1.526c-.722-.398-1.66-.596-2.815-.596M301.08 105.273c.779 0 1.403.188 1.873.564.469.374.704.865.704 1.472v.585c-.29.13-.611.233-.964.314a5.274 5.274 0 01-1.137.12c-.707 0-1.263-.139-1.667-.413-.404-.275-.606-.67-.606-1.19v-.045c0-.447.166-.794.498-1.039.332-.245.765-.368 1.299-.368m-.996-2.272c-.548 0-1.065.075-1.548.226a3.627 3.627 0 00-1.267.683 3.27 3.27 0 00-.855 1.114c-.21.44-.313.95-.313 1.528v.043c0 .635.115 1.184.345 1.646.23.462.553.845.964 1.147.41.302.902.53 1.472.682.57.152 1.202.227 1.895.227.592 0 1.107-.043 1.548-.13.44-.086.869-.202 1.288-.346v.195c0 .693-.21 1.22-.628 1.58-.42.362-1.04.542-1.862.542a7.69 7.69 0 01-1.678-.163 11.302 11.302 0 01-1.526-.465l-.823 2.51c.635.275 1.299.499 1.992.673.693.173 1.53.26 2.512.26.909 0 1.685-.113 2.328-.336.64-.224 1.172-.545 1.59-.963a3.91 3.91 0 00.954-1.592c.202-.628.302-1.332.302-2.111v-6.734h-3.182v1.256a4.587 4.587 0 00-1.451-1.071c-.563-.268-1.25-.401-2.057-.401M311.141 100.618l1.775 2.6a5.668 5.668 0 00-1.72.832 5.987 5.987 0 00-1.322 1.3 5.91 5.91 0 00-.856 1.666 6.19 6.19 0 00-.302 1.938v.044a6.102 6.102 0 001.71 4.265 5.847 5.847 0 001.916 1.3c.744.317 1.563.475 2.458.475 1.097 0 2.006-.173 2.728-.52a6.102 6.102 0 001.905-1.428l-2.013-2.165a5.42 5.42 0 01-1.159.931c-.396.231-.89.346-1.483.346-.419 0-.798-.083-1.136-.249a2.807 2.807 0 01-.888-.682 3.102 3.102 0 01-.585-1.007 3.601 3.601 0 01-.206-1.223v-.043c0-.448.07-.866.206-1.256a2.98 2.98 0 01.596-1.018c.26-.289.57-.516.931-.682.36-.166.764-.249 1.212-.249.548 0 1.03.112 1.44.336.411.223.82.522 1.224.898l1.926-1.948a7.732 7.732 0 00-1.743-1.418c-.642-.383-1.46-.61-2.457-.683l-1.407-3.507zM325.643 105.273c.78 0 1.403.188 1.873.564.47.374.704.865.704 1.472v.585a5.141 5.141 0 01-2.1.433c-.708 0-1.264-.137-1.668-.411-.404-.276-.606-.672-.606-1.192v-.044c0-.447.166-.794.498-1.039.332-.245.765-.368 1.3-.368m-3.812 11.152c.13.447.271.854.422 1.222.152.368.332.682.542.942.21.26.454.462.736.607.281.143.61.216.985.216.332 0 .653-.043.964-.13a9.01 9.01 0 00.877-.292c.274-.109.526-.206.758-.292.23-.087.447-.13.65-.13.331 0 .58.09.746.27.165.18.328.444.487.79l1.754-.542c-.246-.909-.568-1.633-.964-2.175-.397-.54-.97-.812-1.72-.812-.333 0-.655.043-.965.13-.31.087-.603.184-.877.292-.273.108-.529.206-.768.293-.238.087-.452.13-.638.13-.333 0-.582-.09-.748-.272-.166-.179-.328-.443-.487-.79zM324.647 103c-.548 0-1.065.076-1.548.227a3.635 3.635 0 00-1.267.682 3.27 3.27 0 00-.855 1.114c-.209.442-.313.95-.313 1.529v.042c0 .636.115 1.185.345 1.647.232.462.553.845.964 1.147.411.302.902.53 1.473.682a7.34 7.34 0 001.894.227c.592 0 1.108-.043 1.548-.13.44-.086.87-.202 1.288-.346v.195c0 .693-.209 1.22-.628 1.58-.419.362-1.039.542-1.862.542a7.69 7.69 0 01-1.678-.163 11.302 11.302 0 01-1.526-.465l-.823 2.51c.635.275 1.3.499 1.992.673.693.173 1.53.26 2.512.26.91 0 1.685-.113 2.328-.336.641-.224 1.172-.545 1.59-.963.434-.434.751-.964.953-1.592.202-.628.303-1.332.303-2.111v-6.734h-3.182v1.256a4.587 4.587 0 00-1.45-1.071c-.564-.268-1.249-.401-2.058-.401M339.58 105.793c.477 0 .898.083 1.267.249.368.166.682.394.941.683.26.288.46.624.596 1.006.137.382.206.791.206 1.223v.044c0 .433-.073.841-.218 1.224a3.073 3.073 0 01-1.601 1.72 2.9 2.9 0 01-1.234.26 3.05 3.05 0 01-1.267-.249 2.794 2.794 0 01-.94-.681 3 3 0 01-.597-1.007 3.607 3.607 0 01-.206-1.224v-.043c0-.433.073-.841.217-1.225a3.09 3.09 0 011.591-1.719 2.878 2.878 0 011.245-.261m-.043-2.836c-.895 0-1.725.155-2.49.466a5.928 5.928 0 00-3.291 3.182 5.81 5.81 0 00-.476 2.349v.044c0 .837.158 1.62.476 2.349a5.982 5.982 0 001.321 1.916 6.247 6.247 0 001.991 1.3c.765.317 1.602.475 2.512.475.895 0 1.725-.154 2.49-.465a6.08 6.08 0 001.981-1.277 5.955 5.955 0 001.31-1.905c.317-.73.476-1.513.476-2.35v-.043c0-.837-.159-1.62-.476-2.35a5.987 5.987 0 00-1.32-1.916 6.258 6.258 0 00-1.993-1.298c-.765-.318-1.602-.477-2.51-.477M348.08 138.498c-1.027 0-1.886.86-1.886 1.89 0 1.028.86 1.888 1.886 1.888 1.027 0 1.886-.86 1.886-1.888 0-1.03-.859-1.89-1.886-1.89"/><path d="M85.04 524.669h671.81M85.04 280.648h671.81" fill="#fff" stroke="#000" stroke-miterlimit="10"/><path d="M85.43 519.998h.88l2.49-6.03 2.5 6.03h.85l-3.01-7.05h-.7zM97.19 515.898c-.02.231-.07.452-.15.661-.08.208-.189.393-.326.552a1.49 1.49 0 01-.5.378 1.56 1.56 0 01-.675.138c-.22 0-.427-.042-.62-.128a1.58 1.58 0 01-.51-.364 2.018 2.018 0 01-.365-.55 2.223 2.223 0 01-.185-.687zm-3.33-.63c.026-.274.092-.517.2-.73a1.74 1.74 0 01.97-.875c.206-.078.422-.116.65-.116.36 0 .667.067.924.201.258.132.493.31.706.53l.48-.43a3.179 3.179 0 00-.89-.706c-.334-.176-.748-.265-1.24-.265-.353 0-.687.066-1 .196a2.46 2.46 0 00-.82.55 2.61 2.61 0 00-.555.855 2.862 2.862 0 00-.205 1.1c0 .373.062.724.185 1.054.123.33.295.618.515.861.22.243.482.434.785.575.303.14.635.21.995.21.38 0 .72-.072 1.02-.215.3-.144.553-.339.76-.585.207-.247.363-.537.47-.87.107-.334.16-.69.16-1.07v-.116a1.37 1.37 0 00-.01-.155zM99.32 518.168h.77v-1.35c.092.213.21.411.35.59.14.18.3.335.48.465a2.028 2.028 0 001.28.385v-.83h-.06c-.28 0-.546-.05-.796-.15-.25-.1-.468-.25-.655-.45a2.146 2.146 0 01-.44-.745 3.018 3.018 0 01-.16-1.025v-2.06h-.77zM105.08 512.898c-.374 0-.75.068-1.13.205-.38.136-.717.321-1.01.555l.39.55c.28-.214.572-.377.875-.49.303-.114.608-.17.915-.17.313 0 .57.073.77.22.2.147.3.346.3.6v.02a.531.531 0 01-.105.33.935.935 0 01-.285.244c-.12.071-.26.132-.415.186a9.194 9.194 0 01-.485.15c-.2.06-.402.124-.605.195a2.48 2.48 0 00-.55.264 1.341 1.341 0 00-.4.401c-.103.16-.155.36-.155.6v.02a1.365 1.365 0 00.495 1.075c.156.13.343.23.56.3.216.07.45.104.705.104.32 0 .643-.05.97-.154.327-.103.623-.242.89-.415l-.35-.58c-.24.153-.492.274-.755.364a2.367 2.367 0 01-.775.136c-.307 0-.55-.072-.73-.216a.655.655 0 01-.27-.534v-.02c0-.12.036-.225.11-.315a.931.931 0 01.295-.235c.123-.067.265-.127.425-.18.16-.054.326-.107.5-.16.2-.06.398-.127.595-.2.196-.074.375-.167.535-.28.16-.114.288-.25.385-.41.097-.16.145-.357.145-.59v-.02a1.42 1.42 0 00-.535-1.14 1.743 1.743 0 00-.58-.306 2.416 2.416 0 00-.725-.104M108.78 518.988c.1.38.222.65.37.81.146.16.34.24.58.24.112 0 .23-.022.35-.066.12-.043.24-.089.36-.139.12-.05.232-.095.34-.135a.838.838 0 01.29-.06c.132 0 .234.037.304.11.07.073.142.2.215.38l.47-.13c-.1-.38-.223-.65-.37-.81a.75.75 0 00-.58-.24c-.113 0-.23.02-.35.06-.12.04-.24.084-.36.134-.12.051-.233.097-.34.141a.783.783 0 01-.29.064c-.133 0-.235-.036-.305-.109-.07-.073-.142-.2-.215-.38zm1.265-5.47c.24 0 .462.033.668.1.205.065.387.16.543.283.156.123.28.27.37.438.088.17.133.356.133.562v.478a9.124 9.124 0 01-.658.15 4.555 4.555 0 01-.847.068c-.478 0-.849-.094-1.11-.283a.88.88 0 01-.395-.75v-.02c0-.16.035-.305.105-.434a.938.938 0 01.284-.323c.12-.087.257-.153.413-.199.156-.047.321-.07.494-.07m-.156-.63c-.24 0-.477.034-.71.1-.233.066-.44.168-.62.305a1.57 1.57 0 00-.435.505c-.11.2-.165.433-.165.7v.02c0 .28.053.525.16.735.107.21.258.384.455.525.197.14.43.246.7.32.27.073.568.11.895.11.333 0 .622-.02.865-.06.244-.04.482-.094.715-.16v.158c0 .457-.133.804-.4 1.04-.267.234-.643.352-1.13.352-.307 0-.585-.033-.835-.1a4.392 4.392 0 01-.735-.27l-.23.633c.287.135.577.244.87.325.293.081.63.122 1.01.122.733 0 1.29-.19 1.67-.57.36-.36.54-.867.54-1.52v-3.16h-.76v.77a2.48 2.48 0 00-.725-.615c-.303-.177-.682-.266-1.135-.266M116.52 513.568c.28 0 .536.053.77.16a1.876 1.876 0 01.99 1.06c.092.24.14.496.14.77v.02c0 .28-.049.541-.146.785a1.953 1.953 0 01-1.015 1.075 1.8 1.8 0 01-.76.16 1.823 1.823 0 01-1.365-.59 1.97 1.97 0 01-.385-.635 2.133 2.133 0 01-.14-.776v-.019c0-.28.048-.542.145-.785a1.93 1.93 0 011.005-1.065 1.8 1.8 0 01.76-.16m-.02-.69a2.655 2.655 0 00-2.68 2.68v.02a2.716 2.716 0 00.76 1.9 2.659 2.659 0 001.94.8 2.677 2.677 0 001.93-.795c.24-.244.427-.527.56-.85.133-.324.2-.669.2-1.036v-.019c0-.367-.068-.714-.205-1.04a2.743 2.743 0 00-.565-.86 2.664 2.664 0 00-.86-.586 2.728 2.728 0 00-1.08-.214M123.6 520.298h.77v-3.03c.172.28.4.518.68.716.28.196.642.294 1.09.294.312 0 .591-.05.834-.15.243-.1.45-.241.62-.425.17-.183.3-.401.39-.655.09-.253.135-.533.135-.84v-3.21h-.77v3.014c0 .478-.124.857-.37 1.138-.247.279-.6.419-1.06.419-.22 0-.425-.04-.615-.116a1.426 1.426 0 01-.495-.33 1.473 1.473 0 01-.325-.513 1.813 1.813 0 01-.115-.66v-2.952h-.77zM132.14 513.568c.28 0 .536.053.77.16a1.876 1.876 0 01.99 1.06c.092.24.14.496.14.77v.02c0 .28-.049.541-.146.785a1.953 1.953 0 01-1.015 1.075 1.8 1.8 0 01-.76.16 1.823 1.823 0 01-1.365-.59 1.988 1.988 0 01-.385-.635 2.154 2.154 0 01-.14-.776v-.019c0-.28.048-.542.145-.785a1.93 1.93 0 011.005-1.065 1.8 1.8 0 01.76-.16m-.02-.69a2.655 2.655 0 00-2.68 2.68v.02c0 .366.067.713.2 1.04.133.326.32.613.56.86a2.659 2.659 0 001.94.8 2.673 2.673 0 002.49-1.646c.133-.323.2-.668.2-1.035v-.019c0-.367-.068-.714-.205-1.04a2.743 2.743 0 00-.565-.86 2.664 2.664 0 00-.86-.586 2.725 2.725 0 00-1.08-.214M136.22 518.168h.77v-1.35c.092.213.21.411.35.59.14.18.3.335.48.465a2.028 2.028 0 001.28.385v-.83h-.06c-.28 0-.546-.05-.796-.15-.25-.1-.469-.25-.655-.45a2.13 2.13 0 01-.44-.745 3.018 3.018 0 01-.16-1.025v-2.06h-.77zM140.339 518.168h.77v-5.17h-.77zm-.05 1.98h.88v-.851h-.88zM142.6 513.488l3.43 4.03h-3.31v.65h4.36v-.49l-3.44-4.03h3.44v-.65h-4.48z" fill="#231f20"/><g><path d="M150.84 513.568c.28 0 .536.053.77.16a1.876 1.876 0 01.99 1.06c.092.24.14.496.14.77v.02c0 .28-.049.541-.146.785a1.953 1.953 0 01-1.015 1.075 1.8 1.8 0 01-.76.16 1.823 1.823 0 01-1.365-.59 1.97 1.97 0 01-.385-.635 2.133 2.133 0 01-.14-.776v-.019c0-.28.048-.542.145-.785a1.93 1.93 0 011.005-1.065 1.8 1.8 0 01.76-.16m-.02-.69a2.655 2.655 0 00-2.68 2.68v.02a2.716 2.716 0 00.76 1.9 2.659 2.659 0 001.94.8 2.677 2.677 0 001.93-.795c.24-.244.427-.527.56-.85.133-.324.2-.669.2-1.036v-.019c0-.367-.068-.714-.205-1.04a2.743 2.743 0 00-.565-.86 2.664 2.664 0 00-.86-.586 2.728 2.728 0 00-1.08-.214" fill="#231f20"/></g><g><path d="M154.919 518.168h.77v-.9c.173.28.4.518.68.715.28.197.643.295 1.09.295.314 0 .592-.049.835-.15.243-.1.45-.241.62-.425.17-.183.3-.401.39-.655.09-.253.135-.533.135-.84v-3.21h-.77v3.014c0 .478-.123.857-.37 1.137s-.6.419-1.06.419c-.22 0-.425-.039-.615-.115a1.426 1.426 0 01-.495-.329 1.488 1.488 0 01-.325-.514 1.839 1.839 0 01-.115-.659v-2.953h-.77z" fill="#231f20"/></g><g><path d="M162.81 512.908c-.208 0-.4.026-.58.08-.18.053-.336.138-.466.255-.13.116-.232.27-.305.455a1.82 1.82 0 00-.11.67v3.12h-.72v.68h.72v1.56h.77v-1.56h1.64v-.68h-1.64v-3.013c0-.319.08-.542.24-.668.16-.126.37-.189.63-.189a1.66 1.66 0 01.75.17v-.66a1.727 1.727 0 00-.425-.165 2.164 2.164 0 00-.505-.055" fill="#231f20"/></g><g><path d="M166.815 513.518c.239 0 .462.033.668.1.206.066.387.16.543.284.156.123.279.268.369.437.089.169.134.357.134.563v.477a8.665 8.665 0 01-.657.15 4.566 4.566 0 01-.849.069c-.478 0-.848-.095-1.11-.283a.882.882 0 01-.394-.751v-.021a.89.89 0 01.104-.432.94.94 0 01.285-.323 1.35 1.35 0 01.414-.2c.155-.047.32-.07.492-.07m-.156-.63c-.24 0-.476.034-.71.1a1.86 1.86 0 00-.62.305c-.18.137-.325.305-.434.505a1.42 1.42 0 00-.165.7v.02c0 .28.053.525.16.735.106.21.258.385.454.526.197.139.43.246.7.319.271.073.57.11.896.11.333 0 .621-.02.865-.06a6.55 6.55 0 00.715-.16v.159c0 .457-.134.804-.4 1.039-.267.234-.644.353-1.13.353-.307 0-.586-.034-.836-.1a4.31 4.31 0 01-.735-.271l-.229.634c.286.135.576.243.87.324a3.8 3.8 0 001.01.122c.733 0 1.29-.19 1.67-.57.36-.36.54-.866.54-1.52v-3.16h-.76v.77a2.484 2.484 0 00-.726-.614c-.303-.177-.68-.266-1.135-.266" fill="#231f20"/></g><path d="M170.979 520.298h.77v-7.3h-.77z" fill="#231f20"/><g><path d="M88.5 499.588c-.895.5-1.58 1.106-2.06 1.82-.48.713-.72 1.534-.72 2.46 0 .927.24 1.746.72 2.46.48.713 1.165 1.32 2.06 1.82l.33-.51c-.768-.487-1.346-1.034-1.736-1.645-.39-.61-.584-1.318-.584-2.125 0-.806.194-1.514.584-2.125.39-.61.969-1.158 1.736-1.645z" fill="#231f20"/></g><g><path d="M92.894 504.178c.288 0 .55.037.787.11.237.075.441.179.612.317.17.136.301.299.391.486.09.188.135.399.135.632v.02c0 .5-.172.88-.516 1.139-.345.258-.801.386-1.369.386h-1.775v-3.09zm-2.525 3.82h2.62c.394 0 .752-.051 1.075-.155a2.46 2.46 0 00.83-.44 1.91 1.91 0 00.53-.695c.124-.273.185-.583.185-.93v-.02c0-.38-.073-.712-.22-.995a2.123 2.123 0 00-.595-.715 2.582 2.582 0 00-.875-.434 3.77 3.77 0 00-1.06-.146h-1.7v-2.47h-.79z" fill="#231f20"/></g><g><path d="M96.92 506.168h.77v-1.35c.092.213.21.411.35.59.14.18.3.335.48.465a2.028 2.028 0 001.28.385v-.83h-.06c-.28 0-.546-.05-.796-.15-.25-.1-.469-.25-.655-.45a2.13 2.13 0 01-.44-.745 3.018 3.018 0 01-.16-1.025v-2.06h-.77z" fill="#231f20"/></g><path d="M101.04 506.168h.77v-5.17h-.77zm-.051 1.98h.88v-.851h-.88z" fill="#231f20"/><g><path d="M103.6 506.168h.77v-.9c.172.28.4.518.68.715.28.197.642.295 1.09.295.313 0 .591-.049.834-.15.243-.1.45-.241.62-.425.17-.183.3-.401.39-.655.09-.253.135-.533.135-.84v-3.21h-.77v3.014c0 .478-.123.857-.37 1.137s-.6.419-1.06.419c-.22 0-.425-.039-.615-.115a1.426 1.426 0 01-.495-.329 1.488 1.488 0 01-.325-.514 1.839 1.839 0 01-.115-.659v-2.953h-.77z" fill="#231f20"/></g><g><path d="M112.09 500.878c-.38 0-.733.072-1.056.215a2.63 2.63 0 00-1.395 1.435c-.133.327-.2.67-.2 1.03v.02a2.735 2.735 0 00.755 1.9 2.594 2.594 0 001.895.799c.247 0 .47-.022.67-.07a2.48 2.48 0 001.01-.49c.14-.112.27-.233.39-.36l-.51-.54a3.662 3.662 0 01-.675.55c-.243.155-.54.23-.895.23-.26 0-.503-.051-.73-.154a1.825 1.825 0 01-.59-.425 1.945 1.945 0 01-.39-.635 2.18 2.18 0 01-.14-.785v-.02c0-.28.048-.542.145-.785.097-.243.23-.457.4-.64s.37-.327.6-.43c.23-.104.482-.155.755-.155.333 0 .628.074.885.22.257.147.488.33.695.55l.49-.46a3.456 3.456 0 00-.885-.72c-.33-.186-.738-.28-1.225-.28" fill="#231f20"/></g><path d="M115.539 506.168h.77v-5.17h-.77zm-.05 1.98h.88v-.851h-.88z" fill="#231f20"/><g><path d="M120.709 501.578c.247 0 .481.045.705.135.223.09.417.22.58.39.163.17.293.378.39.625a2.3 2.3 0 01.145.84v.02c0 .306-.049.583-.145.83a1.886 1.886 0 01-.395.63 1.743 1.743 0 01-1.28.54c-.24 0-.472-.048-.695-.145a1.964 1.964 0 01-1.02-1.04 2.048 2.048 0 01-.155-.805v-.02c0-.3.052-.573.155-.82a1.901 1.901 0 011.02-1.035c.223-.097.455-.145.695-.145m-2.61 4.59h.77v-1.04c.107.153.225.3.355.44a2.225 2.225 0 00.97.614c.197.064.415.096.655.096.307 0 .608-.06.905-.18.297-.12.561-.295.795-.525.233-.23.42-.51.56-.84.14-.33.21-.709.21-1.135v-.02c0-.42-.07-.797-.21-1.13a2.598 2.598 0 00-.555-.845 2.414 2.414 0 00-2.365-.625 2.213 2.213 0 00-.975.59c-.13.133-.245.274-.345.42v-2.59h-.77z" fill="#231f20"/></g><g><path d="M126.435 501.518c.239 0 .462.033.668.1.206.066.387.16.543.284.156.123.279.268.369.437.089.169.134.357.134.563v.477a8.665 8.665 0 01-.657.15 4.566 4.566 0 01-.848.069c-.478 0-.85-.095-1.111-.283a.883.883 0 01-.394-.751v-.021a.89.89 0 01.105-.432.93.93 0 01.284-.323 1.35 1.35 0 01.414-.2c.156-.047.32-.07.493-.07m-.156-.63c-.24 0-.476.034-.71.1a1.86 1.86 0 00-.62.305 1.59 1.59 0 00-.435.505c-.11.2-.165.434-.165.7v.02c0 .28.054.525.16.735.107.21.259.385.455.526.197.139.43.246.7.319.27.073.569.11.896.11.333 0 .62-.02.864-.06.244-.04.482-.093.715-.16v.159c0 .457-.133.804-.4 1.039-.266.234-.643.353-1.13.353-.306 0-.585-.034-.835-.1a4.31 4.31 0 01-.735-.271l-.23.634c.287.135.577.243.87.324.294.08.63.122 1.01.122.734 0 1.29-.19 1.67-.57.36-.36.54-.866.54-1.52v-3.16h-.76v.77a2.467 2.467 0 00-.725-.614c-.303-.177-.681-.266-1.135-.266" fill="#231f20"/></g><path d="M130.599 508.298h.77v-7.3h-.77z" fill="#231f20"/><g><path d="M132.859 500.098c.766.487 1.345 1.035 1.735 1.646.39.61.585 1.318.585 2.125 0 .806-.195 1.514-.585 2.125-.39.61-.97 1.158-1.735 1.644l.33.51c.893-.5 1.58-1.107 2.06-1.82.48-.713.72-1.533.72-2.46 0-.926-.24-1.747-.72-2.46-.48-.713-1.167-1.32-2.06-1.82z" fill="#231f20"/></g><g><path d="M85.43 276.2h.88l2.49-6.03 2.5 6.03h.85l-3.01-7.05h-.7z" fill="#231f20"/></g><g><path d="M97.19 272.1c-.02.23-.07.452-.15.66-.08.209-.189.394-.326.553a1.49 1.49 0 01-.5.378 1.56 1.56 0 01-.675.138c-.22 0-.427-.042-.62-.128a1.58 1.58 0 01-.51-.364 2.018 2.018 0 01-.365-.551 2.223 2.223 0 01-.185-.686zm-3.33-.631c.026-.273.092-.516.2-.73a1.74 1.74 0 01.97-.874c.206-.078.422-.116.65-.116.36 0 .667.067.924.2.258.133.493.31.706.53l.48-.43a3.179 3.179 0 00-.89-.705c-.334-.176-.748-.265-1.24-.265-.353 0-.687.066-1 .196a2.46 2.46 0 00-.82.55 2.61 2.61 0 00-.555.855 2.862 2.862 0 00-.205 1.1c0 .373.062.724.185 1.054.123.33.295.618.515.86.22.244.482.435.785.576.303.14.635.21.995.21.38 0 .72-.072 1.02-.215.3-.144.553-.34.76-.585.207-.247.363-.537.47-.87.107-.334.16-.69.16-1.07v-.116a1.37 1.37 0 00-.01-.155z" fill="#231f20"/></g><g><path d="M99.32 274.37h.77v-1.35c.092.212.21.41.35.59.14.18.3.334.48.464a2.028 2.028 0 001.28.385v-.83h-.06c-.28 0-.546-.05-.796-.15-.25-.1-.468-.25-.655-.45a2.146 2.146 0 01-.44-.745 3.018 3.018 0 01-.16-1.025v-2.06h-.77z" fill="#231f20"/></g><g><path d="M105.08 269.1c-.374 0-.75.068-1.13.205-.38.136-.717.32-1.01.555l.39.55c.28-.214.572-.377.875-.491.303-.113.608-.17.915-.17.313 0 .57.074.77.22.2.148.3.347.3.6v.02a.531.531 0 01-.105.33.935.935 0 01-.285.245c-.12.07-.26.132-.415.186a9.194 9.194 0 01-.485.149c-.2.06-.402.125-.605.196a2.48 2.48 0 00-.55.264 1.341 1.341 0 00-.4.4c-.103.16-.155.36-.155.6v.02a1.365 1.365 0 00.495 1.075c.156.13.343.23.56.3.216.07.45.105.705.105.32 0 .643-.051.97-.154.327-.103.623-.242.89-.415l-.35-.58c-.24.153-.492.274-.755.364a2.367 2.367 0 01-.775.136c-.307 0-.55-.072-.73-.216a.655.655 0 01-.27-.534v-.021c0-.12.036-.224.11-.314a.931.931 0 01.295-.235c.123-.067.265-.127.425-.18.16-.054.326-.107.5-.16.2-.061.398-.127.595-.2.196-.074.375-.167.535-.281.16-.113.288-.25.385-.41.097-.16.145-.356.145-.59v-.02a1.42 1.42 0 00-.535-1.14 1.743 1.743 0 00-.58-.305 2.416 2.416 0 00-.725-.104" fill="#231f20"/></g><g><path d="M108.78 275.19c.1.38.222.649.37.81.146.16.34.24.58.24.112 0 .23-.022.35-.066.12-.043.24-.09.36-.14.12-.05.232-.094.34-.134a.838.838 0 01.29-.061c.132 0 .234.038.304.11.07.074.142.2.215.38l.47-.13c-.1-.38-.223-.65-.37-.81a.75.75 0 00-.58-.24c-.113 0-.23.02-.35.06-.12.04-.24.085-.36.135l-.34.14a.783.783 0 01-.29.065c-.133 0-.235-.036-.305-.11-.07-.072-.142-.2-.215-.38zm1.265-5.471c.24 0 .462.034.668.1.205.066.387.16.543.284.156.123.28.269.37.438.088.169.133.356.133.562v.478a9.124 9.124 0 01-.658.149 4.555 4.555 0 01-.847.069c-.478 0-.849-.094-1.11-.283a.88.88 0 01-.395-.751v-.02c0-.16.035-.304.105-.433a.938.938 0 01.284-.323c.12-.087.257-.153.413-.2.156-.046.321-.07.494-.07m-.156-.63c-.24 0-.477.035-.71.1-.233.067-.44.169-.62.306a1.57 1.57 0 00-.435.505c-.11.2-.165.433-.165.7v.019c0 .28.053.526.16.736.107.21.258.384.455.525.197.14.43.246.7.319.27.074.568.11.895.11.333 0 .622-.02.865-.06.244-.04.482-.093.715-.16v.158c0 .458-.133.805-.4 1.04s-.643.353-1.13.353c-.307 0-.585-.033-.835-.1a4.392 4.392 0 01-.735-.27l-.23.633c.287.135.577.244.87.325.293.08.63.122 1.01.122.733 0 1.29-.191 1.67-.571.36-.36.54-.867.54-1.52v-3.16h-.76v.77a2.48 2.48 0 00-.725-.615c-.303-.177-.682-.266-1.135-.266" fill="#231f20"/></g><g><path d="M116.52 269.77c.28 0 .536.053.77.16a1.876 1.876 0 01.99 1.06c.092.24.14.496.14.769v.02c0 .28-.049.542-.146.786a1.953 1.953 0 01-1.015 1.075 1.8 1.8 0 01-.76.159 1.823 1.823 0 01-1.365-.59 1.97 1.97 0 01-.385-.634 2.133 2.133 0 01-.14-.776v-.02c0-.28.048-.541.145-.784a1.93 1.93 0 011.005-1.065 1.8 1.8 0 01.76-.16m-.02-.69a2.655 2.655 0 00-2.68 2.678v.021a2.716 2.716 0 00.76 1.9 2.659 2.659 0 001.94.8 2.677 2.677 0 001.93-.794c.24-.244.427-.527.56-.851.133-.323.2-.668.2-1.035v-.02c0-.367-.068-.714-.205-1.04a2.743 2.743 0 00-.565-.86 2.664 2.664 0 00-.86-.586 2.728 2.728 0 00-1.08-.214" fill="#231f20"/></g><g><path d="M123.09 274.37h.85l1.74-4.29 1.75 4.29h.83l-2.25-5.21h-.68z" fill="#231f20"/></g><g><path d="M133.259 272.1c-.02.23-.07.452-.15.66-.08.209-.189.394-.325.553a1.5 1.5 0 01-.5.378 1.563 1.563 0 01-.675.138c-.22 0-.427-.042-.62-.128a1.558 1.558 0 01-.51-.364 1.995 1.995 0 01-.365-.551 2.223 2.223 0 01-.185-.686zm-3.33-.631c.027-.273.093-.516.2-.73a1.74 1.74 0 01.97-.874c.207-.078.423-.116.65-.116.36 0 .668.067.925.2s.491.31.705.53l.48-.43a3.179 3.179 0 00-.89-.705c-.333-.176-.747-.265-1.24-.265a2.58 2.58 0 00-1 .196 2.45 2.45 0 00-.82.55 2.61 2.61 0 00-.555.855 2.862 2.862 0 00-.205 1.1c0 .373.061.724.185 1.054.123.33.295.618.515.86.22.244.482.435.785.576.303.14.635.21.995.21.38 0 .72-.072 1.02-.215.3-.144.553-.34.76-.585.207-.247.363-.537.47-.87.107-.334.16-.69.16-1.07v-.116a1.37 1.37 0 00-.01-.155z" fill="#231f20"/></g><g><path d="M135.389 274.37h.77v-1.35c.093.212.21.41.35.59.14.18.3.334.48.464a2.028 2.028 0 001.28.385v-.83h-.06c-.28 0-.545-.05-.795-.15-.25-.1-.47-.25-.655-.45a2.13 2.13 0 01-.44-.745 3.018 3.018 0 01-.16-1.025v-2.06h-.77z" fill="#231f20"/></g><g><path d="M141.169 269.11c-.207 0-.4.025-.58.08-.18.052-.335.137-.465.254-.13.116-.232.27-.305.455a1.82 1.82 0 00-.11.67v3.12h-.72v.68h.72v1.56h.77v-1.56h1.64v-.68h-1.64v-3.013c0-.319.08-.542.24-.668.16-.126.37-.189.63-.189a1.66 1.66 0 01.75.17v-.66a1.727 1.727 0 00-.425-.165 2.164 2.164 0 00-.505-.055" fill="#231f20"/></g><path d="M143.549 274.369h.77v-5.17h-.77zm-.05 1.981h.88v-.851h-.88z" fill="#231f20"/><g><path d="M148.439 269.08c-.38 0-.731.071-1.055.214a2.673 2.673 0 00-.84.58 2.707 2.707 0 00-.755 1.885v.02a2.735 2.735 0 00.755 1.901 2.597 2.597 0 001.895.799c.247 0 .47-.023.67-.07a2.48 2.48 0 001.01-.49c.14-.113.27-.234.39-.36l-.51-.54a3.629 3.629 0 01-.675.55c-.244.154-.542.23-.896.23-.26 0-.503-.052-.73-.155a1.825 1.825 0 01-.59-.425 1.962 1.962 0 01-.39-.635 2.18 2.18 0 01-.14-.785v-.02c0-.28.049-.542.146-.785.097-.243.23-.457.4-.64s.37-.327.6-.43c.23-.104.482-.155.755-.155.334 0 .628.074.885.22.257.147.489.33.695.55l.49-.46a3.456 3.456 0 00-.885-.72c-.33-.186-.738-.28-1.225-.28" fill="#231f20"/></g><g><path d="M153.514 269.719c.24 0 .462.033.668.1.206.066.387.16.543.284.156.123.28.268.37.437.088.169.133.357.133.563v.477a8.665 8.665 0 01-.657.15 4.566 4.566 0 01-.848.069c-.478 0-.848-.095-1.11-.283a.882.882 0 01-.394-.751v-.021a.89.89 0 01.104-.432.94.94 0 01.284-.323 1.35 1.35 0 01.414-.2c.156-.047.32-.07.493-.07m-.156-.63c-.24 0-.476.034-.71.1a1.86 1.86 0 00-.62.305c-.18.137-.325.305-.434.505a1.42 1.42 0 00-.165.7v.02c0 .28.053.525.16.735.106.21.258.385.454.526.197.139.43.246.7.319.271.073.57.11.896.11.333 0 .621-.02.865-.06a6.55 6.55 0 00.715-.16v.159c0 .457-.134.804-.4 1.039-.267.234-.644.353-1.13.353-.307 0-.586-.034-.836-.1a4.31 4.31 0 01-.735-.271l-.229.634c.286.135.576.243.87.324a3.8 3.8 0 001.01.122c.733 0 1.29-.19 1.67-.57.36-.36.54-.866.54-1.52v-3.16h-.76v.77a2.484 2.484 0 00-.726-.614c-.303-.177-.68-.266-1.135-.266" fill="#231f20"/></g><path d="M157.679 276.499h.77v-7.3h-.77z" fill="#231f20"/></g></svg>