<?xml version="1.0" encoding="UTF-8" standalone="no"?>
<!-- Created with Inkscape (http://www.inkscape.org/) -->

<svg
   version="1.1"
   id="svg15075"
   xml:space="preserve"
   width="500"
   height="115.45535"
   viewBox="0 0 499.99999 115.45535"
   sodipodi:docname="ESE-logo.svg"
   inkscape:version="1.1.2 (0a00cf5339, 2022-02-04)"
   xmlns:inkscape="http://www.inkscape.org/namespaces/inkscape"
   xmlns:sodipodi="http://sodipodi.sourceforge.net/DTD/sodipodi-0.dtd"
   xmlns="http://www.w3.org/2000/svg"
   xmlns:svg="http://www.w3.org/2000/svg"><defs
     id="defs15079"><clipPath
       clipPathUnits="userSpaceOnUse"
       id="clipPath15095"><path
         d="M 0,595.275 H 841.89 V 0 H 0 Z"
         id="path15093" /></clipPath></defs><sodipodi:namedview
     id="namedview15077"
     pagecolor="#505050"
     bordercolor="#ffffff"
     borderopacity="1"
     inkscape:pageshadow="0"
     inkscape:pageopacity="0"
     inkscape:pagecheckerboard="1"
     showgrid="false"
     inkscape:zoom="3.3770101"
     inkscape:cx="209.20873"
     inkscape:cy="54.041888"
     inkscape:window-width="1920"
     inkscape:window-height="1007"
     inkscape:window-x="1536"
     inkscape:window-y="30"
     inkscape:window-maximized="1"
     inkscape:current-layer="g15081" /><g
     id="g15081"
     inkscape:groupmode="layer"
     inkscape:label="Logos_Versoes_v2"
     transform="matrix(1.3333333,0,0,-1.3333333,-278.75441,635.03385)"><g
       id="g15085"
       transform="translate(278.2329,447.0459)" /><g
       id="g15089"><g
         id="g15091"
         clip-path="url(#clipPath15095)"><g
           id="g15097"
           transform="translate(278.7524,434.0459)" /><g
           id="g15101"
           transform="translate(235.9199,428.0127)" /><g
           id="g15105"
           transform="translate(300.9375,461.7744)" /><g
           id="g15109"
           transform="translate(214.0898,461.5146)" /><g
           id="g15113"
           transform="translate(330.9761,464.5439)" /><g
           id="g15117"
           transform="translate(351.7534,446.7939)" /><g
           id="g15121"
           transform="translate(365.4136,446.7441)" /><g
           id="g15125"
           transform="translate(379.0308,450.0186)" /><g
           id="g15131"
           transform="translate(400.6675,449.4189)" /><g
           id="g15135"
           transform="translate(424.1675,446.7939)" /><g
           id="g15139"
           transform="translate(437.625,446.7939)" /><g
           id="g15143"
           transform="translate(455.4243,450.0186)" /><g
           id="g15147"
           transform="translate(473.6841,454.7939)" /><g
           id="g15151"
           transform="translate(479.8042,460.4443)" /><g
           id="g15157"
           transform="translate(503.2212,450.0186)" /><g
           id="g15161"
           transform="translate(512.7983,460.4443)" /><g
           id="g15165"
           transform="translate(338.0508,424.0186)" /><g
           id="g15169"
           transform="translate(356.9009,428.7939)" /><g
           id="g15173"
           transform="translate(370.8252,438.5439)" /><g
           id="g15177"
           transform="translate(393.1304,424.0186)" /><g
           id="g15181"
           transform="translate(407.7026,420.7939)" /><g
           id="g15185"
           transform="translate(424.7871,420.7432)" /><g
           id="g15189"
           transform="translate(437.3569,423.4189)" /><g
           id="g15193"
           transform="translate(448.9741,418.0439)" /><g
           id="g15197"
           transform="translate(465.7192,423.4189)" /><g
           id="g15201"
           transform="translate(481.812,424.0186)" /><g
           id="g15205"
           transform="translate(491.6265,461.7812)"><g
             id="g16135"><g
               id="g24286"
               transform="matrix(1.2026651,0,0,1.2026651,57.265203,-2.9374683)"><path
                 d="m 210.196,447.046 h 7.789 v -26.001 h -7.789 z"
                 style="fill:#000000;fill-opacity:1;fill-rule:nonzero;stroke:none"
                 id="path15083"
                 transform="translate(-491.6265,-461.7812)" /><path
                 d="m 0,0 -9.607,-26.001 h -8.829 L -28.042,0 h 8.62 l 5.401,-16.484 5.4,16.484 z"
                 style="fill:#000000;fill-opacity:1;fill-rule:nonzero;stroke:none"
                 id="path15087"
                 transform="translate(-213.3936,-14.735296)" /><path
                 d="m 0,0 c 0,7.747 5.868,13.728 13.762,13.728 5.036,0 9.503,-2.653 11.735,-6.657 L 18.695,3.119 C 17.812,4.939 15.942,6.031 13.657,6.031 10.283,6.031 7.79,3.588 7.79,0 c 0,-3.589 2.493,-6.033 5.867,-6.033 2.285,0 4.207,1.093 5.038,2.913 l 6.802,-3.901 C 23.265,-11.076 18.85,-13.729 13.762,-13.729 5.868,-13.729 0,-7.749 0,0"
                 style="fill:#000000;fill-opacity:1;fill-rule:nonzero;stroke:none"
                 id="path15099"
                 transform="translate(-212.8741,-27.735302)" /><path
                 d="m 0,0 c -2.963,0 -5.542,1.937 -5.542,5.785 0,4.265 2.468,6.279 5.568,6.279 3.376,0 5.855,-2.443 5.855,-6.032 C 5.881,2.444 3.375,0 0,0 m -0.104,19.761 c -6.687,0 -12.649,-6.291 -12.649,-13.039 l 0.019,-30.459 h 7.814 v 17.704 c 1,-0.927 3.127,-1.662 4.859,-1.662 7.894,0 13.741,5.979 13.741,13.727 0,7.748 -5.89,13.729 -13.784,13.729"
                 style="fill:#000000;fill-opacity:1;fill-rule:nonzero;stroke:none"
                 id="path15103"
                 transform="translate(-255.7066,-33.768497)" /><path
                 d="m 0,0 c -2.914,-3.383 -6.993,-5.253 -11.194,-5.253 -4.201,0 -8.312,1.868 -11.226,5.251 -0.226,0.262 -0.436,0.531 -0.642,0.807 C -23.269,0.53 -23.481,0.262 -23.706,0 c -2.914,-3.383 -7.032,-5.253 -11.233,-5.253 -4.2,0 -8.319,1.868 -11.233,5.251 -0.225,0.262 -0.44,0.531 -0.647,0.807 -0.206,-0.275 -0.42,-0.543 -0.646,-0.805 -2.914,-3.383 -7.033,-5.253 -11.233,-5.253 -4.2,0 -8.32,1.965 -11.234,5.348 -2.006,2.33 -3.259,5.406 -3.803,8.406 h 7.163 c 1.096,-4 3.605,-6.67 7.564,-6.67 5.157,0 8.07,4.565 8.07,10.192 v 2.478 h 7.626 l -0.005,-2.647 c 0,-5.626 3.223,-10.205 8.379,-10.205 5.157,0 8.38,4.537 8.38,10.164 l -0.013,2.688 h 7.007 l 0.007,-2.645 c 0,-5.628 3.223,-10.207 8.379,-10.207 5.157,0 8.38,4.537 8.38,10.164 l -0.007,2.688 H 4.062 V 12.023 C 4.062,7.502 2.786,3.234 0,0"
                 style="fill:#0055a4;fill-opacity:1;fill-rule:nonzero;stroke:none"
                 id="path15107"
                 transform="translate(-190.689,-0.00680346)" /><path
                 d="m 0,0 c -2.736,0 -5.024,2.292 -5.024,5.031 0,2.74 2.288,5.032 5.024,5.032 2.736,0 5.024,-2.292 5.024,-5.032 C 5.024,2.292 2.736,0 0,0"
                 style="fill:#0055a4;fill-opacity:1;fill-rule:nonzero;stroke:none"
                 id="path15111"
                 transform="translate(-277.5367,-0.26660346)" /><path
                 d="M 0,0 H 13.175 V -3.425 H 3.8 v -3.55 h 8.25 V -10.4 H 3.8 v -3.675 h 9.5 V -17.5 H 0 Z"
                 style="fill:#000000;fill-opacity:1;fill-rule:nonzero;stroke:none"
                 id="path15115"
                 transform="translate(-160.6504,2.7626991)" /><path
                 d="M 0,0 C -0.95,0 -1.921,0.162 -2.913,0.487 -3.904,0.812 -4.85,1.325 -5.75,2.025 l 1.625,2.5 c 0.733,-0.534 1.462,-0.933 2.188,-1.2 0.725,-0.266 1.403,-0.4 2.037,-0.4 0.55,0 0.954,0.092 1.212,0.275 C 1.571,3.383 1.7,3.625 1.7,3.925 v 0.05 C 1.7,4.175 1.625,4.35 1.475,4.5 1.325,4.65 1.121,4.779 0.862,4.888 0.604,4.996 0.308,5.1 -0.025,5.2 -0.358,5.3 -0.708,5.408 -1.075,5.525 -1.542,5.658 -2.013,5.82 -2.487,6.013 -2.962,6.204 -3.392,6.454 -3.775,6.763 -4.159,7.07 -4.471,7.45 -4.712,7.9 -4.954,8.35 -5.075,8.9 -5.075,9.55 V 9.6 c 0,0.683 0.129,1.288 0.388,1.812 0.258,0.526 0.608,0.971 1.049,1.338 0.442,0.366 0.959,0.642 1.551,0.825 0.591,0.183 1.229,0.275 1.912,0.275 0.85,0 1.713,-0.137 2.588,-0.412 C 3.288,13.162 4.091,12.783 4.825,12.3 L 3.375,9.675 c -0.667,0.384 -1.317,0.687 -1.95,0.913 -0.633,0.225 -1.192,0.337 -1.675,0.337 -0.467,0 -0.817,-0.087 -1.05,-0.263 C -1.534,10.487 -1.65,10.267 -1.65,10 V 9.95 c 0,-0.183 0.075,-0.346 0.225,-0.487 0.15,-0.143 0.35,-0.275 0.6,-0.4 C -0.575,8.938 -0.288,8.816 0.038,8.7 0.362,8.583 0.708,8.467 1.075,8.35 1.542,8.2 2.017,8.021 2.5,7.812 2.983,7.604 3.416,7.35 3.8,7.05 4.183,6.75 4.5,6.383 4.75,5.95 5,5.517 5.125,4.991 5.125,4.375 V 4.325 C 5.125,3.575 4.996,2.929 4.737,2.388 4.479,1.846 4.116,1.4 3.65,1.05 3.183,0.7 2.638,0.437 2.013,0.263 1.388,0.088 0.716,0 0,0"
                 style="fill:#000000;fill-opacity:1;fill-rule:nonzero;stroke:none"
                 id="path15119"
                 transform="translate(-139.8731,-14.987296)" /><path
                 d="M 0,0 C -1,0 -1.93,0.184 -2.788,0.55 -3.646,0.916 -4.384,1.412 -5,2.037 -5.617,2.662 -6.1,3.396 -6.45,4.237 -6.8,5.079 -6.975,5.975 -6.975,6.925 v 0.05 c 0,0.95 0.175,1.85 0.525,2.7 0.35,0.849 0.833,1.592 1.45,2.224 0.616,0.634 1.354,1.134 2.212,1.5 0.858,0.368 1.804,0.551 2.838,0.551 1.266,0 2.316,-0.2 3.15,-0.6 0.833,-0.4 1.566,-0.951 2.2,-1.65 L 3.075,9.2 c -0.434,0.449 -0.88,0.808 -1.338,1.074 -0.458,0.267 -1.029,0.401 -1.712,0.401 -0.484,0 -0.921,-0.096 -1.313,-0.287 C -1.68,10.195 -2.021,9.933 -2.313,9.6 -2.604,9.267 -2.83,8.879 -2.988,8.438 -3.146,7.995 -3.225,7.524 -3.225,7.024 V 6.975 c 0,-0.517 0.079,-1 0.237,-1.451 C -2.83,5.075 -2.6,4.683 -2.3,4.35 -2,4.017 -1.642,3.754 -1.225,3.563 -0.809,3.37 -0.342,3.274 0.175,3.274 0.808,3.274 1.362,3.403 1.837,3.662 2.313,3.921 2.783,4.267 3.25,4.7 L 5.475,2.45 C 4.825,1.733 4.083,1.146 3.25,0.687 2.416,0.229 1.333,0 0,0"
                 style="fill:#000000;fill-opacity:1;fill-rule:nonzero;stroke:none"
                 id="path15123"
                 transform="translate(-126.2129,-15.037096)" /><path
                 d="M 0,0 C 0.55,0 1.038,0.096 1.463,0.288 1.888,0.479 2.25,0.742 2.55,1.075 2.85,1.408 3.079,1.796 3.238,2.238 3.396,2.68 3.475,3.15 3.475,3.65 V 3.7 c 0,0.5 -0.083,0.971 -0.25,1.413 C 3.059,5.555 2.816,5.946 2.5,6.288 2.184,6.629 1.809,6.9 1.375,7.101 0.941,7.301 0.467,7.4 -0.05,7.4 -0.6,7.4 -1.087,7.305 -1.512,7.113 -1.937,6.921 -2.3,6.658 -2.6,6.325 -2.9,5.992 -3.129,5.604 -3.287,5.163 -3.446,4.721 -3.525,4.25 -3.525,3.75 V 3.7 c 0,-0.5 0.084,-0.971 0.25,-1.412 C -3.108,1.846 -2.867,1.454 -2.55,1.113 -2.233,0.771 -1.862,0.5 -1.437,0.301 -1.012,0.101 -0.533,0 0,0 m -0.05,-3.274 c -1.033,0 -1.992,0.178 -2.875,0.537 -0.884,0.358 -1.646,0.85 -2.287,1.475 -0.642,0.625 -1.146,1.358 -1.513,2.199 -0.367,0.842 -0.55,1.747 -0.55,2.713 V 3.7 c 0,0.967 0.183,1.871 0.55,2.713 0.367,0.841 0.875,1.579 1.525,2.212 0.65,0.634 1.417,1.134 2.3,1.5 0.883,0.367 1.85,0.551 2.9,0.551 1.033,0 1.991,-0.18 2.875,-0.538 C 3.758,9.779 4.521,9.288 5.163,8.663 5.804,8.038 6.308,7.305 6.675,6.463 7.042,5.621 7.225,4.717 7.225,3.75 V 3.7 C 7.225,2.733 7.042,1.829 6.675,0.988 6.308,0.146 5.8,-0.592 5.15,-1.225 4.5,-1.858 3.733,-2.358 2.85,-2.725 1.967,-3.091 1,-3.274 -0.05,-3.274"
                 style="fill:#000000;fill-opacity:1;fill-rule:nonzero;stroke:none"
                 id="path15127"
                 transform="translate(-112.5957,-11.762604)" /><path
                 d="m 388.72,465.294 h 3.8 v -18.25 h -3.8 z"
                 style="fill:#000000;fill-opacity:1;fill-rule:nonzero;stroke:none"
                 id="path15129"
                 transform="translate(-491.6265,-461.7812)" /><path
                 d="m 0,0 c 0.9,0 1.621,0.217 2.163,0.65 0.541,0.433 0.813,1 0.813,1.7 V 3.025 C 2.642,3.175 2.271,3.296 1.863,3.388 1.454,3.479 1.017,3.525 0.55,3.525 c -0.817,0 -1.458,-0.159 -1.925,-0.475 -0.466,-0.317 -0.7,-0.775 -0.7,-1.375 v -0.05 c 0,-0.517 0.192,-0.917 0.575,-1.2 C -1.117,0.142 -0.617,0 0,0 m -1.15,-2.625 c -0.633,0 -1.229,0.088 -1.787,0.263 -0.559,0.174 -1.046,0.437 -1.462,0.787 -0.417,0.35 -0.747,0.779 -0.988,1.288 -0.242,0.508 -0.363,1.096 -0.363,1.762 v 0.05 c 0,0.733 0.134,1.367 0.4,1.9 0.267,0.533 0.638,0.975 1.113,1.325 0.475,0.35 1.041,0.612 1.7,0.787 C -1.879,5.713 -1.15,5.8 -0.35,5.8 0.333,5.8 0.929,5.75 1.437,5.65 1.946,5.55 2.441,5.416 2.925,5.25 V 5.475 C 2.925,6.275 2.684,6.883 2.2,7.3 1.717,7.717 1,7.925 0.05,7.925 -0.684,7.925 -1.329,7.862 -1.887,7.737 -2.446,7.612 -3.033,7.434 -3.649,7.2 L -4.6,10.1 c 0.734,0.316 1.5,0.575 2.3,0.775 0.8,0.2 1.767,0.3 2.9,0.3 1.05,0 1.946,-0.129 2.688,-0.388 C 4.029,10.529 4.642,10.158 5.125,9.675 5.625,9.175 5.992,8.563 6.226,7.838 6.458,7.112 6.575,6.3 6.575,5.4 V -2.375 H 2.9 v 1.45 C 2.434,-1.441 1.875,-1.854 1.225,-2.162 0.575,-2.471 -0.217,-2.625 -1.15,-2.625"
                 style="fill:#000000;fill-opacity:1;fill-rule:nonzero;stroke:none"
                 id="path15133"
                 transform="translate(-90.959,-12.362296)" /><path
                 d="m 0,0 c -1.333,0 -2.642,0.229 -3.925,0.687 -1.284,0.459 -2.45,1.163 -3.5,2.113 l 2.275,2.725 c 0.8,-0.65 1.621,-1.167 2.462,-1.55 C -1.846,3.592 -0.925,3.4 0.075,3.4 0.875,3.4 1.496,3.546 1.937,3.838 2.379,4.129 2.6,4.533 2.6,5.05 V 5.1 C 2.6,5.35 2.554,5.57 2.462,5.763 2.37,5.954 2.194,6.133 1.936,6.3 1.677,6.467 1.317,6.633 0.858,6.8 0.398,6.967 -0.199,7.142 -0.935,7.325 -1.82,7.541 -2.622,7.783 -3.341,8.05 -4.06,8.316 -4.67,8.646 -5.171,9.037 -5.672,9.429 -6.061,9.916 -6.336,10.5 -6.612,11.083 -6.75,11.809 -6.75,12.675 v 0.05 c 0,0.8 0.148,1.521 0.447,2.163 0.298,0.641 0.716,1.196 1.254,1.663 0.538,0.466 1.181,0.824 1.928,1.074 C -2.374,17.875 -1.55,18 -0.65,18 0.633,18 1.812,17.809 2.888,17.426 3.962,17.041 4.95,16.492 5.85,15.775 l -2,-2.9 C 3.066,13.408 2.3,13.829 1.55,14.138 0.8,14.445 0.05,14.6 -0.7,14.6 -1.45,14.6 -2.013,14.454 -2.388,14.162 -2.763,13.871 -2.95,13.508 -2.95,13.075 v -0.05 c 0,-0.284 0.054,-0.529 0.163,-0.738 0.108,-0.208 0.305,-0.395 0.589,-0.562 C -1.914,11.559 -1.525,11.4 -1.032,11.25 -0.54,11.1 0.083,10.925 0.835,10.725 1.721,10.491 2.51,10.229 3.204,9.938 3.897,9.646 4.482,9.296 4.958,8.888 5.435,8.479 5.794,8 6.036,7.45 6.278,6.9 6.4,6.241 6.4,5.475 V 5.425 C 6.4,4.559 6.242,3.787 5.928,3.112 5.613,2.438 5.175,1.871 4.612,1.412 4.048,0.954 3.376,0.604 2.596,0.362 1.815,0.121 0.95,0 0,0"
                 style="fill:#000000;fill-opacity:1;fill-rule:nonzero;stroke:none"
                 id="path15137"
                 transform="translate(-67.459002,-14.987296)" /><path
                 d="m 0,0 c -1.45,0 -2.571,0.441 -3.363,1.325 -0.791,0.883 -1.187,2.1 -1.187,3.65 v 8.675 h 3.8 V 6.193 c 0,-0.898 0.2,-1.576 0.6,-2.033 0.4,-0.457 0.966,-0.685 1.7,-0.685 0.733,0 1.312,0.228 1.738,0.685 0.424,0.457 0.637,1.135 0.637,2.033 v 7.457 h 3.8 V 0.25 h -3.8 V 2.166 C 3.708,1.88 3.471,1.607 3.212,1.348 2.954,1.087 2.667,0.856 2.35,0.654 2.033,0.453 1.683,0.294 1.3,0.176 0.917,0.059 0.483,0 0,0"
                 style="fill:#000000;fill-opacity:1;fill-rule:nonzero;stroke:none"
                 id="path15141"
                 transform="translate(-54.001497,-14.987296)" /><path
                 d="M 0,0 C 0.45,0 0.871,0.088 1.263,0.263 1.654,0.437 2,0.687 2.3,1.013 2.6,1.338 2.838,1.726 3.013,2.176 3.188,2.625 3.275,3.134 3.275,3.7 V 3.75 C 3.275,4.301 3.188,4.805 3.013,5.263 2.838,5.721 2.6,6.113 2.3,6.437 2,6.763 1.654,7.013 1.263,7.187 0.871,7.363 0.45,7.45 0,7.45 -0.45,7.45 -0.871,7.363 -1.262,7.187 -1.654,7.013 -1.996,6.763 -2.287,6.437 -2.579,6.113 -2.813,5.721 -2.987,5.263 -3.162,4.805 -3.25,4.301 -3.25,3.75 V 3.7 c 0,-0.55 0.088,-1.054 0.263,-1.512 0.174,-0.459 0.408,-0.85 0.7,-1.175 0.291,-0.326 0.633,-0.576 1.025,-0.75 C -0.871,0.088 -0.45,0 0,0 m -7,10.426 h 3.8 V 8.5 c 0.467,0.634 1.029,1.154 1.688,1.563 0.658,0.408 1.488,0.613 2.488,0.613 0.783,0 1.541,-0.151 2.274,-0.45 C 3.983,9.926 4.634,9.479 5.2,8.888 5.767,8.296 6.221,7.571 6.562,6.713 6.904,5.854 7.075,4.867 7.075,3.75 V 3.7 C 7.075,2.584 6.904,1.596 6.562,0.738 6.221,-0.121 5.771,-0.846 5.213,-1.437 4.654,-2.029 4.009,-2.475 3.275,-2.774 c -0.733,-0.3 -1.5,-0.451 -2.299,-0.451 -1.018,0 -1.855,0.201 -2.513,0.6 -0.659,0.4 -1.213,0.867 -1.663,1.4 v -5.75 H -7 Z"
                 style="fill:#000000;fill-opacity:1;fill-rule:nonzero;stroke:none"
                 id="path15145"
                 transform="translate(-36.202204,-11.762604)" /><path
                 d="M 0,0 C -0.117,0.85 -0.417,1.537 -0.9,2.063 -1.383,2.588 -2.025,2.85 -2.825,2.85 -3.625,2.85 -4.271,2.592 -4.763,2.075 -5.254,1.559 -5.575,0.866 -5.725,0 Z m -2.45,-8.05 c -1,0 -1.929,0.167 -2.787,0.5 -0.859,0.333 -1.6,0.808 -2.225,1.425 -0.625,0.616 -1.113,1.346 -1.463,2.187 -0.35,0.842 -0.525,1.78 -0.525,2.813 v 0.05 c 0,0.95 0.162,1.85 0.488,2.7 0.324,0.85 0.778,1.592 1.362,2.225 0.583,0.633 1.279,1.133 2.087,1.5 0.809,0.367 1.704,0.55 2.688,0.55 1.117,0 2.083,-0.2 2.9,-0.6 C 0.892,4.9 1.571,4.362 2.113,3.688 2.654,3.013 3.054,2.237 3.313,1.362 3.571,0.487 3.7,-0.425 3.7,-1.375 3.7,-1.525 3.696,-1.684 3.688,-1.85 3.679,-2.017 3.667,-2.191 3.65,-2.375 h -9.325 c 0.183,-0.867 0.563,-1.521 1.138,-1.963 C -3.962,-4.779 -3.25,-5 -2.4,-5 c 0.633,0 1.2,0.108 1.7,0.325 0.5,0.216 1.016,0.567 1.55,1.05 L 3.025,-5.55 c -0.633,-0.784 -1.4,-1.396 -2.3,-1.838 -0.9,-0.441 -1.958,-0.662 -3.175,-0.662"
                 style="fill:#000000;fill-opacity:1;fill-rule:nonzero;stroke:none"
                 id="path15149"
                 transform="translate(-17.942403,-6.9873011)" /><path
                 d="m 0,0 h 3.8 v -2.7 c 0.383,0.916 0.908,1.649 1.575,2.2 0.666,0.55 1.566,0.8 2.7,0.75 v -3.976 h -0.2 C 6.608,-3.726 5.612,-4.109 4.888,-4.875 4.162,-5.643 3.8,-6.834 3.8,-8.45 V -13.4 H 0 Z"
                 style="fill:#000000;fill-opacity:1;fill-rule:nonzero;stroke:none"
                 id="path15153"
                 transform="translate(-11.822298,-1.3368985)" /><path
                 d="m 489.727,460.444 h 3.8 v -13.4 h -3.8 z"
                 style="fill:#000000;fill-opacity:1;fill-rule:nonzero;stroke:none"
                 id="path15155"
                 transform="translate(-491.6265,-461.7812)" /><path
                 d="M 0,0 C 0.55,0 1.038,0.096 1.463,0.288 1.888,0.479 2.25,0.742 2.55,1.075 2.85,1.408 3.079,1.796 3.237,2.238 3.396,2.68 3.475,3.15 3.475,3.65 V 3.7 c 0,0.5 -0.083,0.971 -0.25,1.413 C 3.059,5.555 2.816,5.946 2.5,6.288 2.184,6.629 1.809,6.9 1.375,7.101 0.941,7.301 0.467,7.4 -0.05,7.4 -0.6,7.4 -1.087,7.305 -1.513,7.113 -1.937,6.921 -2.3,6.658 -2.6,6.325 -2.9,5.992 -3.129,5.604 -3.287,5.163 -3.446,4.721 -3.525,4.25 -3.525,3.75 V 3.7 c 0,-0.5 0.084,-0.971 0.25,-1.412 C -3.108,1.846 -2.867,1.454 -2.55,1.113 -2.233,0.771 -1.862,0.5 -1.437,0.301 -1.013,0.101 -0.533,0 0,0 m -0.05,-3.274 c -1.033,0 -1.992,0.178 -2.875,0.537 -0.884,0.358 -1.646,0.85 -2.287,1.475 -0.642,0.625 -1.146,1.358 -1.513,2.199 -0.367,0.842 -0.55,1.747 -0.55,2.713 V 3.7 c 0,0.967 0.183,1.871 0.55,2.713 0.367,0.841 0.875,1.579 1.525,2.212 0.65,0.634 1.416,1.134 2.3,1.5 0.883,0.367 1.85,0.551 2.9,0.551 1.033,0 1.992,-0.18 2.875,-0.538 C 3.758,9.779 4.521,9.288 5.163,8.663 5.804,8.038 6.308,7.305 6.675,6.463 7.042,5.621 7.225,4.717 7.225,3.75 V 3.7 C 7.225,2.733 7.042,1.829 6.675,0.988 6.308,0.146 5.8,-0.592 5.15,-1.225 4.5,-1.858 3.733,-2.358 2.85,-2.725 1.967,-3.091 1,-3.274 -0.05,-3.274"
                 style="fill:#000000;fill-opacity:1;fill-rule:nonzero;stroke:none"
                 id="path15159"
                 transform="translate(11.594698,-11.762604)" /><path
                 d="m 0,0 h 3.8 v -2.7 c 0.384,0.916 0.908,1.649 1.575,2.2 0.667,0.55 1.566,0.8 2.7,0.75 v -3.976 h -0.2 C 6.608,-3.726 5.613,-4.109 4.888,-4.875 4.163,-5.643 3.8,-6.834 3.8,-8.45 V -13.4 H 0 Z"
                 style="fill:#000000;fill-opacity:1;fill-rule:nonzero;stroke:none"
                 id="path15163"
                 transform="translate(21.1718,-1.3368985)" /><path
                 d="m 0,0 c 0.45,0 0.871,0.088 1.263,0.263 0.391,0.174 0.733,0.424 1.025,0.75 0.291,0.325 0.525,0.716 0.7,1.175 C 3.163,2.646 3.25,3.15 3.25,3.7 V 3.75 C 3.25,4.3 3.163,4.804 2.988,5.263 2.813,5.721 2.579,6.112 2.288,6.437 1.996,6.763 1.654,7.013 1.263,7.187 0.871,7.363 0.45,7.45 0,7.45 -0.45,7.45 -0.871,7.363 -1.262,7.187 -1.654,7.013 -2,6.763 -2.3,6.437 -2.6,6.112 -2.837,5.725 -3.012,5.275 -3.188,4.825 -3.275,4.316 -3.275,3.75 V 3.7 c 0,-0.55 0.087,-1.054 0.263,-1.512 C -2.837,1.729 -2.6,1.338 -2.3,1.013 -2,0.687 -1.654,0.437 -1.262,0.263 -0.871,0.088 -0.45,0 0,0 m -0.975,-3.225 c -0.783,0 -1.542,0.15 -2.275,0.45 -0.733,0.3 -1.383,0.746 -1.95,1.338 -0.567,0.591 -1.021,1.316 -1.362,2.174 -0.342,0.859 -0.513,1.846 -0.513,2.963 v 0.05 c 0,1.116 0.171,2.104 0.513,2.963 0.341,0.857 0.791,1.583 1.35,2.175 0.558,0.591 1.204,1.038 1.937,1.337 0.733,0.3 1.5,0.451 2.3,0.451 1.017,0 1.854,-0.201 2.513,-0.601 C 2.196,9.676 2.75,9.209 3.2,8.676 v 6.599 H 7 V -2.975 H 3.2 V -1.05 C 2.733,-1.684 2.171,-2.204 1.513,-2.612 0.854,-3.021 0.025,-3.225 -0.975,-3.225"
                 style="fill:#000000;fill-opacity:1;fill-rule:nonzero;stroke:none"
                 id="path15167"
                 transform="translate(-153.5757,-37.762599)" /><path
                 d="M 0,0 C -0.117,0.85 -0.417,1.537 -0.9,2.063 -1.384,2.588 -2.025,2.85 -2.825,2.85 -3.625,2.85 -4.271,2.592 -4.763,2.074 -5.254,1.558 -5.575,0.866 -5.725,0 Z m -2.45,-8.051 c -1,0 -1.929,0.167 -2.788,0.5 -0.858,0.334 -1.6,0.809 -2.225,1.426 -0.625,0.616 -1.112,1.346 -1.462,2.187 -0.35,0.841 -0.525,1.779 -0.525,2.813 v 0.05 c 0,0.95 0.162,1.849 0.487,2.7 0.325,0.85 0.779,1.592 1.363,2.225 0.583,0.632 1.279,1.132 2.087,1.5 0.808,0.367 1.704,0.55 2.688,0.55 1.116,0 2.083,-0.201 2.9,-0.6 C 0.891,4.9 1.57,4.362 2.112,3.688 2.654,3.012 3.054,2.237 3.313,1.362 3.57,0.487 3.7,-0.426 3.7,-1.375 3.7,-1.525 3.695,-1.684 3.688,-1.851 3.679,-2.018 3.666,-2.192 3.65,-2.375 h -9.325 c 0.183,-0.867 0.562,-1.521 1.137,-1.963 C -3.963,-4.779 -3.25,-5 -2.4,-5 c 0.633,0 1.2,0.107 1.7,0.324 0.5,0.217 1.016,0.567 1.55,1.051 l 2.175,-1.926 c -0.634,-0.783 -1.4,-1.395 -2.3,-1.837 -0.9,-0.441 -1.959,-0.663 -3.175,-0.663"
                 style="fill:#000000;fill-opacity:1;fill-rule:nonzero;stroke:none"
                 id="path15171"
                 transform="translate(-134.7256,-32.987297)" /><path
                 d="M 0,0 H 13.175 V -3.425 H 3.8 v -3.55 h 8.25 V -10.4 H 3.8 v -3.675 h 9.5 V -17.5 H 0 Z"
                 style="fill:#000000;fill-opacity:1;fill-rule:nonzero;stroke:none"
                 id="path15175"
                 transform="translate(-120.8013,-23.237297)" /><path
                 d="m 0,0 c 0.45,0 0.871,0.088 1.262,0.263 0.392,0.174 0.734,0.424 1.025,0.75 0.292,0.325 0.526,0.716 0.7,1.175 C 3.162,2.646 3.25,3.15 3.25,3.7 V 3.75 C 3.25,4.3 3.162,4.804 2.987,5.263 2.813,5.721 2.579,6.112 2.287,6.437 1.996,6.763 1.654,7.013 1.262,7.187 0.871,7.363 0.45,7.45 0,7.45 -0.45,7.45 -0.871,7.363 -1.263,7.187 -1.654,7.013 -2,6.763 -2.3,6.437 -2.6,6.112 -2.838,5.725 -3.013,5.275 -3.188,4.825 -3.275,4.316 -3.275,3.75 V 3.7 c 0,-0.55 0.087,-1.054 0.262,-1.512 C -2.838,1.729 -2.6,1.338 -2.3,1.013 -2,0.687 -1.654,0.437 -1.263,0.263 -0.871,0.088 -0.45,0 0,0 m -0.975,-3.225 c -0.784,0 -1.542,0.15 -2.275,0.45 -0.733,0.3 -1.384,0.746 -1.95,1.338 -0.567,0.591 -1.022,1.316 -1.362,2.174 -0.342,0.859 -0.513,1.846 -0.513,2.963 v 0.05 c 0,1.116 0.171,2.104 0.513,2.963 0.34,0.857 0.791,1.583 1.349,2.175 0.559,0.591 1.204,1.038 1.938,1.337 0.733,0.3 1.5,0.451 2.3,0.451 1.016,0 1.854,-0.201 2.512,-0.601 C 2.195,9.676 2.75,9.209 3.2,8.676 v 6.599 H 7 V -2.975 H 3.2 V -1.05 C 2.733,-1.684 2.17,-2.204 1.512,-2.612 0.854,-3.021 0.025,-3.225 -0.975,-3.225"
                 style="fill:#000000;fill-opacity:1;fill-rule:nonzero;stroke:none"
                 id="path15179"
                 transform="translate(-98.496103,-37.762599)" /><path
                 d="M 0,0 C -1.45,0 -2.571,0.441 -3.363,1.324 -4.154,2.208 -4.55,3.425 -4.55,4.975 v 8.675 h 3.8 V 6.193 c 0,-0.898 0.2,-1.576 0.6,-2.033 0.4,-0.457 0.966,-0.685 1.7,-0.685 0.733,0 1.312,0.228 1.737,0.685 0.425,0.457 0.638,1.135 0.638,2.033 v 7.457 h 3.8 V 0.25 h -3.8 V 2.165 C 3.708,1.88 3.471,1.607 3.212,1.347 2.954,1.087 2.666,0.855 2.35,0.654 2.033,0.453 1.683,0.293 1.3,0.176 0.916,0.059 0.483,0 0,0"
                 style="fill:#000000;fill-opacity:1;fill-rule:nonzero;stroke:none"
                 id="path15183"
                 transform="translate(-83.923902,-40.987299)" /><path
                 d="M 0,0 C -1,0 -1.929,0.184 -2.788,0.551 -3.646,0.917 -4.383,1.413 -5,2.038 -5.617,2.663 -6.1,3.396 -6.45,4.238 -6.8,5.079 -6.975,5.976 -6.975,6.926 v 0.05 c 0,0.95 0.175,1.849 0.525,2.7 0.35,0.849 0.833,1.592 1.45,2.224 0.617,0.633 1.354,1.133 2.212,1.5 0.859,0.368 1.804,0.551 2.838,0.551 1.266,0 2.316,-0.201 3.15,-0.6 0.833,-0.4 1.566,-0.951 2.2,-1.65 L 3.075,9.2 c -0.434,0.45 -0.879,0.809 -1.338,1.075 -0.458,0.267 -1.029,0.401 -1.712,0.401 -0.483,0 -0.921,-0.096 -1.313,-0.287 C -1.679,10.196 -2.021,9.934 -2.313,9.601 -2.604,9.267 -2.83,8.879 -2.988,8.438 -3.146,7.996 -3.225,7.525 -3.225,7.025 V 6.976 c 0,-0.517 0.079,-1 0.237,-1.451 C -2.83,5.075 -2.6,4.684 -2.3,4.351 -2,4.017 -1.642,3.754 -1.225,3.563 c 0.416,-0.192 0.883,-0.288 1.4,-0.288 0.633,0 1.187,0.129 1.662,0.388 C 2.313,3.921 2.783,4.267 3.25,4.7 L 5.475,2.45 C 4.825,1.733 4.083,1.146 3.25,0.687 2.417,0.229 1.333,0 0,0"
                 style="fill:#000000;fill-opacity:1;fill-rule:nonzero;stroke:none"
                 id="path15187"
                 transform="translate(-66.839397,-41.037999)" /><path
                 d="m 0,0 c 0.9,0 1.621,0.216 2.163,0.649 0.541,0.434 0.812,1 0.812,1.701 V 3.024 C 2.642,3.175 2.271,3.295 1.863,3.387 1.454,3.479 1.017,3.524 0.55,3.524 c -0.817,0 -1.458,-0.158 -1.925,-0.474 -0.467,-0.318 -0.7,-0.776 -0.7,-1.375 v -0.05 c 0,-0.518 0.191,-0.917 0.575,-1.2 C -1.117,0.141 -0.617,0 0,0 m -1.15,-2.625 c -0.633,0 -1.229,0.087 -1.788,0.262 -0.558,0.175 -1.045,0.437 -1.462,0.788 -0.417,0.349 -0.746,0.778 -0.988,1.287 -0.241,0.509 -0.362,1.096 -0.362,1.763 v 0.049 c 0,0.734 0.133,1.367 0.4,1.901 0.267,0.533 0.638,0.974 1.113,1.325 0.474,0.35 1.041,0.612 1.699,0.787 C -1.879,5.712 -1.15,5.8 -0.35,5.8 0.333,5.8 0.929,5.75 1.437,5.649 1.946,5.55 2.441,5.416 2.925,5.25 V 5.475 C 2.925,6.274 2.684,6.883 2.2,7.3 1.717,7.717 1,7.925 0.05,7.925 -0.684,7.925 -1.329,7.862 -1.888,7.737 -2.446,7.612 -3.034,7.434 -3.65,7.199 L -4.6,10.1 c 0.733,0.316 1.5,0.575 2.3,0.775 0.8,0.199 1.767,0.3 2.9,0.3 1.05,0 1.946,-0.13 2.688,-0.388 0.741,-0.258 1.354,-0.629 1.837,-1.112 0.5,-0.5 0.867,-1.112 1.1,-1.837 C 6.458,7.112 6.575,6.3 6.575,5.399 V -2.375 H 2.9 v 1.449 C 2.434,-1.442 1.875,-1.854 1.225,-2.163 0.575,-2.471 -0.217,-2.625 -1.15,-2.625"
                 style="fill:#000000;fill-opacity:1;fill-rule:nonzero;stroke:none"
                 id="path15191"
                 transform="translate(-54.269599,-38.362299)" /><path
                 d="M 0,0 2.05,3 C 1.316,3.216 0.654,3.537 0.063,3.962 -0.529,4.387 -1.037,4.887 -1.462,5.462 -1.887,6.037 -2.216,6.679 -2.45,7.387 -2.683,8.096 -2.8,8.841 -2.8,9.625 v 0.05 c 0,0.95 0.175,1.849 0.526,2.7 0.349,0.85 0.833,1.592 1.449,2.225 0.617,0.632 1.354,1.132 2.213,1.5 0.858,0.367 1.803,0.55 2.838,0.55 1.266,0 2.316,-0.201 3.149,-0.6 0.833,-0.4 1.567,-0.95 2.2,-1.65 L 7.25,11.899 c -0.433,0.451 -0.879,0.809 -1.337,1.076 -0.459,0.266 -1.029,0.4 -1.713,0.4 -0.483,0 -0.921,-0.096 -1.312,-0.287 C 2.496,12.896 2.154,12.633 1.863,12.3 1.571,11.966 1.346,11.578 1.187,11.137 1.029,10.695 0.95,10.225 0.95,9.725 v -0.05 c 0,-0.517 0.079,-1 0.237,-1.45 C 1.346,7.774 1.575,7.383 1.875,7.05 2.175,6.716 2.533,6.453 2.95,6.262 3.367,6.07 3.833,5.975 4.351,5.975 c 0.632,0 1.187,0.129 1.662,0.387 0.475,0.258 0.945,0.604 1.412,1.037 L 9.65,5.149 C 9.05,4.5 8.379,3.953 7.638,3.512 6.896,3.07 5.95,2.809 4.8,2.725 l -1.625,-4.05 z"
                 style="fill:#000000;fill-opacity:1;fill-rule:nonzero;stroke:none"
                 id="path15195"
                 transform="translate(-42.652399,-43.737302)" /><path
                 d="m 0,0 c 0.9,0 1.621,0.216 2.163,0.649 0.541,0.434 0.813,1 0.813,1.701 V 3.024 C 2.642,3.175 2.271,3.295 1.863,3.387 1.454,3.479 1.017,3.524 0.55,3.524 c -0.817,0 -1.458,-0.158 -1.925,-0.474 -0.467,-0.318 -0.7,-0.776 -0.7,-1.375 v -0.05 c 0,-0.518 0.192,-0.917 0.575,-1.2 C -1.117,0.141 -0.617,0 0,0 m -4.4,12.875 c 0.15,0.517 0.313,0.987 0.488,1.412 0.175,0.426 0.383,0.788 0.625,1.088 0.241,0.3 0.525,0.533 0.849,0.7 0.326,0.166 0.705,0.25 1.138,0.25 0.383,0 0.754,-0.05 1.113,-0.15 0.358,-0.1 0.695,-0.212 1.012,-0.337 C 1.142,15.713 1.434,15.6 1.7,15.5 c 0.267,-0.1 0.517,-0.15 0.75,-0.15 0.383,0 0.671,0.104 0.863,0.312 0.191,0.209 0.378,0.513 0.562,0.913 L 5.9,15.95 C 5.617,14.9 5.246,14.063 4.788,13.438 4.329,12.813 3.667,12.5 2.8,12.5 c -0.383,0 -0.754,0.05 -1.113,0.15 -0.358,0.1 -0.695,0.212 -1.012,0.337 -0.317,0.125 -0.613,0.238 -0.887,0.338 -0.275,0.1 -0.521,0.15 -0.738,0.15 -0.383,0 -0.671,-0.104 -0.862,-0.313 -0.192,-0.208 -0.379,-0.512 -0.563,-0.912 z m 3.25,-15.5 c -0.633,0 -1.229,0.087 -1.788,0.262 -0.558,0.175 -1.045,0.437 -1.462,0.788 -0.416,0.349 -0.746,0.778 -0.987,1.287 -0.242,0.509 -0.363,1.096 -0.363,1.763 v 0.049 c 0,0.734 0.133,1.367 0.4,1.901 0.267,0.533 0.638,0.974 1.113,1.325 0.475,0.35 1.041,0.612 1.7,0.787 C -1.879,5.712 -1.15,5.8 -0.35,5.8 0.333,5.8 0.929,5.75 1.437,5.649 1.946,5.55 2.441,5.416 2.925,5.25 V 5.475 C 2.925,6.274 2.684,6.883 2.2,7.3 1.717,7.717 1,7.925 0.05,7.925 -0.684,7.925 -1.329,7.862 -1.887,7.737 -2.446,7.612 -3.033,7.434 -3.65,7.199 L -4.6,10.1 c 0.733,0.316 1.5,0.575 2.3,0.775 0.8,0.199 1.767,0.3 2.9,0.3 1.05,0 1.946,-0.13 2.688,-0.388 C 4.029,10.529 4.642,10.158 5.125,9.675 5.625,9.175 5.992,8.563 6.226,7.838 6.458,7.112 6.575,6.3 6.575,5.399 V -2.375 H 2.9 v 1.449 C 2.434,-1.442 1.875,-1.854 1.225,-2.163 0.575,-2.471 -0.217,-2.625 -1.15,-2.625"
                 style="fill:#000000;fill-opacity:1;fill-rule:nonzero;stroke:none"
                 id="path15199"
                 transform="translate(-25.907298,-38.362299)" /><path
                 d="M 0,0 C 0.55,0 1.037,0.096 1.462,0.287 1.888,0.479 2.25,0.741 2.55,1.075 2.85,1.408 3.079,1.796 3.237,2.237 3.396,2.679 3.475,3.15 3.475,3.65 V 3.7 c 0,0.5 -0.083,0.971 -0.25,1.412 C 3.058,5.554 2.816,5.945 2.5,6.287 2.183,6.629 1.808,6.9 1.375,7.1 0.941,7.301 0.466,7.4 -0.05,7.4 -0.6,7.4 -1.088,7.305 -1.513,7.113 -1.937,6.921 -2.3,6.658 -2.6,6.325 -2.9,5.991 -3.129,5.604 -3.288,5.162 -3.446,4.721 -3.525,4.25 -3.525,3.75 V 3.7 c 0,-0.5 0.083,-0.971 0.25,-1.413 C -3.109,1.846 -2.867,1.454 -2.55,1.112 -2.234,0.771 -1.863,0.5 -1.437,0.3 -1.013,0.1 -0.534,0 0,0 m -0.05,-3.275 c -1.034,0 -1.992,0.179 -2.875,0.538 -0.884,0.358 -1.646,0.849 -2.287,1.474 -0.642,0.625 -1.146,1.359 -1.513,2.2 -0.367,0.842 -0.55,1.747 -0.55,2.713 V 3.7 c 0,0.966 0.183,1.87 0.55,2.712 0.367,0.842 0.875,1.58 1.525,2.213 0.65,0.633 1.416,1.133 2.3,1.5 0.883,0.367 1.85,0.551 2.9,0.551 1.033,0 1.991,-0.18 2.875,-0.538 C 3.758,9.779 4.521,9.287 5.163,8.662 5.804,8.037 6.308,7.305 6.675,6.463 7.042,5.621 7.225,4.717 7.225,3.75 V 3.7 C 7.225,2.733 7.042,1.829 6.675,0.987 6.308,0.146 5.8,-0.592 5.15,-1.225 4.5,-1.858 3.733,-2.358 2.85,-2.725 1.966,-3.092 1,-3.275 -0.05,-3.275"
                 style="fill:#000000;fill-opacity:1;fill-rule:nonzero;stroke:none"
                 id="path15203"
                 transform="translate(-9.814503,-37.762599)" /><path
                 d="m 0,0 c -1.186,0 -2.178,0.993 -2.178,2.181 0,1.188 0.992,2.181 2.178,2.181 1.186,0 2.178,-0.993 2.178,-2.181 C 2.178,0.993 1.186,0 0,0"
                 style="fill:#000000;fill-opacity:1;fill-rule:nonzero;stroke:none"
                 id="path15207" /></g></g></g><path
           d="m 208.906,201.048 h 7.789 v -26 h -7.789 z"
           style="fill:#000000;fill-opacity:1;fill-rule:nonzero;stroke:none"
           id="path15209" /><g
           id="g15211"
           transform="translate(276.9434,201.0479)"><path
             d="m 0,0 -9.607,-26 h -8.828 l -9.607,26 h 8.62 l 5.401,-16.484 5.4,16.484 z"
             style="fill:#000000;fill-opacity:1;fill-rule:nonzero;stroke:none"
             id="path15213" /></g><g
           id="g15215"
           transform="translate(277.4629,188.0479)"><path
             d="m 0,0 c 0,7.748 5.868,13.728 13.761,13.728 5.037,0 9.504,-2.652 11.736,-6.657 L 18.695,3.12 C 17.812,4.94 15.942,6.031 13.657,6.031 10.283,6.031 7.79,3.588 7.79,0 c 0,-3.588 2.493,-6.032 5.867,-6.032 2.285,0 4.207,1.092 5.038,2.912 l 6.802,-3.901 C 23.265,-11.076 18.85,-13.729 13.761,-13.729 5.868,-13.729 0,-7.748 0,0"
             style="fill:#000000;fill-opacity:1;fill-rule:nonzero;stroke:none"
             id="path15217" /></g><g
           id="g15219"
           transform="translate(234.6304,182.0156)"><path
             d="m 0,0 c -2.963,0 -5.542,1.937 -5.542,5.784 0,4.265 2.468,6.279 5.568,6.279 3.376,0 5.855,-2.443 5.855,-6.031 C 5.881,2.444 3.375,0 0,0 m -0.104,19.76 c -6.687,0 -12.649,-6.291 -12.649,-13.041 l 0.019,-30.459 h 8.104 v 17.706 c 1,-0.927 2.982,-1.662 4.713,-1.662 7.894,0 13.668,5.98 13.668,13.728 0,7.748 -5.961,13.728 -13.855,13.728"
             style="fill:#000000;fill-opacity:1;fill-rule:nonzero;stroke:none"
             id="path15221" /></g><g
           id="g15223"
           transform="translate(299.793,215.7764)"><path
             d="m 0,0 c -2.914,-3.383 -7.066,-5.253 -11.267,-5.253 -4.2,0 -8.347,1.868 -11.261,5.25 -0.226,0.263 -0.454,0.532 -0.661,0.808 C -23.396,0.53 -23.617,0.262 -23.842,0 c -2.914,-3.383 -7.036,-5.253 -11.237,-5.253 -4.201,0 -8.321,1.868 -11.235,5.25 -0.227,0.263 -0.442,0.532 -0.649,0.808 C -47.169,0.53 -47.384,0.262 -47.609,0 c -2.914,-3.383 -7.033,-5.253 -11.234,-5.253 -4.2,0 -8.319,1.965 -11.233,5.348 -2.007,2.33 -3.26,5.404 -3.804,8.404 h 7.163 c 1.096,-4 4.25,-6.668 8.209,-6.668 5.156,0 8.715,4.565 8.715,10.193 v 2.475 h 6.336 l -0.005,-2.645 c 0,-5.628 3.222,-10.205 8.379,-10.205 5.157,0 8.38,4.536 8.38,10.164 l -0.013,2.686 h 7.007 l 0.006,-2.645 c 0,-5.626 3.224,-10.205 8.38,-10.205 5.157,0 8.38,4.536 8.38,10.164 l -0.008,2.686 H 4.207 V 12.024 C 4.207,7.502 2.785,3.235 0,0"
             style="fill:#0055a4;fill-opacity:1;fill-rule:nonzero;stroke:none"
             id="path15225" /></g><g
           id="g15227"
           transform="translate(212.8003,215.5166)"><path
             d="m 0,0 c -2.736,0 -5.024,2.292 -5.024,5.031 0,2.74 2.288,5.032 5.024,5.032 2.735,0 5.024,-2.292 5.024,-5.032 C 5.024,2.292 2.735,0 0,0"
             style="fill:#0055a4;fill-opacity:1;fill-rule:nonzero;stroke:none"
             id="path15229" /></g><g
           id="g15231"
           transform="translate(208.9473,140.8906)"><path
             d="M 0,0 H 11.41 V -2.966 H 3.291 v -3.075 h 7.145 V -9.007 H 3.291 v -3.182 h 8.228 v -2.967 H 0 Z"
             style="fill:#000000;fill-opacity:1;fill-rule:nonzero;stroke:none"
             id="path15233" /></g><g
           id="g15235"
           transform="translate(226.9419,125.5186)"><path
             d="M 0,0 C -0.823,0 -1.664,0.141 -2.522,0.421 -3.382,0.703 -4.2,1.147 -4.98,1.754 l 1.408,2.165 C -2.938,3.456 -2.306,3.11 -1.678,2.879 -1.05,2.648 -0.462,2.533 0.086,2.533 0.563,2.533 0.913,2.612 1.137,2.771 1.36,2.93 1.473,3.139 1.473,3.398 V 3.442 C 1.473,3.615 1.407,3.768 1.277,3.896 1.147,4.027 0.971,4.139 0.747,4.232 0.523,4.326 0.267,4.416 -0.021,4.503 -0.311,4.59 -0.613,4.684 -0.931,4.785 -1.335,4.9 -1.743,5.041 -2.154,5.207 -2.565,5.373 -2.938,5.589 -3.27,5.856 -3.602,6.123 -3.872,6.452 -4.081,6.842 -4.291,7.231 -4.396,7.707 -4.396,8.271 v 0.042 c 0,0.592 0.112,1.116 0.336,1.571 0.224,0.454 0.527,0.841 0.91,1.158 0.382,0.317 0.83,0.556 1.342,0.713 0.512,0.16 1.064,0.239 1.657,0.239 0.735,0 1.483,-0.119 2.24,-0.356 0.758,-0.239 1.454,-0.568 2.09,-0.986 L 2.923,8.379 C 2.346,8.711 1.782,8.975 1.234,9.169 0.686,9.364 0.202,9.461 -0.217,9.461 -0.621,9.461 -0.924,9.386 -1.126,9.234 -1.328,9.082 -1.429,8.891 -1.429,8.66 V 8.617 c 0,-0.159 0.065,-0.3 0.195,-0.422 0.13,-0.123 0.303,-0.238 0.52,-0.346 C -0.498,7.74 -0.249,7.635 0.032,7.534 0.313,7.434 0.613,7.332 0.931,7.231 1.335,7.102 1.746,6.946 2.165,6.766 2.584,6.585 2.959,6.365 3.291,6.105 3.623,5.846 3.897,5.527 4.114,5.152 4.33,4.777 4.438,4.322 4.438,3.789 V 3.745 C 4.438,3.096 4.326,2.536 4.103,2.067 3.879,1.598 3.565,1.212 3.161,0.909 2.757,0.605 2.284,0.379 1.743,0.227 1.202,0.075 0.62,0 0,0"
             style="fill:#000000;fill-opacity:1;fill-rule:nonzero;stroke:none"
             id="path15237" /></g><g
           id="g15239"
           transform="translate(238.772,125.4746)"><path
             d="M 0,0 C -0.866,0 -1.671,0.159 -2.414,0.477 -3.158,0.794 -3.796,1.224 -4.33,1.765 -4.864,2.306 -5.283,2.941 -5.586,3.67 -5.889,4.399 -6.041,5.174 -6.041,5.998 v 0.043 c 0,0.823 0.152,1.603 0.455,2.339 0.303,0.735 0.722,1.378 1.256,1.927 0.534,0.547 1.172,0.981 1.916,1.298 0.743,0.318 1.562,0.477 2.457,0.477 1.098,0 2.007,-0.173 2.728,-0.519 0.722,-0.348 1.357,-0.824 1.906,-1.43 L 2.664,7.968 C 2.288,8.357 1.902,8.668 1.505,8.899 1.107,9.13 0.613,9.245 0.021,9.245 -0.397,9.245 -0.776,9.162 -1.115,8.996 -1.454,8.83 -1.75,8.603 -2.002,8.314 -2.255,8.025 -2.45,7.69 -2.587,7.308 -2.725,6.924 -2.793,6.518 -2.793,6.084 V 6.041 c 0,-0.447 0.068,-0.867 0.206,-1.256 0.137,-0.389 0.335,-0.729 0.595,-1.017 0.26,-0.289 0.57,-0.517 0.931,-0.682 0.361,-0.167 0.765,-0.249 1.213,-0.249 0.548,0 1.029,0.111 1.44,0.335 0.411,0.224 0.819,0.523 1.223,0.899 L 4.742,2.122 C 4.179,1.501 3.537,0.992 2.815,0.596 2.093,0.198 1.155,0 0,0"
             style="fill:#000000;fill-opacity:1;fill-rule:nonzero;stroke:none"
             id="path15241" /></g><g
           id="g15243"
           transform="translate(250.5659,128.3115)"><path
             d="M 0,0 C 0.477,0 0.898,0.082 1.267,0.249 1.635,0.414 1.949,0.642 2.208,0.931 2.468,1.219 2.666,1.555 2.804,1.937 2.941,2.32 3.01,2.728 3.01,3.161 V 3.204 C 3.01,3.637 2.937,4.045 2.793,4.428 2.648,4.81 2.439,5.149 2.165,5.445 1.891,5.74 1.566,5.976 1.191,6.148 0.815,6.322 0.403,6.408 -0.044,6.408 -0.52,6.408 -0.942,6.325 -1.31,6.159 -1.678,5.993 -1.992,5.766 -2.252,5.478 -2.512,5.188 -2.71,4.854 -2.848,4.471 -2.984,4.087 -3.053,3.681 -3.053,3.247 V 3.204 c 0,-0.433 0.072,-0.841 0.216,-1.224 C -2.692,1.598 -2.483,1.259 -2.208,0.962 -1.935,0.667 -1.613,0.433 -1.245,0.26 -0.877,0.086 -0.462,0 0,0 m -0.044,-2.837 c -0.894,0 -1.725,0.155 -2.489,0.465 -0.766,0.311 -1.426,0.737 -1.982,1.278 -0.555,0.541 -0.992,1.176 -1.309,1.906 -0.318,0.728 -0.477,1.511 -0.477,2.349 v 0.043 c 0,0.837 0.159,1.62 0.477,2.35 0.317,0.728 0.758,1.367 1.32,1.916 0.563,0.548 1.227,0.981 1.992,1.299 C -1.747,9.086 -0.91,9.245 0,9.245 0.895,9.245 1.725,9.09 2.49,8.779 3.255,8.469 3.915,8.043 4.471,7.502 5.026,6.961 5.463,6.325 5.781,5.597 6.098,4.867 6.257,4.084 6.257,3.247 V 3.204 C 6.257,2.367 6.098,1.584 5.781,0.855 5.463,0.126 5.023,-0.513 4.46,-1.062 3.897,-1.609 3.233,-2.043 2.468,-2.36 1.703,-2.678 0.866,-2.837 -0.044,-2.837"
             style="fill:#000000;fill-opacity:1;fill-rule:nonzero;stroke:none"
             id="path15245" /></g><path
           d="m 258.958,141.54 h 3.291 v -15.806 h -3.291 z"
           style="fill:#000000;fill-opacity:1;fill-rule:nonzero;stroke:none"
           id="path15247" /><g
           id="g15249"
           transform="translate(269.3047,127.792)"><path
             d="M 0,0 C 0.779,0 1.403,0.187 1.873,0.562 2.342,0.937 2.577,1.429 2.577,2.035 V 2.619 C 2.288,2.749 1.966,2.854 1.613,2.934 1.259,3.013 0.88,3.053 0.476,3.053 -0.231,3.053 -0.787,2.915 -1.191,2.641 -1.595,2.367 -1.797,1.97 -1.797,1.45 V 1.407 c 0,-0.448 0.166,-0.794 0.498,-1.04 C -0.967,0.122 -0.535,0 0,0 m -0.996,-2.273 c -0.548,0 -1.065,0.075 -1.548,0.226 -0.484,0.152 -0.906,0.379 -1.267,0.683 -0.36,0.302 -0.646,0.675 -0.856,1.115 C -4.875,0.19 -4.98,0.699 -4.98,1.277 V 1.32 c 0,0.635 0.115,1.184 0.347,1.646 0.23,0.462 0.551,0.845 0.963,1.147 0.411,0.303 0.902,0.531 1.472,0.682 0.571,0.152 1.202,0.227 1.895,0.227 0.591,0 1.107,-0.043 1.548,-0.129 0.44,-0.086 0.87,-0.203 1.288,-0.346 v 0.194 c 0,0.693 -0.209,1.22 -0.628,1.581 C 1.486,6.683 0.866,6.863 0.043,6.863 -0.592,6.863 -1.151,6.809 -1.635,6.701 -2.119,6.593 -2.627,6.437 -3.161,6.235 l -0.823,2.512 c 0.635,0.274 1.299,0.498 1.992,0.671 0.693,0.174 1.53,0.26 2.512,0.26 0.909,0 1.685,-0.112 2.327,-0.336 C 3.489,9.118 4.02,8.797 4.438,8.379 4.872,7.945 5.189,7.415 5.391,6.787 5.593,6.159 5.694,5.456 5.694,4.676 V -2.058 H 2.511 v 1.256 c -0.404,-0.447 -0.887,-0.804 -1.45,-1.071 -0.563,-0.268 -1.249,-0.4 -2.057,-0.4"
             style="fill:#000000;fill-opacity:1;fill-rule:nonzero;stroke:none"
             id="path15251" /></g><g
           id="g15253"
           transform="translate(289.6567,125.5186)"><path
             d="m 0,0 c -1.155,0 -2.288,0.198 -3.399,0.595 -1.112,0.397 -2.122,1.007 -3.032,1.83 l 1.971,2.36 c 0.692,-0.563 1.403,-1.011 2.132,-1.343 0.729,-0.332 1.527,-0.498 2.393,-0.498 0.693,0 1.23,0.126 1.613,0.379 0.382,0.252 0.574,0.603 0.574,1.05 V 4.416 C 2.252,4.633 2.211,4.824 2.132,4.99 2.053,5.156 1.9,5.312 1.676,5.456 1.452,5.6 1.141,5.744 0.743,5.889 0.345,6.033 -0.173,6.185 -0.81,6.344 -1.576,6.531 -2.271,6.74 -2.894,6.972 c -0.622,0.23 -1.15,0.515 -1.584,0.854 -0.435,0.34 -0.771,0.762 -1.01,1.268 -0.239,0.505 -0.358,1.133 -0.358,1.883 v 0.044 c 0,0.692 0.129,1.316 0.387,1.872 0.258,0.556 0.62,1.036 1.086,1.44 0.466,0.403 1.023,0.714 1.67,0.931 0.647,0.216 1.36,0.325 2.14,0.325 1.111,0 2.132,-0.166 3.063,-0.498 0.932,-0.332 1.787,-0.809 2.566,-1.429 L 3.334,11.15 c -0.679,0.462 -1.342,0.827 -1.992,1.093 -0.65,0.268 -1.299,0.402 -1.948,0.402 -0.65,0 -1.137,-0.127 -1.462,-0.379 -0.325,-0.253 -0.487,-0.568 -0.487,-0.943 V 11.28 c 0,-0.246 0.047,-0.459 0.141,-0.638 0.094,-0.181 0.264,-0.343 0.51,-0.488 0.246,-0.144 0.583,-0.281 1.01,-0.411 C -0.468,9.613 0.071,9.461 0.723,9.288 1.49,9.086 2.174,8.858 2.774,8.606 3.375,8.354 3.881,8.051 4.294,7.697 4.707,7.343 5.018,6.928 5.228,6.452 5.437,5.976 5.543,5.405 5.543,4.741 V 4.698 C 5.543,3.947 5.406,3.279 5.134,2.695 4.861,2.11 4.481,1.62 3.994,1.223 3.506,0.826 2.924,0.522 2.248,0.313 1.572,0.104 0.823,0 0,0"
             style="fill:#000000;fill-opacity:1;fill-rule:nonzero;stroke:none"
             id="path15255" /></g><g
           id="g15257"
           transform="translate(301.3115,125.5186)"><path
             d="m 0,0 c -1.256,0 -2.227,0.382 -2.912,1.147 -0.686,0.765 -1.029,1.819 -1.029,3.162 v 7.512 h 3.292 V 5.363 c 0,-0.777 0.172,-1.364 0.519,-1.76 C 0.216,3.207 0.707,3.01 1.342,3.01 c 0.636,0 1.137,0.197 1.505,0.593 0.368,0.396 0.552,0.983 0.552,1.76 v 6.458 H 6.69 V 0.216 H 3.399 V 1.875 C 3.211,1.628 3.006,1.392 2.782,1.166 2.558,0.941 2.309,0.741 2.036,0.566 1.761,0.393 1.458,0.254 1.126,0.152 0.793,0.051 0.418,0 0,0"
             style="fill:#000000;fill-opacity:1;fill-rule:nonzero;stroke:none"
             id="path15259" /></g><g
           id="g15261"
           transform="translate(316.7271,128.3115)"><path
             d="m 0,0 c 0.39,0 0.754,0.075 1.093,0.227 0.34,0.151 0.639,0.369 0.899,0.65 0.259,0.281 0.466,0.617 0.617,1.006 0.152,0.39 0.227,0.829 0.227,1.321 V 3.247 C 2.836,3.724 2.761,4.16 2.609,4.558 2.458,4.954 2.251,5.293 1.992,5.575 1.732,5.856 1.433,6.073 1.093,6.225 0.754,6.376 0.39,6.452 0,6.452 -0.39,6.452 -0.754,6.376 -1.093,6.225 -1.433,6.073 -1.729,5.856 -1.981,5.575 -2.233,5.293 -2.436,4.954 -2.587,4.558 -2.739,4.16 -2.815,3.724 -2.815,3.247 V 3.204 c 0,-0.476 0.076,-0.913 0.228,-1.309 0.151,-0.398 0.354,-0.737 0.606,-1.018 0.252,-0.281 0.548,-0.499 0.888,-0.65 C -0.754,0.075 -0.39,0 0,0 m -6.062,9.028 h 3.291 V 7.361 c 0.404,0.549 0.891,0.999 1.461,1.354 0.57,0.353 1.289,0.53 2.155,0.53 0.678,0 1.335,-0.13 1.97,-0.39 C 3.45,8.596 4.013,8.209 4.504,7.697 4.994,7.185 5.388,6.557 5.684,5.813 5.979,5.069 6.127,4.215 6.127,3.247 V 3.204 C 6.127,2.237 5.979,1.382 5.684,0.639 5.388,-0.105 4.998,-0.733 4.515,-1.245 4.031,-1.758 3.472,-2.145 2.836,-2.404 2.201,-2.664 1.538,-2.793 0.845,-2.793 c -0.881,0 -1.606,0.173 -2.176,0.52 -0.571,0.345 -1.051,0.75 -1.44,1.211 v -4.979 h -3.291 z"
             style="fill:#000000;fill-opacity:1;fill-rule:nonzero;stroke:none"
             id="path15263" /></g><g
           id="g15265"
           transform="translate(332.541,132.4463)"><path
             d="M 0,0 C -0.101,0.736 -0.361,1.332 -0.779,1.787 -1.198,2.241 -1.753,2.469 -2.447,2.469 -3.14,2.469 -3.699,2.243 -4.125,1.797 -4.55,1.35 -4.829,0.751 -4.958,0 Z m -2.122,-6.972 c -0.866,0 -1.67,0.145 -2.414,0.433 -0.744,0.289 -1.385,0.701 -1.927,1.234 -0.541,0.534 -0.963,1.166 -1.266,1.895 -0.304,0.729 -0.455,1.541 -0.455,2.436 v 0.043 c 0,0.824 0.141,1.603 0.422,2.339 0.281,0.736 0.675,1.378 1.18,1.927 0.505,0.548 1.108,0.981 1.808,1.299 0.7,0.317 1.476,0.476 2.327,0.476 0.967,0 1.805,-0.173 2.512,-0.519 C 0.772,4.243 1.36,3.778 1.83,3.194 2.298,2.609 2.645,1.938 2.869,1.181 3.092,0.423 3.205,-0.367 3.205,-1.19 3.205,-1.32 3.201,-1.458 3.194,-1.602 3.186,-1.746 3.175,-1.897 3.162,-2.057 h -8.077 c 0.159,-0.75 0.487,-1.317 0.985,-1.7 0.498,-0.382 1.115,-0.573 1.851,-0.573 0.549,0 1.04,0.094 1.473,0.281 0.433,0.188 0.88,0.491 1.342,0.91 L 2.62,-4.807 C 2.071,-5.484 1.407,-6.016 0.628,-6.398 -0.152,-6.78 -1.068,-6.972 -2.122,-6.972"
             style="fill:#000000;fill-opacity:1;fill-rule:nonzero;stroke:none"
             id="path15267" /></g><g
           id="g15269"
           transform="translate(337.8413,137.3399)"><path
             d="m 0,0 h 3.291 v -2.339 c 0.332,0.794 0.786,1.43 1.364,1.906 0.577,0.477 1.357,0.693 2.338,0.65 V -3.226 H 6.82 C 5.723,-3.226 4.86,-3.559 4.233,-4.222 3.604,-4.886 3.291,-5.918 3.291,-7.318 v -4.287 H 0 Z"
             style="fill:#000000;fill-opacity:1;fill-rule:nonzero;stroke:none"
             id="path15271" /></g><path
           d="m 346.435,137.34 h 3.291 v -11.605 h -3.291 z"
           style="fill:#000000;fill-opacity:1;fill-rule:nonzero;stroke:none"
           id="path15273" /><g
           id="g15275"
           transform="translate(358.1221,128.3115)"><path
             d="M 0,0 C 0.476,0 0.898,0.082 1.266,0.249 1.634,0.414 1.949,0.642 2.208,0.931 2.468,1.219 2.667,1.555 2.803,1.937 2.941,2.32 3.009,2.728 3.009,3.161 V 3.204 C 3.009,3.637 2.937,4.045 2.792,4.428 2.648,4.81 2.439,5.149 2.165,5.445 1.891,5.74 1.566,5.976 1.191,6.148 0.815,6.322 0.404,6.408 -0.043,6.408 -0.52,6.408 -0.942,6.325 -1.31,6.159 -1.678,5.993 -1.992,5.766 -2.252,5.478 -2.512,5.188 -2.71,4.854 -2.847,4.471 -2.985,4.087 -3.053,3.681 -3.053,3.247 V 3.204 c 0,-0.433 0.072,-0.841 0.217,-1.224 C -2.692,1.598 -2.483,1.259 -2.208,0.962 -1.935,0.667 -1.613,0.433 -1.245,0.26 -0.877,0.086 -0.462,0 0,0 m -0.043,-2.837 c -0.896,0 -1.725,0.155 -2.49,0.465 -0.765,0.311 -1.426,0.737 -1.981,1.278 -0.556,0.541 -0.993,1.176 -1.31,1.906 -0.318,0.728 -0.477,1.511 -0.477,2.349 v 0.043 c 0,0.837 0.159,1.62 0.477,2.35 0.317,0.728 0.758,1.367 1.321,1.916 0.562,0.548 1.226,0.981 1.991,1.299 C -1.747,9.086 -0.91,9.245 0,9.245 0.895,9.245 1.725,9.09 2.49,8.779 3.254,8.469 3.915,8.043 4.471,7.502 5.026,6.961 5.463,6.325 5.781,5.597 6.098,4.867 6.257,4.084 6.257,3.247 V 3.204 C 6.257,2.367 6.098,1.584 5.781,0.855 5.463,0.126 5.023,-0.513 4.46,-1.062 3.896,-1.609 3.233,-2.043 2.468,-2.36 1.703,-2.678 0.866,-2.837 -0.043,-2.837"
             style="fill:#000000;fill-opacity:1;fill-rule:nonzero;stroke:none"
             id="path15277" /></g><g
           id="g15279"
           transform="translate(366.4165,137.3399)"><path
             d="m 0,0 h 3.291 v -2.339 c 0.332,0.794 0.786,1.43 1.364,1.906 0.577,0.477 1.357,0.693 2.338,0.65 V -3.226 H 6.82 C 5.723,-3.226 4.86,-3.559 4.232,-4.222 3.605,-4.886 3.291,-5.918 3.291,-7.318 v -4.287 H 0 Z"
             style="fill:#000000;fill-opacity:1;fill-rule:nonzero;stroke:none"
             id="path15281" /></g><g
           id="g15283"
           transform="translate(215.0747,105.793)"><path
             d="m 0,0 c 0.39,0 0.754,0.076 1.093,0.228 0.34,0.151 0.636,0.368 0.888,0.65 0.252,0.281 0.455,0.62 0.606,1.018 0.152,0.396 0.227,0.833 0.227,1.309 v 0.043 c 0,0.477 -0.075,0.913 -0.227,1.31 C 2.436,4.955 2.233,5.294 1.981,5.575 1.729,5.857 1.433,6.073 1.093,6.226 0.754,6.377 0.39,6.452 0,6.452 -0.39,6.452 -0.754,6.377 -1.094,6.226 -1.433,6.073 -1.732,5.857 -1.992,5.575 -2.252,5.294 -2.458,4.959 -2.609,4.569 -2.761,4.179 -2.836,3.739 -2.836,3.248 V 3.205 c 0,-0.476 0.075,-0.913 0.227,-1.309 0.151,-0.398 0.357,-0.737 0.617,-1.018 0.26,-0.282 0.559,-0.499 0.898,-0.65 C -0.754,0.076 -0.39,0 0,0 m -0.845,-2.793 c -0.678,0 -1.335,0.13 -1.97,0.39 -0.635,0.258 -1.198,0.646 -1.689,1.158 -0.491,0.513 -0.884,1.141 -1.18,1.885 -0.295,0.742 -0.443,1.597 -0.443,2.565 v 0.043 c 0,0.967 0.148,1.822 0.443,2.565 0.296,0.745 0.686,1.372 1.169,1.884 0.484,0.513 1.043,0.9 1.679,1.158 0.635,0.261 1.299,0.39 1.991,0.39 0.881,0 1.606,-0.173 2.177,-0.519 0.569,-0.346 1.05,-0.75 1.439,-1.212 v 5.715 H 6.062 V -2.576 H 2.771 v 1.667 C 2.367,-1.458 1.88,-1.909 1.31,-2.263 0.739,-2.616 0.021,-2.793 -0.845,-2.793"
             style="fill:#000000;fill-opacity:1;fill-rule:nonzero;stroke:none"
             id="path15285" /></g><g
           id="g15287"
           transform="translate(231.3994,109.9287)"><path
             d="M 0,0 C -0.101,0.736 -0.361,1.332 -0.779,1.786 -1.198,2.241 -1.753,2.469 -2.447,2.469 -3.139,2.469 -3.699,2.244 -4.125,1.797 -4.55,1.35 -4.828,0.75 -4.958,0 Z m -2.122,-6.972 c -0.866,0 -1.67,0.145 -2.414,0.433 -0.743,0.289 -1.385,0.7 -1.926,1.234 -0.542,0.534 -0.964,1.166 -1.267,1.895 -0.304,0.728 -0.455,1.541 -0.455,2.435 v 0.044 c 0,0.823 0.141,1.603 0.422,2.338 0.282,0.737 0.675,1.379 1.18,1.927 0.505,0.549 1.108,0.982 1.808,1.3 0.7,0.317 1.476,0.475 2.327,0.475 0.967,0 1.805,-0.172 2.512,-0.519 C 0.772,4.244 1.361,3.778 1.83,3.193 2.298,2.609 2.645,1.937 2.869,1.18 3.092,0.422 3.205,-0.368 3.205,-1.19 3.205,-1.32 3.201,-1.458 3.194,-1.602 3.186,-1.746 3.175,-1.898 3.161,-2.057 h -8.076 c 0.159,-0.751 0.488,-1.317 0.986,-1.7 0.497,-0.382 1.115,-0.573 1.851,-0.573 0.548,0 1.039,0.094 1.472,0.281 0.433,0.188 0.88,0.49 1.342,0.909 L 2.619,-4.807 C 2.071,-5.485 1.408,-6.016 0.628,-6.398 -0.152,-6.78 -1.068,-6.972 -2.122,-6.972"
             style="fill:#000000;fill-opacity:1;fill-rule:nonzero;stroke:none"
             id="path15289" /></g><g
           id="g15291"
           transform="translate(243.459,118.3731)"><path
             d="M 0,0 H 11.41 V -2.966 H 3.291 v -3.075 h 7.145 V -9.007 H 3.291 v -3.183 h 8.228 v -2.966 H 0 Z"
             style="fill:#000000;fill-opacity:1;fill-rule:nonzero;stroke:none"
             id="path15293" /></g><g
           id="g15295"
           transform="translate(262.7764,105.793)"><path
             d="m 0,0 c 0.39,0 0.754,0.076 1.093,0.228 0.339,0.151 0.636,0.368 0.888,0.65 0.253,0.281 0.455,0.62 0.606,1.018 0.152,0.396 0.228,0.833 0.228,1.309 v 0.043 c 0,0.477 -0.076,0.913 -0.228,1.31 C 2.436,4.955 2.234,5.294 1.981,5.575 1.729,5.857 1.432,6.073 1.093,6.226 0.754,6.377 0.39,6.452 0,6.452 -0.389,6.452 -0.754,6.377 -1.093,6.226 -1.432,6.073 -1.732,5.857 -1.992,5.575 -2.251,5.294 -2.458,4.959 -2.609,4.569 -2.76,4.179 -2.836,3.739 -2.836,3.248 V 3.205 c 0,-0.476 0.076,-0.913 0.227,-1.309 0.151,-0.398 0.358,-0.737 0.617,-1.018 0.26,-0.282 0.56,-0.499 0.899,-0.65 C -0.754,0.076 -0.389,0 0,0 m -0.844,-2.793 c -0.679,0 -1.336,0.13 -1.97,0.39 -0.636,0.258 -1.198,0.646 -1.689,1.158 -0.491,0.513 -0.885,1.141 -1.18,1.885 -0.296,0.742 -0.444,1.597 -0.444,2.565 v 0.043 c 0,0.967 0.148,1.822 0.444,2.565 0.295,0.745 0.685,1.372 1.169,1.884 0.483,0.513 1.043,0.9 1.678,1.158 0.635,0.261 1.299,0.39 1.992,0.39 0.88,0 1.605,-0.173 2.176,-0.519 0.57,-0.346 1.049,-0.75 1.439,-1.212 v 5.715 H 6.062 V -2.576 H 2.771 v 1.667 C 2.367,-1.458 1.88,-1.909 1.31,-2.263 0.74,-2.616 0.022,-2.793 -0.844,-2.793"
             style="fill:#000000;fill-opacity:1;fill-rule:nonzero;stroke:none"
             id="path15297" /></g><g
           id="g15299"
           transform="translate(275.397,103)"><path
             d="M 0,0 C -1.256,0 -2.227,0.383 -2.912,1.147 -3.598,1.913 -3.94,2.967 -3.94,4.31 v 7.512 h 3.291 V 5.364 c 0,-0.777 0.172,-1.365 0.519,-1.76 C 0.216,3.208 0.707,3.01 1.343,3.01 c 0.635,0 1.136,0.198 1.504,0.594 0.368,0.395 0.552,0.983 0.552,1.76 v 6.458 H 6.69 V 0.217 H 3.399 V 1.876 C 3.212,1.629 3.006,1.393 2.782,1.167 2.558,0.941 2.31,0.742 2.035,0.567 1.761,0.393 1.458,0.255 1.126,0.153 0.794,0.052 0.418,0 0,0"
             style="fill:#000000;fill-opacity:1;fill-rule:nonzero;stroke:none"
             id="path15301" /></g><g
           id="g15303"
           transform="translate(290.1929,102.957)"><path
             d="M 0,0 C -0.866,0 -1.67,0.159 -2.414,0.477 -3.158,0.794 -3.796,1.224 -4.33,1.765 -4.864,2.306 -5.283,2.94 -5.586,3.67 -5.889,4.398 -6.041,5.175 -6.041,5.997 v 0.044 c 0,0.822 0.152,1.603 0.455,2.338 0.303,0.736 0.722,1.379 1.256,1.927 0.534,0.548 1.172,0.982 1.916,1.299 0.744,0.318 1.562,0.476 2.458,0.476 1.097,0 2.006,-0.173 2.727,-0.519 0.722,-0.346 1.357,-0.823 1.906,-1.429 L 2.664,7.968 C 2.288,8.357 1.902,8.668 1.505,8.899 1.108,9.13 0.613,9.245 0.022,9.245 -0.397,9.245 -0.776,9.162 -1.114,8.996 -1.454,8.83 -1.75,8.603 -2.002,8.314 -2.255,8.025 -2.45,7.689 -2.587,7.308 -2.725,6.925 -2.793,6.517 -2.793,6.084 V 6.041 c 0,-0.448 0.068,-0.866 0.206,-1.256 0.137,-0.389 0.336,-0.729 0.596,-1.017 0.26,-0.289 0.569,-0.517 0.93,-0.683 0.361,-0.166 0.765,-0.249 1.213,-0.249 0.548,0 1.029,0.112 1.44,0.336 0.411,0.224 0.819,0.522 1.223,0.898 L 4.742,2.122 C 4.179,1.501 3.537,0.992 2.815,0.596 2.093,0.198 1.155,0 0,0"
             style="fill:#000000;fill-opacity:1;fill-rule:nonzero;stroke:none"
             id="path15305" /></g><g
           id="g15307"
           transform="translate(301.0796,105.2735)"><path
             d="M 0,0 C 0.779,0 1.403,0.187 1.873,0.563 2.342,0.938 2.577,1.429 2.577,2.036 V 2.62 C 2.288,2.75 1.966,2.854 1.613,2.935 1.259,3.013 0.88,3.054 0.476,3.054 -0.231,3.054 -0.787,2.916 -1.191,2.642 -1.595,2.367 -1.797,1.971 -1.797,1.451 V 1.407 c 0,-0.447 0.166,-0.794 0.498,-1.039 C -0.967,0.123 -0.534,0 0,0 m -0.996,-2.273 c -0.548,0 -1.065,0.076 -1.548,0.227 -0.484,0.151 -0.906,0.379 -1.267,0.682 -0.361,0.303 -0.646,0.675 -0.855,1.114 -0.209,0.441 -0.313,0.95 -0.313,1.528 v 0.043 c 0,0.635 0.115,1.184 0.345,1.646 0.231,0.462 0.553,0.845 0.964,1.147 0.411,0.302 0.902,0.531 1.472,0.682 0.57,0.152 1.202,0.227 1.895,0.227 0.592,0 1.107,-0.043 1.548,-0.129 0.44,-0.087 0.869,-0.203 1.288,-0.347 v 0.195 c 0,0.693 -0.209,1.22 -0.628,1.58 C 1.486,6.684 0.866,6.864 0.043,6.864 -0.592,6.864 -1.151,6.81 -1.635,6.701 -2.118,6.593 -2.627,6.438 -3.161,6.236 l -0.823,2.511 c 0.635,0.274 1.299,0.498 1.992,0.672 0.693,0.173 1.53,0.26 2.512,0.26 0.909,0 1.685,-0.113 2.328,-0.336 C 3.489,9.119 4.02,8.798 4.438,8.38 4.872,7.946 5.189,7.416 5.392,6.788 5.594,6.16 5.694,5.456 5.694,4.677 V -2.057 H 2.512 v 1.256 C 2.107,-1.248 1.624,-1.605 1.061,-1.872 0.498,-2.14 -0.188,-2.273 -0.996,-2.273"
             style="fill:#000000;fill-opacity:1;fill-rule:nonzero;stroke:none"
             id="path15309" /></g><g
           id="g15311"
           transform="translate(311.1411,100.6182)"><path
             d="M 0,0 1.775,2.599 C 1.14,2.786 0.566,3.064 0.054,3.432 -0.458,3.801 -0.898,4.233 -1.267,4.731 -1.635,5.229 -1.92,5.785 -2.123,6.398 -2.324,7.012 -2.425,7.658 -2.425,8.336 V 8.38 c 0,0.822 0.152,1.602 0.454,2.338 0.304,0.736 0.722,1.379 1.256,1.927 0.534,0.548 1.173,0.982 1.916,1.299 0.744,0.318 1.563,0.476 2.458,0.476 1.097,0 2.006,-0.173 2.728,-0.52 0.721,-0.345 1.357,-0.822 1.905,-1.428 L 6.279,10.307 c -0.376,0.389 -0.762,0.7 -1.159,0.931 -0.396,0.231 -0.891,0.346 -1.483,0.346 -0.419,0 -0.798,-0.083 -1.136,-0.249 C 2.161,11.169 1.865,10.941 1.613,10.653 1.36,10.364 1.165,10.028 1.028,9.646 0.891,9.264 0.822,8.855 0.822,8.423 V 8.38 C 0.822,7.932 0.891,7.514 1.028,7.124 1.165,6.734 1.364,6.395 1.624,6.106 1.884,5.817 2.193,5.59 2.555,5.424 2.915,5.258 3.319,5.175 3.767,5.175 c 0.548,0 1.029,0.112 1.44,0.336 0.411,0.223 0.819,0.522 1.224,0.898 L 8.357,4.461 C 7.837,3.897 7.257,3.425 6.614,3.043 5.972,2.66 5.153,2.433 4.157,2.36 L 2.75,-1.147 Z"
             style="fill:#000000;fill-opacity:1;fill-rule:nonzero;stroke:none"
             id="path15313" /></g><g
           id="g15315"
           transform="translate(325.6431,105.2735)"><path
             d="M 0,0 C 0.779,0 1.403,0.187 1.873,0.563 2.342,0.938 2.577,1.429 2.577,2.036 V 2.62 C 2.288,2.75 1.967,2.854 1.613,2.935 1.259,3.013 0.88,3.054 0.477,3.054 -0.231,3.054 -0.787,2.916 -1.191,2.642 -1.595,2.367 -1.797,1.971 -1.797,1.451 V 1.407 c 0,-0.447 0.166,-0.794 0.498,-1.039 C -0.967,0.123 -0.534,0 0,0 m -3.811,11.151 c 0.13,0.448 0.271,0.855 0.422,1.223 0.152,0.368 0.332,0.682 0.542,0.942 0.209,0.26 0.454,0.462 0.736,0.607 0.281,0.143 0.61,0.216 0.985,0.216 0.332,0 0.653,-0.043 0.964,-0.13 0.309,-0.086 0.602,-0.184 0.877,-0.292 0.274,-0.109 0.526,-0.206 0.758,-0.292 0.23,-0.087 0.447,-0.131 0.649,-0.131 0.332,0 0.58,0.091 0.747,0.271 0.165,0.18 0.328,0.444 0.487,0.79 L 5.11,13.813 C 4.864,12.904 4.542,12.18 4.146,11.638 3.749,11.097 3.176,10.826 2.425,10.826 c -0.332,0 -0.654,0.043 -0.964,0.13 -0.31,0.087 -0.603,0.184 -0.877,0.292 -0.273,0.108 -0.529,0.206 -0.768,0.293 -0.238,0.086 -0.452,0.13 -0.638,0.13 -0.333,0 -0.582,-0.091 -0.748,-0.272 -0.166,-0.179 -0.328,-0.443 -0.487,-0.79 z m 2.815,-13.424 c -0.548,0 -1.065,0.076 -1.548,0.227 -0.483,0.151 -0.906,0.379 -1.267,0.682 -0.36,0.303 -0.647,0.675 -0.855,1.114 -0.209,0.441 -0.313,0.95 -0.313,1.528 v 0.043 c 0,0.635 0.115,1.184 0.345,1.646 0.232,0.462 0.553,0.845 0.964,1.147 0.411,0.302 0.902,0.531 1.473,0.682 0.569,0.152 1.201,0.227 1.894,0.227 0.592,0 1.108,-0.043 1.548,-0.129 0.44,-0.087 0.869,-0.203 1.288,-0.347 v 0.195 c 0,0.693 -0.209,1.22 -0.628,1.58 C 1.486,6.684 0.866,6.864 0.043,6.864 -0.592,6.864 -1.151,6.81 -1.635,6.701 -2.118,6.593 -2.627,6.438 -3.161,6.236 l -0.823,2.511 c 0.635,0.274 1.299,0.498 1.992,0.672 0.693,0.173 1.53,0.26 2.512,0.26 0.909,0 1.685,-0.113 2.328,-0.336 C 3.489,9.119 4.02,8.798 4.438,8.38 4.872,7.946 5.189,7.416 5.391,6.788 5.593,6.16 5.694,5.456 5.694,4.677 V -2.057 H 2.512 v 1.256 C 2.107,-1.248 1.624,-1.605 1.061,-1.872 0.498,-2.14 -0.187,-2.273 -0.996,-2.273"
             style="fill:#000000;fill-opacity:1;fill-rule:nonzero;stroke:none"
             id="path15317" /></g><g
           id="g15319"
           transform="translate(339.5801,105.793)"><path
             d="M 0,0 C 0.477,0 0.898,0.083 1.267,0.249 1.635,0.415 1.949,0.643 2.208,0.932 2.468,1.22 2.667,1.556 2.804,1.938 2.941,2.32 3.01,2.729 3.01,3.161 V 3.205 C 3.01,3.638 2.937,4.046 2.792,4.429 2.648,4.811 2.438,5.149 2.166,5.446 1.891,5.741 1.566,5.977 1.191,6.149 0.815,6.323 0.404,6.409 -0.043,6.409 -0.52,6.409 -0.942,6.326 -1.31,6.16 -1.678,5.994 -1.992,5.767 -2.251,5.479 -2.512,5.189 -2.71,4.854 -2.847,4.472 -2.984,4.089 -3.053,3.681 -3.053,3.248 V 3.205 c 0,-0.433 0.073,-0.841 0.217,-1.225 0.144,-0.381 0.353,-0.72 0.628,-1.016 0.274,-0.296 0.595,-0.53 0.963,-0.703 C -0.877,0.087 -0.462,0 0,0 m -0.043,-2.836 c -0.895,0 -1.725,0.155 -2.49,0.466 -0.765,0.309 -1.425,0.736 -1.981,1.277 -0.556,0.541 -0.993,1.176 -1.31,1.905 C -6.142,1.541 -6.3,2.324 -6.3,3.161 v 0.044 c 0,0.837 0.158,1.62 0.476,2.349 0.317,0.728 0.758,1.368 1.321,1.916 0.562,0.549 1.226,0.982 1.991,1.3 C -1.747,9.087 -0.91,9.245 0,9.245 0.895,9.245 1.725,9.091 2.49,8.78 3.254,8.47 3.916,8.044 4.471,7.503 5.027,6.962 5.463,6.326 5.781,5.598 6.098,4.868 6.257,4.085 6.257,3.248 V 3.205 C 6.257,2.368 6.098,1.585 5.781,0.855 5.463,0.126 5.023,-0.513 4.46,-1.061 3.897,-1.609 3.233,-2.042 2.468,-2.359 1.703,-2.677 0.866,-2.836 -0.043,-2.836"
             style="fill:#000000;fill-opacity:1;fill-rule:nonzero;stroke:none"
             id="path15321" /></g><g
           id="g15323"
           transform="translate(348.0801,138.4981)"><path
             d="m 0,0 c -1.027,0 -1.886,0.86 -1.886,1.89 0,1.028 0.859,1.888 1.886,1.888 1.027,0 1.886,-0.86 1.886,-1.888 C 1.886,0.86 1.027,0 0,0"
             style="fill:#000000;fill-opacity:1;fill-rule:nonzero;stroke:none"
             id="path15325" /></g><g
           id="g15327"
           transform="translate(85.0391,524.6689)"><path
             d="M 0,0 H 671.811"
             style="fill:#ffffff;fill-opacity:1;fill-rule:nonzero;stroke:#000000;stroke-width:1;stroke-linecap:butt;stroke-linejoin:miter;stroke-miterlimit:10;stroke-dasharray:none;stroke-opacity:1"
             id="path15329" /></g><g
           id="g15331"
           transform="translate(85.0391,280.6484)"><path
             d="M 0,0 H 671.811"
             style="fill:#ffffff;fill-opacity:1;fill-rule:nonzero;stroke:#000000;stroke-width:1;stroke-linecap:butt;stroke-linejoin:miter;stroke-miterlimit:10;stroke-dasharray:none;stroke-opacity:1"
             id="path15333" /></g><g
           id="g15335"
           transform="translate(85.4297,519.998)"><path
             d="M 0,0 H 0.88 L 3.37,-6.03 5.87,0 H 6.72 L 3.71,-7.05 h -0.7 z"
             style="fill:#231f20;fill-opacity:1;fill-rule:nonzero;stroke:none"
             id="path15337" /></g><g
           id="g15339"
           transform="translate(97.1895,515.8984)"><path
             d="m 0,0 c -0.02,0.231 -0.07,0.452 -0.15,0.661 -0.08,0.208 -0.188,0.393 -0.325,0.552 -0.137,0.159 -0.303,0.285 -0.5,0.378 -0.197,0.093 -0.421,0.138 -0.675,0.138 -0.22,0 -0.427,-0.042 -0.62,-0.128 C -2.463,1.514 -2.633,1.394 -2.78,1.237 -2.927,1.082 -3.048,0.897 -3.145,0.686 -3.242,0.474 -3.303,0.245 -3.33,0 Z m -3.33,-0.631 c 0.027,-0.273 0.093,-0.516 0.2,-0.729 0.107,-0.214 0.243,-0.394 0.41,-0.54 0.167,-0.147 0.353,-0.259 0.56,-0.335 0.207,-0.078 0.423,-0.116 0.65,-0.116 0.36,0 0.668,0.067 0.925,0.201 0.257,0.132 0.492,0.309 0.705,0.53 L 0.6,-2.051 c -0.26,-0.293 -0.557,-0.528 -0.89,-0.705 -0.333,-0.176 -0.747,-0.265 -1.24,-0.265 -0.353,0 -0.687,0.066 -1,0.196 -0.313,0.13 -0.587,0.313 -0.82,0.55 -0.233,0.236 -0.418,0.521 -0.555,0.855 -0.137,0.333 -0.205,0.699 -0.205,1.1 0,0.373 0.062,0.724 0.185,1.054 0.123,0.33 0.295,0.618 0.515,0.861 0.22,0.243 0.482,0.434 0.785,0.575 0.303,0.14 0.635,0.21 0.995,0.21 0.38,0 0.72,-0.072 1.02,-0.215 C -0.31,2.021 -0.057,1.826 0.15,1.58 0.357,1.333 0.513,1.043 0.62,0.71 0.727,0.376 0.78,0.02 0.78,-0.36 v -0.116 c 0,-0.043 -0.003,-0.094 -0.01,-0.155 z"
             style="fill:#231f20;fill-opacity:1;fill-rule:nonzero;stroke:none"
             id="path15341" /></g><g
           id="g15343"
           transform="translate(99.3193,518.168)"><path
             d="m 0,0 h 0.77 v -1.35 c 0.093,0.213 0.21,0.411 0.35,0.59 0.14,0.18 0.3,0.335 0.48,0.465 0.18,0.13 0.377,0.229 0.59,0.295 0.213,0.066 0.443,0.097 0.69,0.09 V -0.74 H 2.82 C 2.54,-0.74 2.275,-0.79 2.025,-0.89 1.775,-0.99 1.557,-1.14 1.37,-1.34 1.184,-1.54 1.037,-1.788 0.93,-2.085 0.823,-2.382 0.77,-2.724 0.77,-3.11 V -5.17 H 0 Z"
             style="fill:#231f20;fill-opacity:1;fill-rule:nonzero;stroke:none"
             id="path15345" /></g><g
           id="g15347"
           transform="translate(105.0796,512.8984)"><path
             d="M 0,0 C -0.374,0 -0.75,0.068 -1.13,0.205 -1.51,0.341 -1.847,0.526 -2.14,0.76 l 0.39,0.55 c 0.28,-0.214 0.572,-0.377 0.875,-0.491 0.303,-0.113 0.608,-0.17 0.915,-0.17 0.313,0 0.57,0.074 0.77,0.22 0.2,0.148 0.3,0.347 0.3,0.601 V 1.489 C 1.11,1.616 1.075,1.727 1.005,1.819 0.935,1.913 0.84,1.994 0.72,2.064 0.6,2.135 0.461,2.196 0.305,2.25 0.148,2.303 -0.014,2.353 -0.18,2.399 -0.38,2.46 -0.582,2.524 -0.785,2.595 -0.989,2.665 -1.172,2.753 -1.335,2.859 -1.499,2.966 -1.632,3.1 -1.735,3.26 -1.838,3.42 -1.89,3.619 -1.89,3.859 V 3.88 c 0,0.22 0.043,0.421 0.13,0.604 0.087,0.184 0.208,0.34 0.365,0.471 0.156,0.13 0.343,0.23 0.56,0.3 0.216,0.069 0.451,0.104 0.705,0.104 0.32,0 0.643,-0.051 0.97,-0.154 C 1.167,5.102 1.463,4.963 1.73,4.79 L 1.38,4.21 C 1.14,4.363 0.888,4.484 0.625,4.574 0.361,4.665 0.103,4.71 -0.15,4.71 -0.457,4.71 -0.7,4.638 -0.88,4.494 -1.06,4.352 -1.15,4.173 -1.15,3.96 V 3.939 c 0,-0.12 0.036,-0.224 0.11,-0.314 C -0.967,3.534 -0.869,3.456 -0.745,3.39 -0.622,3.323 -0.48,3.263 -0.32,3.21 -0.16,3.156 0.006,3.103 0.18,3.05 0.38,2.989 0.578,2.923 0.775,2.85 0.971,2.776 1.15,2.683 1.31,2.569 1.47,2.456 1.598,2.319 1.695,2.159 1.792,2 1.84,1.803 1.84,1.569 V 1.55 C 1.84,1.303 1.792,1.085 1.695,0.895 1.598,0.705 1.468,0.543 1.305,0.409 1.142,0.276 0.948,0.175 0.725,0.104 0.501,0.034 0.26,0 0,0"
             style="fill:#231f20;fill-opacity:1;fill-rule:nonzero;stroke:none"
             id="path15349" /></g><g
           id="g15351"
           transform="translate(108.7793,518.9883)"><path
             d="M 0,0 C 0.1,0.38 0.223,0.649 0.37,0.81 0.517,0.97 0.71,1.05 0.95,1.05 1.063,1.05 1.18,1.028 1.3,0.984 1.42,0.941 1.54,0.895 1.66,0.845 1.78,0.795 1.893,0.75 2,0.71 2.107,0.67 2.203,0.649 2.29,0.649 c 0.133,0 0.235,0.038 0.305,0.111 0.07,0.073 0.142,0.2 0.215,0.38 L 3.28,1.01 C 3.18,0.63 3.057,0.359 2.91,0.2 2.763,0.04 2.57,-0.04 2.33,-0.04 2.217,-0.04 2.1,-0.021 1.98,0.02 1.86,0.06 1.74,0.104 1.62,0.154 1.5,0.205 1.387,0.251 1.28,0.295 1.173,0.338 1.077,0.359 0.99,0.359 0.857,0.359 0.755,0.323 0.685,0.25 0.615,0.177 0.543,0.05 0.47,-0.13 Z m 1.266,-5.471 c 0.239,0 0.462,0.034 0.668,0.1 0.205,0.066 0.387,0.161 0.543,0.284 0.156,0.123 0.279,0.269 0.369,0.438 0.089,0.169 0.134,0.356 0.134,0.562 v 0.478 C 2.787,-3.557 2.568,-3.507 2.322,-3.46 2.076,-3.413 1.794,-3.391 1.475,-3.391 0.997,-3.391 0.626,-3.485 0.364,-3.674 0.101,-3.863 -0.03,-4.113 -0.03,-4.425 v -0.02 c 0,-0.159 0.035,-0.304 0.105,-0.433 0.07,-0.13 0.164,-0.237 0.284,-0.323 0.12,-0.087 0.257,-0.153 0.413,-0.199 0.156,-0.047 0.321,-0.071 0.494,-0.071 M 1.11,-6.101 c -0.24,0 -0.477,0.035 -0.71,0.101 -0.233,0.066 -0.44,0.168 -0.62,0.305 -0.18,0.136 -0.325,0.304 -0.435,0.505 -0.11,0.2 -0.165,0.433 -0.165,0.7 v 0.019 c 0,0.281 0.053,0.526 0.16,0.736 0.107,0.21 0.258,0.384 0.455,0.525 0.197,0.14 0.43,0.246 0.7,0.319 0.27,0.074 0.568,0.111 0.895,0.111 0.333,0 0.622,-0.02 0.865,-0.06 C 2.499,-2.88 2.737,-2.934 2.97,-3 v 0.158 c 0,0.457 -0.133,0.804 -0.4,1.039 C 2.303,-1.568 1.927,-1.45 1.44,-1.45 1.133,-1.45 0.855,-1.483 0.605,-1.55 0.355,-1.617 0.11,-1.707 -0.13,-1.82 l -0.23,0.633 c 0.287,0.135 0.577,0.244 0.87,0.325 0.293,0.081 0.63,0.122 1.01,0.122 0.733,0 1.29,-0.191 1.67,-0.571 C 3.55,-1.67 3.73,-2.177 3.73,-2.83 V -5.99 H 2.97 v 0.769 C 2.79,-5.454 2.548,-5.658 2.245,-5.835 1.942,-6.012 1.563,-6.101 1.11,-6.101"
             style="fill:#231f20;fill-opacity:1;fill-rule:nonzero;stroke:none"
             id="path15353" /></g><g
           id="g15355"
           transform="translate(116.5193,513.5684)"><path
             d="M 0,0 C 0.28,0 0.537,0.053 0.77,0.16 1.003,0.267 1.203,0.41 1.37,0.59 1.537,0.77 1.667,0.979 1.76,1.22 1.853,1.46 1.9,1.716 1.9,1.989 V 2.01 C 1.9,2.29 1.852,2.551 1.755,2.795 1.658,3.038 1.523,3.251 1.35,3.435 1.177,3.618 0.973,3.763 0.74,3.87 0.507,3.977 0.253,4.029 -0.02,4.029 -0.3,4.029 -0.557,3.977 -0.79,3.87 -1.023,3.763 -1.222,3.62 -1.385,3.439 -1.549,3.26 -1.677,3.048 -1.77,2.805 -1.864,2.562 -1.91,2.303 -1.91,2.029 V 2.01 c 0,-0.281 0.048,-0.542 0.145,-0.785 0.097,-0.244 0.23,-0.455 0.4,-0.635 C -1.195,0.41 -0.993,0.267 -0.76,0.16 -0.527,0.053 -0.273,0 0,0 m -0.02,-0.69 c -0.387,0 -0.743,0.072 -1.07,0.214 -0.327,0.144 -0.61,0.337 -0.85,0.58 -0.24,0.244 -0.427,0.527 -0.56,0.851 -0.134,0.323 -0.2,0.668 -0.2,1.034 V 2.01 c 0,0.366 0.066,0.713 0.2,1.04 0.133,0.326 0.32,0.613 0.56,0.86 0.24,0.246 0.525,0.442 0.855,0.585 C -0.755,4.638 -0.393,4.71 0,4.71 0.386,4.71 0.745,4.638 1.075,4.495 1.405,4.352 1.69,4.158 1.93,3.915 2.17,3.671 2.357,3.388 2.49,3.064 2.623,2.741 2.69,2.396 2.69,2.029 V 2.01 C 2.69,1.643 2.622,1.296 2.485,0.97 2.348,0.643 2.16,0.356 1.92,0.109 1.68,-0.137 1.393,-0.332 1.06,-0.476 0.727,-0.618 0.366,-0.69 -0.02,-0.69"
             style="fill:#231f20;fill-opacity:1;fill-rule:nonzero;stroke:none"
             id="path15357" /></g><g
           id="g15359"
           transform="translate(123.5991,520.2979)"><path
             d="m 0,0 h 0.77 v -3.03 c 0.173,0.28 0.4,0.518 0.68,0.716 0.28,0.196 0.643,0.294 1.09,0.294 0.313,0 0.592,-0.049 0.835,-0.15 0.243,-0.1 0.45,-0.241 0.62,-0.425 0.17,-0.183 0.3,-0.401 0.39,-0.655 0.09,-0.253 0.135,-0.533 0.135,-0.84 V -7.3 H 3.75 v 3.014 c 0,0.478 -0.124,0.857 -0.37,1.138 -0.247,0.279 -0.6,0.419 -1.06,0.419 -0.22,0 -0.425,-0.04 -0.615,-0.116 C 1.515,-2.921 1.35,-3.031 1.21,-3.174 1.07,-3.317 0.961,-3.488 0.885,-3.688 0.808,-3.888 0.77,-4.106 0.77,-4.347 V -7.3 H 0 Z"
             style="fill:#231f20;fill-opacity:1;fill-rule:nonzero;stroke:none"
             id="path15361" /></g><g
           id="g15363"
           transform="translate(132.1392,513.5684)"><path
             d="M 0,0 C 0.28,0 0.537,0.053 0.77,0.16 1.003,0.267 1.203,0.41 1.37,0.59 1.537,0.77 1.667,0.979 1.76,1.22 1.853,1.46 1.9,1.716 1.9,1.989 V 2.01 C 1.9,2.29 1.852,2.551 1.755,2.795 1.658,3.038 1.523,3.251 1.35,3.435 1.177,3.618 0.973,3.763 0.74,3.87 0.507,3.977 0.253,4.029 -0.02,4.029 -0.3,4.029 -0.557,3.977 -0.79,3.87 -1.023,3.763 -1.222,3.62 -1.385,3.439 -1.548,3.26 -1.677,3.048 -1.77,2.805 -1.863,2.562 -1.91,2.303 -1.91,2.029 V 2.01 c 0,-0.281 0.048,-0.542 0.145,-0.785 0.097,-0.244 0.23,-0.455 0.4,-0.635 C -1.195,0.41 -0.993,0.267 -0.76,0.16 -0.527,0.053 -0.273,0 0,0 m -0.02,-0.69 c -0.387,0 -0.743,0.072 -1.07,0.214 -0.327,0.144 -0.61,0.337 -0.85,0.58 -0.24,0.244 -0.427,0.527 -0.56,0.851 -0.133,0.323 -0.2,0.668 -0.2,1.034 V 2.01 c 0,0.366 0.067,0.713 0.2,1.04 0.133,0.326 0.32,0.613 0.56,0.86 0.24,0.246 0.525,0.442 0.855,0.585 C -0.755,4.638 -0.394,4.71 0,4.71 0.387,4.71 0.745,4.638 1.075,4.495 1.405,4.352 1.69,4.158 1.93,3.915 2.17,3.671 2.356,3.388 2.49,3.064 2.623,2.741 2.69,2.396 2.69,2.029 V 2.01 C 2.69,1.643 2.622,1.296 2.485,0.97 2.348,0.643 2.16,0.356 1.92,0.109 1.68,-0.137 1.393,-0.332 1.06,-0.476 0.727,-0.618 0.367,-0.69 -0.02,-0.69"
             style="fill:#231f20;fill-opacity:1;fill-rule:nonzero;stroke:none"
             id="path15365" /></g><g
           id="g15367"
           transform="translate(136.2192,518.168)"><path
             d="m 0,0 h 0.77 v -1.35 c 0.093,0.213 0.21,0.411 0.35,0.59 0.14,0.18 0.3,0.335 0.48,0.465 0.18,0.13 0.377,0.229 0.59,0.295 0.213,0.066 0.443,0.097 0.69,0.09 V -0.74 H 2.82 C 2.54,-0.74 2.275,-0.79 2.025,-0.89 1.775,-0.99 1.556,-1.14 1.37,-1.34 1.183,-1.54 1.037,-1.788 0.93,-2.085 0.823,-2.382 0.77,-2.724 0.77,-3.11 V -5.17 H 0 Z"
             style="fill:#231f20;fill-opacity:1;fill-rule:nonzero;stroke:none"
             id="path15369" /></g><path
           d="m 140.339,518.168 h 0.77 v -5.17 h -0.77 z m -0.05,1.98 h 0.88 v -0.851 h -0.88 z"
           style="fill:#231f20;fill-opacity:1;fill-rule:nonzero;stroke:none"
           id="path15371" /><g
           id="g15373"
           transform="translate(142.5991,513.4883)"><path
             d="M 0,0 3.43,4.029 H 0.12 V 4.68 H 4.48 V 4.189 L 1.04,0.16 H 4.48 V -0.49 H 0 Z"
             style="fill:#231f20;fill-opacity:1;fill-rule:nonzero;stroke:none"
             id="path15375" /></g><g
           id="g15377"
           transform="translate(150.8391,513.5684)"><path
             d="M 0,0 C 0.28,0 0.537,0.053 0.77,0.16 1.003,0.267 1.203,0.41 1.37,0.59 1.537,0.77 1.667,0.979 1.76,1.22 1.853,1.46 1.9,1.716 1.9,1.989 V 2.01 C 1.9,2.29 1.852,2.551 1.755,2.795 1.658,3.038 1.523,3.251 1.35,3.435 1.177,3.618 0.973,3.763 0.74,3.87 0.507,3.977 0.253,4.029 -0.02,4.029 -0.3,4.029 -0.557,3.977 -0.79,3.87 -1.023,3.763 -1.222,3.62 -1.385,3.439 -1.549,3.26 -1.677,3.048 -1.77,2.805 -1.864,2.562 -1.91,2.303 -1.91,2.029 V 2.01 c 0,-0.281 0.048,-0.542 0.145,-0.785 0.097,-0.244 0.23,-0.455 0.4,-0.635 C -1.195,0.41 -0.993,0.267 -0.76,0.16 -0.527,0.053 -0.273,0 0,0 m -0.02,-0.69 c -0.387,0 -0.743,0.072 -1.07,0.214 -0.327,0.144 -0.61,0.337 -0.85,0.58 -0.24,0.244 -0.427,0.527 -0.56,0.851 -0.134,0.323 -0.2,0.668 -0.2,1.034 V 2.01 c 0,0.366 0.066,0.713 0.2,1.04 0.133,0.326 0.32,0.613 0.56,0.86 0.24,0.246 0.525,0.442 0.855,0.585 C -0.755,4.638 -0.393,4.71 0,4.71 0.386,4.71 0.745,4.638 1.075,4.495 1.405,4.352 1.69,4.158 1.93,3.915 2.17,3.671 2.357,3.388 2.49,3.064 2.623,2.741 2.69,2.396 2.69,2.029 V 2.01 C 2.69,1.643 2.622,1.296 2.485,0.97 2.348,0.643 2.16,0.356 1.92,0.109 1.68,-0.137 1.393,-0.332 1.06,-0.476 0.727,-0.618 0.366,-0.69 -0.02,-0.69"
             style="fill:#231f20;fill-opacity:1;fill-rule:nonzero;stroke:none"
             id="path15379" /></g><g
           id="g15381"
           transform="translate(154.9189,518.168)"><path
             d="m 0,0 h 0.77 v -0.9 c 0.173,0.28 0.4,0.518 0.68,0.715 0.28,0.197 0.643,0.295 1.09,0.295 0.314,0 0.592,-0.049 0.835,-0.15 0.243,-0.1 0.45,-0.241 0.62,-0.425 0.17,-0.183 0.3,-0.401 0.39,-0.655 0.09,-0.253 0.135,-0.533 0.135,-0.84 V -5.17 H 3.75 v 3.014 c 0,0.478 -0.123,0.857 -0.37,1.137 C 3.133,-0.739 2.78,-0.6 2.32,-0.6 2.1,-0.6 1.895,-0.639 1.705,-0.715 1.515,-0.791 1.35,-0.901 1.21,-1.044 1.07,-1.187 0.962,-1.358 0.885,-1.558 0.809,-1.758 0.77,-1.977 0.77,-2.217 V -5.17 H 0 Z"
             style="fill:#231f20;fill-opacity:1;fill-rule:nonzero;stroke:none"
             id="path15383" /></g><g
           id="g15385"
           transform="translate(162.8091,512.9082)"><path
             d="M 0,0 C -0.207,0 -0.4,0.026 -0.58,0.08 -0.76,0.133 -0.915,0.218 -1.045,0.335 -1.175,0.451 -1.277,0.604 -1.35,0.79 -1.424,0.977 -1.46,1.2 -1.46,1.46 v 3.12 h -0.72 v 0.68 h 0.72 v 1.56 h 0.77 V 5.26 H 0.95 V 4.58 H -0.69 V 1.567 c 0,-0.319 0.08,-0.542 0.24,-0.668 C -0.29,0.773 -0.08,0.71 0.18,0.71 0.313,0.71 0.438,0.723 0.555,0.748 0.671,0.772 0.796,0.816 0.93,0.88 V 0.22 C 0.796,0.146 0.655,0.092 0.505,0.055 0.355,0.019 0.187,0 0,0"
             style="fill:#231f20;fill-opacity:1;fill-rule:nonzero;stroke:none"
             id="path15387" /></g><g
           id="g15389"
           transform="translate(166.8145,513.5176)"><path
             d="M 0,0 C 0.239,0 0.462,0.033 0.668,0.1 0.874,0.166 1.055,0.261 1.211,0.384 1.367,0.507 1.49,0.652 1.58,0.821 1.669,0.99 1.714,1.178 1.714,1.384 V 1.861 C 1.521,1.914 1.302,1.964 1.057,2.011 0.811,2.058 0.528,2.08 0.209,2.08 -0.269,2.08 -0.639,1.985 -0.902,1.797 -1.165,1.607 -1.295,1.357 -1.295,1.046 V 1.025 c 0,-0.159 0.034,-0.303 0.104,-0.432 0.07,-0.13 0.165,-0.238 0.284,-0.323 0.12,-0.087 0.258,-0.154 0.414,-0.2 C -0.337,0.023 -0.173,0 0,0 m -0.156,-0.63 c -0.24,0 -0.476,0.034 -0.71,0.101 -0.233,0.066 -0.44,0.168 -0.62,0.304 -0.18,0.137 -0.325,0.305 -0.434,0.505 -0.111,0.2 -0.165,0.434 -0.165,0.7 V 1 c 0,0.28 0.053,0.525 0.159,0.735 0.107,0.21 0.259,0.385 0.455,0.526 0.197,0.139 0.43,0.246 0.7,0.319 0.271,0.073 0.569,0.11 0.896,0.11 0.333,0 0.621,-0.019 0.865,-0.059 0.243,-0.04 0.481,-0.094 0.715,-0.16 v 0.158 c 0,0.457 -0.134,0.804 -0.401,1.039 -0.266,0.234 -0.643,0.353 -1.13,0.353 -0.306,0 -0.585,-0.034 -0.835,-0.1 C -0.911,3.854 -1.156,3.764 -1.396,3.65 l -0.229,0.634 c 0.286,0.135 0.576,0.243 0.87,0.324 0.293,0.081 0.63,0.122 1.009,0.122 0.734,0 1.29,-0.19 1.67,-0.57 0.36,-0.359 0.54,-0.866 0.54,-1.519 V -0.52 H 1.705 V 0.25 C 1.524,0.017 1.283,-0.187 0.979,-0.364 0.676,-0.541 0.298,-0.63 -0.156,-0.63"
             style="fill:#231f20;fill-opacity:1;fill-rule:nonzero;stroke:none"
             id="path15391" /></g><path
           d="m 170.979,520.298 h 0.77 v -7.3 h -0.77 z"
           style="fill:#231f20;fill-opacity:1;fill-rule:nonzero;stroke:none"
           id="path15393" /><g
           id="g15395"
           transform="translate(88.4995,499.5879)"><path
             d="m 0,0 c -0.894,0.5 -1.58,1.106 -2.06,1.82 -0.48,0.713 -0.72,1.534 -0.72,2.46 0,0.927 0.24,1.746 0.72,2.46 0.48,0.713 1.166,1.321 2.06,1.821 L 0.33,8.05 C -0.437,7.563 -1.015,7.016 -1.405,6.405 -1.795,5.795 -1.99,5.087 -1.99,4.28 c 0,-0.806 0.195,-1.514 0.585,-2.125 0.39,-0.61 0.968,-1.158 1.735,-1.645 z"
             style="fill:#231f20;fill-opacity:1;fill-rule:nonzero;stroke:none"
             id="path15397" /></g><g
           id="g15399"
           transform="translate(92.894,504.1777)"><path
             d="M 0,0 C 0.288,0 0.55,0.037 0.787,0.11 1.024,0.185 1.228,0.289 1.399,0.427 1.569,0.563 1.7,0.726 1.79,0.913 1.88,1.101 1.925,1.312 1.925,1.545 v 0.02 C 1.925,2.066 1.753,2.446 1.409,2.704 1.064,2.962 0.608,3.09 0.04,3.09 H -1.735 V 0 Z m -2.525,3.82 h 2.62 C 0.489,3.82 0.847,3.769 1.17,3.665 1.494,3.562 1.771,3.415 2,3.226 2.23,3.035 2.407,2.804 2.53,2.53 2.654,2.257 2.715,1.947 2.715,1.601 V 1.58 C 2.715,1.2 2.642,0.868 2.495,0.585 2.349,0.302 2.15,0.063 1.9,-0.13 1.65,-0.323 1.359,-0.468 1.025,-0.564 0.692,-0.661 0.339,-0.71 -0.035,-0.71 h -1.7 v -2.47 h -0.79 z"
             style="fill:#231f20;fill-opacity:1;fill-rule:nonzero;stroke:none"
             id="path15401" /></g><g
           id="g15403"
           transform="translate(96.9194,506.168)"><path
             d="m 0,0 h 0.77 v -1.35 c 0.093,0.213 0.21,0.411 0.35,0.59 0.14,0.18 0.3,0.335 0.48,0.465 0.18,0.13 0.377,0.229 0.59,0.295 0.213,0.066 0.443,0.097 0.69,0.09 V -0.74 H 2.82 C 2.54,-0.74 2.275,-0.79 2.025,-0.89 1.775,-0.99 1.556,-1.14 1.37,-1.34 1.183,-1.54 1.037,-1.788 0.93,-2.085 0.823,-2.382 0.77,-2.724 0.77,-3.11 V -5.17 H 0 Z"
             style="fill:#231f20;fill-opacity:1;fill-rule:nonzero;stroke:none"
             id="path15405" /></g><path
           d="m 101.04,506.168 h 0.77 v -5.17 h -0.77 z m -0.051,1.98 h 0.88 v -0.851 h -0.88 z"
           style="fill:#231f20;fill-opacity:1;fill-rule:nonzero;stroke:none"
           id="path15407" /><g
           id="g15409"
           transform="translate(103.5991,506.168)"><path
             d="m 0,0 h 0.77 v -0.9 c 0.173,0.28 0.4,0.518 0.68,0.715 0.28,0.197 0.643,0.295 1.09,0.295 0.314,0 0.592,-0.049 0.835,-0.15 0.243,-0.1 0.45,-0.241 0.62,-0.425 0.17,-0.183 0.3,-0.401 0.39,-0.655 0.09,-0.253 0.135,-0.533 0.135,-0.84 V -5.17 H 3.75 v 3.014 c 0,0.478 -0.123,0.857 -0.37,1.137 C 3.133,-0.739 2.78,-0.6 2.32,-0.6 2.1,-0.6 1.895,-0.639 1.705,-0.715 1.515,-0.791 1.35,-0.901 1.21,-1.044 1.07,-1.187 0.962,-1.358 0.885,-1.558 0.809,-1.758 0.77,-1.977 0.77,-2.217 V -5.17 H 0 Z"
             style="fill:#231f20;fill-opacity:1;fill-rule:nonzero;stroke:none"
             id="path15411" /></g><g
           id="g15413"
           transform="translate(112.0891,500.8779)"><path
             d="m 0,0 c -0.38,0 -0.732,0.072 -1.055,0.215 -0.323,0.143 -0.603,0.337 -0.84,0.58 -0.237,0.243 -0.422,0.528 -0.555,0.855 -0.133,0.327 -0.2,0.67 -0.2,1.03 V 2.7 c 0,0.366 0.067,0.713 0.2,1.04 0.133,0.326 0.318,0.614 0.555,0.861 0.237,0.246 0.517,0.441 0.84,0.585 C -0.732,5.328 -0.38,5.4 0,5.4 0.247,5.4 0.47,5.377 0.67,5.33 0.87,5.283 1.053,5.219 1.22,5.135 1.386,5.052 1.54,4.953 1.68,4.84 1.82,4.727 1.95,4.606 2.07,4.48 L 1.56,3.94 C 1.353,4.153 1.128,4.337 0.885,4.49 0.642,4.644 0.344,4.72 -0.01,4.72 -0.27,4.72 -0.513,4.668 -0.74,4.565 -0.967,4.462 -1.163,4.32 -1.33,4.14 -1.497,3.96 -1.627,3.748 -1.72,3.505 -1.813,3.262 -1.86,3 -1.86,2.72 V 2.7 c 0,-0.28 0.048,-0.542 0.145,-0.785 0.097,-0.243 0.23,-0.457 0.4,-0.64 0.17,-0.183 0.37,-0.327 0.6,-0.43 0.23,-0.104 0.482,-0.155 0.755,-0.155 0.333,0 0.628,0.074 0.885,0.22 0.257,0.147 0.488,0.33 0.695,0.55 L 2.11,1 C 1.85,0.707 1.555,0.467 1.225,0.28 0.895,0.094 0.487,0 0,0"
             style="fill:#231f20;fill-opacity:1;fill-rule:nonzero;stroke:none"
             id="path15415" /></g><path
           d="m 115.539,506.168 h 0.77 v -5.17 h -0.77 z m -0.05,1.98 h 0.88 v -0.851 h -0.88 z"
           style="fill:#231f20;fill-opacity:1;fill-rule:nonzero;stroke:none"
           id="path15417" /><g
           id="g15419"
           transform="translate(120.709,501.5781)"><path
             d="m 0,0 c 0.247,0 0.481,0.045 0.705,0.135 0.223,0.09 0.417,0.219 0.58,0.39 0.163,0.17 0.293,0.378 0.39,0.625 C 1.771,1.396 1.82,1.677 1.82,1.99 V 2.01 C 1.82,2.316 1.771,2.593 1.675,2.84 1.578,3.087 1.447,3.297 1.28,3.47 1.113,3.644 0.92,3.776 0.7,3.87 0.48,3.963 0.247,4.01 0,4.01 -0.24,4.01 -0.472,3.962 -0.695,3.865 -0.918,3.769 -1.118,3.632 -1.295,3.455 -1.472,3.278 -1.612,3.068 -1.715,2.825 -1.818,2.581 -1.87,2.313 -1.87,2.02 V 2 c 0,-0.3 0.052,-0.573 0.155,-0.82 0.103,-0.246 0.243,-0.456 0.42,-0.63 0.177,-0.173 0.377,-0.309 0.6,-0.405 C -0.472,0.048 -0.24,0 0,0 m -2.61,4.59 h 0.77 V 3.55 c 0.107,0.153 0.225,0.3 0.355,0.44 0.13,0.14 0.275,0.262 0.435,0.364 0.16,0.104 0.338,0.187 0.535,0.25 C -0.318,4.668 -0.1,4.7 0.14,4.7 0.447,4.7 0.748,4.64 1.045,4.52 1.342,4.4 1.606,4.225 1.84,3.995 2.073,3.765 2.26,3.485 2.4,3.155 2.54,2.825 2.61,2.446 2.61,2.02 V 2 C 2.61,1.58 2.54,1.203 2.4,0.87 2.26,0.536 2.075,0.255 1.845,0.025 1.615,-0.205 1.352,-0.382 1.055,-0.505 0.758,-0.628 0.453,-0.69 0.14,-0.69 c -0.24,0 -0.46,0.03 -0.66,0.09 -0.2,0.06 -0.38,0.14 -0.54,0.24 -0.16,0.1 -0.305,0.216 -0.435,0.35 -0.13,0.133 -0.245,0.274 -0.345,0.42 v -2.59 h -0.77 z"
             style="fill:#231f20;fill-opacity:1;fill-rule:nonzero;stroke:none"
             id="path15421" /></g><g
           id="g15423"
           transform="translate(126.4346,501.5176)"><path
             d="M 0,0 C 0.239,0 0.462,0.033 0.668,0.1 0.874,0.166 1.055,0.261 1.211,0.384 1.367,0.507 1.49,0.652 1.58,0.821 1.669,0.99 1.714,1.178 1.714,1.384 V 1.861 C 1.521,1.914 1.302,1.964 1.057,2.011 0.811,2.058 0.528,2.08 0.209,2.08 -0.269,2.08 -0.64,1.985 -0.902,1.797 -1.165,1.607 -1.296,1.357 -1.296,1.046 V 1.025 c 0,-0.159 0.035,-0.303 0.105,-0.432 0.07,-0.13 0.164,-0.238 0.284,-0.323 0.12,-0.087 0.258,-0.154 0.414,-0.2 C -0.337,0.023 -0.173,0 0,0 m -0.156,-0.63 c -0.24,0 -0.476,0.034 -0.71,0.101 -0.233,0.066 -0.44,0.168 -0.62,0.304 -0.18,0.137 -0.325,0.305 -0.435,0.505 -0.11,0.2 -0.165,0.434 -0.165,0.7 V 1 c 0,0.28 0.054,0.525 0.16,0.735 0.107,0.21 0.259,0.385 0.455,0.526 0.197,0.139 0.43,0.246 0.7,0.319 0.271,0.073 0.569,0.11 0.896,0.11 0.333,0 0.621,-0.019 0.864,-0.059 0.244,-0.04 0.482,-0.094 0.715,-0.16 v 0.158 c 0,0.457 -0.133,0.804 -0.4,1.039 -0.266,0.234 -0.643,0.353 -1.13,0.353 -0.306,0 -0.585,-0.034 -0.835,-0.1 C -0.911,3.854 -1.156,3.764 -1.396,3.65 l -0.229,0.634 c 0.286,0.135 0.576,0.243 0.869,0.324 0.294,0.081 0.631,0.122 1.01,0.122 0.734,0 1.29,-0.19 1.67,-0.57 0.36,-0.359 0.54,-0.866 0.54,-1.519 V -0.52 H 1.704 V 0.25 C 1.524,0.017 1.283,-0.187 0.979,-0.364 0.676,-0.541 0.298,-0.63 -0.156,-0.63"
             style="fill:#231f20;fill-opacity:1;fill-rule:nonzero;stroke:none"
             id="path15425" /></g><path
           d="m 130.599,508.298 h 0.77 v -7.3 h -0.77 z"
           style="fill:#231f20;fill-opacity:1;fill-rule:nonzero;stroke:none"
           id="path15427" /><g
           id="g15429"
           transform="translate(132.8589,500.0977)"><path
             d="M 0,0 C 0.766,0.487 1.345,1.035 1.735,1.646 2.125,2.256 2.32,2.964 2.32,3.771 2.32,4.577 2.125,5.285 1.735,5.896 1.345,6.506 0.766,7.054 0,7.54 L 0.33,8.051 C 1.223,7.551 1.91,6.943 2.39,6.23 2.87,5.517 3.11,4.697 3.11,3.771 3.11,2.844 2.87,2.023 2.39,1.311 1.91,0.597 1.223,-0.01 0.33,-0.51 Z"
             style="fill:#231f20;fill-opacity:1;fill-rule:nonzero;stroke:none"
             id="path15431" /></g><g
           id="g15433"
           transform="translate(85.4297,276.1992)"><path
             d="M 0,0 H 0.88 L 3.37,-6.03 5.87,0 H 6.72 L 3.71,-7.05 h -0.7 z"
             style="fill:#231f20;fill-opacity:1;fill-rule:nonzero;stroke:none"
             id="path15435" /></g><g
           id="g15437"
           transform="translate(97.1895,272.0996)"><path
             d="m 0,0 c -0.02,0.231 -0.07,0.452 -0.15,0.661 -0.08,0.208 -0.188,0.393 -0.325,0.552 -0.137,0.159 -0.303,0.285 -0.5,0.378 -0.197,0.093 -0.421,0.138 -0.675,0.138 -0.22,0 -0.427,-0.042 -0.62,-0.128 C -2.463,1.514 -2.633,1.394 -2.78,1.237 -2.927,1.082 -3.048,0.897 -3.145,0.686 -3.242,0.474 -3.303,0.245 -3.33,0 Z m -3.33,-0.631 c 0.027,-0.273 0.093,-0.516 0.2,-0.729 0.107,-0.214 0.243,-0.394 0.41,-0.54 0.167,-0.147 0.353,-0.259 0.56,-0.335 0.207,-0.078 0.423,-0.116 0.65,-0.116 0.36,0 0.668,0.067 0.925,0.201 0.257,0.132 0.492,0.309 0.705,0.53 L 0.6,-2.051 c -0.26,-0.293 -0.557,-0.528 -0.89,-0.705 -0.333,-0.176 -0.747,-0.265 -1.24,-0.265 -0.353,0 -0.687,0.066 -1,0.196 -0.313,0.13 -0.587,0.313 -0.82,0.55 -0.233,0.236 -0.418,0.521 -0.555,0.855 -0.137,0.333 -0.205,0.699 -0.205,1.1 0,0.373 0.062,0.724 0.185,1.054 0.123,0.33 0.295,0.618 0.515,0.861 0.22,0.243 0.482,0.434 0.785,0.575 0.303,0.14 0.635,0.21 0.995,0.21 0.38,0 0.72,-0.072 1.02,-0.215 C -0.31,2.021 -0.057,1.826 0.15,1.58 0.357,1.333 0.513,1.043 0.62,0.71 0.727,0.376 0.78,0.02 0.78,-0.36 v -0.116 c 0,-0.043 -0.003,-0.094 -0.01,-0.155 z"
             style="fill:#231f20;fill-opacity:1;fill-rule:nonzero;stroke:none"
             id="path15439" /></g><g
           id="g15441"
           transform="translate(99.3193,274.3691)"><path
             d="m 0,0 h 0.77 v -1.35 c 0.093,0.213 0.21,0.411 0.35,0.59 0.14,0.18 0.3,0.335 0.48,0.465 0.18,0.13 0.377,0.229 0.59,0.295 0.213,0.066 0.443,0.097 0.69,0.09 V -0.74 H 2.82 C 2.54,-0.74 2.275,-0.79 2.025,-0.89 1.775,-0.99 1.557,-1.14 1.37,-1.34 1.184,-1.54 1.037,-1.788 0.93,-2.085 0.823,-2.382 0.77,-2.724 0.77,-3.11 V -5.17 H 0 Z"
             style="fill:#231f20;fill-opacity:1;fill-rule:nonzero;stroke:none"
             id="path15443" /></g><g
           id="g15445"
           transform="translate(105.0796,269.0996)"><path
             d="M 0,0 C -0.374,0 -0.75,0.068 -1.13,0.205 -1.51,0.341 -1.847,0.526 -2.14,0.76 l 0.39,0.55 c 0.28,-0.214 0.572,-0.377 0.875,-0.491 0.303,-0.113 0.608,-0.17 0.915,-0.17 0.313,0 0.57,0.074 0.77,0.22 0.2,0.148 0.3,0.347 0.3,0.601 V 1.489 C 1.11,1.616 1.075,1.727 1.005,1.819 0.935,1.913 0.84,1.994 0.72,2.064 0.6,2.135 0.461,2.196 0.305,2.25 0.148,2.303 -0.014,2.353 -0.18,2.399 -0.38,2.46 -0.582,2.524 -0.785,2.595 -0.989,2.665 -1.172,2.753 -1.335,2.859 -1.499,2.966 -1.632,3.1 -1.735,3.26 -1.838,3.42 -1.89,3.619 -1.89,3.859 V 3.88 c 0,0.22 0.043,0.421 0.13,0.604 0.087,0.184 0.208,0.34 0.365,0.471 0.156,0.13 0.343,0.23 0.56,0.3 0.216,0.069 0.451,0.104 0.705,0.104 0.32,0 0.643,-0.051 0.97,-0.154 C 1.167,5.102 1.463,4.963 1.73,4.79 L 1.38,4.21 C 1.14,4.363 0.888,4.484 0.625,4.574 0.361,4.665 0.103,4.71 -0.15,4.71 -0.457,4.71 -0.7,4.638 -0.88,4.494 -1.06,4.352 -1.15,4.173 -1.15,3.96 V 3.939 c 0,-0.12 0.036,-0.224 0.11,-0.314 C -0.967,3.534 -0.869,3.456 -0.745,3.39 -0.622,3.323 -0.48,3.263 -0.32,3.21 -0.16,3.156 0.006,3.103 0.18,3.05 0.38,2.989 0.578,2.923 0.775,2.85 0.971,2.776 1.15,2.683 1.31,2.569 1.47,2.456 1.598,2.319 1.695,2.159 1.792,2 1.84,1.803 1.84,1.569 V 1.55 C 1.84,1.303 1.792,1.085 1.695,0.895 1.598,0.705 1.468,0.543 1.305,0.409 1.142,0.276 0.948,0.175 0.725,0.104 0.501,0.034 0.26,0 0,0"
             style="fill:#231f20;fill-opacity:1;fill-rule:nonzero;stroke:none"
             id="path15447" /></g><g
           id="g15449"
           transform="translate(108.7793,275.1895)"><path
             d="M 0,0 C 0.1,0.38 0.223,0.649 0.37,0.81 0.517,0.97 0.71,1.05 0.95,1.05 1.063,1.05 1.18,1.028 1.3,0.984 1.42,0.941 1.54,0.895 1.66,0.845 1.78,0.795 1.893,0.75 2,0.71 2.107,0.67 2.203,0.649 2.29,0.649 c 0.133,0 0.235,0.038 0.305,0.111 0.07,0.073 0.142,0.2 0.215,0.38 L 3.28,1.01 C 3.18,0.63 3.057,0.359 2.91,0.2 2.763,0.04 2.57,-0.04 2.33,-0.04 2.217,-0.04 2.1,-0.021 1.98,0.02 1.86,0.06 1.74,0.104 1.62,0.154 1.5,0.205 1.387,0.251 1.28,0.295 1.173,0.338 1.077,0.359 0.99,0.359 0.857,0.359 0.755,0.323 0.685,0.25 0.615,0.177 0.543,0.05 0.47,-0.13 Z m 1.266,-5.471 c 0.239,0 0.462,0.034 0.668,0.1 0.205,0.066 0.387,0.161 0.543,0.284 0.156,0.123 0.279,0.269 0.369,0.438 0.089,0.169 0.134,0.356 0.134,0.562 v 0.478 C 2.787,-3.557 2.568,-3.507 2.322,-3.46 2.076,-3.413 1.794,-3.391 1.475,-3.391 0.997,-3.391 0.626,-3.485 0.364,-3.674 0.101,-3.863 -0.03,-4.113 -0.03,-4.425 v -0.02 c 0,-0.159 0.035,-0.304 0.105,-0.433 0.07,-0.13 0.164,-0.237 0.284,-0.323 0.12,-0.087 0.257,-0.153 0.413,-0.199 0.156,-0.047 0.321,-0.071 0.494,-0.071 M 1.11,-6.101 c -0.24,0 -0.477,0.035 -0.71,0.101 -0.233,0.066 -0.44,0.168 -0.62,0.305 -0.18,0.136 -0.325,0.304 -0.435,0.505 -0.11,0.2 -0.165,0.433 -0.165,0.7 v 0.019 c 0,0.281 0.053,0.526 0.16,0.736 0.107,0.21 0.258,0.384 0.455,0.525 0.197,0.14 0.43,0.246 0.7,0.319 0.27,0.074 0.568,0.111 0.895,0.111 0.333,0 0.622,-0.02 0.865,-0.06 C 2.499,-2.88 2.737,-2.934 2.97,-3 v 0.158 c 0,0.457 -0.133,0.804 -0.4,1.039 C 2.303,-1.568 1.927,-1.45 1.44,-1.45 1.133,-1.45 0.855,-1.483 0.605,-1.55 0.355,-1.617 0.11,-1.707 -0.13,-1.82 l -0.23,0.633 c 0.287,0.135 0.577,0.244 0.87,0.325 0.293,0.081 0.63,0.122 1.01,0.122 0.733,0 1.29,-0.191 1.67,-0.571 C 3.55,-1.67 3.73,-2.177 3.73,-2.83 V -5.99 H 2.97 v 0.769 C 2.79,-5.454 2.548,-5.658 2.245,-5.835 1.942,-6.012 1.563,-6.101 1.11,-6.101"
             style="fill:#231f20;fill-opacity:1;fill-rule:nonzero;stroke:none"
             id="path15451" /></g><g
           id="g15453"
           transform="translate(116.5193,269.7695)"><path
             d="M 0,0 C 0.28,0 0.537,0.053 0.77,0.16 1.003,0.267 1.203,0.41 1.37,0.59 1.537,0.77 1.667,0.979 1.76,1.22 1.853,1.46 1.9,1.716 1.9,1.989 V 2.01 C 1.9,2.29 1.852,2.551 1.755,2.795 1.658,3.038 1.523,3.251 1.35,3.435 1.177,3.618 0.973,3.763 0.74,3.87 0.507,3.977 0.253,4.029 -0.02,4.029 -0.3,4.029 -0.557,3.977 -0.79,3.87 -1.023,3.763 -1.222,3.62 -1.385,3.439 -1.549,3.26 -1.677,3.048 -1.77,2.805 -1.864,2.562 -1.91,2.303 -1.91,2.029 V 2.01 c 0,-0.281 0.048,-0.542 0.145,-0.785 0.097,-0.244 0.23,-0.455 0.4,-0.635 C -1.195,0.41 -0.993,0.267 -0.76,0.16 -0.527,0.053 -0.273,0 0,0 m -0.02,-0.69 c -0.387,0 -0.743,0.072 -1.07,0.214 -0.327,0.144 -0.61,0.337 -0.85,0.58 -0.24,0.244 -0.427,0.527 -0.56,0.851 -0.134,0.323 -0.2,0.668 -0.2,1.034 V 2.01 c 0,0.366 0.066,0.713 0.2,1.04 0.133,0.326 0.32,0.613 0.56,0.86 0.24,0.246 0.525,0.442 0.855,0.585 C -0.755,4.638 -0.393,4.71 0,4.71 0.386,4.71 0.745,4.638 1.075,4.495 1.405,4.352 1.69,4.158 1.93,3.915 2.17,3.671 2.357,3.388 2.49,3.064 2.623,2.741 2.69,2.396 2.69,2.029 V 2.01 C 2.69,1.643 2.622,1.296 2.485,0.97 2.348,0.643 2.16,0.356 1.92,0.109 1.68,-0.137 1.393,-0.332 1.06,-0.476 0.727,-0.618 0.366,-0.69 -0.02,-0.69"
             style="fill:#231f20;fill-opacity:1;fill-rule:nonzero;stroke:none"
             id="path15455" /></g><g
           id="g15457"
           transform="translate(123.0891,274.3691)"><path
             d="M 0,0 H 0.85 L 2.59,-4.29 4.34,0 H 5.17 L 2.92,-5.21 H 2.24 Z"
             style="fill:#231f20;fill-opacity:1;fill-rule:nonzero;stroke:none"
             id="path15459" /></g><g
           id="g15461"
           transform="translate(133.259,272.0996)"><path
             d="m 0,0 c -0.02,0.231 -0.07,0.452 -0.15,0.661 -0.08,0.208 -0.189,0.393 -0.325,0.552 -0.137,0.159 -0.304,0.285 -0.5,0.378 -0.197,0.093 -0.422,0.138 -0.675,0.138 -0.22,0 -0.427,-0.042 -0.62,-0.128 C -2.464,1.514 -2.634,1.394 -2.78,1.237 -2.927,1.082 -3.049,0.897 -3.145,0.686 -3.242,0.474 -3.303,0.245 -3.33,0 Z m -3.33,-0.631 c 0.027,-0.273 0.093,-0.516 0.2,-0.729 0.107,-0.214 0.243,-0.394 0.41,-0.54 0.167,-0.147 0.353,-0.259 0.56,-0.335 0.207,-0.078 0.423,-0.116 0.65,-0.116 0.36,0 0.668,0.067 0.925,0.201 0.257,0.132 0.491,0.309 0.705,0.53 L 0.6,-2.051 c -0.26,-0.293 -0.557,-0.528 -0.89,-0.705 -0.333,-0.176 -0.747,-0.265 -1.24,-0.265 -0.354,0 -0.687,0.066 -1,0.196 -0.314,0.13 -0.587,0.313 -0.82,0.55 -0.233,0.236 -0.418,0.521 -0.555,0.855 -0.137,0.333 -0.205,0.699 -0.205,1.1 0,0.373 0.061,0.724 0.185,1.054 0.123,0.33 0.295,0.618 0.515,0.861 0.22,0.243 0.482,0.434 0.785,0.575 0.303,0.14 0.635,0.21 0.995,0.21 0.38,0 0.72,-0.072 1.02,-0.215 C -0.31,2.021 -0.057,1.826 0.15,1.58 0.357,1.333 0.513,1.043 0.62,0.71 0.727,0.376 0.78,0.02 0.78,-0.36 v -0.116 c 0,-0.043 -0.003,-0.094 -0.01,-0.155 z"
             style="fill:#231f20;fill-opacity:1;fill-rule:nonzero;stroke:none"
             id="path15463" /></g><g
           id="g15465"
           transform="translate(135.3889,274.3691)"><path
             d="m 0,0 h 0.77 v -1.35 c 0.093,0.213 0.21,0.411 0.35,0.59 0.14,0.18 0.3,0.335 0.48,0.465 0.18,0.13 0.377,0.229 0.59,0.295 0.213,0.066 0.443,0.097 0.69,0.09 V -0.74 H 2.82 C 2.54,-0.74 2.275,-0.79 2.025,-0.89 1.775,-0.99 1.556,-1.14 1.37,-1.34 1.183,-1.54 1.037,-1.788 0.93,-2.085 0.823,-2.382 0.77,-2.724 0.77,-3.11 V -5.17 H 0 Z"
             style="fill:#231f20;fill-opacity:1;fill-rule:nonzero;stroke:none"
             id="path15467" /></g><g
           id="g15469"
           transform="translate(141.1689,269.1094)"><path
             d="M 0,0 C -0.207,0 -0.4,0.026 -0.58,0.08 -0.76,0.133 -0.915,0.218 -1.045,0.335 -1.175,0.451 -1.277,0.604 -1.35,0.79 -1.424,0.977 -1.46,1.2 -1.46,1.46 v 3.12 h -0.72 v 0.68 h 0.72 v 1.56 h 0.77 V 5.26 H 0.95 V 4.58 H -0.69 V 1.567 c 0,-0.319 0.08,-0.542 0.24,-0.668 C -0.29,0.773 -0.08,0.71 0.18,0.71 0.313,0.71 0.438,0.723 0.555,0.748 0.671,0.772 0.796,0.816 0.93,0.88 V 0.22 C 0.796,0.146 0.655,0.092 0.505,0.055 0.355,0.019 0.187,0 0,0"
             style="fill:#231f20;fill-opacity:1;fill-rule:nonzero;stroke:none"
             id="path15471" /></g><path
           d="m 143.549,274.369 h 0.77 v -5.17 h -0.77 z m -0.05,1.981 h 0.88 v -0.851 h -0.88 z"
           style="fill:#231f20;fill-opacity:1;fill-rule:nonzero;stroke:none"
           id="path15473" /><g
           id="g15475"
           transform="translate(148.4385,269.0791)"><path
             d="m 0,0 c -0.38,0 -0.731,0.072 -1.055,0.215 -0.323,0.143 -0.603,0.337 -0.84,0.58 -0.237,0.243 -0.421,0.528 -0.555,0.855 -0.133,0.327 -0.2,0.67 -0.2,1.03 V 2.7 c 0,0.366 0.067,0.713 0.2,1.04 0.134,0.326 0.318,0.614 0.555,0.861 0.237,0.246 0.517,0.441 0.84,0.585 C -0.731,5.328 -0.38,5.4 0,5.4 0.247,5.4 0.47,5.377 0.67,5.33 0.87,5.283 1.053,5.219 1.22,5.135 1.387,5.052 1.54,4.953 1.68,4.84 1.82,4.727 1.95,4.606 2.07,4.48 L 1.56,3.94 C 1.354,4.153 1.128,4.337 0.885,4.49 0.642,4.644 0.344,4.72 -0.01,4.72 -0.27,4.72 -0.513,4.668 -0.74,4.565 -0.967,4.462 -1.163,4.32 -1.33,4.14 -1.497,3.96 -1.626,3.748 -1.72,3.505 -1.813,3.262 -1.86,3 -1.86,2.72 V 2.7 c 0,-0.28 0.048,-0.542 0.145,-0.785 0.097,-0.243 0.23,-0.457 0.4,-0.64 0.17,-0.183 0.37,-0.327 0.6,-0.43 0.23,-0.104 0.482,-0.155 0.755,-0.155 0.334,0 0.628,0.074 0.885,0.22 0.257,0.147 0.489,0.33 0.695,0.55 L 2.11,1 C 1.85,0.707 1.555,0.467 1.225,0.28 0.895,0.094 0.487,0 0,0"
             style="fill:#231f20;fill-opacity:1;fill-rule:nonzero;stroke:none"
             id="path15477" /></g><g
           id="g15479"
           transform="translate(153.5142,269.7187)"><path
             d="M 0,0 C 0.239,0 0.462,0.033 0.668,0.1 0.874,0.166 1.055,0.261 1.211,0.384 1.367,0.507 1.49,0.652 1.58,0.821 1.669,0.99 1.714,1.178 1.714,1.384 V 1.861 C 1.521,1.914 1.302,1.964 1.057,2.011 0.811,2.058 0.528,2.08 0.209,2.08 -0.269,2.08 -0.639,1.985 -0.902,1.797 -1.165,1.607 -1.295,1.357 -1.295,1.046 V 1.025 c 0,-0.159 0.034,-0.303 0.104,-0.432 0.07,-0.13 0.165,-0.238 0.284,-0.323 0.12,-0.087 0.258,-0.154 0.414,-0.2 C -0.337,0.023 -0.173,0 0,0 m -0.156,-0.63 c -0.24,0 -0.476,0.034 -0.71,0.101 -0.233,0.066 -0.44,0.168 -0.62,0.304 -0.18,0.137 -0.325,0.305 -0.434,0.505 -0.111,0.2 -0.165,0.434 -0.165,0.7 V 1 c 0,0.28 0.053,0.525 0.159,0.735 0.107,0.21 0.259,0.385 0.455,0.526 0.197,0.139 0.43,0.246 0.7,0.319 0.271,0.073 0.569,0.11 0.896,0.11 0.333,0 0.621,-0.019 0.865,-0.059 0.243,-0.04 0.481,-0.094 0.715,-0.16 v 0.158 c 0,0.457 -0.134,0.804 -0.401,1.039 -0.266,0.234 -0.643,0.353 -1.13,0.353 -0.306,0 -0.585,-0.034 -0.835,-0.1 C -0.911,3.854 -1.156,3.764 -1.396,3.65 l -0.229,0.634 c 0.286,0.135 0.576,0.243 0.87,0.324 0.293,0.081 0.63,0.122 1.009,0.122 0.734,0 1.29,-0.19 1.67,-0.57 0.36,-0.359 0.54,-0.866 0.54,-1.519 V -0.52 H 1.705 V 0.25 C 1.524,0.017 1.283,-0.187 0.979,-0.364 0.676,-0.541 0.298,-0.63 -0.156,-0.63"
             style="fill:#231f20;fill-opacity:1;fill-rule:nonzero;stroke:none"
             id="path15481" /></g><path
           d="m 157.679,276.499 h 0.77 v -7.3 h -0.77 z"
           style="fill:#231f20;fill-opacity:1;fill-rule:nonzero;stroke:none"
           id="path15483" /></g></g></g></svg>
