<?xml version="1.0" encoding="UTF-8" standalone="no"?>
<!-- Created with Inkscape (http://www.inkscape.org/) -->

<svg
   version="1.1"
   id="svg17765"
   xml:space="preserve"
   width="232.06454"
   height="54.389919"
   viewBox="0 0 232.06454 54.389919"
   sodipodi:docname="ESS-logo.svg"
   inkscape:version="1.1.2 (0a00cf5339, 2022-02-04)"
   xmlns:inkscape="http://www.inkscape.org/namespaces/inkscape"
   xmlns:sodipodi="http://sodipodi.sourceforge.net/DTD/sodipodi-0.dtd"
   xmlns="http://www.w3.org/2000/svg"
   xmlns:svg="http://www.w3.org/2000/svg"><defs
     id="defs17769"><clipPath
       clipPathUnits="userSpaceOnUse"
       id="clipPath17785"><path
         d="M 0,595.275 H 841.89 V 0 H 0 Z"
         id="path17783" /></clipPath></defs><sodipodi:namedview
     id="namedview17767"
     pagecolor="#505050"
     bordercolor="#ffffff"
     borderopacity="1"
     inkscape:pageshadow="0"
     inkscape:pageopacity="0"
     inkscape:pagecheckerboard="1"
     showgrid="false"
     inkscape:zoom="3.5956475"
     inkscape:cx="146.70515"
     inkscape:cy="84.129493"
     inkscape:window-width="1920"
     inkscape:window-height="1007"
     inkscape:window-x="1536"
     inkscape:window-y="30"
     inkscape:window-maximized="1"
     inkscape:current-layer="g17771" /><g
     id="g17771"
     inkscape:groupmode="layer"
     inkscape:label="Logos_Versoes_v2"
     transform="matrix(1.3333333,0,0,-1.3333333,-205.69313,665.33878)"><path
       d="m 208.906,201.35 h 7.789 v -26 h -7.789 z"
       style="fill:#000000;fill-opacity:1;fill-rule:nonzero;stroke:none"
       id="path17773" /><g
       id="g17775"
       transform="translate(276.9429,201.3496)"><path
         d="m 0,0 -9.607,-26 h -8.828 l -9.607,26 h 8.621 l 5.4,-16.483 L -8.62,0 Z"
         style="fill:#000000;fill-opacity:1;fill-rule:nonzero;stroke:none"
         id="path17777" /></g><g
       id="g17779"
       transform="matrix(0.55819189,0,0,0.55819189,37.570964,232.02388)"><g
         id="g17781"
         clip-path="url(#clipPath17785)"><g
           id="g17787"
           transform="translate(277.4629,188.3496)"><path
             d="m 0,0 c 0,7.748 5.868,13.729 13.761,13.729 5.037,0 9.504,-2.653 11.736,-6.657 L 18.695,3.12 C 17.811,4.94 15.942,6.031 13.657,6.031 10.283,6.031 7.79,3.589 7.79,0 c 0,-3.588 2.493,-6.032 5.867,-6.032 2.285,0 4.207,1.093 5.038,2.913 L 25.497,-7.02 C 23.265,-11.076 18.85,-13.728 13.761,-13.728 5.868,-13.728 0,-7.748 0,0"
             style="fill:#000000;fill-opacity:1;fill-rule:nonzero;stroke:none"
             id="path17789" /></g><g
           id="g17791"
           transform="translate(234.6299,182.3183)"><path
             d="m 0,0 c -2.962,0 -5.541,1.936 -5.541,5.784 0,4.265 2.467,6.279 5.568,6.279 3.375,0 5.855,-2.443 5.855,-6.032 C 5.882,2.443 3.375,0 0,0 m -0.104,19.76 c -6.687,0 -12.648,-5.974 -12.648,-12.722 l 0.019,-30.142 h 8.254 v 17.069 c 1,-0.926 2.907,-1.661 4.639,-1.661 7.893,0 13.629,5.979 13.629,13.727 0,7.748 -5.999,13.729 -13.893,13.729"
             style="fill:#000000;fill-opacity:1;fill-rule:nonzero;stroke:none"
             id="path17793" /></g><g
           id="g17795"
           transform="translate(212.8003,215.8193)"><path
             d="m 0,0 c -2.736,0 -5.024,2.292 -5.024,5.031 0,2.74 2.288,5.031 5.024,5.031 2.735,0 5.024,-2.291 5.024,-5.031 C 5.024,2.292 2.735,0 0,0"
             style="fill:#dca7ac;fill-opacity:1;fill-rule:nonzero;stroke:none"
             id="path17797" /></g><g
           id="g17799"
           transform="translate(277.168,210.0839)"><path
             d="M 0,0 -12.316,12.305 -24.618,-0.054 -39.136,7.131 h -11.881 v 7 h 13.53 L -26.004,8.46 -12.318,22.176 1.378,8.504 13.447,14.552 26.736,10.009 24.426,3.402 13.932,6.973 Z"
             style="fill:#dca7ac;fill-opacity:1;fill-rule:nonzero;stroke:none"
             id="path17801" /></g><g
           id="g17803"
           transform="translate(208.9473,141.4931)"><path
             d="m 0,0 h 11.411 v -2.967 h -8.12 v -3.074 h 7.145 V -9.007 H 3.291 v -3.183 h 8.228 v -2.966 H 0 Z"
             style="fill:#000000;fill-opacity:1;fill-rule:nonzero;stroke:none"
             id="path17805" /></g><g
           id="g17807"
           transform="translate(226.9419,126.1201)"><path
             d="M 0,0 C -0.823,0 -1.664,0.141 -2.522,0.423 -3.381,0.704 -4.2,1.147 -4.98,1.754 l 1.408,2.165 C -2.938,3.457 -2.306,3.11 -1.678,2.88 -1.05,2.648 -0.462,2.533 0.087,2.533 c 0.476,0 0.826,0.079 1.05,0.238 0.223,0.16 0.336,0.369 0.336,0.628 V 3.442 C 1.473,3.616 1.407,3.768 1.277,3.897 1.147,4.027 0.971,4.139 0.747,4.233 0.523,4.327 0.267,4.417 -0.022,4.504 -0.311,4.591 -0.613,4.684 -0.931,4.785 -1.335,4.9 -1.743,5.041 -2.154,5.207 -2.565,5.373 -2.938,5.59 -3.27,5.856 -3.602,6.124 -3.872,6.452 -4.082,6.842 -4.291,7.231 -4.396,7.708 -4.396,8.271 v 0.043 c 0,0.592 0.112,1.116 0.336,1.57 0.224,0.455 0.527,0.841 0.91,1.158 0.382,0.317 0.83,0.556 1.342,0.715 0.512,0.158 1.064,0.238 1.657,0.238 0.736,0 1.483,-0.119 2.24,-0.357 0.758,-0.239 1.454,-0.567 2.09,-0.986 L 2.923,8.379 C 2.346,8.711 1.782,8.975 1.234,9.17 0.686,9.364 0.202,9.462 -0.217,9.462 -0.621,9.462 -0.924,9.386 -1.126,9.234 -1.328,9.083 -1.429,8.892 -1.429,8.661 V 8.617 c 0,-0.159 0.065,-0.3 0.195,-0.422 C -1.105,8.072 -0.931,7.957 -0.715,7.849 -0.498,7.74 -0.249,7.636 0.032,7.535 0.314,7.434 0.613,7.333 0.931,7.231 1.335,7.102 1.746,6.946 2.165,6.767 2.584,6.586 2.959,6.366 3.291,6.106 3.623,5.846 3.897,5.528 4.113,5.153 4.33,4.777 4.438,4.323 4.438,3.789 V 3.746 C 4.438,3.097 4.326,2.537 4.103,2.067 3.879,1.599 3.565,1.213 3.161,0.909 2.757,0.606 2.284,0.379 1.743,0.228 1.202,0.075 0.62,0 0,0"
             style="fill:#000000;fill-opacity:1;fill-rule:nonzero;stroke:none"
             id="path17809" /></g><g
           id="g17811"
           transform="translate(238.772,126.0761)"><path
             d="M 0,0 C -0.866,0 -1.671,0.16 -2.414,0.477 -3.157,0.795 -3.796,1.225 -4.33,1.766 -4.864,2.307 -5.283,2.941 -5.586,3.671 -5.889,4.399 -6.041,5.176 -6.041,5.998 v 0.043 c 0,0.823 0.152,1.603 0.455,2.339 0.303,0.736 0.722,1.378 1.256,1.927 0.534,0.548 1.173,0.981 1.916,1.298 0.743,0.319 1.562,0.477 2.457,0.477 1.098,0 2.007,-0.173 2.728,-0.519 0.722,-0.346 1.357,-0.823 1.906,-1.429 L 2.663,7.969 C 2.288,8.358 1.902,8.668 1.505,8.899 1.108,9.13 0.613,9.246 0.022,9.246 -0.397,9.246 -0.776,9.163 -1.115,8.997 -1.454,8.831 -1.75,8.604 -2.002,8.314 -2.255,8.026 -2.45,7.69 -2.587,7.309 -2.725,6.926 -2.793,6.518 -2.793,6.085 V 6.041 c 0,-0.447 0.068,-0.865 0.206,-1.255 0.137,-0.39 0.336,-0.729 0.595,-1.018 0.26,-0.289 0.57,-0.516 0.931,-0.682 0.361,-0.166 0.765,-0.249 1.213,-0.249 0.548,0 1.029,0.112 1.44,0.336 0.411,0.223 0.819,0.522 1.223,0.898 L 4.742,2.123 C 4.179,1.502 3.537,0.993 2.815,0.596 2.093,0.199 1.155,0 0,0"
             style="fill:#000000;fill-opacity:1;fill-rule:nonzero;stroke:none"
             id="path17813" /></g><g
           id="g17815"
           transform="translate(250.5659,128.913)"><path
             d="M 0,0 C 0.476,0 0.898,0.083 1.267,0.249 1.635,0.415 1.949,0.643 2.208,0.931 2.468,1.22 2.667,1.556 2.804,1.938 2.941,2.32 3.009,2.729 3.009,3.161 V 3.204 C 3.009,3.638 2.937,4.046 2.793,4.428 2.648,4.811 2.439,5.149 2.165,5.445 1.891,5.741 1.566,5.976 1.191,6.149 0.815,6.322 0.404,6.409 -0.043,6.409 -0.52,6.409 -0.942,6.326 -1.31,6.16 -1.678,5.994 -1.992,5.767 -2.252,5.478 -2.512,5.189 -2.71,4.854 -2.848,4.472 -2.984,4.089 -3.053,3.681 -3.053,3.248 V 3.204 c 0,-0.433 0.072,-0.841 0.217,-1.223 0.144,-0.382 0.353,-0.722 0.627,-1.017 0.274,-0.296 0.596,-0.53 0.964,-0.705 C -0.877,0.087 -0.462,0 0,0 m -0.043,-2.837 c -0.895,0 -1.726,0.156 -2.49,0.467 -0.766,0.309 -1.426,0.735 -1.982,1.277 -0.555,0.541 -0.992,1.176 -1.309,1.905 -0.318,0.729 -0.477,1.512 -0.477,2.349 v 0.043 c 0,0.838 0.159,1.621 0.477,2.35 0.317,0.728 0.758,1.367 1.32,1.916 0.564,0.549 1.227,0.981 1.992,1.299 C -1.747,9.087 -0.909,9.245 0,9.245 0.895,9.245 1.725,9.09 2.49,8.78 3.255,8.47 3.915,8.044 4.471,7.503 5.026,6.961 5.463,6.326 5.781,5.597 6.098,4.868 6.257,4.085 6.257,3.248 V 3.204 C 6.257,2.367 6.098,1.584 5.781,0.855 5.463,0.126 5.023,-0.513 4.46,-1.061 3.897,-1.609 3.233,-2.042 2.468,-2.36 1.703,-2.677 0.866,-2.837 -0.043,-2.837"
             style="fill:#000000;fill-opacity:1;fill-rule:nonzero;stroke:none"
             id="path17817" /></g><path
           d="m 258.958,142.143 h 3.291 v -15.806 h -3.291 z"
           style="fill:#000000;fill-opacity:1;fill-rule:nonzero;stroke:none"
           id="path17819" /><g
           id="g17821"
           transform="translate(269.3047,128.3935)"><path
             d="M 0,0 C 0.779,0 1.403,0.187 1.873,0.563 2.341,0.938 2.577,1.429 2.577,2.035 V 2.62 C 2.288,2.75 1.966,2.854 1.613,2.934 1.259,3.013 0.88,3.053 0.476,3.053 -0.231,3.053 -0.787,2.915 -1.191,2.642 -1.595,2.367 -1.797,1.971 -1.797,1.45 V 1.407 C -1.797,0.96 -1.631,0.612 -1.3,0.368 -0.968,0.122 -0.534,0 0,0 m -0.996,-2.273 c -0.548,0 -1.065,0.075 -1.548,0.227 -0.484,0.151 -0.906,0.379 -1.267,0.682 -0.36,0.303 -0.646,0.675 -0.855,1.115 C -4.875,0.191 -4.98,0.7 -4.98,1.277 v 0.044 c 0,0.635 0.115,1.183 0.347,1.645 0.23,0.463 0.551,0.845 0.963,1.148 0.411,0.303 0.902,0.531 1.472,0.682 0.571,0.151 1.202,0.227 1.895,0.227 0.592,0 1.107,-0.044 1.548,-0.129 0.44,-0.087 0.869,-0.203 1.288,-0.347 v 0.194 c 0,0.694 -0.209,1.221 -0.628,1.581 -0.419,0.361 -1.04,0.54 -1.862,0.54 -0.636,0 -1.194,-0.052 -1.678,-0.161 C -2.119,6.593 -2.627,6.437 -3.161,6.235 l -0.823,2.512 c 0.635,0.274 1.299,0.498 1.992,0.672 0.692,0.173 1.53,0.26 2.512,0.26 0.908,0 1.685,-0.113 2.327,-0.336 C 3.489,9.119 4.02,8.798 4.438,8.379 4.872,7.946 5.189,7.416 5.391,6.788 5.593,6.16 5.694,5.456 5.694,4.677 V -2.057 H 2.511 v 1.256 c -0.404,-0.448 -0.887,-0.804 -1.45,-1.072 -0.563,-0.267 -1.249,-0.4 -2.057,-0.4"
             style="fill:#000000;fill-opacity:1;fill-rule:nonzero;stroke:none"
             id="path17823" /></g><g
           id="g17825"
           transform="translate(289.6568,126.1201)"><path
             d="m 0,0 c -1.155,0 -2.288,0.198 -3.399,0.596 -1.112,0.396 -2.122,1.007 -3.032,1.829 l 1.971,2.36 c 0.692,-0.563 1.403,-1.011 2.132,-1.343 0.729,-0.332 1.527,-0.498 2.393,-0.498 0.693,0 1.23,0.127 1.613,0.379 0.382,0.253 0.574,0.603 0.574,1.051 v 0.043 c 0,0.217 -0.04,0.408 -0.12,0.574 C 2.053,5.156 1.9,5.312 1.676,5.456 1.452,5.601 1.14,5.745 0.743,5.89 0.345,6.033 -0.173,6.185 -0.81,6.343 c -0.766,0.188 -1.461,0.398 -2.084,0.629 -0.622,0.23 -1.15,0.515 -1.585,0.855 -0.434,0.339 -0.77,0.762 -1.009,1.266 -0.239,0.506 -0.358,1.134 -0.358,1.885 v 0.043 c 0,0.693 0.129,1.317 0.387,1.873 0.258,0.555 0.62,1.035 1.086,1.439 0.467,0.404 1.023,0.715 1.67,0.932 0.647,0.216 1.36,0.324 2.14,0.324 1.111,0 2.132,-0.166 3.064,-0.498 0.93,-0.332 1.786,-0.809 2.565,-1.429 L 3.334,11.15 c -0.679,0.462 -1.342,0.827 -1.992,1.094 -0.649,0.267 -1.299,0.401 -1.948,0.401 -0.65,0 -1.137,-0.126 -1.461,-0.379 -0.326,-0.253 -0.488,-0.567 -0.488,-0.942 V 11.28 c 0,-0.245 0.047,-0.458 0.141,-0.638 0.094,-0.181 0.264,-0.343 0.511,-0.488 0.245,-0.143 0.582,-0.281 1.008,-0.411 C -0.468,9.613 0.072,9.462 0.723,9.288 1.49,9.086 2.174,8.858 2.774,8.606 3.375,8.354 3.882,8.051 4.294,7.697 4.707,7.343 5.018,6.929 5.228,6.452 5.437,5.976 5.542,5.405 5.542,4.742 V 4.698 C 5.542,3.948 5.406,3.28 5.134,2.696 4.861,2.111 4.481,1.62 3.994,1.224 3.506,0.826 2.924,0.523 2.248,0.314 1.572,0.104 0.823,0 0,0"
             style="fill:#000000;fill-opacity:1;fill-rule:nonzero;stroke:none"
             id="path17827" /></g><g
           id="g17829"
           transform="translate(301.3116,126.1201)"><path
             d="M 0,0 C -1.255,0 -2.227,0.383 -2.913,1.147 -3.599,1.913 -3.94,2.966 -3.94,4.309 v 7.512 h 3.291 V 5.364 c 0,-0.778 0.173,-1.365 0.519,-1.76 0.346,-0.396 0.837,-0.595 1.472,-0.595 0.636,0 1.137,0.199 1.505,0.595 0.368,0.395 0.552,0.982 0.552,1.76 v 6.457 H 6.69 V 0.217 H 3.399 V 1.876 C 3.211,1.628 3.005,1.393 2.783,1.167 2.558,0.941 2.309,0.741 2.036,0.567 1.761,0.393 1.458,0.255 1.126,0.152 0.793,0.052 0.418,0 0,0"
             style="fill:#000000;fill-opacity:1;fill-rule:nonzero;stroke:none"
             id="path17831" /></g><g
           id="g17833"
           transform="translate(316.7271,128.913)"><path
             d="m 0,0 c 0.39,0 0.754,0.076 1.094,0.228 0.339,0.151 0.638,0.368 0.898,0.649 0.26,0.281 0.466,0.617 0.617,1.007 0.152,0.389 0.228,0.83 0.228,1.32 v 0.044 c 0,0.477 -0.076,0.913 -0.228,1.31 C 2.458,4.954 2.252,5.294 1.992,5.575 1.732,5.856 1.433,6.073 1.094,6.226 0.754,6.377 0.39,6.452 0,6.452 -0.39,6.452 -0.754,6.377 -1.093,6.226 -1.433,6.073 -1.729,5.856 -1.981,5.575 -2.233,5.294 -2.436,4.954 -2.587,4.558 -2.739,4.161 -2.814,3.725 -2.814,3.248 V 3.204 c 0,-0.475 0.075,-0.912 0.227,-1.309 C -2.436,1.497 -2.233,1.158 -1.981,0.877 -1.729,0.596 -1.433,0.379 -1.093,0.228 -0.754,0.076 -0.39,0 0,0 m -6.062,9.028 h 3.291 V 7.361 c 0.404,0.549 0.891,1 1.461,1.354 0.57,0.353 1.289,0.53 2.155,0.53 0.678,0 1.335,-0.13 1.969,-0.39 C 3.45,8.596 4.013,8.21 4.504,7.697 4.994,7.185 5.388,6.557 5.684,5.813 5.979,5.07 6.127,4.215 6.127,3.248 V 3.204 C 6.127,2.237 5.979,1.382 5.684,0.639 5.388,-0.104 4.998,-0.732 4.515,-1.245 4.031,-1.757 3.472,-2.144 2.837,-2.403 c -0.636,-0.26 -1.299,-0.39 -1.992,-0.39 -0.881,0 -1.606,0.173 -2.177,0.52 -0.57,0.346 -1.05,0.751 -1.439,1.212 V -6.04 h -3.291 z"
             style="fill:#000000;fill-opacity:1;fill-rule:nonzero;stroke:none"
             id="path17835" /></g><g
           id="g17837"
           transform="translate(332.541,133.0488)"><path
             d="M 0,0 C -0.101,0.736 -0.361,1.332 -0.779,1.786 -1.198,2.241 -1.753,2.469 -2.447,2.469 -3.139,2.469 -3.699,2.244 -4.125,1.797 -4.55,1.35 -4.829,0.75 -4.958,0 Z m -2.122,-6.973 c -0.866,0 -1.67,0.145 -2.414,0.434 -0.743,0.289 -1.385,0.7 -1.927,1.234 -0.541,0.534 -0.963,1.166 -1.266,1.895 -0.304,0.728 -0.455,1.541 -0.455,2.435 v 0.043 c 0,0.824 0.141,1.603 0.422,2.339 0.282,0.737 0.675,1.378 1.18,1.927 0.505,0.549 1.108,0.981 1.808,1.299 0.7,0.318 1.476,0.476 2.327,0.476 0.967,0 1.805,-0.172 2.512,-0.519 C 0.772,4.244 1.36,3.778 1.83,3.193 2.298,2.609 2.645,1.937 2.869,1.18 3.092,0.422 3.205,-0.368 3.205,-1.191 3.205,-1.32 3.201,-1.458 3.194,-1.603 3.186,-1.747 3.175,-1.898 3.162,-2.057 h -8.077 c 0.159,-0.751 0.487,-1.317 0.985,-1.7 0.498,-0.382 1.115,-0.573 1.851,-0.573 0.549,0 1.04,0.094 1.473,0.281 0.433,0.188 0.88,0.49 1.342,0.909 L 2.62,-4.807 C 2.071,-5.485 1.408,-6.016 0.628,-6.398 -0.151,-6.78 -1.068,-6.973 -2.122,-6.973"
             style="fill:#000000;fill-opacity:1;fill-rule:nonzero;stroke:none"
             id="path17839" /></g><g
           id="g17841"
           transform="translate(337.8413,137.9414)"><path
             d="m 0,0 h 3.291 v -2.338 c 0.332,0.794 0.787,1.429 1.364,1.905 0.577,0.477 1.357,0.694 2.338,0.65 V -3.226 H 6.82 C 5.723,-3.226 4.86,-3.558 4.233,-4.222 3.605,-4.886 3.291,-5.918 3.291,-7.317 v -4.287 H 0 Z"
             style="fill:#000000;fill-opacity:1;fill-rule:nonzero;stroke:none"
             id="path17843" /></g><path
           d="m 346.435,137.941 h 3.291 v -11.604 h -3.291 z"
           style="fill:#000000;fill-opacity:1;fill-rule:nonzero;stroke:none"
           id="path17845" /><g
           id="g17847"
           transform="translate(358.1216,128.913)"><path
             d="M 0,0 C 0.477,0 0.898,0.083 1.267,0.249 1.635,0.415 1.949,0.643 2.209,0.931 2.469,1.22 2.667,1.556 2.804,1.938 2.941,2.32 3.01,2.729 3.01,3.161 V 3.204 C 3.01,3.638 2.938,4.046 2.793,4.428 2.649,4.811 2.439,5.149 2.166,5.445 1.891,5.741 1.566,5.976 1.191,6.149 0.815,6.322 0.404,6.409 -0.043,6.409 -0.52,6.409 -0.941,6.326 -1.31,6.16 -1.678,5.994 -1.992,5.767 -2.251,5.478 -2.511,5.189 -2.71,4.854 -2.847,4.472 -2.984,4.089 -3.053,3.681 -3.053,3.248 V 3.204 c 0,-0.433 0.073,-0.841 0.217,-1.223 0.144,-0.382 0.354,-0.722 0.628,-1.017 0.274,-0.296 0.595,-0.53 0.963,-0.705 C -0.877,0.087 -0.462,0 0,0 m -0.043,-2.837 c -0.895,0 -1.725,0.156 -2.491,0.467 -0.764,0.309 -1.424,0.735 -1.98,1.277 C -5.07,-0.552 -5.507,0.083 -5.825,0.812 -6.142,1.541 -6.3,2.324 -6.3,3.161 v 0.043 c 0,0.838 0.158,1.621 0.475,2.35 0.318,0.728 0.759,1.367 1.322,1.916 0.563,0.549 1.227,0.981 1.992,1.299 C -1.746,9.087 -0.91,9.245 0,9.245 0.896,9.245 1.725,9.09 2.49,8.78 3.255,8.47 3.915,8.044 4.472,7.503 5.026,6.961 5.464,6.326 5.781,5.597 6.099,4.868 6.257,4.085 6.257,3.248 V 3.204 C 6.257,2.367 6.099,1.584 5.781,0.855 5.464,0.126 5.023,-0.513 4.461,-1.061 3.897,-1.609 3.233,-2.042 2.469,-2.36 1.703,-2.677 0.866,-2.837 -0.043,-2.837"
             style="fill:#000000;fill-opacity:1;fill-rule:nonzero;stroke:none"
             id="path17849" /></g><g
           id="g17851"
           transform="translate(366.4165,137.9414)"><path
             d="m 0,0 h 3.291 v -2.338 c 0.332,0.794 0.786,1.429 1.364,1.905 0.577,0.477 1.357,0.694 2.338,0.65 V -3.226 H 6.82 C 5.723,-3.226 4.86,-3.558 4.232,-4.222 3.604,-4.886 3.291,-5.918 3.291,-7.317 v -4.287 H 0 Z"
             style="fill:#000000;fill-opacity:1;fill-rule:nonzero;stroke:none"
             id="path17853" /></g><g
           id="g17855"
           transform="translate(215.0747,106.3955)"><path
             d="m 0,0 c 0.389,0 0.754,0.075 1.094,0.228 0.339,0.151 0.635,0.367 0.887,0.649 0.252,0.281 0.455,0.62 0.606,1.018 0.152,0.396 0.227,0.833 0.227,1.309 V 3.247 C 2.814,3.724 2.739,4.16 2.587,4.558 2.436,4.954 2.233,5.294 1.981,5.575 1.729,5.856 1.433,6.073 1.094,6.225 0.754,6.376 0.389,6.452 0,6.452 -0.39,6.452 -0.754,6.376 -1.094,6.225 -1.433,6.073 -1.732,5.856 -1.992,5.575 -2.252,5.294 -2.458,4.958 -2.609,4.567 -2.761,4.179 -2.836,3.738 -2.836,3.247 V 3.204 c 0,-0.476 0.075,-0.913 0.227,-1.309 0.151,-0.398 0.357,-0.737 0.617,-1.018 0.26,-0.282 0.559,-0.498 0.898,-0.649 C -0.754,0.075 -0.39,0 0,0 m -0.845,-2.793 c -0.678,0 -1.335,0.13 -1.969,0.39 -0.636,0.259 -1.199,0.645 -1.69,1.158 -0.49,0.512 -0.884,1.141 -1.18,1.884 -0.295,0.743 -0.443,1.598 -0.443,2.565 v 0.043 c 0,0.968 0.148,1.822 0.443,2.566 0.296,0.744 0.686,1.372 1.169,1.884 0.484,0.512 1.043,0.899 1.679,1.158 0.635,0.26 1.299,0.39 1.991,0.39 0.881,0 1.606,-0.173 2.177,-0.519 0.569,-0.347 1.05,-0.751 1.439,-1.213 v 5.716 H 6.062 V -2.577 H 2.771 v 1.668 C 2.367,-1.458 1.88,-1.909 1.31,-2.263 0.739,-2.616 0.021,-2.793 -0.845,-2.793"
             style="fill:#000000;fill-opacity:1;fill-rule:nonzero;stroke:none"
             id="path17857" /></g><g
           id="g17859"
           transform="translate(231.3999,110.5312)"><path
             d="M 0,0 C -0.102,0.736 -0.361,1.331 -0.78,1.786 -1.198,2.24 -1.754,2.468 -2.447,2.468 -3.14,2.468 -3.699,2.244 -4.125,1.797 -4.551,1.35 -4.828,0.75 -4.958,0 Z m -2.122,-6.973 c -0.866,0 -1.671,0.145 -2.414,0.434 -0.744,0.288 -1.386,0.7 -1.927,1.234 -0.541,0.534 -0.964,1.165 -1.267,1.895 -0.303,0.728 -0.455,1.54 -0.455,2.435 v 0.043 c 0,0.823 0.141,1.603 0.423,2.339 0.282,0.737 0.674,1.378 1.18,1.927 0.505,0.549 1.107,0.981 1.808,1.299 0.7,0.317 1.475,0.476 2.327,0.476 0.967,0 1.804,-0.172 2.511,-0.519 C 0.771,4.243 1.36,3.777 1.829,3.193 2.298,2.608 2.645,1.937 2.868,1.18 3.092,0.422 3.204,-0.368 3.204,-1.191 3.204,-1.321 3.2,-1.459 3.193,-1.603 3.186,-1.747 3.175,-1.898 3.161,-2.057 h -8.076 c 0.159,-0.752 0.487,-1.318 0.985,-1.7 0.498,-0.383 1.116,-0.574 1.851,-0.574 0.549,0 1.039,0.094 1.473,0.282 0.432,0.188 0.879,0.49 1.342,0.909 L 2.619,-4.807 C 2.071,-5.485 1.407,-6.016 0.628,-6.398 c -0.78,-0.383 -1.696,-0.575 -2.75,-0.575"
             style="fill:#000000;fill-opacity:1;fill-rule:nonzero;stroke:none"
             id="path17861" /></g><g
           id="g17863"
           transform="translate(248.8721,103.6025)"><path
             d="m 0,0 c -1.155,0 -2.288,0.198 -3.399,0.595 -1.112,0.397 -2.122,1.008 -3.031,1.83 l 1.97,2.36 c 0.693,-0.563 1.403,-1.011 2.132,-1.343 0.729,-0.332 1.527,-0.498 2.393,-0.498 0.693,0 1.23,0.127 1.613,0.379 0.382,0.252 0.574,0.603 0.574,1.051 v 0.043 c 0,0.217 -0.04,0.407 -0.12,0.573 C 2.052,5.156 1.901,5.312 1.676,5.456 1.452,5.601 1.141,5.745 0.743,5.89 0.345,6.033 -0.172,6.185 -0.809,6.344 c -0.768,0.187 -1.462,0.397 -2.085,0.628 -0.622,0.23 -1.15,0.515 -1.584,0.855 -0.435,0.339 -0.771,0.761 -1.01,1.267 -0.239,0.505 -0.358,1.133 -0.358,1.884 v 0.043 c 0,0.693 0.129,1.317 0.387,1.873 0.258,0.555 0.62,1.035 1.086,1.439 0.466,0.404 1.023,0.715 1.67,0.932 0.647,0.215 1.361,0.324 2.14,0.324 1.111,0 2.133,-0.166 3.064,-0.498 0.931,-0.332 1.786,-0.809 2.565,-1.429 L 3.334,11.15 c -0.678,0.462 -1.342,0.827 -1.992,1.094 -0.649,0.267 -1.299,0.401 -1.948,0.401 -0.65,0 -1.137,-0.127 -1.462,-0.379 -0.325,-0.253 -0.487,-0.567 -0.487,-0.943 V 11.28 c 0,-0.246 0.047,-0.458 0.141,-0.638 0.094,-0.181 0.264,-0.343 0.51,-0.489 0.246,-0.143 0.583,-0.28 1.01,-0.41 C -0.467,9.613 0.072,9.462 0.723,9.288 1.49,9.086 2.174,8.858 2.775,8.606 3.375,8.354 3.881,8.051 4.294,7.697 4.707,7.343 5.018,6.929 5.228,6.452 5.437,5.976 5.542,5.405 5.542,4.741 V 4.698 C 5.542,3.947 5.406,3.28 5.134,2.694 4.861,2.11 4.481,1.62 3.994,1.224 3.506,0.826 2.924,0.522 2.249,0.313 1.572,0.104 0.823,0 0,0"
             style="fill:#000000;fill-opacity:1;fill-rule:nonzero;stroke:none"
             id="path17865" /></g><g
           id="g17867"
           transform="translate(260.9341,105.8759)"><path
             d="M 0,0 C 0.779,0 1.403,0.187 1.873,0.562 2.342,0.938 2.576,1.429 2.576,2.035 V 2.62 C 2.287,2.749 1.967,2.854 1.613,2.934 1.259,3.013 0.88,3.053 0.477,3.053 -0.231,3.053 -0.787,2.915 -1.191,2.642 -1.595,2.367 -1.797,1.97 -1.797,1.45 V 1.407 c 0,-0.447 0.166,-0.794 0.498,-1.039 C -0.967,0.122 -0.534,0 0,0 m -0.996,-2.273 c -0.549,0 -1.065,0.075 -1.548,0.227 -0.484,0.151 -0.906,0.379 -1.267,0.682 -0.361,0.302 -0.646,0.675 -0.855,1.115 C -4.875,0.19 -4.979,0.7 -4.979,1.277 V 1.32 c 0,0.636 0.115,1.183 0.346,1.646 0.231,0.462 0.552,0.845 0.963,1.148 0.411,0.303 0.902,0.531 1.473,0.682 0.569,0.151 1.201,0.227 1.894,0.227 0.591,0 1.108,-0.044 1.548,-0.129 C 1.685,4.807 2.114,4.69 2.533,4.546 v 0.195 c 0,0.694 -0.209,1.22 -0.628,1.581 C 1.486,6.683 0.866,6.863 0.043,6.863 -0.592,6.863 -1.151,6.81 -1.635,6.701 -2.118,6.593 -2.627,6.437 -3.161,6.235 l -0.823,2.512 c 0.635,0.274 1.299,0.498 1.992,0.671 0.693,0.174 1.53,0.261 2.512,0.261 0.909,0 1.685,-0.113 2.327,-0.336 C 3.489,9.118 4.02,8.798 4.438,8.379 4.871,7.946 5.188,7.415 5.391,6.788 5.593,6.159 5.694,5.456 5.694,4.677 V -2.058 H 2.512 v 1.256 C 2.107,-1.249 1.624,-1.606 1.061,-1.873 c -0.563,-0.267 -1.249,-0.4 -2.057,-0.4"
             style="fill:#000000;fill-opacity:1;fill-rule:nonzero;stroke:none"
             id="path17869" /></g><g
           id="g17871"
           transform="translate(275.2886,120.5341)"><path
             d="M 0,0 2.837,-1.234 0.065,-3.833 h -2.511 z m -2.251,-16.932 c -1.256,0 -2.227,0.382 -2.913,1.148 -0.685,0.764 -1.028,1.818 -1.028,3.161 v 7.513 h 3.291 v -6.457 c 0,-0.779 0.173,-1.366 0.52,-1.762 0.346,-0.396 0.837,-0.594 1.471,-0.594 0.636,0 1.138,0.198 1.506,0.594 0.368,0.396 0.551,0.983 0.551,1.762 V -5.11 H 4.439 V -16.716 H 1.147 v 1.659 C 0.96,-15.304 0.754,-15.54 0.531,-15.765 0.307,-15.99 0.058,-16.19 -0.216,-16.364 c -0.274,-0.175 -0.578,-0.314 -0.909,-0.415 -0.333,-0.102 -0.708,-0.153 -1.126,-0.153"
             style="fill:#000000;fill-opacity:1;fill-rule:nonzero;stroke:none"
             id="path17873" /></g><g
           id="g17875"
           transform="translate(287.9785,106.3955)"><path
             d="m 0,0 c 0.39,0 0.754,0.075 1.093,0.228 0.339,0.151 0.636,0.367 0.888,0.649 0.252,0.281 0.455,0.62 0.606,1.018 0.152,0.396 0.228,0.833 0.228,1.309 V 3.247 C 2.815,3.724 2.739,4.16 2.587,4.558 2.436,4.954 2.233,5.294 1.981,5.575 1.729,5.856 1.432,6.073 1.093,6.225 0.754,6.376 0.39,6.452 0,6.452 -0.39,6.452 -0.754,6.376 -1.093,6.225 -1.433,6.073 -1.732,5.856 -1.992,5.575 -2.252,5.294 -2.458,4.958 -2.609,4.567 -2.761,4.179 -2.836,3.738 -2.836,3.247 V 3.204 c 0,-0.476 0.075,-0.913 0.227,-1.309 0.151,-0.398 0.357,-0.737 0.617,-1.018 0.26,-0.282 0.559,-0.498 0.899,-0.649 C -0.754,0.075 -0.39,0 0,0 m -0.844,-2.793 c -0.679,0 -1.336,0.13 -1.971,0.39 -0.635,0.259 -1.198,0.645 -1.688,1.158 -0.492,0.512 -0.885,1.141 -1.181,1.884 -0.295,0.743 -0.443,1.598 -0.443,2.565 v 0.043 c 0,0.968 0.148,1.822 0.443,2.566 0.296,0.744 0.686,1.372 1.17,1.884 0.483,0.512 1.042,0.899 1.678,1.158 0.634,0.26 1.298,0.39 1.992,0.39 0.88,0 1.605,-0.173 2.176,-0.519 C 1.901,8.379 2.381,7.975 2.771,7.513 v 5.716 H 6.062 V -2.577 H 2.771 v 1.668 C 2.367,-1.458 1.88,-1.909 1.31,-2.263 0.74,-2.616 0.022,-2.793 -0.844,-2.793"
             style="fill:#000000;fill-opacity:1;fill-rule:nonzero;stroke:none"
             id="path17877" /></g><g
           id="g17879"
           transform="translate(304.3033,110.5312)"><path
             d="M 0,0 C -0.101,0.736 -0.36,1.331 -0.779,1.786 -1.198,2.24 -1.754,2.468 -2.446,2.468 -3.139,2.468 -3.699,2.244 -4.125,1.797 -4.55,1.35 -4.828,0.75 -4.958,0 Z m -2.122,-6.973 c -0.866,0 -1.67,0.145 -2.414,0.434 -0.743,0.288 -1.386,0.7 -1.927,1.234 -0.541,0.534 -0.963,1.165 -1.266,1.895 -0.303,0.728 -0.455,1.54 -0.455,2.435 v 0.043 c 0,0.823 0.141,1.603 0.422,2.339 0.282,0.737 0.675,1.378 1.18,1.927 0.505,0.549 1.107,0.981 1.808,1.299 0.7,0.317 1.476,0.476 2.328,0.476 0.967,0 1.803,-0.172 2.511,-0.519 C 0.772,4.243 1.36,3.777 1.83,3.193 2.299,2.608 2.646,1.937 2.869,1.18 3.093,0.422 3.205,-0.368 3.205,-1.191 3.205,-1.321 3.201,-1.459 3.194,-1.603 3.187,-1.747 3.176,-1.898 3.161,-2.057 h -8.076 c 0.159,-0.752 0.488,-1.318 0.985,-1.7 0.498,-0.383 1.116,-0.574 1.852,-0.574 0.548,0 1.039,0.094 1.473,0.282 0.432,0.188 0.879,0.49 1.341,0.909 L 2.62,-4.807 C 2.071,-5.485 1.407,-6.016 0.628,-6.398 -0.151,-6.781 -1.068,-6.973 -2.122,-6.973"
             style="fill:#000000;fill-opacity:1;fill-rule:nonzero;stroke:none"
             id="path17881" /></g><g
           id="g17883"
           transform="translate(348.0801,139.0996)"><path
             d="m 0,0 c -1.027,0 -1.886,0.861 -1.886,1.89 0,1.028 0.859,1.889 1.886,1.889 1.027,0 1.887,-0.861 1.887,-1.889 C 1.887,0.861 1.027,0 0,0"
             style="fill:#000000;fill-opacity:1;fill-rule:nonzero;stroke:none"
             id="path17885" /></g><g
           id="g17889"
           transform="translate(278.2329,447.4004)" /><g
           id="g17893"
           transform="translate(278.7525,434.4004)" /><g
           id="g17897"
           transform="translate(235.92,428.3681)" /><g
           id="g17901"
           transform="translate(214.0899,461.8691)" /><g
           id="g17905"
           transform="translate(278.4576,456.1347)" /><g
           id="g17909"
           transform="translate(330.9761,464.8984)" /><g
           id="g17913"
           transform="translate(351.7534,447.1484)" /><g
           id="g17917"
           transform="translate(365.4136,447.0986)" /><g
           id="g17921"
           transform="translate(379.0308,450.374)" /><g
           id="g17927"
           transform="translate(400.6675,449.7734)" /><g
           id="g17931"
           transform="translate(424.1675,447.1484)" /><g
           id="g17935"
           transform="translate(437.625,447.1484)" /><g
           id="g17939"
           transform="translate(455.4243,450.374)" /><g
           id="g17943"
           transform="translate(473.6841,455.1484)" /><g
           id="g17947"
           transform="translate(479.8042,460.7988)" /><g
           id="g17953"
           transform="translate(503.2212,450.374)" /><g
           id="g17957"
           transform="translate(512.7984,460.7988)" /><g
           id="g17961"
           transform="translate(338.0508,424.373)" /><g
           id="g17965"
           transform="translate(356.9009,429.1484)" /><g
           id="g17969"
           transform="translate(377.0752,421.1484)" /><g
           id="g17973"
           transform="translate(391.0025,423.7734)" /><g
           id="g17977"
           transform="translate(407.5777,440.6992)" /><g
           id="g17981"
           transform="translate(422.23,424.373)" /><g
           id="g17985"
           transform="translate(441.0796,429.1484)" /><g
           id="g17989"
           transform="translate(491.6265,462.1357)"><g
             id="g18335"><g
               id="g21409"><g
                 id="g21652"><path
                   d="m 210.196,447.4 h 7.788 v -26 h -7.788 z"
                   style="fill:#000000;fill-opacity:1;fill-rule:nonzero;stroke:none"
                   id="path17887"
                   transform="translate(-491.6265,-462.1357)" /><path
                   d="m 0,0 -9.607,-26 h -8.829 l -9.606,26 h 8.62 l 5.401,-16.484 5.4,16.484 z"
                   style="fill:#000000;fill-opacity:1;fill-rule:nonzero;stroke:none"
                   id="path17891"
                   transform="translate(-213.3936,-14.735301)" /><path
                   d="m 0,0 c 0,7.748 5.868,13.729 13.762,13.729 5.036,0 9.503,-2.653 11.735,-6.658 L 18.695,3.12 C 17.812,4.94 15.942,6.031 13.657,6.031 10.283,6.031 7.79,3.588 7.79,0 c 0,-3.588 2.493,-6.032 5.867,-6.032 2.285,0 4.207,1.092 5.038,2.912 l 6.802,-3.901 C 23.265,-11.076 18.85,-13.729 13.762,-13.729 5.868,-13.729 0,-7.748 0,0"
                   style="fill:#000000;fill-opacity:1;fill-rule:nonzero;stroke:none"
                   id="path17895"
                   transform="translate(-212.874,-27.735299)" /><path
                   d="m 0,0 c -2.963,0 -5.542,1.937 -5.542,5.784 0,4.265 2.468,6.279 5.568,6.279 3.376,0 5.855,-2.443 5.855,-6.031 C 5.881,2.444 3.375,0 0,0 m -0.104,19.761 c -6.687,0 -12.649,-6 -12.649,-12.75 l 0.019,-30.164 h 7.965 v 17.119 c 1,-0.927 3.052,-1.662 4.784,-1.662 7.894,0 13.703,5.98 13.703,13.728 0,7.748 -5.928,13.729 -13.822,13.729"
                   style="fill:#000000;fill-opacity:1;fill-rule:nonzero;stroke:none"
                   id="path17899"
                   transform="translate(-255.7065,-33.767602)" /><path
                   d="m 0,0 c -2.736,0 -5.024,2.292 -5.024,5.031 0,2.74 2.288,5.032 5.024,5.032 2.736,0 5.024,-2.292 5.024,-5.032 C 5.024,2.292 2.736,0 0,0"
                   style="fill:#dca7ac;fill-opacity:1;fill-rule:nonzero;stroke:none"
                   id="path17903"
                   transform="translate(-277.5366,-0.26660095)" /><path
                   d="M 0,0 -12.315,12.305 -24.618,-0.079 -39.135,7.08 h -12.171 v 7 h 13.819 L -26.004,8.435 -12.318,22.16 1.378,8.497 13.447,14.549 26.736,10.006 24.426,3.4 13.932,6.973 Z"
                   style="fill:#dca7ac;fill-opacity:1;fill-rule:nonzero;stroke:none"
                   id="path17907"
                   transform="translate(-213.1689,-6.0010036)" /><path
                   d="M 0,0 H 13.175 V -3.425 H 3.8 v -3.55 h 8.25 v -3.424 H 3.8 v -3.675 h 9.5 V -17.5 H 0 Z"
                   style="fill:#000000;fill-opacity:1;fill-rule:nonzero;stroke:none"
                   id="path17911"
                   transform="translate(-160.6504,2.7627016)" /><path
                   d="M 0,0 C -0.95,0 -1.921,0.163 -2.913,0.488 -3.904,0.812 -4.85,1.325 -5.75,2.025 l 1.625,2.5 C -3.392,3.992 -2.663,3.592 -1.937,3.325 -1.212,3.059 -0.534,2.926 0.1,2.926 0.65,2.926 1.054,3.017 1.312,3.2 1.571,3.384 1.7,3.625 1.7,3.926 v 0.05 C 1.7,4.176 1.625,4.351 1.475,4.5 1.325,4.65 1.121,4.779 0.862,4.888 0.604,4.996 0.308,5.101 -0.025,5.2 -0.358,5.301 -0.708,5.408 -1.075,5.525 -1.542,5.658 -2.013,5.821 -2.487,6.013 -2.962,6.204 -3.392,6.454 -3.775,6.763 -4.159,7.071 -4.471,7.45 -4.712,7.9 c -0.242,0.451 -0.363,1 -0.363,1.651 v 0.05 c 0,0.682 0.129,1.287 0.388,1.812 0.258,0.525 0.608,0.971 1.049,1.337 0.442,0.367 0.959,0.642 1.551,0.825 0.591,0.184 1.229,0.276 1.912,0.276 0.85,0 1.713,-0.138 2.588,-0.413 0.875,-0.275 1.678,-0.655 2.412,-1.137 L 3.375,9.676 c -0.667,0.383 -1.317,0.687 -1.95,0.912 -0.633,0.225 -1.192,0.338 -1.675,0.338 -0.467,0 -0.817,-0.088 -1.05,-0.263 C -1.534,10.488 -1.65,10.267 -1.65,10 V 9.95 c 0,-0.183 0.075,-0.346 0.225,-0.487 0.15,-0.142 0.35,-0.275 0.6,-0.4 C -0.575,8.938 -0.288,8.816 0.038,8.7 0.362,8.584 0.708,8.467 1.075,8.351 1.542,8.2 2.017,8.021 2.5,7.812 2.983,7.604 3.416,7.351 3.8,7.051 4.183,6.75 4.5,6.384 4.75,5.95 5,5.517 5.125,4.992 5.125,4.375 V 4.325 C 5.125,3.575 4.996,2.93 4.737,2.388 4.479,1.846 4.116,1.4 3.65,1.051 3.183,0.7 2.638,0.437 2.013,0.263 1.388,0.088 0.716,0 0,0"
                   style="fill:#000000;fill-opacity:1;fill-rule:nonzero;stroke:none"
                   id="path17915"
                   transform="translate(-139.8731,-14.987301)" /><path
                   d="M 0,0 C -1,0 -1.93,0.184 -2.788,0.55 -3.646,0.917 -4.384,1.413 -5,2.038 -5.618,2.663 -6.1,3.396 -6.451,4.237 -6.8,5.079 -6.975,5.976 -6.975,6.925 v 0.051 c 0,0.949 0.175,1.849 0.524,2.699 0.351,0.85 0.833,1.592 1.451,2.225 0.616,0.633 1.354,1.133 2.212,1.5 0.858,0.367 1.804,0.55 2.837,0.55 1.267,0 2.317,-0.2 3.151,-0.599 C 4.033,12.95 4.766,12.4 5.4,11.7 L 3.075,9.2 c -0.434,0.45 -0.88,0.809 -1.338,1.075 -0.459,0.267 -1.029,0.4 -1.712,0.4 -0.484,0 -0.921,-0.096 -1.313,-0.287 C -1.68,10.196 -2.021,9.934 -2.313,9.601 -2.604,9.267 -2.83,8.879 -2.988,8.438 -3.146,7.996 -3.225,7.525 -3.225,7.025 V 6.976 c 0,-0.518 0.079,-1 0.237,-1.451 C -2.83,5.075 -2.6,4.684 -2.3,4.351 -2,4.017 -1.642,3.754 -1.225,3.563 -0.809,3.371 -0.342,3.275 0.174,3.275 0.808,3.275 1.362,3.404 1.837,3.663 2.313,3.921 2.783,4.267 3.25,4.7 L 5.475,2.45 C 4.825,1.733 4.083,1.146 3.25,0.687 2.416,0.229 1.333,0 0,0"
                   style="fill:#000000;fill-opacity:1;fill-rule:nonzero;stroke:none"
                   id="path17919"
                   transform="translate(-126.2129,-15.037101)" /><path
                   d="M 0,0 C 0.55,0 1.038,0.096 1.463,0.287 1.888,0.479 2.25,0.741 2.55,1.075 2.85,1.408 3.079,1.796 3.238,2.237 3.396,2.679 3.475,3.149 3.475,3.649 V 3.7 c 0,0.5 -0.084,0.971 -0.25,1.412 C 3.059,5.554 2.816,5.945 2.5,6.287 2.184,6.629 1.809,6.899 1.375,7.1 0.941,7.3 0.467,7.399 -0.05,7.399 -0.6,7.399 -1.087,7.304 -1.512,7.112 -1.937,6.921 -2.3,6.658 -2.6,6.325 -2.9,5.991 -3.129,5.604 -3.287,5.162 -3.446,4.721 -3.525,4.25 -3.525,3.75 V 3.7 c 0,-0.5 0.084,-0.971 0.25,-1.413 C -3.109,1.846 -2.867,1.454 -2.55,1.112 -2.234,0.771 -1.862,0.5 -1.437,0.3 -1.012,0.1 -0.533,0 0,0 m -0.05,-3.275 c -1.033,0 -1.992,0.179 -2.875,0.538 -0.884,0.357 -1.646,0.849 -2.287,1.474 -0.642,0.625 -1.147,1.359 -1.513,2.2 -0.367,0.841 -0.55,1.746 -0.55,2.712 V 3.7 c 0,0.966 0.183,1.87 0.55,2.712 0.366,0.842 0.875,1.579 1.525,2.213 0.65,0.633 1.417,1.133 2.3,1.5 0.883,0.366 1.85,0.55 2.9,0.55 1.033,0 1.991,-0.18 2.875,-0.537 C 3.758,9.778 4.521,9.287 5.163,8.662 5.804,8.037 6.308,7.304 6.675,6.462 7.042,5.62 7.225,4.716 7.225,3.75 V 3.7 C 7.225,2.733 7.042,1.829 6.675,0.987 6.308,0.146 5.8,-0.592 5.15,-1.226 4.5,-1.858 3.733,-2.358 2.85,-2.726 1.967,-3.092 1,-3.275 -0.05,-3.275"
                   style="fill:#000000;fill-opacity:1;fill-rule:nonzero;stroke:none"
                   id="path17923"
                   transform="translate(-112.5957,-11.761701)" /><path
                   d="m 388.72,465.648 h 3.8 v -18.25 h -3.8 z"
                   style="fill:#000000;fill-opacity:1;fill-rule:nonzero;stroke:none"
                   id="path17925"
                   transform="translate(-491.6265,-462.1357)" /><path
                   d="m 0,0 c 0.9,0 1.621,0.217 2.163,0.65 0.541,0.434 0.813,1 0.813,1.701 V 3.025 C 2.642,3.176 2.271,3.296 1.863,3.388 1.454,3.479 1.017,3.525 0.55,3.525 c -0.817,0 -1.458,-0.158 -1.925,-0.474 -0.466,-0.318 -0.7,-0.776 -0.7,-1.375 V 1.625 C -2.075,1.108 -1.883,0.709 -1.5,0.426 -1.117,0.142 -0.617,0 0,0 m -1.15,-2.625 c -0.633,0 -1.229,0.088 -1.787,0.263 -0.559,0.174 -1.046,0.437 -1.462,0.788 -0.417,0.349 -0.747,0.778 -0.988,1.287 -0.242,0.508 -0.363,1.096 -0.363,1.763 v 0.049 c 0,0.734 0.134,1.367 0.4,1.901 0.267,0.533 0.638,0.974 1.113,1.324 0.475,0.351 1.041,0.613 1.699,0.788 0.659,0.175 1.388,0.263 2.188,0.263 C 0.333,5.801 0.929,5.75 1.437,5.65 1.946,5.551 2.441,5.417 2.925,5.25 V 5.476 C 2.925,6.275 2.684,6.884 2.2,7.301 1.717,7.717 1,7.926 0.05,7.926 -0.684,7.926 -1.33,7.863 -1.887,7.738 -2.446,7.613 -3.033,7.434 -3.649,7.2 L -4.6,10.101 c 0.734,0.316 1.5,0.575 2.3,0.774 0.8,0.2 1.767,0.301 2.9,0.301 1.05,0 1.945,-0.13 2.688,-0.388 0.741,-0.259 1.354,-0.63 1.837,-1.112 0.5,-0.5 0.867,-1.113 1.101,-1.838 C 6.458,7.113 6.575,6.301 6.575,5.4 V -2.375 H 2.9 v 1.45 C 2.434,-1.441 1.875,-1.854 1.225,-2.162 0.575,-2.471 -0.217,-2.625 -1.15,-2.625"
                   style="fill:#000000;fill-opacity:1;fill-rule:nonzero;stroke:none"
                   id="path17929"
                   transform="translate(-90.959,-12.362301)" /><path
                   d="m 0,0 c -1.333,0 -2.642,0.229 -3.925,0.687 -1.284,0.459 -2.45,1.164 -3.5,2.114 L -5.15,5.525 C -4.351,4.875 -3.529,4.358 -2.688,3.976 -1.846,3.592 -0.925,3.4 0.075,3.4 0.875,3.4 1.496,3.546 1.937,3.838 2.378,4.129 2.6,4.533 2.6,5.051 v 0.05 C 2.6,5.351 2.554,5.571 2.461,5.763 2.37,5.954 2.194,6.134 1.936,6.301 1.677,6.467 1.317,6.634 0.857,6.801 0.398,6.967 -0.199,7.142 -0.935,7.325 -1.82,7.542 -2.623,7.783 -3.341,8.051 -4.06,8.316 -4.67,8.646 -5.171,9.038 -5.672,9.43 -6.061,9.917 -6.336,10.5 -6.612,11.084 -6.75,11.809 -6.75,12.676 v 0.05 c 0,0.799 0.148,1.52 0.447,2.162 0.298,0.641 0.716,1.196 1.254,1.663 0.538,0.467 1.181,0.824 1.927,1.074 C -2.374,17.875 -1.55,18 -0.65,18 0.633,18 1.812,17.809 2.888,17.426 3.962,17.042 4.95,16.492 5.85,15.775 l -2,-2.9 c -0.784,0.533 -1.55,0.954 -2.3,1.263 -0.75,0.308 -1.5,0.463 -2.25,0.463 -0.75,0 -1.313,-0.147 -1.688,-0.438 -0.375,-0.292 -0.562,-0.654 -0.562,-1.088 v -0.05 c 0,-0.283 0.054,-0.529 0.162,-0.737 0.109,-0.209 0.306,-0.396 0.59,-0.562 C -1.914,11.559 -1.525,11.4 -1.032,11.25 -0.54,11.101 0.083,10.926 0.835,10.726 1.721,10.492 2.51,10.229 3.204,9.938 3.897,9.646 4.481,9.296 4.958,8.888 5.435,8.479 5.794,8 6.036,7.45 6.278,6.9 6.399,6.242 6.399,5.476 V 5.426 C 6.399,4.559 6.242,3.788 5.928,3.113 5.613,2.438 5.175,1.871 4.612,1.413 4.048,0.954 3.376,0.604 2.596,0.363 1.815,0.121 0.95,0 0,0"
                   style="fill:#000000;fill-opacity:1;fill-rule:nonzero;stroke:none"
                   id="path17933"
                   transform="translate(-67.459002,-14.987301)" /><path
                   d="M 0,0 C -1.45,0 -2.571,0.441 -3.363,1.325 -4.154,2.209 -4.55,3.426 -4.55,4.976 v 8.674 h 3.8 V 6.193 c 0,-0.897 0.2,-1.575 0.6,-2.032 0.4,-0.457 0.966,-0.685 1.7,-0.685 0.733,0 1.312,0.228 1.738,0.685 0.424,0.457 0.637,1.135 0.637,2.032 v 7.457 h 3.8 V 0.25 h -3.8 V 2.166 C 3.708,1.881 3.471,1.607 3.212,1.348 2.954,1.088 2.667,0.856 2.35,0.655 2.033,0.453 1.683,0.294 1.3,0.177 0.917,0.06 0.483,0 0,0"
                   style="fill:#000000;fill-opacity:1;fill-rule:nonzero;stroke:none"
                   id="path17937"
                   transform="translate(-54.001497,-14.987301)" /><path
                   d="M 0,0 C 0.45,0 0.871,0.087 1.263,0.263 1.654,0.437 2,0.687 2.3,1.013 2.6,1.337 2.838,1.725 3.013,2.175 3.188,2.625 3.275,3.133 3.275,3.7 V 3.75 C 3.275,4.3 3.188,4.804 3.013,5.263 2.838,5.721 2.6,6.112 2.3,6.437 2,6.763 1.654,7.013 1.263,7.187 0.871,7.362 0.45,7.45 0,7.45 -0.45,7.45 -0.871,7.362 -1.262,7.187 -1.654,7.013 -1.996,6.763 -2.287,6.437 -2.579,6.112 -2.813,5.721 -2.987,5.263 -3.162,4.804 -3.25,4.3 -3.25,3.75 V 3.7 c 0,-0.551 0.088,-1.054 0.263,-1.512 0.174,-0.459 0.408,-0.851 0.7,-1.175 0.291,-0.326 0.633,-0.576 1.025,-0.75 C -0.871,0.087 -0.45,0 0,0 m -7,10.425 h 3.8 V 8.5 c 0.467,0.633 1.029,1.153 1.688,1.563 0.658,0.408 1.488,0.612 2.488,0.612 0.783,0 1.541,-0.151 2.274,-0.45 C 3.983,9.925 4.634,9.479 5.2,8.888 5.767,8.296 6.221,7.57 6.562,6.712 6.904,5.854 7.075,4.866 7.075,3.75 V 3.7 C 7.075,2.583 6.904,1.596 6.562,0.737 6.221,-0.121 5.771,-0.847 5.213,-1.437 4.654,-2.029 4.009,-2.476 3.275,-2.775 c -0.733,-0.3 -1.5,-0.451 -2.299,-0.451 -1.018,0 -1.855,0.201 -2.513,0.601 -0.659,0.399 -1.213,0.866 -1.663,1.399 v -5.75 H -7 Z"
                   style="fill:#000000;fill-opacity:1;fill-rule:nonzero;stroke:none"
                   id="path17941"
                   transform="translate(-36.202204,-11.761701)" /><path
                   d="m 0,0 c -0.117,0.851 -0.417,1.538 -0.9,2.063 -0.483,0.525 -1.125,0.788 -1.925,0.788 -0.8,0 -1.446,-0.259 -1.938,-0.776 C -5.254,1.559 -5.575,0.867 -5.725,0 Z m -2.45,-8.05 c -1,0 -1.929,0.167 -2.787,0.5 -0.859,0.333 -1.6,0.809 -2.225,1.425 -0.625,0.617 -1.113,1.346 -1.463,2.187 -0.35,0.842 -0.525,1.78 -0.525,2.813 v 0.051 c 0,0.949 0.162,1.849 0.488,2.699 0.324,0.851 0.778,1.592 1.362,2.226 0.583,0.632 1.279,1.132 2.087,1.5 0.809,0.366 1.704,0.549 2.688,0.549 1.117,0 2.083,-0.2 2.9,-0.599 C 0.892,4.9 1.571,4.363 2.113,3.688 2.654,3.013 3.054,2.238 3.313,1.363 3.571,0.488 3.7,-0.425 3.7,-1.375 3.7,-1.524 3.696,-1.684 3.688,-1.85 3.679,-2.017 3.667,-2.191 3.65,-2.375 h -9.325 c 0.183,-0.866 0.563,-1.521 1.138,-1.962 C -3.962,-4.779 -3.25,-5 -2.4,-5 c 0.633,0 1.2,0.108 1.7,0.325 0.5,0.217 1.016,0.567 1.55,1.05 L 3.025,-5.55 c -0.633,-0.783 -1.4,-1.395 -2.3,-1.837 -0.9,-0.441 -1.958,-0.663 -3.175,-0.663"
                   style="fill:#000000;fill-opacity:1;fill-rule:nonzero;stroke:none"
                   id="path17945"
                   transform="translate(-17.942403,-6.9872986)" /><path
                   d="m 0,0 h 3.8 v -2.7 c 0.383,0.917 0.908,1.65 1.575,2.2 0.666,0.55 1.566,0.8 2.7,0.75 v -3.975 h -0.2 c -1.267,0 -2.263,-0.383 -2.987,-1.15 C 4.162,-5.642 3.8,-6.834 3.8,-8.45 V -13.4 H 0 Z"
                   style="fill:#000000;fill-opacity:1;fill-rule:nonzero;stroke:none"
                   id="path17949"
                   transform="translate(-11.822298,-1.3369035)" /><path
                   d="m 489.727,460.799 h 3.8 v -13.4 h -3.8 z"
                   style="fill:#000000;fill-opacity:1;fill-rule:nonzero;stroke:none"
                   id="path17951"
                   transform="translate(-491.6265,-462.1357)" /><path
                   d="M 0,0 C 0.55,0 1.038,0.096 1.463,0.287 1.888,0.479 2.25,0.741 2.55,1.075 2.85,1.408 3.079,1.796 3.237,2.237 3.396,2.679 3.475,3.149 3.475,3.649 V 3.7 c 0,0.5 -0.083,0.971 -0.25,1.412 C 3.059,5.554 2.816,5.945 2.5,6.287 2.184,6.629 1.809,6.899 1.375,7.1 0.941,7.3 0.467,7.399 -0.05,7.399 -0.6,7.399 -1.087,7.304 -1.513,7.112 -1.937,6.921 -2.3,6.658 -2.6,6.325 -2.9,5.991 -3.129,5.604 -3.287,5.162 -3.446,4.721 -3.525,4.25 -3.525,3.75 V 3.7 c 0,-0.5 0.084,-0.971 0.25,-1.413 C -3.108,1.846 -2.867,1.454 -2.55,1.112 -2.233,0.771 -1.862,0.5 -1.437,0.3 -1.013,0.1 -0.533,0 0,0 m -0.05,-3.275 c -1.033,0 -1.992,0.179 -2.875,0.538 -0.884,0.357 -1.646,0.849 -2.287,1.474 -0.642,0.625 -1.146,1.359 -1.513,2.2 -0.367,0.841 -0.55,1.746 -0.55,2.712 V 3.7 c 0,0.966 0.183,1.87 0.55,2.712 0.367,0.842 0.875,1.579 1.525,2.213 0.65,0.633 1.416,1.133 2.3,1.5 0.883,0.366 1.85,0.55 2.9,0.55 1.033,0 1.992,-0.18 2.875,-0.537 C 3.758,9.778 4.521,9.287 5.163,8.662 5.804,8.037 6.308,7.304 6.675,6.462 7.042,5.62 7.225,4.716 7.225,3.75 V 3.7 C 7.225,2.733 7.042,1.829 6.675,0.987 6.308,0.146 5.8,-0.592 5.15,-1.226 4.5,-1.858 3.733,-2.358 2.85,-2.726 1.967,-3.092 1,-3.275 -0.05,-3.275"
                   style="fill:#000000;fill-opacity:1;fill-rule:nonzero;stroke:none"
                   id="path17955"
                   transform="translate(11.594698,-11.761701)" /><path
                   d="m 0,0 h 3.8 v -2.7 c 0.384,0.917 0.908,1.65 1.575,2.2 0.667,0.55 1.566,0.8 2.7,0.75 v -3.975 h -0.2 c -1.267,0 -2.262,-0.383 -2.987,-1.15 C 4.163,-5.642 3.8,-6.834 3.8,-8.45 V -13.4 H 0 Z"
                   style="fill:#000000;fill-opacity:1;fill-rule:nonzero;stroke:none"
                   id="path17959"
                   transform="translate(21.171898,-1.3369035)" /><path
                   d="M 0,0 C 0.45,0 0.871,0.088 1.263,0.263 1.654,0.437 1.995,0.687 2.287,1.013 2.579,1.338 2.813,1.729 2.988,2.188 3.162,2.646 3.25,3.15 3.25,3.7 V 3.75 C 3.25,4.301 3.162,4.805 2.988,5.263 2.813,5.721 2.579,6.113 2.287,6.437 1.995,6.763 1.654,7.013 1.263,7.187 0.871,7.363 0.45,7.451 0,7.451 -0.45,7.451 -0.871,7.363 -1.262,7.187 -1.654,7.013 -2,6.763 -2.3,6.437 -2.6,6.113 -2.838,5.726 -3.012,5.275 -3.188,4.825 -3.275,4.316 -3.275,3.75 V 3.7 c 0,-0.55 0.087,-1.054 0.263,-1.512 C -2.838,1.729 -2.6,1.338 -2.3,1.013 -2,0.687 -1.654,0.437 -1.262,0.263 -0.871,0.088 -0.45,0 0,0 m -0.975,-3.225 c -0.783,0 -1.542,0.151 -2.275,0.451 -0.734,0.299 -1.383,0.745 -1.95,1.337 -0.567,0.591 -1.021,1.316 -1.362,2.175 -0.342,0.858 -0.513,1.846 -0.513,2.962 v 0.05 c 0,1.117 0.171,2.104 0.513,2.963 0.341,0.858 0.791,1.584 1.349,2.176 0.559,0.59 1.205,1.037 1.938,1.337 0.733,0.299 1.5,0.45 2.3,0.45 1.017,0 1.854,-0.2 2.512,-0.6 0.659,-0.4 1.213,-0.867 1.663,-1.4 v 6.599 H 7 V -2.975 H 3.2 V -1.05 C 2.733,-1.684 2.171,-2.204 1.513,-2.612 0.854,-3.021 0.025,-3.225 -0.975,-3.225"
                   style="fill:#000000;fill-opacity:1;fill-rule:nonzero;stroke:none"
                   id="path17963"
                   transform="translate(-153.5757,-37.762702)" /><path
                   d="M 0,0 C -0.117,0.85 -0.417,1.537 -0.9,2.063 -1.384,2.588 -2.025,2.85 -2.825,2.85 -3.625,2.85 -4.272,2.592 -4.763,2.075 -5.254,1.559 -5.575,0.866 -5.725,0 Z m -2.45,-8.05 c -1,0 -1.929,0.167 -2.788,0.5 -0.858,0.333 -1.6,0.808 -2.225,1.425 -0.625,0.616 -1.112,1.346 -1.462,2.187 -0.35,0.842 -0.525,1.78 -0.525,2.813 v 0.05 c 0,0.95 0.162,1.85 0.487,2.7 0.325,0.85 0.779,1.592 1.363,2.225 0.583,0.633 1.279,1.133 2.087,1.5 0.808,0.367 1.704,0.55 2.688,0.55 1.116,0 2.083,-0.2 2.9,-0.599 C 0.891,4.9 1.57,4.363 2.112,3.688 2.654,3.013 3.054,2.237 3.312,1.362 3.57,0.487 3.7,-0.425 3.7,-1.375 3.7,-1.525 3.695,-1.684 3.687,-1.85 3.679,-2.017 3.666,-2.191 3.65,-2.375 h -9.325 c 0.183,-0.867 0.562,-1.521 1.137,-1.963 C -3.963,-4.779 -3.25,-5 -2.4,-5 c 0.633,0 1.2,0.108 1.7,0.325 0.5,0.216 1.016,0.567 1.55,1.05 L 3.025,-5.55 c -0.634,-0.784 -1.4,-1.396 -2.3,-1.838 -0.9,-0.441 -1.959,-0.662 -3.175,-0.662"
                   style="fill:#000000;fill-opacity:1;fill-rule:nonzero;stroke:none"
                   id="path17967"
                   transform="translate(-134.7256,-32.987302)" /><path
                   d="m 0,0 c -1.333,0 -2.642,0.229 -3.925,0.687 -1.283,0.459 -2.45,1.163 -3.5,2.113 l 2.275,2.725 c 0.8,-0.65 1.621,-1.167 2.462,-1.55 C -1.846,3.592 -0.925,3.4 0.075,3.4 0.875,3.4 1.496,3.546 1.937,3.838 2.379,4.129 2.6,4.533 2.6,5.05 V 5.1 C 2.6,5.35 2.554,5.57 2.462,5.763 2.37,5.954 2.195,6.133 1.936,6.3 1.677,6.467 1.317,6.633 0.858,6.8 0.398,6.967 -0.199,7.142 -0.934,7.325 -1.82,7.541 -2.622,7.783 -3.341,8.05 -4.06,8.316 -4.669,8.646 -5.17,9.037 -5.672,9.429 -6.061,9.916 -6.336,10.5 -6.612,11.084 -6.75,11.809 -6.75,12.676 v 0.049 c 0,0.8 0.149,1.521 0.447,2.163 0.298,0.641 0.716,1.196 1.254,1.663 0.539,0.466 1.181,0.824 1.928,1.074 C -2.374,17.875 -1.55,18 -0.65,18 0.633,18 1.812,17.809 2.888,17.426 3.962,17.042 4.95,16.492 5.85,15.775 l -2,-2.9 c -0.784,0.533 -1.55,0.954 -2.3,1.263 -0.75,0.308 -1.5,0.463 -2.25,0.463 -0.75,0 -1.312,-0.147 -1.687,-0.439 -0.375,-0.291 -0.563,-0.654 -0.563,-1.087 v -0.05 c 0,-0.283 0.054,-0.529 0.163,-0.738 0.109,-0.208 0.305,-0.395 0.589,-0.562 C -1.914,11.559 -1.525,11.4 -1.032,11.25 -0.54,11.1 0.083,10.926 0.835,10.725 1.721,10.492 2.51,10.229 3.204,9.938 3.897,9.646 4.482,9.296 4.958,8.888 5.435,8.479 5.794,8 6.037,7.45 6.278,6.9 6.4,6.241 6.4,5.475 V 5.425 C 6.4,4.559 6.243,3.787 5.928,3.112 5.613,2.438 5.175,1.871 4.612,1.412 4.048,0.954 3.376,0.604 2.596,0.362 1.815,0.121 0.95,0 0,0"
                   style="fill:#000000;fill-opacity:1;fill-rule:nonzero;stroke:none"
                   id="path17971"
                   transform="translate(-114.5513,-40.987297)" /><path
                   d="m 0,0 c 0.9,0 1.621,0.217 2.163,0.65 0.541,0.433 0.812,1 0.812,1.7 V 3.025 C 2.642,3.175 2.271,3.296 1.863,3.388 1.454,3.479 1.017,3.525 0.55,3.525 c -0.817,0 -1.458,-0.159 -1.925,-0.475 -0.466,-0.317 -0.7,-0.775 -0.7,-1.375 v -0.05 c 0,-0.517 0.192,-0.917 0.575,-1.2 C -1.117,0.142 -0.617,0 0,0 m -1.15,-2.625 c -0.633,0 -1.229,0.088 -1.788,0.263 -0.558,0.174 -1.045,0.437 -1.462,0.787 -0.416,0.35 -0.746,0.779 -0.987,1.288 -0.242,0.508 -0.363,1.096 -0.363,1.762 v 0.05 c 0,0.733 0.133,1.367 0.4,1.9 0.267,0.533 0.638,0.975 1.113,1.325 0.475,0.35 1.041,0.612 1.7,0.787 C -1.879,5.713 -1.15,5.8 -0.35,5.8 0.333,5.8 0.929,5.75 1.437,5.65 1.946,5.55 2.441,5.416 2.925,5.25 V 5.475 C 2.925,6.275 2.684,6.883 2.2,7.3 1.717,7.717 1,7.926 0.05,7.926 -0.684,7.926 -1.329,7.863 -1.887,7.738 -2.446,7.612 -3.033,7.434 -3.649,7.2 L -4.6,10.1 c 0.734,0.316 1.5,0.576 2.3,0.775 0.8,0.2 1.767,0.301 2.9,0.301 1.05,0 1.946,-0.13 2.688,-0.389 0.741,-0.258 1.354,-0.629 1.837,-1.111 0.5,-0.5 0.867,-1.113 1.1,-1.838 C 6.458,7.112 6.575,6.3 6.575,5.4 V -2.375 H 2.9 v 1.45 C 2.434,-1.441 1.875,-1.854 1.225,-2.162 0.575,-2.471 -0.217,-2.625 -1.15,-2.625"
                   style="fill:#000000;fill-opacity:1;fill-rule:nonzero;stroke:none"
                   id="path17975"
                   transform="translate(-100.624,-38.362297)" /><path
                   d="m 0,0 3.275,-1.426 -3.2,-3 h -2.9 z m -2.6,-19.551 c -1.45,0 -2.571,0.442 -3.362,1.325 -0.792,0.883 -1.188,2.1 -1.188,3.65 V -5.9 h 3.8 v -7.457 c 0,-0.899 0.2,-1.577 0.6,-2.034 0.4,-0.457 0.966,-0.685 1.7,-0.685 0.733,0 1.313,0.228 1.737,0.685 0.425,0.457 0.638,1.135 0.638,2.034 V -5.9 h 3.8 v -13.401 h -3.8 v 1.916 c -0.217,-0.286 -0.454,-0.558 -0.713,-0.818 -0.258,-0.261 -0.546,-0.491 -0.862,-0.693 -0.317,-0.202 -0.667,-0.361 -1.05,-0.479 -0.384,-0.117 -0.817,-0.176 -1.3,-0.176"
                   style="fill:#000000;fill-opacity:1;fill-rule:nonzero;stroke:none"
                   id="path17979"
                   transform="translate(-84.0488,-21.436499)" /><path
                   d="m 0,0 c 0.45,0 0.871,0.088 1.262,0.263 0.392,0.174 0.734,0.424 1.025,0.75 0.292,0.325 0.526,0.716 0.7,1.175 C 3.162,2.646 3.25,3.15 3.25,3.7 V 3.75 C 3.25,4.301 3.162,4.805 2.987,5.263 2.813,5.721 2.579,6.113 2.287,6.437 1.996,6.763 1.654,7.013 1.262,7.187 0.871,7.363 0.45,7.451 0,7.451 -0.45,7.451 -0.871,7.363 -1.263,7.187 -1.654,7.013 -2,6.763 -2.3,6.437 -2.601,6.113 -2.838,5.726 -3.013,5.275 -3.188,4.825 -3.275,4.316 -3.275,3.75 V 3.7 c 0,-0.55 0.087,-1.054 0.262,-1.512 C -2.838,1.729 -2.601,1.338 -2.3,1.013 -2,0.687 -1.654,0.437 -1.263,0.263 -0.871,0.088 -0.45,0 0,0 m -0.975,-3.225 c -0.784,0 -1.542,0.151 -2.275,0.451 -0.734,0.299 -1.384,0.745 -1.95,1.337 -0.567,0.591 -1.021,1.316 -1.362,2.175 -0.342,0.858 -0.513,1.846 -0.513,2.962 v 0.05 c 0,1.117 0.171,2.104 0.513,2.963 0.341,0.858 0.791,1.584 1.349,2.176 0.559,0.59 1.204,1.037 1.938,1.337 0.733,0.299 1.5,0.45 2.3,0.45 1.016,0 1.854,-0.2 2.512,-0.6 0.658,-0.4 1.213,-0.867 1.663,-1.4 v 6.599 H 7 V -2.975 H 3.2 V -1.05 C 2.733,-1.684 2.17,-2.204 1.512,-2.612 0.854,-3.021 0.025,-3.225 -0.975,-3.225"
                   style="fill:#000000;fill-opacity:1;fill-rule:nonzero;stroke:none"
                   id="path17983"
                   transform="translate(-69.396499,-37.762702)" /><path
                   d="M 0,0 C -0.117,0.85 -0.417,1.537 -0.9,2.063 -1.384,2.588 -2.025,2.85 -2.826,2.85 -3.625,2.85 -4.271,2.592 -4.763,2.075 -5.254,1.559 -5.576,0.866 -5.725,0 Z m -2.451,-8.05 c -1,0 -1.928,0.167 -2.786,0.5 -0.86,0.333 -1.601,0.808 -2.226,1.425 -0.625,0.616 -1.113,1.346 -1.462,2.187 -0.35,0.842 -0.526,1.78 -0.526,2.813 v 0.05 c 0,0.95 0.163,1.85 0.488,2.7 0.325,0.85 0.779,1.592 1.363,2.225 0.583,0.633 1.279,1.133 2.087,1.5 0.809,0.367 1.704,0.55 2.687,0.55 1.118,0 2.083,-0.2 2.901,-0.599 C 0.892,4.9 1.57,4.363 2.112,3.688 2.653,3.013 3.054,2.237 3.313,1.362 3.57,0.487 3.7,-0.425 3.7,-1.375 3.7,-1.525 3.695,-1.684 3.688,-1.85 3.679,-2.017 3.667,-2.191 3.65,-2.375 h -9.325 c 0.182,-0.867 0.563,-1.521 1.137,-1.963 C -3.963,-4.779 -3.25,-5 -2.4,-5 c 0.633,0 1.199,0.108 1.699,0.325 0.5,0.216 1.017,0.567 1.551,1.05 L 3.025,-5.55 c -0.633,-0.784 -1.4,-1.396 -2.3,-1.838 -0.9,-0.441 -1.958,-0.662 -3.176,-0.662"
                   style="fill:#000000;fill-opacity:1;fill-rule:nonzero;stroke:none"
                   id="path17987"
                   transform="translate(-50.546899,-32.987302)" /><path
                   d="M 0,0 C -1.186,0 -2.178,0.993 -2.178,2.182 -2.178,3.37 -1.186,4.363 0,4.363 1.186,4.363 2.178,3.37 2.178,2.182 2.178,0.993 1.186,0 0,0"
                   style="fill:#000000;fill-opacity:1;fill-rule:nonzero;stroke:none"
                   id="path17991" /></g></g></g></g><g
           id="g17993"
           transform="translate(85.0391,524.6689)"><path
             d="M 0,0 H 671.812"
             style="fill:#ffffff;fill-opacity:1;fill-rule:nonzero;stroke:#000000;stroke-width:1;stroke-linecap:butt;stroke-linejoin:miter;stroke-miterlimit:10;stroke-dasharray:none;stroke-opacity:1"
             id="path17995" /></g><g
           id="g17997"
           transform="translate(85.0391,280.6494)"><path
             d="M 0,0 H 671.812"
             style="fill:#ffffff;fill-opacity:1;fill-rule:nonzero;stroke:#000000;stroke-width:1;stroke-linecap:butt;stroke-linejoin:miter;stroke-miterlimit:10;stroke-dasharray:none;stroke-opacity:1"
             id="path17999" /></g><g
           id="g18001"
           transform="translate(85.4296,519.998)"><path
             d="M 0,0 H 0.88 L 3.37,-6.03 5.87,0 H 6.72 L 3.71,-7.05 h -0.7 z"
             style="fill:#231f20;fill-opacity:1;fill-rule:nonzero;stroke:none"
             id="path18003" /></g><g
           id="g18005"
           transform="translate(97.1896,515.8984)"><path
             d="m 0,0 c -0.02,0.231 -0.07,0.452 -0.15,0.661 -0.08,0.208 -0.189,0.393 -0.325,0.552 -0.137,0.159 -0.303,0.285 -0.5,0.378 -0.197,0.093 -0.422,0.138 -0.675,0.138 -0.22,0 -0.427,-0.042 -0.62,-0.128 C -2.464,1.514 -2.633,1.394 -2.78,1.237 -2.927,1.082 -3.048,0.897 -3.145,0.686 -3.242,0.474 -3.303,0.245 -3.33,0 Z m -3.33,-0.631 c 0.027,-0.273 0.093,-0.516 0.2,-0.729 0.107,-0.214 0.243,-0.394 0.41,-0.54 0.167,-0.147 0.353,-0.259 0.56,-0.335 0.207,-0.078 0.423,-0.116 0.65,-0.116 0.36,0 0.668,0.067 0.925,0.201 0.257,0.132 0.491,0.309 0.705,0.53 L 0.6,-2.051 c -0.26,-0.293 -0.557,-0.528 -0.89,-0.705 -0.333,-0.176 -0.747,-0.265 -1.24,-0.265 -0.353,0 -0.687,0.066 -1,0.196 -0.314,0.13 -0.587,0.313 -0.82,0.55 -0.233,0.236 -0.418,0.521 -0.555,0.855 -0.137,0.333 -0.205,0.699 -0.205,1.1 0,0.373 0.062,0.724 0.185,1.054 0.123,0.33 0.295,0.618 0.515,0.861 0.22,0.243 0.482,0.434 0.785,0.575 0.303,0.14 0.635,0.21 0.995,0.21 0.38,0 0.72,-0.072 1.02,-0.215 C -0.31,2.021 -0.057,1.826 0.15,1.58 0.357,1.333 0.513,1.043 0.62,0.71 0.727,0.376 0.78,0.02 0.78,-0.36 v -0.116 c 0,-0.043 -0.004,-0.094 -0.01,-0.155 z"
             style="fill:#231f20;fill-opacity:1;fill-rule:nonzero;stroke:none"
             id="path18007" /></g><g
           id="g18009"
           transform="translate(99.3195,518.1679)"><path
             d="m 0,0 h 0.77 v -1.35 c 0.093,0.213 0.21,0.411 0.35,0.59 0.14,0.18 0.3,0.335 0.48,0.465 0.18,0.13 0.377,0.229 0.59,0.295 0.213,0.066 0.443,0.097 0.69,0.09 V -0.74 H 2.82 C 2.54,-0.74 2.275,-0.79 2.025,-0.89 1.775,-0.99 1.557,-1.14 1.37,-1.34 1.183,-1.54 1.037,-1.788 0.93,-2.085 0.823,-2.382 0.77,-2.724 0.77,-3.11 V -5.17 H 0 Z"
             style="fill:#231f20;fill-opacity:1;fill-rule:nonzero;stroke:none"
             id="path18011" /></g><g
           id="g18013"
           transform="translate(105.0795,512.8984)"><path
             d="M 0,0 C -0.373,0 -0.75,0.068 -1.13,0.205 -1.51,0.341 -1.847,0.526 -2.14,0.76 l 0.39,0.55 c 0.28,-0.214 0.572,-0.377 0.875,-0.491 0.303,-0.113 0.608,-0.17 0.915,-0.17 0.313,0 0.57,0.074 0.77,0.22 0.2,0.148 0.3,0.347 0.3,0.601 V 1.489 C 1.11,1.616 1.075,1.727 1.005,1.819 0.935,1.913 0.84,1.994 0.72,2.064 0.6,2.135 0.462,2.196 0.305,2.25 0.148,2.303 -0.013,2.353 -0.18,2.399 -0.38,2.46 -0.582,2.524 -0.785,2.595 -0.988,2.665 -1.172,2.753 -1.335,2.859 -1.498,2.966 -1.632,3.1 -1.735,3.26 -1.838,3.42 -1.89,3.619 -1.89,3.859 V 3.88 c 0,0.22 0.043,0.421 0.13,0.604 0.087,0.184 0.208,0.34 0.365,0.471 0.157,0.13 0.343,0.23 0.56,0.3 0.217,0.069 0.452,0.104 0.705,0.104 0.32,0 0.643,-0.051 0.97,-0.154 C 1.167,5.102 1.463,4.963 1.73,4.79 L 1.38,4.21 C 1.14,4.363 0.888,4.484 0.625,4.574 0.362,4.665 0.103,4.71 -0.15,4.71 -0.457,4.71 -0.7,4.638 -0.88,4.494 -1.06,4.352 -1.15,4.173 -1.15,3.96 V 3.939 c 0,-0.12 0.037,-0.224 0.11,-0.314 C -0.967,3.534 -0.868,3.456 -0.745,3.39 -0.622,3.323 -0.48,3.263 -0.32,3.21 -0.16,3.156 0.007,3.103 0.18,3.05 0.38,2.989 0.578,2.923 0.775,2.85 0.972,2.776 1.15,2.683 1.31,2.569 1.47,2.456 1.598,2.319 1.695,2.159 1.792,2 1.84,1.803 1.84,1.569 V 1.55 C 1.84,1.303 1.792,1.085 1.695,0.895 1.598,0.705 1.468,0.543 1.305,0.409 1.142,0.276 0.948,0.175 0.725,0.104 0.502,0.034 0.26,0 0,0"
             style="fill:#231f20;fill-opacity:1;fill-rule:nonzero;stroke:none"
             id="path18015" /></g><g
           id="g18017"
           transform="translate(108.7794,518.9882)"><path
             d="M 0,0 C 0.1,0.38 0.223,0.649 0.37,0.81 0.516,0.97 0.71,1.05 0.95,1.05 1.063,1.05 1.18,1.028 1.3,0.984 1.42,0.941 1.54,0.895 1.66,0.845 1.78,0.795 1.893,0.75 2,0.71 2.107,0.67 2.203,0.649 2.29,0.649 c 0.133,0 0.235,0.038 0.305,0.111 0.07,0.073 0.142,0.2 0.215,0.38 L 3.28,1.01 C 3.18,0.63 3.057,0.359 2.91,0.2 2.763,0.04 2.57,-0.04 2.33,-0.04 2.217,-0.04 2.1,-0.021 1.98,0.02 1.86,0.06 1.74,0.104 1.62,0.154 1.5,0.205 1.386,0.251 1.28,0.295 1.173,0.338 1.077,0.359 0.99,0.359 0.857,0.359 0.755,0.323 0.685,0.25 0.615,0.177 0.543,0.05 0.47,-0.13 Z m 1.266,-5.471 c 0.239,0 0.461,0.034 0.667,0.1 0.206,0.066 0.387,0.161 0.544,0.284 0.156,0.123 0.279,0.269 0.368,0.438 0.09,0.169 0.135,0.356 0.135,0.562 v 0.478 C 2.787,-3.557 2.568,-3.507 2.322,-3.46 2.076,-3.413 1.794,-3.391 1.475,-3.391 0.997,-3.391 0.626,-3.485 0.364,-3.674 0.101,-3.863 -0.03,-4.113 -0.03,-4.425 v -0.02 c 0,-0.159 0.035,-0.304 0.105,-0.433 0.069,-0.13 0.164,-0.237 0.284,-0.323 C 0.478,-5.288 0.616,-5.354 0.772,-5.4 0.928,-5.447 1.093,-5.471 1.266,-5.471 M 1.11,-6.101 c -0.24,0 -0.477,0.035 -0.71,0.101 -0.233,0.066 -0.44,0.168 -0.62,0.305 -0.18,0.136 -0.325,0.304 -0.435,0.505 -0.11,0.2 -0.165,0.433 -0.165,0.7 v 0.019 c 0,0.281 0.053,0.526 0.16,0.736 0.107,0.21 0.258,0.384 0.455,0.525 0.197,0.14 0.43,0.246 0.7,0.319 0.27,0.074 0.568,0.111 0.895,0.111 0.333,0 0.621,-0.02 0.865,-0.06 C 2.498,-2.88 2.737,-2.934 2.97,-3 v 0.158 c 0,0.457 -0.133,0.804 -0.4,1.039 C 2.303,-1.568 1.927,-1.45 1.44,-1.45 1.133,-1.45 0.855,-1.483 0.605,-1.55 0.355,-1.617 0.11,-1.707 -0.13,-1.82 l -0.23,0.633 c 0.287,0.135 0.577,0.244 0.87,0.325 0.293,0.081 0.63,0.122 1.01,0.122 0.733,0 1.29,-0.191 1.67,-0.571 C 3.55,-1.67 3.73,-2.177 3.73,-2.83 V -5.99 H 2.97 v 0.769 C 2.79,-5.454 2.548,-5.658 2.245,-5.835 1.942,-6.012 1.563,-6.101 1.11,-6.101"
             style="fill:#231f20;fill-opacity:1;fill-rule:nonzero;stroke:none"
             id="path18019" /></g><g
           id="g18021"
           transform="translate(116.5193,513.5683)"><path
             d="M 0,0 C 0.28,0 0.537,0.053 0.77,0.16 1.003,0.267 1.203,0.41 1.37,0.59 1.537,0.77 1.667,0.979 1.76,1.22 1.853,1.46 1.9,1.716 1.9,1.989 V 2.01 C 1.9,2.29 1.852,2.551 1.755,2.795 1.658,3.038 1.523,3.251 1.35,3.435 1.177,3.618 0.973,3.763 0.74,3.87 0.507,3.977 0.253,4.029 -0.02,4.029 -0.3,4.029 -0.557,3.977 -0.79,3.87 -1.023,3.763 -1.222,3.62 -1.385,3.439 -1.548,3.26 -1.677,3.048 -1.77,2.805 -1.863,2.562 -1.91,2.303 -1.91,2.029 V 2.01 c 0,-0.281 0.048,-0.542 0.145,-0.785 0.097,-0.244 0.23,-0.455 0.4,-0.635 C -1.195,0.41 -0.993,0.267 -0.76,0.16 -0.527,0.053 -0.273,0 0,0 m -0.02,-0.69 c -0.387,0 -0.743,0.072 -1.07,0.214 -0.327,0.144 -0.61,0.337 -0.85,0.58 -0.24,0.244 -0.427,0.527 -0.56,0.851 -0.133,0.323 -0.2,0.668 -0.2,1.034 V 2.01 c 0,0.366 0.067,0.713 0.2,1.04 0.133,0.326 0.32,0.613 0.56,0.86 0.24,0.246 0.525,0.442 0.855,0.585 C -0.755,4.638 -0.393,4.71 0,4.71 0.387,4.71 0.745,4.638 1.075,4.495 1.405,4.352 1.69,4.158 1.93,3.915 2.17,3.671 2.357,3.388 2.49,3.064 2.623,2.741 2.69,2.396 2.69,2.029 V 2.01 C 2.69,1.643 2.622,1.296 2.485,0.97 2.348,0.643 2.16,0.356 1.92,0.109 1.68,-0.137 1.393,-0.332 1.06,-0.476 0.727,-0.618 0.367,-0.69 -0.02,-0.69"
             style="fill:#231f20;fill-opacity:1;fill-rule:nonzero;stroke:none"
             id="path18023" /></g><g
           id="g18025"
           transform="translate(123.5992,520.2978)"><path
             d="m 0,0 h 0.77 v -3.03 c 0.173,0.28 0.4,0.518 0.68,0.716 0.28,0.196 0.643,0.294 1.09,0.294 0.313,0 0.592,-0.049 0.835,-0.15 0.243,-0.1 0.45,-0.241 0.62,-0.425 0.17,-0.183 0.3,-0.401 0.39,-0.655 0.09,-0.253 0.135,-0.533 0.135,-0.84 V -7.3 H 3.75 v 3.014 c 0,0.478 -0.123,0.857 -0.37,1.138 -0.247,0.279 -0.6,0.419 -1.06,0.419 -0.22,0 -0.425,-0.04 -0.615,-0.116 C 1.515,-2.921 1.35,-3.031 1.21,-3.174 1.07,-3.317 0.962,-3.488 0.885,-3.688 0.808,-3.888 0.77,-4.106 0.77,-4.347 V -7.3 H 0 Z"
             style="fill:#231f20;fill-opacity:1;fill-rule:nonzero;stroke:none"
             id="path18027" /></g><g
           id="g18029"
           transform="translate(132.1392,513.5683)"><path
             d="M 0,0 C 0.28,0 0.537,0.053 0.77,0.16 1.003,0.267 1.203,0.41 1.37,0.59 1.537,0.77 1.667,0.979 1.76,1.22 1.853,1.46 1.9,1.716 1.9,1.989 V 2.01 C 1.9,2.29 1.852,2.551 1.755,2.795 1.658,3.038 1.523,3.251 1.35,3.435 1.177,3.618 0.973,3.763 0.74,3.87 0.507,3.977 0.253,4.029 -0.02,4.029 -0.3,4.029 -0.557,3.977 -0.79,3.87 -1.023,3.763 -1.222,3.62 -1.385,3.439 -1.548,3.26 -1.677,3.048 -1.77,2.805 -1.863,2.562 -1.91,2.303 -1.91,2.029 V 2.01 c 0,-0.281 0.048,-0.542 0.145,-0.785 0.097,-0.244 0.23,-0.455 0.4,-0.635 C -1.195,0.41 -0.993,0.267 -0.76,0.16 -0.527,0.053 -0.273,0 0,0 m -0.02,-0.69 c -0.387,0 -0.743,0.072 -1.07,0.214 -0.327,0.144 -0.61,0.337 -0.85,0.58 -0.24,0.244 -0.427,0.527 -0.56,0.851 -0.133,0.323 -0.2,0.668 -0.2,1.034 V 2.01 c 0,0.366 0.067,0.713 0.2,1.04 0.133,0.326 0.32,0.613 0.56,0.86 0.24,0.246 0.525,0.442 0.855,0.585 C -0.755,4.638 -0.393,4.71 0,4.71 0.387,4.71 0.745,4.638 1.075,4.495 1.405,4.352 1.69,4.158 1.93,3.915 2.17,3.671 2.357,3.388 2.49,3.064 2.623,2.741 2.69,2.396 2.69,2.029 V 2.01 C 2.69,1.643 2.622,1.296 2.485,0.97 2.348,0.643 2.16,0.356 1.92,0.109 1.68,-0.137 1.393,-0.332 1.06,-0.476 0.727,-0.618 0.367,-0.69 -0.02,-0.69"
             style="fill:#231f20;fill-opacity:1;fill-rule:nonzero;stroke:none"
             id="path18031" /></g><g
           id="g18033"
           transform="translate(136.2191,518.1679)"><path
             d="m 0,0 h 0.77 v -1.35 c 0.093,0.213 0.21,0.411 0.35,0.59 0.14,0.18 0.3,0.335 0.48,0.465 0.18,0.13 0.377,0.229 0.59,0.295 0.213,0.066 0.443,0.097 0.69,0.09 V -0.74 H 2.82 C 2.54,-0.74 2.275,-0.79 2.025,-0.89 1.775,-0.99 1.557,-1.14 1.37,-1.34 1.183,-1.54 1.037,-1.788 0.93,-2.085 0.823,-2.382 0.77,-2.724 0.77,-3.11 V -5.17 H 0 Z"
             style="fill:#231f20;fill-opacity:1;fill-rule:nonzero;stroke:none"
             id="path18035" /></g><path
           d="m 140.339,518.168 h 0.77 v -5.17 h -0.77 z m -0.05,1.98 h 0.88 v -0.851 h -0.88 z"
           style="fill:#231f20;fill-opacity:1;fill-rule:nonzero;stroke:none"
           id="path18037" /><g
           id="g18039"
           transform="translate(142.5992,513.4882)"><path
             d="M 0,0 3.43,4.029 H 0.12 V 4.68 H 4.48 V 4.189 L 1.04,0.16 H 4.48 V -0.49 H 0 Z"
             style="fill:#231f20;fill-opacity:1;fill-rule:nonzero;stroke:none"
             id="path18041" /></g><g
           id="g18043"
           transform="translate(150.8391,513.5683)"><path
             d="M 0,0 C 0.28,0 0.537,0.053 0.77,0.16 1.003,0.267 1.203,0.41 1.37,0.59 1.537,0.77 1.667,0.979 1.76,1.22 1.853,1.46 1.9,1.716 1.9,1.989 V 2.01 C 1.9,2.29 1.852,2.551 1.755,2.795 1.658,3.038 1.523,3.251 1.35,3.435 1.177,3.618 0.973,3.763 0.74,3.87 0.507,3.977 0.253,4.029 -0.02,4.029 -0.3,4.029 -0.557,3.977 -0.79,3.87 -1.023,3.763 -1.222,3.62 -1.385,3.439 -1.548,3.26 -1.677,3.048 -1.77,2.805 -1.863,2.562 -1.91,2.303 -1.91,2.029 V 2.01 c 0,-0.281 0.048,-0.542 0.145,-0.785 0.097,-0.244 0.23,-0.455 0.4,-0.635 C -1.195,0.41 -0.993,0.267 -0.76,0.16 -0.527,0.053 -0.273,0 0,0 m -0.02,-0.69 c -0.387,0 -0.743,0.072 -1.07,0.214 -0.327,0.144 -0.61,0.337 -0.85,0.58 -0.24,0.244 -0.427,0.527 -0.56,0.851 -0.133,0.323 -0.2,0.668 -0.2,1.034 V 2.01 c 0,0.366 0.067,0.713 0.2,1.04 0.133,0.326 0.32,0.613 0.56,0.86 0.24,0.246 0.525,0.442 0.855,0.585 C -0.755,4.638 -0.393,4.71 0,4.71 0.387,4.71 0.745,4.638 1.075,4.495 1.405,4.352 1.69,4.158 1.93,3.915 2.17,3.671 2.357,3.388 2.49,3.064 2.623,2.741 2.69,2.396 2.69,2.029 V 2.01 C 2.69,1.643 2.622,1.296 2.485,0.97 2.348,0.643 2.16,0.356 1.92,0.109 1.68,-0.137 1.393,-0.332 1.06,-0.476 0.727,-0.618 0.367,-0.69 -0.02,-0.69"
             style="fill:#231f20;fill-opacity:1;fill-rule:nonzero;stroke:none"
             id="path18045" /></g><g
           id="g18047"
           transform="translate(154.9191,518.1679)"><path
             d="m 0,0 h 0.77 v -0.9 c 0.173,0.28 0.4,0.518 0.68,0.715 0.28,0.197 0.643,0.295 1.09,0.295 0.313,0 0.592,-0.049 0.835,-0.15 0.243,-0.1 0.45,-0.241 0.62,-0.425 0.17,-0.183 0.3,-0.401 0.39,-0.655 0.09,-0.253 0.135,-0.533 0.135,-0.84 V -5.17 H 3.75 v 3.014 c 0,0.478 -0.123,0.857 -0.37,1.137 C 3.133,-0.739 2.78,-0.6 2.32,-0.6 2.1,-0.6 1.895,-0.639 1.705,-0.715 1.515,-0.791 1.35,-0.901 1.21,-1.044 1.07,-1.187 0.962,-1.358 0.885,-1.558 0.808,-1.758 0.77,-1.977 0.77,-2.217 V -5.17 H 0 Z"
             style="fill:#231f20;fill-opacity:1;fill-rule:nonzero;stroke:none"
             id="path18049" /></g><g
           id="g18051"
           transform="translate(162.809,512.9081)"><path
             d="M 0,0 C -0.207,0 -0.4,0.026 -0.58,0.08 -0.76,0.133 -0.915,0.218 -1.045,0.335 -1.175,0.451 -1.277,0.604 -1.35,0.79 -1.423,0.977 -1.46,1.2 -1.46,1.46 v 3.12 h -0.72 v 0.68 h 0.72 v 1.56 h 0.77 V 5.26 H 0.95 V 4.58 H -0.69 V 1.567 c 0,-0.319 0.08,-0.542 0.24,-0.668 C -0.29,0.773 -0.08,0.71 0.18,0.71 0.313,0.71 0.438,0.723 0.555,0.748 0.672,0.772 0.797,0.816 0.93,0.88 V 0.22 C 0.797,0.146 0.655,0.092 0.505,0.055 0.355,0.019 0.187,0 0,0"
             style="fill:#231f20;fill-opacity:1;fill-rule:nonzero;stroke:none"
             id="path18053" /></g><g
           id="g18055"
           transform="translate(166.8146,513.5175)"><path
             d="M 0,0 C 0.239,0 0.462,0.033 0.668,0.1 0.874,0.166 1.055,0.261 1.211,0.384 1.367,0.507 1.49,0.652 1.58,0.821 1.669,0.99 1.714,1.178 1.714,1.384 V 1.861 C 1.521,1.914 1.302,1.964 1.057,2.011 0.811,2.058 0.528,2.08 0.209,2.08 -0.269,2.08 -0.64,1.985 -0.902,1.797 -1.165,1.607 -1.296,1.357 -1.296,1.046 V 1.025 c 0,-0.159 0.035,-0.303 0.105,-0.432 0.07,-0.13 0.164,-0.238 0.284,-0.323 0.12,-0.087 0.257,-0.154 0.414,-0.2 C -0.337,0.023 -0.173,0 0,0 m -0.156,-0.63 c -0.24,0 -0.476,0.034 -0.71,0.101 -0.233,0.066 -0.44,0.168 -0.62,0.304 -0.18,0.137 -0.325,0.305 -0.435,0.505 -0.11,0.2 -0.165,0.434 -0.165,0.7 V 1 c 0,0.28 0.054,0.525 0.16,0.735 0.107,0.21 0.259,0.385 0.455,0.526 0.197,0.139 0.43,0.246 0.7,0.319 0.27,0.073 0.569,0.11 0.895,0.11 0.334,0 0.622,-0.019 0.865,-0.059 0.244,-0.04 0.482,-0.094 0.715,-0.16 v 0.158 c 0,0.457 -0.133,0.804 -0.4,1.039 -0.266,0.234 -0.643,0.353 -1.13,0.353 -0.306,0 -0.585,-0.034 -0.835,-0.1 C -0.911,3.854 -1.156,3.764 -1.396,3.65 l -0.23,0.634 c 0.287,0.135 0.577,0.243 0.87,0.324 0.294,0.081 0.63,0.122 1.01,0.122 0.734,0 1.29,-0.19 1.67,-0.57 0.36,-0.359 0.54,-0.866 0.54,-1.519 V -0.52 H 1.704 V 0.25 C 1.524,0.017 1.283,-0.187 0.979,-0.364 0.676,-0.541 0.298,-0.63 -0.156,-0.63"
             style="fill:#231f20;fill-opacity:1;fill-rule:nonzero;stroke:none"
             id="path18057" /></g><path
           d="m 170.979,520.298 h 0.77 v -7.3 h -0.77 z"
           style="fill:#231f20;fill-opacity:1;fill-rule:nonzero;stroke:none"
           id="path18059" /><g
           id="g18061"
           transform="translate(88.4995,499.5879)"><path
             d="m 0,0 c -0.893,0.5 -1.58,1.106 -2.06,1.82 -0.48,0.713 -0.72,1.534 -0.72,2.46 0,0.927 0.24,1.746 0.72,2.46 0.48,0.713 1.167,1.321 2.06,1.821 L 0.33,8.05 C -0.437,7.563 -1.015,7.016 -1.405,6.405 -1.795,5.795 -1.99,5.087 -1.99,4.28 c 0,-0.806 0.195,-1.514 0.585,-2.125 0.39,-0.61 0.968,-1.158 1.735,-1.645 z"
             style="fill:#231f20;fill-opacity:1;fill-rule:nonzero;stroke:none"
             id="path18063" /></g><g
           id="g18065"
           transform="translate(92.8941,504.1777)"><path
             d="M 0,0 C 0.288,0 0.55,0.037 0.787,0.11 1.024,0.185 1.228,0.289 1.399,0.427 1.569,0.563 1.7,0.726 1.79,0.913 1.88,1.101 1.925,1.312 1.925,1.545 v 0.02 C 1.925,2.066 1.753,2.446 1.409,2.704 1.065,2.962 0.608,3.09 0.04,3.09 H -1.735 V 0 Z m -2.525,3.82 h 2.62 C 0.489,3.82 0.847,3.769 1.17,3.665 1.494,3.562 1.77,3.415 2,3.226 2.23,3.035 2.407,2.804 2.53,2.53 2.654,2.257 2.715,1.947 2.715,1.601 V 1.58 C 2.715,1.2 2.642,0.868 2.495,0.585 2.349,0.302 2.15,0.063 1.9,-0.13 1.65,-0.323 1.359,-0.468 1.025,-0.564 0.692,-0.661 0.339,-0.71 -0.035,-0.71 h -1.7 v -2.47 h -0.79 z"
             style="fill:#231f20;fill-opacity:1;fill-rule:nonzero;stroke:none"
             id="path18067" /></g><g
           id="g18069"
           transform="translate(96.9193,506.1679)"><path
             d="m 0,0 h 0.77 v -1.35 c 0.093,0.213 0.21,0.411 0.35,0.59 0.14,0.18 0.3,0.335 0.48,0.465 0.18,0.13 0.377,0.229 0.59,0.295 0.213,0.066 0.443,0.097 0.69,0.09 V -0.74 H 2.82 C 2.54,-0.74 2.275,-0.79 2.025,-0.89 1.775,-0.99 1.557,-1.14 1.37,-1.34 1.183,-1.54 1.037,-1.788 0.93,-2.085 0.823,-2.382 0.77,-2.724 0.77,-3.11 V -5.17 H 0 Z"
             style="fill:#231f20;fill-opacity:1;fill-rule:nonzero;stroke:none"
             id="path18071" /></g><path
           d="m 101.039,506.168 h 0.77 v -5.17 h -0.77 z m -0.05,1.98 h 0.88 v -0.851 h -0.88 z"
           style="fill:#231f20;fill-opacity:1;fill-rule:nonzero;stroke:none"
           id="path18073" /><g
           id="g18075"
           transform="translate(103.5993,506.1679)"><path
             d="m 0,0 h 0.77 v -0.9 c 0.173,0.28 0.4,0.518 0.68,0.715 0.28,0.197 0.643,0.295 1.09,0.295 0.313,0 0.592,-0.049 0.835,-0.15 0.243,-0.1 0.45,-0.241 0.62,-0.425 0.17,-0.183 0.3,-0.401 0.39,-0.655 0.09,-0.253 0.135,-0.533 0.135,-0.84 V -5.17 H 3.75 v 3.014 c 0,0.478 -0.123,0.857 -0.37,1.137 C 3.133,-0.739 2.78,-0.6 2.32,-0.6 2.1,-0.6 1.895,-0.639 1.705,-0.715 1.515,-0.791 1.35,-0.901 1.21,-1.044 1.07,-1.187 0.962,-1.358 0.885,-1.558 0.808,-1.758 0.77,-1.977 0.77,-2.217 V -5.17 H 0 Z"
             style="fill:#231f20;fill-opacity:1;fill-rule:nonzero;stroke:none"
             id="path18077" /></g><g
           id="g18079"
           transform="translate(112.0891,500.8779)"><path
             d="m 0,0 c -0.38,0 -0.732,0.072 -1.055,0.215 -0.323,0.143 -0.603,0.337 -0.84,0.58 -0.237,0.243 -0.422,0.528 -0.555,0.855 -0.133,0.327 -0.2,0.67 -0.2,1.03 V 2.7 c 0,0.366 0.067,0.713 0.2,1.04 0.133,0.326 0.318,0.614 0.555,0.861 0.237,0.246 0.517,0.441 0.84,0.585 C -0.732,5.328 -0.38,5.4 0,5.4 0.247,5.4 0.47,5.377 0.67,5.33 0.87,5.283 1.053,5.219 1.22,5.135 1.387,5.052 1.54,4.953 1.68,4.84 1.82,4.727 1.95,4.606 2.07,4.48 L 1.56,3.94 C 1.353,4.153 1.128,4.337 0.885,4.49 0.642,4.644 0.343,4.72 -0.01,4.72 -0.27,4.72 -0.513,4.668 -0.74,4.565 -0.967,4.462 -1.163,4.32 -1.33,4.14 -1.497,3.96 -1.627,3.748 -1.72,3.505 -1.813,3.262 -1.86,3 -1.86,2.72 V 2.7 c 0,-0.28 0.048,-0.542 0.145,-0.785 0.097,-0.243 0.23,-0.457 0.4,-0.64 0.17,-0.183 0.37,-0.327 0.6,-0.43 0.23,-0.104 0.482,-0.155 0.755,-0.155 0.333,0 0.628,0.074 0.885,0.22 0.257,0.147 0.488,0.33 0.695,0.55 L 2.11,1 C 1.85,0.707 1.555,0.467 1.225,0.28 0.895,0.094 0.487,0 0,0"
             style="fill:#231f20;fill-opacity:1;fill-rule:nonzero;stroke:none"
             id="path18081" /></g><path
           d="m 115.539,506.168 h 0.77 v -5.17 h -0.77 z m -0.05,1.98 h 0.88 v -0.851 h -0.88 z"
           style="fill:#231f20;fill-opacity:1;fill-rule:nonzero;stroke:none"
           id="path18083" /><g
           id="g18085"
           transform="translate(120.709,501.5781)"><path
             d="m 0,0 c 0.247,0 0.482,0.045 0.705,0.135 0.223,0.09 0.417,0.219 0.58,0.39 0.163,0.17 0.293,0.378 0.39,0.625 C 1.772,1.396 1.82,1.677 1.82,1.99 V 2.01 C 1.82,2.316 1.772,2.593 1.675,2.84 1.578,3.087 1.447,3.297 1.28,3.47 1.113,3.644 0.92,3.776 0.7,3.87 0.48,3.963 0.247,4.01 0,4.01 -0.24,4.01 -0.472,3.962 -0.695,3.865 -0.918,3.769 -1.118,3.632 -1.295,3.455 -1.472,3.278 -1.612,3.068 -1.715,2.825 -1.818,2.581 -1.87,2.313 -1.87,2.02 V 2 c 0,-0.3 0.052,-0.573 0.155,-0.82 0.103,-0.246 0.243,-0.456 0.42,-0.63 0.177,-0.173 0.377,-0.309 0.6,-0.405 C -0.472,0.048 -0.24,0 0,0 m -2.61,4.59 h 0.77 V 3.55 c 0.107,0.153 0.225,0.3 0.355,0.44 0.13,0.14 0.275,0.262 0.435,0.364 0.16,0.104 0.338,0.187 0.535,0.25 C -0.318,4.668 -0.1,4.7 0.14,4.7 0.447,4.7 0.748,4.64 1.045,4.52 1.342,4.4 1.607,4.225 1.84,3.995 2.073,3.765 2.26,3.485 2.4,3.155 2.54,2.825 2.61,2.446 2.61,2.02 V 2 C 2.61,1.58 2.54,1.203 2.4,0.87 2.26,0.536 2.075,0.255 1.845,0.025 1.615,-0.205 1.352,-0.382 1.055,-0.505 0.758,-0.628 0.453,-0.69 0.14,-0.69 c -0.24,0 -0.46,0.03 -0.66,0.09 -0.2,0.06 -0.38,0.14 -0.54,0.24 -0.16,0.1 -0.305,0.216 -0.435,0.35 -0.13,0.133 -0.245,0.274 -0.345,0.42 v -2.59 h -0.77 z"
             style="fill:#231f20;fill-opacity:1;fill-rule:nonzero;stroke:none"
             id="path18087" /></g><g
           id="g18089"
           transform="translate(126.4346,501.5175)"><path
             d="M 0,0 C 0.239,0 0.462,0.033 0.668,0.1 0.874,0.166 1.055,0.261 1.211,0.384 1.367,0.507 1.49,0.652 1.58,0.821 1.669,0.99 1.714,1.178 1.714,1.384 V 1.861 C 1.521,1.914 1.302,1.964 1.057,2.011 0.811,2.058 0.528,2.08 0.209,2.08 -0.269,2.08 -0.64,1.985 -0.902,1.797 -1.165,1.607 -1.296,1.357 -1.296,1.046 V 1.025 c 0,-0.159 0.035,-0.303 0.105,-0.432 0.07,-0.13 0.164,-0.238 0.284,-0.323 0.12,-0.087 0.257,-0.154 0.414,-0.2 C -0.337,0.023 -0.173,0 0,0 m -0.156,-0.63 c -0.24,0 -0.476,0.034 -0.71,0.101 -0.233,0.066 -0.44,0.168 -0.62,0.304 -0.18,0.137 -0.325,0.305 -0.435,0.505 -0.11,0.2 -0.165,0.434 -0.165,0.7 V 1 c 0,0.28 0.054,0.525 0.16,0.735 0.107,0.21 0.259,0.385 0.455,0.526 0.197,0.139 0.43,0.246 0.7,0.319 0.27,0.073 0.569,0.11 0.895,0.11 0.334,0 0.622,-0.019 0.865,-0.059 0.244,-0.04 0.482,-0.094 0.715,-0.16 v 0.158 c 0,0.457 -0.133,0.804 -0.4,1.039 -0.266,0.234 -0.643,0.353 -1.13,0.353 -0.306,0 -0.585,-0.034 -0.835,-0.1 C -0.911,3.854 -1.156,3.764 -1.396,3.65 l -0.23,0.634 c 0.287,0.135 0.577,0.243 0.87,0.324 0.294,0.081 0.63,0.122 1.01,0.122 0.734,0 1.29,-0.19 1.67,-0.57 0.36,-0.359 0.54,-0.866 0.54,-1.519 V -0.52 H 1.704 V 0.25 C 1.524,0.017 1.283,-0.187 0.979,-0.364 0.676,-0.541 0.298,-0.63 -0.156,-0.63"
             style="fill:#231f20;fill-opacity:1;fill-rule:nonzero;stroke:none"
             id="path18091" /></g><path
           d="m 130.599,508.298 h 0.77 v -7.3 h -0.77 z"
           style="fill:#231f20;fill-opacity:1;fill-rule:nonzero;stroke:none"
           id="path18093" /><g
           id="g18095"
           transform="translate(132.8588,500.0976)"><path
             d="M 0,0 C 0.766,0.487 1.345,1.035 1.735,1.646 2.125,2.256 2.32,2.964 2.32,3.771 2.32,4.577 2.125,5.285 1.735,5.896 1.345,6.506 0.766,7.054 0,7.54 L 0.33,8.051 C 1.223,7.551 1.91,6.943 2.39,6.23 2.87,5.517 3.11,4.697 3.11,3.771 3.11,2.844 2.87,2.023 2.39,1.311 1.91,0.597 1.223,-0.01 0.33,-0.51 Z"
             style="fill:#231f20;fill-opacity:1;fill-rule:nonzero;stroke:none"
             id="path18097" /></g><g
           id="g18099"
           transform="translate(85.4296,276.1992)"><path
             d="M 0,0 H 0.88 L 3.37,-6.03 5.87,0 H 6.72 L 3.71,-7.05 h -0.7 z"
             style="fill:#231f20;fill-opacity:1;fill-rule:nonzero;stroke:none"
             id="path18101" /></g><g
           id="g18103"
           transform="translate(97.1896,272.0996)"><path
             d="m 0,0 c -0.02,0.231 -0.07,0.452 -0.15,0.661 -0.08,0.208 -0.189,0.393 -0.325,0.552 -0.137,0.159 -0.303,0.285 -0.5,0.378 -0.197,0.093 -0.422,0.138 -0.675,0.138 -0.22,0 -0.427,-0.042 -0.62,-0.128 C -2.464,1.514 -2.633,1.394 -2.78,1.237 -2.927,1.082 -3.048,0.897 -3.145,0.686 -3.242,0.474 -3.303,0.245 -3.33,0 Z m -3.33,-0.631 c 0.027,-0.273 0.093,-0.516 0.2,-0.729 0.107,-0.214 0.243,-0.394 0.41,-0.54 0.167,-0.147 0.353,-0.259 0.56,-0.335 0.207,-0.078 0.423,-0.116 0.65,-0.116 0.36,0 0.668,0.067 0.925,0.201 0.257,0.132 0.491,0.309 0.705,0.53 L 0.6,-2.051 c -0.26,-0.293 -0.557,-0.528 -0.89,-0.705 -0.333,-0.176 -0.747,-0.265 -1.24,-0.265 -0.353,0 -0.687,0.066 -1,0.196 -0.314,0.13 -0.587,0.313 -0.82,0.55 -0.233,0.236 -0.418,0.521 -0.555,0.855 -0.137,0.333 -0.205,0.699 -0.205,1.1 0,0.373 0.062,0.724 0.185,1.054 0.123,0.33 0.295,0.618 0.515,0.861 0.22,0.243 0.482,0.434 0.785,0.575 0.303,0.14 0.635,0.21 0.995,0.21 0.38,0 0.72,-0.072 1.02,-0.215 C -0.31,2.021 -0.057,1.826 0.15,1.58 0.357,1.333 0.513,1.043 0.62,0.71 0.727,0.376 0.78,0.02 0.78,-0.36 v -0.116 c 0,-0.043 -0.004,-0.094 -0.01,-0.155 z"
             style="fill:#231f20;fill-opacity:1;fill-rule:nonzero;stroke:none"
             id="path18105" /></g><g
           id="g18107"
           transform="translate(99.3195,274.3691)"><path
             d="m 0,0 h 0.77 v -1.35 c 0.093,0.213 0.21,0.411 0.35,0.59 0.14,0.18 0.3,0.335 0.48,0.465 0.18,0.13 0.377,0.229 0.59,0.295 0.213,0.066 0.443,0.097 0.69,0.09 V -0.74 H 2.82 C 2.54,-0.74 2.275,-0.79 2.025,-0.89 1.775,-0.99 1.557,-1.14 1.37,-1.34 1.183,-1.54 1.037,-1.788 0.93,-2.085 0.823,-2.382 0.77,-2.724 0.77,-3.11 V -5.17 H 0 Z"
             style="fill:#231f20;fill-opacity:1;fill-rule:nonzero;stroke:none"
             id="path18109" /></g><g
           id="g18111"
           transform="translate(105.0795,269.0996)"><path
             d="M 0,0 C -0.373,0 -0.75,0.068 -1.13,0.205 -1.51,0.341 -1.847,0.526 -2.14,0.76 l 0.39,0.55 c 0.28,-0.214 0.572,-0.377 0.875,-0.491 0.303,-0.113 0.608,-0.17 0.915,-0.17 0.313,0 0.57,0.074 0.77,0.22 0.2,0.148 0.3,0.347 0.3,0.601 V 1.489 C 1.11,1.616 1.075,1.727 1.005,1.819 0.935,1.913 0.84,1.994 0.72,2.064 0.6,2.135 0.462,2.196 0.305,2.25 0.148,2.303 -0.013,2.353 -0.18,2.399 -0.38,2.46 -0.582,2.524 -0.785,2.595 -0.988,2.665 -1.172,2.753 -1.335,2.859 -1.498,2.966 -1.632,3.1 -1.735,3.26 -1.838,3.42 -1.89,3.619 -1.89,3.859 V 3.88 c 0,0.22 0.043,0.421 0.13,0.604 0.087,0.184 0.208,0.34 0.365,0.471 0.157,0.13 0.343,0.23 0.56,0.3 0.217,0.069 0.452,0.104 0.705,0.104 0.32,0 0.643,-0.051 0.97,-0.154 C 1.167,5.102 1.463,4.963 1.73,4.79 L 1.38,4.21 C 1.14,4.363 0.888,4.484 0.625,4.574 0.362,4.665 0.103,4.71 -0.15,4.71 -0.457,4.71 -0.7,4.638 -0.88,4.494 -1.06,4.352 -1.15,4.173 -1.15,3.96 V 3.939 c 0,-0.12 0.037,-0.224 0.11,-0.314 C -0.967,3.534 -0.868,3.456 -0.745,3.39 -0.622,3.323 -0.48,3.263 -0.32,3.21 -0.16,3.156 0.007,3.103 0.18,3.05 0.38,2.989 0.578,2.923 0.775,2.85 0.972,2.776 1.15,2.683 1.31,2.569 1.47,2.456 1.598,2.319 1.695,2.159 1.792,2 1.84,1.803 1.84,1.569 V 1.55 C 1.84,1.303 1.792,1.085 1.695,0.895 1.598,0.705 1.468,0.543 1.305,0.409 1.142,0.276 0.948,0.175 0.725,0.104 0.502,0.034 0.26,0 0,0"
             style="fill:#231f20;fill-opacity:1;fill-rule:nonzero;stroke:none"
             id="path18113" /></g><g
           id="g18115"
           transform="translate(108.7794,275.1894)"><path
             d="M 0,0 C 0.1,0.38 0.223,0.649 0.37,0.81 0.516,0.97 0.71,1.05 0.95,1.05 1.063,1.05 1.18,1.028 1.3,0.984 1.42,0.941 1.54,0.895 1.66,0.845 1.78,0.795 1.893,0.75 2,0.71 2.107,0.67 2.203,0.649 2.29,0.649 c 0.133,0 0.235,0.038 0.305,0.111 0.07,0.073 0.142,0.2 0.215,0.38 L 3.28,1.01 C 3.18,0.63 3.057,0.359 2.91,0.2 2.763,0.04 2.57,-0.04 2.33,-0.04 2.217,-0.04 2.1,-0.021 1.98,0.02 1.86,0.06 1.74,0.104 1.62,0.154 1.5,0.205 1.386,0.251 1.28,0.295 1.173,0.338 1.077,0.359 0.99,0.359 0.857,0.359 0.755,0.323 0.685,0.25 0.615,0.177 0.543,0.05 0.47,-0.13 Z m 1.266,-5.471 c 0.239,0 0.461,0.034 0.667,0.1 0.206,0.066 0.387,0.161 0.544,0.284 0.156,0.123 0.279,0.269 0.368,0.438 0.09,0.169 0.135,0.356 0.135,0.562 v 0.478 C 2.787,-3.557 2.568,-3.507 2.322,-3.46 2.076,-3.413 1.794,-3.391 1.475,-3.391 0.997,-3.391 0.626,-3.485 0.364,-3.674 0.101,-3.863 -0.03,-4.113 -0.03,-4.425 v -0.02 c 0,-0.159 0.035,-0.304 0.105,-0.433 0.069,-0.13 0.164,-0.237 0.284,-0.323 C 0.478,-5.288 0.616,-5.354 0.772,-5.4 0.928,-5.447 1.093,-5.471 1.266,-5.471 M 1.11,-6.101 c -0.24,0 -0.477,0.035 -0.71,0.101 -0.233,0.066 -0.44,0.168 -0.62,0.305 -0.18,0.136 -0.325,0.304 -0.435,0.505 -0.11,0.2 -0.165,0.433 -0.165,0.7 v 0.019 c 0,0.281 0.053,0.526 0.16,0.736 0.107,0.21 0.258,0.384 0.455,0.525 0.197,0.14 0.43,0.246 0.7,0.319 0.27,0.074 0.568,0.111 0.895,0.111 0.333,0 0.621,-0.02 0.865,-0.06 C 2.498,-2.88 2.737,-2.934 2.97,-3 v 0.158 c 0,0.457 -0.133,0.804 -0.4,1.039 C 2.303,-1.568 1.927,-1.45 1.44,-1.45 1.133,-1.45 0.855,-1.483 0.605,-1.55 0.355,-1.617 0.11,-1.707 -0.13,-1.82 l -0.23,0.633 c 0.287,0.135 0.577,0.244 0.87,0.325 0.293,0.081 0.63,0.122 1.01,0.122 0.733,0 1.29,-0.191 1.67,-0.571 C 3.55,-1.67 3.73,-2.177 3.73,-2.83 V -5.99 H 2.97 v 0.769 C 2.79,-5.454 2.548,-5.658 2.245,-5.835 1.942,-6.012 1.563,-6.101 1.11,-6.101"
             style="fill:#231f20;fill-opacity:1;fill-rule:nonzero;stroke:none"
             id="path18117" /></g><g
           id="g18119"
           transform="translate(116.5193,269.7695)"><path
             d="M 0,0 C 0.28,0 0.537,0.053 0.77,0.16 1.003,0.267 1.203,0.41 1.37,0.59 1.537,0.77 1.667,0.979 1.76,1.22 1.853,1.46 1.9,1.716 1.9,1.989 V 2.01 C 1.9,2.29 1.852,2.551 1.755,2.795 1.658,3.038 1.523,3.251 1.35,3.435 1.177,3.618 0.973,3.763 0.74,3.87 0.507,3.977 0.253,4.029 -0.02,4.029 -0.3,4.029 -0.557,3.977 -0.79,3.87 -1.023,3.763 -1.222,3.62 -1.385,3.439 -1.548,3.26 -1.677,3.048 -1.77,2.805 -1.863,2.562 -1.91,2.303 -1.91,2.029 V 2.01 c 0,-0.281 0.048,-0.542 0.145,-0.785 0.097,-0.244 0.23,-0.455 0.4,-0.635 C -1.195,0.41 -0.993,0.267 -0.76,0.16 -0.527,0.053 -0.273,0 0,0 m -0.02,-0.69 c -0.387,0 -0.743,0.072 -1.07,0.214 -0.327,0.144 -0.61,0.337 -0.85,0.58 -0.24,0.244 -0.427,0.527 -0.56,0.851 -0.133,0.323 -0.2,0.668 -0.2,1.034 V 2.01 c 0,0.366 0.067,0.713 0.2,1.04 0.133,0.326 0.32,0.613 0.56,0.86 0.24,0.246 0.525,0.442 0.855,0.585 C -0.755,4.638 -0.393,4.71 0,4.71 0.387,4.71 0.745,4.638 1.075,4.495 1.405,4.352 1.69,4.158 1.93,3.915 2.17,3.671 2.357,3.388 2.49,3.064 2.623,2.741 2.69,2.396 2.69,2.029 V 2.01 C 2.69,1.643 2.622,1.296 2.485,0.97 2.348,0.643 2.16,0.356 1.92,0.109 1.68,-0.137 1.393,-0.332 1.06,-0.476 0.727,-0.618 0.367,-0.69 -0.02,-0.69"
             style="fill:#231f20;fill-opacity:1;fill-rule:nonzero;stroke:none"
             id="path18121" /></g><g
           id="g18123"
           transform="translate(123.0891,274.3691)"><path
             d="M 0,0 H 0.85 L 2.59,-4.29 4.34,0 H 5.17 L 2.92,-5.21 H 2.24 Z"
             style="fill:#231f20;fill-opacity:1;fill-rule:nonzero;stroke:none"
             id="path18125" /></g><g
           id="g18127"
           transform="translate(133.2591,272.0996)"><path
             d="m 0,0 c -0.02,0.231 -0.07,0.452 -0.15,0.661 -0.08,0.208 -0.189,0.393 -0.325,0.552 -0.137,0.159 -0.303,0.285 -0.5,0.378 -0.197,0.093 -0.422,0.138 -0.675,0.138 -0.22,0 -0.427,-0.042 -0.62,-0.128 C -2.464,1.514 -2.633,1.394 -2.78,1.237 -2.927,1.082 -3.048,0.897 -3.145,0.686 -3.242,0.474 -3.303,0.245 -3.33,0 Z m -3.33,-0.631 c 0.027,-0.273 0.093,-0.516 0.2,-0.729 0.107,-0.214 0.243,-0.394 0.41,-0.54 0.167,-0.147 0.353,-0.259 0.56,-0.335 0.207,-0.078 0.423,-0.116 0.65,-0.116 0.36,0 0.668,0.067 0.925,0.201 0.257,0.132 0.491,0.309 0.705,0.53 L 0.6,-2.051 c -0.26,-0.293 -0.557,-0.528 -0.89,-0.705 -0.333,-0.176 -0.747,-0.265 -1.24,-0.265 -0.353,0 -0.687,0.066 -1,0.196 -0.314,0.13 -0.587,0.313 -0.82,0.55 -0.233,0.236 -0.418,0.521 -0.555,0.855 -0.137,0.333 -0.205,0.699 -0.205,1.1 0,0.373 0.062,0.724 0.185,1.054 0.123,0.33 0.295,0.618 0.515,0.861 0.22,0.243 0.482,0.434 0.785,0.575 0.303,0.14 0.635,0.21 0.995,0.21 0.38,0 0.72,-0.072 1.02,-0.215 C -0.31,2.021 -0.057,1.826 0.15,1.58 0.357,1.333 0.513,1.043 0.62,0.71 0.727,0.376 0.78,0.02 0.78,-0.36 v -0.116 c 0,-0.043 -0.004,-0.094 -0.01,-0.155 z"
             style="fill:#231f20;fill-opacity:1;fill-rule:nonzero;stroke:none"
             id="path18129" /></g><g
           id="g18131"
           transform="translate(135.3889,274.3691)"><path
             d="m 0,0 h 0.77 v -1.35 c 0.093,0.213 0.21,0.411 0.35,0.59 0.14,0.18 0.3,0.335 0.48,0.465 0.18,0.13 0.377,0.229 0.59,0.295 0.213,0.066 0.443,0.097 0.69,0.09 V -0.74 H 2.82 C 2.54,-0.74 2.275,-0.79 2.025,-0.89 1.775,-0.99 1.557,-1.14 1.37,-1.34 1.183,-1.54 1.037,-1.788 0.93,-2.085 0.823,-2.382 0.77,-2.724 0.77,-3.11 V -5.17 H 0 Z"
             style="fill:#231f20;fill-opacity:1;fill-rule:nonzero;stroke:none"
             id="path18133" /></g><g
           id="g18135"
           transform="translate(141.1689,269.1093)"><path
             d="M 0,0 C -0.207,0 -0.4,0.026 -0.58,0.08 -0.76,0.133 -0.915,0.218 -1.045,0.335 -1.175,0.451 -1.277,0.604 -1.35,0.79 -1.423,0.977 -1.46,1.2 -1.46,1.46 v 3.12 h -0.72 v 0.68 h 0.72 v 1.56 h 0.77 V 5.26 H 0.95 V 4.58 H -0.69 V 1.567 c 0,-0.319 0.08,-0.542 0.24,-0.668 C -0.29,0.773 -0.08,0.71 0.18,0.71 0.313,0.71 0.438,0.723 0.555,0.748 0.672,0.772 0.797,0.816 0.93,0.88 V 0.22 C 0.797,0.146 0.655,0.092 0.505,0.055 0.355,0.019 0.187,0 0,0"
             style="fill:#231f20;fill-opacity:1;fill-rule:nonzero;stroke:none"
             id="path18137" /></g><path
           d="m 143.549,274.369 h 0.77 v -5.17 h -0.77 z m -0.05,1.981 h 0.88 v -0.851 h -0.88 z"
           style="fill:#231f20;fill-opacity:1;fill-rule:nonzero;stroke:none"
           id="path18139" /><g
           id="g18141"
           transform="translate(148.4386,269.0791)"><path
             d="m 0,0 c -0.38,0 -0.732,0.072 -1.055,0.215 -0.323,0.143 -0.603,0.337 -0.84,0.58 -0.237,0.243 -0.422,0.528 -0.555,0.855 -0.133,0.327 -0.2,0.67 -0.2,1.03 V 2.7 c 0,0.366 0.067,0.713 0.2,1.04 0.133,0.326 0.318,0.614 0.555,0.861 0.237,0.246 0.517,0.441 0.84,0.585 C -0.732,5.328 -0.38,5.4 0,5.4 0.247,5.4 0.47,5.377 0.67,5.33 0.87,5.283 1.053,5.219 1.22,5.135 1.387,5.052 1.54,4.953 1.68,4.84 1.82,4.727 1.95,4.606 2.07,4.48 L 1.56,3.94 C 1.353,4.153 1.128,4.337 0.885,4.49 0.642,4.644 0.343,4.72 -0.01,4.72 -0.27,4.72 -0.513,4.668 -0.74,4.565 -0.967,4.462 -1.163,4.32 -1.33,4.14 -1.497,3.96 -1.627,3.748 -1.72,3.505 -1.813,3.262 -1.86,3 -1.86,2.72 V 2.7 c 0,-0.28 0.048,-0.542 0.145,-0.785 0.097,-0.243 0.23,-0.457 0.4,-0.64 0.17,-0.183 0.37,-0.327 0.6,-0.43 0.23,-0.104 0.482,-0.155 0.755,-0.155 0.333,0 0.628,0.074 0.885,0.22 0.257,0.147 0.488,0.33 0.695,0.55 L 2.11,1 C 1.85,0.707 1.555,0.467 1.225,0.28 0.895,0.094 0.487,0 0,0"
             style="fill:#231f20;fill-opacity:1;fill-rule:nonzero;stroke:none"
             id="path18143" /></g><g
           id="g18145"
           transform="translate(153.5143,269.7187)"><path
             d="M 0,0 C 0.239,0 0.462,0.033 0.668,0.1 0.874,0.166 1.055,0.261 1.211,0.384 1.367,0.507 1.49,0.652 1.58,0.821 1.669,0.99 1.714,1.178 1.714,1.384 V 1.861 C 1.521,1.914 1.302,1.964 1.057,2.011 0.811,2.058 0.528,2.08 0.209,2.08 -0.269,2.08 -0.64,1.985 -0.902,1.797 -1.165,1.607 -1.296,1.357 -1.296,1.046 V 1.025 c 0,-0.159 0.035,-0.303 0.105,-0.432 0.07,-0.13 0.164,-0.238 0.284,-0.323 0.12,-0.087 0.257,-0.154 0.414,-0.2 C -0.337,0.023 -0.173,0 0,0 m -0.156,-0.63 c -0.24,0 -0.476,0.034 -0.71,0.101 -0.233,0.066 -0.44,0.168 -0.62,0.304 -0.18,0.137 -0.325,0.305 -0.435,0.505 -0.11,0.2 -0.165,0.434 -0.165,0.7 V 1 c 0,0.28 0.054,0.525 0.16,0.735 0.107,0.21 0.259,0.385 0.455,0.526 0.197,0.139 0.43,0.246 0.7,0.319 0.27,0.073 0.569,0.11 0.895,0.11 0.334,0 0.622,-0.019 0.865,-0.059 0.244,-0.04 0.482,-0.094 0.715,-0.16 v 0.158 c 0,0.457 -0.133,0.804 -0.4,1.039 -0.266,0.234 -0.643,0.353 -1.13,0.353 -0.306,0 -0.585,-0.034 -0.835,-0.1 C -0.911,3.854 -1.156,3.764 -1.396,3.65 l -0.23,0.634 c 0.287,0.135 0.577,0.243 0.87,0.324 0.294,0.081 0.63,0.122 1.01,0.122 0.734,0 1.29,-0.19 1.67,-0.57 0.36,-0.359 0.54,-0.866 0.54,-1.519 V -0.52 H 1.704 V 0.25 C 1.524,0.017 1.283,-0.187 0.979,-0.364 0.676,-0.541 0.298,-0.63 -0.156,-0.63"
             style="fill:#231f20;fill-opacity:1;fill-rule:nonzero;stroke:none"
             id="path18147" /></g><path
           d="m 157.679,276.499 h 0.77 v -7.3 h -0.77 z"
           style="fill:#231f20;fill-opacity:1;fill-rule:nonzero;stroke:none"
           id="path18149" /></g></g></g></svg>
