<svg width="232.065" height="54.39" xmlns="http://www.w3.org/2000/svg"><defs><clipPath clipPathUnits="userSpaceOnUse" id="prefix__a"><path d="M0 595.275h841.89V0H0z"/></clipPath></defs><path d="M72.848 396.872h10.386v34.667H72.848zM163.564 396.873l-12.81 34.666h-11.77l-12.81-34.666h11.495l7.2 21.977 7.202-21.977z"/><g clip-path="url(#prefix__a)" transform="matrix(.74426 0 0 -.74426 -155.599 355.974)"><path d="M277.463 188.35c0 7.748 5.868 13.729 13.76 13.729 5.038 0 9.505-2.653 11.737-6.657l-6.802-3.952c-.884 1.82-2.753 2.91-5.038 2.91-3.374 0-5.867-2.441-5.867-6.03 0-3.588 2.493-6.032 5.867-6.032 2.285 0 4.207 1.093 5.038 2.913l6.802-3.901c-2.232-4.056-6.647-6.708-11.736-6.708-7.893 0-13.761 5.98-13.761 13.728M234.63 182.318c-2.962 0-5.541 1.936-5.541 5.784 0 4.265 2.467 6.28 5.568 6.28 3.375 0 5.855-2.444 5.855-6.033 0-3.588-2.507-6.03-5.882-6.03m-.104 19.76c-6.687 0-12.648-5.975-12.648-12.723l.019-30.142h8.254v17.07c1-.927 2.907-1.662 4.639-1.662 7.893 0 13.629 5.98 13.629 13.727 0 7.748-6 13.73-13.893 13.73"/><path d="M212.8 215.82c-2.736 0-5.024 2.291-5.024 5.03 0 2.74 2.288 5.031 5.024 5.031 2.735 0 5.024-2.29 5.024-5.03s-2.289-5.032-5.024-5.032M277.168 210.084l-12.316 12.305-12.302-12.36-14.518 7.186h-11.881v7h13.53l11.483-5.671 13.686 13.716 13.696-13.672 12.069 6.048 13.289-4.543-2.31-6.607-10.494 3.57z" fill="#dca7ac"/><path d="M208.947 141.493h11.411v-2.967h-8.12v-3.074h7.145v-2.966h-7.145v-3.183h8.228v-2.966h-11.519zM226.942 126.12c-.823 0-1.664.141-2.522.423a8.088 8.088 0 00-2.458 1.331l1.408 2.165a7.783 7.783 0 011.894-1.039c.628-.232 1.216-.347 1.765-.347.476 0 .826.08 1.05.238a.74.74 0 01.336.628v.043a.622.622 0 01-.196.455c-.13.13-.306.242-.53.336-.224.094-.48.184-.77.271-.288.087-.59.18-.908.281-.404.115-.812.256-1.223.422a4.427 4.427 0 00-1.116.65 3.199 3.199 0 00-.812.985c-.21.39-.314.866-.314 1.43v.042c0 .592.112 1.116.336 1.57.224.455.527.841.91 1.158.382.317.83.556 1.342.715a5.59 5.59 0 001.657.238c.736 0 1.483-.119 2.24-.357a8.325 8.325 0 002.09-.986l-1.256-2.273c-.577.332-1.141.596-1.69.791-.547.194-1.031.292-1.45.292-.404 0-.707-.076-.91-.228a.689.689 0 01-.302-.573v-.044c0-.159.065-.3.195-.422.129-.123.303-.238.519-.346a6.79 6.79 0 01.747-.314c.282-.1.58-.202.899-.304.404-.129.815-.285 1.234-.464a5.085 5.085 0 001.126-.66 3.27 3.27 0 00.822-.954c.217-.376.325-.83.325-1.364v-.043c0-.649-.112-1.209-.335-1.679a3.1 3.1 0 00-.942-1.158 4.235 4.235 0 00-1.418-.68 6.386 6.386 0 00-1.743-.229M238.772 126.076c-.866 0-1.671.16-2.414.477a5.947 5.947 0 00-1.916 1.29 5.9 5.9 0 00-1.256 1.904 6 6 0 00-.455 2.327v.043c0 .823.152 1.603.455 2.34a6.02 6.02 0 001.256 1.926 5.844 5.844 0 001.916 1.298c.743.32 1.562.477 2.457.477 1.098 0 2.007-.173 2.728-.519a6.125 6.125 0 001.906-1.429l-2.014-2.165a5.385 5.385 0 01-1.158.93c-.397.231-.892.347-1.483.347a2.55 2.55 0 01-1.137-.249 2.789 2.789 0 01-.887-.683 3.092 3.092 0 01-.585-1.005 3.583 3.583 0 01-.206-1.224v-.044c0-.447.068-.865.206-1.255.137-.39.336-.729.595-1.018.26-.289.57-.516.931-.682a2.869 2.869 0 011.213-.249c.548 0 1.029.112 1.44.336.411.223.819.522 1.223.898l1.927-1.948a7.397 7.397 0 00-1.927-1.527c-.722-.397-1.66-.596-2.815-.596M250.566 128.913c.476 0 .898.083 1.267.249.368.166.682.394.94.682.26.289.46.625.597 1.007.137.382.205.791.205 1.223v.043c0 .434-.072.842-.216 1.224a3.092 3.092 0 01-1.602 1.721c-.376.173-.787.26-1.234.26a3.05 3.05 0 01-1.267-.249 2.797 2.797 0 01-.942-.682 3.02 3.02 0 01-.596-1.006 3.631 3.631 0 01-.205-1.224v-.044c0-.433.072-.841.217-1.223.144-.382.353-.722.627-1.017.274-.296.596-.53.964-.705a2.906 2.906 0 011.245-.259m-.043-2.837c-.895 0-1.726.156-2.49.467a6.042 6.042 0 00-1.982 1.277 5.941 5.941 0 00-1.31 1.905 5.81 5.81 0 00-.476 2.349v.043c0 .838.159 1.621.477 2.35a6.006 6.006 0 001.32 1.916 6.272 6.272 0 001.992 1.299c.765.318 1.603.476 2.512.476.895 0 1.725-.155 2.49-.465a6.08 6.08 0 001.98-1.277 5.975 5.975 0 001.31-1.906 5.826 5.826 0 00.477-2.349v-.044c0-.837-.16-1.62-.476-2.349a5.987 5.987 0 00-1.321-1.916 6.277 6.277 0 00-1.992-1.299 6.496 6.496 0 00-2.511-.477M258.958 142.143h3.291v-15.806h-3.291zM269.305 128.393c.779 0 1.403.187 1.873.563.468.375.704.866.704 1.472v.585a5.093 5.093 0 01-2.101.433c-.707 0-1.263-.138-1.667-.41-.404-.276-.606-.672-.606-1.193v-.043c0-.447.166-.795.497-1.039.332-.246.766-.368 1.3-.368m-.996-2.273c-.548 0-1.065.075-1.548.227a3.627 3.627 0 00-1.267.683c-.36.302-.646.674-.855 1.114-.21.44-.314.95-.314 1.526v.045c0 .635.115 1.183.347 1.645.23.463.55.845.963 1.148.41.303.902.53 1.472.682a7.403 7.403 0 001.895.227 8.25 8.25 0 001.548-.13c.44-.086.869-.202 1.288-.346v.194c0 .694-.21 1.22-.628 1.58-.42.361-1.04.54-1.862.54a7.693 7.693 0 01-1.678-.16 11.27 11.27 0 01-1.526-.467l-.823 2.512c.635.274 1.299.498 1.992.672.692.173 1.53.26 2.512.26.908 0 1.685-.113 2.327-.336.642-.224 1.173-.545 1.59-.964.435-.433.752-.963.954-1.59.202-.629.303-1.333.303-2.112v-6.734h-3.183v1.256a4.575 4.575 0 00-1.45-1.072c-.563-.267-1.25-.4-2.057-.4M289.657 126.12c-1.155 0-2.288.198-3.4.596a8.996 8.996 0 00-3.031 1.83l1.97 2.36a9.869 9.869 0 012.133-1.344 5.706 5.706 0 012.393-.498c.693 0 1.23.127 1.613.38.382.252.574.602.574 1.05v.043c0 .217-.04.408-.12.574-.08.165-.232.321-.456.465-.224.145-.536.29-.933.434-.398.143-.916.295-1.553.453a19.13 19.13 0 00-2.084.63c-.622.23-1.15.514-1.585.854a3.47 3.47 0 00-1.01 1.266c-.238.506-.357 1.134-.357 1.885v.043c0 .693.129 1.317.387 1.873.258.555.62 1.035 1.086 1.44a4.9 4.9 0 001.67.931c.647.216 1.36.324 2.14.324 1.11 0 2.132-.166 3.064-.498a8.901 8.901 0 002.565-1.429l-1.732-2.512c-.68.462-1.342.827-1.992 1.094a5.089 5.089 0 01-1.948.401c-.65 0-1.137-.126-1.461-.379-.326-.253-.488-.567-.488-.942v-.044c0-.245.047-.458.14-.638.095-.18.265-.343.512-.488.245-.143.582-.28 1.008-.41.427-.13.967-.282 1.618-.456.767-.202 1.45-.43 2.05-.682.602-.252 1.109-.555 1.52-.909.414-.354.725-.768.935-1.245.209-.476.314-1.047.314-1.71v-.044c0-.75-.136-1.418-.408-2.002a4.109 4.109 0 00-1.14-1.472 5.12 5.12 0 00-1.746-.91c-.676-.21-1.425-.314-2.248-.314M301.312 126.12c-1.255 0-2.227.383-2.913 1.147-.686.766-1.027 1.82-1.027 3.162v7.512h3.29v-6.457c0-.778.174-1.365.52-1.76.346-.396.837-.595 1.472-.595.636 0 1.137.2 1.505.595.368.395.552.982.552 1.76v6.457H308v-11.604h-3.29v1.66a7.341 7.341 0 00-.616-.71 4.347 4.347 0 00-.747-.6 3.794 3.794 0 00-.91-.415 3.908 3.908 0 00-1.126-.152M316.727 128.913c.39 0 .754.076 1.094.228.34.151.638.368.898.649s.466.617.617 1.007c.152.389.228.83.228 1.32v.044c0 .477-.076.913-.228 1.31a3.113 3.113 0 01-.617 1.017c-.26.281-.559.498-.898.651-.34.151-.704.226-1.094.226-.39 0-.754-.075-1.093-.226a2.632 2.632 0 01-.888-.651 3.232 3.232 0 01-.606-1.017 3.633 3.633 0 01-.227-1.31v-.044c0-.475.075-.912.227-1.309.151-.398.354-.737.606-1.018a2.6 2.6 0 01.888-.649 2.64 2.64 0 011.093-.228m-6.062 9.028h3.291v-1.667c.404.549.891 1 1.461 1.354.57.353 1.29.53 2.155.53.678 0 1.335-.13 1.97-.39a4.854 4.854 0 001.69-1.158c.49-.512.883-1.14 1.18-1.884.294-.743.442-1.598.442-2.565v-.044c0-.967-.148-1.822-.443-2.565-.296-.743-.686-1.371-1.169-1.884a4.768 4.768 0 00-1.678-1.158 5.21 5.21 0 00-1.992-.39c-.88 0-1.606.173-2.177.52-.57.346-1.05.751-1.439 1.212v-4.979h-3.29zM332.541 133.049c-.101.736-.361 1.332-.779 1.786-.419.455-.974.683-1.668.683-.692 0-1.252-.225-1.678-.672-.425-.447-.704-1.047-.833-1.797zm-2.122-6.973c-.866 0-1.67.145-2.414.434-.743.289-1.385.7-1.927 1.234a5.71 5.71 0 00-1.266 1.895c-.304.728-.455 1.54-.455 2.435v.043c0 .824.141 1.603.422 2.339a5.955 5.955 0 001.18 1.927 5.538 5.538 0 001.808 1.299c.7.318 1.476.476 2.327.476.967 0 1.805-.172 2.512-.52a5.111 5.111 0 001.765-1.396 5.83 5.83 0 001.039-2.013 8.356 8.356 0 00.325-2.783 17.545 17.545 0 00-.032-.454h-8.077c.159-.751.487-1.317.985-1.7.498-.382 1.115-.573 1.851-.573.549 0 1.04.094 1.473.28.433.189.88.49 1.342.91l1.884-1.667a5.84 5.84 0 00-1.992-1.591c-.779-.382-1.696-.575-2.75-.575M337.841 137.941h3.291v-2.338c.332.794.787 1.43 1.364 1.905.577.477 1.357.694 2.338.65v-3.443h-.173c-1.097 0-1.96-.332-2.587-.996-.628-.664-.942-1.696-.942-3.095v-4.287h-3.29zM346.435 137.941h3.291v-11.604h-3.291zM358.122 128.913c.477 0 .898.083 1.267.249.368.166.682.394.942.682.26.289.458.625.595 1.007.137.382.206.791.206 1.223v.043c0 .434-.072.842-.217 1.224a3.076 3.076 0 01-1.602 1.721c-.376.173-.787.26-1.234.26-.477 0-.898-.083-1.267-.249a2.783 2.783 0 01-.941-.682 3.003 3.003 0 01-.596-1.006 3.607 3.607 0 01-.206-1.224v-.044c0-.433.073-.841.217-1.223a3.129 3.129 0 011.591-1.722 2.906 2.906 0 011.245-.259m-.043-2.837c-.895 0-1.725.156-2.491.467a6.054 6.054 0 00-1.98 1.277 5.947 5.947 0 00-1.311 1.905 5.826 5.826 0 00-.475 2.349v.043c0 .838.158 1.621.475 2.35a6.012 6.012 0 001.322 1.916 6.26 6.26 0 001.992 1.299c.765.318 1.6.476 2.51.476.897 0 1.726-.155 2.49-.465a6.095 6.095 0 001.983-1.277 5.972 5.972 0 001.309-1.906 5.81 5.81 0 00.476-2.349v-.044a5.81 5.81 0 00-.476-2.349 5.984 5.984 0 00-1.32-1.916 6.3 6.3 0 00-1.992-1.299 6.505 6.505 0 00-2.512-.477M366.416 137.941h3.291v-2.338c.332.794.786 1.43 1.364 1.905.577.477 1.357.694 2.338.65v-3.443h-.173c-1.097 0-1.96-.332-2.588-.996-.628-.664-.94-1.696-.94-3.095v-4.287h-3.292zM215.075 106.395c.389 0 .754.076 1.094.229.339.15.635.366.887.648.252.281.455.62.606 1.018.152.396.227.833.227 1.31v.042c0 .478-.075.914-.227 1.312a3.232 3.232 0 01-.606 1.016 2.622 2.622 0 01-.887.65c-.34.151-.705.227-1.094.227-.39 0-.754-.075-1.094-.226a2.744 2.744 0 01-.898-.65 3.122 3.122 0 01-.617-1.009 3.6 3.6 0 01-.227-1.32v-.043c0-.476.075-.913.227-1.309.15-.398.357-.737.617-1.018.26-.282.559-.498.898-.649.34-.153.704-.228 1.094-.228m-.845-2.793c-.678 0-1.335.13-1.97.39a4.854 4.854 0 00-1.69 1.158c-.49.512-.883 1.141-1.18 1.884-.294.743-.442 1.598-.442 2.565v.043c0 .968.148 1.822.443 2.566.296.744.686 1.372 1.169 1.884a4.762 4.762 0 001.679 1.158c.635.26 1.299.39 1.99.39.882 0 1.607-.173 2.178-.519a5.824 5.824 0 001.439-1.213v5.716h3.29v-15.806h-3.29v1.668c-.404-.549-.891-1-1.461-1.354-.571-.353-1.29-.53-2.155-.53M231.4 110.531c-.102.736-.361 1.331-.78 1.786-.418.454-.974.682-1.667.682-.693 0-1.252-.224-1.678-.67-.426-.448-.703-1.048-.833-1.798zm-2.122-6.973c-.866 0-1.671.145-2.414.434a5.57 5.57 0 00-3.194 3.13c-.303.727-.455 1.54-.455 2.434v.043c0 .823.14 1.603.423 2.34a5.938 5.938 0 001.18 1.926 5.527 5.527 0 001.808 1.3c.7.316 1.475.475 2.327.475.967 0 1.804-.172 2.51-.519a5.125 5.125 0 001.766-1.397 5.805 5.805 0 001.039-2.013 8.32 8.32 0 00.325-2.783 11.641 11.641 0 00-.032-.454h-8.076c.159-.752.487-1.318.985-1.7.498-.383 1.116-.574 1.85-.574.55 0 1.04.094 1.474.282.432.188.879.49 1.342.91l1.883-1.668a5.837 5.837 0 00-1.991-1.59c-.78-.384-1.696-.576-2.75-.576M248.872 103.603c-1.155 0-2.288.198-3.399.595a9.001 9.001 0 00-3.03 1.83l1.97 2.36a9.893 9.893 0 012.131-1.344 5.706 5.706 0 012.393-.497c.693 0 1.23.126 1.613.378.382.253.574.604.574 1.052v.042c0 .218-.04.408-.12.574-.08.165-.23.321-.456.465-.224.145-.535.29-.933.434-.398.143-.915.295-1.552.454-.768.187-1.462.397-2.085.628-.622.23-1.15.515-1.584.855a3.449 3.449 0 00-1.01 1.267c-.239.505-.358 1.133-.358 1.884v.043c0 .693.13 1.317.387 1.873.258.556.62 1.036 1.086 1.44a4.892 4.892 0 001.67.931 6.757 6.757 0 002.14.324c1.111 0 2.133-.166 3.064-.498a8.888 8.888 0 002.565-1.429l-1.732-2.512c-.678.462-1.342.827-1.992 1.094a5.089 5.089 0 01-1.948.401c-.65 0-1.137-.127-1.462-.379-.325-.253-.487-.567-.487-.943v-.043c0-.246.047-.458.141-.638.094-.18.264-.343.51-.489.246-.143.583-.28 1.01-.41.427-.13.966-.28 1.617-.455.767-.202 1.451-.43 2.052-.682a5.713 5.713 0 001.52-.909c.412-.354.723-.768.933-1.245.21-.476.314-1.047.314-1.71v-.044c0-.75-.136-1.418-.408-2.004a4.11 4.11 0 00-1.14-1.47 5.127 5.127 0 00-1.745-.91c-.677-.21-1.426-.314-2.249-.314M260.934 105.876c.78 0 1.403.187 1.873.562.47.376.703.867.703 1.473v.585a5.13 5.13 0 01-2.099.433c-.708 0-1.264-.138-1.668-.411-.404-.275-.606-.672-.606-1.192v-.043c0-.447.166-.794.498-1.04.332-.245.765-.367 1.3-.367m-.997-2.273c-.549 0-1.065.075-1.548.227a3.627 3.627 0 00-1.267.682 3.255 3.255 0 00-.855 1.115c-.209.439-.313.949-.313 1.526v.043c0 .636.115 1.183.346 1.646.231.462.552.845.963 1.148.411.303.902.53 1.473.682a7.384 7.384 0 001.894.227 8.25 8.25 0 001.548-.13c.44-.086.87-.203 1.288-.347v.195c0 .694-.209 1.22-.628 1.58-.419.362-1.039.542-1.862.542a7.695 7.695 0 01-1.678-.162 11.313 11.313 0 01-1.526-.466l-.823 2.512c.635.274 1.3.498 1.992.67.693.175 1.53.262 2.512.262.91 0 1.685-.113 2.327-.336.642-.225 1.173-.545 1.591-.964.433-.433.75-.964.953-1.591.202-.63.303-1.332.303-2.111v-6.735h-3.182v1.256a4.587 4.587 0 00-1.45-1.071c-.564-.267-1.25-.4-2.058-.4M275.289 120.534l2.837-1.234-2.772-2.599h-2.511zm-2.251-16.932c-1.256 0-2.227.382-2.913 1.148-.685.764-1.028 1.818-1.028 3.161v7.513h3.29v-6.457c0-.779.174-1.366.52-1.762.347-.396.838-.594 1.472-.594.636 0 1.138.198 1.506.594.368.396.55.983.55 1.762v6.457h3.293v-11.606h-3.292v1.66a7.065 7.065 0 00-.616-.709 4.313 4.313 0 00-.747-.599 3.674 3.674 0 00-.91-.415 3.838 3.838 0 00-1.125-.153M287.978 106.395a2.624 2.624 0 011.981.877c.252.281.455.62.606 1.018.152.396.228.833.228 1.31v.042c0 .478-.076.914-.228 1.312a3.232 3.232 0 01-.606 1.016 2.625 2.625 0 01-.888.65 2.655 2.655 0 01-1.093.227 2.655 2.655 0 01-1.992-.877 3.122 3.122 0 01-.617-1.008 3.6 3.6 0 01-.227-1.32v-.043c0-.476.075-.913.227-1.309.151-.398.357-.737.617-1.018.26-.282.56-.498.9-.649a2.624 2.624 0 011.092-.228m-.844-2.793c-.679 0-1.336.13-1.97.39a4.846 4.846 0 00-1.688 1.158c-.492.512-.885 1.141-1.181 1.884-.295.743-.443 1.598-.443 2.565v.043c0 .968.148 1.822.443 2.566.296.744.686 1.372 1.17 1.884a4.75 4.75 0 001.678 1.158 5.2 5.2 0 001.992.39c.88 0 1.605-.173 2.176-.519a5.842 5.842 0 001.439-1.213v5.716h3.29v-15.806h-3.29v1.668c-.404-.549-.891-1-1.461-1.354-.57-.353-1.288-.53-2.154-.53M304.303 110.531c-.1.736-.36 1.331-.779 1.786-.419.454-.975.682-1.667.682-.693 0-1.253-.224-1.679-.67-.425-.448-.703-1.048-.833-1.798zm-2.122-6.973c-.866 0-1.67.145-2.414.434a5.58 5.58 0 00-1.927 1.234 5.7 5.7 0 00-1.266 1.895c-.303.728-.455 1.54-.455 2.435v.043c0 .823.141 1.603.422 2.34a5.955 5.955 0 001.18 1.926 5.527 5.527 0 001.808 1.3c.7.316 1.476.475 2.328.475.967 0 1.803-.172 2.511-.519a5.135 5.135 0 001.765-1.397 5.805 5.805 0 001.04-2.013 8.32 8.32 0 00.324-2.783 10.017 10.017 0 00-.033-.454h-8.076c.16-.752.488-1.318.985-1.7.498-.383 1.116-.574 1.852-.574.548 0 1.04.094 1.473.282.432.188.88.49 1.341.91l1.884-1.668a5.85 5.85 0 00-1.992-1.59c-.779-.384-1.696-.576-2.75-.576M348.08 139.1a1.907 1.907 0 00-1.886 1.89c0 1.028.86 1.889 1.886 1.889a1.908 1.908 0 001.887-1.89c0-1.028-.86-1.89-1.887-1.89M210.196 447.4h7.788v-26h-7.788zM278.233 447.4l-9.607-26h-8.83l-9.605 26h8.62l5.4-16.484 5.4 16.484zM278.753 434.4c0 7.748 5.868 13.73 13.762 13.73 5.036 0 9.503-2.654 11.735-6.659l-6.802-3.95c-.883 1.82-2.753 2.91-5.038 2.91-3.374 0-5.867-2.443-5.867-6.03 0-3.589 2.493-6.033 5.867-6.033 2.285 0 4.207 1.092 5.038 2.912l6.802-3.9c-2.232-4.056-6.647-6.709-11.735-6.709-7.894 0-13.762 5.981-13.762 13.73M235.92 428.368c-2.963 0-5.542 1.937-5.542 5.784 0 4.265 2.468 6.28 5.568 6.28 3.376 0 5.855-2.444 5.855-6.032s-2.506-6.032-5.881-6.032m-.104 19.761c-6.687 0-12.649-6-12.649-12.75l.019-30.164h7.965v17.12c1-.928 3.052-1.663 4.784-1.663 7.894 0 13.703 5.98 13.703 13.728 0 7.748-5.928 13.73-13.822 13.73"/><path d="M214.09 461.87c-2.736 0-5.024 2.291-5.024 5.03 0 2.74 2.288 5.032 5.024 5.032s5.024-2.292 5.024-5.032c0-2.739-2.288-5.03-5.024-5.03M278.458 456.135l-12.315 12.305-12.303-12.384-14.517 7.159h-12.171v7h13.819l11.483-5.645 13.686 13.725 13.696-13.663 12.069 6.052 13.289-4.543-2.31-6.606-10.494 3.573z" fill="#dca7ac"/><path d="M330.976 464.898h13.175v-3.425h-9.375v-3.55h8.25V454.5h-8.25v-3.675h9.5v-3.426h-13.3zM351.753 447.148c-.95 0-1.92.163-2.913.488-.99.324-1.937.837-2.837 1.537l1.625 2.5c.733-.533 1.462-.933 2.188-1.2.725-.266 1.403-.399 2.037-.399.55 0 .954.091 1.212.274.26.184.388.425.388.726v.05c0 .2-.075.375-.225.524-.15.15-.354.28-.613.388a8.81 8.81 0 01-.887.312c-.333.101-.683.208-1.05.325a13.92 13.92 0 00-1.412.488 5.022 5.022 0 00-1.288.75 3.643 3.643 0 00-.937 1.137c-.242.451-.363 1-.363 1.651v.05c0 .682.13 1.287.388 1.812.258.525.608.971 1.05 1.337a4.46 4.46 0 001.55.825 6.404 6.404 0 001.912.276c.85 0 1.713-.138 2.588-.413a9.627 9.627 0 002.412-1.137l-1.45-2.625c-.667.383-1.317.687-1.95.912-.633.225-1.192.338-1.675.338-.467 0-.817-.088-1.05-.263-.234-.175-.35-.396-.35-.663v-.05c0-.183.075-.346.225-.487.15-.142.35-.275.6-.4s.537-.247.863-.363c.324-.116.67-.233 1.037-.349.467-.15.942-.33 1.425-.539a5.867 5.867 0 001.3-.76c.383-.302.7-.668.95-1.102.25-.433.375-.958.375-1.575v-.05c0-.75-.129-1.395-.388-1.937a3.548 3.548 0 00-1.087-1.337 4.865 4.865 0 00-1.637-.788 7.443 7.443 0 00-2.013-.263M365.414 447.099c-1 0-1.93.184-2.788.55a6.849 6.849 0 00-2.212 1.488 6.832 6.832 0 00-1.451 2.199 6.954 6.954 0 00-.524 2.688v.05c0 .95.175 1.85.524 2.7.35.85.833 1.592 1.45 2.225a6.754 6.754 0 002.213 1.5c.858.367 1.804.55 2.837.55 1.267 0 2.317-.2 3.15-.6a7.1 7.1 0 002.2-1.65l-2.324-2.5c-.434.45-.88.809-1.338 1.075-.46.267-1.03.4-1.712.4-.484 0-.921-.096-1.313-.287a3.255 3.255 0 01-1.025-.787 3.603 3.603 0 01-.675-1.163 4.166 4.166 0 01-.237-1.413v-.05c0-.517.079-1 .237-1.45a3.43 3.43 0 01.688-1.174c.3-.334.658-.597 1.075-.788a3.302 3.302 0 011.399-.288c.634 0 1.188.129 1.663.388a7.01 7.01 0 011.413 1.037l2.225-2.25a8.564 8.564 0 00-2.225-1.763c-.834-.458-1.917-.687-3.25-.687M379.03 450.374c.55 0 1.039.096 1.464.287.425.192.787.454 1.087.788.3.333.529.721.688 1.162.158.442.237.912.237 1.412v.051c0 .5-.084.971-.25 1.412a3.56 3.56 0 01-1.85 1.988 3.36 3.36 0 01-1.425.299c-.55 0-1.037-.095-1.462-.287a3.227 3.227 0 01-1.088-.787 3.465 3.465 0 01-.687-1.163 4.133 4.133 0 01-.238-1.412v-.05c0-.5.084-.971.25-1.413a3.585 3.585 0 011.838-1.987c.425-.2.904-.3 1.437-.3m-.05-3.275c-1.033 0-1.992.179-2.875.538a6.98 6.98 0 00-2.287 1.474 6.859 6.859 0 00-1.513 2.2 6.709 6.709 0 00-.55 2.712v.051c0 .966.183 1.87.55 2.712a6.908 6.908 0 001.525 2.213 7.244 7.244 0 002.3 1.5c.883.366 1.85.55 2.9.55 1.033 0 1.99-.18 2.875-.537a7.058 7.058 0 002.288-1.476 6.877 6.877 0 001.512-2.2c.367-.842.55-1.746.55-2.712v-.05c0-.967-.183-1.871-.55-2.713a6.935 6.935 0 00-1.525-2.213 7.278 7.278 0 00-2.3-1.5c-.883-.366-1.85-.549-2.9-.549M388.72 465.648h3.8v-18.25h-3.8zM400.668 449.773c.9 0 1.62.217 2.163.65.54.434.813 1 .813 1.701v.674a5.789 5.789 0 01-1.113.363 6.032 6.032 0 01-1.313.137c-.817 0-1.458-.158-1.925-.474-.466-.318-.7-.776-.7-1.375v-.05c0-.518.192-.917.575-1.2.383-.284.883-.426 1.5-.426m-1.15-2.625a5.94 5.94 0 00-1.787.263 4.152 4.152 0 00-1.462.788 3.746 3.746 0 00-.988 1.287c-.242.508-.363 1.096-.363 1.763v.05c0 .733.134 1.366.4 1.9.267.533.638.974 1.113 1.324.475.351 1.04.613 1.699.788a8.516 8.516 0 002.188.263 9.35 9.35 0 001.787-.15 10.98 10.98 0 001.488-.4v.225c0 .8-.241 1.408-.725 1.825-.483.416-1.2.625-2.15.625-.734 0-1.38-.063-1.937-.188a12.915 12.915 0 01-1.762-.538l-.951 2.901c.734.316 1.5.575 2.3.774.8.2 1.767.301 2.9.301 1.05 0 1.945-.13 2.688-.388.74-.259 1.353-.63 1.836-1.112.5-.5.867-1.113 1.101-1.838.232-.725.35-1.537.35-2.438v-7.775h-3.676v1.45a5.276 5.276 0 00-1.675-1.237c-.65-.309-1.442-.463-2.375-.463M424.167 447.148c-1.333 0-2.642.23-3.925.687a10.397 10.397 0 00-3.5 2.114l2.275 2.724a11.355 11.355 0 012.462-1.549c.842-.384 1.763-.576 2.763-.576.8 0 1.421.146 1.862.438.441.291.663.695.663 1.213v.05c0 .25-.046.47-.139.662-.09.191-.267.371-.525.538-.259.166-.619.333-1.079.5-.459.166-1.056.341-1.792.524-.885.217-1.688.458-2.406.726-.719.265-1.329.595-1.83.987-.5.392-.89.88-1.165 1.462-.276.584-.414 1.31-.414 2.176v.05c0 .8.148 1.52.447 2.162a4.934 4.934 0 001.254 1.663 5.63 5.63 0 001.927 1.074c.748.25 1.572.375 2.472.375 1.283 0 2.462-.19 3.538-.574a10.276 10.276 0 002.962-1.65l-2-2.9c-.784.532-1.55.953-2.3 1.262-.75.308-1.5.463-2.25.463s-1.313-.147-1.688-.438c-.375-.292-.562-.654-.562-1.088v-.05c0-.283.054-.529.162-.737.11-.209.306-.396.59-.562.284-.167.673-.326 1.166-.476a58.635 58.635 0 011.867-.524 18.094 18.094 0 002.37-.788c.692-.292 1.276-.642 1.753-1.05a4 4 0 001.078-1.438c.242-.55.363-1.208.363-1.974v-.05c0-.867-.157-1.638-.47-2.313a4.745 4.745 0 00-1.317-1.7c-.564-.459-1.236-.809-2.016-1.05-.78-.242-1.646-.363-2.596-.363M437.625 447.148c-1.45 0-2.571.441-3.363 1.325-.791.884-1.187 2.101-1.187 3.651v8.674h3.8v-7.457c0-.897.2-1.575.6-2.032.4-.457.966-.685 1.7-.685.733 0 1.312.228 1.738.685.424.457.637 1.135.637 2.032v7.457h3.8v-13.4h-3.8v1.916a8.061 8.061 0 00-.713-.818 4.931 4.931 0 00-.862-.693 4.256 4.256 0 00-1.05-.478 4.448 4.448 0 00-1.3-.177M455.424 450.374c.45 0 .871.087 1.263.263.391.174.737.424 1.037.75.3.324.538.712.713 1.162.175.45.262.958.262 1.525v.05c0 .55-.087 1.054-.262 1.513a3.606 3.606 0 01-.713 1.174 3.063 3.063 0 01-2.3 1.013c-.45 0-.87-.088-1.262-.263a2.984 2.984 0 01-1.025-.75 3.703 3.703 0 01-.7-1.174 4.213 4.213 0 01-.263-1.513v-.05a4.2 4.2 0 01.263-1.512c.174-.459.408-.851.7-1.175a2.984 2.984 0 011.025-.75 3.04 3.04 0 011.262-.263m-7 10.425h3.8v-1.925a6.054 6.054 0 001.688 1.563c.658.408 1.488.612 2.488.612.783 0 1.541-.151 2.274-.45a5.634 5.634 0 001.95-1.337c.567-.592 1.021-1.318 1.362-2.176.342-.858.513-1.846.513-2.962v-.05c0-1.117-.17-2.104-.513-2.963-.34-.858-.79-1.584-1.349-2.174a5.492 5.492 0 00-1.938-1.338c-.733-.3-1.5-.451-2.299-.451-1.018 0-1.855.201-2.513.601a6.68 6.68 0 00-1.663 1.399v-5.75h-3.8zM473.684 455.148c-.117.851-.417 1.538-.9 2.063-.483.525-1.125.788-1.925.788s-1.446-.259-1.938-.776c-.49-.516-.812-1.208-.962-2.075zm-2.45-8.05c-1 0-1.929.167-2.787.5-.859.333-1.6.81-2.225 1.425a6.601 6.601 0 00-1.463 2.187c-.35.842-.525 1.78-.525 2.813v.051c0 .95.162 1.85.488 2.7a6.837 6.837 0 001.362 2.225 6.434 6.434 0 002.087 1.5c.81.366 1.704.55 2.688.55 1.117 0 2.083-.2 2.9-.6a5.912 5.912 0 002.038-1.613 6.729 6.729 0 001.2-2.325 9.632 9.632 0 00.375-3.213 13.671 13.671 0 00-.038-.525h-9.325c.183-.866.563-1.52 1.138-1.962.575-.442 1.287-.663 2.137-.663.633 0 1.2.108 1.7.325.5.217 1.016.567 1.55 1.05l2.175-1.925a6.75 6.75 0 00-2.3-1.837c-.9-.44-1.958-.663-3.175-.663M479.804 460.799h3.8v-2.7c.383.917.908 1.65 1.575 2.2.666.55 1.566.8 2.7.75v-3.975h-.2c-1.267 0-2.263-.383-2.987-1.15-.726-.767-1.088-1.96-1.088-3.575v-4.95h-3.8zM489.727 460.799h3.8v-13.4h-3.8zM503.221 450.374c.55 0 1.038.096 1.463.287.425.192.787.454 1.087.788.3.333.53.721.687 1.162.16.442.238.912.238 1.412v.051c0 .5-.083.971-.25 1.412a3.56 3.56 0 01-1.85 1.988 3.36 3.36 0 01-1.425.299c-.55 0-1.037-.095-1.463-.287a3.233 3.233 0 01-1.087-.787 3.465 3.465 0 01-.687-1.163 4.133 4.133 0 01-.238-1.412v-.05c0-.5.084-.971.25-1.413a3.57 3.57 0 011.838-1.987c.424-.2.904-.3 1.437-.3m-.05-3.275c-1.033 0-1.992.179-2.875.538a6.98 6.98 0 00-2.287 1.474 6.875 6.875 0 00-1.513 2.2 6.709 6.709 0 00-.55 2.712v.051c0 .966.183 1.87.55 2.712a6.924 6.924 0 001.525 2.213 7.232 7.232 0 002.3 1.5c.883.366 1.85.55 2.9.55 1.033 0 1.992-.18 2.875-.537a7.058 7.058 0 002.288-1.476 6.877 6.877 0 001.512-2.2c.367-.842.55-1.746.55-2.712v-.05c0-.967-.183-1.871-.55-2.713a6.935 6.935 0 00-1.525-2.213 7.278 7.278 0 00-2.3-1.5c-.883-.366-1.85-.549-2.9-.549M512.798 460.799h3.8v-2.7c.384.917.908 1.65 1.575 2.2.667.55 1.566.8 2.7.75v-3.975h-.2c-1.267 0-2.262-.383-2.987-1.15-.725-.767-1.088-1.96-1.088-3.575v-4.95h-3.8zM338.05 424.373c.45 0 .872.088 1.264.263.39.174.732.424 1.024.75.292.325.526.716.7 1.175.175.458.263.962.263 1.512v.05c0 .551-.088 1.055-.262 1.513-.175.458-.41.85-.701 1.174a2.999 2.999 0 01-1.024.75 3.048 3.048 0 01-1.263.264 3.04 3.04 0 01-1.262-.264 3.12 3.12 0 01-1.038-.75 3.593 3.593 0 01-.712-1.162 4.162 4.162 0 01-.263-1.525v-.05c0-.55.087-1.054.263-1.512.174-.459.412-.85.712-1.175a3.12 3.12 0 011.038-.75 3.055 3.055 0 011.262-.263m-.975-3.225c-.783 0-1.542.151-2.275.451a5.607 5.607 0 00-1.95 1.337c-.567.591-1.021 1.316-1.362 2.175-.342.858-.513 1.846-.513 2.962v.05c0 1.117.17 2.104.513 2.963.34.858.79 1.584 1.349 2.176a5.538 5.538 0 001.938 1.337c.733.299 1.5.45 2.3.45 1.017 0 1.854-.2 2.512-.6a6.705 6.705 0 001.663-1.4v6.599h3.8v-18.25h-3.8v1.925a6.016 6.016 0 00-1.687-1.562c-.66-.409-1.488-.613-2.488-.613M356.9 429.148c-.116.85-.416 1.537-.9 2.063-.483.525-1.124.787-1.924.787-.8 0-1.447-.258-1.938-.775-.491-.516-.812-1.209-.962-2.075zm-2.45-8.05c-1 0-1.928.167-2.787.5-.858.333-1.6.808-2.225 1.425a6.588 6.588 0 00-1.462 2.187c-.35.842-.525 1.78-.525 2.813v.05c0 .95.162 1.85.487 2.7.325.85.779 1.592 1.363 2.225a6.404 6.404 0 002.087 1.5c.808.367 1.704.55 2.688.55 1.116 0 2.083-.2 2.9-.599a5.918 5.918 0 002.037-1.613 6.7 6.7 0 001.2-2.326 9.626 9.626 0 00.375-3.212 13.6 13.6 0 00-.037-.525h-9.325c.183-.867.562-1.52 1.137-1.963.575-.44 1.288-.662 2.138-.662.633 0 1.2.108 1.7.325.5.216 1.016.567 1.55 1.05l2.175-1.925a6.75 6.75 0 00-2.3-1.838c-.9-.44-1.96-.662-3.175-.662M377.075 421.148c-1.333 0-2.642.23-3.925.687a10.404 10.404 0 00-3.5 2.113l2.275 2.725c.8-.65 1.621-1.167 2.462-1.55.842-.383 1.763-.575 2.763-.575.8 0 1.421.146 1.862.438.442.291.663.695.663 1.212v.05c0 .25-.046.47-.138.663-.092.191-.267.37-.526.537-.259.167-.619.333-1.078.5-.46.167-1.057.342-1.792.525-.886.216-1.688.458-2.407.725-.719.266-1.328.596-1.829.987a3.981 3.981 0 00-1.166 1.463c-.276.584-.414 1.31-.414 2.176v.05c0 .8.15 1.52.447 2.162a4.934 4.934 0 001.254 1.663 5.65 5.65 0 001.928 1.074c.747.25 1.571.375 2.471.375 1.283 0 2.462-.19 3.538-.574a10.276 10.276 0 002.962-1.65l-2-2.9c-.784.532-1.55.953-2.3 1.262-.75.308-1.5.463-2.25.463s-1.312-.147-1.687-.439c-.375-.29-.563-.654-.563-1.087v-.05c0-.283.054-.529.163-.738.11-.208.305-.395.59-.562.283-.166.672-.325 1.165-.475a58.29 58.29 0 011.867-.525 17.951 17.951 0 002.37-.787c.692-.292 1.277-.642 1.753-1.05a4.014 4.014 0 001.08-1.438c.24-.55.362-1.209.362-1.975v-.05c0-.866-.157-1.638-.472-2.313a4.762 4.762 0 00-1.316-1.7c-.564-.458-1.236-.808-2.016-1.05-.78-.24-1.646-.362-2.596-.362M391.003 423.773c.9 0 1.62.217 2.163.65.54.433.812 1 .812 1.7v.675c-.333.15-.704.271-1.112.363a6.032 6.032 0 01-1.313.137c-.817 0-1.458-.159-1.925-.475-.466-.317-.7-.775-.7-1.375v-.05c0-.517.192-.917.575-1.2.383-.283.883-.425 1.5-.425m-1.15-2.625c-.633 0-1.23.088-1.788.263a4.183 4.183 0 00-1.462.787c-.416.35-.746.78-.987 1.288-.242.508-.363 1.096-.363 1.762v.05c0 .733.133 1.367.4 1.9.267.533.638.975 1.113 1.325s1.04.612 1.7.787a8.46 8.46 0 002.187.263c.683 0 1.279-.05 1.787-.15.509-.1 1.004-.234 1.488-.4v.225c0 .8-.241 1.408-.725 1.825-.483.417-1.2.626-2.15.626-.734 0-1.38-.063-1.937-.188a13.057 13.057 0 01-1.762-.538l-.951 2.9c.733.316 1.5.576 2.3.775.8.2 1.767.301 2.9.301 1.05 0 1.945-.13 2.687-.389.741-.258 1.354-.629 1.837-1.11a4.5 4.5 0 001.1-1.839c.233-.726.35-1.538.35-2.438v-7.775h-3.675v1.45a5.276 5.276 0 00-1.675-1.237c-.65-.309-1.442-.463-2.375-.463M407.578 440.7l3.275-1.427-3.2-3h-2.9zm-2.6-19.552c-1.45 0-2.571.442-3.362 1.325-.792.883-1.188 2.1-1.188 3.65v8.676h3.8v-7.457c0-.899.2-1.577.6-2.034.4-.457.966-.685 1.7-.685.733 0 1.313.228 1.737.685.425.457.638 1.135.638 2.034v7.457h3.8v-13.4h-3.8v1.915a8.061 8.061 0 00-.713-.818 4.968 4.968 0 00-.862-.693 4.295 4.295 0 00-1.05-.479 4.454 4.454 0 00-1.3-.176M422.23 424.373c.45 0 .871.088 1.262.263.392.174.734.424 1.025.75.292.325.526.716.7 1.175.175.458.263.962.263 1.512v.05c0 .551-.088 1.055-.263 1.513-.174.458-.408.85-.7 1.174a3.04 3.04 0 01-2.287 1.014c-.45 0-.871-.088-1.263-.264a3.126 3.126 0 01-1.037-.75 3.595 3.595 0 01-.713-1.162 4.183 4.183 0 01-.262-1.525v-.05c0-.55.087-1.054.262-1.512.175-.459.412-.85.713-1.175a3.063 3.063 0 012.3-1.013m-.975-3.225c-.784 0-1.542.151-2.275.451a5.598 5.598 0 00-1.95 1.337c-.567.591-1.021 1.316-1.362 2.175-.342.858-.513 1.846-.513 2.962v.05c0 1.117.171 2.104.513 2.963.341.858.791 1.584 1.349 2.176a5.529 5.529 0 001.938 1.337c.733.299 1.5.45 2.3.45 1.016 0 1.854-.2 2.512-.6a6.723 6.723 0 001.663-1.4v6.599h3.8v-18.25h-3.8v1.925a6.02 6.02 0 00-1.688-1.562c-.658-.409-1.487-.613-2.487-.613M441.08 429.148c-.117.85-.417 1.537-.9 2.063-.484.525-1.125.787-1.926.787-.8 0-1.445-.258-1.937-.775-.491-.516-.813-1.209-.962-2.075zm-2.451-8.05c-1 0-1.928.167-2.786.5a6.432 6.432 0 00-3.688 3.612c-.35.842-.526 1.78-.526 2.813v.05c0 .95.163 1.85.488 2.7.325.85.779 1.592 1.363 2.225a6.404 6.404 0 002.087 1.5c.809.367 1.704.55 2.687.55 1.118 0 2.083-.2 2.9-.599a5.908 5.908 0 002.038-1.613 6.736 6.736 0 001.2-2.326 9.661 9.661 0 00.376-3.212 13.671 13.671 0 00-.038-.525h-9.325c.182-.867.563-1.52 1.137-1.963.575-.44 1.288-.662 2.138-.662.633 0 1.199.108 1.699.325.5.216 1.017.567 1.55 1.05l2.176-1.925a6.741 6.741 0 00-2.3-1.838c-.9-.44-1.958-.662-3.176-.662M491.627 462.136c-1.186 0-2.178.993-2.178 2.182 0 1.188.992 2.18 2.178 2.18s2.178-.992 2.178-2.18c0-1.19-.992-2.182-2.178-2.182"/><path d="M85.04 524.669H756.85M85.04 280.65H756.85" fill="#fff" stroke="#000" stroke-miterlimit="10"/><path d="M85.43 519.998h.88l2.49-6.03 2.5 6.03h.85l-3.01-7.05h-.7zM97.19 515.898c-.02.231-.07.452-.15.661-.08.208-.19.393-.325.552a1.49 1.49 0 01-.5.378 1.563 1.563 0 01-.675.138c-.22 0-.427-.042-.62-.128a1.569 1.569 0 01-.51-.364 2.018 2.018 0 01-.365-.55 2.223 2.223 0 01-.185-.687zm-3.33-.63c.027-.274.093-.517.2-.73a1.74 1.74 0 01.97-.875c.207-.078.423-.116.65-.116.36 0 .668.067.925.201.257.132.49.31.705.53l.48-.43a3.179 3.179 0 00-.89-.706c-.333-.176-.747-.265-1.24-.265-.353 0-.687.066-1 .196a2.45 2.45 0 00-.82.55 2.61 2.61 0 00-.555.855 2.862 2.862 0 00-.205 1.1c0 .373.062.724.185 1.054.123.33.295.618.515.861.22.243.482.434.785.575.303.14.635.21.995.21.38 0 .72-.072 1.02-.215.3-.144.553-.339.76-.585.207-.247.363-.537.47-.87.107-.334.16-.69.16-1.07v-.116c0-.043-.004-.094-.01-.155zM99.32 518.168h.77v-1.35c.092.213.21.41.35.59.14.18.3.335.48.465a2.028 2.028 0 001.28.385v-.83h-.06c-.28 0-.546-.05-.796-.15-.25-.1-.467-.25-.654-.45a2.13 2.13 0 01-.44-.745 3.018 3.018 0 01-.16-1.025v-2.06h-.77zM105.08 512.898c-.374 0-.75.068-1.13.205-.38.136-.718.321-1.01.555l.39.55c.28-.214.571-.377.874-.49.304-.114.609-.17.916-.17.312 0 .57.073.77.22.2.147.3.346.3.6v.02a.531.531 0 01-.106.33.935.935 0 01-.285.244c-.12.071-.258.132-.415.186a8.913 8.913 0 01-.485.15c-.2.06-.402.124-.605.195a2.5 2.5 0 00-.55.264 1.353 1.353 0 00-.4.401c-.103.16-.155.36-.155.6v.02a1.365 1.365 0 00.495 1.075c.157.13.343.23.56.3.217.07.452.104.705.104.32 0 .643-.05.97-.154.327-.103.623-.242.89-.415l-.35-.58c-.24.153-.492.274-.755.364a2.363 2.363 0 01-.775.136c-.307 0-.55-.072-.73-.216a.655.655 0 01-.27-.534v-.02c0-.12.037-.225.11-.315a.943.943 0 01.295-.235c.123-.067.265-.127.425-.18.16-.054.327-.107.5-.16.2-.06.398-.127.595-.2.197-.074.375-.167.535-.28.16-.114.288-.25.385-.41.097-.16.145-.357.145-.59v-.02a1.42 1.42 0 00-.535-1.14 1.743 1.743 0 00-.58-.306 2.411 2.411 0 00-.725-.104M108.78 518.988c.1.38.222.65.37.81.145.16.34.24.58.24.112 0 .23-.022.35-.066.12-.043.24-.089.36-.139.12-.05.232-.095.34-.135a.838.838 0 01.29-.06c.132 0 .234.037.304.11.07.073.142.2.215.38l.47-.13c-.1-.38-.223-.65-.37-.81a.75.75 0 00-.58-.24c-.113 0-.23.02-.35.06-.12.04-.24.084-.36.134-.12.051-.234.097-.34.141a.783.783 0 01-.29.064c-.133 0-.235-.036-.305-.109-.07-.073-.142-.2-.215-.38zm1.265-5.47c.24 0 .461.033.667.1.206.065.387.16.544.283.156.123.28.27.368.438.09.17.135.356.135.562v.478a9.124 9.124 0 01-.658.15 4.555 4.555 0 01-.847.068c-.478 0-.849-.094-1.11-.283a.88.88 0 01-.395-.75v-.02c0-.16.035-.305.105-.434a.928.928 0 01.284-.323c.12-.087.257-.153.413-.199.156-.047.321-.07.494-.07m-.156-.63c-.24 0-.477.034-.71.1-.233.066-.44.168-.62.305a1.57 1.57 0 00-.435.505c-.11.2-.165.433-.165.7v.02c0 .28.053.525.16.735.107.21.258.384.455.525.197.14.43.246.7.32.27.073.568.11.895.11.333 0 .621-.02.865-.06.243-.04.482-.094.715-.16v.158c0 .457-.133.804-.4 1.04-.267.234-.643.352-1.13.352-.307 0-.585-.033-.835-.1a4.392 4.392 0 01-.735-.27l-.23.633c.287.135.577.244.87.325.293.081.63.122 1.01.122.733 0 1.29-.19 1.67-.57.36-.36.54-.867.54-1.52v-3.16h-.76v.77a2.48 2.48 0 00-.725-.615c-.303-.177-.682-.266-1.135-.266M116.52 513.568c.28 0 .536.053.77.16a1.876 1.876 0 01.99 1.06c.092.24.14.496.14.77v.02c0 .28-.049.541-.146.785a1.953 1.953 0 01-1.015 1.075 1.8 1.8 0 01-.76.16 1.823 1.823 0 01-1.365-.59 1.988 1.988 0 01-.385-.635 2.154 2.154 0 01-.14-.776v-.019c0-.28.048-.542.145-.785a1.93 1.93 0 011.005-1.065 1.8 1.8 0 01.76-.16m-.02-.69a2.655 2.655 0 00-2.68 2.68v.02c0 .366.067.713.2 1.04.133.326.32.613.56.86a2.659 2.659 0 001.94.8 2.673 2.673 0 002.49-1.646c.133-.323.2-.668.2-1.035v-.019c0-.367-.068-.714-.205-1.04a2.743 2.743 0 00-.565-.86 2.664 2.664 0 00-.86-.586 2.725 2.725 0 00-1.08-.214M123.6 520.298h.77v-3.03c.172.28.4.518.68.716.28.196.642.294 1.09.294.312 0 .591-.05.834-.15.243-.1.45-.241.62-.425.17-.183.3-.401.39-.655.09-.253.135-.533.135-.84v-3.21h-.77v3.014c0 .478-.123.857-.37 1.138-.247.279-.6.419-1.06.419-.22 0-.425-.04-.615-.116a1.426 1.426 0 01-.495-.33 1.488 1.488 0 01-.325-.513 1.813 1.813 0 01-.115-.66v-2.952h-.77zM132.14 513.568c.28 0 .536.053.77.16a1.876 1.876 0 01.99 1.06c.092.24.14.496.14.77v.02c0 .28-.049.541-.146.785a1.953 1.953 0 01-1.015 1.075 1.8 1.8 0 01-.76.16 1.823 1.823 0 01-1.365-.59 1.988 1.988 0 01-.385-.635 2.154 2.154 0 01-.14-.776v-.019c0-.28.048-.542.145-.785a1.93 1.93 0 011.005-1.065 1.8 1.8 0 01.76-.16m-.02-.69a2.655 2.655 0 00-2.68 2.68v.02c0 .366.067.713.2 1.04.133.326.32.613.56.86a2.659 2.659 0 001.94.8 2.673 2.673 0 002.49-1.646c.133-.323.2-.668.2-1.035v-.019c0-.367-.068-.714-.205-1.04a2.743 2.743 0 00-.565-.86 2.664 2.664 0 00-.86-.586 2.725 2.725 0 00-1.08-.214M136.22 518.168h.77v-1.35c.092.213.21.41.35.59.14.18.3.335.48.465a2.028 2.028 0 001.28.385v-.83h-.06c-.28 0-.546-.05-.796-.15-.25-.1-.468-.25-.655-.45a2.13 2.13 0 01-.44-.745 3.018 3.018 0 01-.16-1.025v-2.06h-.77zM140.339 518.168h.77v-5.17h-.77zm-.05 1.98h.88v-.851h-.88zM142.6 513.488l3.43 4.03h-3.31v.65h4.36v-.49l-3.44-4.03h3.44v-.65h-4.48zM150.84 513.568c.28 0 .536.053.77.16a1.876 1.876 0 01.99 1.06c.092.24.14.496.14.77v.02c0 .28-.049.541-.146.785a1.953 1.953 0 01-1.015 1.075 1.8 1.8 0 01-.76.16 1.823 1.823 0 01-1.365-.59 1.988 1.988 0 01-.385-.635 2.154 2.154 0 01-.14-.776v-.019c0-.28.048-.542.145-.785a1.93 1.93 0 011.005-1.065 1.8 1.8 0 01.76-.16m-.02-.69a2.655 2.655 0 00-2.68 2.68v.02c0 .366.067.713.2 1.04.133.326.32.613.56.86a2.659 2.659 0 001.94.8 2.673 2.673 0 002.49-1.646c.133-.323.2-.668.2-1.035v-.019c0-.367-.068-.714-.205-1.04a2.743 2.743 0 00-.565-.86 2.664 2.664 0 00-.86-.586 2.725 2.725 0 00-1.08-.214M154.92 518.168h.77v-.9c.172.28.4.518.68.715.28.197.642.295 1.09.295.312 0 .591-.05.834-.15.243-.1.45-.241.62-.425.17-.183.3-.401.39-.655.09-.253.135-.533.135-.84v-3.21h-.77v3.014c0 .478-.123.857-.37 1.137s-.6.419-1.06.419c-.22 0-.425-.04-.615-.115a1.426 1.426 0 01-.495-.33 1.488 1.488 0 01-.325-.513 1.817 1.817 0 01-.115-.66v-2.952h-.77zM162.809 512.908c-.207 0-.4.026-.58.08-.18.053-.335.138-.465.255-.13.116-.232.27-.305.455a1.84 1.84 0 00-.11.67v3.12h-.72v.68h.72v1.56h.77v-1.56h1.64v-.68h-1.64v-3.013c0-.319.08-.542.24-.668.16-.126.37-.189.63-.189a1.627 1.627 0 01.75.17v-.66a1.712 1.712 0 00-.425-.165 2.164 2.164 0 00-.505-.055" fill="#231f20"/><g><path d="M166.815 513.518c.239 0 .462.033.668.1.206.066.387.16.543.284.156.123.279.268.369.437.089.169.134.357.134.563v.477a8.665 8.665 0 01-.657.15 4.566 4.566 0 01-.848.069c-.478 0-.85-.095-1.111-.283a.883.883 0 01-.394-.752v-.02a.89.89 0 01.105-.432.93.93 0 01.284-.323c.12-.087.257-.154.414-.2.156-.047.32-.07.493-.07m-.156-.63c-.24 0-.476.033-.71.1a1.86 1.86 0 00-.62.304 1.59 1.59 0 00-.435.505c-.11.2-.165.434-.165.7v.02c0 .28.054.525.16.735.107.21.259.385.455.526.197.14.43.246.7.32.27.072.569.11.895.11.334 0 .622-.02.865-.06.244-.04.482-.094.715-.16v.158c0 .457-.133.804-.4 1.04-.266.233-.643.352-1.13.352-.306 0-.585-.034-.835-.1a4.31 4.31 0 01-.735-.27l-.23.633c.287.135.577.243.87.324.294.081.63.122 1.01.122.734 0 1.29-.19 1.67-.57.36-.359.54-.866.54-1.519v-3.16h-.76v.77a2.467 2.467 0 00-.725-.615c-.303-.177-.681-.266-1.135-.266" fill="#231f20"/></g><path d="M170.979 520.298h.77v-7.3h-.77z" fill="#231f20"/><g><path d="M88.5 499.588c-.894.5-1.58 1.106-2.06 1.82-.48.713-.72 1.534-.72 2.46 0 .927.24 1.746.72 2.46.48.713 1.166 1.32 2.06 1.82l.33-.51c-.768-.487-1.346-1.034-1.736-1.645-.39-.61-.584-1.318-.584-2.125 0-.806.194-1.514.584-2.125.39-.61.969-1.158 1.736-1.645z" fill="#231f20"/></g><g><path d="M92.894 504.178c.288 0 .55.037.787.11.237.075.441.179.612.317.17.136.301.299.391.486.09.188.135.399.135.632v.02c0 .5-.172.88-.516 1.139-.344.258-.8.386-1.369.386H91.16v-3.09zm-2.525 3.82h2.62c.394 0 .752-.051 1.075-.155.324-.103.6-.25.83-.44a1.91 1.91 0 00.53-.695c.124-.273.185-.583.185-.93v-.02c0-.38-.073-.712-.22-.995a2.123 2.123 0 00-.595-.715 2.582 2.582 0 00-.875-.434 3.77 3.77 0 00-1.06-.146h-1.7v-2.47h-.79z" fill="#231f20"/></g><g><path d="M96.92 506.168h.77v-1.35c.092.213.21.41.35.59.14.18.3.335.48.465a2.028 2.028 0 001.28.385v-.83h-.06c-.28 0-.546-.05-.796-.15-.25-.1-.468-.25-.655-.45a2.13 2.13 0 01-.44-.745 3.018 3.018 0 01-.16-1.025v-2.06h-.77z" fill="#231f20"/></g><path d="M101.039 506.168h.77v-5.17h-.77zm-.05 1.98h.88v-.851h-.88z" fill="#231f20"/><g><path d="M103.6 506.168h.77v-.9c.172.28.4.518.68.715.28.197.642.295 1.09.295.312 0 .591-.05.834-.15.243-.1.45-.241.62-.425.17-.183.3-.401.39-.655.09-.253.135-.533.135-.84v-3.21h-.77v3.014c0 .478-.123.857-.37 1.137s-.6.419-1.06.419c-.22 0-.425-.04-.615-.115a1.426 1.426 0 01-.495-.33 1.488 1.488 0 01-.325-.513 1.817 1.817 0 01-.115-.66v-2.952h-.77z" fill="#231f20"/></g><g><path d="M112.09 500.878c-.38 0-.733.072-1.056.215a2.63 2.63 0 00-1.395 1.435c-.133.327-.2.67-.2 1.03v.02a2.735 2.735 0 00.755 1.9 2.594 2.594 0 001.895.799c.247 0 .47-.022.67-.07a2.48 2.48 0 001.01-.49c.14-.112.27-.233.39-.36l-.51-.54a3.662 3.662 0 01-.675.55c-.243.155-.542.23-.895.23-.26 0-.503-.051-.73-.154a1.825 1.825 0 01-.59-.425 1.945 1.945 0 01-.39-.635 2.18 2.18 0 01-.14-.785v-.02c0-.28.048-.542.145-.785.097-.243.23-.457.4-.64s.37-.327.6-.43c.23-.104.482-.155.755-.155.333 0 .628.074.885.22.257.147.488.33.695.55l.49-.46a3.456 3.456 0 00-.885-.72c-.33-.186-.738-.28-1.225-.28" fill="#231f20"/></g><path d="M115.539 506.168h.77v-5.17h-.77zm-.05 1.98h.88v-.851h-.88z" fill="#231f20"/><g><path d="M120.709 501.578c.247 0 .482.045.705.135.223.09.417.22.58.39.163.17.293.378.39.625.097.246.145.527.145.84v.02c0 .306-.048.583-.145.83a1.886 1.886 0 01-.395.63 1.743 1.743 0 01-1.28.54c-.24 0-.472-.048-.695-.145a1.964 1.964 0 01-1.02-1.04 2.048 2.048 0 01-.155-.805v-.02c0-.3.052-.573.155-.82a1.901 1.901 0 011.02-1.035c.223-.097.455-.145.695-.145m-2.61 4.59h.77v-1.04c.107.153.225.3.355.44a2.225 2.225 0 00.97.614c.197.064.415.096.655.096.307 0 .608-.06.905-.18.297-.12.562-.295.795-.525.233-.23.42-.51.56-.84.14-.33.21-.709.21-1.135v-.02c0-.42-.07-.797-.21-1.13a2.598 2.598 0 00-.555-.845 2.414 2.414 0 00-2.365-.625 2.213 2.213 0 00-.975.59c-.13.133-.245.274-.345.42v-2.59h-.77z" fill="#231f20"/></g><g><path d="M126.435 501.517c.239 0 .462.033.668.1.206.066.387.161.543.284.156.123.279.268.369.437.089.17.134.357.134.563v.477a8.665 8.665 0 01-.657.15 4.566 4.566 0 01-.848.07c-.478 0-.85-.096-1.111-.284a.883.883 0 01-.394-.75v-.022a.89.89 0 01.105-.432.93.93 0 01.284-.323c.12-.087.257-.154.414-.2.156-.047.32-.07.493-.07m-.156-.63c-.24 0-.476.034-.71.101a1.86 1.86 0 00-.62.304 1.59 1.59 0 00-.435.505c-.11.2-.165.434-.165.7v.02c0 .28.054.525.16.735.107.21.259.385.455.526.197.14.43.246.7.32.27.072.569.11.895.11.334 0 .622-.02.865-.06.244-.04.482-.094.715-.16v.158c0 .457-.133.804-.4 1.04-.266.233-.643.352-1.13.352-.306 0-.585-.034-.835-.1a4.31 4.31 0 01-.735-.27l-.23.633c.287.135.577.243.87.324.294.081.63.122 1.01.122.734 0 1.29-.19 1.67-.57.36-.359.54-.866.54-1.519v-3.16h-.76v.77a2.467 2.467 0 00-.725-.615c-.303-.177-.681-.266-1.135-.266" fill="#231f20"/></g><path d="M130.599 508.298h.77v-7.3h-.77z" fill="#231f20"/><g><path d="M132.859 500.098c.766.487 1.345 1.035 1.735 1.646.39.61.585 1.318.585 2.125 0 .806-.195 1.514-.585 2.125-.39.61-.97 1.158-1.735 1.644l.33.51c.893-.5 1.58-1.107 2.06-1.82.48-.713.72-1.533.72-2.46 0-.926-.24-1.747-.72-2.46-.48-.713-1.167-1.32-2.06-1.82z" fill="#231f20"/></g><g><path d="M85.43 276.2h.88l2.49-6.03 2.5 6.03h.85l-3.01-7.05h-.7z" fill="#231f20"/></g><g><path d="M97.19 272.1c-.02.23-.07.452-.15.66-.08.209-.19.394-.325.553a1.49 1.49 0 01-.5.378 1.563 1.563 0 01-.675.138c-.22 0-.427-.042-.62-.128a1.569 1.569 0 01-.51-.364 2.018 2.018 0 01-.365-.551 2.223 2.223 0 01-.185-.686zm-3.33-.631c.027-.273.093-.516.2-.73a1.74 1.74 0 01.97-.874c.207-.078.423-.116.65-.116.36 0 .668.067.925.2s.49.31.705.53l.48-.43a3.179 3.179 0 00-.89-.705c-.333-.176-.747-.265-1.24-.265-.353 0-.687.066-1 .196a2.45 2.45 0 00-.82.55 2.61 2.61 0 00-.555.855 2.862 2.862 0 00-.205 1.1c0 .373.062.724.185 1.054.123.33.295.618.515.86.22.244.482.435.785.576.303.14.635.21.995.21.38 0 .72-.072 1.02-.215.3-.144.553-.34.76-.585.207-.247.363-.537.47-.87.107-.334.16-.69.16-1.07v-.116c0-.043-.004-.094-.01-.155z" fill="#231f20"/></g><g><path d="M99.32 274.37h.77v-1.35c.092.212.21.41.35.59.14.18.3.334.48.464a2.028 2.028 0 001.28.385v-.83h-.06c-.28 0-.546-.05-.796-.15-.25-.1-.467-.25-.654-.45a2.13 2.13 0 01-.44-.745 3.018 3.018 0 01-.16-1.025v-2.06h-.77z" fill="#231f20"/></g><g><path d="M105.08 269.1c-.374 0-.75.068-1.13.205-.38.136-.718.32-1.01.555l.39.55c.28-.214.571-.377.874-.491.304-.113.609-.17.916-.17.312 0 .57.074.77.22.2.148.3.347.3.6v.02a.531.531 0 01-.106.33.935.935 0 01-.285.245c-.12.07-.258.132-.415.186a8.913 8.913 0 01-.485.149c-.2.06-.402.125-.605.196a2.5 2.5 0 00-.55.264 1.353 1.353 0 00-.4.4c-.103.16-.155.36-.155.6v.02a1.365 1.365 0 00.495 1.075c.157.13.343.23.56.3.217.07.452.105.705.105.32 0 .643-.051.97-.154.327-.103.623-.242.89-.415l-.35-.58c-.24.153-.492.274-.755.364a2.363 2.363 0 01-.775.136c-.307 0-.55-.072-.73-.216a.655.655 0 01-.27-.534v-.021c0-.12.037-.224.11-.314a.943.943 0 01.295-.235c.123-.067.265-.127.425-.18.16-.054.327-.107.5-.16.2-.061.398-.127.595-.2.197-.074.375-.167.535-.281.16-.113.288-.25.385-.41.097-.16.145-.356.145-.59v-.02a1.42 1.42 0 00-.535-1.14 1.743 1.743 0 00-.58-.305 2.411 2.411 0 00-.725-.104" fill="#231f20"/></g><g><path d="M108.78 275.19c.1.38.222.648.37.81.145.16.34.24.58.24.112 0 .23-.023.35-.067.12-.043.24-.089.36-.139.12-.05.232-.095.34-.135a.838.838 0 01.29-.06c.132 0 .234.037.304.11.07.073.142.2.215.38l.47-.13c-.1-.38-.223-.65-.37-.81a.75.75 0 00-.58-.24c-.113 0-.23.02-.35.06-.12.04-.24.084-.36.134-.12.051-.234.097-.34.141a.783.783 0 01-.29.064c-.133 0-.235-.036-.305-.109-.07-.073-.142-.2-.215-.38zm1.265-5.472c.24 0 .461.034.667.1.206.066.387.161.544.284.156.123.28.27.368.438.09.17.135.356.135.562v.478a9.124 9.124 0 01-.658.15 4.555 4.555 0 01-.847.068c-.478 0-.849-.094-1.11-.283a.88.88 0 01-.395-.75v-.02c0-.16.035-.305.105-.434a.928.928 0 01.284-.323c.12-.087.257-.153.413-.199.156-.047.321-.07.494-.07m-.156-.63c-.24 0-.477.034-.71.1-.233.066-.44.168-.62.305a1.57 1.57 0 00-.435.505c-.11.2-.165.433-.165.7v.02c0 .28.053.525.16.735.107.21.258.384.455.525.197.14.43.246.7.32.27.073.568.11.895.11.333 0 .621-.02.865-.06.243-.04.482-.094.715-.16v.158c0 .457-.133.804-.4 1.04-.267.234-.643.352-1.13.352-.307 0-.585-.033-.835-.1a4.392 4.392 0 01-.735-.27l-.23.633c.287.135.577.244.87.325.293.081.63.122 1.01.122.733 0 1.29-.19 1.67-.57.36-.36.54-.867.54-1.52v-3.16h-.76v.77a2.48 2.48 0 00-.725-.615c-.303-.177-.682-.266-1.135-.266" fill="#231f20"/></g><g><path d="M116.52 269.77c.28 0 .536.053.77.16a1.876 1.876 0 01.99 1.06c.092.24.14.496.14.769v.02c0 .28-.049.542-.146.786a1.953 1.953 0 01-1.015 1.075 1.8 1.8 0 01-.76.159 1.823 1.823 0 01-1.365-.59 1.988 1.988 0 01-.385-.634 2.154 2.154 0 01-.14-.776v-.02c0-.28.048-.541.145-.784a1.93 1.93 0 011.005-1.065 1.8 1.8 0 01.76-.16m-.02-.69a2.655 2.655 0 00-2.68 2.678v.021c0 .366.067.713.2 1.04.133.326.32.613.56.86a2.659 2.659 0 001.94.8 2.673 2.673 0 002.49-1.645c.133-.323.2-.668.2-1.035v-.02c0-.367-.068-.714-.205-1.04a2.743 2.743 0 00-.565-.86 2.664 2.664 0 00-.86-.586 2.725 2.725 0 00-1.08-.214" fill="#231f20"/></g><g><path d="M123.09 274.37h.85l1.74-4.29 1.75 4.29h.83l-2.25-5.21h-.68z" fill="#231f20"/></g><g><path d="M133.26 272.1c-.02.23-.07.452-.15.66-.08.209-.19.394-.326.553a1.49 1.49 0 01-.5.378 1.563 1.563 0 01-.675.138c-.22 0-.427-.042-.62-.128a1.569 1.569 0 01-.51-.364 2.018 2.018 0 01-.365-.551 2.223 2.223 0 01-.185-.686zm-3.33-.631c.026-.273.092-.516.2-.73a1.74 1.74 0 01.97-.874c.206-.078.422-.116.65-.116.36 0 .667.067.924.2s.491.31.705.53l.48-.43a3.179 3.179 0 00-.89-.705c-.333-.176-.747-.265-1.24-.265-.353 0-.687.066-1 .196a2.45 2.45 0 00-.82.55 2.61 2.61 0 00-.555.855 2.862 2.862 0 00-.205 1.1c0 .373.062.724.185 1.054.123.33.295.618.515.86.22.244.482.435.785.576.303.14.635.21.995.21.38 0 .72-.072 1.02-.215.3-.144.553-.34.76-.585.207-.247.363-.537.47-.87.107-.334.16-.69.16-1.07v-.116c0-.043-.004-.094-.01-.155z" fill="#231f20"/></g><g><path d="M135.389 274.37h.77v-1.35c.093.212.21.41.35.59.14.18.3.334.48.464a2.028 2.028 0 001.28.385v-.83h-.06c-.28 0-.545-.05-.795-.15-.25-.1-.468-.25-.655-.45a2.13 2.13 0 01-.44-.745 3.018 3.018 0 01-.16-1.025v-2.06h-.77z" fill="#231f20"/></g><g><path d="M141.169 269.11c-.207 0-.4.025-.58.08-.18.052-.335.137-.465.254-.13.116-.232.27-.305.455a1.84 1.84 0 00-.11.67v3.12h-.72v.68h.72v1.56h.77v-1.56h1.64v-.68h-1.64v-3.013c0-.319.08-.542.24-.668.16-.126.37-.189.63-.189a1.627 1.627 0 01.75.17v-.66a1.712 1.712 0 00-.425-.165 2.164 2.164 0 00-.505-.055" fill="#231f20"/></g><path d="M143.549 274.369h.77v-5.17h-.77zm-.05 1.981h.88v-.851h-.88z" fill="#231f20"/><g><path d="M148.439 269.08c-.38 0-.732.071-1.055.214a2.63 2.63 0 00-1.395 1.435c-.133.327-.2.67-.2 1.03v.02a2.735 2.735 0 00.755 1.901 2.594 2.594 0 001.895.799c.247 0 .47-.023.67-.07a2.48 2.48 0 001.01-.49c.14-.113.27-.234.39-.36l-.51-.54a3.662 3.662 0 01-.675.55c-.243.154-.542.23-.895.23-.26 0-.503-.052-.73-.155a1.825 1.825 0 01-.59-.425 1.945 1.945 0 01-.39-.635 2.18 2.18 0 01-.14-.785v-.02c0-.28.048-.542.145-.785.097-.243.23-.457.4-.64s.37-.327.6-.43c.23-.104.482-.155.755-.155.333 0 .628.074.885.22.257.147.488.33.695.55l.49-.46a3.456 3.456 0 00-.885-.72c-.33-.186-.738-.28-1.225-.28" fill="#231f20"/></g><g><path d="M153.514 269.719c.24 0 .462.033.668.1.206.066.387.16.543.284.156.123.28.268.37.437.088.169.133.357.133.563v.477a8.665 8.665 0 01-.657.15 4.566 4.566 0 01-.848.069c-.478 0-.849-.095-1.11-.283a.883.883 0 01-.395-.751v-.021a.89.89 0 01.105-.432.93.93 0 01.284-.323c.12-.087.257-.154.414-.2.156-.047.32-.07.493-.07m-.156-.63c-.24 0-.476.034-.71.1a1.86 1.86 0 00-.62.305 1.59 1.59 0 00-.435.505c-.11.2-.165.434-.165.7v.02c0 .28.054.525.16.735.107.21.26.385.455.526.197.139.43.246.7.319.27.073.57.11.895.11.334 0 .622-.02.865-.06.244-.04.482-.093.715-.16v.159c0 .457-.133.804-.4 1.039-.266.234-.643.353-1.13.353-.306 0-.585-.034-.835-.1a4.31 4.31 0 01-.735-.271l-.23.634c.287.135.577.243.87.324.294.08.63.122 1.01.122.734 0 1.29-.19 1.67-.57.36-.36.54-.866.54-1.52v-3.16h-.76v.77a2.467 2.467 0 00-.725-.614c-.303-.177-.68-.266-1.135-.266" fill="#231f20"/></g><path d="M157.679 276.499h.77v-7.3h-.77z" fill="#231f20"/></g></svg>