<svg width="500mm" height="331.755" viewBox="0 0 500 87.777" xmlns="http://www.w3.org/2000/svg"><path d="M1.167 35.599h9.496v31.697H1.167zM84.112 35.598L72.4 67.295H61.638L49.926 35.598h10.51l6.583 20.096 6.583-20.096zM84.746 51.447c0-9.445 7.152-16.736 16.776-16.736 6.14 0 11.585 3.234 14.307 8.116l-8.293 4.818c-1.077-2.22-3.355-3.55-6.142-3.55-4.113 0-7.153 2.978-7.153 7.352 0 4.374 3.04 7.354 7.153 7.354 2.787 0 5.13-1.332 6.142-3.55l8.293 4.755c-2.722 4.944-8.103 8.178-14.307 8.178-9.624 0-16.776-7.291-16.776-16.737M32.528 58.8c-3.612 0-6.756-2.36-6.756-7.05 0-5.2 3.009-7.655 6.789-7.655 4.115 0 7.137 2.978 7.137 7.353s-3.055 7.353-7.17 7.353m-.127-24.09c-8.152 0-15.42 7.687-15.42 15.916l.023 37.15h9.527v-21.62c1.22 1.13 3.811 2.026 5.924 2.026 9.622 0 16.75-7.29 16.75-16.735S42.023 34.711 32.4 34.711M148.41 14.266h16.063v4.176h-11.43v4.329h10.058v4.174h-10.057v4.48h11.581v4.176h-16.214zM173.74 35.906c-1.157 0-2.341-.198-3.55-.594-1.208-.396-2.362-1.022-3.459-1.874l1.981-3.048c.894.65 1.782 1.138 2.666 1.462.885.326 1.712.488 2.485.488.67 0 1.163-.112 1.477-.335.316-.224.473-.519.473-.884v-.061a.877.877 0 00-.274-.64 2.31 2.31 0 00-.747-.473 11.049 11.049 0 00-1.082-.38 83.83 83.83 0 01-1.28-.396 17.21 17.21 0 01-1.722-.596 6.135 6.135 0 01-1.57-.914 4.428 4.428 0 01-1.142-1.386c-.296-.549-.442-1.22-.442-2.012v-.06c0-.834.157-1.571.472-2.21a4.898 4.898 0 011.281-1.631 5.44 5.44 0 011.89-1.006 7.84 7.84 0 012.33-.335c1.037 0 2.089.167 3.156.502a11.74 11.74 0 012.94 1.387l-1.768 3.2a14.758 14.758 0 00-2.377-1.112c-.773-.275-1.453-.411-2.042-.411-.57 0-.996.106-1.28.32-.285.214-.427.482-.427.807v.061c0 .224.092.422.275.594.183.174.426.335.731.488.305.152.655.3 1.052.442.395.143.817.284 1.264.427a19.31 19.31 0 011.738.656 7.156 7.156 0 011.585.929c.466.366.852.813 1.157 1.34.304.529.457 1.17.457 1.921v.061c0 .914-.156 1.702-.472 2.361a4.34 4.34 0 01-1.325 1.632 5.958 5.958 0 01-1.997.959c-.762.213-1.58.32-2.453.32M190.394 35.966c-1.22 0-2.352-.224-3.4-.67a8.327 8.327 0 01-2.696-1.813 8.331 8.331 0 01-1.768-2.682 8.452 8.452 0 01-.64-3.277v-.06c0-1.16.214-2.255.64-3.293a8.449 8.449 0 011.768-2.71 8.197 8.197 0 012.697-1.83c1.047-.448 2.2-.671 3.46-.671 1.543 0 2.823.244 3.84.731a8.637 8.637 0 012.682 2.012l-2.835 3.048a7.548 7.548 0 00-1.63-1.31c-.56-.325-1.255-.489-2.088-.489-.589 0-1.123.117-1.6.35a4.004 4.004 0 00-1.25.96 4.37 4.37 0 00-.822 1.418 5.062 5.062 0 00-.29 1.723v.06c0 .63.096 1.22.29 1.769a4.18 4.18 0 00.838 1.431c.365.406.802.727 1.31.96.507.235 1.077.352 1.707.352.772 0 1.447-.157 2.026-.473a8.601 8.601 0 001.723-1.265l2.712 2.743a10.44 10.44 0 01-2.712 2.149c-1.016.558-2.337.837-3.962.837M206.995 31.974c.67 0 1.265-.117 1.783-.35a3.94 3.94 0 001.325-.96c.366-.406.645-.88.839-1.418a5.072 5.072 0 00.289-1.721v-.061c0-.61-.101-1.184-.305-1.723a4.34 4.34 0 00-2.255-2.424 4.114 4.114 0 00-1.737-.364c-.67 0-1.265.116-1.783.35-.518.234-.96.555-1.326.96a4.219 4.219 0 00-.838 1.417 5.05 5.05 0 00-.29 1.723v.06c0 .61.103 1.185.305 1.722.204.539.497 1.017.884 1.433.386.417.837.747 1.357.99.518.243 1.102.366 1.752.366m-.061 3.992c-1.26 0-2.429-.217-3.505-.655a8.531 8.531 0 01-2.789-1.798 8.376 8.376 0 01-1.844-2.68 8.189 8.189 0 01-.67-3.308v-.061c0-1.18.223-2.281.67-3.308a8.436 8.436 0 011.86-2.696 8.79 8.79 0 012.803-1.829c1.077-.447 2.255-.672 3.536-.672 1.259 0 2.427.22 3.504.656a8.582 8.582 0 012.79 1.798 8.384 8.384 0 011.843 2.682 8.185 8.185 0 01.67 3.308v.06a8.175 8.175 0 01-.67 3.307 8.428 8.428 0 01-1.859 2.698 8.83 8.83 0 01-2.804 1.829c-1.076.446-2.255.669-3.535.669M218.807 13.352h4.633v22.25h-4.633zM233.372 32.705c1.097 0 1.976-.263 2.637-.79.66-.53.99-1.22.99-2.074v-.823a7.101 7.101 0 00-1.356-.443 7.353 7.353 0 00-1.6-.167c-.995 0-1.778.194-2.347.58-.57.386-.853.944-.853 1.675v.061c0 .63.233 1.118.7 1.463.468.345 1.078.519 1.829.519m-1.402 3.2a7.242 7.242 0 01-2.179-.32 5.095 5.095 0 01-1.783-.96 4.595 4.595 0 01-1.203-1.57c-.295-.62-.443-1.337-.443-2.149v-.06c0-.894.163-1.667.489-2.317a4.452 4.452 0 011.356-1.615c.579-.427 1.269-.746 2.072-.96.802-.214 1.691-.32 2.666-.32.833 0 1.56.06 2.18.184.62.12 1.224.284 1.813.486v-.274c0-.975-.295-1.717-.884-2.225-.589-.507-1.463-.762-2.621-.762-.894 0-1.681.077-2.362.23-.681.152-1.397.37-2.149.654l-1.157-3.536a18.287 18.287 0 012.803-.944c.975-.244 2.154-.366 3.535-.366 1.28 0 2.373.157 3.277.473.904.314 1.651.767 2.24 1.356.61.61 1.056 1.355 1.34 2.24.285.884.428 1.874.428 2.972v9.478h-4.48v-1.768a6.446 6.446 0 01-2.043 1.508c-.792.377-1.758.565-2.895.565M262.02 35.906c-1.625 0-3.22-.28-4.785-.838a12.683 12.683 0 01-4.267-2.576l2.775-3.32a13.93 13.93 0 003 1.888c1.027.468 2.15.7 3.369.7.975 0 1.732-.177 2.27-.533.539-.355.81-.848.81-1.478v-.06c0-.306-.058-.574-.17-.81-.112-.232-.326-.45-.641-.654-.316-.203-.755-.406-1.315-.61a22.548 22.548 0 00-2.186-.64 26.5 26.5 0 01-2.933-.883c-.876-.325-1.619-.727-2.23-1.204a4.854 4.854 0 01-1.421-1.783c-.336-.71-.505-1.595-.505-2.652v-.06c0-.975.182-1.855.545-2.638a6.011 6.011 0 011.529-2.026c.657-.569 1.44-1.005 2.352-1.31.91-.305 1.914-.457 3.012-.457 1.564 0 3 .234 4.312.7a12.534 12.534 0 013.612 2.013l-2.438 3.535c-.957-.65-1.89-1.163-2.805-1.54a7.195 7.195 0 00-2.743-.563c-.914 0-1.6.178-2.057.534-.457.354-.686.797-.686 1.325v.062c0 .345.066.644.199.898s.371.482.718.686c.346.203.82.396 1.421.579.601.182 1.36.396 2.276.64 1.08.285 2.044.604 2.888.96.845.355 1.558.782 2.14 1.28a4.905 4.905 0 011.314 1.752c.294.67.443 1.474.443 2.408v.061c0 1.057-.192 1.997-.575 2.82a5.823 5.823 0 01-1.605 2.072c-.686.559-1.506.985-2.457 1.28-.953.294-2.008.442-3.166.442M278.427 35.906c-1.768 0-3.135-.538-4.1-1.616-.965-1.076-1.447-2.56-1.447-4.45V19.266h4.632v9.09c0 1.095.244 1.922.732 2.48.487.556 1.177.834 2.072.834.894 0 1.6-.278 2.119-.835.517-.557.777-1.384.777-2.478v-9.091h4.632V35.6h-4.632v-2.336a9.697 9.697 0 01-.87.997c-.314.318-.664.6-1.05.846a5.279 5.279 0 01-1.28.583 5.424 5.424 0 01-1.585.215M300.126 31.974c.549 0 1.062-.107 1.54-.32a3.811 3.811 0 001.264-.915c.366-.396.656-.869.87-1.417.213-.548.319-1.168.319-1.858v-.061c0-.67-.106-1.287-.32-1.845a4.383 4.383 0 00-.869-1.431 3.811 3.811 0 00-1.264-.914 3.715 3.715 0 00-1.54-.321c-.549 0-1.062.106-1.539.32a3.637 3.637 0 00-1.25.915 4.501 4.501 0 00-.852 1.431 5.132 5.132 0 00-.321 1.845v.06c0 .671.107 1.286.32 1.844.213.56.498 1.036.854 1.432.355.398.772.703 1.25.915.476.213.99.32 1.538.32m-8.534-12.71h4.633v2.348a7.344 7.344 0 012.058-1.906c.802-.497 1.813-.747 3.032-.747.954 0 1.88.184 2.773.549.894.365 1.686.91 2.377 1.63.692.723 1.245 1.606 1.66 2.652.418 1.048.626 2.252.626 3.613v.06c0 1.362-.208 2.566-.625 3.612-.416 1.047-.964 1.93-1.645 2.651a6.703 6.703 0 01-2.362 1.63 7.335 7.335 0 01-2.804.55c-1.24 0-2.26-.245-3.063-.731a8.174 8.174 0 01-2.027-1.707v7.01h-4.633zM322.387 26.153c-.143-1.037-.509-1.874-1.097-2.515-.59-.64-1.372-.96-2.347-.96-.975 0-1.763.316-2.363.945-.598.63-.99 1.474-1.173 2.53zm-2.987 9.814c-1.22 0-2.352-.203-3.399-.61a7.859 7.859 0 01-2.712-1.737 8.032 8.032 0 01-1.783-2.666c-.426-1.027-.64-2.17-.64-3.43v-.06c0-1.159.198-2.255.594-3.292a8.353 8.353 0 011.662-2.713 7.808 7.808 0 012.544-1.829c.985-.447 2.077-.67 3.277-.67 1.36 0 2.54.244 3.535.731a7.211 7.211 0 012.484 1.966 8.19 8.19 0 011.464 2.835 11.778 11.778 0 01.457 3.916c-.011.204-.027.417-.046.64h-11.369c.223 1.057.685 1.854 1.386 2.393.701.538 1.57.807 2.607.807.772 0 1.463-.131 2.072-.396.61-.263 1.239-.691 1.89-1.28l2.652 2.347a8.23 8.23 0 01-2.804 2.24c-1.098.538-2.389.808-3.871.808M329.847 19.264h4.633v3.292c.467-1.117 1.107-2.01 1.92-2.682.812-.67 1.91-.975 3.29-.915v4.848h-.242c-1.545 0-2.759.467-3.643 1.402-.882.935-1.325 2.387-1.325 4.357V35.6h-4.633zM341.944 19.264h4.633V35.6h-4.633zM358.395 31.974c.67 0 1.265-.117 1.783-.35.518-.234.96-.554 1.326-.96.366-.406.645-.88.838-1.418.194-.539.29-1.112.29-1.721v-.061a4.86 4.86 0 00-.305-1.723 4.361 4.361 0 00-.884-1.432 4.357 4.357 0 00-1.371-.992 4.12 4.12 0 00-1.739-.364c-.67 0-1.263.116-1.782.35-.517.234-.96.555-1.325.96a4.242 4.242 0 00-.84 1.417 5.05 5.05 0 00-.288 1.723v.06c0 .61.101 1.185.305 1.722a4.36 4.36 0 002.24 2.424c.517.242 1.101.365 1.752.365m-.062 3.992c-1.258 0-2.427-.217-3.505-.655a8.526 8.526 0 01-2.787-1.798 8.356 8.356 0 01-1.844-2.68 8.189 8.189 0 01-.67-3.308v-.061c0-1.18.222-2.281.67-3.308a8.417 8.417 0 011.859-2.696 8.763 8.763 0 012.804-1.829c1.076-.447 2.254-.672 3.535-.672 1.26 0 2.428.22 3.505.656a8.582 8.582 0 012.79 1.798 8.403 8.403 0 011.843 2.682 8.205 8.205 0 01.67 3.308v.06a8.195 8.195 0 01-.67 3.307 8.428 8.428 0 01-1.86 2.698 8.83 8.83 0 01-2.803 1.829c-1.078.446-2.255.669-3.537.669M370.071 19.264h4.633v3.292c.467-1.117 1.107-2.01 1.92-2.682.812-.67 1.909-.975 3.291-.915v4.848h-.243c-1.545 0-2.76.467-3.643 1.402-.884.935-1.325 2.387-1.325 4.357V35.6h-4.633zM157.036 63.671c.548 0 1.062-.107 1.54-.32a3.66 3.66 0 001.25-.915c.354-.396.64-.872.852-1.432.214-.558.32-1.173.32-1.843V59.1c0-.67-.106-1.286-.32-1.845a4.546 4.546 0 00-.853-1.431 3.66 3.66 0 00-1.25-.914 3.715 3.715 0 00-1.54-.321c-.548 0-1.061.106-1.538.32-.478.213-.9.517-1.265.915a4.401 4.401 0 00-.868 1.417c-.215.548-.32 1.169-.32 1.859v.06c0 .671.105 1.286.32 1.844.213.56.502 1.036.868 1.432.366.398.787.703 1.265.915.477.213.99.32 1.539.32m-1.189 3.932a7.26 7.26 0 01-2.773-.55 6.847 6.847 0 01-2.378-1.63c-.69-.72-1.244-1.604-1.66-2.651-.417-1.046-.626-2.25-.626-3.611V59.1c0-1.36.209-2.565.626-3.613.416-1.046.964-1.93 1.646-2.651a6.716 6.716 0 012.362-1.631 7.35 7.35 0 012.803-.549c1.24 0 2.26.244 3.064.733a8.16 8.16 0 012.026 1.705V45.05h4.633V67.3h-4.633V64.95a7.334 7.334 0 01-2.057 1.905c-.803.498-1.814.747-3.033.747M180.016 57.85c-.143-1.036-.509-1.874-1.098-2.515-.59-.64-1.371-.96-2.346-.96-.976 0-1.763.316-2.362.945-.6.63-.991 1.474-1.174 2.53zm-2.987 9.814c-1.22 0-2.352-.204-3.398-.61a7.847 7.847 0 01-2.712-1.737 8.035 8.035 0 01-1.784-2.666c-.427-1.027-.64-2.17-.64-3.43v-.06c0-1.159.199-2.255.595-3.292a8.35 8.35 0 011.66-2.713 7.8 7.8 0 012.546-1.829c.985-.447 2.076-.67 3.276-.67 1.361 0 2.539.244 3.535.731a7.189 7.189 0 012.483 1.966 8.19 8.19 0 011.465 2.835 11.734 11.734 0 01.457 3.916c-.011.204-.026.417-.047.64h-11.368c.223 1.057.686 1.854 1.387 2.393.7.538 1.57.807 2.606.807.771 0 1.463-.131 2.072-.396.61-.263 1.239-.691 1.89-1.28l2.651 2.347a8.218 8.218 0 01-2.804 2.24c-1.097.538-2.388.808-3.87.808M201.96 50.291h-6.493v-4.328h17.677v4.328h-6.491v17.007h-4.694zM223.729 57.85c-.143-1.036-.509-1.874-1.097-2.515-.59-.64-1.372-.96-2.347-.96-.975 0-1.763.316-2.362.945-.6.63-.99 1.474-1.174 2.53zm-2.987 9.814c-1.22 0-2.352-.204-3.398-.61a7.847 7.847 0 01-2.712-1.737 8.035 8.035 0 01-1.784-2.666c-.426-1.027-.64-2.17-.64-3.43v-.06c0-1.159.199-2.255.595-3.292a8.35 8.35 0 011.66-2.713 7.8 7.8 0 012.546-1.829c.985-.447 2.076-.67 3.276-.67 1.362 0 2.54.244 3.535.731a7.204 7.204 0 012.485 1.966 8.209 8.209 0 011.463 2.835 11.734 11.734 0 01.457 3.916c-.011.204-.026.417-.046.64H216.81c.223 1.057.687 1.854 1.388 2.393.7.538 1.569.807 2.605.807.772 0 1.463-.131 2.072-.396.61-.263 1.24-.691 1.89-1.28l2.652 2.347a8.218 8.218 0 01-2.804 2.24c-1.097.538-2.387.808-3.871.808M238.855 67.663c-1.22 0-2.352-.224-3.4-.67a8.34 8.34 0 01-2.696-1.813 8.331 8.331 0 01-1.768-2.682 8.452 8.452 0 01-.64-3.277v-.06c0-1.16.214-2.255.64-3.293a8.449 8.449 0 011.768-2.71 8.21 8.21 0 012.697-1.83c1.047-.448 2.2-.671 3.46-.671 1.543 0 2.823.244 3.84.731a8.637 8.637 0 012.682 2.012l-2.835 3.048a7.548 7.548 0 00-1.63-1.31c-.56-.325-1.255-.489-2.088-.489-.589 0-1.123.117-1.6.35a4.004 4.004 0 00-1.25.96 4.37 4.37 0 00-.822 1.418 5.062 5.062 0 00-.29 1.723v.06c0 .63.096 1.22.29 1.769a4.18 4.18 0 00.838 1.431c.365.406.802.727 1.31.96.507.235 1.077.352 1.707.352.772 0 1.447-.157 2.026-.473a8.601 8.601 0 001.723-1.265l2.712 2.743a10.44 10.44 0 01-2.712 2.149c-1.016.558-2.337.837-3.962.837M247.885 50.961h4.633v2.336c.264-.347.553-.681.868-.997a6.17 6.17 0 011.052-.845 5.258 5.258 0 011.28-.583 5.422 5.422 0 011.585-.216c1.767 0 3.134.54 4.1 1.616.964 1.078 1.447 2.561 1.447 4.45v10.575h-4.633v-9.09c0-1.094-.244-1.92-.732-2.478-.487-.557-1.178-.835-2.072-.835-.895 0-1.6.278-2.119.835-.518.557-.776 1.384-.776 2.477v9.091h-4.633zM274.449 63.671c.67 0 1.265-.117 1.782-.35.518-.234.961-.554 1.327-.96.365-.406.645-.88.837-1.418.194-.539.29-1.112.29-1.721v-.061a4.86 4.86 0 00-.304-1.723 4.361 4.361 0 00-.884-1.432 4.357 4.357 0 00-1.372-.991 4.118 4.118 0 00-1.737-.365c-.67 0-1.264.116-1.784.35a3.96 3.96 0 00-1.325.96 4.242 4.242 0 00-.838 1.417 5.08 5.08 0 00-.29 1.723v.06c0 .61.102 1.185.305 1.722.203.539.498 1.017.884 1.433a4.34 4.34 0 001.357.99c.517.243 1.101.366 1.752.366m-.061 3.992c-1.26 0-2.429-.217-3.505-.655a8.531 8.531 0 01-2.788-1.798 8.356 8.356 0 01-1.845-2.68 8.189 8.189 0 01-.67-3.308v-.061c0-1.18.223-2.281.67-3.308a8.417 8.417 0 011.86-2.696 8.776 8.776 0 012.804-1.829c1.076-.447 2.255-.672 3.535-.672 1.26 0 2.428.22 3.505.656a8.582 8.582 0 012.79 1.798 8.384 8.384 0 011.843 2.682 8.185 8.185 0 01.67 3.308v.06a8.175 8.175 0 01-.67 3.307 8.428 8.428 0 01-1.86 2.698 8.83 8.83 0 01-2.804 1.829c-1.077.446-2.255.669-3.535.669M286.262 45.05h4.633v22.248h-4.633zM302.768 63.671c.67 0 1.265-.117 1.782-.35.52-.234.96-.554 1.327-.96.365-.406.644-.88.837-1.418.194-.539.29-1.112.29-1.721v-.061c0-.61-.1-1.184-.305-1.723a4.361 4.361 0 00-.883-1.432 4.357 4.357 0 00-1.372-.991 4.118 4.118 0 00-1.737-.365c-.67 0-1.264.116-1.784.35a3.96 3.96 0 00-1.325.96 4.219 4.219 0 00-.837 1.417 5.05 5.05 0 00-.29 1.723v.06c0 .61.102 1.185.304 1.722a4.369 4.369 0 002.24 2.424c.518.242 1.102.365 1.753.365m-.061 3.992c-1.26 0-2.429-.217-3.505-.655a8.531 8.531 0 01-2.788-1.798 8.376 8.376 0 01-1.845-2.68 8.189 8.189 0 01-.67-3.308v-.061c0-1.18.223-2.281.67-3.308a8.436 8.436 0 011.86-2.696 8.79 8.79 0 012.803-1.829c1.077-.447 2.256-.672 3.536-.672 1.26 0 2.427.22 3.505.656a8.582 8.582 0 012.79 1.798 8.384 8.384 0 011.842 2.682 8.205 8.205 0 01.67 3.308v.06a8.195 8.195 0 01-.67 3.307 8.428 8.428 0 01-1.859 2.698 8.83 8.83 0 01-2.804 1.829c-1.077.446-2.255.669-3.535.669M322.203 62.117a4.48 4.48 0 001.585-.275c.487-.183.91-.442 1.264-.776.356-.337.635-.738.839-1.205.202-.467.304-.975.304-1.524v-.06c0-.55-.102-1.058-.304-1.524a3.635 3.635 0 00-.84-1.205 3.713 3.713 0 00-1.263-.775 4.454 4.454 0 00-1.585-.276 4.33 4.33 0 00-1.57.276 3.768 3.768 0 00-1.25.775 3.65 3.65 0 00-.837 1.205 3.772 3.772 0 00-.305 1.523v.061c0 1.14.375 2.053 1.127 2.743.753.692 1.696 1.037 2.835 1.037m-.549 10.118c-1.34 0-2.62-.147-3.84-.442a14.47 14.47 0 01-3.383-1.264l1.585-3.475a13.67 13.67 0 002.576 1.097c.863.264 1.843.397 2.94.397 1.585 0 2.758-.376 3.52-1.128.762-.752 1.143-1.86 1.143-3.322v-.791c-.69.832-1.443 1.482-2.255 1.949-.813.468-1.838.7-3.078.7a7.56 7.56 0 01-2.743-.503 6.75 6.75 0 01-2.316-1.477c-.671-.65-1.204-1.447-1.6-2.392-.396-.946-.595-2.027-.595-3.247v-.06c0-1.22.204-2.301.61-3.246.406-.946.944-1.742 1.615-2.392a6.753 6.753 0 012.316-1.479 7.484 7.484 0 012.713-.503c1.26 0 2.295.234 3.109.7a8.976 8.976 0 012.164 1.738v-2.133h4.632v12.65c0 2.903-.691 5.046-2.072 6.429-.773.772-1.742 1.331-2.91 1.676-1.17.345-2.546.518-4.13.518M334.612 50.96h4.633v16.337h-4.633zM349.123 64.403c1.097 0 1.976-.264 2.637-.792.66-.529.99-1.219.99-2.073v-.823a7.102 7.102 0 00-1.356-.443 7.353 7.353 0 00-1.6-.167c-.997 0-1.78.194-2.348.58-.569.386-.853.944-.853 1.675v.061c0 .63.233 1.118.701 1.463.467.345 1.077.519 1.829.519m-1.402 3.2a7.256 7.256 0 01-2.18-.32 5.1 5.1 0 01-1.782-.96 4.595 4.595 0 01-1.204-1.57c-.295-.62-.442-1.337-.442-2.149v-.06c0-.894.162-1.667.488-2.317a4.475 4.475 0 011.355-1.615c.58-.427 1.27-.746 2.074-.96.802-.214 1.69-.32 2.666-.32.833 0 1.56.06 2.179.184.62.12 1.224.284 1.814.486v-.274c0-.975-.294-1.717-.884-2.225-.589-.507-1.463-.762-2.621-.762-.895 0-1.681.077-2.362.23-.681.152-1.397.37-2.149.654l-1.158-3.536a18.257 18.257 0 012.804-.944c.975-.244 2.154-.366 3.535-.366 1.28 0 2.373.157 3.277.473.904.314 1.65.767 2.24 1.356.61.61 1.056 1.355 1.34 2.24.285.884.427 1.874.427 2.972v9.478h-4.48V65.53a6.432 6.432 0 01-2.042 1.508c-.792.377-1.758.565-2.895.565M380.392 57.85c-.142-1.036-.508-1.874-1.097-2.515-.59-.64-1.371-.96-2.347-.96-.975 0-1.762.316-2.362.945-.599.63-.99 1.474-1.173 2.53zm-2.986 9.814c-1.22 0-2.352-.204-3.398-.61a7.847 7.847 0 01-2.713-1.737 8.035 8.035 0 01-1.783-2.666c-.427-1.027-.64-2.17-.64-3.43v-.06c0-1.159.198-2.255.595-3.292a8.35 8.35 0 011.66-2.713 7.808 7.808 0 012.544-1.829c.987-.447 2.078-.67 3.277-.67 1.362 0 2.54.244 3.536.731a7.189 7.189 0 012.483 1.966 8.19 8.19 0 011.464 2.835 11.735 11.735 0 01.457 3.916c-.01.204-.025.417-.046.64h-11.368c.223 1.057.686 1.854 1.386 2.393.702.538 1.57.807 2.606.807.772 0 1.463-.131 2.073-.396.61-.263 1.239-.691 1.89-1.28l2.651 2.347a8.218 8.218 0 01-2.804 2.24c-1.097.538-2.387.808-3.87.808M407.64 67.663c-1.667 0-3.186-.274-4.558-.823-1.371-.548-2.55-1.31-3.535-2.285a10.341 10.341 0 01-2.3-3.474c-.55-1.342-.824-2.805-.824-4.39v-.06c0-1.525.278-2.952.838-4.283a11.005 11.005 0 012.33-3.505 10.954 10.954 0 013.538-2.378c1.36-.578 2.852-.868 4.48-.868.954 0 1.824.066 2.605.2.783.13 1.51.318 2.179.562.67.245 1.3.55 1.89.915.588.365 1.157.782 1.707 1.25l-2.956 3.566a11.807 11.807 0 00-1.22-.914 7.469 7.469 0 00-2.682-1.098 8.606 8.606 0 00-1.676-.153c-.854 0-1.651.18-2.393.535a6.435 6.435 0 00-1.95 1.435 6.605 6.605 0 00-1.31 2.11 6.993 6.993 0 00-.473 2.58v.061c0 .978.156 1.879.472 2.704a6.433 6.433 0 001.341 2.152 6.102 6.102 0 002.042 1.421c.783.337 1.65.504 2.607.504 1.745 0 3.218-.43 4.419-1.289v-3.07h-4.724v-4.053h9.265v9.267c-1.098.933-2.404 1.73-3.917 2.391-1.513.66-3.245.99-5.196.99M431.268 57.85c-.143-1.036-.508-1.874-1.097-2.515-.59-.64-1.372-.96-2.347-.96-.975 0-1.763.316-2.363.945-.598.63-.99 1.474-1.172 2.53zm-2.987 9.814c-1.219 0-2.352-.204-3.399-.61a7.854 7.854 0 01-2.711-1.737 8.035 8.035 0 01-1.784-2.666c-.426-1.027-.64-2.17-.64-3.43v-.06c0-1.159.199-2.255.595-3.292a8.33 8.33 0 011.66-2.713 7.808 7.808 0 012.545-1.829c.986-.447 2.077-.67 3.277-.67 1.36 0 2.54.244 3.535.731a7.211 7.211 0 012.484 1.966 8.19 8.19 0 011.464 2.835 11.778 11.778 0 01.457 3.916c-.01.204-.027.417-.046.64h-11.369c.224 1.057.686 1.854 1.387 2.393.7.538 1.57.807 2.606.807.772 0 1.463-.131 2.073-.396.61-.263 1.238-.691 1.89-1.28l2.65 2.347a8.23 8.23 0 01-2.803 2.24c-1.097.538-2.388.808-3.87.808M444.33 67.603c-1.158 0-2.342-.198-3.55-.594-1.21-.396-2.362-1.022-3.46-1.874l1.981-3.048c.894.65 1.784 1.138 2.668 1.462.883.326 1.712.488 2.483.488.67 0 1.163-.112 1.479-.335.315-.224.472-.519.472-.884v-.061a.877.877 0 00-.274-.64 2.33 2.33 0 00-.747-.473 11.194 11.194 0 00-1.082-.38 83.836 83.836 0 01-1.28-.396 17.21 17.21 0 01-1.723-.596 6.114 6.114 0 01-1.569-.914 4.465 4.465 0 01-1.143-1.386c-.294-.549-.442-1.22-.442-2.012v-.06c0-.834.158-1.571.473-2.21a4.895 4.895 0 011.28-1.631 5.445 5.445 0 011.889-1.006 7.854 7.854 0 012.332-.335c1.036 0 2.087.167 3.154.502 1.067.337 2.048.799 2.942 1.387l-1.768 3.2a14.758 14.758 0 00-2.377-1.112c-.773-.275-1.454-.411-2.042-.411-.57 0-.996.106-1.28.32-.285.214-.427.482-.427.807v.061c0 .224.091.422.274.594.183.174.427.335.732.488.304.152.655.3 1.05.442.398.143.818.284 1.266.427a19.31 19.31 0 011.737.656 7.156 7.156 0 011.585.929c.467.366.853.813 1.158 1.34.305.529.457 1.17.457 1.921v.061c0 .914-.157 1.702-.472 2.361a4.354 4.354 0 01-1.326 1.632 5.958 5.958 0 01-1.997.96 9.059 9.059 0 01-2.453.32M458.896 67.573a7.606 7.606 0 01-1.936-.23 3.436 3.436 0 01-1.494-.808c-.415-.385-.74-.887-.975-1.508-.234-.62-.35-1.407-.35-2.361v-7.743h-1.95v-3.962h1.95v-4.175h4.633v4.175h3.84v3.962h-3.84v7.005c0 1.06.497 1.591 1.493 1.591.812 0 1.574-.203 2.286-.61v3.719a7.212 7.212 0 01-1.615.685c-.59.173-1.27.26-2.042.26M471.574 64.403c1.097 0 1.976-.264 2.637-.792.66-.529.99-1.219.99-2.073v-.823a7.086 7.086 0 00-1.357-.443 7.334 7.334 0 00-1.6-.167c-.996 0-1.777.194-2.347.58-.569.386-.853.944-.853 1.675v.061c0 .63.234 1.118.701 1.463.467.345 1.077.519 1.829.519m-5.364-15.697c.183-.63.381-1.203.595-1.721.213-.52.467-.96.762-1.326a3.2 3.2 0 011.035-.854c.397-.202.86-.305 1.387-.305.467 0 .92.061 1.357.183.436.122.847.259 1.234.411.386.153.74.29 1.066.412.326.123.63.183.915.183.467 0 .818-.127 1.052-.38.233-.255.46-.626.685-1.113l2.469.762c-.345 1.28-.798 2.3-1.356 3.062-.56.762-1.367 1.144-2.424 1.144-.467 0-.919-.061-1.357-.182-.436-.123-.847-.26-1.233-.412-.387-.153-.748-.29-1.082-.412a2.67 2.67 0 00-.9-.183c-.466 0-.817.127-1.05.382-.234.253-.462.625-.687 1.111zm3.962 18.897a7.256 7.256 0 01-2.18-.32 5.1 5.1 0 01-1.782-.96 4.595 4.595 0 01-1.204-1.57c-.295-.62-.442-1.337-.442-2.149v-.06c0-.894.162-1.667.488-2.317a4.467 4.467 0 011.356-1.615c.58-.427 1.27-.746 2.073-.96.802-.214 1.69-.32 2.666-.32.833 0 1.56.06 2.179.184.62.12 1.224.284 1.814.486v-.274c0-.975-.295-1.717-.884-2.225-.589-.507-1.463-.762-2.621-.762-.895 0-1.681.077-2.362.23-.681.152-1.397.37-2.149.654l-1.158-3.536a18.257 18.257 0 012.804-.944c.975-.244 2.154-.366 3.535-.366 1.28 0 2.373.157 3.277.473.904.314 1.65.767 2.24 1.356.61.61 1.057 1.355 1.34 2.24.285.884.427 1.874.427 2.972v9.478h-4.48V65.53a6.445 6.445 0 01-2.042 1.508c-.792.377-1.758.565-2.895.565M491.192 63.671c.67 0 1.265-.117 1.783-.35a3.94 3.94 0 001.326-.96c.365-.406.645-.88.838-1.418a5.072 5.072 0 00.29-1.721v-.061a4.86 4.86 0 00-.305-1.723 4.34 4.34 0 00-2.256-2.423 4.11 4.11 0 00-1.737-.365c-.67 0-1.264.116-1.782.35-.519.234-.961.555-1.327.96a4.219 4.219 0 00-.837 1.417 5.05 5.05 0 00-.29 1.723v.06c0 .61.1 1.185.304 1.722.203.539.499 1.017.884 1.433a4.34 4.34 0 001.357.99c.518.243 1.102.366 1.752.366m-.061 3.992c-1.26 0-2.429-.217-3.505-.655a8.544 8.544 0 01-2.788-1.798 8.376 8.376 0 01-1.845-2.68 8.189 8.189 0 01-.67-3.308v-.061c0-1.18.223-2.281.67-3.308a8.42 8.42 0 011.86-2.696 8.77 8.77 0 012.803-1.829c1.077-.447 2.256-.672 3.536-.672 1.26 0 2.427.22 3.505.656a8.569 8.569 0 012.79 1.798 8.384 8.384 0 011.842 2.682A8.185 8.185 0 01500 59.1v.06a8.175 8.175 0 01-.67 3.307 8.428 8.428 0 01-1.86 2.698 8.83 8.83 0 01-2.804 1.829c-1.076.446-2.255.669-3.535.669M344.26 17.634c-1.446 0-2.655-1.21-2.655-2.658 0-1.449 1.21-2.66 2.655-2.66 1.446 0 2.655 1.211 2.655 2.66 0 1.448-1.209 2.658-2.655 2.658M336.93 49.331c-1.448 0-2.656-1.21-2.656-2.658 0-1.449 1.21-2.66 2.655-2.66 1.446 0 2.656 1.211 2.656 2.66 0 1.448-1.21 2.658-2.656 2.658"/><g fill="#f3ab1d"><path d="M6.125 5.722C2.789 5.722 0 8.516 0 11.855c0 3.34 2.79 6.135 6.125 6.135 3.334 0 6.125-2.794 6.125-6.135 0-3.339-2.79-6.133-6.125-6.133M93.582 0v15.849h-14.63V0H46.038v15.849h-14.63V8.534h-9.753v15.848H54.57V8.534H69.2v15.848h32.916V8.534h15.849V0z"/></g></svg>