<?xml version="1.0" encoding="UTF-8" standalone="no"?>
<!-- Created with Inkscape (http://www.inkscape.org/) -->

<svg
   width="500mm"
   height="91.665771mm"
   viewBox="0 0 499.99998 91.665772"
   version="1.1"
   id="svg10945"
   inkscape:version="1.1.2 (0a00cf5339, 2022-02-04)"
   sodipodi:docname="ipvc-logo.svg"
   xmlns:inkscape="http://www.inkscape.org/namespaces/inkscape"
   xmlns:sodipodi="http://sodipodi.sourceforge.net/DTD/sodipodi-0.dtd"
   xmlns="http://www.w3.org/2000/svg"
   xmlns:svg="http://www.w3.org/2000/svg">
  <sodipodi:namedview
     id="namedview10947"
     pagecolor="#505050"
     bordercolor="#ffffff"
     borderopacity="1"
     inkscape:pageshadow="0"
     inkscape:pageopacity="0"
     inkscape:pagecheckerboard="1"
     inkscape:document-units="mm"
     showgrid="false"
     inkscape:zoom="0.53039952"
     inkscape:cx="1045.4383"
     inkscape:cy="289.40448"
     inkscape:window-width="1920"
     inkscape:window-height="1007"
     inkscape:window-x="1536"
     inkscape:window-y="30"
     inkscape:window-maximized="1"
     inkscape:current-layer="layer1" />
  <defs
     id="defs10942" />
  <g
     inkscape:label="Layer 1"
     inkscape:groupmode="layer"
     id="layer1"
     transform="translate(139.49482,-72.011364)">
    <g
       id="g10828"
       transform="matrix(1.355762,0,0,-1.355762,106.82165,120.48975)">
      <path
         d="m 0,0 c -1.186,0 -2.178,0.994 -2.178,2.182 0,1.187 0.992,2.181 2.178,2.181 1.186,0 2.178,-0.994 2.178,-2.181 C 2.178,0.994 1.186,0 0,0"
         style="fill:#000000;fill-opacity:1;fill-rule:nonzero;stroke:none"
         id="path8521"
         transform="translate(-12.639702,25.9697)" />
      <path
         d="m 0,0 c -1.186,0 -2.178,0.993 -2.178,2.182 0,1.187 0.992,2.18 2.178,2.18 1.186,0 2.178,-0.993 2.178,-2.18 C 2.178,0.993 1.186,0 0,0"
         style="fill:#000000;fill-opacity:1;fill-rule:nonzero;stroke:none"
         id="path8525"
         transform="translate(92.644498,25.997998)" />
      <path
         d="M 0,0 C 0.966,0 1.716,0.254 2.25,0.763 2.783,1.271 3.05,1.9 3.05,2.65 V 2.7 C 3.05,3.566 2.77,4.226 2.212,4.676 1.654,5.125 0.891,5.351 -0.075,5.351 H -3.05 V 0 Z M -6.9,8.825 H 0.25 C 1.3,8.825 2.237,8.68 3.062,8.388 3.887,8.096 4.587,7.684 5.162,7.15 5.737,6.617 6.179,5.979 6.487,5.238 6.795,4.496 6.95,3.676 6.95,2.775 V 2.726 C 6.95,1.709 6.766,0.816 6.399,0.051 6.033,-0.717 5.529,-1.358 4.887,-1.875 4.246,-2.392 3.496,-2.779 2.637,-3.037 1.779,-3.296 0.858,-3.425 -0.125,-3.425 H -3.05 v -5.25 H -6.9 Z"
         style="fill:#000000;fill-opacity:1;fill-rule:nonzero;stroke:none"
         id="path8403"
         transform="translate(58.503402,19.907202)" />
      <path
         d="M 0,0 C 0.55,0 1.038,0.096 1.462,0.287 1.888,0.479 2.25,0.741 2.55,1.074 2.85,1.408 3.079,1.795 3.238,2.237 3.396,2.679 3.475,3.149 3.475,3.649 v 0.05 c 0,0.5 -0.083,0.971 -0.25,1.413 C 3.058,5.554 2.816,5.945 2.5,6.287 2.183,6.629 1.808,6.899 1.375,7.1 0.941,7.3 0.466,7.399 -0.05,7.399 -0.6,7.399 -1.087,7.304 -1.512,7.112 -1.937,6.92 -2.3,6.658 -2.6,6.324 -2.9,5.991 -3.129,5.604 -3.288,5.162 -3.446,4.721 -3.525,4.25 -3.525,3.75 V 3.699 c 0,-0.5 0.083,-0.97 0.25,-1.412 C -3.108,1.846 -2.867,1.453 -2.55,1.112 -2.233,0.771 -1.862,0.5 -1.437,0.3 -1.012,0.1 -0.534,0 0,0 m -0.05,-3.275 c -1.033,0 -1.992,0.179 -2.875,0.537 -0.884,0.358 -1.646,0.85 -2.287,1.475 -0.642,0.625 -1.146,1.359 -1.513,2.2 -0.367,0.841 -0.55,1.746 -0.55,2.712 v 0.05 c 0,0.967 0.183,1.871 0.55,2.713 0.367,0.842 0.875,1.579 1.525,2.213 0.65,0.633 1.416,1.133 2.3,1.5 0.883,0.366 1.85,0.55 2.9,0.55 1.033,0 1.992,-0.18 2.875,-0.538 C 3.758,9.778 4.521,9.287 5.163,8.662 5.804,8.037 6.308,7.304 6.675,6.462 7.042,5.62 7.225,4.716 7.225,3.75 V 3.699 C 7.225,2.732 7.042,1.828 6.675,0.987 6.308,0.146 5.8,-0.592 5.15,-1.226 4.5,-1.859 3.733,-2.359 2.85,-2.726 1.966,-3.092 1,-3.275 -0.05,-3.275"
         style="fill:#000000;fill-opacity:1;fill-rule:nonzero;stroke:none"
         id="path8407"
         transform="translate(74.002902,14.208005)" />
      <path
         d="m 474.457,463.266 h 3.8 v -18.25 h -3.8 z"
         style="fill:#000000;fill-opacity:1;fill-rule:nonzero;stroke:none"
         id="path8409"
         transform="translate(-390.7651,-433.7832)" />
      <path
         d="m 481.51,458.416 h 3.8 v -13.4 h -3.8 z"
         style="fill:#000000;fill-opacity:1;fill-rule:nonzero;stroke:none"
         id="path8411"
         transform="translate(-390.7651,-433.7832)" />
      <path
         d="M 0,0 C -0.583,0 -1.112,0.062 -1.587,0.187 -2.063,0.312 -2.471,0.533 -2.813,0.85 -3.154,1.166 -3.421,1.579 -3.612,2.087 -3.804,2.596 -3.9,3.241 -3.9,4.024 v 6.351 h -1.6 v 3.25 h 1.6 v 3.425 h 3.8 v -3.425 h 3.15 v -3.25 H -0.1 V 4.63 c 0,-0.87 0.408,-1.305 1.225,-1.305 0.666,0 1.292,0.166 1.875,0.5 V 0.774 C 2.6,0.541 2.158,0.354 1.675,0.212 1.191,0.071 0.633,0 0,0"
         style="fill:#000000;fill-opacity:1;fill-rule:nonzero;stroke:none"
         id="path8415"
         transform="translate(102.2065,11.0078)" />
      <path
         d="m 0,0 3.275,-1.425 -3.2,-3 h -2.9 z m 1.525,-11.55 c -0.116,0.851 -0.417,1.538 -0.9,2.063 -0.483,0.525 -1.125,0.788 -1.925,0.788 -0.8,0 -1.446,-0.259 -1.937,-0.776 -0.492,-0.516 -0.813,-1.209 -0.963,-2.075 z m -2.45,-8.05 c -1,0 -1.929,0.167 -2.787,0.5 -0.858,0.333 -1.6,0.809 -2.225,1.425 -0.625,0.616 -1.113,1.346 -1.462,2.188 -0.351,0.841 -0.526,1.779 -0.526,2.812 v 0.05 c 0,0.95 0.163,1.851 0.488,2.7 0.325,0.851 0.779,1.592 1.362,2.226 0.584,0.633 1.28,1.133 2.088,1.5 0.808,0.366 1.704,0.55 2.687,0.55 1.116,0 2.083,-0.201 2.9,-0.601 0.817,-0.399 1.496,-0.937 2.038,-1.612 0.541,-0.675 0.941,-1.451 1.2,-2.326 0.258,-0.875 0.388,-1.787 0.388,-2.737 0,-0.149 -0.005,-0.308 -0.013,-0.474 -0.009,-0.167 -0.021,-0.342 -0.038,-0.526 h -9.324 c 0.182,-0.866 0.562,-1.52 1.137,-1.962 0.575,-0.442 1.287,-0.663 2.137,-0.663 0.634,0 1.2,0.109 1.7,0.325 0.5,0.217 1.017,0.567 1.55,1.05 L 4.55,-17.1 c -0.633,-0.783 -1.4,-1.396 -2.3,-1.837 -0.9,-0.442 -1.958,-0.663 -3.175,-0.663"
         style="fill:#000000;fill-opacity:1;fill-rule:nonzero;stroke:none"
         id="path8419"
         transform="translate(114.7759,30.532198)" />
      <path
         d="M 0,0 C -1,0 -1.929,0.184 -2.788,0.55 -3.646,0.916 -4.383,1.412 -5,2.037 -5.617,2.662 -6.1,3.396 -6.45,4.237 -6.8,5.079 -6.975,5.975 -6.975,6.925 v 0.05 c 0,0.95 0.175,1.85 0.525,2.7 0.35,0.85 0.833,1.592 1.45,2.225 0.617,0.633 1.354,1.133 2.212,1.5 0.859,0.367 1.804,0.55 2.838,0.55 1.266,0 2.316,-0.2 3.15,-0.6 0.833,-0.4 1.566,-0.95 2.2,-1.65 L 3.075,9.2 c -0.434,0.45 -0.879,0.808 -1.338,1.075 -0.458,0.266 -1.029,0.4 -1.712,0.4 -0.484,0 -0.921,-0.096 -1.313,-0.287 C -1.679,10.195 -2.021,9.934 -2.313,9.6 -2.604,9.267 -2.829,8.879 -2.988,8.438 -3.146,7.996 -3.225,7.525 -3.225,7.025 v -0.05 c 0,-0.517 0.079,-1 0.237,-1.45 C -2.829,5.075 -2.6,4.684 -2.3,4.35 -2,4.017 -1.642,3.754 -1.225,3.563 c 0.416,-0.192 0.883,-0.288 1.4,-0.288 0.633,0 1.187,0.129 1.662,0.387 C 2.313,3.921 2.783,4.267 3.25,4.7 L 5.475,2.45 C 4.825,1.733 4.083,1.146 3.25,0.687 2.416,0.229 1.333,0 0,0"
         style="fill:#000000;fill-opacity:1;fill-rule:nonzero;stroke:none"
         id="path8423"
         transform="translate(128.7085,10.932605)" />
      <path
         d="m 0,0 h 3.8 v -1.916 c 0.217,0.285 0.454,0.559 0.713,0.818 0.258,0.261 0.546,0.492 0.862,0.693 0.316,0.201 0.667,0.361 1.05,0.478 0.384,0.117 0.817,0.177 1.3,0.177 1.45,0 2.571,-0.442 3.363,-1.325 0.791,-0.884 1.187,-2.1 1.187,-3.651 V -13.4 h -3.8 v 7.457 c 0,0.897 -0.2,1.575 -0.6,2.032 -0.4,0.457 -0.967,0.685 -1.7,0.685 -0.734,0 -1.312,-0.228 -1.738,-0.685 C 4.013,-4.368 3.8,-5.046 3.8,-5.943 V -13.4 H 0 Z"
         style="fill:#000000;fill-opacity:1;fill-rule:nonzero;stroke:none"
         id="path8427"
         transform="translate(136.11571,24.632803)" />
      <path
         d="m 542.208,458.416 h 3.8 v -13.4 h -3.8 z"
         style="fill:#000000;fill-opacity:1;fill-rule:nonzero;stroke:none"
         id="path8429"
         transform="translate(-390.7651,-433.7832)" />
      <path
         d="M 0,0 C -1,0 -1.929,0.184 -2.788,0.55 -3.646,0.916 -4.383,1.412 -5,2.037 -5.616,2.662 -6.1,3.396 -6.45,4.237 -6.8,5.079 -6.975,5.975 -6.975,6.925 v 0.05 c 0,0.95 0.175,1.85 0.525,2.7 0.35,0.85 0.834,1.592 1.45,2.225 0.617,0.633 1.354,1.133 2.212,1.5 0.859,0.367 1.805,0.55 2.838,0.55 1.266,0 2.317,-0.2 3.15,-0.6 0.833,-0.4 1.567,-0.95 2.2,-1.65 L 3.075,9.2 c -0.433,0.45 -0.879,0.808 -1.338,1.075 -0.458,0.266 -1.029,0.4 -1.712,0.4 -0.483,0 -0.921,-0.096 -1.313,-0.287 C -1.679,10.195 -2.021,9.934 -2.313,9.6 -2.604,9.267 -2.829,8.879 -2.987,8.438 -3.146,7.996 -3.225,7.525 -3.225,7.025 v -0.05 c 0,-0.517 0.079,-1 0.238,-1.45 C -2.829,5.075 -2.6,4.684 -2.3,4.35 -2,4.017 -1.642,3.754 -1.225,3.563 c 0.416,-0.192 0.883,-0.288 1.4,-0.288 0.634,0 1.187,0.129 1.662,0.387 C 2.313,3.921 2.783,4.267 3.25,4.7 L 5.475,2.45 C 4.825,1.733 4.083,1.146 3.25,0.687 2.417,0.229 1.333,0 0,0"
         style="fill:#000000;fill-opacity:1;fill-rule:nonzero;stroke:none"
         id="path8433"
         transform="translate(164.6372,10.932605)" />
      <path
         d="M 0,0 C 0.55,0 1.038,0.096 1.463,0.287 1.888,0.479 2.25,0.741 2.55,1.074 2.85,1.408 3.079,1.795 3.238,2.237 3.396,2.679 3.475,3.149 3.475,3.649 v 0.05 c 0,0.5 -0.083,0.971 -0.25,1.413 C 3.059,5.554 2.816,5.945 2.5,6.287 2.184,6.629 1.809,6.899 1.375,7.1 0.941,7.3 0.467,7.399 -0.05,7.399 -0.6,7.399 -1.087,7.304 -1.512,7.112 -1.937,6.92 -2.3,6.658 -2.6,6.324 -2.9,5.991 -3.129,5.604 -3.287,5.162 -3.446,4.721 -3.525,4.25 -3.525,3.75 V 3.699 c 0,-0.5 0.084,-0.97 0.25,-1.412 C -3.108,1.846 -2.867,1.453 -2.55,1.112 -2.233,0.771 -1.862,0.5 -1.437,0.3 -1.012,0.1 -0.533,0 0,0 m -0.05,-3.275 c -1.033,0 -1.992,0.179 -2.875,0.537 -0.884,0.358 -1.646,0.85 -2.287,1.475 -0.642,0.625 -1.146,1.359 -1.513,2.2 -0.367,0.841 -0.55,1.746 -0.55,2.712 v 0.05 c 0,0.967 0.183,1.871 0.55,2.713 0.367,0.842 0.875,1.579 1.525,2.213 0.65,0.633 1.417,1.133 2.3,1.5 0.883,0.366 1.85,0.55 2.9,0.55 1.033,0 1.992,-0.18 2.875,-0.538 C 3.758,9.778 4.521,9.287 5.163,8.662 5.804,8.037 6.309,7.304 6.675,6.462 7.042,5.62 7.225,4.716 7.225,3.75 V 3.699 C 7.225,2.732 7.042,1.828 6.675,0.987 6.309,0.146 5.8,-0.592 5.15,-1.226 4.5,-1.859 3.733,-2.359 2.85,-2.726 1.967,-3.092 1,-3.275 -0.05,-3.275"
         style="fill:#000000;fill-opacity:1;fill-rule:nonzero;stroke:none"
         id="path8437"
         transform="translate(178.2544,14.208005)" />
      <path
         d="m 0,0 c 0.45,0 0.871,0.087 1.263,0.262 0.391,0.175 0.733,0.425 1.025,0.75 0.291,0.325 0.525,0.717 0.7,1.176 C 3.163,2.646 3.25,3.149 3.25,3.699 V 3.75 C 3.25,4.3 3.163,4.804 2.988,5.262 2.813,5.721 2.579,6.112 2.288,6.437 1.996,6.762 1.654,7.012 1.263,7.187 0.871,7.362 0.45,7.449 0,7.449 -0.45,7.449 -0.871,7.362 -1.262,7.187 -1.654,7.012 -2,6.762 -2.3,6.437 -2.6,6.112 -2.837,5.725 -3.012,5.274 -3.188,4.824 -3.275,4.316 -3.275,3.75 V 3.699 c 0,-0.55 0.087,-1.053 0.263,-1.511 C -2.837,1.729 -2.6,1.337 -2.3,1.012 -2,0.687 -1.654,0.437 -1.262,0.262 -0.871,0.087 -0.45,0 0,0 m -0.975,-3.226 c -0.783,0 -1.542,0.151 -2.275,0.451 -0.733,0.299 -1.383,0.746 -1.95,1.338 -0.567,0.59 -1.021,1.316 -1.362,2.174 -0.342,0.859 -0.513,1.846 -0.513,2.962 V 3.75 c 0,1.116 0.171,2.104 0.513,2.962 0.341,0.858 0.791,1.583 1.35,2.175 0.558,0.592 1.204,1.038 1.937,1.338 0.733,0.299 1.5,0.45 2.3,0.45 1.017,0 1.854,-0.2 2.513,-0.601 C 2.196,9.675 2.75,9.208 3.2,8.675 v 6.599 H 7 V -2.976 H 3.2 v 1.925 C 2.733,-1.684 2.171,-2.205 1.513,-2.613 0.854,-3.021 0.025,-3.226 -0.975,-3.226"
         style="fill:#000000;fill-opacity:1;fill-rule:nonzero;stroke:none"
         id="path8467"
         transform="translate(63.080502,-11.791998)" />
      <path
         d="M 0,0 C 0.55,0 1.038,0.096 1.462,0.287 1.887,0.479 2.25,0.741 2.55,1.074 2.85,1.408 3.079,1.795 3.237,2.237 3.396,2.679 3.475,3.149 3.475,3.649 v 0.05 c 0,0.5 -0.084,0.971 -0.25,1.413 C 3.058,5.554 2.816,5.945 2.5,6.287 2.183,6.629 1.808,6.899 1.375,7.1 0.941,7.3 0.466,7.399 -0.05,7.399 -0.601,7.399 -1.087,7.304 -1.513,7.112 -1.937,6.92 -2.3,6.658 -2.601,6.324 -2.9,5.991 -3.129,5.604 -3.288,5.162 -3.446,4.721 -3.525,4.25 -3.525,3.75 V 3.699 c 0,-0.5 0.083,-0.97 0.25,-1.412 C -3.109,1.846 -2.867,1.453 -2.55,1.112 -2.234,0.771 -1.863,0.5 -1.437,0.3 -1.013,0.1 -0.534,0 0,0 m -0.05,-3.275 c -1.033,0 -1.992,0.179 -2.875,0.537 -0.884,0.358 -1.646,0.85 -2.287,1.475 -0.642,0.625 -1.147,1.359 -1.513,2.2 -0.367,0.841 -0.55,1.746 -0.55,2.712 v 0.05 c 0,0.967 0.183,1.871 0.55,2.713 0.366,0.842 0.874,1.579 1.525,2.213 0.65,0.633 1.416,1.133 2.3,1.5 0.882,0.366 1.85,0.55 2.9,0.55 1.033,0 1.991,-0.18 2.875,-0.538 C 3.758,9.778 4.521,9.287 5.163,8.662 5.804,8.037 6.308,7.304 6.675,6.462 7.041,5.62 7.225,4.716 7.225,3.75 V 3.699 C 7.225,2.732 7.041,1.828 6.675,0.987 6.308,0.146 5.8,-0.592 5.149,-1.226 4.5,-1.859 3.732,-2.359 2.85,-2.726 1.966,-3.092 1,-3.275 -0.05,-3.275"
         style="fill:#000000;fill-opacity:1;fill-rule:nonzero;stroke:none"
         id="path8471"
         transform="translate(79.708002,-11.791998)" />
      <path
         d="m 0,0 c -1.283,0 -2.475,0.233 -3.575,0.7 -1.1,0.466 -2.05,1.104 -2.85,1.912 C -7.225,3.421 -7.85,4.375 -8.3,5.475 -8.75,6.575 -8.975,7.75 -8.975,9 v 0.05 c 0,1.25 0.225,2.421 0.675,3.513 0.45,1.091 1.075,2.049 1.875,2.875 0.8,0.825 1.758,1.474 2.875,1.95 1.116,0.474 2.35,0.712 3.7,0.712 0.817,0 1.563,-0.067 2.238,-0.2 0.675,-0.133 1.287,-0.317 1.837,-0.55 0.55,-0.234 1.058,-0.517 1.525,-0.85 0.467,-0.334 0.9,-0.7 1.3,-1.1 L 4.6,12.575 c -0.683,0.616 -1.379,1.1 -2.087,1.45 -0.709,0.35 -1.505,0.525 -2.388,0.525 -0.733,0 -1.412,-0.142 -2.037,-0.425 -0.625,-0.283 -1.163,-0.675 -1.613,-1.175 -0.45,-0.5 -0.8,-1.079 -1.05,-1.737 C -4.825,10.554 -4.95,9.85 -4.95,9.1 V 9.05 c 0,-0.75 0.125,-1.458 0.375,-2.125 0.25,-0.667 0.596,-1.25 1.038,-1.75 0.441,-0.5 0.974,-0.896 1.6,-1.188 0.625,-0.292 1.312,-0.437 2.062,-0.437 1,0 1.846,0.183 2.538,0.55 0.691,0.367 1.379,0.867 2.062,1.5 L 7.175,3.125 C 6.725,2.642 6.258,2.208 5.775,1.825 5.292,1.441 4.763,1.112 4.187,0.838 3.613,0.562 2.983,0.354 2.3,0.213 1.617,0.071 0.85,0 0,0"
         style="fill:#000000;fill-opacity:1;fill-rule:nonzero;stroke:none"
         id="path8475"
         transform="translate(105.28171,-15.067398)" />
      <path
         d="m 0,0 c 0.9,0 1.621,0.217 2.163,0.65 0.541,0.433 0.812,1 0.812,1.701 V 3.025 C 2.642,3.175 2.271,3.296 1.862,3.388 1.454,3.479 1.017,3.525 0.55,3.525 c -0.817,0 -1.458,-0.159 -1.925,-0.475 -0.467,-0.317 -0.7,-0.775 -0.7,-1.375 v -0.05 c 0,-0.517 0.192,-0.917 0.575,-1.2 C -1.117,0.142 -0.617,0 0,0 m -1.15,-2.625 c -0.633,0 -1.229,0.088 -1.788,0.263 -0.558,0.174 -1.045,0.437 -1.462,0.787 -0.416,0.35 -0.746,0.779 -0.988,1.288 -0.241,0.508 -0.362,1.096 -0.362,1.763 v 0.049 c 0,0.734 0.133,1.367 0.4,1.9 0.267,0.533 0.638,0.975 1.113,1.325 0.474,0.351 1.041,0.612 1.699,0.788 C -1.879,5.713 -1.15,5.8 -0.35,5.8 0.333,5.8 0.929,5.75 1.437,5.65 1.946,5.55 2.441,5.417 2.925,5.25 V 5.476 C 2.925,6.275 2.684,6.884 2.2,7.3 1.717,7.717 1,7.925 0.05,7.925 -0.684,7.925 -1.329,7.862 -1.888,7.737 -2.446,7.612 -3.033,7.434 -3.65,7.2 l -0.95,2.901 c 0.733,0.316 1.5,0.574 2.3,0.774 0.8,0.2 1.767,0.3 2.9,0.3 1.05,0 1.946,-0.129 2.688,-0.387 0.741,-0.259 1.354,-0.63 1.837,-1.113 0.5,-0.5 0.867,-1.112 1.1,-1.837 C 6.458,7.112 6.575,6.3 6.575,5.4 V -2.375 H 2.9 v 1.45 C 2.434,-1.441 1.875,-1.854 1.225,-2.162 0.575,-2.471 -0.217,-2.625 -1.15,-2.625"
         style="fill:#000000;fill-opacity:1;fill-rule:nonzero;stroke:none"
         id="path8479"
         transform="translate(119.8589,-12.392598)" />
      <path
         d="M 0,0 C -0.95,0 -1.921,0.163 -2.912,0.487 -3.904,0.812 -4.85,1.325 -5.75,2.025 l 1.625,2.5 c 0.733,-0.534 1.463,-0.933 2.188,-1.2 0.725,-0.266 1.404,-0.4 2.037,-0.4 0.55,0 0.954,0.092 1.212,0.275 C 1.571,3.384 1.7,3.625 1.7,3.925 V 3.976 C 1.7,4.175 1.625,4.351 1.475,4.5 1.325,4.65 1.121,4.779 0.862,4.888 0.604,4.996 0.309,5.101 -0.025,5.2 -0.358,5.3 -0.708,5.408 -1.075,5.525 -1.542,5.658 -2.012,5.821 -2.487,6.013 -2.962,6.204 -3.392,6.454 -3.775,6.763 -4.158,7.071 -4.471,7.45 -4.712,7.9 c -0.242,0.451 -0.363,1 -0.363,1.65 v 0.051 c 0,0.682 0.129,1.287 0.388,1.812 0.258,0.525 0.608,0.971 1.049,1.337 0.442,0.366 0.959,0.642 1.551,0.825 0.591,0.184 1.229,0.276 1.912,0.276 0.85,0 1.713,-0.138 2.588,-0.413 C 3.288,13.163 4.092,12.783 4.825,12.3 L 3.375,9.675 c -0.667,0.384 -1.316,0.687 -1.95,0.913 -0.633,0.225 -1.192,0.337 -1.675,0.337 -0.467,0 -0.816,-0.087 -1.05,-0.262 C -1.533,10.487 -1.65,10.267 -1.65,10 V 9.95 c 0,-0.183 0.075,-0.346 0.225,-0.487 0.15,-0.142 0.35,-0.275 0.6,-0.4 C -0.575,8.938 -0.288,8.816 0.038,8.7 0.362,8.583 0.708,8.467 1.075,8.351 1.542,8.2 2.017,8.021 2.5,7.812 2.983,7.604 3.417,7.351 3.8,7.05 4.184,6.75 4.5,6.384 4.75,5.95 5,5.517 5.125,4.991 5.125,4.375 V 4.325 C 5.125,3.575 4.996,2.929 4.738,2.388 4.479,1.846 4.117,1.4 3.65,1.05 3.184,0.7 2.638,0.437 2.013,0.263 1.388,0.088 0.717,0 0,0"
         style="fill:#000000;fill-opacity:1;fill-rule:nonzero;stroke:none"
         id="path8483"
         transform="translate(134.0786,-15.017598)" />
      <path
         d="M 0,0 C -0.583,0 -1.112,0.062 -1.587,0.187 -2.062,0.312 -2.471,0.533 -2.812,0.85 -3.154,1.166 -3.421,1.579 -3.612,2.087 -3.804,2.596 -3.9,3.241 -3.9,4.024 v 6.351 h -1.6 v 3.25 h 1.6 v 3.425 h 3.8 v -3.425 h 3.15 v -3.25 H -0.1 V 4.63 c 0,-0.87 0.409,-1.305 1.225,-1.305 0.667,0 1.292,0.166 1.875,0.5 V 0.774 C 2.6,0.541 2.158,0.354 1.675,0.212 1.191,0.071 0.633,0 0,0"
         style="fill:#000000;fill-opacity:1;fill-rule:nonzero;stroke:none"
         id="path8487"
         transform="translate(146.02591,-14.992196)" />
      <path
         d="m 0,0 c -0.117,0.851 -0.417,1.538 -0.9,2.063 -0.483,0.525 -1.125,0.788 -1.925,0.788 -0.8,0 -1.446,-0.259 -1.937,-0.776 C -5.254,1.559 -5.575,0.866 -5.725,0 Z m -2.45,-8.05 c -1,0 -1.929,0.167 -2.787,0.5 -0.859,0.333 -1.6,0.809 -2.225,1.425 -0.625,0.616 -1.113,1.346 -1.463,2.187 -0.349,0.842 -0.525,1.78 -0.525,2.813 v 0.05 c 0,0.95 0.163,1.85 0.488,2.7 0.325,0.851 0.779,1.592 1.362,2.226 0.583,0.632 1.279,1.132 2.088,1.5 0.808,0.366 1.703,0.549 2.687,0.549 1.117,0 2.083,-0.2 2.9,-0.6 C 0.892,4.9 1.571,4.362 2.112,3.688 2.654,3.013 3.054,2.237 3.313,1.362 3.571,0.487 3.7,-0.425 3.7,-1.375 3.7,-1.524 3.696,-1.684 3.688,-1.85 3.679,-2.017 3.667,-2.191 3.65,-2.375 h -9.325 c 0.183,-0.866 0.563,-1.521 1.138,-1.962 C -3.962,-4.779 -3.25,-5 -2.4,-5 c 0.633,0 1.2,0.108 1.7,0.325 0.5,0.217 1.016,0.567 1.55,1.05 L 3.025,-5.55 c -0.633,-0.783 -1.4,-1.396 -2.3,-1.838 -0.9,-0.441 -1.958,-0.662 -3.175,-0.662"
         style="fill:#000000;fill-opacity:1;fill-rule:nonzero;stroke:none"
         id="path8491"
         transform="translate(160.1206,-7.0175957)" />
      <path
         d="m 557.116,437.266 h 3.8 v -18.25 h -3.8 z"
         style="fill:#000000;fill-opacity:1;fill-rule:nonzero;stroke:none"
         id="path8493"
         transform="translate(-390.7651,-433.7832)" />
      <path
         d="M 0,0 C 0.549,0 1.038,0.096 1.462,0.287 1.888,0.479 2.25,0.741 2.549,1.074 2.85,1.408 3.079,1.795 3.237,2.237 3.396,2.679 3.475,3.149 3.475,3.649 v 0.05 c 0,0.5 -0.084,0.971 -0.25,1.413 C 3.058,5.554 2.816,5.945 2.5,6.287 2.183,6.629 1.808,6.899 1.375,7.1 0.941,7.3 0.466,7.399 -0.05,7.399 -0.6,7.399 -1.087,7.304 -1.513,7.112 -1.937,6.92 -2.3,6.658 -2.6,6.324 -2.9,5.991 -3.129,5.604 -3.288,5.162 -3.446,4.721 -3.525,4.25 -3.525,3.75 V 3.699 c 0,-0.5 0.083,-0.97 0.25,-1.412 C -3.109,1.846 -2.867,1.453 -2.55,1.112 -2.234,0.771 -1.862,0.5 -1.437,0.3 -1.013,0.1 -0.534,0 0,0 m -0.05,-3.275 c -1.034,0 -1.992,0.179 -2.875,0.537 -0.884,0.358 -1.646,0.85 -2.287,1.475 -0.642,0.625 -1.147,1.359 -1.513,2.2 -0.367,0.841 -0.55,1.746 -0.55,2.712 v 0.05 c 0,0.967 0.183,1.871 0.55,2.713 0.366,0.842 0.875,1.579 1.524,2.213 0.651,0.633 1.417,1.133 2.301,1.5 0.883,0.366 1.85,0.55 2.9,0.55 1.033,0 1.991,-0.18 2.875,-0.538 C 3.758,9.778 4.521,9.287 5.163,8.662 5.804,8.037 6.308,7.304 6.674,6.462 7.041,5.62 7.225,4.716 7.225,3.75 V 3.699 C 7.225,2.732 7.041,1.828 6.674,0.987 6.308,0.146 5.799,-0.592 5.15,-1.226 4.5,-1.859 3.733,-2.359 2.85,-2.726 1.966,-3.092 1,-3.275 -0.05,-3.275"
         style="fill:#000000;fill-opacity:1;fill-rule:nonzero;stroke:none"
         id="path8497"
         transform="translate(179.8901,-11.791998)" />
      <path
         d="m 0,0 c 0.45,0 0.871,0.087 1.263,0.262 0.391,0.175 0.733,0.425 1.025,0.75 0.291,0.325 0.525,0.717 0.7,1.176 C 3.163,2.646 3.25,3.149 3.25,3.699 V 3.75 C 3.25,4.3 3.163,4.804 2.988,5.262 2.813,5.721 2.579,6.112 2.288,6.437 1.996,6.762 1.654,7.012 1.263,7.187 0.871,7.362 0.45,7.449 0,7.449 -0.45,7.449 -0.871,7.362 -1.262,7.187 -1.654,7.012 -2,6.762 -2.3,6.437 -2.6,6.112 -2.837,5.725 -3.012,5.274 -3.188,4.824 -3.275,4.316 -3.275,3.75 V 3.699 c 0,-0.55 0.087,-1.053 0.263,-1.511 C -2.837,1.729 -2.6,1.337 -2.3,1.012 -2,0.687 -1.654,0.437 -1.262,0.262 -0.871,0.087 -0.45,0 0,0 m -0.975,-3.226 c -0.783,0 -1.542,0.151 -2.275,0.451 -0.733,0.299 -1.383,0.746 -1.95,1.338 -0.567,0.59 -1.021,1.316 -1.362,2.174 -0.342,0.859 -0.513,1.846 -0.513,2.962 V 3.75 c 0,1.116 0.171,2.104 0.513,2.962 0.341,0.858 0.791,1.583 1.35,2.175 0.558,0.592 1.204,1.038 1.937,1.338 0.733,0.299 1.5,0.45 2.3,0.45 1.017,0 1.854,-0.2 2.513,-0.601 C 2.196,9.675 2.75,9.208 3.2,8.675 v 6.599 H 7 V -2.976 H 3.2 v 1.925 C 2.733,-1.684 2.171,-2.205 1.513,-2.613 0.854,-3.021 0.025,-3.226 -0.975,-3.226"
         style="fill:#000000;fill-opacity:1;fill-rule:nonzero;stroke:none"
         id="path8441"
         transform="translate(-52.698801,-11.791998)" />
      <path
         d="m 0,0 c -0.117,0.851 -0.417,1.538 -0.9,2.063 -0.483,0.525 -1.125,0.788 -1.925,0.788 -0.8,0 -1.446,-0.259 -1.937,-0.776 C -5.254,1.559 -5.575,0.866 -5.725,0 Z m -2.45,-8.05 c -1,0 -1.929,0.167 -2.787,0.5 -0.859,0.333 -1.6,0.809 -2.225,1.425 -0.625,0.616 -1.113,1.346 -1.463,2.187 -0.35,0.842 -0.525,1.78 -0.525,2.813 v 0.05 c 0,0.95 0.163,1.85 0.488,2.7 0.325,0.851 0.778,1.592 1.362,2.226 0.583,0.632 1.279,1.132 2.088,1.5 0.808,0.366 1.703,0.549 2.687,0.549 1.117,0 2.083,-0.2 2.9,-0.6 C 0.892,4.9 1.571,4.362 2.113,3.688 2.654,3.013 3.054,2.237 3.313,1.362 3.571,0.487 3.7,-0.425 3.7,-1.375 3.7,-1.524 3.696,-1.684 3.688,-1.85 3.679,-2.017 3.667,-2.191 3.65,-2.375 h -9.325 c 0.183,-0.866 0.563,-1.521 1.138,-1.962 C -3.962,-4.779 -3.25,-5 -2.4,-5 c 0.633,0 1.2,0.108 1.7,0.325 0.5,0.217 1.016,0.567 1.55,1.05 L 3.025,-5.55 c -0.633,-0.783 -1.4,-1.396 -2.3,-1.838 -0.9,-0.441 -1.958,-0.662 -3.175,-0.662"
         style="fill:#000000;fill-opacity:1;fill-rule:nonzero;stroke:none"
         id="path8445"
         transform="translate(-33.849103,-7.0175957)" />
      <path
         d="M 0,0 H 4.25 L 8.825,-12.325 13.399,0 h 4.151 l -7.075,-17.625 h -3.4 z"
         style="fill:#000000;fill-opacity:1;fill-rule:nonzero;stroke:none"
         id="path8449"
         transform="translate(-21.424303,2.7324045)" />
      <path
         d="m 388.865,432.416 h 3.8 v -13.4 h -3.8 z"
         style="fill:#000000;fill-opacity:1;fill-rule:nonzero;stroke:none"
         id="path8451"
         transform="translate(-390.7651,-433.7832)" />
      <path
         d="m 0,0 c 0.9,0 1.621,0.217 2.162,0.65 0.542,0.433 0.813,1 0.813,1.701 V 3.025 C 2.641,3.175 2.271,3.296 1.862,3.388 1.454,3.479 1.016,3.525 0.55,3.525 c -0.817,0 -1.459,-0.159 -1.925,-0.475 -0.467,-0.317 -0.7,-0.775 -0.7,-1.375 v -0.05 c 0,-0.517 0.191,-0.917 0.575,-1.2 C -1.117,0.142 -0.617,0 0,0 m -1.15,-2.625 c -0.634,0 -1.229,0.088 -1.788,0.263 -0.558,0.174 -1.046,0.437 -1.462,0.787 -0.417,0.35 -0.747,0.779 -0.988,1.288 -0.241,0.508 -0.362,1.096 -0.362,1.763 v 0.049 c 0,0.734 0.133,1.367 0.4,1.9 0.266,0.533 0.637,0.975 1.112,1.325 0.475,0.351 1.042,0.612 1.7,0.788 C -1.879,5.713 -1.15,5.8 -0.35,5.8 0.333,5.8 0.929,5.75 1.437,5.65 1.945,5.55 2.441,5.417 2.925,5.25 V 5.476 C 2.925,6.275 2.683,6.884 2.2,7.3 1.716,7.717 1,7.925 0.05,7.925 -0.684,7.925 -1.33,7.862 -1.888,7.737 -2.446,7.612 -3.034,7.434 -3.65,7.2 l -0.95,2.901 c 0.733,0.316 1.5,0.574 2.3,0.774 0.8,0.2 1.766,0.3 2.9,0.3 1.05,0 1.945,-0.129 2.687,-0.387 0.741,-0.259 1.354,-0.63 1.838,-1.113 0.5,-0.5 0.866,-1.112 1.1,-1.837 C 6.458,7.112 6.575,6.3 6.575,5.4 V -2.375 H 2.9 v 1.45 C 2.433,-1.441 1.875,-1.854 1.225,-2.162 0.575,-2.471 -0.217,-2.625 -1.15,-2.625"
         style="fill:#000000;fill-opacity:1;fill-rule:nonzero;stroke:none"
         id="path8455"
         transform="translate(10.002401,-12.392598)" />
      <path
         d="m 0,0 h 3.8 v -1.916 c 0.217,0.285 0.454,0.559 0.713,0.818 0.258,0.261 0.546,0.492 0.862,0.693 0.317,0.201 0.667,0.361 1.05,0.478 0.384,0.117 0.817,0.177 1.301,0.177 1.449,0 2.57,-0.442 3.362,-1.325 0.791,-0.884 1.187,-2.1 1.187,-3.651 V -13.4 H 8.476 v 7.457 c 0,0.897 -0.201,1.575 -0.601,2.032 -0.399,0.457 -0.966,0.685 -1.7,0.685 -0.733,0 -1.312,-0.228 -1.737,-0.685 C 4.013,-4.368 3.8,-5.046 3.8,-5.943 V -13.4 H 0 Z"
         style="fill:#000000;fill-opacity:1;fill-rule:nonzero;stroke:none"
         id="path8459"
         transform="translate(19.559103,-1.3672006)" />
      <path
         d="m 0,0 c 0.9,0 1.62,0.217 2.162,0.65 0.542,0.433 0.813,1 0.813,1.701 V 3.025 C 2.641,3.175 2.271,3.296 1.862,3.388 1.454,3.479 1.016,3.525 0.55,3.525 c -0.817,0 -1.459,-0.159 -1.925,-0.475 -0.467,-0.317 -0.7,-0.775 -0.7,-1.375 v -0.05 c 0,-0.517 0.192,-0.917 0.575,-1.2 C -1.117,0.142 -0.617,0 0,0 m -1.151,-2.625 c -0.632,0 -1.228,0.088 -1.787,0.263 -0.558,0.174 -1.045,0.437 -1.462,0.787 -0.417,0.35 -0.746,0.779 -0.987,1.288 -0.242,0.508 -0.363,1.096 -0.363,1.763 v 0.049 c 0,0.734 0.133,1.367 0.4,1.9 0.267,0.533 0.637,0.975 1.113,1.325 0.475,0.351 1.041,0.612 1.7,0.788 C -1.879,5.713 -1.151,5.8 -0.35,5.8 0.333,5.8 0.929,5.75 1.437,5.65 1.946,5.55 2.441,5.417 2.925,5.25 V 5.476 C 2.925,6.275 2.683,6.884 2.2,7.3 1.716,7.717 1,7.925 0.05,7.925 -0.684,7.925 -1.329,7.862 -1.887,7.737 -2.446,7.612 -3.033,7.434 -3.65,7.2 l -0.95,2.901 c 0.733,0.316 1.5,0.574 2.3,0.774 0.8,0.2 1.766,0.3 2.899,0.3 1.051,0 1.947,-0.129 2.688,-0.387 0.742,-0.259 1.354,-0.63 1.838,-1.113 0.5,-0.5 0.866,-1.112 1.1,-1.837 C 6.458,7.112 6.575,6.3 6.575,5.4 V -2.375 H 2.9 v 1.45 C 2.433,-1.441 1.875,-1.854 1.225,-2.162 0.575,-2.471 -0.217,-2.625 -1.151,-2.625"
         style="fill:#000000;fill-opacity:1;fill-rule:nonzero;stroke:none"
         id="path8463"
         transform="translate(39.756296,-12.392598)" />
      <path
         d="m 331.167,462.516 h 3.85 v -17.5 h -3.85 z"
         style="fill:#000000;fill-opacity:1;fill-rule:nonzero;stroke:none"
         id="path8361"
         transform="translate(-390.7651,-433.7832)" />
      <path
         d="m 0,0 h 3.8 v -1.916 c 0.216,0.285 0.453,0.559 0.712,0.818 0.259,0.261 0.546,0.492 0.863,0.693 0.316,0.201 0.666,0.361 1.05,0.478 0.383,0.117 0.816,0.177 1.3,0.177 1.45,0 2.57,-0.442 3.362,-1.325 0.791,-0.884 1.188,-2.1 1.188,-3.651 V -13.4 h -3.8 v 7.457 c 0,0.897 -0.2,1.575 -0.6,2.032 -0.4,0.457 -0.967,0.685 -1.7,0.685 -0.734,0 -1.313,-0.228 -1.738,-0.685 C 4.012,-4.368 3.8,-5.046 3.8,-5.943 V -13.4 H 0 Z"
         style="fill:#000000;fill-opacity:1;fill-rule:nonzero;stroke:none"
         id="path8373"
         transform="translate(-52.153303,24.632803)" />
      <path
         d="M 0,0 C -0.95,0 -1.921,0.163 -2.912,0.487 -3.904,0.812 -4.85,1.325 -5.75,2.025 l 1.625,2.5 c 0.733,-0.534 1.463,-0.933 2.188,-1.2 0.725,-0.266 1.403,-0.4 2.037,-0.4 0.55,0 0.954,0.092 1.212,0.275 C 1.571,3.384 1.7,3.625 1.7,3.925 V 3.976 C 1.7,4.175 1.625,4.351 1.475,4.5 1.325,4.65 1.121,4.779 0.862,4.888 0.604,4.996 0.308,5.101 -0.025,5.2 -0.358,5.3 -0.708,5.408 -1.075,5.525 -1.542,5.658 -2.012,5.821 -2.487,6.013 -2.962,6.204 -3.392,6.454 -3.775,6.763 -4.158,7.071 -4.471,7.45 -4.712,7.9 c -0.242,0.451 -0.363,1 -0.363,1.65 v 0.051 c 0,0.682 0.129,1.287 0.388,1.812 0.258,0.525 0.608,0.971 1.05,1.337 0.441,0.366 0.958,0.642 1.55,0.825 0.591,0.184 1.229,0.276 1.912,0.276 0.85,0 1.713,-0.138 2.588,-0.413 C 3.288,13.163 4.091,12.783 4.825,12.3 L 3.375,9.675 c -0.667,0.384 -1.317,0.687 -1.95,0.913 -0.633,0.225 -1.192,0.337 -1.675,0.337 -0.467,0 -0.817,-0.087 -1.05,-0.262 C -1.533,10.487 -1.65,10.267 -1.65,10 V 9.95 c 0,-0.183 0.075,-0.346 0.225,-0.487 0.15,-0.142 0.35,-0.275 0.6,-0.4 C -0.575,8.938 -0.288,8.816 0.038,8.7 0.362,8.583 0.708,8.467 1.075,8.351 1.542,8.2 2.017,8.021 2.5,7.812 2.983,7.604 3.417,7.351 3.8,7.05 4.183,6.75 4.5,6.384 4.75,5.95 5,5.517 5.125,4.991 5.125,4.375 V 4.325 C 5.125,3.575 4.996,2.929 4.737,2.388 4.479,1.846 4.116,1.4 3.65,1.05 3.183,0.7 2.638,0.437 2.013,0.263 1.388,0.088 0.716,0 0,0"
         style="fill:#000000;fill-opacity:1;fill-rule:nonzero;stroke:none"
         id="path8377"
         transform="translate(-32.179198,10.982405)" />
      <path
         d="M 0,0 C -0.583,0 -1.112,0.062 -1.587,0.187 -2.063,0.312 -2.471,0.533 -2.813,0.85 -3.154,1.166 -3.421,1.579 -3.612,2.087 -3.804,2.596 -3.9,3.241 -3.9,4.024 v 6.351 h -1.6 v 3.25 h 1.6 v 3.425 h 3.8 v -3.425 h 3.15 v -3.25 H -0.1 V 4.63 c 0,-0.87 0.409,-1.305 1.225,-1.305 0.667,0 1.292,0.166 1.875,0.5 V 0.774 C 2.6,0.541 2.158,0.354 1.675,0.212 1.191,0.071 0.633,0 0,0"
         style="fill:#000000;fill-opacity:1;fill-rule:nonzero;stroke:none"
         id="path8381"
         transform="translate(-20.231998,11.0078)" />
      <path
         d="m 376.226,458.416 h 3.8 v -13.4 h -3.8 z"
         style="fill:#000000;fill-opacity:1;fill-rule:nonzero;stroke:none"
         id="path8383"
         transform="translate(-390.7651,-433.7832)" />
      <path
         d="M 0,0 C -0.583,0 -1.112,0.062 -1.587,0.187 -2.062,0.312 -2.471,0.533 -2.812,0.85 -3.154,1.166 -3.421,1.579 -3.612,2.087 -3.804,2.596 -3.9,3.241 -3.9,4.024 v 6.351 h -1.6 v 3.25 h 1.6 v 3.425 h 3.8 v -3.425 h 3.15 v -3.25 H -0.1 V 4.63 c 0,-0.87 0.408,-1.305 1.225,-1.305 0.667,0 1.292,0.166 1.875,0.5 V 0.774 C 2.6,0.541 2.158,0.354 1.675,0.212 1.191,0.071 0.633,0 0,0"
         style="fill:#000000;fill-opacity:1;fill-rule:nonzero;stroke:none"
         id="path8387"
         transform="translate(-3.0776972,11.0078)" />
      <path
         d="m 0,0 c -1.45,0 -2.571,0.441 -3.362,1.325 -0.792,0.883 -1.188,2.1 -1.188,3.651 v 8.674 h 3.8 V 6.193 c 0,-0.897 0.2,-1.575 0.6,-2.032 0.4,-0.457 0.966,-0.685 1.7,-0.685 0.733,0 1.312,0.228 1.738,0.685 0.424,0.457 0.637,1.135 0.637,2.032 v 7.457 h 3.8 V 0.25 h -3.8 V 2.166 C 3.708,1.88 3.471,1.607 3.212,1.348 2.954,1.087 2.667,0.856 2.35,0.655 2.033,0.453 1.683,0.294 1.3,0.177 0.917,0.06 0.483,0 0,0"
         style="fill:#000000;fill-opacity:1;fill-rule:nonzero;stroke:none"
         id="path8391"
         transform="translate(6.9448006,10.982405)" />
      <path
         d="M 0,0 C -0.583,0 -1.112,0.062 -1.587,0.187 -2.062,0.312 -2.471,0.533 -2.812,0.85 -3.154,1.166 -3.421,1.579 -3.612,2.087 -3.804,2.596 -3.9,3.241 -3.9,4.024 v 6.351 h -1.6 v 3.25 h 1.6 v 3.425 h 3.8 v -3.425 h 3.15 v -3.25 H -0.1 V 4.63 c 0,-0.87 0.409,-1.305 1.225,-1.305 0.667,0 1.292,0.166 1.875,0.5 V 0.774 C 2.6,0.541 2.158,0.354 1.675,0.212 1.191,0.071 0.633,0 0,0"
         style="fill:#000000;fill-opacity:1;fill-rule:nonzero;stroke:none"
         id="path8395"
         transform="translate(22.309098,11.0078)" />
      <path
         d="M 0,0 C 0.55,0 1.037,0.096 1.462,0.287 1.887,0.479 2.25,0.741 2.55,1.074 2.85,1.408 3.079,1.795 3.237,2.237 3.396,2.679 3.475,3.149 3.475,3.649 v 0.05 c 0,0.5 -0.083,0.971 -0.25,1.413 C 3.058,5.554 2.816,5.945 2.5,6.287 2.183,6.629 1.808,6.899 1.375,7.1 0.941,7.3 0.466,7.399 -0.05,7.399 -0.601,7.399 -1.087,7.304 -1.513,7.112 -1.937,6.92 -2.3,6.658 -2.601,6.324 -2.9,5.991 -3.129,5.604 -3.288,5.162 -3.446,4.721 -3.525,4.25 -3.525,3.75 V 3.699 c 0,-0.5 0.084,-0.97 0.25,-1.412 C -3.108,1.846 -2.867,1.453 -2.55,1.112 -2.233,0.771 -1.862,0.5 -1.437,0.3 -1.013,0.1 -0.534,0 0,0 m -0.05,-3.275 c -1.033,0 -1.992,0.179 -2.875,0.537 -0.884,0.358 -1.646,0.85 -2.287,1.475 -0.642,0.625 -1.146,1.359 -1.513,2.2 -0.367,0.841 -0.55,1.746 -0.55,2.712 v 0.05 c 0,0.967 0.183,1.871 0.55,2.713 0.367,0.842 0.875,1.579 1.525,2.213 0.65,0.633 1.417,1.133 2.3,1.5 0.883,0.366 1.85,0.55 2.9,0.55 1.033,0 1.991,-0.18 2.875,-0.538 C 3.758,9.778 4.521,9.287 5.162,8.662 5.804,8.037 6.308,7.304 6.675,6.462 7.042,5.62 7.225,4.716 7.225,3.75 V 3.699 C 7.225,2.732 7.042,1.828 6.675,0.987 6.308,0.146 5.8,-0.592 5.149,-1.226 4.5,-1.859 3.733,-2.359 2.85,-2.726 1.966,-3.092 1,-3.275 -0.05,-3.275"
         style="fill:#000000;fill-opacity:1;fill-rule:nonzero;stroke:none"
         id="path8399"
         transform="translate(34.228999,14.208005)" />
      <path
         d="m 227.166,468.01 h 78 v -7 h -78 z"
         style="fill:#000000;fill-opacity:1;fill-rule:nonzero;stroke:none"
         id="path8499"
         transform="translate(-390.7651,-433.7832)" />
      <path
         d="m 210.213,445.009 h 7.789 v -26 h -7.789 z"
         style="fill:#000000;fill-opacity:1;fill-rule:nonzero;stroke:none"
         id="path8501"
         transform="translate(-390.7651,-433.7832)" />
      <path
         d="m 0,0 -9.608,-26 h -8.827 l -9.607,26 h 8.621 l 5.4,-16.483 5.4,16.483 z"
         style="fill:#000000;fill-opacity:1;fill-rule:nonzero;stroke:none"
         id="path8505"
         transform="translate(-112.5156,11.2256)" />
      <path
         d="m 0,0 c 0,7.748 5.868,13.729 13.762,13.729 5.037,0 9.503,-2.653 11.736,-6.657 L 18.695,3.12 C 17.811,4.94 15.942,6.032 13.657,6.032 10.283,6.032 7.79,3.589 7.79,0 c 0,-3.588 2.493,-6.031 5.867,-6.031 2.285,0 4.207,1.092 5.038,2.912 L 25.498,-7.02 C 23.265,-11.076 18.851,-13.728 13.762,-13.728 5.868,-13.728 0,-7.748 0,0"
         style="fill:#000000;fill-opacity:1;fill-rule:nonzero;stroke:none"
         id="path8509"
         transform="translate(-111.9966,-1.7743981)" />
      <path
         d="m 0,0 c -2.963,0 -5.542,1.936 -5.542,5.784 0,4.265 2.468,6.279 5.568,6.279 3.376,0 5.855,-2.443 5.855,-6.032 C 5.881,2.443 3.375,0 0,0 m -0.104,19.76 c -6.687,0 -12.648,-6.447 -12.648,-13.196 l 0.018,-30.613 h 8.545 v 18.015 c 1,-0.927 2.762,-1.662 4.495,-1.662 7.892,0 13.556,5.979 13.556,13.727 0,7.748 -6.072,13.729 -13.966,13.729"
         style="fill:#000000;fill-opacity:1;fill-rule:nonzero;stroke:none"
         id="path8513"
         transform="translate(-154.8281,-7.8056957)" />
      <path
         d="m 0,0 c -2.735,0 -5.023,2.291 -5.023,5.03 0,2.741 2.288,5.032 5.023,5.032 2.736,0 5.024,-2.291 5.024,-5.032 C 5.024,2.291 2.736,0 0,0"
         style="fill:#000000;fill-opacity:1;fill-rule:nonzero;stroke:none"
         id="path8517"
         transform="translate(-176.6582,25.695298)" />
      <path
         d="m 0,0 c -1.186,0 -2.178,0.993 -2.178,2.181 0,1.188 0.992,2.181 2.178,2.181 1.187,0 2.179,-0.993 2.179,-2.181 C 2.179,0.993 1.187,0 0,0"
         style="fill:#000000;fill-opacity:1;fill-rule:nonzero;stroke:none"
         id="path8529"
         transform="translate(153.3423,25.9883)" />
      <path
         d="m 0,0 c -1.186,0 -2.178,0.994 -2.178,2.182 0,1.187 0.992,2.181 2.178,2.181 1.186,0 2.178,-0.994 2.178,-2.181 C 2.178,0.994 1.186,0 0,0"
         style="fill:#000000;fill-opacity:1;fill-rule:nonzero;stroke:none"
         id="path8533" />
    </g>
  </g>
</svg>
