<svg width="500mm" height="346.453" viewBox="0 0 500 91.666" xmlns="http://www.w3.org/2000/svg"><path d="M229.18 13.27c-1.608 0-2.953-1.348-2.953-2.959 0-1.609 1.345-2.957 2.953-2.957 1.608 0 2.953 1.348 2.953 2.957 0 1.611-1.345 2.959-2.953 2.959M371.92 13.231c-1.608 0-2.952-1.346-2.952-2.958 0-1.61 1.344-2.956 2.952-2.956 1.608 0 2.953 1.347 2.953 2.956 0 1.612-1.345 2.958-2.953 2.958M325.633 21.489c1.31 0 2.327-.344 3.05-1.034.723-.69 1.085-1.542 1.085-2.559v-.068c0-1.174-.38-2.068-1.136-2.679-.756-.608-1.79-.915-3.1-.915h-4.034v7.255zm-9.355-11.965h9.694c1.424 0 2.694.197 3.813.593 1.118.396 2.067.954 2.847 1.678a7.322 7.322 0 011.796 2.592c.418 1.006.628 2.118.628 3.34v.066c0 1.379-.25 2.59-.747 3.627a7.376 7.376 0 01-2.05 2.611c-.87.7-1.886 1.226-3.05 1.575-1.164.352-2.413.526-3.745.526h-3.966v7.118h-5.22zM346.647 29.216c.745 0 1.407-.13 1.982-.39a4.38 4.38 0 001.475-1.066c.407-.453.717-.978.933-1.577a5.64 5.64 0 00.321-1.914V24.2c0-.678-.112-1.317-.339-1.916a4.824 4.824 0 00-2.508-2.695 4.56 4.56 0 00-1.932-.406c-.746 0-1.406.13-1.982.39a4.378 4.378 0 00-1.475 1.068 4.704 4.704 0 00-.933 1.575 5.635 5.635 0 00-.321 1.915v.069c0 .678.112 1.315.339 1.914.226.598.553 1.13.983 1.593.43.462.932.83 1.509 1.101.576.271 1.224.407 1.948.407m-.068 4.44c-1.4 0-2.7-.243-3.898-.728a9.487 9.487 0 01-3.1-2 9.32 9.32 0 01-2.052-2.983 9.096 9.096 0 01-.745-3.676V24.2c0-1.311.248-2.537.745-3.678a9.388 9.388 0 012.068-3 9.805 9.805 0 013.118-2.034c1.197-.497 2.508-.746 3.932-.746 1.4 0 2.7.244 3.898.73 1.197.486 2.231 1.152 3.102 2a9.323 9.323 0 012.05 2.982 9.1 9.1 0 01.745 3.677v.069a9.091 9.091 0 01-.745 3.677 9.402 9.402 0 01-2.068 3 9.82 9.82 0 01-3.118 2.034c-1.199.496-2.508.744-3.932.744M359.783 8.507h5.152v24.742h-5.152zM369.345 15.082h5.152V33.25h-5.152zM384.884 33.554c-.79 0-1.507-.084-2.151-.253a3.832 3.832 0 01-1.663-.899c-.462-.428-.824-.988-1.083-1.677-.26-.69-.39-1.565-.39-2.626v-8.61h-2.17v-4.407h2.17V10.44h5.152v4.643h4.27v4.406h-4.27v7.79c0 1.179.553 1.769 1.66 1.769.903 0 1.752-.226 2.542-.678v4.136a8.083 8.083 0 01-1.796.762c-.656.191-1.413.287-2.27.287M401.925 7.084l4.44 1.932-4.338 4.067h-3.932zm2.068 15.659c-.157-1.154-.566-2.085-1.22-2.797-.655-.712-1.526-1.068-2.61-1.068-1.085 0-1.96.35-2.626 1.052-.667.7-1.103 1.639-1.306 2.813zm-3.322 10.914c-1.356 0-2.615-.226-3.778-.678a8.76 8.76 0 01-3.017-1.932 8.904 8.904 0 01-1.982-2.966c-.476-1.14-.713-2.412-.713-3.813V24.2c0-1.287.22-2.509.661-3.66a9.316 9.316 0 011.847-3.018 8.703 8.703 0 012.83-2.034c1.096-.496 2.311-.745 3.644-.745 1.513 0 2.824.272 3.931.815a7.98 7.98 0 012.764 2.185 9.13 9.13 0 011.626 3.153 13.05 13.05 0 01.509 4.354c-.012.226-.029.464-.052.713h-12.64c.246 1.174.761 2.06 1.54 2.66.78.6 1.746.899 2.898.899.86 0 1.627-.148 2.305-.44.678-.295 1.379-.77 2.101-1.424l2.949 2.61a9.136 9.136 0 01-3.118 2.49c-1.22.6-2.655.899-4.305.899M420.815 33.656c-1.356 0-2.616-.25-3.78-.745a9.275 9.275 0 01-3-2.016 9.265 9.265 0 01-1.965-2.983 9.399 9.399 0 01-.712-3.644V24.2a9.52 9.52 0 01.712-3.66 9.401 9.401 0 011.966-3.017 9.171 9.171 0 012.999-2.034c1.164-.497 2.445-.746 3.847-.746 1.717 0 3.14.272 4.271.814a9.6 9.6 0 012.983 2.237l-3.152 3.39c-.589-.61-1.192-1.096-1.814-1.458-.621-.36-1.396-.542-2.322-.542-.656 0-1.248.13-1.78.389-.53.261-.993.615-1.39 1.068-.394.452-.699.978-.914 1.575a5.649 5.649 0 00-.322 1.916v.068c0 .7.107 1.356.322 1.966.215.61.526 1.14.932 1.593.407.451.892.808 1.458 1.067.564.26 1.197.39 1.898.39.858 0 1.61-.175 2.253-.524a9.565 9.565 0 001.916-1.408l3.016 3.05a11.61 11.61 0 01-3.016 2.391c-1.13.62-2.6.931-4.406.931M430.857 15.082h5.152v2.598c.294-.387.615-.758.967-1.11.35-.353.74-.666 1.168-.939.429-.272.904-.49 1.424-.648a6.037 6.037 0 011.762-.24c1.966 0 3.486.6 4.56 1.797 1.072 1.198 1.609 2.847 1.609 4.95v11.76h-5.152V23.14c0-1.217-.271-2.136-.813-2.755-.543-.62-1.311-.93-2.305-.93-.995 0-1.779.31-2.357.93-.574.62-.863 1.538-.863 2.754v10.11h-5.152zM451.637 15.082h5.152V33.25h-5.152zM469.525 33.656c-1.355 0-2.615-.25-3.78-.745a9.275 9.275 0 01-2.998-2.016 9.287 9.287 0 01-1.966-2.983 9.399 9.399 0 01-.712-3.644V24.2a9.52 9.52 0 01.712-3.66 9.424 9.424 0 011.966-3.017 9.171 9.171 0 012.998-2.034c1.165-.497 2.448-.746 3.848-.746 1.717 0 3.141.272 4.27.814a9.585 9.585 0 012.983 2.237l-3.152 3.39c-.587-.61-1.191-1.096-1.814-1.458-.62-.36-1.395-.542-2.32-.542-.656 0-1.25.13-1.78.389-.531.261-.995.615-1.39 1.068a4.86 4.86 0 00-.914 1.575 5.616 5.616 0 00-.323 1.916v.068c0 .7.107 1.356.323 1.966.214.61.524 1.14.931 1.593.407.451.892.808 1.458 1.067.564.26 1.197.39 1.898.39.86 0 1.609-.175 2.253-.524a9.565 9.565 0 001.916-1.408l3.016 3.05a11.61 11.61 0 01-3.016 2.391c-1.13.62-2.6.931-4.407.931M487.987 29.216c.746 0 1.407-.13 1.983-.39a4.388 4.388 0 001.474-1.066c.407-.453.717-.978.933-1.577a5.64 5.64 0 00.321-1.914V24.2c0-.678-.112-1.317-.339-1.916a4.827 4.827 0 00-2.508-2.695 4.555 4.555 0 00-1.932-.406c-.745 0-1.406.13-1.982.39a4.378 4.378 0 00-1.475 1.068 4.679 4.679 0 00-.931 1.575 5.603 5.603 0 00-.323 1.915v.069c0 .678.114 1.315.339 1.914.226.598.553 1.13.983 1.593.43.462.933.83 1.509 1.101.576.271 1.225.407 1.948.407m-.068 4.44c-1.4 0-2.7-.243-3.898-.728a9.487 9.487 0 01-3.1-2 9.32 9.32 0 01-2.051-2.983 9.096 9.096 0 01-.746-3.676V24.2c0-1.311.248-2.537.746-3.678a9.388 9.388 0 012.067-3 9.82 9.82 0 013.118-2.034c1.197-.497 2.508-.746 3.932-.746 1.4 0 2.7.244 3.898.73 1.197.486 2.231 1.152 3.102 2a9.302 9.302 0 012.05 2.982 9.1 9.1 0 01.745 3.677v.069a9.091 9.091 0 01-.745 3.677 9.38 9.38 0 01-2.068 3 9.82 9.82 0 01-3.118 2.034c-1.197.496-2.508.744-3.932.744M331.839 64.466c.61 0 1.18-.118 1.712-.356.53-.237.994-.576 1.39-1.017a5.07 5.07 0 00.949-1.594c.237-.62.355-1.303.355-2.048v-.07a5.7 5.7 0 00-.355-2.05 5.063 5.063 0 00-.95-1.593c-.395-.44-.859-.78-1.39-1.016a4.152 4.152 0 00-1.711-.356c-.61 0-1.181.118-1.711.356-.532.237-1 .576-1.408 1.016-.406.441-.728.966-.965 1.577-.239.61-.357 1.3-.357 2.066v.07c0 .745.118 1.427.357 2.048.237.622.559 1.154.965 1.594.407.441.876.78 1.408 1.017.53.238 1.1.356 1.71.356m-1.321 4.373a8.074 8.074 0 01-3.085-.611 7.618 7.618 0 01-2.643-1.814c-.77-.8-1.385-1.784-1.847-2.948-.464-1.164-.695-2.502-.695-4.015v-.07c0-1.513.231-2.852.695-4.015.462-1.164 1.073-2.147 1.83-2.95a7.459 7.459 0 012.626-1.813 8.182 8.182 0 013.119-.61c1.379 0 2.513.27 3.407.815a9.074 9.074 0 012.253 1.896v-8.946h5.152V68.5h-5.152v-2.61a8.176 8.176 0 01-2.287 2.118c-.894.553-2.017.831-3.373.831M354.382 64.466c.745 0 1.407-.13 1.982-.39a4.393 4.393 0 001.475-1.067c.406-.452.717-.977.931-1.576.216-.6.323-1.237.323-1.915v-.067c0-.678-.114-1.317-.34-1.916a4.824 4.824 0 00-2.508-2.695 4.56 4.56 0 00-1.931-.406c-.747 0-1.406.129-1.984.39a4.405 4.405 0 00-1.475 1.068 4.723 4.723 0 00-.931 1.575 5.635 5.635 0 00-.322 1.914v.07c0 .677.113 1.315.34 1.914a4.845 4.845 0 002.492 2.694c.574.271 1.224.407 1.948.407m-.068 4.44c-1.4 0-2.7-.243-3.898-.728a9.487 9.487 0 01-3.1-2 9.299 9.299 0 01-2.052-2.983 9.096 9.096 0 01-.746-3.677v-.067c0-1.311.248-2.537.746-3.679a9.345 9.345 0 012.068-3 9.805 9.805 0 013.118-2.034c1.196-.496 2.508-.745 3.932-.745 1.4 0 2.699.244 3.897.73s2.232 1.152 3.102 1.999a9.323 9.323 0 012.05 2.983 9.123 9.123 0 01.746 3.676v.07c0 1.31-.25 2.536-.746 3.676a9.385 9.385 0 01-2.069 3 9.814 9.814 0 01-3.117 2.034c-1.198.497-2.508.745-3.931.745M389.053 68.906c-1.739 0-3.355-.316-4.846-.949a11.911 11.911 0 01-3.864-2.592 11.818 11.818 0 01-2.542-3.882c-.61-1.49-.916-3.084-.916-4.779v-.067c0-1.695.305-3.283.916-4.763a12.269 12.269 0 012.542-3.898c1.084-1.119 2.383-1.998 3.897-2.644 1.513-.642 3.186-.965 5.017-.965 1.107 0 2.119.09 3.034.271.915.18 1.745.43 2.49.746.746.317 1.435.7 2.068 1.152.633.453 1.22.95 1.763 1.491l-3.322 3.83c-.926-.835-1.87-1.49-2.83-1.965-.96-.475-2.04-.712-3.237-.712-.994 0-1.914.192-2.762.576a6.534 6.534 0 00-2.187 1.593 7.425 7.425 0 00-1.423 2.355 8.007 8.007 0 00-.509 2.865v.068c0 1.016.17 1.976.509 2.88a7.535 7.535 0 001.407 2.373 6.542 6.542 0 002.17 1.61c.847.397 1.778.593 2.795.593 1.356 0 2.503-.248 3.44-.745.938-.498 1.87-1.176 2.796-2.034l3.322 3.355a17.25 17.25 0 01-1.898 1.763 11.12 11.12 0 01-4.711 2.185c-.926.193-1.966.29-3.119.29M408.817 65.28c1.22 0 2.197-.294 2.932-.881.734-.587 1.101-1.356 1.101-2.307v-.913a7.88 7.88 0 00-1.509-.493 8.156 8.156 0 00-1.779-.185c-1.107 0-1.976.215-2.61.644-.633.43-.949 1.05-.949 1.864v.068c0 .7.26 1.243.78 1.627.52.383 1.197.576 2.034.576m-1.56 3.559a8.07 8.07 0 01-2.424-.357 5.671 5.671 0 01-1.982-1.067 5.13 5.13 0 01-1.34-1.746c-.326-.689-.49-1.486-.49-2.39v-.067c0-.995.18-1.853.542-2.576a4.956 4.956 0 011.51-1.796c.642-.476 1.41-.83 2.303-1.068.893-.238 1.881-.356 2.966-.356.926 0 1.734.068 2.423.204.69.135 1.361.316 2.017.542v-.306c0-1.084-.327-1.91-.983-2.473-.655-.566-1.627-.848-2.915-.848-.995 0-1.87.086-2.627.255-.757.17-1.552.411-2.389.728l-1.288-3.933a20.3 20.3 0 013.118-1.05c1.085-.27 2.396-.406 3.932-.406 1.424 0 2.638.175 3.644.525 1.005.351 1.836.854 2.49 1.509.679.678 1.176 1.507 1.492 2.49.316.985.475 2.085.475 3.306v10.54h-4.983v-1.965c-.631.7-1.39 1.26-2.27 1.677-.882.419-1.956.628-3.22.628M428.095 68.839c-1.288 0-2.604-.221-3.948-.66-1.345-.441-2.627-1.137-3.847-2.086l2.203-3.39c.993.725 1.983 1.266 2.966 1.628.983.36 1.904.542 2.762.542.745 0 1.293-.125 1.643-.373.351-.25.526-.576.526-.983v-.069a.973.973 0 00-.305-.71c-.203-.204-.48-.379-.831-.526-.35-.147-.75-.29-1.203-.423a88.195 88.195 0 01-1.423-.44c-.633-.181-1.27-.402-1.915-.663a6.808 6.808 0 01-1.746-1.016 4.958 4.958 0 01-1.27-1.542c-.328-.611-.492-1.356-.492-2.237v-.069c0-.925.175-1.745.526-2.457a5.452 5.452 0 011.422-1.812c.6-.496 1.3-.87 2.103-1.119a8.682 8.682 0 012.592-.374c1.152 0 2.322.187 3.509.56 1.186.373 2.276.888 3.27 1.543l-1.966 3.559a16.243 16.243 0 00-2.644-1.238c-.858-.305-1.616-.457-2.27-.457-.634 0-1.107.118-1.424.355-.316.239-.475.537-.475.9v.067c0 .248.102.469.305.66.204.193.475.373.814.542.339.17.728.335 1.17.493.439.158.908.315 1.406.473.633.204 1.277.447 1.932.73a7.875 7.875 0 011.762 1.034c.52.406.95.902 1.288 1.49.339.588.508 1.301.508 2.136v.068c0 1.017-.174 1.893-.524 2.626a4.829 4.829 0 01-1.475 1.814 6.606 6.606 0 01-2.22 1.067c-.847.237-1.757.357-2.729.357M444.293 68.804c-.79 0-1.508-.084-2.152-.253a3.827 3.827 0 01-1.66-.9c-.464-.428-.826-.988-1.085-1.676-.26-.69-.39-1.565-.39-2.626v-8.61h-2.17v-4.407h2.17v-4.644h5.151v4.644h4.27v4.406h-4.27v7.79c0 1.179.555 1.768 1.661 1.768a5.03 5.03 0 002.542-.678v4.137a8.083 8.083 0 01-1.796.762c-.656.191-1.413.287-2.271.287M463.402 57.993c-.159-1.154-.565-2.086-1.22-2.797-.655-.712-1.526-1.069-2.61-1.069-1.085 0-1.96.351-2.626 1.052-.667.7-1.102 1.64-1.306 2.814zm-3.322 10.913c-1.355 0-2.615-.226-3.778-.677a8.747 8.747 0 01-3.017-1.932 8.936 8.936 0 01-1.983-2.965c-.473-1.142-.712-2.414-.712-3.814v-.068c0-1.288.22-2.508.662-3.66a9.316 9.316 0 011.846-3.018 8.714 8.714 0 012.83-2.034c1.096-.496 2.31-.744 3.644-.744 1.514 0 2.824.27 3.932.813a7.994 7.994 0 012.761 2.186 9.109 9.109 0 011.629 3.153 13.05 13.05 0 01.508 4.355c-.012.226-.029.462-.052.712h-12.642c.248 1.174.763 2.062 1.543 2.66.78.599 1.745.898 2.897.898.858 0 1.627-.146 2.305-.44.678-.294 1.377-.769 2.101-1.424l2.95 2.61a9.156 9.156 0 01-3.12 2.492c-1.22.598-2.654.897-4.304.897M471.849 43.757H477v24.742h-5.152zM490.205 64.466c.744 0 1.407-.13 1.982-.39a4.36 4.36 0 001.473-1.067c.409-.452.719-.977.933-1.576.216-.6.323-1.237.323-1.915v-.067c0-.678-.114-1.317-.339-1.916a4.824 4.824 0 00-2.508-2.695 4.56 4.56 0 00-1.932-.406c-.746 0-1.406.129-1.984.39a4.386 4.386 0 00-1.473 1.068 4.704 4.704 0 00-.933 1.575 5.635 5.635 0 00-.321 1.914v.07c0 .677.112 1.315.339 1.914a4.86 4.86 0 002.492 2.694c.574.271 1.224.407 1.948.407m-.068 4.44c-1.402 0-2.7-.243-3.898-.728a9.487 9.487 0 01-3.1-2 9.299 9.299 0 01-2.052-2.983 9.096 9.096 0 01-.746-3.677v-.067c0-1.311.249-2.537.746-3.679a9.384 9.384 0 012.066-3 9.827 9.827 0 013.12-2.034c1.197-.496 2.508-.745 3.932-.745 1.4 0 2.699.244 3.897.73s2.232 1.152 3.102 1.999a9.298 9.298 0 012.049 2.983A9.101 9.101 0 01500 59.38v.07c0 1.31-.25 2.536-.747 3.676a9.399 9.399 0 01-2.066 3 9.82 9.82 0 01-3.118 2.034c-1.199.497-2.509.745-3.932.745M174.87 64.466c.61 0 1.18-.118 1.712-.356.53-.237.994-.576 1.39-1.017a5.07 5.07 0 00.948-1.594c.238-.62.356-1.303.356-2.048v-.07a5.7 5.7 0 00-.356-2.05 5.063 5.063 0 00-.949-1.593c-.395-.44-.86-.78-1.39-1.016a4.152 4.152 0 00-1.712-.356c-.61 0-1.18.118-1.71.356-.532.237-1.001.576-1.408 1.016-.407.441-.728.966-.965 1.577-.239.61-.357 1.3-.357 2.066v.07c0 .745.118 1.427.357 2.048.237.622.558 1.154.965 1.594.407.441.876.78 1.407 1.017.53.238 1.101.356 1.711.356m-1.321 4.373a8.074 8.074 0 01-3.085-.611 7.618 7.618 0 01-2.644-1.814c-.768-.8-1.384-1.784-1.846-2.948-.464-1.164-.696-2.502-.696-4.015v-.07c0-1.513.232-2.852.696-4.015.462-1.164 1.072-2.147 1.83-2.95a7.459 7.459 0 012.626-1.813 8.182 8.182 0 013.119-.61c1.378 0 2.513.27 3.407.815a9.074 9.074 0 012.253 1.896v-8.946h5.152V68.5h-5.152v-2.61a8.176 8.176 0 01-2.287 2.118c-.894.553-2.018.831-3.373.831M200.425 57.993c-.158-1.154-.565-2.086-1.22-2.797-.655-.712-1.525-1.069-2.61-1.069-1.084 0-1.96.351-2.626 1.052-.667.7-1.102 1.64-1.306 2.814zm-3.321 10.913c-1.356 0-2.616-.226-3.779-.677a8.747 8.747 0 01-3.017-1.932 8.936 8.936 0 01-1.983-2.965c-.475-1.142-.712-2.414-.712-3.814v-.068c0-1.288.221-2.508.662-3.66a9.293 9.293 0 011.846-3.018 8.714 8.714 0 012.831-2.034c1.096-.496 2.309-.744 3.643-.744 1.515 0 2.824.27 3.932.813a8.012 8.012 0 012.763 2.186 9.13 9.13 0 011.627 3.153 13.05 13.05 0 01.508 4.355c-.012.226-.028.462-.051.712H192.73c.248 1.174.763 2.062 1.543 2.66.78.599 1.745.898 2.897.898.859 0 1.627-.146 2.305-.44.678-.294 1.378-.769 2.102-1.424l2.948 2.61a9.156 9.156 0 01-3.118 2.492c-1.22.598-2.655.897-4.304.897M217.27 44.774h5.762l6.203 16.71 6.201-16.71h5.628l-9.592 23.895h-4.61zM243.74 50.332h5.152v18.167h-5.152zM259.877 65.28c1.22 0 2.198-.294 2.932-.881s1.102-1.356 1.102-2.307v-.913a7.911 7.911 0 00-1.51-.493 8.165 8.165 0 00-1.778-.185c-1.108 0-1.978.215-2.61.644-.633.43-.949 1.05-.949 1.864v.068c0 .7.26 1.243.78 1.627.519.383 1.197.576 2.033.576m-1.559 3.559c-.86 0-1.666-.12-2.424-.357a5.66 5.66 0 01-1.982-1.067 5.097 5.097 0 01-1.34-1.746c-.326-.689-.49-1.486-.49-2.39v-.067c0-.995.18-1.853.542-2.576a4.94 4.94 0 011.508-1.796c.644-.476 1.412-.83 2.304-1.068.894-.238 1.882-.356 2.967-.356.926 0 1.734.068 2.423.204.688.135 1.36.316 2.017.542v-.306c0-1.084-.328-1.91-.983-2.473-.656-.566-1.627-.848-2.915-.848-.995 0-1.87.086-2.627.255-.757.17-1.554.411-2.39.728l-1.287-3.933a20.3 20.3 0 013.118-1.05c1.085-.27 2.394-.406 3.932-.406 1.423 0 2.637.175 3.643.525 1.004.351 1.835.854 2.492 1.509.678.678 1.174 1.507 1.491 2.49.316.985.474 2.085.474 3.306v10.54h-4.982v-1.965c-.633.7-1.39 1.26-2.27 1.677-.882.419-1.956.628-3.22.628M272.834 50.332h5.152v2.598c.294-.387.615-.758.967-1.11.35-.353.74-.666 1.168-.939a5.82 5.82 0 011.424-.648 6.04 6.04 0 011.764-.24c1.964 0 3.484.6 4.558 1.796 1.072 1.199 1.609 2.848 1.609 4.95V68.5h-5.15V58.39c0-1.216-.273-2.135-.815-2.755-.541-.62-1.31-.928-2.305-.928-.994 0-1.779.309-2.355.928-.576.62-.865 1.54-.865 2.755V68.5h-5.152zM300.217 65.28c1.22 0 2.196-.294 2.93-.881.736-.587 1.103-1.356 1.103-2.307v-.913a7.911 7.911 0 00-1.509-.493 8.165 8.165 0 00-1.779-.185c-1.107 0-1.978.215-2.61.644-.633.43-.949 1.05-.949 1.864v.068c0 .7.26 1.243.78 1.627.52.383 1.197.576 2.034.576m-1.56 3.559c-.858 0-1.666-.12-2.424-.357a5.671 5.671 0 01-1.982-1.067 5.093 5.093 0 01-1.338-1.746c-.328-.689-.492-1.486-.492-2.39v-.067c0-.995.18-1.853.542-2.576a4.943 4.943 0 011.51-1.796c.643-.476 1.41-.83 2.304-1.068.892-.238 1.88-.356 2.965-.356.926 0 1.734.068 2.423.204.69.135 1.361.316 2.017.542v-.306c0-1.084-.328-1.91-.983-2.473-.656-.566-1.627-.848-2.915-.848-.995 0-1.87.086-2.626.255-.758.17-1.553.411-2.39.728l-1.288-3.933a20.3 20.3 0 013.118-1.05c1.085-.27 2.395-.406 3.93-.406 1.426 0 2.64.175 3.645.525 1.006.351 1.836.854 2.492 1.509.678.678 1.174 1.507 1.491 2.49.316.985.475 2.085.475 3.306v10.54h-4.983v-1.965c-.633.7-1.39 1.26-2.27 1.677-.882.419-1.956.628-3.222.628M165.516 9.524h5.22v23.725h-5.22zM175.609 15.082h5.152v2.598c.293-.387.614-.758.965-1.11.351-.353.74-.666 1.17-.939.429-.272.903-.49 1.424-.648a6.024 6.024 0 011.762-.24c1.966 0 3.485.6 4.558 1.797 1.073 1.198 1.611 2.847 1.611 4.95v11.76h-5.152V23.14c0-1.217-.271-2.136-.813-2.755-.543-.62-1.311-.93-2.305-.93-.995 0-1.78.31-2.356.93-.577.62-.864 1.538-.864 2.754v10.11h-5.152zM202.69 33.589c-1.289 0-2.605-.221-3.949-.66-1.345-.441-2.627-1.137-3.847-2.086l2.203-3.389c.993.724 1.983 1.265 2.966 1.627.983.36 1.902.542 2.762.542.745 0 1.293-.124 1.643-.373.351-.249.526-.576.526-.983v-.069a.973.973 0 00-.305-.71c-.203-.203-.48-.378-.831-.526-.35-.147-.751-.289-1.203-.423a88.195 88.195 0 01-1.423-.44c-.633-.181-1.27-.402-1.915-.662a6.808 6.808 0 01-1.746-1.017 4.958 4.958 0 01-1.27-1.542c-.328-.611-.492-1.355-.492-2.237v-.069c0-.924.175-1.745.526-2.456a5.438 5.438 0 011.423-1.813 6.05 6.05 0 012.102-1.119 8.682 8.682 0 012.592-.374c1.152 0 2.322.187 3.509.56 1.186.373 2.275.888 3.27 1.543l-1.966 3.559a16.296 16.296 0 00-2.644-1.238c-.858-.305-1.616-.457-2.27-.457-.634 0-1.108.118-1.424.355-.316.239-.475.537-.475.9v.067c0 .248.102.47.305.66.204.193.475.373.814.543.339.17.728.334 1.17.492.439.158.908.316 1.406.473.633.205 1.277.447 1.932.73a7.875 7.875 0 011.762 1.034c.52.406.95.903 1.288 1.491.339.587.508 1.3.508 2.135v.068c0 1.017-.174 1.893-.526 2.626a4.826 4.826 0 01-1.473 1.814 6.619 6.619 0 01-2.22 1.067c-.847.238-1.758.357-2.729.357M218.887 33.554c-.79 0-1.508-.084-2.152-.253a3.832 3.832 0 01-1.662-.899c-.462-.428-.824-.988-1.083-1.677-.26-.69-.39-1.565-.39-2.626v-8.61h-2.17v-4.407h2.17V10.44h5.151v4.643h4.27v4.406h-4.27v7.79c0 1.179.555 1.769 1.66 1.769a5.03 5.03 0 002.543-.678v4.136a8.083 8.083 0 01-1.796.762c-.657.191-1.413.287-2.271.287M226.605 15.082h5.152V33.25h-5.152zM242.144 33.554c-.79 0-1.508-.084-2.152-.253a3.827 3.827 0 01-1.66-.899c-.464-.428-.826-.988-1.085-1.677-.26-.69-.39-1.565-.39-2.626v-8.61h-2.17v-4.407h2.17V10.44h5.151v4.643h4.27v4.406h-4.27v7.79c0 1.179.553 1.769 1.661 1.769a5.03 5.03 0 002.542-.678v4.136a8.083 8.083 0 01-1.796.762c-.656.191-1.413.287-2.271.287M255.732 33.589c-1.966 0-3.486-.598-4.558-1.797-1.074-1.197-1.61-2.847-1.61-4.95v-11.76h5.151v10.11c0 1.217.271 2.136.814 2.756.542.62 1.31.928 2.304.928.994 0 1.78-.309 2.357-.928.575-.62.863-1.54.863-2.755v-10.11h5.152V33.25h-5.152v-2.598c-.294.388-.615.758-.966 1.11-.35.353-.74.666-1.169.939a5.77 5.77 0 01-1.424.648 6.03 6.03 0 01-1.762.24M276.562 33.554c-.79 0-1.507-.084-2.151-.253a3.827 3.827 0 01-1.661-.899c-.464-.428-.826-.988-1.085-1.677-.26-.69-.39-1.565-.39-2.626v-8.61h-2.17v-4.407h2.17V10.44h5.152v4.643h4.27v4.406h-4.27v7.79c0 1.179.554 1.769 1.66 1.769a5.03 5.03 0 002.543-.678v4.136a8.083 8.083 0 01-1.797.762c-.656.191-1.413.287-2.27.287M292.723 29.216c.746 0 1.406-.13 1.982-.39a4.393 4.393 0 001.475-1.066c.407-.453.717-.978.931-1.577.216-.6.323-1.237.323-1.914V24.2c0-.678-.112-1.317-.339-1.916a4.824 4.824 0 00-2.508-2.695 4.56 4.56 0 00-1.932-.406c-.747 0-1.406.13-1.983.39a4.405 4.405 0 00-1.475 1.068 4.723 4.723 0 00-.932 1.575 5.635 5.635 0 00-.321 1.915v.069c0 .678.114 1.315.339 1.914.226.598.553 1.13.983 1.593.43.462.932.83 1.509 1.101.574.271 1.224.407 1.948.407m-.068 4.44c-1.4 0-2.7-.243-3.898-.728a9.487 9.487 0 01-3.1-2 9.32 9.32 0 01-2.052-2.983 9.096 9.096 0 01-.745-3.676V24.2c0-1.311.248-2.537.745-3.678a9.388 9.388 0 012.068-3 9.82 9.82 0 013.118-2.034c1.197-.497 2.508-.746 3.932-.746 1.4 0 2.7.244 3.898.73 1.197.486 2.231 1.152 3.1 2a9.305 9.305 0 012.052 2.982 9.1 9.1 0 01.745 3.677v.069a9.091 9.091 0 01-.745 3.677 9.385 9.385 0 01-2.07 3 9.8 9.8 0 01-3.116 2.034c-1.199.496-2.508.744-3.932.744M24.515 2.075h105.75v9.49H24.514zM1.53 33.259h10.56v35.25H1.53zM93.772 33.26L80.746 68.508H68.779l-13.025-35.25h11.688l7.321 22.347 7.321-22.347zM94.476 50.884c0-10.504 7.955-18.613 18.658-18.613 6.829 0 12.884 3.597 15.911 9.025l-9.223 5.358c-1.199-2.467-3.733-3.948-6.83-3.948-4.575 0-7.955 3.312-7.955 8.178 0 4.865 3.38 8.177 7.954 8.177 3.098 0 5.704-1.48 6.83-3.948l9.224 5.288c-3.027 5.5-9.012 9.095-15.911 9.095-10.703 0-18.658-8.108-18.658-18.612M36.406 59.061c-4.017 0-7.513-2.625-7.513-7.842 0-5.782 3.346-8.513 7.549-8.513 4.577 0 7.938 3.313 7.938 8.178s-3.398 8.177-7.974 8.177m-.14-26.79c-9.067 0-17.148 8.74-17.148 17.89l.024 41.505h11.585V67.242c1.356 1.257 3.745 2.253 6.094 2.253 10.7 0 18.379-8.106 18.379-18.61 0-10.505-8.232-18.614-18.935-18.614M6.81 13.642c-3.708 0-6.81-3.106-6.81-6.82C0 3.106 3.102 0 6.81 0c3.71 0 6.811 3.106 6.811 6.822 0 3.714-3.102 6.82-6.811 6.82M454.212 13.244c-1.608 0-2.953-1.346-2.953-2.956 0-1.611 1.345-2.957 2.953-2.957 1.61 0 2.954 1.346 2.954 2.957 0 1.61-1.345 2.956-2.954 2.956M246.316 48.478c-1.607 0-2.952-1.347-2.952-2.958 0-1.61 1.345-2.957 2.952-2.957 1.608 0 2.953 1.348 2.953 2.957 0 1.61-1.345 2.958-2.953 2.958"/></svg>